<svg width="157" height="40" viewBox="0 0 157 40" xmlns="http://www.w3.org/2000/svg"><title>bb-logo</title><desc>Created with Sketch.</desc><g transform="translate(0 0)" fill-rule="nonzero" fill="#5D7EAC"><path d="M34.736.336c-.028-.095-.116-.161-.216-.16h-2.08c-.1-.001-.188.065-.216.16l-2.624 8.344c-.02.068-.007.142.035.198.043.057.11.09.181.09h1.432c.1.001.188-.065.216-.16l1.808-6.136c.03-.089.114-.15.208-.152.097 0 .183.066.208.16l.84 2.92h-1.128c-.1-.001-.188.065-.216.16l-.32 1.152c-.029.061-.029.131 0 .192.042.055.107.087.176.088h1.92l.504 1.6c.028.095.116.161.216.16h1.44c.071 0 .138-.033.181-.09.043-.057.056-.13.035-.198l-2.6-8.328zM40.992 7.68c-.01-.062-.044-.116-.096-.151-.052-.035-.115-.047-.176-.033-.207.054-.419.083-.632.088-.328 0-.472-.144-.472-.456v-3.2h1.28c.124 0 .224-.1.224-.224v-.992c0-.124-.1-.224-.224-.224h-1.28v-1.536c-.001-.065-.03-.126-.08-.168-.048-.042-.112-.062-.176-.056l-1.32.184c-.111.016-.193.112-.192.224v1.352h-.72c-.124 0-.224.1-.224.224v1c0 .124.1.224.224.224h.72v3.4c-.055.493.122.984.479 1.329s.854.504 1.345.431c.445-.01.887-.083 1.312-.216.102-.037.162-.141.144-.248l-.136-.952z" id="Shape"/><rect id="Rectangle-path" x="41.888" width="1.768" height="8.968" rx=".28"/><path d="M46.824 2.4c-.699.005-1.395.097-2.072.272-.108.031-.176.137-.16.248l.152.96c.01.06.043.113.093.148.05.035.111.048.171.036.527-.106 1.063-.162 1.6-.168.952 0 1.104.2 1.104.848v.56h-1.416c-1.352 0-1.928.56-1.928 1.864s.632 1.968 1.736 1.968c.64-.001 1.267-.175 1.816-.504l.08.168c.025.099.114.168.216.168h1.064c.124 0 .224-.1.224-.224v-4c-.024-1.744-.744-2.344-2.68-2.344zm.888 4.232v.8c-.335.178-.708.274-1.088.28-.408 0-.536-.128-.536-.536 0-.408.08-.52.56-.52l1.064-.024zM52.8 4.96c-.8-.208-.8-.216-.8-.672 0-.304 0-.448.704-.448.537.014 1.071.068 1.6.16l.096-.04c.049-.037.081-.091.088-.152l.152-1.008c.016-.113-.057-.22-.168-.248-.593-.113-1.196-.164-1.8-.152-2.032 0-2.448.8-2.448 1.92 0 1.12.24 1.648 1.776 2.024 1.024.248 1.024.432 1.024.736s0 .536-.704.536c-.578-.006-1.153-.084-1.712-.232-.061-.017-.126-.007-.179.026-.053.033-.09.088-.101.15l-.176.952c-.022.112.044.222.152.256.677.206 1.38.316 2.088.328 1.968 0 2.4-.8 2.4-2.056-.008-1.368-.256-1.616-1.992-2.08zM57.888 4.96c-.8-.208-.8-.216-.8-.672 0-.304 0-.448.704-.448.537.014 1.071.068 1.6.16.059.01.12-.005.168-.04.05-.036.082-.091.088-.152l.128-1.008c.016-.113-.057-.22-.168-.248-.606-.116-1.223-.167-1.84-.152-2.032 0-2.448.8-2.448 1.92 0 1.12.232 1.688 1.792 2.072 1.024.248 1.024.432 1.024.736s0 .536-.704.536c-.578-.006-1.153-.084-1.712-.232-.056-.024-.12-.024-.176 0-.05.033-.085.085-.096.144l-.176.952c-.022.112.044.222.152.256.68.207 1.385.317 2.096.328 1.968 0 2.4-.8 2.4-2.056-.04-1.384-.28-1.632-2.032-2.096z" id="Shape"/><rect id="Rectangle-path" x="60.616" width="1.768" height="1.616" rx=".28"/><rect x="60.616" y="2.488" width="1.768" height="6.48" rx=".28"/><path d="M65.6 2.4c-.699.005-1.395.097-2.072.272-.108.031-.176.137-.16.248l.152.96.08.12c.054.022.114.022.168 0 .527-.106 1.063-.162 1.6-.168.952 0 1.104.2 1.104.848v.56h-1.416c-1.352 0-1.928.56-1.928 1.864s.632 1.968 1.736 1.968c.64-.001 1.267-.175 1.816-.504l.056.208c.025.099.114.168.216.168h1.048c.124 0 .224-.1.224-.224v-4c.016-1.72-.704-2.32-2.624-2.32zm.888 4.232v.8c-.335.178-.708.274-1.088.28-.408 0-.536-.128-.536-.536 0-.408.08-.52.56-.52l1.064-.024zM73.12 2.4c-.852.038-1.687.248-2.456.616l-.096-.328c-.028-.095-.116-.161-.216-.16h-.976c-.124 0-.224.1-.224.224v6.032c0 .124.1.224.224.224h1.32c.124 0 .224-.1.224-.224v-4.216c.478-.263 1.002-.431 1.544-.496.296 0 .408.112.408.408v4.264c0 .124.1.224.224.224h1.304c.124 0 .224-.1.224-.224v-4.432c.008-1.296-.496-1.912-1.504-1.912zM76.952 21.048c-1.615.023-3.213.32-4.728.88v-6.568c0-.331-.269-.6-.6-.6h-3.536c-.158 0-.31.063-.421.176-.111.113-.173.265-.171.424v22.624c.003.286.207.531.488.584 2.086.35 4.197.53 6.312.536 6.648 0 8-2.824 8-7.072v-4.944c0-4.008-1.792-6.04-5.344-6.04zm-2.456 13.952c-.759.007-1.517-.031-2.272-.112v-8.848c1.083-.511 2.253-.81 3.448-.88 1.344 0 1.888.528 1.888 1.816v5.192c.04 1.88-.472 2.832-3.064 2.832zM98.592 21.392h-3.536c-.328 0-.596.264-.6.592v11.2c-1.282.701-2.686 1.149-4.136 1.32-.8 0-1.088-.296-1.088-1.096v-11.424c-.002-.159-.067-.311-.181-.422-.114-.111-.267-.172-.427-.17h-3.536c-.328 0-.596.264-.6.592v11.888c0 3.472 1.368 5.24 4.064 5.24 2.284-.102 4.524-.665 6.584-1.656l.264.88c.075.256.309.432.576.432h2.616c.331 0 .6-.269.6-.6v-16.184c-.004-.328-.272-.592-.6-.592zM112.8 35.104c-.022-.167-.115-.316-.253-.41-.139-.095-.311-.126-.475-.086-1.01.233-2.043.354-3.08.36-2.24 0-2.888-.568-2.888-2.544v-4.68c0-1.976.648-2.544 2.888-2.544 1.036.015 2.067.133 3.08.352.163.038.334.006.472-.088.141-.092.234-.241.256-.408l.424-2.8c.043-.294-.138-.575-.424-.656-1.272-.35-2.585-.533-3.904-.544-5.344 0-7.528 1.944-7.528 6.728v4.608c0 4.8 2.184 6.728 7.528 6.728 1.32-.004 2.633-.187 3.904-.544.287-.085.468-.368.424-.664l-.424-2.808zM137.216 21.048c-4.744 0-7.256 2.4-7.256 6.832v4.464c0 4.616 2.352 6.76 7.392 6.76 2.04.001 4.067-.331 6-.984.283-.101.449-.393.392-.688l-.544-2.528c-.034-.164-.136-.306-.28-.392-.141-.086-.313-.11-.472-.064-1.539.446-3.133.675-4.736.68-2.576 0-3.032-.8-3.032-2.584v-.608h8.8c.16.002.314-.06.427-.173.113-.113.176-.267.173-.427v-3.248c0-4.808-2.176-7.04-6.864-7.04zm-2.512 6.952v-.576c0-1.664.8-2.448 2.552-2.448 1.92 0 2.304.936 2.304 2.448v.576h-4.856zM52.096 21.384h-3.536c-.331 0-.6.269-.6.6v16.176c0 .331.269.6.6.6h3.536c.331 0 .6-.269.6-.6v-16.176c0-.331-.269-.6-.6-.6zM52.096 14.76h-3.536c-.331 0-.6.269-.6.6v3.04c0 .331.269.6.6.6h3.536c.16.002.314-.06.427-.173.113-.113.176-.267.173-.427v-3.04c0-.331-.269-.6-.6-.6zM43.2 26.4c1.387-.677 2.221-2.133 2.104-3.672v-2.4c0-3.48-2.088-5.176-6.4-5.176h-8.728c-.328.004-.592.272-.592.6v22.4c0 .328.264.596.592.6h9.36c4.168 0 6.56-2.024 6.56-5.552v-2.448c.127-1.938-1.059-3.721-2.896-4.352zm-8.744-7.088h3.944c1.784 0 2.032.8 2.032 1.6v2.048c0 1.328-.616 1.888-2.064 1.888h-.864c-.331 0-.6.269-.6.6v2.808c0 .331.269.6.6.6h1.536c1.544 0 2.168.6 2.168 2.064v1.728c0 1.488-.64 1.992-2.552 1.992h-4.2v-15.328zM65.392 35.32c-.022-.168-.115-.319-.256-.414-.141-.095-.316-.125-.48-.082-.551.145-1.118.226-1.688.24-.872 0-1.264-.384-1.264-1.232v-8.568h3.432c.331 0 .6-.269.6-.6v-2.672c0-.331-.269-.6-.6-.6h-3.432v-4.12c0-.174-.077-.34-.209-.453-.132-.114-.307-.164-.479-.139l-3.536.496c-.294.044-.511.295-.512.592v3.624h-1.928c-.331 0-.6.269-.6.6v2.672c0 .331.269.6.6.6h1.928v9.136c0 3.128 1.64 4.72 4.896 4.72 1.194-.023 2.379-.214 3.52-.568.276-.091.446-.369.4-.656l-.392-2.576zM155.752 35.32c-.024-.17-.12-.322-.264-.416-.139-.092-.31-.121-.472-.08-.552.145-1.118.225-1.688.24-.872 0-1.264-.384-1.264-1.232v-8.568h3.44c.331 0 .6-.269.6-.6v-2.672c0-.331-.269-.6-.6-.6h-3.44v-4.12c.002-.171-.071-.335-.2-.448-.131-.116-.307-.168-.48-.144l-3.536.496c-.297.04-.519.293-.52.592v3.632h-1.928c-.331 0-.6.269-.6.6v2.672c0 .331.269.6.6.6h1.928v9.128c0 3.128 1.648 4.72 4.896 4.72 1.194-.023 2.379-.214 3.52-.568.274-.093.443-.369.4-.656l-.392-2.576zM129.416 37.76l-4.728-7.808 4.56-7.688c.109-.185.11-.413.005-.6-.106-.186-.303-.302-.517-.304h-3.936c-.214-.001-.412.112-.52.296l-4.28 7.52v-13.808c0-.331-.269-.6-.6-.6h-3.536c-.331 0-.6.269-.6.6v22.792c0 .331.269.6.6.6h3.536c.331 0 .6-.269.6-.6v-7.464l4.584 7.704c.109.179.303.288.512.288h3.84c.227 0 .435-.128.537-.332.102-.203.08-.447-.057-.628v.032zM11.632 13.152c-6.408 0-11.632 1.72-11.632 3.856 0 .592 1.392 8.64 1.952 11.84.248 1.432 3.96 3.536 9.672 3.536 5.72 0 9.424-2.104 9.672-3.536.552-3.2 1.952-11.272 1.952-11.832.008-2.144-5.216-3.864-11.616-3.864zm0 16.64c-2.041 0-3.696-1.655-3.696-3.696 0-2.041 1.655-3.696 3.696-3.696 2.041 0 3.696 1.655 3.696 3.696 0 .98-.389 1.92-1.083 2.613-.693.693-1.633 1.083-2.613 1.083zm0-11.592c-4.112 0-7.448-.72-7.448-1.6 0-.88 3.336-1.6 7.448-1.6s7.448.72 7.448 1.6c0 .88-3.344 1.608-7.456 1.6h.008zM20 32.056c-.118.007-.23.052-.32.128 0 0-2.864 2.264-8 2.264s-8-2.264-8-2.264c-.09-.076-.202-.121-.32-.128-.117-.001-.229.049-.307.136-.078.087-.115.204-.101.32v.096c.448 2.4.8 4.064.8 4.32.328 1.752 3.752 3.072 7.88 3.072 4.12 0 7.544-1.32 7.936-3.072.056-.256.384-1.944.8-4.32v-.096c.013-.11-.018-.22-.087-.306-.069-.086-.171-.14-.281-.15z"/><ellipse cx="11.624" cy="26.096" rx="1.856" ry="1.856"/></g></svg>