<svg width="103" height="39" viewBox="0 0 103 39" xmlns="http://www.w3.org/2000/svg"><title>gl-logo</title><desc>Created with Sketch.</desc><g fill="#5D7EAC"><path d="M76.642 12.507h-1.861l.006 13.849h7.528v-1.713h-5.668z"/><g><path d="M87.559 15.531c2.77 0 3.743 1.501 3.743 3.742v7.083h-1.311l-.338-1.353c-.444.994-1.727 1.607-3.066 1.607-1.988 0-3.299-1.078-3.299-3.214 0-2.389 1.65-3.531 4.906-3.531.381 0 .994.042 1.29.106v-.677c0-1.311-.677-2.093-2.199-2.093-1.332 0-2.263.444-3.024.888l-.658-1.139c1.076-.887 2.454-1.419 3.957-1.419zm1.924 8.394v-2.558c-.317-.063-.93-.106-1.311-.106-2.03 0-2.982.655-2.982 2.03 0 .909.571 1.607 1.988 1.607 1.057 0 1.84-.486 2.305-.973z"/><path d="M98.089 15.531c-1.663 0-2.559 1.131-2.559 1.131v-1.787l-.006-2.368h-1.818l.006 13.51c.909.381 2.157.592 3.51.592 3.468 0 5.139-2.22 5.139-6.047 0-3.024-1.544-5.032-4.272-5.032m-.782 9.43c-.698 0-1.311-.085-1.776-.296v-6.406000000000001c.634-.529 1.417-.909 2.411-.909 1.797 0 2.495 1.269 2.495 3.32 0 2.918-1.121 4.292-3.13 4.292"/><path d="M56.412 14.008c1.649 0 2.707.55 3.405 1.099l.8-1.385c-1.09-.956-2.556-1.469-4.12-1.469-3.955 0-6.725 2.41-6.725 7.273 0 5.096 2.989 7.083 6.408 7.083 1.713 0 3.172-.402 4.124-.803l-.039-5.444v-1.7120000000000002h-5.075v1.713h3.236l.039 4.133c-.423.212-1.163.381-2.157.381-2.749 0-4.589-1.729-4.589-5.37 0-3.7 1.903-5.497 4.695-5.497"/><path d="M69.5 12.507h-1.819l.006 2.326v8.036000000000001c0 2.241.973 3.742 3.743 3.742.383 0 .757-.035 1.121-.101v-1.633c-.263.04-.544.063-.846.063-1.523 0-2.199-.782-2.199-2.093v-5.54h3.045v-1.522h-3.045l-.006-3.277z"/><path d="M63.067 26.356h1.819v-10.572h-1.819z"/><path d="M63.067 14.326h1.819v-1.818h-1.819z"/><path d="M41.906 22.207l-2.349-7.229-4.656-14.327c-.239-.737-1.283-.737-1.522 0l-4.656 14.327h-15.461l-4.656-14.327c-.239-.737-1.283-.737-1.522 0l-4.656 14.327-2.349 7.229c-.214.659.021 1.382.581 1.789l20.332 14.769 20.332-14.769c.561-.408.796-1.13.581-1.789"/></g></g></svg>