<?xml version="1.0" encoding="UTF-8"?>
<svg width="157px" height="40px" viewBox="0 0 157 40" version="1.1" xmlns="http://www.w3.org/2000/svg" xmlns:xlink="http://www.w3.org/1999/xlink">
    <!-- Generator: Sketch 43.1 (39012) - http://www.bohemiancoding.com/sketch -->
    <title>bb-logo</title>
    <desc>Created with Sketch.</desc>
    <defs></defs>
    <g id="Page-1" stroke="none" stroke-width="1" fill="none" fill-rule="evenodd">
        <g id="sg-enterprise" transform="translate(-521.000000, -649.000000)" fill-rule="nonzero" fill="#5D7EAC">
            <g id="Group-6" transform="translate(0.000000, 304.000000)">
                <g id="Group-27" transform="translate(250.000000, 192.000000)">
                    <g id="Group-5" transform="translate(0.000000, 146.000000)">
                        <g id="bb-logo" transform="translate(271.000000, 7.000000)">
                            <path d="M34.736,0.336 C34.7075567,0.240591792 34.619556,0.175406082 34.52,0.176 L32.44,0.176 C32.340444,0.175406082 32.2524433,0.240591792 32.224,0.336 L29.6,8.68 C29.5797196,8.74801783 29.5928752,8.82162248 29.6354613,8.878404 C29.6780475,8.93518552 29.7450244,8.96842417 29.816,8.968 L31.248,8.968 C31.347556,8.96859392 31.4355567,8.90340821 31.464,8.808 L33.272,2.672 C33.3023473,2.58254367 33.3855523,2.52174002 33.48,2.52 C33.5774977,2.52027747 33.6627231,2.58583545 33.688,2.68 L34.528,5.6 L33.4,5.6 C33.300444,5.59940608 33.2124433,5.66459179 33.184,5.76 L32.864,6.912 C32.835181,6.97275573 32.835181,7.04324427 32.864,7.104 C32.9059524,7.1589105 32.9709002,7.19138438 33.04,7.192 L34.96,7.192 L35.464,8.792 C35.4924433,8.88740821 35.580444,8.95259392 35.68,8.952 L37.12,8.952 C37.1909756,8.95242417 37.2579525,8.91918552 37.3005387,8.862404 C37.3431248,8.80562248 37.3562804,8.73201783 37.336,8.664 L34.736,0.336 Z" id="Shape"></path>
                            <path d="M40.992,7.68 C40.9824851,7.61841813 40.9477486,7.56358272 40.8961361,7.52866838 C40.8445236,7.49375405 40.7807002,7.48191657 40.72,7.496 C40.5134582,7.54974002 40.3013662,7.57927181 40.088,7.584 C39.76,7.584 39.616,7.44 39.616,7.128 L39.616,3.928 L40.896,3.928 C41.0197118,3.928 41.12,3.82771178 41.12,3.704 L41.12,2.712 C41.12,2.58828822 41.0197118,2.488 40.896,2.488 L39.616,2.488 L39.616,0.952 C39.6149545,0.887049229 39.5857649,0.825751062 39.536,0.784 C39.4876122,0.741779238 39.4238887,0.721503561 39.36,0.728 L38.04,0.912 C37.9289229,0.928026579 37.8468498,1.02377858 37.848,1.136 L37.848,2.488 L37.128,2.488 C37.0042882,2.488 36.904,2.58828822 36.904,2.712 L36.904,3.712 C36.904,3.83571178 37.0042882,3.936 37.128,3.936 L37.848,3.936 L37.848,7.336 C37.793046,7.82920236 37.9700547,8.3199867 38.3271688,8.66457051 C38.6842829,9.00915432 39.1810741,9.16852775 39.672,9.096 C40.1172951,9.08584351 40.5589509,9.01313188 40.984,8.88 C41.0855612,8.84291906 41.1461417,8.73858587 41.128,8.632 L40.992,7.68 Z" id="Shape"></path>
                            <rect id="Rectangle-path" x="41.888" y="0" width="1.768" height="8.968" rx="0.28"></rect>
                            <path d="M46.824,2.4 C46.124783,2.40521807 45.428873,2.49657305 44.752,2.672 C44.6440483,2.70288226 44.5756393,2.80891621 44.592,2.92 L44.744,3.88 C44.7537079,3.93986526 44.7872752,3.99323569 44.8370301,4.02791335 C44.886785,4.06259102 44.9484747,4.07561188 45.008,4.064 C45.5348909,3.95798845 46.0705807,3.90174103 46.608,3.896 C47.56,3.896 47.712,4.096 47.712,4.744 L47.712,5.304 L46.296,5.304 C44.944,5.304 44.368,5.864 44.368,7.168 C44.368,8.472 45,9.136 46.104,9.136 C46.7437271,9.13498237 47.37125,8.96082401 47.92,8.632 L48,8.8 C48.0254527,8.89858115 48.1141868,8.9675966 48.216,8.968 L49.28,8.968 C49.4037118,8.968 49.504,8.86771178 49.504,8.744 L49.504,4.744 C49.48,3 48.76,2.4 46.824,2.4 Z M47.712,6.632 L47.712,7.432 C47.3765935,7.61009735 47.0037116,7.70605962 46.624,7.712 C46.216,7.712 46.088,7.584 46.088,7.176 C46.088,6.768 46.168,6.656 46.648,6.656 L47.712,6.632 Z" id="Shape"></path>
                            <path d="M52.8,4.96 C52,4.752 52,4.744 52,4.288 C52,3.984 52,3.84 52.704,3.84 C53.2405189,3.85428543 53.7752765,3.90776119 54.304,4 C54.3387802,3.99468434 54.3717354,3.98095302 54.4,3.96 C54.4488021,3.9234254 54.4805816,3.86853355 54.488,3.808 L54.64,2.8 C54.6556368,2.68654038 54.5831666,2.57956057 54.472,2.552 C53.8789513,2.43863602 53.275661,2.3876915 52.672,2.4 C50.64,2.4 50.224,3.2 50.224,4.32 C50.224,5.44 50.464,5.968 52,6.344 C53.024,6.592 53.024,6.776 53.024,7.08 C53.024,7.384 53.024,7.616 52.32,7.616 C51.7419067,7.61015178 51.1668003,7.5322168 50.608,7.384 C50.5473556,7.36726465 50.482469,7.37680287 50.4292061,7.41028241 C50.3759432,7.44376195 50.3392142,7.49809638 50.328,7.56 L50.152,8.512 C50.1304233,8.62353072 50.1957497,8.73355409 50.304,8.768 C50.9813253,8.97405294 51.68412,9.08445364 52.392,9.096 C54.36,9.096 54.792,8.296 54.792,7.04 C54.784,5.672 54.536,5.424 52.8,4.96 Z" id="Shape"></path>
                            <path d="M57.888,4.96 C57.088,4.752 57.088,4.744 57.088,4.288 C57.088,3.984 57.088,3.84 57.792,3.84 C58.3285207,3.85425692 58.8632803,3.90773289 59.392,4 C59.4510954,4.00965735 59.5115973,3.99525213 59.56,3.96 C59.6095384,3.92408457 59.6415198,3.86884387 59.648,3.808 L59.776,2.8 C59.7916368,2.68654038 59.7191666,2.57956057 59.608,2.552 C59.0018147,2.4360628 58.384993,2.38510797 57.768,2.4 C55.736,2.4 55.32,3.2 55.32,4.32 C55.32,5.44 55.552,6.008 57.112,6.392 C58.136,6.64 58.136,6.824 58.136,7.128 C58.136,7.432 58.136,7.664 57.432,7.664 C56.8539128,7.65806862 56.2788167,7.58013504 55.72,7.432 C55.6637905,7.40798705 55.6002095,7.40798705 55.544,7.432 C55.4940006,7.46520053 55.4594161,7.51707728 55.448,7.576 L55.272,8.528 C55.2504233,8.63953072 55.3157497,8.74955409 55.424,8.784 C56.1039426,8.99058456 56.8094524,9.10098877 57.52,9.112 C59.488,9.112 59.92,8.312 59.92,7.056 C59.88,5.672 59.64,5.424 57.888,4.96 Z" id="Shape"></path>
                            <rect id="Rectangle-path" x="60.616" y="0" width="1.768" height="1.616" rx="0.28"></rect>
                            <rect id="Rectangle-path" x="60.616" y="2.488" width="1.768" height="6.48" rx="0.28"></rect>
                            <path d="M65.6,2.4 C64.900783,2.40521807 64.204873,2.49657305 63.528,2.672 C63.4200483,2.70288226 63.3516393,2.80891621 63.368,2.92 L63.52,3.88 C63.5327084,3.92772559 63.5608334,3.9699132 63.6,4 C63.6538793,4.02179526 63.7141207,4.02179526 63.768,4 C64.2949052,3.89408177 64.8305861,3.83783526 65.368,3.832 C66.32,3.832 66.472,4.032 66.472,4.68 L66.472,5.24 L65.056,5.24 C63.704,5.24 63.128,5.8 63.128,7.104 C63.128,8.408 63.76,9.072 64.864,9.072 C65.5037271,9.07098237 66.13125,8.89682401 66.68,8.568 L66.736,8.776 C66.7614527,8.87458115 66.8501868,8.9435966 66.952,8.944 L68,8.944 C68.1237118,8.944 68.224,8.84371178 68.224,8.72 L68.224,4.72 C68.24,3 67.52,2.4 65.6,2.4 Z M66.488,6.632 L66.488,7.432 C66.1525935,7.61009735 65.7797116,7.70605962 65.4,7.712 C64.992,7.712 64.864,7.584 64.864,7.176 C64.864,6.768 64.944,6.656 65.424,6.656 L66.488,6.632 Z" id="Shape"></path>
                            <path d="M73.12,2.4 C72.2682573,2.43821061 71.4329556,2.64771624 70.664,3.016 L70.568,2.688 C70.5395567,2.59259179 70.451556,2.52740608 70.352,2.528 L69.376,2.528 C69.2522882,2.528 69.152,2.62828822 69.152,2.752 L69.152,8.784 C69.152,8.90771178 69.2522882,9.008 69.376,9.008 L70.696,9.008 C70.8197118,9.008 70.92,8.90771178 70.92,8.784 L70.92,4.568 C71.398119,4.30523385 71.9222998,4.13684414 72.464,4.072 C72.76,4.072 72.872,4.184 72.872,4.48 L72.872,8.744 C72.872,8.86771178 72.9722882,8.968 73.096,8.968 L74.4,8.968 C74.5237118,8.968 74.624,8.86771178 74.624,8.744 L74.624,4.312 C74.632,3.016 74.128,2.4 73.12,2.4 Z" id="Shape"></path>
                            <path d="M76.952,21.048 C75.3374448,21.070538 73.7385449,21.3681336 72.224,21.928 L72.224,15.36 C72.224,15.0286292 71.9553708,14.76 71.624,14.76 L68.088,14.76 C67.9295959,14.7599855 67.7777932,14.8234538 67.6665388,14.9362116 C67.5552844,15.0489694 67.4938594,15.2016103 67.496,15.36 L67.496,37.984 C67.4986032,38.2701257 67.7028895,38.5145995 67.984,38.568 C70.069878,38.9183754 72.1809091,39.0976391 74.296,39.104 C80.944,39.104 82.296,36.28 82.296,32.032 L82.296,27.088 C82.296,23.08 80.504,21.048 76.952,21.048 Z M74.496,35 C73.7371407,35.0065036 72.9785404,34.9691078 72.224,34.888 L72.224,26.04 C73.3065525,25.5290632 74.4769986,25.2303415 75.672,25.16 C77.016,25.16 77.56,25.688 77.56,26.976 L77.56,32.168 C77.6,34.048 77.088,35 74.496,35 Z" id="Shape"></path>
                            <path d="M98.592,21.392 L95.056,21.392 C94.7277284,21.3919708 94.460377,21.6557575 94.456,21.984 L94.456,33.184 C93.1744629,33.8845177 91.7704107,34.3326195 90.32,34.504 C89.52,34.504 89.232,34.208 89.232,33.408 L89.232,21.984 C89.2298924,21.8248656 89.1646479,21.6730878 89.0506226,21.5620632 C88.9365974,21.4510387 88.783134,21.3898641 88.624,21.392 L85.088,21.392 C84.7597284,21.3919708 84.492377,21.6557575 84.488,21.984 L84.488,33.872 C84.488,37.344 85.856,39.112 88.552,39.112 C90.835976,39.0102704 93.075678,38.4469431 95.136,37.456 L95.4,38.336 C95.4746667,38.592 95.7093333,38.768 95.976,38.768 L98.592,38.768 C98.9233708,38.768 99.192,38.4993708 99.192,38.168 L99.192,21.984 C99.187623,21.6557575 98.9202716,21.3919708 98.592,21.392 L98.592,21.392 Z" id="Shape"></path>
                            <path d="M112.8,35.104 C112.777605,34.9374539 112.685485,34.7882729 112.546609,34.6936543 C112.407733,34.5990357 112.23519,34.5678961 112.072,34.608 C111.061697,34.8409063 110.028782,34.9616366 108.992,34.968 C106.752,34.968 106.104,34.4 106.104,32.424 L106.104,27.744 C106.104,25.768 106.752,25.2 108.992,25.2 C110.027767,25.2154112 111.059464,25.3333195 112.072,25.552 C112.234724,25.5896399 112.405773,25.5577494 112.544,25.464 C112.68483,25.3719195 112.778355,25.2228633 112.8,25.056 L113.224,22.256 C113.267439,21.9618881 113.086005,21.6811791 112.8,21.6 C111.527794,21.2499868 110.215429,21.0671162 108.896,21.056 C103.552,21.056 101.368,23 101.368,27.784 L101.368,32.392 C101.368,37.192 103.552,39.12 108.896,39.12 C110.215955,39.1161728 111.529281,38.9331683 112.8,38.576 C113.087201,38.4914486 113.268122,38.208119 113.224,37.912 L112.8,35.104 Z" id="Shape"></path>
                            <path d="M137.216,21.048 C132.472,21.048 129.96,23.448 129.96,27.88 L129.96,32.344 C129.96,36.96 132.312,39.104 137.352,39.104 C139.392247,39.1050128 141.418951,38.7726334 143.352,38.12 C143.634564,38.0188494 143.801049,37.7266508 143.744,37.432 L143.2,34.904 C143.165522,34.7399573 143.063994,34.5978169 142.92,34.512 C142.778567,34.4255211 142.607354,34.4023058 142.448,34.448 C140.908657,34.8938956 139.314614,35.1227699 137.712,35.128 C135.136,35.128 134.68,34.328 134.68,32.544 L134.68,31.936 L143.48,31.936 C143.639787,31.9381743 143.793665,31.8756586 143.906662,31.762662 C144.019659,31.6496654 144.082174,31.4957865 144.08,31.336 L144.08,28.088 C144.08,23.28 141.904,21.048 137.216,21.048 Z M134.704,28 L134.704,27.424 C134.704,25.76 135.504,24.976 137.256,24.976 C139.176,24.976 139.56,25.912 139.56,27.424 L139.56,28 L134.704,28 Z" id="Shape"></path>
                            <path d="M52.096,21.384 L48.56,21.384 C48.2286292,21.384 47.96,21.6526292 47.96,21.984 L47.96,38.16 C47.96,38.4913708 48.2286292,38.76 48.56,38.76 L52.096,38.76 C52.4273708,38.76 52.696,38.4913708 52.696,38.16 L52.696,21.984 C52.696,21.6526292 52.4273708,21.384 52.096,21.384 Z" id="Shape"></path>
                            <path d="M52.096,14.76 L48.56,14.76 C48.2286292,14.76 47.96,15.0286292 47.96,15.36 L47.96,18.4 C47.96,18.7313708 48.2286292,19 48.56,19 L52.096,19 C52.2557865,19.0021743 52.4096654,18.9396586 52.522662,18.826662 C52.6356586,18.7136654 52.6981743,18.5597865 52.696,18.4 L52.696,15.36 C52.696,15.0286292 52.4273708,14.76 52.096,14.76 Z" id="Shape"></path>
                            <path d="M43.2,26.4 C44.5873892,25.7226415 45.4211872,24.2674578 45.304,22.728 L45.304,20.328 C45.304,16.848 43.216,15.152 38.904,15.152 L30.176,15.152 C29.8477575,15.156377 29.5839708,15.4237284 29.584,15.752 L29.584,38.152 C29.5839708,38.4802716 29.8477575,38.747623 30.176,38.752 L39.536,38.752 C43.704,38.752 46.096,36.728 46.096,33.2 L46.096,30.752 C46.2230815,28.8141025 45.0366371,27.0311584 43.2,26.4 L43.2,26.4 Z M34.456,19.312 L38.4,19.312 C40.184,19.312 40.432,20.112 40.432,20.912 L40.432,22.96 C40.432,24.288 39.816,24.848 38.368,24.848 L37.504,24.848 C37.1726292,24.848 36.904,25.1166292 36.904,25.448 L36.904,28.256 C36.904,28.5873708 37.1726292,28.856 37.504,28.856 L39.04,28.856 C40.584,28.856 41.208,29.456 41.208,30.92 L41.208,32.648 C41.208,34.136 40.568,34.64 38.656,34.64 L34.456,34.64 L34.456,19.312 Z" id="Shape"></path>
                            <path d="M65.392,35.32 C65.3699351,35.1516591 65.2766555,35.0008939 65.135862,34.9060113 C64.9950684,34.8111287 64.8203137,34.7812621 64.656,34.824 C64.1045451,34.9691931 63.5380702,35.0497345 62.968,35.064 C62.096,35.064 61.704,34.68 61.704,33.832 L61.704,25.264 L65.136,25.264 C65.4673708,25.264 65.736,24.9953708 65.736,24.664 L65.736,21.992 C65.736,21.6606292 65.4673708,21.392 65.136,21.392 L61.704,21.392 L61.704,17.272 C61.7035612,17.0977741 61.6274126,16.9323426 61.4953471,16.8187048 C61.3632815,16.705067 61.1883423,16.6544462 61.016,16.68 L57.48,17.176 C57.1863993,17.2195312 56.9687479,17.4711906 56.968,17.768 L56.968,21.392 L55.04,21.392 C54.7086292,21.392 54.44,21.6606292 54.44,21.992 L54.44,24.664 C54.44,24.9953708 54.7086292,25.264 55.04,25.264 L56.968,25.264 L56.968,34.4 C56.968,37.528 58.608,39.12 61.864,39.12 C63.0582007,39.097082 64.2432023,38.9058658 65.384,38.552 C65.6603961,38.4613072 65.8299472,38.1832435 65.784,37.896 L65.392,35.32 Z" id="Shape"></path>
                            <path d="M155.752,35.32 C155.727619,35.1499312 155.631501,34.9984735 155.488,34.904 C155.348947,34.8120702 155.17758,34.783025 155.016,34.824 C154.464417,34.9685592 153.898016,35.0490901 153.328,35.064 C152.456,35.064 152.064,34.68 152.064,33.832 L152.064,25.264 L155.504,25.264 C155.835371,25.264 156.104,24.9953708 156.104,24.664 L156.104,21.992 C156.104,21.6606292 155.835371,21.392 155.504,21.392 L152.064,21.392 L152.064,17.272 C152.066335,17.100547 151.993203,16.9367308 151.864,16.824 C151.732665,16.7082811 151.557345,16.6556852 151.384,16.68 L147.848,17.176 C147.551224,17.2159237 147.329319,17.4685535 147.328,17.768 L147.328,21.4 L145.4,21.4 C145.068629,21.4 144.8,21.6686292 144.8,22 L144.8,24.672 C144.8,25.0033708 145.068629,25.272 145.4,25.272 L147.328,25.272 L147.328,34.4 C147.328,37.528 148.976,39.12 152.224,39.12 C153.41822,39.0972951 154.603251,38.9060742 155.744,38.552 C156.018216,38.458572 156.186517,38.1825579 156.144,37.896 L155.752,35.32 Z" id="Shape"></path>
                            <path d="M129.416,37.76 L124.688,29.952 L129.248,22.264 C129.356561,22.0792915 129.358394,21.8507112 129.252808,21.6642859 C129.147222,21.4778606 128.950241,21.3618824 128.736,21.36 L124.8,21.36 C124.586325,21.3590345 124.388261,21.471779 124.28,21.656 L120,29.176 L120,15.368 C120,15.0366292 119.731371,14.768 119.4,14.768 L115.864,14.768 C115.532629,14.768 115.264,15.0366292 115.264,15.368 L115.264,38.16 C115.264,38.4913708 115.532629,38.76 115.864,38.76 L119.4,38.76 C119.731371,38.76 120,38.4913708 120,38.16 L120,30.696 L124.584,38.4 C124.692786,38.5786957 124.886795,38.6878257 125.096,38.688 L128.936,38.688 C129.163263,38.688 129.371021,38.5595986 129.472656,38.3563282 C129.574292,38.1530577 129.552358,37.9098106 129.416,37.728 L129.416,37.76 Z" id="Shape"></path>
                            <path d="M11.632,13.152 L11.632,13.152 C5.224,13.152 0,14.872 0,17.008 C0,17.6 1.392,25.648 1.952,28.848 C2.2,30.28 5.912,32.384 11.624,32.384 L11.624,32.384 C17.344,32.384 21.048,30.28 21.296,28.848 C21.848,25.648 23.248,17.576 23.248,17.016 C23.256,14.872 18.032,13.152 11.632,13.152 Z M11.632,29.792 C9.59075556,29.792 7.936,28.1372444 7.936,26.096 C7.936,24.0547556 9.59075556,22.4 11.632,22.4 C13.6732444,22.4 15.328,24.0547556 15.328,26.096 C15.328,27.0762401 14.9386011,28.0163322 14.2454667,28.7094667 C13.5523322,29.4026011 12.6122401,29.792 11.632,29.792 Z M11.632,18.2 C7.52,18.2 4.184,17.48 4.184,16.6 C4.184,15.72 7.52,15 11.632,15 C15.744,15 19.08,15.72 19.08,16.6 C19.08,17.48 15.736,18.208 11.624,18.2 L11.632,18.2 Z" id="Shape"></path>
                            <path d="M20,32.056 C19.8822796,32.0628567 19.7699745,32.1077787 19.68,32.184 C19.68,32.184 16.816,34.448 11.68,34.448 C6.544,34.448 3.68,32.184 3.68,32.184 C3.59002547,32.1077787 3.47772038,32.0628567 3.36,32.056 C3.2429376,32.0551867 3.1311655,32.104696 3.05310701,32.1919379 C2.97504852,32.2791797 2.9382248,32.3957481 2.952,32.512 C2.94912856,32.5439356 2.94912856,32.5760644 2.952,32.608 C3.4,35.008 3.752,36.672 3.752,36.928 C4.08,38.68 7.504,40 11.632,40 L11.632,40 C15.752,40 19.176,38.68 19.568,36.928 C19.624,36.672 19.952,34.984 20.368,32.608 C20.3708714,32.5760644 20.3708714,32.5439356 20.368,32.512 C20.3814454,32.4023962 20.3498897,32.2920231 20.2805404,32.2060902 C20.2111911,32.1201574 20.1099713,32.0660044 20,32.056 Z" id="Shape"></path>
                            <ellipse id="Oval" cx="11.624" cy="26.096" rx="1.856" ry="1.856"></ellipse>
                        </g>
                    </g>
                </g>
            </g>
        </g>
    </g>
</svg>