<?xml version="1.0" encoding="UTF-8"?>
<svg width="394px" height="420px" viewBox="0 0 394 420" version="1.1" xmlns="http://www.w3.org/2000/svg" xmlns:xlink="http://www.w3.org/1999/xlink">
    <!-- Generator: Sketch 43.1 (39012) - http://www.bohemiancoding.com/sketch -->
    <title>Group 20</title>
    <desc>Created with Sketch.</desc>
    <defs></defs>
    <g id="Page-1" stroke="none" stroke-width="1" fill="none" fill-rule="evenodd" opacity="0.25">
        <g id="sg-enterprise" transform="translate(-33.000000, -801.000000)" fill="#93A9C8">
            <g id="Group-17" transform="translate(0.000000, 759.000000)">
                <g id="Group-20" transform="translate(261.212245, 240.507933) rotate(-22.500000) translate(-261.212245, -240.507933) translate(109.212245, 8.507933)">
                    <g id="Group-16" transform="translate(0.000000, -0.000000)">
                        <g id="Group-15" transform="translate(-0.000000, 0.000000)">
                            <rect id="Rectangle-18-Copy-7" x="-3.55271368e-15" y="0" width="44" height="8" rx="4"></rect>
                            <rect id="Rectangle-18-Copy-8" x="46" y="-2.84217094e-14" width="10" height="8" rx="4"></rect>
                            <rect id="Rectangle-18-Copy-8" x="16" y="10" width="16" height="8" rx="4"></rect>
                            <rect id="Rectangle-18-Copy-10" x="80" y="10" width="56" height="8" rx="4"></rect>
                            <rect id="Rectangle-18-Copy-10" x="90" y="20" width="23" height="8" rx="4"></rect>
                            <rect id="Rectangle-18-Copy-11" x="32" y="20" width="56" height="8" rx="4"></rect>
                            <rect id="Rectangle-18-Copy-11" x="16" y="30" width="32" height="8" rx="4"></rect>
                            <rect id="Rectangle-18-Copy-8" x="1.3500312e-13" y="40" width="16" height="8" rx="4"></rect>
                            <rect id="Rectangle-18-Copy-9" x="34" y="10" width="44" height="8" rx="4"></rect>
                        </g>
                        <g id="Group-15-Copy" transform="translate(-0.000000, 64.000000)">
                            <rect id="Rectangle-18-Copy-7" x="-1.77635684e-15" y="0" width="28" height="8" rx="4"></rect>
                            <rect id="Rectangle-18-Copy-19" x="-1.34114941e-13" y="90" width="10" height="8" rx="4"></rect>
                            <rect id="Rectangle-18-Copy-12" x="30" y="1.13686838e-13" width="28" height="8" rx="4"></rect>
                            <rect id="Rectangle-18-Copy-8" x="60" y="8.52651283e-14" width="10" height="8" rx="4"></rect>
                            <rect id="Rectangle-18-Copy-8" x="16" y="10" width="16" height="8" rx="4"></rect>
                            <rect id="Rectangle-18-Copy-15" x="16" y="60" width="10" height="8" rx="4"></rect>
                            <rect id="Rectangle-18-Copy-18" x="16" y="80" width="22" height="8" rx="4"></rect>
                            <rect id="Rectangle-18-Copy-16" x="28" y="60" width="28" height="8" rx="4"></rect>
                            <rect id="Rectangle-18-Copy-10" x="68" y="10" width="56" height="8" rx="4"></rect>
                            <rect id="Rectangle-18-Copy-11" x="32" y="20" width="44" height="8" rx="4"></rect>
                            <rect id="Rectangle-18-Copy-17" x="32" y="70" width="69" height="8" rx="4"></rect>
                            <rect id="Rectangle-18-Copy-14" x="32" y="40" width="38" height="8" rx="4"></rect>
                            <rect id="Rectangle-18-Copy-11" x="32" y="30" width="32" height="8" rx="4"></rect>
                            <rect id="Rectangle-18-Copy-13" x="66" y="30" width="19" height="8" rx="4"></rect>
                            <rect id="Rectangle-18-Copy-8" x="16" y="50" width="28" height="8" rx="4"></rect>
                            <rect id="Rectangle-18-Copy-9" x="34" y="10" width="32" height="8" rx="4"></rect>
                        </g>
                        <g id="Group-15-Copy-3" transform="translate(0.000000, 312.000000)">
                            <rect id="Rectangle-18-Copy-7" x="-1.77635684e-15" y="0" width="28" height="8" rx="4"></rect>
                            <rect id="Rectangle-18-Copy-19" x="-1.41220369e-13" y="90" width="10" height="8" rx="4"></rect>
                            <rect id="Rectangle-18-Copy-12" x="30" y="1.13686838e-13" width="28" height="8" rx="4"></rect>
                            <rect id="Rectangle-18-Copy-8" x="60" y="1.13686838e-13" width="10" height="8" rx="4"></rect>
                            <rect id="Rectangle-18-Copy-8" x="16" y="10" width="16" height="8" rx="4"></rect>
                            <rect id="Rectangle-18-Copy-15" x="16" y="60" width="10" height="8" rx="4"></rect>
                            <rect id="Rectangle-18-Copy-18" x="16" y="80" width="22" height="8" rx="4"></rect>
                            <rect id="Rectangle-18-Copy-16" x="28" y="60" width="28" height="8" rx="4"></rect>
                            <rect id="Rectangle-18-Copy-10" x="68" y="10" width="56" height="8" rx="4"></rect>
                            <rect id="Rectangle-18-Copy-11" x="32" y="20" width="44" height="8" rx="4"></rect>
                            <rect id="Rectangle-18-Copy-17" x="32" y="70" width="69" height="8" rx="4"></rect>
                            <rect id="Rectangle-18-Copy-14" x="32" y="40" width="38" height="8" rx="4"></rect>
                            <rect id="Rectangle-18-Copy-11" x="32" y="30" width="32" height="8" rx="4"></rect>
                            <rect id="Rectangle-18-Copy-13" x="66" y="30" width="19" height="8" rx="4"></rect>
                            <rect id="Rectangle-18-Copy-8" x="16" y="50" width="28" height="8" rx="4"></rect>
                            <rect id="Rectangle-18-Copy-9" x="34" y="10" width="32" height="8" rx="4"></rect>
                        </g>
                        <g id="Group-15-Copy-2" transform="translate(-0.000000, 178.000000)">
                            <rect id="Rectangle-18-Copy-7" x="1.0658141e-14" y="0" width="44" height="8" rx="4"></rect>
                            <rect id="Rectangle-18-Copy-19" x="16" y="100" width="10" height="8" rx="4"></rect>
                            <rect id="Rectangle-18-Copy-19" x="-1.48325796e-13" y="110" width="10" height="8" rx="4"></rect>
                            <rect id="Rectangle-18-Copy-8" x="46" y="-5.68434189e-14" width="10" height="8" rx="4"></rect>
                            <rect id="Rectangle-18-Copy-20" x="58" y="-5.68434189e-14" width="22" height="8" rx="4"></rect>
                            <rect id="Rectangle-18-Copy-21" x="82" y="0" width="22" height="8" rx="4"></rect>
                            <rect id="Rectangle-18-Copy-8" x="16" y="10" width="16" height="8" rx="4"></rect>
                            <rect id="Rectangle-18-Copy-15" x="32" y="60" width="22" height="8" rx="4"></rect>
                            <rect id="Rectangle-18-Copy-18" x="48" y="80" width="10" height="8" rx="4"></rect>
                            <rect id="Rectangle-18-Copy-18" x="32" y="90" width="10" height="8" rx="4"></rect>
                            <rect id="Rectangle-18-Copy-25" x="60" y="80" width="22" height="8" rx="4"></rect>
                            <rect id="Rectangle-18-Copy-26" x="84" y="80" width="22" height="8" rx="4"></rect>
                            <rect id="Rectangle-18-Copy-16" x="56" y="60" width="14" height="8" rx="4"></rect>
                            <rect id="Rectangle-18-Copy-11" x="32" y="20" width="44" height="8" rx="4"></rect>
                            <rect id="Rectangle-18-Copy-11" x="78" y="20" width="44" height="8" rx="4"></rect>
                            <rect id="Rectangle-18-Copy-22" x="124" y="20" width="28" height="8" rx="4"></rect>
                            <rect id="Rectangle-18-Copy-17" x="48" y="70" width="38" height="8" rx="4"></rect>
                            <rect id="Rectangle-18-Copy-24" x="89" y="70" width="10" height="8" rx="4"></rect>
                            <rect id="Rectangle-18-Copy-14" x="32" y="40" width="38" height="8" rx="4"></rect>
                            <rect id="Rectangle-18-Copy-11" x="16" y="30" width="32" height="8" rx="4"></rect>
                            <rect id="Rectangle-18-Copy-8" x="48" y="50" width="28" height="8" rx="4"></rect>
                            <rect id="Rectangle-18-Copy-23" x="78" y="50" width="28" height="8" rx="4"></rect>
                            <rect id="Rectangle-18-Copy-9" x="34" y="10" width="32" height="8" rx="4"></rect>
                        </g>
                    </g>
                    <g id="Group-19" transform="translate(168.000000, 124.000000)">
                        <g id="Group-16" transform="translate(0.000000, -0.000000)">
                            <g id="Group-15">
                                <rect id="Rectangle-18-Copy-7" x="3.55271368e-15" y="0" width="44" height="8" rx="4"></rect>
                                <rect id="Rectangle-18-Copy-8" x="46" y="-2.84217094e-14" width="10" height="8" rx="4"></rect>
                                <rect id="Rectangle-18-Copy-8" x="16" y="10" width="16" height="8" rx="4"></rect>
                                <rect id="Rectangle-18-Copy-10" x="80" y="10" width="56" height="8" rx="4"></rect>
                                <rect id="Rectangle-18-Copy-10" x="90" y="20" width="23" height="8" rx="4"></rect>
                                <rect id="Rectangle-18-Copy-11" x="32" y="20" width="56" height="8" rx="4"></rect>
                                <rect id="Rectangle-18-Copy-11" x="16" y="30" width="32" height="8" rx="4"></rect>
                                <rect id="Rectangle-18-Copy-8" x="16" y="40" width="44" height="8" rx="4"></rect>
                                <rect id="Rectangle-18-Copy-27" x="62" y="40" width="44" height="8" rx="4"></rect>
                                <rect id="Rectangle-18-Copy-11" x="32" y="50" width="16" height="8" rx="4"></rect>
                                <rect id="Rectangle-18-Copy-28" x="50" y="50" width="23" height="8" rx="4"></rect>
                                <rect id="Rectangle-18-Copy-11" x="16" y="60" width="16" height="8" rx="4"></rect>
                                <rect id="Rectangle-18-Copy-30" x="-2.27373675e-13" y="70" width="13" height="8" rx="4"></rect>
                                <rect id="Rectangle-18-Copy-31" x="15" y="70" width="13" height="8" rx="4"></rect>
                                <rect id="Rectangle-18-Copy-29" x="34" y="60" width="16" height="8" rx="4"></rect>
                                <rect id="Rectangle-18-Copy-9" x="34" y="10" width="44" height="8" rx="4"></rect>
                            </g>
                        </g>
                        <g id="Group-16-Copy" transform="translate(0.000000, 94.000000)">
                            <g id="Group-15">
                                <rect id="Rectangle-18-Copy-7" x="12" y="5.68434189e-14" width="26" height="8" rx="4"></rect>
                                <rect id="Rectangle-18-Copy-8" x="0" y="0" width="10" height="8" rx="4"></rect>
                                <rect id="Rectangle-18-Copy-8" x="40" y="-5.68434189e-14" width="10" height="8" rx="4"></rect>
                                <rect id="Rectangle-18-Copy-32" x="52" y="5.68434189e-14" width="10" height="8" rx="4"></rect>
                                <rect id="Rectangle-18-Copy-8" x="16" y="10" width="16" height="8" rx="4"></rect>
                                <rect id="Rectangle-18-Copy-10" x="80" y="10" width="56" height="8" rx="4"></rect>
                                <rect id="Rectangle-18-Copy-10" x="90" y="20" width="23" height="8" rx="4"></rect>
                                <rect id="Rectangle-18-Copy-11" x="32" y="20" width="56" height="8" rx="4"></rect>
                                <rect id="Rectangle-18-Copy-11" x="16" y="30" width="32" height="8" rx="4"></rect>
                                <rect id="Rectangle-18-Copy-8" x="16" y="40" width="44" height="8" rx="4"></rect>
                                <rect id="Rectangle-18-Copy-27" x="62" y="40" width="44" height="8" rx="4"></rect>
                                <rect id="Rectangle-18-Copy-11" x="32" y="50" width="16" height="8" rx="4"></rect>
                                <rect id="Rectangle-18-Copy-28" x="50" y="50" width="23" height="8" rx="4"></rect>
                                <rect id="Rectangle-18-Copy-11" x="16" y="60" width="16" height="8" rx="4"></rect>
                                <rect id="Rectangle-18-Copy-30" x="-2.27373675e-13" y="70" width="13" height="8" rx="4"></rect>
                                <rect id="Rectangle-18-Copy-31" x="15" y="70" width="13" height="8" rx="4"></rect>
                                <rect id="Rectangle-18-Copy-29" x="34" y="60" width="16" height="8" rx="4"></rect>
                                <rect id="Rectangle-18-Copy-9" x="34" y="10" width="44" height="8" rx="4"></rect>
                            </g>
                        </g>
                        <g id="Group-16-Copy-2" transform="translate(-0.000000, 188.000000)">
                            <g id="Group-15">
                                <rect id="Rectangle-18-Copy-7" x="12" y="0" width="16" height="8" rx="4"></rect>
                                <rect id="Rectangle-18-Copy-8" x="0" y="0" width="10" height="8" rx="4"></rect>
                                <rect id="Rectangle-18-Copy-8" x="30" y="1.13686838e-13" width="22" height="8" rx="4"></rect>
                                <rect id="Rectangle-18-Copy-32" x="54" y="1.13686838e-13" width="44" height="8" rx="4"></rect>
                                <rect id="Rectangle-18-Copy-8" x="16" y="10" width="10" height="8" rx="4"></rect>
                                <rect id="Rectangle-18-Copy-10" x="90" y="20" width="23" height="8" rx="4"></rect>
                                <rect id="Rectangle-18-Copy-11" x="32" y="20" width="56" height="8" rx="4"></rect>
                                <rect id="Rectangle-18-Copy-11" x="48" y="30" width="22" height="8" rx="4"></rect>
                                <rect id="Rectangle-18-Copy-33" x="72" y="30" width="22" height="8" rx="4"></rect>
                                <rect id="Rectangle-18-Copy-8" x="32" y="40" width="30" height="8" rx="4"></rect>
                                <rect id="Rectangle-18-Copy-8" x="32" y="90" width="22" height="8" rx="4"></rect>
                                <rect id="Rectangle-18-Copy-8" x="32" y="100" width="16" height="8" rx="4"></rect>
                                <rect id="Rectangle-18-Copy-8" x="16" y="110" width="16" height="8" rx="4"></rect>
                                <rect id="Rectangle-18-Copy-8" x="-4.54747351e-13" y="120" width="10" height="8" rx="4"></rect>
                                <rect id="Rectangle-18-Copy-34" x="56" y="90" width="22" height="8" rx="4"></rect>
                                <rect id="Rectangle-18-Copy-35" x="80" y="90" width="10" height="8" rx="4"></rect>
                                <rect id="Rectangle-18-Copy-27" x="64" y="40" width="10" height="8" rx="4"></rect>
                                <rect id="Rectangle-18-Copy-11" x="48" y="50" width="16" height="8" rx="4"></rect>
                                <rect id="Rectangle-18-Copy-28" x="66" y="50" width="23" height="8" rx="4"></rect>
                                <rect id="Rectangle-18-Copy-11" x="48" y="70" width="10" height="8" rx="4"></rect>
                                <rect id="Rectangle-18-Copy-11" x="32" y="80" width="10" height="8" rx="4"></rect>
                                <rect id="Rectangle-18-Copy-29" x="64" y="60" width="22" height="8" rx="4"></rect>
                                <rect id="Rectangle-18-Copy-9" x="28" y="10" width="44" height="8" rx="4"></rect>
                            </g>
                        </g>
                        <g id="Group-18" transform="translate(-0.000000, 332.000000)">
                            <rect id="Rectangle-18-Copy-7" x="21" y="-1.70530257e-13" width="26" height="8" rx="4"></rect>
                            <rect id="Rectangle-18-Copy-8" x="0" y="0" width="19" height="8" rx="4"></rect>
                            <rect id="Rectangle-18-Copy-36" x="49" y="-1.70530257e-13" width="14" height="8" rx="4"></rect>
                        </g>
                    </g>
                </g>
            </g>
        </g>
    </g>
</svg>