<?xml version="1.0" encoding="UTF-8"?>
<svg width="103px" height="39px" viewBox="0 0 103 39" version="1.1" xmlns="http://www.w3.org/2000/svg" xmlns:xlink="http://www.w3.org/1999/xlink">
    <!-- Generator: Sketch 43.1 (39012) - http://www.bohemiancoding.com/sketch -->
    <title>gl-logo</title>
    <desc>Created with Sketch.</desc>
    <defs></defs>
    <g id="Page-1" stroke="none" stroke-width="1" fill="none" fill-rule="evenodd">
        <g id="sg-enterprise" transform="translate(-726.000000, -649.000000)" fill="#5D7EAC">
            <g id="Group-6" transform="translate(0.000000, 304.000000)">
                <g id="Group-27" transform="translate(250.000000, 192.000000)">
                    <g id="Group-5" transform="translate(0.000000, 146.000000)">
                        <g id="gl-logo" transform="translate(476.000000, 7.000000)">
                            <polygon id="Fill-1" points="76.6417122 12.5067949 74.7807734 12.5067949 74.7866355 26.3556309 82.315099 26.3556309 82.315099 24.6431021 76.6475744 24.6431021"></polygon>
                            <g id="Group-22" transform="translate(0.000000, 0.074547)">
                                <path d="M87.5592202,15.4557289 C90.3294759,15.4557289 91.3022994,16.9569273 91.3022994,19.1981241 L91.3022994,26.2810643 L89.9911323,26.2810643 L89.6526909,24.9279829 C89.2086332,25.921617 87.9254091,26.5347976 86.5863968,26.5347976 C84.5985424,26.5347976 83.287473,25.4564555 83.287473,23.3210705 C83.287473,20.9317567 84.9369837,19.7901034 88.1937,19.7901034 C88.5743488,19.7901034 89.1875295,19.8324085 89.483568,19.8958174 L89.483568,19.2192278 C89.483568,17.9084516 88.8068807,17.1260502 87.2842855,17.1260502 C85.9520147,17.1260502 85.0214964,17.5701079 84.2601988,18.0140679 L83.6024658,16.8749549 C84.6780722,15.9884027 86.0563609,15.4557289 87.5592202,15.4557289 Z M89.483568,23.8496408 L89.483568,21.291204 C89.1664258,21.2277951 88.5531474,21.1855877 88.1724986,21.1855877 C86.1423391,21.1855877 85.190717,21.8410735 85.190717,23.2152587 C85.190717,24.1244778 85.7616903,24.8222688 87.1785714,24.8222688 C88.2359075,24.8222688 89.0184065,24.335906 89.483568,23.8496408 Z" id="Fill-2"></path>
                                <path d="M98.0889178,15.45568 C96.4257287,15.45568 95.5303833,16.5869769 95.5303833,16.5869769 L95.5303833,14.8002919 L95.5245212,12.4322772 L94.6854524,12.4322772 L93.7059852,12.4322772 L93.7118473,25.9427696 C94.6211642,26.3234184 95.8688247,26.5347488 97.2222969,26.5347488 C100.690344,26.5347488 102.360958,24.3148511 102.360958,20.4878455 C102.360958,17.464345 100.816868,15.45568 98.0889178,15.45568 M97.3068096,24.8856289 C96.6089208,24.8856289 95.9956425,24.8011163 95.5303833,24.5895904 L95.5303833,18.8491798 L95.5303833,18.1832398 C96.1648631,17.6545717 96.9472645,17.2740206 97.9412894,17.2740206 C99.7387216,17.2740206 100.43661,18.5425894 100.43661,20.5935596 C100.43661,23.5112483 99.3157677,24.8856289 97.3068096,24.8856289" id="Fill-4"></path>
                                <path d="M56.4124852,13.9334268 C58.0618982,13.9334268 59.119332,14.4831008 59.8172207,15.0328726 L60.6169153,13.6478425 C59.5269466,12.6921169 58.0608234,12.1784951 56.4970955,12.1784951 C52.5425882,12.1784951 49.7723325,14.5889126 49.7723325,19.4517597 C49.7723325,24.5473341 52.7609532,26.5347976 56.1798556,26.5347976 C57.8927752,26.5347976 59.3519615,26.1331428 60.3035835,25.7313903 L60.2646003,20.2870181 L60.2646003,19.6447221 L60.2646003,18.5743916 L55.1892503,18.5743916 L55.1892503,20.2870181 L58.4247651,20.2870181 L58.4637484,24.4204186 C58.0407944,24.6319444 57.3006006,24.8010674 56.3067711,24.8010674 C53.5577168,24.8010674 51.7178817,23.0720269 51.7178817,19.430656 C51.7178817,15.7306636 53.6211257,13.9334268 56.4124852,13.9334268" id="Fill-7"></path>
                                <path d="M69.4999453,12.4322479 L67.681214,12.4322479 L67.6871738,14.7579574 L67.6871738,15.7094817 L67.6871738,16.2640409 L67.6871738,17.2317838 L67.6871738,22.7713182 L67.6871738,22.792422 C67.6871738,25.0336188 68.6599973,26.5348172 71.430253,26.5348172 C71.8129535,26.5348172 72.1874471,26.5000351 72.5510956,26.4339882 L72.5510956,24.8011846 C72.2877875,24.8414381 72.0067952,24.8643981 71.7051877,24.8643981 C70.1825925,24.8643981 69.5058075,24.0820945 69.5058075,22.7713182 L69.5058075,17.2317838 L72.5510956,17.2317838 L72.5510956,15.7094817 L69.5058075,15.7094817 L69.4999453,12.4322479 Z" id="Fill-9"></path>
                                <polygon id="Fill-11" points="63.0665506 26.2810839 64.885282 26.2810839 64.885282 15.709384 63.0665506 15.709384"></polygon>
                                <polygon id="Fill-13" points="63.0665506 14.2505885 64.885282 14.2505885 64.885282 12.4322479 63.0665506 12.4322479"></polygon>
                                <path d="M41.9056915,22.1316113 L39.5564357,14.902899 L34.9005224,0.576004885 C34.6610537,-0.161062514 33.6179821,-0.161062514 33.3784157,0.576004885 L28.7224047,14.902899 L13.2617712,14.902899 L8.60566247,0.576004885 C8.36619373,-0.161062514 7.3231222,-0.161062514 7.08355576,0.576004885 L2.42764247,14.902899 L0.0784843905,22.1316113 C-0.135874819,22.7909076 0.0990019082,23.5132219 0.659911762,23.9207389 L20.9920879,38.6901275 L41.3243618,23.9207389 C41.8852717,23.5132219 42.119953,22.7909076 41.9056915,22.1316113" id="Fill-14"></path>
                            </g>
                        </g>
                    </g>
                </g>
            </g>
        </g>
    </g>
</svg>