<svg width="223" height="32" viewBox="0 0 223 32" xmlns="http://www.w3.org/2000/svg"><title>gh-e-logo</title><desc>Created with Sketch.</desc><path d="M109.006 12.697h-10.116v9.084h11.252v1.961h-13.419v-22.916h13.316v1.961h-11.148v8.052h10.116v1.858zm13.419-.103c0-1.961-1.135-2.581-3.097-2.581-1.961 0-2.994.31-4.129.929v12.8h-2.168v-15.277h1.239l.413 1.239c1.445-1.032 2.994-1.548 4.645-1.548 3.613 0 5.161 1.652 5.161 4.542v11.045h-2.168v-11.148h.103zm13.626 11.252c-.413.103-.929.103-1.342.103-2.581 0-4.852-1.135-4.852-4.129v-9.703h-3.097v-.929l3.097-.929v-4.129l2.168-.619v4.852h4.748v1.652h-4.748v9.6c0 1.858 1.032 2.581 2.89 2.581.413 0 .826 0 1.239-.103v1.755h-.103zm8.774-15.69c5.161 0 5.781 3.51 5.781 7.948v.929h-10.116c.103 2.684.826 5.058 4.232 5.058 2.168 0 3.51-.206 5.058-.826v1.858c-1.755.723-3.51.929-5.058.929-5.161 0-6.4-3.51-6.4-7.948.103-4.439 1.342-7.948 6.503-7.948zm-4.232 7.123h7.948c0-2.684-.103-5.265-3.716-5.265-3.51 0-4.232 2.581-4.232 5.265zm21.574-5.058c-.413-.103-1.032-.206-1.858-.206-2.065 0-3.303.31-4.439.929v12.8h-2.168v-15.277h1.239l.413 1.239c1.445-1.032 3.2-1.548 4.955-1.548.723 0 1.239.103 1.858.103v1.961zm4.542 12.49v8.568h-2.168v-22.813h1.239l.413 1.239c1.548-1.032 3.097-1.548 4.748-1.548 4.955 0 6.297 3.51 6.297 7.948 0 4.439-1.342 7.948-6.297 7.948-1.342 0-2.89-.413-4.232-1.342zm8.361-6.606c0-2.994-.413-6.09-4.129-6.09-1.961 0-3.097.31-4.232.929v10.116c1.239.619 2.271.929 4.232.929 3.716.103 4.129-2.89 4.129-5.884zm13.626-5.884c-.413-.103-1.032-.206-1.858-.206-2.065 0-3.303.31-4.439.929v12.8h-2.168v-15.277h1.239l.413 1.239c1.445-1.032 3.2-1.548 4.955-1.548.723 0 1.239.103 1.858.103v1.961zm3.716-7.948c.826 0 1.548.723 1.548 1.548 0 .826-.723 1.548-1.548 1.548-.826 0-1.548-.723-1.548-1.548 0-.826.723-1.548 1.548-1.548zm-1.032 18.374v-12.181h2.065v12.49c0 1.032.31 1.342 1.239 1.342v1.755c-2.168 0-3.303-.929-3.303-3.406zm11.355-5.677c4.335.413 5.368 1.858 5.368 4.335 0 2.374-1.548 4.748-6.194 4.748-1.445 0-3.613-.413-4.542-.723v-1.858c.929.31 2.374.723 4.542.723 3.2 0 4.026-1.342 4.026-2.787 0-1.445-.413-2.374-3.406-2.581-4.439-.413-5.368-1.961-5.368-4.026 0-2.168 1.445-4.542 5.677-4.542 1.445 0 3.097.206 4.439.723v1.858c-1.239-.413-2.374-.723-4.439-.723-2.994 0-3.716 1.135-3.716 2.581.103 1.239.723 1.961 3.613 2.271zm14.452-6.813c5.161 0 5.781 3.51 5.781 7.948v.929h-10.116c.103 2.684.826 5.058 4.232 5.058 2.168 0 3.51-.206 5.058-.826v1.858c-1.755.723-3.51.929-5.058.929-5.161 0-6.4-3.51-6.4-7.948.103-4.439 1.342-7.948 6.503-7.948zm-4.335 7.123h7.948c0-2.684-.103-5.265-3.716-5.265-3.51 0-4.129 2.581-4.232 5.265zm-195.716-4.955h-7.432c-.206 0-.413.103-.413.31v3.613c0 .206.206.31.31.31h2.89v4.542s-.619.206-2.477.206c-2.168 0-5.161-.826-5.161-7.329 0-6.606 3.097-7.432 5.987-7.432 2.477 0 3.613.413 4.335.619.206.103.413-.103.413-.31l.826-3.51c0-.103 0-.206-.103-.31-.103-.103-1.858-1.032-6.194-1.032-4.955 0-10.116 2.168-10.116 12.387 0 10.219 5.884 11.768 10.839 11.768 4.129 0 6.606-1.755 6.606-1.755.103-.103.103-.206.103-.31v-11.458c0-.206-.206-.31-.413-.31zm38.916-9.084c0-.206-.103-.31-.31-.31h-4.232c-.206 0-.31.206-.31.31v8.155h-6.606v-8.155c0-.206-.206-.31-.31-.31h-4.232c-.206 0-.31.206-.31.31v22.09c0 .206.206.31.31.31h4.232c.206 0 .31-.206.31-.31v-9.394h6.606v9.394c0 .206.206.31.31.31h4.232c.206 0 .31-.206.31-.31v-22.09zm-30.761 2.89c0-1.548-1.239-2.787-2.684-2.787-1.548 0-2.684 1.239-2.684 2.787 0 1.548 1.239 2.787 2.684 2.787s2.684-1.239 2.684-2.787zm-.31 14.555v-10.219c0-.206-.206-.31-.31-.31h-4.232c-.206 0-.413.206-.413.413v14.555c0 .413.31.516.619.516h3.819c.413 0 .516-.206.516-.516v-4.439zm47.484-10.529h-4.232c-.206 0-.31.206-.31.31v10.839s-1.032.826-2.581.826c-1.548 0-1.858-.723-1.858-2.168v-9.394c0-.206-.206-.31-.31-.31h-4.335c-.206 0-.31.206-.31.31v10.116c0 4.439 2.477 5.471 5.781 5.471 2.787 0 4.955-1.548 4.955-1.548s.103.826.103.929c0 .103.206.206.31.206h2.684c.206 0 .31-.206.31-.31v-14.865c.103-.31 0-.413-.206-.413zm11.665-.516c-2.374 0-4.026 1.032-4.026 1.032v-7.432c0-.206-.206-.31-.31-.31h-4.232c-.206 0-.31.206-.31.31v22.09c0 .206.206.31.31.31h2.89c.103 0 .206-.103.31-.206.103-.103.206-1.032.206-1.032s1.755 1.652 4.955 1.652c3.819 0 6.09-1.961 6.09-8.774 0-6.71-3.51-7.639-5.884-7.639zm-1.652 12.387c-1.445 0-2.477-.723-2.477-.723v-6.916s.929-.619 2.168-.723c1.548-.103 2.994.31 2.994 3.923 0 3.819-.723 4.542-2.684 4.439zm-45.419-11.974h-3.2v-4.129c0-.206-.103-.206-.31-.206h-4.335c-.206 0-.206.103-.206.206v4.335s-2.168.516-2.271.516c-.103 0-.206.206-.206.31v2.684c0 .206.206.31.31.31h2.168v6.503c0 4.852 3.406 5.368 5.677 5.368 1.032 0 2.271-.31 2.477-.413.103 0 .206-.206.206-.31v-2.994c0-.206-.206-.31-.31-.31-.206 0-.619.103-1.135.103-1.548 0-2.065-.723-2.065-1.652v-6.194h3.2c.206 0 .31-.206.31-.31v-3.406c0-.206-.206-.413-.31-.413z" fill-rule="nonzero" fill="#5D7EAC"/></svg>