<?xml version="1.0" encoding="UTF-8"?>
<svg width="189px" height="36px" viewBox="0 0 189 36" version="1.1" xmlns="http://www.w3.org/2000/svg" xmlns:xlink="http://www.w3.org/1999/xlink">
    <!-- Generator: Sketch 43.1 (39012) - http://www.bohemiancoding.com/sketch -->
    <title>Phacility_phabricator_logo_w</title>
    <desc>Created with Sketch.</desc>
    <defs></defs>
    <g id="Page-1" stroke="none" stroke-width="1" fill="none" fill-rule="evenodd">
        <g id="sg-enterprise" transform="translate(-877.000000, -651.000000)">
            <g id="Group-6" transform="translate(0.000000, 304.000000)">
                <g id="Group-27" transform="translate(250.000000, 192.000000)">
                    <g id="Group-5" transform="translate(0.000000, 146.000000)">
                        <g id="Phacility_phabricator_logo_w" transform="translate(627.000000, 0.000000)">
                            <g id="a" transform="translate(8.007194, 7.669291)" fill-rule="nonzero" fill="#5D7EAC">
                                <g id="b" transform="translate(6.528777, 6.480315)">
                                    <g id="c" transform="translate(12.438849, 0.000000)">
                                        <polyline id="e" points="2.89784173 3.96850394 2.66906475 0 0.381294964 0 0.145654676 3.96850394"></polyline>
                                        <g id="e-link" transform="translate(1.500000, 23.700787) scale(-1, 1) rotate(-180.000000) translate(-1.500000, -23.700787) translate(0.000000, 21.700787)">
                                            <polyline id="e" points="2.89784173 3.96850394 2.66906475 0 0.381294964 0 0.145654676 3.96850394"></polyline>
                                        </g>
                                    </g>
                                    <g id="c-link" transform="translate(13.814422, 12.825214) rotate(90.000000) translate(-13.814422, -12.825214) translate(12.314422, -0.174786)">
                                        <g id="c">
                                            <polyline id="e" points="2.89784173 3.96850394 2.66906475 3.63797881e-12 0.381294964 3.63797881e-12 0.145654676 3.96850394"></polyline>
                                            <g id="e-link" transform="translate(1.500000, 23.700787) scale(-1, 1) rotate(-180.000000) translate(-1.500000, -23.700787) translate(-0.000000, 21.700787)">
                                                <polyline id="e" points="2.89784173 3.96850394 2.66906475 0 0.381294964 0 0.145654676 3.96850394"></polyline>
                                            </g>
                                        </g>
                                    </g>
                                </g>
                                <g id="b-link" transform="translate(20.067427, 19.822984) rotate(45.000000) translate(-20.067427, -19.822984) translate(6.067427, 6.322984)">
                                    <g id="b" transform="translate(-0.011332, 0.000727)">
                                        <g id="c" transform="translate(12.438849, 0.000000)">
                                            <polyline id="e" points="2.89784173 3.96850394 2.66906475 -4.8316906e-13 0.381294964 -4.8316906e-13 0.145654676 3.96850394"></polyline>
                                            <g id="e-link" transform="translate(1.500000, 23.700787) scale(-1, 1) rotate(-180.000000) translate(-1.500000, -23.700787) translate(0.000000, 21.700787)">
                                                <polyline id="e" points="2.89784173 3.96850394 2.66906475 1.27897692e-13 0.381294964 1.27897692e-13 0.145654676 3.96850394"></polyline>
                                            </g>
                                        </g>
                                        <g id="c-link" transform="translate(13.814422, 12.825214) rotate(90.000000) translate(-13.814422, -12.825214) translate(12.314422, -0.174786)">
                                            <g id="c" transform="translate(-0.000000, -0.000000)">
                                                <polyline id="e" points="2.89784173 3.96850394 2.66906475 -2.09610107e-12 0.381294964 -2.09610107e-12 0.145654676 3.96850394"></polyline>
                                                <g id="e-link" transform="translate(1.500000, 23.700787) scale(-1, 1) rotate(-180.000000) translate(-1.500000, -23.700787) translate(-0.000000, 21.700787)">
                                                    <polyline id="e" points="2.89784173 3.96850394 2.66906475 -6.71462885e-13 0.381294964 -6.71462885e-13 0.145654676 3.96850394"></polyline>
                                                </g>
                                            </g>
                                        </g>
                                    </g>
                                </g>
                            </g>
                            <g id="a-link" transform="translate(27.141462, 27.712236) rotate(22.500000) translate(-27.141462, -27.712236) translate(6.641462, 7.212236)" fill-rule="nonzero" fill="#5D7EAC">
                                <g id="a" transform="translate(0.989758, -0.008619)">
                                    <g id="b" transform="translate(6.528777, 6.480315)">
                                        <g id="c" transform="translate(12.438849, -0.000000)">
                                            <polyline id="e" points="2.89784173 3.96850394 2.66906475 1.09601217e-12 0.381294964 1.09601217e-12 0.145654676 3.96850394"></polyline>
                                            <g id="e-link" transform="translate(1.500000, 23.700787) scale(-1, 1) rotate(-180.000000) translate(-1.500000, -23.700787) translate(-0.000000, 21.700787)">
                                                <polyline id="e" points="2.89784173 3.96850394 2.66906475 -2.77111667e-13 0.381294964 -2.77111667e-13 0.145654676 3.96850394"></polyline>
                                            </g>
                                        </g>
                                        <g id="c-link" transform="translate(13.814422, 12.825214) rotate(90.000000) translate(-13.814422, -12.825214) translate(12.314422, -0.174786)">
                                            <g id="c" transform="translate(0.000000, 0.000000)">
                                                <polyline id="e" points="2.89784173 3.96850394 2.66906475 -1.20792265e-13 0.381294964 -1.20792265e-13 0.145654676 3.96850394"></polyline>
                                                <g id="e-link" transform="translate(1.500000, 23.700787) scale(-1, 1) rotate(-180.000000) translate(-1.500000, -23.700787) translate(-0.000000, 21.700787)">
                                                    <polyline id="e" points="2.89784173 3.96850394 2.66906475 1.46016532e-12 0.381294964 1.46016532e-12 0.145654676 3.96850394"></polyline>
                                                </g>
                                            </g>
                                        </g>
                                    </g>
                                    <g id="b-link" transform="translate(20.067427, 19.822984) rotate(45.000000) translate(-20.067427, -19.822984) translate(6.067427, 6.322984)">
                                        <g id="b" transform="translate(-0.011332, 0.000727)">
                                            <g id="c" transform="translate(12.438849, -0.000000)">
                                                <polyline id="e" points="2.89784173 3.96850394 2.66906475 1.26121336e-13 0.381294964 1.26121336e-13 0.145654676 3.96850394"></polyline>
                                                <g id="e-link" transform="translate(1.500000, 23.700787) scale(-1, 1) rotate(-180.000000) translate(-1.500000, -23.700787) translate(0.000000, 21.700787)">
                                                    <polyline id="e" points="2.89784173 3.96850394 2.66906475 1.21502808e-12 0.381294964 1.21502808e-12 0.145654676 3.96850394"></polyline>
                                                </g>
                                            </g>
                                            <g id="c-link" transform="translate(13.814422, 12.825214) rotate(90.000000) translate(-13.814422, -12.825214) translate(12.314422, -0.174786)">
                                                <g id="c" transform="translate(-0.000000, -0.000000)">
                                                    <polyline id="e" points="2.89784173 3.96850394 2.66906475 1.69109171e-12 0.381294964 1.69109171e-12 0.145654676 3.96850394"></polyline>
                                                    <g id="e-link" transform="translate(1.500000, 23.700787) scale(-1, 1) rotate(-180.000000) translate(-1.500000, -23.700787) translate(0.000000, 21.700787)">
                                                        <polyline id="e" points="2.89784173 3.96850394 2.66906475 7.35411732e-13 0.381294964 7.35411732e-13 0.145654676 3.96850394"></polyline>
                                                    </g>
                                                </g>
                                            </g>
                                        </g>
                                    </g>
                                </g>
                            </g>
                            <text id="Phabricator" font-family="SegoeUI-SemiBold, Segoe UI" font-size="24" font-weight="500" fill="#567EB0">
                                <tspan x="63.1523438" y="35">Phabricator</tspan>
                            </text>
                            <ellipse id="Oval" fill="#5D7EAC" fill-rule="nonzero" cx="28.5" cy="27" rx="4.38489209" ry="4.34645669"></ellipse>
                            <path d="M28.5,43.4409449 C15.9172662,43.4409449 6.1942446,33.2362205 2.09532374,27 C6.1942446,20.7637795 15.9172662,10.5590551 28.5,10.5590551 C41.0827338,10.5590551 50.8057554,20.7637795 54.9046763,27 C50.8057554,33.2362205 41.0827338,43.4409449 28.5,43.4409449 Z" id="Shape" stroke="#5D7EAC" stroke-width="2.625"></path>
                            <ellipse id="Oval" stroke="#5D7EAC" stroke-width="3.5625" cx="28.5" cy="27" rx="9.0557554" ry="8.97637795"></ellipse>
                        </g>
                    </g>
                </g>
            </g>
        </g>
    </g>
</svg>