<svg width="1440" height="417" viewBox="0 0 1440 417" xmlns="http://www.w3.org/2000/svg"><title>Group 29</title><desc>Created with Sketch.</desc><g fill="#233043" opacity=".25"><g id="Page-1"><path id="Fill-13" d="M327.936 85.703v-82.691h5.927v80.213z"/><path id="Fill-15" d="M432.258 207.683h-6.13v-16.192l-24.005-24.005v-36.468l33.34-33.46 4.265 4.364-31.579 31.595v31.47l24.109 24.109z"/><path d="M445.141 99.75c0 9.132-13.719 9.132-13.719 0 0-9.153 13.719-9.153 13.719 0" id="Fill-17"/><path id="Fill-19" d="M434.751 178.379l-13.616-13.699v-23.901l15.99-15.99 4.26 4.239-14.223 14.244v19.117l11.849 11.953z"/><path d="M446.076 126.857c0 9.132-13.719 9.132-13.719 0 0-9.153 13.719-9.153 13.719 0" id="Fill-21"/><path d="M443.156 175.683c0 9.153-13.699 9.153-13.699 0 0-9.132 13.699-9.132 13.699 0" id="Fill-23"/><path d="M337.717 3.012c0 9.132-13.719 9.132-13.719 0 0-9.153 13.719-9.153 13.719 0" id="Fill-25"/><path d="M357.541 105.148c0 9.132-13.699 9.132-13.699 0 0-9.153 13.699-9.153 13.699 0" id="Fill-28"/><path d="M397.032 151.574c0 9.153-13.719 9.153-13.719 0 0-9.132 13.719-9.132 13.719 0" id="Fill-30"/><path d="M387.719 175.849c0 9.153-13.719 9.153-13.719 0 0-9.132 13.719-9.132 13.719 0" id="Fill-32"/><path d="M357.541 65.859c0 9.153-13.699 9.153-13.699 0 0-9.132 13.699-9.132 13.699 0" id="Fill-36"/><path d="M447.515 26.597c0 9.294-13.922 9.294-13.922 0 0-9.273 13.922-9.273 13.922 0" id="Fill-38"/><path d="M387.719 128.849c0 9.153-13.719 9.153-13.719 0 0-9.132 13.719-9.132 13.719 0" id="Fill-40"/><path d="M460.719 247.865c0 9.132-13.719 9.132-13.719 0 0-9.153 13.719-9.153 13.719 0" id="Fill-42"/><path d="M449.281 151.574c0 9.153-13.699 9.153-13.699 0 0-9.132 13.699-9.132 13.699 0" id="Fill-44"/><path d="M337.717 82.275c0 9.153-13.719 9.153-13.719 0 0-9.132 13.719-9.132 13.719 0" id="Fill-46"/><path d="M436.091 207.683c0 9.153-13.719 9.153-13.719 0 0-9.132 13.719-9.132 13.719 0" id="Fill-49"/><path id="Fill-51" d="M347.782 108.25h5.927v-42.39h-5.927z"/><path id="Fill-53" d="M382.704 131.22l-4.384-4.26 59.231-59.112v-40.629h11.854-5.927v43.325z"/><path d="M387.922 100.955c0 9.294-13.922 9.294-13.922 0 0-9.273 13.922-9.273 13.922 0" id="Fill-54"/><path d="M356.73 14.742c0 9.153-13.719 9.153-13.719 0 0-9.132 13.719-9.132 13.719 0" id="Fill-56"/><path d="M371.988-.515c0 9.132-13.719 9.132-13.719 0 0-9.153 13.719-9.153 13.719 0" id="Fill-57"/><path d="M410.117 21.402c0 9.153-13.719 9.153-13.719 0 0-9.132 13.719-9.132 13.719 0" id="Fill-60"/><path d="M407.946 53.927c0 9.132-13.719 9.132-13.719 0 0-9.153 13.719-9.153 13.719 0" id="Fill-61"/><path d="M407.946 84.467c0 9.153-13.719 9.153-13.719 0s13.719-9.153 13.719 0" id="Fill-62"/><path d="M377.385 25.033c0 9.153-13.699 9.153-13.699 0 0-9.132 13.699-9.132 13.699 0" id="Fill-63"/><path id="Fill-66" d="M390.071 154.701h-13.719l-14.748-14.852v-25.771l14.852-14.857 4.161 4.161-13.091 13.091v20.779l11.325 11.423h11.221z"/><path id="Fill-67" d="M456.871 253.101h-6.026v-89.47l-10.39-9.662 3.958-4.566 12.457 11.527z"/><path id="Fill-73" d="M423.307 40.415h-6.026v-105.034l35.226-35.33h16.01v5.927h-13.413l-31.797 31.896z"/><path id="Fill-75" d="M408.59 319.025h-5.927v-32.426l24.005-24.088v-30.161l5.927-2.395v35.055l-24.005 23.984z"/><path d="M436.123 234.961c0 9.294-13.922 9.294-13.922 0 0-9.273 13.922-9.273 13.922 0" id="Fill-76"/><path d="M384.143 410.041c0 9.153-13.719 9.153-13.719 0 0-9.132 13.719-9.132 13.719 0"/><path d="M395.691 352.067c0 9.153-13.719 9.153-13.719 0 0-9.132 13.719-9.132 13.719 0"/><path d="M447.515-1.143c0 9.273-13.922 9.273-13.922 0s13.922-9.273 13.922 0" id="Fill-97"/><path id="Fill-98" d="M417.283 60.889h5.927v-124.27h-5.927z"/><path d="M427.265 60.789c0 9.273-13.922 9.273-13.922 0 0-9.294 13.922-9.294 13.922 0" id="Fill-99"/><path d="M412.543 319.025c0 9.273-13.922 9.273-13.922 0s13.922-9.273 13.922 0" id="Fill-100"/><path d="M395.719 334.699c0 9.153-13.719 9.153-13.719 0 0-9.132 13.719-9.132 13.719 0" id="Fill-83"/><path id="Fill-106" d="M385.758 334.82h5.927v-34.953h-5.927z"/><path id="Fill-102" d="M459.468 57.459h-5.927v-103.065l17.049-17.148h61.403l38.753-38.758 4.265 4.161-40.623 40.623h-61.403l-13.517 13.496z"/><path d="M463.426 57.459c0 9.132-13.719 9.132-13.719 0 0-9.153 13.719-9.153 13.719 0" id="Fill-103"/><path id="Fill-109" d="M380.31 409.838h-6.026v-48.416l12.457-11.325 4.161 4.26-10.592 9.761z"/><path id="Fill-111" d="M569.593 36.15h-6.026v-37.397l-18.691-18.712h-73.153v-6.026h75.548l22.322 22.343z"/><path d="M658.029-2.281c0 9.273-13.943 9.273-13.943 0 0-9.294 13.943-9.294 13.943 0" id="Fill-114"/><path d="M619.78 14.337c0 9.273-13.922 9.273-13.922 0s13.922-9.273 13.922 0" id="Fill-116"/><path d="M619.78 36.883c0 9.273-13.922 9.273-13.922 0s13.922-9.273 13.922 0" id="Fill-117"/><path d="M596.829 36.883c0 9.153-13.719 9.153-13.719 0s13.719-9.153 13.719 0" id="Fill-119"/><path d="M676.819 57.459c0 9.132-13.719 9.132-13.719 0 0-9.153 13.719-9.153 13.719 0" id="Fill-132"/><path d="M655.837 19.636c0 9.273-13.922 9.273-13.922 0s13.922-9.273 13.922 0" id="Fill-133"/><path id="Fill-134" d="M615.738 14.337h-5.927v-35.429l22.244-22.343v-79.361h6.005v81.86l-22.322 22.442z"/><path id="Fill-135" d="M672.985 57.459h-5.927v-61.73l28.878-28.977v-16.722h6.026v19.319l-28.977 28.878z"/><path id="Fill-139" d="M592.969 36.883h-6.026v-63.901l16.842-16.618 4.161 4.161-14.977 15.055z"/><path id="Fill-141" d="M679.842 157.599v-18.691l-10.919-10.816 4.265-4.14 12.582 12.561v18.712z"/><path d="M719.536 96.093c0 9.153-13.719 9.153-13.719 0 0-9.132 13.719-9.132 13.719 0" id="Fill-142"/><path d="M697.291 5.916c0 9.294-13.922 9.294-13.922 0 0-9.273 13.922-9.273 13.922 0" id="Fill-143"/><path d="M660.699 82.865c0 9.153-13.699 9.153-13.699 0s13.699-9.153 13.699 0" id="Fill-144"/><path d="M677.977 126.025c0 9.153-13.719 9.153-13.719 0s13.719-9.153 13.719 0" id="Fill-145"/><path d="M689.603 156.363c0 9.153-13.719 9.153-13.719 0s13.719-9.153 13.719 0" id="Fill-146"/><path d="M647.922 179.97c0 9.273-13.922 9.273-13.922 0 0-9.294 13.922-9.294 13.922 0" id="Fill-148"/><path d="M587.603 207.644c0 9.153-13.719 9.153-13.719 0 0-9.132 13.719-9.132 13.719 0" id="Fill-149"/><path d="M587.719 262.699c0 9.153-13.719 9.153-13.719 0 0-9.132 13.719-9.132 13.719 0" id="Fill-83"/><path d="M587.719 228.865c0 9.132-13.719 9.132-13.719 0 0-9.153 13.719-9.153 13.719 0" id="Fill-86"/><path d="M587.603 149.363c0 9.153-13.719 9.153-13.719 0s13.719-9.153 13.719 0" id="Fill-150"/><path id="Fill-151" d="M577.74 207.645h6.026v-58.281h-6.026zM502 286.281h6.026v-58.281h-6.026z"/><path d="M707.582 131.22c0 9.153-13.719 9.153-13.719 0s13.719-9.153 13.719 0" id="Fill-152"/><path id="Fill-153" d="M715.681 96.093h-6.13v-18.286l-22.135-22.338v-49.553h5.922v47.179l22.343 22.218z"/><path d="M695.629 110.342c0 9.273-13.922 9.273-13.922 0 0-9.294 13.922-9.294 13.922 0" id="Fill-154"/><path d="M695.629 75.641c0 9.273-13.922 9.273-13.922 0 0-9.294 13.922-9.294 13.922 0" id="Fill-155"/><path id="Fill-156" d="M685.647 112.411h5.927v-36.364h-5.927z"/><path id="Fill-158" d="M702.592 70.022h6.026v-80.826h-6.026z"/><path id="Fill-159" d="M652.834 140.15l-43.122-42.899h-58.805l-17.044-17.044v-84.577h5.927v81.979l13.512 13.616h58.909l44.764 44.888z"/><path id="Fill-161" d="M635.889 202.488l-35.003-35.205v-29.506l-21.205-21.003h-38.031l-26.603-26.805v-73.865h6.026v71.366l23.174 23.174h37.927l24.613 24.732v29.506l33.262 33.34z"/><path id="Fill-162" d="M634.751 156.893l-12.582-12.582v-10.39l-17.351-17.351 4.265-4.156 19.112 18.909v10.592l10.816 10.816z"/><path id="Fill-164" d="M475.582 199.485l-4.26-4.364 30.862-30.764v-31.47l-30.135-30.239v-96h6.026v93.61l30.114 30.135v36.364z"/><path d="M477.699 196.849c0 9.153-13.699 9.153-13.699 0 0-9.132 13.699-9.132 13.699 0" id="Fill-165"/><path id="Fill-166" d="M473.286 173.085l-4.26-4.26 14.14-14.229v-19.013l-11.849-11.953 4.26-4.26 13.621 13.818v23.906z"/><path d="M477.719 170.865c0 9.132-13.719 9.132-13.719 0 0-9.153 13.719-9.153 13.719 0" id="Fill-167"/><path id="Fill-166" d="M428.286 349.085l-4.26-4.26 14.14-14.229v-19.013l-11.849-11.953 4.26-4.26 13.621 13.818v23.906z"/><path d="M435.777 298.29c0 9.132-13.719 9.132-13.719 0 0-9.153 13.719-9.153 13.719 0"/><path d="M577.712 131.75c0 9.132-13.719 9.132-13.719 0 0-9.153 13.719-9.153 13.719 0" id="Fill-169"/><path d="M477.719 226.865c0 9.132-13.719 9.132-13.719 0 0-9.153 13.719-9.153 13.719 0" id="Fill-174"/><path d="M536.559 168.722c0 9.153-13.719 9.153-13.719 0 0-9.132 13.719-9.132 13.719 0" id="Fill-175"/><path d="M463.426 84.467c0 9.153-13.719 9.153-13.719 0s13.719-9.153 13.719 0" id="Fill-176"/><path d="M474.751 146.28c0 9.153-13.719 9.153-13.719 0 0-9.132 13.719-9.132 13.719 0" id="Fill-177"/><path d="M647.922 202.97c0 9.273-13.922 9.273-13.922 0 0-9.294 13.922-9.294 13.922 0" id="Fill-178"/><path d="M618.642 232.212c0 9.132-13.719 9.132-13.719 0 0-9.153 13.719-9.153 13.719 0" id="Fill-179"/><path d="M647.922 157.955c0 9.294-13.922 9.294-13.922 0 0-9.273 13.922-9.273 13.922 0" id="Fill-180"/><path d="M543.619-4.369c0 9.153-13.699 9.153-13.699 0 0-9.132 13.699-9.132 13.699 0" id="Fill-181"/><path d="M570.855 76.249c0 9.153-13.719 9.153-13.719 0 0-9.132 13.719-9.132 13.719 0" id="Fill-182"/><path d="M559.629 57.459c0 9.273-13.922 9.273-13.922 0 0-9.294 13.922-9.294 13.922 0" id="Fill-183"/><path d="M525.032 16.103c0 9.273-13.922 9.273-13.922 0s13.922-9.273 13.922 0" id="Fill-184"/><path d="M504.658-3.315c0 9.132-13.699 9.132-13.699 0 0-9.153 13.699-9.153 13.699 0" id="Fill-185"/><path d="M481.915 6.649c0 9.153-13.719 9.153-13.719 0 0-9.132 13.719-9.132 13.719 0" id="Fill-186"/><path d="M609.915 112.103c0 9.273-13.922 9.273-13.922 0 0-9.294 13.922-9.294 13.922 0" id="Fill-187"/><path d="M660.922 136.955c0 9.294-13.922 9.294-13.922 0 0-9.273 13.922-9.273 13.922 0" id="Fill-188"/><path d="M660.922 108.97c0 9.273-13.922 9.273-13.922 0 0-9.294 13.922-9.294 13.922 0" id="Fill-189"/><path id="Fill-190" d="M556.608 258.9h5.927v-110.125h-5.927z"/><path id="Fill-191" d="M527.468 166.306l4.239 4.14-58.14 59.377-4.239-4.135z"/><path d="M531.79 203.522c0 9.153-13.719 9.153-13.719 0 0-9.132 13.719-9.132 13.719 0" id="Fill-192"/><path d="M539.719 247.849c0 9.153-13.719 9.153-13.719 0 0-9.132 13.719-9.132 13.719 0" id="Fill-193"/><path d="M539.922 230.955c0 9.273-13.922 9.273-13.922 0s13.922-9.273 13.922 0" id="Fill-81"/><path id="Fill-194" d="M527.001 205.61l-4.26-4.26 20.047-20.052v-20.779l-11.325-11.221h-11.319v-6.026h13.818l14.753 14.852v25.771z"/><path id="Fill-195" d="M465.821 148.368l-12.379-11.423.104-52.171h5.922v49.574l10.494 9.558z"/><path id="Fill-196" d="M608.883 233.554h5.927v-59.74h-5.927z"/><path id="Fill-197" d="M549.974 60.359h99.735v-5.823h-99.735z"/><path id="Fill-198" d="M634.751 40.618h-20.577v-5.927h17.979l14.53-14.53 4.26 4.14z"/><path id="Fill-199" d="M388.304-27.585l4.281 4.239-26.135 26.462-4.281-4.239z"/><path id="Fill-200" d="M401.78-9.626l4.182 4.343-33.564 32.384-4.182-4.343z"/><path d="M409.719 266.849c0 9.153-13.719 9.153-13.719 0 0-9.132 13.719-9.132 13.719 0" id="Fill-59"/><path id="Fill-200" d="M401.78 265.374l4.182 4.343-33.564 32.384-4.182-4.343z"/><path id="Fill-201" d="M403.665 17.688l4.182 4.343-23.621 22.79-4.182-4.343z"/><path id="Fill-202" d="M398.068 84.993h6.026v-31.065h-6.026z"/><path d="M409.719 244.865c0 9.153-13.719 9.153-13.719 0s13.719-9.153 13.719 0" id="Fill-62"/><path d="M460.922 268.955c0 9.273-13.922 9.273-13.922 0s13.922-9.273 13.922 0" id="Fill-117"/><path d="M460.719 289.865c0 9.132-13.719 9.132-13.719 0 0-9.153 13.719-9.153 13.719 0" id="Fill-61"/><path id="Fill-202" d="M451 321.065h6.026v-31.065h-6.026z"/><path d="M496.979 251.955c0 9.273-13.922 9.273-13.922 0s13.922-9.273 13.922 0" id="Fill-133"/><path d="M496.719 309.699c0 9.153-13.719 9.153-13.719 0 0-9.132 13.719-9.132 13.719 0" id="Fill-83"/><path id="Fill-106" d="M486.758 309.82h5.927v-34.953h-5.927z"/><path id="Fill-198" d="M475.894 272.936h-20.577v-5.927h17.979l14.53-14.53 4.26 4.14z"/><path id="Fill-202" d="M400 245.065h6.026v-31.065h-6.026z"/><path d="M387.719 213.865c0 9.132-13.719 9.132-13.719 0 0-9.153 13.719-9.153 13.719 0" id="Fill-61"/><path id="Fill-202" d="M378.068 290h6.026v-76.072h-6.026z"/><path d="M511.719 223.849c0 9.153-13.719 9.153-13.719 0 0-9.132 13.719-9.132 13.719 0" id="Fill-203"/></g><g id="Page-1"><path d="M272.75-.585c0 9.273 13.922 9.273 13.922 0s-13.922-9.273-13.922 0" id="Fill-3"/><path id="Fill-7" d="M296.168-21.182l-18.384 18.649 4.218 4.161 18.384-18.649z"/><path id="Fill-13" d="M318.064 116.703v-82.691h-5.927v80.213z"/><path id="Fill-15" d="M213.742 238.683h6.13v-16.192l24.005-24.005v-36.468l-33.34-33.46-4.265 4.364 31.579 31.595v31.47l-24.109 24.109z"/><path d="M200.859 130.75c0 9.132 13.719 9.132 13.719 0 0-9.153-13.719-9.153-13.719 0" id="Fill-17"/><path id="Fill-19" d="M211.249 209.379l13.616-13.699v-23.901l-15.99-15.99-4.26 4.239 14.223 14.244v19.117l-11.849 11.953z"/><path d="M199.924 157.857c0 9.132 13.719 9.132 13.719 0 0-9.153-13.719-9.153-13.719 0" id="Fill-21"/><path d="M202.844 206.683c0 9.153 13.699 9.153 13.699 0 0-9.132-13.699-9.132-13.699 0" id="Fill-23"/><path d="M308.283 34.012c0 9.132 13.719 9.132 13.719 0 0-9.153-13.719-9.153-13.719 0" id="Fill-25"/><path d="M288.459 136.148c0 9.132 13.699 9.132 13.699 0 0-9.153-13.699-9.153-13.699 0" id="Fill-28"/><path d="M258.631 206.579c0 9.153 13.719 9.153 13.719 0 0-9.132-13.719-9.132-13.719 0" id="Fill-32"/><path d="M235.051 224.257c0 9.132 13.719 9.132 13.719 0 0-9.153-13.719-9.153-13.719 0"/><path d="M288.459 96.859c0 9.153 13.699 9.153 13.699 0 0-9.132-13.699-9.132-13.699 0" id="Fill-36"/><path d="M198.485 57.597c0 9.294 13.922 9.294 13.922 0 0-9.273-13.922-9.273-13.922 0" id="Fill-38"/><path d="M258.631 160.028c0 9.153 13.719 9.153 13.719 0 0-9.132-13.719-9.132-13.719 0" id="Fill-40"/><path d="M185.281 278.865c0 9.132 13.719 9.132 13.719 0 0-9.153-13.719-9.153-13.719 0"/><path d="M196.719 182.574c0 9.153 13.699 9.153 13.699 0 0-9.132-13.699-9.132-13.699 0" id="Fill-44"/><path d="M308.283 113.275c0 9.153 13.719 9.153 13.719 0 0-9.132-13.719-9.132-13.719 0" id="Fill-46"/><path d="M209.909 238.683c0 9.153 13.719 9.153 13.719 0 0-9.132-13.719-9.132-13.719 0"/><path id="Fill-51" d="M298.218 139.25h-5.927v-42.39h5.927z"/><path id="Fill-53" d="M263.296 162.22l4.384-4.26-59.231-59.112v-40.629h-11.854 5.927v43.325z"/><path d="M260.496 132.189c0 9.294 13.922 9.294 13.922 0 0-9.273-13.922-9.273-13.922 0M260.496 228.189c0 9.294 13.922 9.294 13.922 0 0-9.273-13.922-9.273-13.922 0" id="Fill-54"/><path d="M260.823 112.345c0 9.153 13.699 9.153 13.699 0 0-9.132-13.699-9.132-13.699 0" id="Fill-55"/><path d="M289.27 45.742c0 9.153 13.719 9.153 13.719 0 0-9.132-13.719-9.132-13.719 0" id="Fill-56"/><path d="M274.012 30.485c0 9.132 13.719 9.132 13.719 0 0-9.153-13.719-9.153-13.719 0" id="Fill-57"/><path d="M250.007 6.376c0 9.153 13.719 9.153 13.719 0s-13.719-9.153-13.719 0" id="Fill-58"/><path d="M235.883 23.197c0 9.153 13.719 9.153 13.719 0 0-9.132-13.719-9.132-13.719 0" id="Fill-59"/><path d="M235.883 52.402c0 9.153 13.719 9.153 13.719 0 0-9.132-13.719-9.132-13.719 0" id="Fill-60"/><path d="M238.054 84.927c0 9.132 13.719 9.132 13.719 0 0-9.153-13.719-9.153-13.719 0" id="Fill-61"/><path d="M238.054 115.467c0 9.153 13.719 9.153 13.719 0s-13.719-9.153-13.719 0" id="Fill-62"/><path d="M268.615 56.033c0 9.153 13.699 9.153 13.699 0 0-9.132-13.699-9.132-13.699 0" id="Fill-63"/><path d="M292.194 12.807c0 9.153 13.719 9.153 13.719 0 0-9.132-13.719-9.132-13.719 0" id="Fill-65"/><path id="Fill-67" d="M189.129 284.101h6.026v-89.47l10.39-9.662-3.958-4.566-12.457 11.527z"/><path id="Fill-68" d="M264.127 115.467h5.927v-16.945l28.997-28.977v-23.803h-5.927v21.408l-28.997 28.997z"/><path id="Fill-71" d="M202.522 29.857h5.927v-54.442l-26.603-26.603h-38.13l-21.086-21.288v-29.506l-34.171-34.395-4.26 4.161 32.405 32.831v29.506l24.738 24.613h37.906l23.273 23.174z"/><path id="Fill-73" d="M222.693 71.415h6.026v-105.034l-35.226-35.33h-16.01v5.927h13.413l31.797 31.896z"/><path d="M237.41 350.025h5.927v-32.426l-24.005-24.088v-30.161l-5.927-2.395v35.055l24.005 23.984z"/><path d="M209.877 265.961c0 9.294 13.922 9.294 13.922 0 0-9.273-13.922-9.273-13.922 0"/><path d="M164.719 7.836c0 9.132 13.699 9.132 13.699 0 0-9.153-13.699-9.153-13.699 0" id="Fill-94"/><path id="Fill-98" d="M228.717 91.889h-5.927v-124.27h5.927z"/><path d="M218.735 91.789c0 9.273 13.922 9.273 13.922 0 0-9.294-13.922-9.294-13.922 0" id="Fill-99"/><path d="M233.457 350.025c0 9.273 13.922 9.273 13.922 0s-13.922-9.273-13.922 0"/><path d="M250.281 365.699c0 9.153 13.719 9.153 13.719 0 0-9.132-13.719-9.132-13.719 0" id="Fill-83"/><path id="Fill-106" d="M260.242 365.82h-5.927v-34.953h5.927z"/><path id="Fill-102" d="M186.532 88.459h5.927v-103.065l-17.049-17.148h-61.403l-38.753-38.758-4.265 4.161 40.623 40.623h61.403l13.517 13.496z"/><path d="M182.574 88.459c0 9.132 13.719 9.132 13.719 0 0-9.153-13.719-9.153-13.719 0" id="Fill-103"/><path id="Fill-111" d="M76.407 67.15h6.026v-37.397l18.691-18.712h73.153v-6.026h-75.548l-22.322 22.343z"/><path d="M-12.029 28.719c0 9.273 13.943 9.273 13.943 0 0-9.294-13.943-9.294-13.943 0" id="Fill-114"/><path d="M26.22 45.337c0 9.273 13.922 9.273 13.922 0s-13.922-9.273-13.922 0" id="Fill-116"/><path d="M26.22 67.883c0 9.273 13.922 9.273 13.922 0s-13.922-9.273-13.922 0" id="Fill-117"/><path d="M49.171 67.883c0 9.153 13.719 9.153 13.719 0s-13.719-9.153-13.719 0" id="Fill-119"/><path d="M67.779 7.836c0 9.273 13.922 9.273 13.922 0 0-9.294-13.922-9.294-13.922 0" id="Fill-125"/><path d="M-9.837 50.636c0 9.273 13.922 9.273 13.922 0s-13.922-9.273-13.922 0" id="Fill-133"/><path id="Fill-134" d="M30.262 45.337h5.927v-35.429l-22.244-22.343v-79.361h-6.005v81.86l22.322 22.442z"/><path d="M10.942 22.267c0 9.153 13.719 9.153 13.719 0 0-9.132-13.719-9.132-13.719 0" id="Fill-137"/><path id="Fill-138" d="M20.8 21.759h-5.927v-26.504h5.927z"/><path id="Fill-139" d="M53.031 67.883h6.026v-63.901l-16.842-16.618-4.161 4.161 14.977 15.055z"/><path id="Fill-140" d="M72.833 5.831l-20.047 20.047 4.26 4.265 20.047-20.052z"/><path d="M58.397 238.644c0 9.153 13.719 9.153 13.719 0 0-9.132-13.719-9.132-13.719 0"/><path d="M58.281 359.699c0 9.153 13.719 9.153 13.719 0 0-9.132-13.719-9.132-13.719 0" id="Fill-83"/><path d="M58.281 259.865c0 9.132 13.719 9.132 13.719 0 0-9.153-13.719-9.153-13.719 0" id="Fill-86"/><path id="Fill-106" d="M68.242 358.849h-5.927v-99.983h5.927z"/><path d="M58.397 180.363c0 9.153 13.719 9.153 13.719 0s-13.719-9.153-13.719 0" id="Fill-150"/><path id="Fill-151" d="M144 317.281h-6.026v-58.281h6.026z"/><path id="Fill-159" d="M-6.834 171.15l43.122-42.899h58.805l17.044-17.044v-84.577h-5.927v81.979l-13.512 13.616h-58.909l-44.764 44.888z"/><path id="Fill-160" d="M-4.112 140.714l30.338-30.234h55.782v-6.026h-58.281l-32.104 32.099z"/><path id="Fill-161" d="M10.111 233.488l35.003-35.205v-29.506l21.205-21.003h38.031l26.603-26.805v-73.865h-6.026v71.366l-23.174 23.174h-37.927l-24.613 24.732v29.506l-33.262 33.34z"/><path id="Fill-162" d="M11.249 187.893l12.582-12.582v-10.39l17.351-17.351-4.265-4.156-19.112 18.909v10.592l-10.816 10.816z"/><path d="M30.078 148.045c0 9.273 13.922 9.273 13.922 0 0-9.294-13.922-9.294-13.922 0" id="Fill-148"/><path id="Fill-163" d="M99.986 165.348h15.891l35.226-35.226v-102.436h-5.927v99.938l-31.797 31.694h-13.392z"/><path d="M168.301 227.849c0 9.153 13.699 9.153 13.699 0 0-9.132-13.699-9.132-13.699 0" id="Fill-165"/><path id="Fill-166" d="M172.714 204.085l4.26-4.26-14.14-14.229v-19.013l11.849-11.953-4.26-4.26-13.621 13.818v23.906z"/><path d="M168.281 201.865c0 9.132 13.719 9.132 13.719 0 0-9.153-13.719-9.153-13.719 0" id="Fill-167"/><path d="M79.509 179.774c0 9.294 13.922 9.294 13.922 0 0-9.273-13.922-9.273-13.922 0" id="Fill-170"/><path d="M118.999 177.28c0 9.153 13.719 9.153 13.719 0 0-9.132-13.719-9.132-13.719 0" id="Fill-171"/><path d="M90.428 162.75c0 9.132 13.719 9.132 13.719 0 0-9.153-13.719-9.153-13.719 0" id="Fill-172"/><path d="M168.281 257.865c0 9.132 13.719 9.132 13.719 0 0-9.153-13.719-9.153-13.719 0"/><path d="M109.441 199.722c0 9.153 13.719 9.153 13.719 0 0-9.132-13.719-9.132-13.719 0" id="Fill-175"/><path d="M182.574 115.467c0 9.153 13.719 9.153 13.719 0s-13.719-9.153-13.719 0" id="Fill-176"/><path d="M-1.922 233.97c0 9.273 13.922 9.273 13.922 0 0-9.294-13.922-9.294-13.922 0"/><path d="M-1.922 290.498c0 9.294 13.922 9.294 13.922 0 0-9.273-13.922-9.273-13.922 0" id="Fill-126"/><path id="Fill-136" d="M8.039 289h-5.927v-26.504h5.927z"/><path d="M27.358 305.212c0 9.132 13.719 9.132 13.719 0 0-9.153-13.719-9.153-13.719 0"/><path d="M102.381 26.631c0 9.153 13.699 9.153 13.699 0 0-9.132-13.699-9.132-13.699 0" id="Fill-181"/><path d="M75.145 107.249c0 9.153 13.719 9.153 13.719 0 0-9.132-13.719-9.132-13.719 0" id="Fill-182"/><path d="M86.371 88.459c0 9.273 13.922 9.273 13.922 0 0-9.294-13.922-9.294-13.922 0" id="Fill-183"/><path d="M120.968 47.103c0 9.273 13.922 9.273 13.922 0s-13.922-9.273-13.922 0" id="Fill-184"/><path d="M141.342 27.685c0 9.132 13.699 9.132 13.699 0 0-9.153-13.699-9.153-13.699 0" id="Fill-185"/><path id="Fill-190" d="M89.392 289.9h-5.927v-110.125h5.927z"/><path id="Fill-191" d="M118.532 197.306l-4.239 4.14 58.14 59.377 4.239-4.135z"/><path d="M114.21 234.522c0 9.153 13.719 9.153 13.719 0 0-9.132-13.719-9.132-13.719 0"/><path d="M106.281 278.849c0 9.153 13.719 9.153 13.719 0 0-9.132-13.719-9.132-13.719 0M106.281 295.849c0 9.153 13.719 9.153 13.719 0 0-9.132-13.719-9.132-13.719 0M106.281 336.849c0 9.153 13.719 9.153 13.719 0 0-9.132-13.719-9.132-13.719 0"/><path d="M106.078 261.955c0 9.273 13.922 9.273 13.922 0s-13.922-9.273-13.922 0"/><path id="Fill-194" d="M118.999 236.61l4.26-4.26-20.047-20.052v-20.779l11.325-11.221h11.319v-6.026h-13.818l-14.753 14.852v25.771z"/><path id="Fill-195" d="M180.179 179.368l12.379-11.423-.104-52.171h-5.922v49.574l-10.494 9.558z"/><path id="Fill-196" d="M37.117 308.814h-5.927v-104h5.927z"/><path id="Fill-197" d="M96.026 91.359h-99.735v-5.823h99.735z"/><path id="Fill-198" d="M11.249 71.618h20.577v-5.927h-17.979l-14.53-14.53-4.26 4.14z"/><path id="Fill-199" d="M257.696 3.415l-4.281 4.239 26.135 26.462 4.281-4.239z"/><path id="Fill-200" d="M244.22 21.374l-4.182 4.343 33.564 32.384 4.182-4.343z"/><path d="M235.883 298.197c0 9.153 13.719 9.153 13.719 0 0-9.132-13.719-9.132-13.719 0" id="Fill-59"/><path id="Fill-200" d="M244.22 296.374l-4.182 4.343 33.564 32.384 4.182-4.343z"/><path id="Fill-201" d="M242.335 48.688l-4.182 4.343 23.621 22.79 4.182-4.343z"/><path id="Fill-202" d="M247.932 115.993h-6.026v-31.065h6.026z"/><path d="M238.054 244.927c0 9.132 13.719 9.132 13.719 0 0-9.153-13.719-9.153-13.719 0" id="Fill-61"/><path d="M238.054 275.467c0 9.153 13.719 9.153 13.719 0s-13.719-9.153-13.719 0" id="Fill-62"/><path d="M185.078 299.955c0 9.273 13.922 9.273 13.922 0s-13.922-9.273-13.922 0" id="Fill-117"/><path d="M185.281 320.865c0 9.132 13.719 9.132 13.719 0 0-9.153-13.719-9.153-13.719 0" id="Fill-61"/><path id="Fill-202" d="M195 362.065h-6.026v-41.065h6.026z"/><path d="M149.021 314.955c0 9.273 13.922 9.273 13.922 0s-13.922-9.273-13.922 0" id="Fill-133"/><path d="M149.281 349.699c0 9.153 13.719 9.153 13.719 0 0-9.132-13.719-9.132-13.719 0" id="Fill-83"/><path id="Fill-106" d="M159.242 351.82h-5.927v-34.953h5.927z"/><path id="Fill-202" d="M247.932 275.993h-6.026v-31.065h6.026z"/><path d="M258.281 244.865c0 9.132 13.719 9.132 13.719 0 0-9.153-13.719-9.153-13.719 0" id="Fill-61"/><path id="Fill-202" d="M267.932 321h-6.026v-76.072h6.026z"/><path d="M134.281 254.849c0 9.153 13.719 9.153 13.719 0 0-9.132-13.719-9.132-13.719 0"/></g><g id="Page-1"><path d="M760.162 233.917c0-9.132-13.719-9.132-13.719 0 0 9.153 13.719 9.153 13.719 0z" id="Fill-1"/><path d="M770.25 195.585c0-9.273-13.922-9.273-13.922 0s13.922 9.273 13.922 0" id="Fill-3"/><path d="M751.538 214.068c0-9.132-13.719-9.132-13.719 0 0 9.153 13.719 9.153 13.719 0" id="Fill-5"/><path id="Fill-7" d="M746.832 216.182l18.384-18.649-4.218-4.161-18.384 18.649z"/><path id="Fill-13" d="M724.936 78.297v82.691h5.927v-80.213z"/><path id="Fill-15" d="M829.258-43.683h-6.13v16.192l-24.005 24.005v36.468l33.34 33.46 4.265-4.364-31.579-31.595v-31.47l24.109-24.109z"/><path d="M842.141 64.25c0-9.132-13.719-9.132-13.719 0 0 9.153 13.719 9.153 13.719 0" id="Fill-17"/><path id="Fill-19" d="M831.751-14.379l-13.616 13.699v23.901l15.99 15.99 4.26-4.239-14.223-14.244v-19.117l11.849-11.953z"/><path d="M843.076 37.143c0-9.132-13.719-9.132-13.719 0 0 9.153 13.719 9.153 13.719 0" id="Fill-21"/><path d="M734.717 160.988c0-9.132-13.719-9.132-13.719 0 0 9.153 13.719 9.153 13.719 0" id="Fill-25"/><path d="M754.541 58.852c0-9.132-13.699-9.132-13.699 0 0 9.153 13.699 9.153 13.699 0" id="Fill-28"/><path d="M754.541 98.141c0-9.153-13.699-9.153-13.699 0 0 9.132 13.699 9.132 13.699 0" id="Fill-36"/><path d="M844.515 137.403c0-9.294-13.922-9.294-13.922 0 0 9.273 13.922 9.273 13.922 0" id="Fill-38"/><path d="M784.369 34.972c0-9.153-13.719-9.153-13.719 0 0 9.132 13.719 9.132 13.719 0" id="Fill-40"/><path d="M846.281 12.426c0-9.153-13.699-9.153-13.699 0 0 9.132 13.699 9.132 13.699 0" id="Fill-44"/><path d="M734.717 81.725c0-9.153-13.719-9.153-13.719 0 0 9.132 13.719 9.132 13.719 0" id="Fill-46"/><path id="Fill-51" d="M744.782 55.75h5.927v42.39h-5.927z"/><path id="Fill-53" d="M779.704 32.78l-4.384 4.26 59.231 59.112v40.629h11.854-5.927v-43.325z"/><path d="M782.504 62.811c0-9.294-13.922-9.294-13.922 0 0 9.273 13.922 9.273 13.922 0" id="Fill-54"/><path d="M782.177 82.655c0-9.153-13.699-9.153-13.699 0 0 9.132 13.699 9.132 13.699 0"/><path d="M753.73 149.258c0-9.153-13.719-9.153-13.719 0 0 9.132 13.719 9.132 13.719 0" id="Fill-56"/><path d="M768.988 164.515c0-9.132-13.719-9.132-13.719 0 0 9.153 13.719 9.153 13.719 0" id="Fill-57"/><path d="M792.993 188.624c0-9.153-13.719-9.153-13.719 0s13.719 9.153 13.719 0" id="Fill-58"/><path d="M792.719 212.849c0-9.132-13.719-9.132-13.719 0 0 9.153 13.719 9.153 13.719 0" id="Fill-169"/><path d="M807.117 171.803c0-9.153-13.719-9.153-13.719 0 0 9.132 13.719 9.132 13.719 0" id="Fill-59"/><path d="M807.117 142.598c0-9.153-13.719-9.153-13.719 0 0 9.132 13.719 9.132 13.719 0" id="Fill-60"/><path d="M804.946 110.073c0-9.132-13.719-9.132-13.719 0 0 9.153 13.719 9.153 13.719 0" id="Fill-61"/><path d="M804.946 79.533c0-9.153-13.719-9.153-13.719 0s13.719 9.153 13.719 0" id="Fill-62"/><path d="M774.385 138.967c0-9.153-13.699-9.153-13.699 0 0 9.132 13.699 9.132 13.699 0" id="Fill-63"/><path d="M750.806 182.193c0-9.153-13.719-9.153-13.719 0 0 9.132 13.719 9.132 13.719 0" id="Fill-65"/><path id="Fill-67" d="M853.871-89.101h-6.026v89.47l-10.39 9.662 3.958 4.566 12.457-11.527z"/><path d="M778.873 79.533h-5.927v16.945l-28.997 28.977v23.803h5.927v-21.408l28.997-28.997z"/><path d="M977.719 315.135c0-9.153-13.719-9.153-13.719 0s13.719 9.153 13.719 0" id="Fill-62"/><path id="Fill-70" d="M967.777 202.972h-89.371v5.906h86.774l30.436 30.561 4.161-4.364z"/><path id="Fill-71" d="M840.478 165.143h-5.927v54.442l26.603 26.603h38.13l21.086 21.288v29.506l34.171 34.395 4.26-4.161-32.405-32.831v-29.506l-24.738-24.613h-37.906l-23.273-23.174z"/><path id="Fill-72" d="M928.691 242.032l-4.26 4.161 17.247 17.351v27.413l12.561 12.582 4.161-4.265-10.696-10.816v-27.512z"/><path id="Fill-73" d="M820.307 123.585h-6.026v105.034l35.226 35.33h16.01v-5.927h-13.413l-31.797-31.896z"/><path d="M853.569 299.312c0-9.273-13.922-9.273-13.922 0s13.922 9.273 13.922 0" id="Fill-77"/><path id="Fill-78" d="M808.681 286.697v-24.109l-13.719-13.595-4.26 4.161 12.052 12.031v19.018"/><path d="M800.26 251.689c0-9.153-13.719-9.153-13.719 0 0 9.132 13.719 9.132 13.719 0" id="Fill-79"/><path d="M905.72 319.286c0-9.153-13.719-9.153-13.719 0s13.719 9.153 13.719 0"/><path d="M897.195 261.351c0-9.153-13.719-9.153-13.719 0s13.719 9.153 13.719 0"/><path d="M846.608 275.798c0-9.294-13.922-9.294-13.922 0 0 9.273 13.922 9.273 13.922 0" id="Fill-84"/><path d="M875.076 261.351c0-9.153-13.719-9.153-13.719 0s13.719 9.153 13.719 0" id="Fill-85"/><path d="M812.639 282.356c0-9.153-13.719-9.153-13.719 0 0 9.132 13.719 9.132 13.719 0" id="Fill-87"/><path d="M963.59 329.31c0-9.294-13.922-9.294-13.922 0 0 9.273 13.922 9.273 13.922 0" id="Fill-90"/><path d="M927.533 330.045c0 9.273 13.922 9.273 13.922 0 0-9.294-13.922-9.294-13.922 0z" id="Fill-91"/><path d="M963.065 301.346c0-9.132-13.719-9.132-13.719 0 0 9.153 13.719 9.153 13.719 0" id="Fill-92"/><path d="M885.143 205.975c0-9.132-13.719-9.132-13.719 0 0 9.153 13.719 9.153 13.719 0"/><path d="M878.281 187.164c0-9.132-13.699-9.132-13.699 0 0 9.153 13.699 9.153 13.699 0" id="Fill-94"/><path id="Fill-98" d="M814.283 103.111h5.927v124.27h-5.927z"/><path d="M824.265 103.211c0-9.273-13.922-9.273-13.922 0 0 9.294 13.922 9.294 13.922 0" id="Fill-99"/><path d="M929.398 241.71c0-9.273-13.922-9.273-13.922 0 0 9.294 13.922 9.294 13.922 0" id="Fill-101"/><path id="Fill-102" d="M856.468 106.541h-5.927v103.065l17.049 17.148h61.403l38.753 38.758 4.265-4.161-40.623-40.623h-61.403l-13.517-13.496z"/><path d="M860.426 106.541c0-9.132-13.719-9.132-13.719 0 0 9.153 13.719 9.153 13.719 0" id="Fill-103"/><path d="M977.922 265.045c0-9.294-13.922-9.294-13.922 0 0 9.273 13.922 9.273 13.922 0" id="Fill-104"/><path d="M977.922 238.03c0-9.273-13.922-9.273-13.922 0 0 9.294 13.922 9.294 13.922 0" id="Fill-105"/><path d="M1038.975 313.395c0-9.153-13.719-9.153-13.719 0 0 9.132 13.719 9.132 13.719 0M1061.719 313.865c0-9.153-13.719-9.153-13.719 0 0 9.132 13.719 9.132 13.719 0" id="Fill-83"/><path d="M1038.975 357.229c0-9.132-13.719-9.132-13.719 0 0 9.153 13.719 9.153 13.719 0" id="Fill-86"/><path id="Fill-106" d="M1029.013 313.274h5.927v43.953h-5.927z"/><path d="M1058.026 313h-6.026v48.416l12.457 11.325 4.161-4.26-10.592-9.761z"/><path id="Fill-108" d="M853.367 272.775h-13.719v6.026h11.226l11.319 11.423v17.779l6.026 2.395v-22.771z"/><path id="Fill-110" d="M931.592 306.238h5.927v26.281h-5.927z"/><path id="Fill-111" d="M966.593 127.85h-6.026v37.397l-18.691 18.712h-73.153v6.026h75.548l22.322-22.343z"/><path id="Fill-112" d="M992.691 270.603l-4.26 4.26 10.894 10.696v10.39l7.065 7.164 4.161-4.161-5.299-5.294v-10.494z"/><path d="M1050.972 166.281h-5.927v95.595l5.927-2.395z"/><path d="M1055.029 166.281c0-9.273-13.943-9.273-13.943 0 0 9.294 13.943 9.294 13.943 0" id="Fill-114"/><path d="M1038.915 286.795c0-9.132-13.719-9.132-13.719 0 0 9.153 13.719 9.153 13.719 0M1062.915 286.795c0-9.132-13.719-9.132-13.719 0 0 9.153 13.719 9.153 13.719 0" id="Fill-115"/><path d="M1016.78 149.663c0-9.273-13.922-9.273-13.922 0s13.922 9.273 13.922 0" id="Fill-116"/><path d="M1016.78 127.117c0-9.273-13.922-9.273-13.922 0s13.922 9.273 13.922 0" id="Fill-117"/><path d="M1009.616 204.104c0-9.153-13.719-9.153-13.719 0 0 9.132 13.719 9.132 13.719 0" id="Fill-118"/><path d="M993.829 127.117c0-9.153-13.719-9.153-13.719 0s13.719 9.153 13.719 0" id="Fill-119"/><path d="M1055.029 261.351c0-9.273-13.943-9.273-13.943 0s13.943 9.273 13.943 0" id="Fill-120"/><path d="M1074.65 244.936c0-9.132-13.719-9.132-13.719 0 0 9.153 13.719 9.153 13.719 0"/><path d="M1074.65 195.585c0-9.132-13.719-9.132-13.719 0 0 9.153 13.719 9.153 13.719 0"/><path d="M1019.273 251.897c0-9.273-13.922-9.273-13.922 0 0 9.294 13.922 9.294 13.922 0" id="Fill-123"/><path d="M975.221 187.164c0-9.273-13.922-9.273-13.922 0 0 9.294 13.922 9.294 13.922 0" id="Fill-125"/><path d="M1019.273 223.954c0-9.294-13.922-9.294-13.922 0 0 9.273 13.922 9.273 13.922 0" id="Fill-126"/><path d="M998.719 272.849c0-9.132-13.719-9.132-13.719 0 0 9.153 13.719 9.153 13.719 0" id="Fill-127"/><path d="M1019.377 303.434c0-9.153-13.699-9.153-13.699 0 0 9.132 13.699 9.132 13.699 0" id="Fill-128"/><path d="M977.922 290.045c0-9.273-13.922-9.273-13.922 0s13.922 9.273 13.922 0" id="Fill-129"/><path d="M1064.891 195.583h5.927v49.351h-5.927z"/><path d="M1102.494 210.967c0-9.294-13.922-9.294-13.922 0 0 9.273 13.922 9.273 13.922 0"/><path d="M1073.819 106.541c0-9.132-13.719-9.132-13.719 0 0 9.153 13.719 9.153 13.719 0"/><path d="M1052.837 144.364c0-9.273-13.922-9.273-13.922 0s13.922 9.273 13.922 0" id="Fill-133"/><path id="Fill-134" d="M1012.738 149.663h-5.927v35.429l22.244 22.343v79.361h6.005v-81.86l-22.322-22.442z"/><path d="M1069.985 106.541h-5.927v61.73l28.878 28.977v16.722h6.026v-19.319l-28.977-28.878z"/><path id="Fill-136" d="M1009.312 224.357h5.927v26.504h-5.927z"/><path d="M1032.058 172.733c0-9.153-13.719-9.153-13.719 0 0 9.132 13.719 9.132 13.719 0"/><path id="Fill-138" d="M1022.2 173.241h5.927v26.504h-5.927z"/><path id="Fill-139" d="M989.969 127.117h-6.026v63.901l16.842 16.618 4.161-4.161-14.977-15.055z"/><path id="Fill-140" d="M970.167 189.169l20.047-20.047-4.26-4.265-20.047 20.052z"/><path d="M1076.842 6.401v18.691l-10.919 10.816 4.265 4.14 12.582-12.561v-18.712z"/><path d="M1116.536 67.907c0-9.153-13.719-9.153-13.719 0 0 9.132 13.719 9.132 13.719 0"/><path d="M1094.291 158.084c0-9.294-13.922-9.294-13.922 0 0 9.273 13.922 9.273 13.922 0"/><path d="M1059.699 79.865c0-9.153-13.699-9.153-13.699 0s13.699 9.153 13.699 0"/><path d="M1074.977 37.975c0-9.153-13.719-9.153-13.719 0s13.719 9.153 13.719 0"/><path d="M1086.603 7.637c0-9.153-13.719-9.153-13.719 0s13.719 9.153 13.719 0"/><path d="M1059.719 1.151c0-9.153-13.719-9.153-13.719 0 0 9.132 13.719 9.132 13.719 0"/><path d="M984.603 14.637c0-9.153-13.719-9.153-13.719 0s13.719 9.153 13.719 0" id="Fill-150"/><path d="M1104.582 32.78c0-9.153-13.719-9.153-13.719 0s13.719 9.153 13.719 0"/><path d="M1112.681 67.907h-6.13v18.286l-22.135 22.338v49.553h5.922v-47.179l22.343-22.218z"/><path d="M1092.629 53.658c0-9.273-13.922-9.273-13.922 0 0 9.294 13.922 9.294 13.922 0"/><path d="M1092.629 88.359c0-9.273-13.922-9.273-13.922 0 0 9.294 13.922 9.294 13.922 0"/><path d="M1082.647 51.589h5.927v36.364h-5.927z"/><path d="M1109.45 175.232c0-9.153-13.699-9.153-13.699 0 0 9.132 13.699 9.132 13.699 0"/><path d="M1099.592 93.978h6.026v80.826h-6.026z"/><path id="Fill-159" d="M1049.834 23.85l-43.122 42.899h-58.805l-17.044 17.044v84.577h5.927v-81.979l13.512-13.616h58.909l44.764-44.888z"/><path d="M1047.112 54.286l-30.338 30.234h-55.782v6.026h58.281l32.104-32.099z"/><path id="Fill-161" d="M1032.889-38.488l-35.003 35.205v29.506l-21.205 21.003h-38.031l-26.603 26.805v73.865h6.026v-71.366l23.174-23.174h37.927l24.613-24.732v-29.506l33.262-33.34z"/><path id="Fill-162" d="M1031.751 7.107l-12.582 12.582v10.39l-17.351 17.351 4.265 4.156 19.112-18.909v-10.592l10.816-10.816z"/><path d="M1012.922 46.955c0-9.273-13.922-9.273-13.922 0 0 9.294 13.922 9.294 13.922 0" id="Fill-148"/><path d="M943.014 29.652h-15.891l-35.226 35.226v102.436h5.927v-99.938l31.797-31.694h13.392z"/><path id="Fill-166" d="M870.286-9.085l-4.26 4.26 14.14 14.229v19.013l-11.849 11.953 4.26 4.26 13.621-13.818v-23.906z"/><path d="M963.491 15.226c0-9.294-13.922-9.294-13.922 0 0 9.273 13.922 9.273 13.922 0"/><path d="M924.001 17.72c0-9.153-13.719-9.153-13.719 0 0 9.132 13.719 9.132 13.719 0"/><path d="M952.572 32.25c0-9.132-13.719-9.132-13.719 0 0 9.153 13.719 9.153 13.719 0"/><path d="M933.559-4.722c0-9.153-13.719-9.153-13.719 0 0 9.132 13.719 9.132 13.719 0" id="Fill-175"/><path d="M860.426 79.533c0-9.153-13.719-9.153-13.719 0s13.719 9.153 13.719 0" id="Fill-176"/><path d="M940.619 168.369c0-9.153-13.699-9.153-13.699 0 0 9.132 13.699 9.132 13.699 0" id="Fill-181"/><path d="M967.855 87.751c0-9.153-13.719-9.153-13.719 0 0 9.132 13.719 9.132 13.719 0" id="Fill-182"/><path d="M956.629 106.541c0-9.273-13.922-9.273-13.922 0 0 9.294 13.922 9.294 13.922 0" id="Fill-183"/><path d="M922.032 147.897c0-9.273-13.922-9.273-13.922 0s13.922 9.273 13.922 0" id="Fill-184"/><path d="M901.658 167.315c0-9.132-13.699-9.132-13.699 0 0 9.153 13.699 9.153 13.699 0" id="Fill-185"/><path d="M1059.922 26.97c0-9.294-13.922-9.294-13.922 0 0 9.273 13.922 9.273 13.922 0"/><path d="M1059.922 53.955c0-9.273-13.922-9.273-13.922 0 0 9.294 13.922 9.294 13.922 0"/><path id="Fill-190" d="M953.608-94.9h5.927v110.125h-5.927z"/><path id="Fill-194" d="M924.001-41.61l-4.26 4.26 20.047 20.052v20.779l-11.325 11.221h-11.319v6.026h13.818l14.753-14.852v-25.771z"/><path id="Fill-195" d="M862.821 15.632l-12.379 11.423.104 52.171h5.922v-49.574l10.494-9.558z"/><path id="Fill-197" d="M946.974 103.641h99.735v5.823h-99.735z"/><path id="Fill-198" d="M1031.751 123.382h-20.577v5.927h17.979l14.53 14.53 4.26-4.14z"/><path id="Fill-199" d="M785.304 191.585l4.281-4.239-26.135-26.462-4.281 4.239z"/><path id="Fill-200" d="M798.78 173.626l4.182-4.343-33.564-32.384-4.182 4.343z"/><path id="Fill-201" d="M800.665 146.312l4.182-4.343-23.621-22.79-4.182 4.343z"/><path id="Fill-202" d="M795.068 79.007h6.026v31.065h-6.026z"/></g><g><path d="M1157.162 264.917c0-9.132-13.719-9.132-13.719 0 0 9.153 13.719 9.153 13.719 0z"/><path d="M1167.25 226.585c0-9.273-13.922-9.273-13.922 0s13.922 9.273 13.922 0"/><path d="M1148.538 245.068c0-9.132-13.719-9.132-13.719 0 0 9.153 13.719 9.153 13.719 0"/><path d="M1143.832 247.182l18.384-18.649-4.218-4.161-18.384 18.649z"/><path d="M1397.058 273.234c0-9.153-13.719-9.153-13.719 0s13.719 9.153 13.719 0"/><path d="M1396.855 253.286c0-9.153-13.719-9.153-13.719 0 0 9.132 13.719 9.132 13.719 0"/><path d="M1121.936 109.297v82.691h5.927v-80.213z"/><path d="M1226.258-12.683h-6.13v16.192l-24.005 24.005v36.468l33.34 33.46 4.265-4.364-31.579-31.595v-31.47l24.109-24.109z"/><path d="M1239.141 95.25c0-9.132-13.719-9.132-13.719 0 0 9.153 13.719 9.153 13.719 0"/><path d="M1228.751 16.621l-13.616 13.699v23.901l15.99 15.99 4.26-4.239-14.223-14.244v-19.117l11.849-11.953z"/><path d="M1240.076 68.143c0-9.132-13.719-9.132-13.719 0 0 9.153 13.719 9.153 13.719 0"/><path d="M1237.156 19.317c0-9.153-13.699-9.153-13.699 0 0 9.132 13.699 9.132 13.699 0"/><path d="M1131.717 191.988c0-9.132-13.719-9.132-13.719 0 0 9.153 13.719 9.153 13.719 0"/><path d="M1151.541 89.852c0-9.132-13.699-9.132-13.699 0 0 9.153 13.699 9.153 13.699 0"/><path d="M1191.032 43.426c0-9.153-13.719-9.153-13.719 0 0 9.132 13.719 9.132 13.719 0"/><path d="M1181.719 19.151c0-9.153-13.719-9.153-13.719 0 0 9.132 13.719 9.132 13.719 0"/><path d="M1151.541 129.141c0-9.153-13.699-9.153-13.699 0 0 9.132 13.699 9.132 13.699 0"/><path d="M1241.515 168.403c0-9.294-13.922-9.294-13.922 0 0 9.273 13.922 9.273 13.922 0"/><path d="M1181.719 66.151c0-9.153-13.719-9.153-13.719 0 0 9.132 13.719 9.132 13.719 0"/><path d="M1243.281 43.426c0-9.153-13.699-9.153-13.699 0 0 9.132 13.699 9.132 13.699 0"/><path d="M1131.717 112.725c0-9.153-13.719-9.153-13.719 0 0 9.132 13.719 9.132 13.719 0"/><path d="M1141.782 86.75h5.927v42.39h-5.927z"/><path d="M1176.704 63.78l-4.384 4.26 59.231 59.112v40.629h11.854-5.927v-43.325z"/><path d="M1181.922 94.045c0-9.294-13.922-9.294-13.922 0 0 9.273 13.922 9.273 13.922 0"/><path d="M1150.73 180.258c0-9.153-13.719-9.153-13.719 0 0 9.132 13.719 9.132 13.719 0"/><path d="M1165.988 195.515c0-9.132-13.719-9.132-13.719 0 0 9.153 13.719 9.153 13.719 0"/><path d="M1189.993 219.624c0-9.153-13.719-9.153-13.719 0s13.719 9.153 13.719 0"/><path d="M1204.117 202.803c0-9.153-13.719-9.153-13.719 0 0 9.132 13.719 9.132 13.719 0"/><path d="M1204.117 173.598c0-9.153-13.719-9.153-13.719 0 0 9.132 13.719 9.132 13.719 0"/><path d="M1201.946 141.073c0-9.132-13.719-9.132-13.719 0 0 9.153 13.719 9.153 13.719 0"/><path d="M1201.946 110.533c0-9.153-13.719-9.153-13.719 0s13.719 9.153 13.719 0" id="Fill-62"/><path d="M1171.385 169.967c0-9.153-13.699-9.153-13.699 0 0 9.132 13.699 9.132 13.699 0"/><path d="M1147.806 213.193c0-9.153-13.719-9.153-13.719 0 0 9.132 13.719 9.132 13.719 0"/><path d="M1184.071 40.299h-13.719l-14.748 14.852v25.771l14.852 14.857 4.161-4.161-13.091-13.091v-20.779l11.325-11.423h11.221z"/><path d="M1250.871-58.101h-6.026v89.47l-10.39 9.662 3.958 4.566 12.457-11.527z"/><path d="M1382.719 345.461c0-9.153-13.719-9.153-13.719 0s13.719 9.153 13.719 0"/><path id="Fill-202" d="M1372.841 344.935h6.026v71.746h-6.026z"/><path d="M1338.777 233.972h-63.371v5.906h60.774l30.436 30.561 4.161-4.364z"/><path d="M1237.478 196.143h-5.927v54.442l26.603 26.603h38.13l21.086 21.288v29.506l34.171 34.395 4.26-4.161-32.405-32.831v-29.506l-24.738-24.613h-37.906l-23.273-23.174z"/><path d="M1325.691 273.032l-4.26 4.161 17.247 17.351v27.413l12.561 12.582 4.161-4.265-10.696-10.816v-27.512z"/><path d="M1217.307 154.585h-6.026v105.034l35.226 35.33h16.01v-5.927h-13.413l-31.797-31.896z"/><path d="M1250.569 330.312c0-9.273-13.922-9.273-13.922 0s13.922 9.273 13.922 0"/><path d="M1205.681 352.697v-60.109l-13.719-13.595-4.26 4.161 12.052 12.031v55.018"/><path d="M1197.26 281.689c0-9.153-13.719-9.153-13.719 0 0 9.132 13.719 9.132 13.719 0"/><path d="M1243.608 306.798c0-9.294-13.922-9.294-13.922 0 0 9.273 13.922 9.273 13.922 0"/><path d="M1272.076 292.351c0-9.153-13.719-9.153-13.719 0s13.719 9.153 13.719 0"/><path d="M1209.639 352.356c0-9.153-13.719-9.153-13.719 0 0 9.132 13.719 9.132 13.719 0"/><path d="M1360.59 360.31c0-9.294-13.922-9.294-13.922 0 0 9.273 13.922 9.273 13.922 0"/><path d="M1324.533 400.045c0 9.273 13.922 9.273 13.922 0 0-9.294-13.922-9.294-13.922 0zM1324.533 369.045c0 9.273 13.922 9.273 13.922 0 0-9.294-13.922-9.294-13.922 0z"/><path d="M1360.065 332.346c0-9.132-13.719-9.132-13.719 0 0 9.153 13.719 9.153 13.719 0"/><path d="M1275.281 218.164c0-9.132-13.699-9.132-13.699 0 0 9.153 13.699 9.153 13.699 0"/><path d="M1241.515 196.143c0-9.273-13.922-9.273-13.922 0s13.922 9.273 13.922 0"/><path d="M1211.283 134.111h5.927v124.27h-5.927z"/><path d="M1221.265 134.211c0-9.273-13.922-9.273-13.922 0 0 9.294 13.922 9.294 13.922 0"/><path d="M1326.398 272.71c0-9.273-13.922-9.273-13.922 0 0 9.294 13.922 9.294 13.922 0"/><path d="M1253.468 137.541h-5.927v103.065l17.049 17.148h61.403l38.753 38.758 4.265-4.161-40.623-40.623h-61.403l-13.517-13.496z"/><path d="M1257.426 137.541c0-9.132-13.719-9.132-13.719 0 0 9.153 13.719 9.153 13.719 0"/><path d="M1373.78 294.746c0-9.294-13.922-9.294-13.922 0 0 9.273 13.922 9.273 13.922 0"/><path d="M1375.65 268.242c0-9.273-13.922-9.273-13.922 0 0 9.294 13.922 9.294 13.922 0"/><path d="M1435.975 344.395c0-9.153-13.719-9.153-13.719 0 0 9.132 13.719 9.132 13.719 0"/><path d="M1435.975 388.229c0-9.132-13.719-9.132-13.719 0 0 9.153 13.719 9.153 13.719 0"/><path d="M1426.013 344.274h5.927v43.953h-5.927z"/><path d="M1250.367 303.775h-13.719v6.026h11.226l11.319 11.423v17.779h6.026v-20.377z"/><path d="M1328.592 337.238h5.927v26.281h-5.927z"/><path d="M1363.593 158.85h-6.026v37.397l-18.691 18.712h-73.153v6.026h75.548l22.322-22.343z"/><path d="M1389.691 301.603l-4.26 4.26 10.894 10.696v10.39l7.065 7.164 4.161-4.161-5.299-5.294v-10.494z"/><path d="M1452.029 197.281c0-9.273-13.943-9.273-13.943 0 0 9.294 13.943 9.294 13.943 0"/><path d="M1435.915 317.795c0-9.132-13.719-9.132-13.719 0 0 9.153 13.719 9.153 13.719 0"/><path d="M1413.78 180.663c0-9.273-13.922-9.273-13.922 0s13.922 9.273 13.922 0"/><path d="M1413.78 158.117c0-9.273-13.922-9.273-13.922 0s13.922 9.273 13.922 0"/><path d="M1406.616 235.104c0-9.153-13.719-9.153-13.719 0 0 9.132 13.719 9.132 13.719 0"/><path d="M1390.829 158.117c0-9.153-13.719-9.153-13.719 0s13.719 9.153 13.719 0"/><path d="M1452.029 292.351c0-9.273-13.943-9.273-13.943 0s13.943 9.273 13.943 0"/><path d="M1416.273 282.897c0-9.273-13.922-9.273-13.922 0 0 9.294 13.922 9.294 13.922 0"/><path d="M1372.221 236.871c0-9.153-13.699-9.153-13.699 0s13.699 9.153 13.699 0"/><path d="M1372.221 218.164c0-9.273-13.922-9.273-13.922 0 0 9.294 13.922 9.294 13.922 0"/><path d="M1416.273 254.954c0-9.294-13.922-9.294-13.922 0 0 9.273 13.922 9.273 13.922 0"/><path d="M1394.46 303.676c0-9.132-13.719-9.132-13.719 0 0 9.153 13.719 9.153 13.719 0"/><path d="M1416.377 334.434c0-9.153-13.699-9.153-13.699 0 0 9.132 13.699 9.132 13.699 0"/><path d="M1376.481 319.988c0-9.273-13.922-9.273-13.922 0s13.922 9.273 13.922 0"/><path d="M1449.837 175.364c0-9.273-13.922-9.273-13.922 0s13.922 9.273 13.922 0"/><path d="M1409.738 180.663h-5.927v35.429l22.244 22.343v79.361h6.005v-81.86l-22.322-22.442z"/><path d="M1406.312 255.357h5.927v26.504h-5.927z"/><path d="M1419.2 204.241h5.927v26.504h-5.927z"/><path d="M1386.969 158.117h-6.026v63.901l16.842 16.618 4.161-4.161-14.977-15.055z"/><path d="M1367.167 220.169l20.047-20.047-4.26-4.265-20.047 20.052z"/><path d="M1441.922 15.03c0-9.273-13.922-9.273-13.922 0 0 9.294 13.922 9.294 13.922 0"/><path d="M1381.603 45.637c0-9.153-13.719-9.153-13.719 0s13.719 9.153 13.719 0"/><path d="M1371.74-12.645h6.026v58.281h-6.026z"/><path d="M1446.834 54.85l-43.122 42.899h-58.805l-17.044 17.044v84.577h5.927v-81.979l13.512-13.616h58.909l44.764-44.888z"/><path d="M1429.889-7.488l-35.003 35.205v29.506l-21.205 21.003h-38.031l-26.603 26.805v73.865h6.026v-71.366l23.174-23.174h37.927l24.613-24.732v-29.506l33.262-33.34z"/><path d="M1428.751 38.107l-12.582 12.582v10.39l-17.351 17.351 4.265 4.156 19.112-18.909v-10.592l10.816-10.816z"/><path d="M1269.582-4.485l-4.26 4.364 30.862 30.764v31.47l-30.135 30.239v96h6.026v-93.61l30.114-30.135v-36.364z"/><path d="M1271.699-1.849c0-9.153-13.699-9.153-13.699 0 0 9.132 13.699 9.132 13.699 0"/><path d="M1267.286 21.915l-4.26 4.26 14.14 14.229v19.013l-11.849 11.953 4.26 4.26 13.621-13.818v-23.906z"/><path d="M1271.719 24.135c0-9.132-13.719-9.132-13.719 0 0 9.153 13.719 9.153 13.719 0"/><path d="M1371.712 63.25c0-9.132-13.719-9.132-13.719 0 0 9.153 13.719 9.153 13.719 0"/><path d="M1330.559 26.278c0-9.153-13.719-9.153-13.719 0 0 9.132 13.719 9.132 13.719 0"/><path d="M1257.426 110.533c0-9.153-13.719-9.153-13.719 0s13.719 9.153 13.719 0"/><path d="M1268.751 48.72c0-9.153-13.719-9.153-13.719 0 0 9.132 13.719 9.132 13.719 0"/><path d="M1441.922 37.045c0-9.294-13.922-9.294-13.922 0 0 9.273 13.922 9.273 13.922 0"/><path d="M1337.619 199.369c0-9.153-13.699-9.153-13.699 0 0 9.132 13.699 9.132 13.699 0"/><path d="M1364.855 118.751c0-9.153-13.719-9.153-13.719 0 0 9.132 13.719 9.132 13.719 0"/><path d="M1353.629 137.541c0-9.273-13.922-9.273-13.922 0 0 9.294 13.922 9.294 13.922 0"/><path d="M1319.032 178.897c0-9.273-13.922-9.273-13.922 0s13.922 9.273 13.922 0"/><path d="M1298.658 198.315c0-9.132-13.699-9.132-13.699 0 0 9.153 13.699 9.153 13.699 0"/><path d="M1275.915 188.351c0-9.153-13.719-9.153-13.719 0 0 9.132 13.719 9.132 13.719 0"/><path d="M1403.915 82.897c0-9.273-13.922-9.273-13.922 0 0 9.294 13.922 9.294 13.922 0"/><path d="M1350.608-63.9h5.927v110.125h-5.927z"/><path d="M1321.468 28.694l4.239-4.14-58.14-59.377-4.239 4.135z"/><path d="M1321.001-10.61l-4.26 4.26 20.047 20.052v20.779l-11.325 11.221h-11.319v6.026h13.818l14.753-14.852v-25.771z"/><path d="M1259.821 46.632l-12.379 11.423.104 52.171h5.922v-49.574l10.494-9.558z"/><path d="M1402.883-38.554h5.927v59.74h-5.927z"/><path d="M1343.974 134.641h99.735v5.823h-99.735z"/><path d="M1428.751 154.382h-20.577v5.927h17.979l14.53 14.53 4.26-4.14z"/><path d="M1182.304 222.585l4.281-4.239-26.135-26.462-4.281 4.239z"/><path d="M1195.78 204.626l4.182-4.343-33.564-32.384-4.182 4.343z"/><path d="M1197.665 177.312l4.182-4.343-23.621-22.79-4.182 4.343z"/><path d="M1192.068 110.007h6.026v31.065h-6.026z"/></g></g></svg>