<svg width="76" height="32" viewBox="0 0 76 32" xmlns="http://www.w3.org/2000/svg"><title>git-logo</title><desc>Created with Sketch.</desc><g fill-rule="nonzero" fill="#5D7EAC"><path d="M45.128 10.981c-1.651 0-2.881.811-2.881 2.762 0 1.47.81 2.491 2.792 2.491 1.679 0 2.82-.989 2.82-2.551 0-1.77-1.021-2.701-2.731-2.701zm-3.302 13.777c-.391.48-.78.989-.78 1.59 0 1.2 1.53 1.56 3.631 1.56 1.741 0 4.112-.122 4.112-1.74 0-.962-1.141-1.021-2.582-1.112l-4.381-.299zm8.883-13.686c.539.69 1.11 1.651 1.11 3.031 0 3.331-2.611 5.282-6.391 5.282-.961 0-1.832-.12-2.371-.27l-.991 1.59 2.941.18c5.192.331 8.252.481 8.252 4.471 0 3.452-3.03 5.402-8.252 5.402-5.432 0-7.502-1.381-7.502-3.751 0-1.351.6-2.07 1.651-3.062-.991-.419-1.32-1.169-1.32-1.979 0-.661.33-1.261.871-1.831.54-.57 1.14-1.141 1.86-1.801-1.47-.72-2.581-2.281-2.581-4.502 0-3.451 2.281-5.821 6.872-5.821 1.291 0 2.071.119 2.762.3h5.852v2.55l-2.761.21zM58.753 5.618c-1.711 0-2.701-.991-2.701-2.702 0-1.709.99-2.64 2.701-2.64 1.741 0 2.731.931 2.731 2.64 0 1.711-.99 2.702-2.731 2.702zm-3.872 18.035v-2.37l1.531-.209c.42-.061.48-.15.48-.601v-8.823c0-.329-.09-.54-.391-.63l-1.62-.571.33-2.43h6.213v12.454c0 .481.029.541.48.601l1.531.209v2.37h-8.554zM75.302 22.49c-1.291.629-3.181 1.2-4.893 1.2-3.571 0-4.921-1.439-4.921-4.832v-7.862c0-.18 0-.3-.241-.3h-2.1v-2.671c2.642-.301 3.691-1.622 4.022-4.893h2.851v4.263c0 .209 0 .3.24.3h4.231v3.001h-4.471v7.172c0 1.771.421 2.461 2.04 2.461.841 0 1.711-.209 2.431-.48l.811 2.642M30.836 14.614l-13.723-13.721c-.79-.79-2.071-.79-2.862 0l-2.849 2.85 3.614 3.614c.84-.284 1.803-.093 2.473.576.673.674.862 1.645.571 2.488l3.484 3.484c.843-.29 1.815-.103 2.488.571.941.941.941 2.465 0 3.406-.941.941-2.465.941-3.407 0-.707-.708-.882-1.747-.524-2.619l-3.249-3.249v8.549c.229.114.446.265.637.455.941.94.941 2.464 0 3.406-.941.94-2.466.94-3.406 0-.941-.942-.941-2.466 0-3.406.232-.232.501-.408.789-.525v-8.629c-.287-.117-.556-.292-.789-.526-.713-.712-.884-1.758-.519-2.633l-3.563-3.564-9.409 9.408c-.791.791-.791 2.073 0 2.863l13.722 13.721c.79.79 2.071.79 2.862 0l13.658-13.656c.79-.791.79-2.073 0-2.863"/></g></svg>