<svg viewBox="0 0 394 420" xmlns="http://www.w3.org/2000/svg"><g fill="#93A9C8" opacity=".25"><g transform="rotate(-22.514 105.174 23.102)"><rect width="44.01" height="8" rx="4"/><rect x="46.01" width="10" height="8" rx="4"/><rect x="16" y="10" width="16" height="8" rx="4"/><rect x="80.02" y="10" width="56.01" height="8" rx="4"/><rect x="90.02" y="20" width="23.01" height="8" rx="4"/><rect x="32.01" y="20" width="56.01" height="8" rx="4"/><rect x="16" y="30.01" width="32.01" height="8" rx="4"/><rect y="40.01" width="16" height="8" rx="4"/><rect x="34.01" y="10" width="44.01" height="8" rx="4"/></g><g transform="rotate(-22.514 265.983 -8.906)"><rect width="28.01" height="8" rx="4"/><rect y="90.02" width="10" height="8" rx="4"/><rect x="30.01" width="28.01" height="8" rx="4"/><rect x="60.01" width="10" height="8" rx="4"/><rect x="16" y="10" width="16" height="8" rx="4"/><rect x="16" y="60.01" width="10" height="8" rx="4"/><rect x="16" y="80.02" width="22.01" height="8" rx="4"/><rect x="28.01" y="60.01" width="28.01" height="8" rx="4"/><rect x="68.02" y="10" width="56.01" height="8" rx="4"/><rect x="32.01" y="20" width="44.01" height="8" rx="4"/><rect x="32.01" y="70.02" width="69.02" height="8" rx="4"/><rect x="32.01" y="40.01" width="38.01" height="8" rx="4"/><rect x="32.01" y="30.01" width="32.01" height="8" rx="4"/><rect x="66.02" y="30.01" width="19" height="8" rx="4"/><rect x="16" y="50.01" width="28.01" height="8" rx="4"/><rect x="34.01" y="10" width="32.01" height="8" rx="4"/></g><g transform="rotate(-22.514 889.117 -132.935)"><rect width="28.01" height="8" rx="4"/><rect y="90.02" width="10" height="8" rx="4"/><rect x="30.01" width="28.01" height="8" rx="4"/><rect x="60.01" width="10" height="8" rx="4"/><rect x="16" y="10" width="16" height="8" rx="4"/><rect x="16" y="60.01" width="10" height="8" rx="4"/><rect x="16" y="80.02" width="22.01" height="8" rx="4"/><rect x="28.01" y="60.01" width="28.01" height="8" rx="4"/><rect x="68.02" y="10" width="56.01" height="8" rx="4"/><rect x="32.01" y="20" width="44.01" height="8" rx="4"/><rect x="32.01" y="70.02" width="69.02" height="8" rx="4"/><rect x="32.01" y="40.01" width="38.01" height="8" rx="4"/><rect x="32.01" y="30.01" width="32.01" height="8" rx="4"/><rect x="66.02" y="30.01" width="19" height="8" rx="4"/><rect x="16" y="50.01" width="28.01" height="8" rx="4"/><rect x="34.01" y="10" width="32.01" height="8" rx="4"/></g><g transform="rotate(-22.514 552.423 -65.92)"><rect width="44.01" height="8" rx="4"/><rect x="16" y="100.02" width="10" height="8" rx="4"/><rect y="110.03" width="10" height="8" rx="4"/><rect x="46.01" width="10" height="8" rx="4"/><rect x="58.01" width="22.01" height="8" rx="4"/><rect x="82.02" width="22.01" height="8" rx="4"/><rect x="16" y="10" width="16" height="8" rx="4"/><rect x="32.01" y="60.01" width="22.01" height="8" rx="4"/><rect x="48.01" y="80.02" width="10" height="8" rx="4"/><rect x="32.01" y="90.02" width="10" height="8" rx="4"/><rect x="60.01" y="80.02" width="22.01" height="8" rx="4"/><rect x="84.02" y="80.02" width="22.01" height="8" rx="4"/><rect x="56.01" y="60.01" width="14" height="8" rx="4"/><rect x="32.01" y="20" width="44.01" height="8" rx="4"/><rect x="78.02" y="20" width="44.01" height="8" rx="4"/><rect x="124.03" y="20" width="28.01" height="8" rx="4"/><rect x="48.01" y="70.02" width="38.01" height="8" rx="4"/><rect x="89.02" y="70.02" width="10" height="8" rx="4"/><rect x="32.01" y="40.01" width="38.01" height="8" rx="4"/><rect x="16" y="30.01" width="32.01" height="8" rx="4"/><rect x="48.01" y="50.01" width="28.01" height="8" rx="4"/><rect x="78.02" y="50.01" width="28.01" height="8" rx="4"/><rect x="34.01" y="10" width="32.01" height="8" rx="4"/></g><g transform="rotate(-22.514 332.722 -461.036)"><rect width="44.01" height="8" rx="4"/><rect x="46.01" width="10" height="8" rx="4"/><rect x="16" y="10" width="16" height="8" rx="4"/><rect x="80.02" y="10" width="56.01" height="8" rx="4"/><rect x="90.02" y="20" width="23.01" height="8" rx="4"/><rect x="32.01" y="20" width="56.01" height="8" rx="4"/><rect x="16" y="30.01" width="32.01" height="8" rx="4"/><rect x="16" y="40.01" width="44.01" height="8" rx="4"/><rect x="62.01" y="40.01" width="44.01" height="8" rx="4"/><rect x="32.01" y="50.01" width="16" height="8" rx="4"/><rect x="50.01" y="50.01" width="23.01" height="8" rx="4"/><rect x="16" y="60.01" width="16" height="8" rx="4"/><rect y="70.02" width="13" height="8" rx="4"/><rect x="15" y="70.02" width="13" height="8" rx="4"/><rect x="34.01" y="60.01" width="16" height="8" rx="4"/><rect x="34.01" y="10" width="44.01" height="8" rx="4"/></g><g transform="rotate(-22.514 568.91 -508.047)"><rect x="12" width="26.01" height="8" rx="4"/><rect width="10" height="8" rx="4"/><rect x="40.01" width="10" height="8" rx="4"/><rect x="52.01" width="10" height="8" rx="4"/><rect x="16" y="10" width="16" height="8" rx="4"/><rect x="80.02" y="10" width="56.01" height="8" rx="4"/><rect x="90.02" y="20" width="23.01" height="8" rx="4"/><rect x="32.01" y="20" width="56.01" height="8" rx="4"/><rect x="16" y="30.01" width="32.01" height="8" rx="4"/><rect x="16" y="40.01" width="44.01" height="8" rx="4"/><rect x="62.01" y="40.01" width="44.01" height="8" rx="4"/><rect x="32.01" y="50.01" width="16" height="8" rx="4"/><rect x="50.01" y="50.01" width="23.01" height="8" rx="4"/><rect x="16" y="60.01" width="16" height="8" rx="4"/><rect y="70.02" width="13" height="8" rx="4"/><rect x="15" y="70.02" width="13" height="8" rx="4"/><rect x="34.01" y="60.01" width="16" height="8" rx="4"/><rect x="34.01" y="10" width="44.01" height="8" rx="4"/></g><g transform="rotate(-22.514 805.097 -555.058)"><rect x="12" width="16" height="8" rx="4"/><rect width="10" height="8" rx="4"/><rect x="30.01" width="22.01" height="8" rx="4"/><rect x="54.01" width="44.01" height="8" rx="4"/><rect x="16" y="10" width="10" height="8" rx="4"/><rect x="90.02" y="20" width="23.01" height="8" rx="4"/><rect x="32.01" y="20" width="56.01" height="8" rx="4"/><rect x="48.01" y="30.01" width="22.01" height="8" rx="4"/><rect x="72.02" y="30.01" width="22.01" height="8" rx="4"/><rect x="32.01" y="40.01" width="30.01" height="8" rx="4"/><rect x="32.01" y="90.02" width="22.01" height="8" rx="4"/><rect x="32.01" y="100.02" width="16" height="8" rx="4"/><rect x="16" y="110.03" width="16" height="8" rx="4"/><rect y="120.03" width="10" height="8" rx="4"/><rect x="56.01" y="90.02" width="22.01" height="8" rx="4"/><rect x="80.02" y="90.02" width="10" height="8" rx="4"/><rect x="64.01" y="40.01" width="10" height="8" rx="4"/><rect x="48.01" y="50.01" width="16" height="8" rx="4"/><rect x="66.02" y="50.01" width="23.01" height="8" rx="4"/><rect x="48.01" y="70.02" width="10" height="8" rx="4"/><rect x="32.01" y="80.02" width="10" height="8" rx="4"/><rect x="64.01" y="60.01" width="22.01" height="8" rx="4"/><rect x="28.01" y="10" width="44.01" height="8" rx="4"/></g><g transform="rotate(-22.514 1166.917 -627.074)"><rect x="21" width="26.01" height="8" rx="4"/><rect width="19" height="8" rx="4"/><rect x="49.01" width="14" height="8" rx="4"/></g></g></svg>