<?xml version="1.0" encoding="UTF-8"?>
<svg width="189px" height="36px" viewBox="0 0 189 36" version="1.1" xmlns="http://www.w3.org/2000/svg" xmlns:xlink="http://www.w3.org/1999/xlink">
    <!-- Generator: Sketch 43.1 (39012) - http://www.bohemiancoding.com/sketch -->
    <title>Phacility_phabricator_logo_w</title>
    <desc>Created with Sketch.</desc>
    <defs></defs>
    <g id="Page-1" stroke="none" stroke-width="1" fill="none" fill-rule="evenodd">
        <g id="Desktop-HD-Copy-5" transform="translate(-888.000000, -662.000000)">
            <g id="Group-6" transform="translate(0.000000, 304.000000)">
                <g id="Group-27" transform="translate(250.000000, 192.000000)">
                    <g id="Group-5" transform="translate(0.000000, 153.000000)">
                        <g id="Phacility_phabricator_logo_w" transform="translate(640.000000, 2.000000)">
                            <g id="a" transform="translate(6.007194, 7.669291)" fill-rule="nonzero" fill="#5D7EAC">
                                <g id="b" transform="translate(6.528777, 8.480315)">
                                    <g id="c" transform="translate(12.438849, 0.000000)">
                                        <polyline id="e" points="2.89784173 3.96850394 2.66906475 0 0.381294964 0 0.145654676 3.96850394"></polyline>
                                        <g id="e-link" transform="translate(1.500000, 23.700787) scale(-1, 1) rotate(-180.000000) translate(-1.500000, -23.700787) translate(0.000000, 21.700787)">
                                            <polyline id="e" points="2.89784173 3.96850394 2.66906475 0 0.381294964 0 0.145654676 3.96850394"></polyline>
                                        </g>
                                    </g>
                                    <g id="c-link" transform="translate(13.814422, 12.825214) rotate(90.000000) translate(-13.814422, -12.825214) translate(12.314422, -0.174786)">
                                        <g id="c">
                                            <polyline id="e" points="2.89784173 3.96850394 2.66906475 3.63797881e-12 0.381294964 3.63797881e-12 0.145654676 3.96850394"></polyline>
                                            <g id="e-link" transform="translate(1.500000, 23.700787) scale(-1, 1) rotate(-180.000000) translate(-1.500000, -23.700787) translate(-0.000000, 21.700787)">
                                                <polyline id="e" points="2.89784173 3.96850394 2.66906475 0 0.381294964 0 0.145654676 3.96850394"></polyline>
                                            </g>
                                        </g>
                                    </g>
                                </g>
                                <g id="b-link" transform="translate(20.042745, 20.408986) rotate(45.000000) translate(-20.042745, -20.408986) translate(6.042745, 6.908986)">
                                    <g id="b" transform="translate(1.005968, 0.983122)">
                                        <g id="c" transform="translate(12.438849, 0.000000)">
                                            <polyline id="e" points="2.89784173 3.96850394 2.66906475 -4.8316906e-13 0.381294964 -4.8316906e-13 0.145654676 3.96850394"></polyline>
                                            <g id="e-link" transform="translate(1.500000, 23.700787) scale(-1, 1) rotate(-180.000000) translate(-1.500000, -23.700787) translate(0.000000, 21.700787)">
                                                <polyline id="e" points="2.89784173 3.96850394 2.66906475 1.27897692e-13 0.381294964 1.27897692e-13 0.145654676 3.96850394"></polyline>
                                            </g>
                                        </g>
                                        <g id="c-link" transform="translate(13.814422, 12.825214) rotate(90.000000) translate(-13.814422, -12.825214) translate(12.314422, -0.174786)">
                                            <g id="c" transform="translate(-0.000000, -0.000000)">
                                                <polyline id="e" points="2.89784173 3.96850394 2.66906475 -2.08899564e-12 0.381294964 -2.08899564e-12 0.145654676 3.96850394"></polyline>
                                                <g id="e-link" transform="translate(1.500000, 23.700787) scale(-1, 1) rotate(-180.000000) translate(-1.500000, -23.700787) translate(-0.000000, 21.700787)">
                                                    <polyline id="e" points="2.89784173 3.96850394 2.66906475 -6.75015599e-13 0.381294964 -6.75015599e-13 0.145654676 3.96850394"></polyline>
                                                </g>
                                            </g>
                                        </g>
                                    </g>
                                </g>
                            </g>
                            <g id="a-link" transform="translate(27.192466, 27.305291) rotate(22.500000) translate(-27.192466, -27.305291) translate(6.692466, 6.805291)" fill-rule="nonzero" fill="#5D7EAC">
                                <g id="a" transform="translate(0.015976, 0.999993)">
                                    <g id="b" transform="translate(6.528777, 8.480315)">
                                        <g id="c" transform="translate(12.438849, -0.000000)">
                                            <polyline id="e" points="2.89784173 3.96850394 2.66906475 1.09423581e-12 0.381294964 1.09423581e-12 0.145654676 3.96850394"></polyline>
                                            <g id="e-link" transform="translate(1.500000, 23.700787) scale(-1, 1) rotate(-180.000000) translate(-1.500000, -23.700787) translate(-0.000000, 21.700787)">
                                                <polyline id="e" points="2.89784173 3.96850394 2.66906475 -2.73558953e-13 0.381294964 -2.73558953e-13 0.145654676 3.96850394"></polyline>
                                            </g>
                                        </g>
                                        <g id="c-link" transform="translate(13.814422, 12.825214) rotate(90.000000) translate(-13.814422, -12.825214) translate(12.314422, -0.174786)">
                                            <g id="c" transform="translate(0.000000, 0.000000)">
                                                <polyline id="e" points="2.89784173 3.96850394 2.66906475 -1.13686838e-13 0.381294964 -1.13686838e-13 0.145654676 3.96850394"></polyline>
                                                <g id="e-link" transform="translate(1.500000, 23.700787) scale(-1, 1) rotate(-180.000000) translate(-1.500000, -23.700787) translate(-0.000000, 21.700787)">
                                                    <polyline id="e" points="2.89784173 3.96850394 2.66906475 1.46371804e-12 0.381294964 1.46371804e-12 0.145654676 3.96850394"></polyline>
                                                </g>
                                            </g>
                                        </g>
                                    </g>
                                    <g id="b-link" transform="translate(20.042745, 20.408986) rotate(45.000000) translate(-20.042745, -20.408986) translate(6.042745, 6.908986)">
                                        <g id="b" transform="translate(1.005968, 0.983122)">
                                            <g id="c" transform="translate(12.438849, -0.000000)">
                                                <polyline id="e" points="2.89784173 3.96850394 2.66906475 1.24344979e-13 0.381294964 1.24344979e-13 0.145654676 3.96850394"></polyline>
                                                <g id="e-link" transform="translate(1.500000, 23.700787) scale(-1, 1) rotate(-180.000000) translate(-1.500000, -23.700787) translate(0.000000, 21.700787)">
                                                    <polyline id="e" points="2.89784173 3.96850394 2.66906475 1.20792265e-12 0.381294964 1.20792265e-12 0.145654676 3.96850394"></polyline>
                                                </g>
                                            </g>
                                            <g id="c-link" transform="translate(13.814422, 12.825214) rotate(90.000000) translate(-13.814422, -12.825214) translate(12.314422, -0.174786)">
                                                <g id="c" transform="translate(-0.000000, -0.000000)">
                                                    <polyline id="e" points="2.89784173 3.96850394 2.66906475 1.69109171e-12 0.381294964 1.69109171e-12 0.145654676 3.96850394"></polyline>
                                                    <g id="e-link" transform="translate(1.500000, 23.700787) scale(-1, 1) rotate(-180.000000) translate(-1.500000, -23.700787) translate(0.000000, 21.700787)">
                                                        <polyline id="e" points="2.89784173 3.96850394 2.66906475 7.38964445e-13 0.381294964 7.38964445e-13 0.145654676 3.96850394"></polyline>
                                                    </g>
                                                </g>
                                            </g>
                                        </g>
                                    </g>
                                </g>
                            </g>
                            <path d="M65.9335938,29.90625 L65.9335938,36 L63.15625,36 L63.15625,19.1953125 L68.2539062,19.1953125 C70.1836034,19.1953125 71.6796822,19.6445268 72.7421875,20.5429688 C73.8046928,21.4414107 74.3359375,22.7070231 74.3359375,24.3398438 C74.3359375,25.9726644 73.7812555,27.3085886 72.671875,28.3476562 C71.5624945,29.3867239 70.0625095,29.90625 68.171875,29.90625 L65.9335938,29.90625 Z M65.9335938,21.4921875 L65.9335938,27.6328125 L67.7382812,27.6328125 C68.9335997,27.6328125 69.8437469,27.3554715 70.46875,26.8007812 C71.0937531,26.246091 71.40625,25.4648488 71.40625,24.4570312 C71.40625,22.4804589 70.257824,21.4921875 67.9609375,21.4921875 L65.9335938,21.4921875 Z M87.5429688,36 L84.8242188,36 L84.8242188,29.4375 C84.8242188,27.0624881 84.0312579,25.875 82.4453125,25.875 C81.6484335,25.875 80.9765652,26.2187466 80.4296875,26.90625 C79.8828098,27.5937534 79.609375,28.4726509 79.609375,29.5429688 L79.609375,36 L76.8789062,36 L76.8789062,18.234375 L79.609375,18.234375 L79.609375,25.9921875 L79.65625,25.9921875 C80.5625045,24.4765549 81.8593666,23.71875 83.546875,23.71875 C86.2109508,23.71875 87.5429688,25.34764 87.5429688,28.6054688 L87.5429688,36 Z M100.058594,36 L97.421875,36 L97.421875,34.125 L97.375,34.125 C96.5468709,35.5625072 95.3320393,36.28125 93.7304688,36.28125 C92.5507754,36.28125 91.6269565,35.9609407 90.9589844,35.3203125 C90.2910123,34.6796843 89.9570312,33.8320365 89.9570312,32.7773438 C89.9570312,30.5117074 91.2617057,29.1914081 93.8710938,28.8164062 L97.4335938,28.3125 C97.4335938,26.6015539 96.6211019,25.7460938 94.9960938,25.7460938 C93.5663991,25.7460938 92.2773495,26.2382763 91.1289062,27.2226562 L91.1289062,24.84375 C92.3945376,24.0937463 93.8554605,23.71875 95.5117188,23.71875 C98.5429839,23.71875 100.058594,25.2109226 100.058594,28.1953125 L100.058594,36 Z M97.4335938,30.1054688 L94.9140625,30.4570312 C94.1328086,30.5585943 93.5449238,30.7480455 93.1503906,31.0253906 C92.7558574,31.3027358 92.5585938,31.789059 92.5585938,32.484375 C92.5585938,32.99219 92.7402326,33.4082015 93.1035156,33.7324219 C93.4667987,34.0566422 93.953122,34.21875 94.5625,34.21875 C95.3906291,34.21875 96.0761692,33.9277373 96.6191406,33.3457031 C97.1621121,32.763669 97.4335938,32.0312544 97.4335938,31.1484375 L97.4335938,30.1054688 Z M106.140625,34.265625 L106.09375,34.265625 L106.09375,36 L103.375,36 L103.375,18.234375 L106.09375,18.234375 L106.09375,26.109375 L106.140625,26.109375 C107.070317,24.515617 108.429679,23.71875 110.21875,23.71875 C111.734383,23.71875 112.919918,24.255854 113.775391,25.3300781 C114.630864,26.4043022 115.058594,27.843741 115.058594,29.6484375 C115.058594,31.65626 114.57813,33.2636658 113.617188,34.4707031 C112.656245,35.6777404 111.343758,36.28125 109.679688,36.28125 C108.11718,36.28125 106.937504,35.6093817 106.140625,34.265625 Z M106.070312,29.4960938 L106.070312,30.984375 C106.070312,31.8593794 106.349607,32.6015595 106.908203,33.2109375 C107.4668,33.8203155 108.175777,34.125 109.035156,34.125 C110.042974,34.125 110.833982,33.7324258 111.408203,32.9472656 C111.982425,32.1621054 112.269531,31.0664133 112.269531,29.6601562 C112.269531,28.4804629 112.001956,27.556644 111.466797,26.8886719 C110.931638,26.2206998 110.207036,25.8867188 109.292969,25.8867188 C108.324214,25.8867188 107.544925,26.2304653 106.955078,26.9179688 C106.365231,27.6054722 106.070312,28.4648386 106.070312,29.4960938 Z M124.796875,26.5898438 C124.468748,26.33203 123.996097,26.203125 123.378906,26.203125 C122.574215,26.203125 121.902346,26.5664026 121.363281,27.2929688 C120.824216,28.0195349 120.554688,29.0078063 120.554688,30.2578125 L120.554688,36 L117.835938,36 L117.835938,24 L120.554688,24 L120.554688,26.4726562 L120.601562,26.4726562 C120.867189,25.628902 121.275388,24.9707055 121.826172,24.4980469 C122.376956,24.0253883 122.992184,23.7890625 123.671875,23.7890625 C124.164065,23.7890625 124.539061,23.8632805 124.796875,24.0117188 L124.796875,26.5898438 Z M128.089844,21.4804688 C127.644529,21.4804688 127.263673,21.3359389 126.947266,21.046875 C126.630858,20.7578111 126.472656,20.3906272 126.472656,19.9453125 C126.472656,19.4999978 126.630858,19.1289077 126.947266,18.8320312 C127.263673,18.5351548 127.644529,18.3867188 128.089844,18.3867188 C128.550784,18.3867188 128.941405,18.5351548 129.261719,18.8320312 C129.582033,19.1289077 129.742188,19.4999978 129.742188,19.9453125 C129.742188,20.3671896 129.582033,20.7285141 129.261719,21.0292969 C128.941405,21.3300796 128.550784,21.4804688 128.089844,21.4804688 Z M129.4375,36 L126.71875,36 L126.71875,24 L129.4375,24 L129.4375,36 Z M141.578125,35.4492188 C140.617183,36.003909 139.480475,36.28125 138.167969,36.28125 C136.38671,36.28125 134.949224,35.7246149 133.855469,34.6113281 C132.761713,33.4980413 132.214844,32.0546964 132.214844,30.28125 C132.214844,28.3046776 132.802728,26.7168029 133.978516,25.5175781 C135.154303,24.3183534 136.726553,23.71875 138.695312,23.71875 C139.789068,23.71875 140.753902,23.9101543 141.589844,24.2929688 L141.589844,26.8242188 C140.753902,26.1992156 139.863286,25.8867188 138.917969,25.8867188 C137.769526,25.8867188 136.828129,26.2753867 136.09375,27.0527344 C135.359371,27.830082 134.992188,28.84765 134.992188,30.1054688 C134.992188,31.3476625 135.337887,32.3281214 136.029297,33.046875 C136.720707,33.7656286 137.648432,34.125 138.8125,34.125 C139.789067,34.125 140.710933,33.7773472 141.578125,33.0820312 L141.578125,35.4492188 Z M153.484375,36 L150.847656,36 L150.847656,34.125 L150.800781,34.125 C149.972652,35.5625072 148.757821,36.28125 147.15625,36.28125 C145.976557,36.28125 145.052738,35.9609407 144.384766,35.3203125 C143.716794,34.6796843 143.382812,33.8320365 143.382812,32.7773438 C143.382812,30.5117074 144.687487,29.1914081 147.296875,28.8164062 L150.859375,28.3125 C150.859375,26.6015539 150.046883,25.7460938 148.421875,25.7460938 C146.99218,25.7460938 145.703131,26.2382763 144.554688,27.2226562 L144.554688,24.84375 C145.820319,24.0937463 147.281242,23.71875 148.9375,23.71875 C151.968765,23.71875 153.484375,25.2109226 153.484375,28.1953125 L153.484375,36 Z M150.859375,30.1054688 L148.339844,30.4570312 C147.55859,30.5585943 146.970705,30.7480455 146.576172,31.0253906 C146.181639,31.3027358 145.984375,31.789059 145.984375,32.484375 C145.984375,32.99219 146.166014,33.4082015 146.529297,33.7324219 C146.89258,34.0566422 147.378903,34.21875 147.988281,34.21875 C148.81641,34.21875 149.50195,33.9277373 150.044922,33.3457031 C150.587893,32.763669 150.859375,32.0312544 150.859375,31.1484375 L150.859375,30.1054688 Z M163.128906,35.8710938 C162.597654,36.1367201 161.898442,36.2695312 161.03125,36.2695312 C158.703113,36.2695312 157.539062,35.1523549 157.539062,32.9179688 L157.539062,26.1328125 L155.535156,26.1328125 L155.535156,24 L157.539062,24 L157.539062,21.2226562 L160.257812,20.4492188 L160.257812,24 L163.128906,24 L163.128906,26.1328125 L160.257812,26.1328125 L160.257812,32.1328125 C160.257812,32.8437536 160.386717,33.351561 160.644531,33.65625 C160.902345,33.960939 161.332028,34.1132812 161.933594,34.1132812 C162.394534,34.1132812 162.792967,33.9804701 163.128906,33.7148438 L163.128906,35.8710938 Z M170.792969,36.28125 C168.941397,36.28125 167.462896,35.7207087 166.357422,34.5996094 C165.251948,33.47851 164.699219,31.9921968 164.699219,30.140625 C164.699219,28.1249899 165.275385,26.5507869 166.427734,25.4179688 C167.580084,24.2851506 169.132803,23.71875 171.085938,23.71875 C172.960947,23.71875 174.42187,24.2695257 175.46875,25.3710938 C176.51563,26.4726618 177.039062,27.9999902 177.039062,29.953125 C177.039062,31.8671971 176.474615,33.4003849 175.345703,34.5527344 C174.216791,35.7050839 172.699228,36.28125 170.792969,36.28125 Z M170.921875,25.8867188 C169.85937,25.8867188 169.019534,26.2578088 168.402344,27 C167.785153,27.7421912 167.476562,28.7656185 167.476562,30.0703125 C167.476562,31.3281313 167.789059,32.3183558 168.414062,33.0410156 C169.039066,33.7636755 169.874995,34.125 170.921875,34.125 C171.992193,34.125 172.81445,33.7695348 173.388672,33.0585938 C173.962893,32.3476527 174.25,31.3359441 174.25,30.0234375 C174.25,28.7031184 173.962893,27.6835973 173.388672,26.9648438 C172.81445,26.2460902 171.992193,25.8867188 170.921875,25.8867188 Z M186.765625,26.5898438 C186.437498,26.33203 185.964847,26.203125 185.347656,26.203125 C184.542965,26.203125 183.871096,26.5664026 183.332031,27.2929688 C182.792966,28.0195349 182.523438,29.0078063 182.523438,30.2578125 L182.523438,36 L179.804688,36 L179.804688,24 L182.523438,24 L182.523438,26.4726562 L182.570312,26.4726562 C182.835939,25.628902 183.244138,24.9707055 183.794922,24.4980469 C184.345706,24.0253883 184.960934,23.7890625 185.640625,23.7890625 C186.132815,23.7890625 186.507811,23.8632805 186.765625,24.0117188 L186.765625,26.5898438 Z" id="Phabricator" fill="#567EB0"></path>
                            <ellipse id="Oval" fill="#5D7EAC" fill-rule="nonzero" cx="26.5" cy="29" rx="4.38489209" ry="4.34645669"></ellipse>
                            <path d="M26.5,45.4409449 C13.9172662,45.4409449 4.1942446,35.2362205 0.095323741,29 C4.1942446,22.7637795 13.9172662,12.5590551 26.5,12.5590551 C39.0827338,12.5590551 48.8057554,22.7637795 52.9046763,29 C48.8057554,35.2362205 39.0827338,45.4409449 26.5,45.4409449 Z" id="Shape" stroke="#5D7EAC" stroke-width="2.625"></path>
                            <ellipse id="Oval" stroke="#5D7EAC" stroke-width="3.5625" cx="26.5" cy="29" rx="9.0557554" ry="8.97637795"></ellipse>
                        </g>
                    </g>
                </g>
            </g>
        </g>
    </g>
</svg>