<?xml version="1.0" encoding="UTF-8"?>
<svg width="1440px" height="1440px" viewBox="0 0 1440 1440" version="1.1" xmlns="http://www.w3.org/2000/svg" xmlns:xlink="http://www.w3.org/1999/xlink">
    <!-- Generator: Sketch 43.1 (39012) - http://www.bohemiancoding.com/sketch -->
    <title>Page 1</title>
    <desc>Created with Sketch.</desc>
    <defs>
        <polygon id="path-1" points="719.2656 0 0 0 0 1440 1438.5312 1440 1438.5312 0 719.2656 0"></polygon>
        <polygon id="path-3" points="1440 57.6 1440 1440 51.8399712 1440 51.8399712 57.6"></polygon>
        <polygon id="path-5" points="1440 115.2 1440 1440 109.439971 1440 109.439971 115.2 1440 115.2"></polygon>
        <polygon id="path-7" points="1440 172.8 1440 1440 167.04 1440 167.04 172.8"></polygon>
        <polygon id="path-9" points="1440 230.4 1440 1440 224.64 1440 224.64 230.4"></polygon>
        <polygon id="path-11" points="1440 288 1440 1440 282.24 1440 282.24 288 1440 288"></polygon>
        <polygon id="path-13" points="1440 345.6 1440 1440 339.84 1440 339.84 345.6"></polygon>
        <polygon id="path-15" points="1440 403.2 1440 1440 397.44 1440 397.44 403.2"></polygon>
        <polygon id="path-17" points="1440 460.8 1440 1440 455.039856 1440 455.039856 460.8"></polygon>
        <polygon id="path-19" points="0 1386.72 0 0 1380.9312 0 1380.9312 1386.72 4.79616347e-14 1386.72"></polygon>
        <polygon id="path-21" points="1.27897692e-14 1329.12 1.27897692e-14 0 1323.3312 0 1323.3312 1329.12 0 1329.12"></polygon>
        <polygon id="path-23" points="3.83693077e-14 1271.52 3.83693077e-14 0 1265.7312 0 1265.7312 1271.52 0 1271.52"></polygon>
        <polygon id="path-25" points="0 1213.92 0 0 1208.1312 0 1208.1312 1213.92 5.1159077e-14 1213.92"></polygon>
        <polygon id="path-27" points="0 1156.32 0 0 1150.5312 0 1150.5312 1156.32"></polygon>
        <polygon id="path-29" points="5.1159077e-14 1098.72 5.1159077e-14 0 1092.9312 0 1092.9312 1098.72 0 1098.72"></polygon>
        <polygon id="path-31" points="0 1041.12 0 0 1035.3312 0 1035.3312 1041.12 8.95283847e-14 1041.12"></polygon>
        <polygon id="path-33" points="0 983.52 0 0 977.7312 0 977.7312 983.52 3.83693077e-14 983.52"></polygon>
        <polygon id="path-35" points="0 925.92 0 0 920.1312 0 920.1312 925.92 1.27897692e-14 925.92"></polygon>
        <polygon id="path-37" points="2.55795385e-14 868.32 2.55795385e-14 0 862.5312 0 862.5312 868.32 0 868.32"></polygon>
        <polygon id="path-39" points="5.1159077e-14 810.72 5.1159077e-14 0 804.9312 0 804.9312 810.72 0 810.72"></polygon>
        <polygon id="path-41" points="0 753.12 0 0 747.3312 0 747.3312 753.12"></polygon>
        <polygon id="path-43" points="0 695.52 0 0 689.7312 0 689.7312 695.52 0 695.52"></polygon>
        <polygon id="path-45" points="0 637.92 0 0 632.1312 0 632.1312 637.92"></polygon>
        <polygon id="path-47" points="0 580.32 0 0 574.5312 0 574.5312 580.32 2.55795385e-14 580.32"></polygon>
        <polygon id="path-49" points="0 522.72 0 0 516.9312 0 516.9312 522.72 7.67386155e-14 522.72"></polygon>
        <polygon id="path-51" points="0 465.12 0 0 459.3312 2.04636308e-13 459.3312 465.12 6.39488462e-14 465.12"></polygon>
        <polygon id="path-53" points="0 407.52 0 0 401.7312 0 401.7312 407.52 5.1159077e-14 407.52"></polygon>
    </defs>
    <g id="Page-1" stroke="none" stroke-width="1" fill="none" fill-rule="evenodd" opacity="0.25">
        <g transform="translate(720.000000, 719.500000) rotate(90.000000) translate(-720.000000, -719.500000) translate(0.500000, -0.500000)">
            <mask id="mask-2" fill="white">
                <use xlink:href="#path-1"></use>
            </mask>
            <g id="Clip-2"></g>
            <path d="M1438.5312,0 C1438.5312,797.7312 792,1444.32 -5.78880576,1444.32" id="Stroke-1" stroke="#3E5779" stroke-width="2" mask="url(#mask-2)"></path>
            <mask id="mask-4" fill="white">
                <use xlink:href="#path-3"></use>
            </mask>
            <g id="Clip-5"></g>
            <path d="M1496.16,57.6 C1496.16,855.3312 849.6288,1501.92 51.8399712,1501.92" id="Stroke-4" stroke="#3E5779" stroke-width="2" mask="url(#mask-4)"></path>
            <mask id="mask-6" fill="white">
                <use xlink:href="#path-5"></use>
            </mask>
            <g id="Clip-8"></g>
            <path d="M1553.76,115.2 C1553.76,912.9312 907.2288,1559.52 109.439971,1559.52" id="Stroke-7" stroke="#3E5779" stroke-width="2" mask="url(#mask-6)"></path>
            <mask id="mask-8" fill="white">
                <use xlink:href="#path-7"></use>
            </mask>
            <g id="Clip-11"></g>
            <path d="M1611.36,172.8 C1611.36,970.5312 964.8288,1617.12 167.04,1617.12" id="Stroke-10" stroke="#3E5779" stroke-width="2" mask="url(#mask-8)"></path>
            <mask id="mask-10" fill="white">
                <use xlink:href="#path-9"></use>
            </mask>
            <g id="Clip-14"></g>
            <path d="M1668.96,230.4 C1668.96,1028.1312 1022.4288,1674.72 224.64,1674.72" id="Stroke-13" stroke="#3E5779" stroke-width="2" mask="url(#mask-10)"></path>
            <mask id="mask-12" fill="white">
                <use xlink:href="#path-11"></use>
            </mask>
            <g id="Clip-17"></g>
            <path d="M1726.56,288 C1726.56,1085.7312 1080.0288,1732.32 282.24,1732.32" id="Stroke-16" stroke="#3E5779" stroke-width="2" mask="url(#mask-12)"></path>
            <mask id="mask-14" fill="white">
                <use xlink:href="#path-13"></use>
            </mask>
            <g id="Clip-20"></g>
            <path d="M1784.16,345.6 C1784.16,1143.3312 1137.6288,1789.92 339.84,1789.92" id="Stroke-19" stroke="#3E5779" stroke-width="2" mask="url(#mask-14)"></path>
            <mask id="mask-16" fill="white">
                <use xlink:href="#path-15"></use>
            </mask>
            <g id="Clip-23"></g>
            <path d="M1841.76,403.2 C1841.76,1200.9312 1195.2288,1847.52 397.44,1847.52" id="Stroke-22" stroke="#3E5779" stroke-width="2" mask="url(#mask-16)"></path>
            <mask id="mask-18" fill="white">
                <use xlink:href="#path-17"></use>
            </mask>
            <g id="Clip-26"></g>
            <path d="M1899.36,460.8 C1899.36,1258.5312 1252.8288,1905.12 455.039856,1905.12" id="Stroke-25" stroke="#3E5779" stroke-width="2" mask="url(#mask-18)"></path>
            <mask id="mask-20" fill="white">
                <use xlink:href="#path-19"></use>
            </mask>
            <g id="Clip-29"></g>
            <path d="M1380.9312,-57.6 C1380.9312,740.1312 734.4,1386.72 -63.3888,1386.72" id="Stroke-28" stroke="#3E5779" stroke-width="2" mask="url(#mask-20)"></path>
            <mask id="mask-22" fill="white">
                <use xlink:href="#path-21"></use>
            </mask>
            <g id="Clip-32"></g>
            <path d="M1323.3312,-115.2 C1323.3312,682.5312 676.8,1329.12 -120.9888,1329.12" id="Stroke-31" stroke="#3E5779" stroke-width="2" mask="url(#mask-22)"></path>
            <mask id="mask-24" fill="white">
                <use xlink:href="#path-23"></use>
            </mask>
            <g id="Clip-35"></g>
            <path d="M1265.7312,-172.8 C1265.7312,624.9312 619.2,1271.52 -178.5888,1271.52" id="Stroke-34" stroke="#3E5779" stroke-width="2" mask="url(#mask-24)"></path>
            <mask id="mask-26" fill="white">
                <use xlink:href="#path-25"></use>
            </mask>
            <g id="Clip-38"></g>
            <path d="M1208.1312,-230.4 C1208.1312,567.3312 561.6,1213.92 -236.1888,1213.92" id="Stroke-37" stroke="#3E5779" stroke-width="2" mask="url(#mask-26)"></path>
            <mask id="mask-28" fill="white">
                <use xlink:href="#path-27"></use>
            </mask>
            <g id="Clip-41"></g>
            <path d="M1150.5312,-288 C1150.5312,509.7312 504,1156.32 -293.7888,1156.32" id="Stroke-40" stroke="#3E5779" stroke-width="2" mask="url(#mask-28)"></path>
            <mask id="mask-30" fill="white">
                <use xlink:href="#path-29"></use>
            </mask>
            <g id="Clip-44"></g>
            <path d="M1092.9312,-345.6 C1092.9312,452.1312 446.4,1098.72 -351.3888,1098.72" id="Stroke-43" stroke="#3E5779" stroke-width="2" mask="url(#mask-30)"></path>
            <mask id="mask-32" fill="white">
                <use xlink:href="#path-31"></use>
            </mask>
            <g id="Clip-47"></g>
            <path d="M1035.3312,-403.2 C1035.3312,394.5312 388.8,1041.12 -408.9888,1041.12" id="Stroke-46" stroke="#3E5779" stroke-width="2" mask="url(#mask-32)"></path>
            <mask id="mask-34" fill="white">
                <use xlink:href="#path-33"></use>
            </mask>
            <g id="Clip-50"></g>
            <path d="M977.7312,-460.8 C977.7312,336.9312 331.2,983.52 -466.5888,983.52" id="Stroke-49" stroke="#3E5779" stroke-width="2" mask="url(#mask-34)"></path>
            <mask id="mask-36" fill="white">
                <use xlink:href="#path-35"></use>
            </mask>
            <g id="Clip-53"></g>
            <path d="M920.1312,-518.4 C920.1312,279.3312 273.6,925.92 -524.1888,925.92" id="Stroke-52" stroke="#3E5779" stroke-width="2" mask="url(#mask-36)"></path>
            <mask id="mask-38" fill="white">
                <use xlink:href="#path-37"></use>
            </mask>
            <g id="Clip-56"></g>
            <path d="M862.5312,-576 C862.5312,221.7312 216,868.32 -581.7888,868.32" id="Stroke-55" stroke="#3E5779" stroke-width="2" mask="url(#mask-38)"></path>
            <mask id="mask-40" fill="white">
                <use xlink:href="#path-39"></use>
            </mask>
            <g id="Clip-59"></g>
            <path d="M804.9312,-633.6 C804.9312,164.1312 158.4,810.72 -639.3888,810.72" id="Stroke-58" stroke="#3E5779" stroke-width="2" mask="url(#mask-40)"></path>
            <mask id="mask-42" fill="white">
                <use xlink:href="#path-41"></use>
            </mask>
            <g id="Clip-62"></g>
            <path d="M747.3312,-691.2 C747.3312,106.531186 100.8,753.12 -696.9888,753.12" id="Stroke-61" stroke="#3E5779" stroke-width="2" mask="url(#mask-42)"></path>
            <mask id="mask-44" fill="white">
                <use xlink:href="#path-43"></use>
            </mask>
            <g id="Clip-65"></g>
            <path d="M689.7312,-748.8 C689.7312,48.9311856 43.2,695.52 -754.5888,695.52" id="Stroke-64" stroke="#3E5779" stroke-width="2" mask="url(#mask-44)"></path>
            <mask id="mask-46" fill="white">
                <use xlink:href="#path-45"></use>
            </mask>
            <g id="Clip-68"></g>
            <path d="M632.1312,-806.4 C632.1312,-8.66881728 -14.4,637.92 -812.1888,637.92" id="Stroke-67" stroke="#3E5779" stroke-width="2" mask="url(#mask-46)"></path>
            <mask id="mask-48" fill="white">
                <use xlink:href="#path-47"></use>
            </mask>
            <g id="Clip-71"></g>
            <path d="M574.5312,-864 C574.5312,-66.2688144 -72,580.32 -869.7888,580.32" id="Stroke-70" stroke="#3E5779" stroke-width="2" mask="url(#mask-48)"></path>
            <mask id="mask-50" fill="white">
                <use xlink:href="#path-49"></use>
            </mask>
            <g id="Clip-74"></g>
            <path d="M516.9312,-921.6 C516.9312,-123.868814 -129.6,522.72 -927.3888,522.72" id="Stroke-73" stroke="#3E5779" stroke-width="2" mask="url(#mask-50)"></path>
            <mask id="mask-52" fill="white">
                <use xlink:href="#path-51"></use>
            </mask>
            <g id="Clip-77"></g>
            <path d="M459.3312,-979.2 C459.3312,-181.4688 -187.2,465.12 -984.9888,465.12" id="Stroke-76" stroke="#3E5779" stroke-width="2" mask="url(#mask-52)"></path>
            <mask id="mask-54" fill="white">
                <use xlink:href="#path-53"></use>
            </mask>
            <g id="Clip-80"></g>
            <path d="M401.7312,-1036.8 C401.7312,-239.0688 -244.8,407.52 -1042.5888,407.52" id="Stroke-79" stroke="#3E5779" stroke-width="2" mask="url(#mask-54)"></path>
        </g>
    </g>
</svg>