<svg viewBox="0 0 1440 1440" xmlns="http://www.w3.org/2000/svg" xmlns:xlink="http://www.w3.org/1999/xlink"><defs><path id="a" d="M719.27 0H0v1440h1438.53V0H719.26z"/><path id="c" d="M1389 .6V1383H.84V.6z"/><path id="e" d="M1331 .2V1325H.44V.2H1331z"/><path id="g" d="M1273 .8V1268H.04V.8z"/><path id="i" d="M1216 .4V1210H.64V.4z"/><path id="k" d="M1158 0v1152H.24V0z"/><path id="m" d="M1101 .6V1095H.84V.6z"/><path id="o" d="M1043 .2V1037H.44V.2z"/><path id="q" d="M985 .8V980H.04V.8z"/><path id="s" d="M0 1386.72V0h1380.93v1386.72z"/><path id="u" d="M0 1329.12V0h1323.33v1329.12z"/><path id="w" d="M0 1271.52V0h1265.73v1271.52z"/><path id="y" d="M0 1213.92V0h1208.13v1213.92z"/><path id="A" d="M0 1156.32V0h1150.53v1156.32z"/><path id="C" d="M0 1098.72V0h1092.93v1098.72z"/><path id="E" d="M0 1041.12V0h1035.33v1041.12z"/><path id="G" d="M0 983.52V0h977.73v983.52z"/><path id="I" d="M0 925.92V0h920.13v925.92z"/><path id="K" d="M0 868.32V0h862.53v868.32z"/><path id="M" d="M0 810.72V0h804.93v810.72z"/><path id="O" d="M0 753.12V0h747.33v753.12z"/><path id="Q" d="M0 695.52V0h689.73v695.52z"/><path id="S" d="M0 637.92V0h632.13v637.92z"/><path id="U" d="M0 580.32V0h574.53v580.32z"/><path id="W" d="M0 522.72V0h516.93v522.72z"/><path id="Y" d="M0 465.12V0h459.33v465.12z"/><path id="aa" d="M0 407.52V0h401.73v407.52z"/></defs><g fill="none" fill-rule="evenodd" opacity=".25"><g transform="rotate(90 720 720)"><mask id="b" fill="#fff"><use xlink:href="#a"/></mask><path d="M1438.53 0C1438.53 797.73 792 1444.32-5.8 1444.32" stroke="#3E5779" stroke-width="2" mask="url(#b)"/></g><g transform="rotate(90 666 717)"><mask id="d" fill="#fff"><use xlink:href="#c"/></mask><path d="M1445.16.6c0 797.73-646.53 1444.32-1444.32 1444.32" stroke="#3E5779" stroke-width="2" mask="url(#d)"/></g><g transform="rotate(90 608 717)"><mask id="f" fill="#fff"><use xlink:href="#e"/></mask><path d="M1444.76.2c0 797.73-646.53 1444.32-1444.32 1444.32" stroke="#3E5779" stroke-width="2" mask="url(#f)"/></g><g transform="rotate(90 550.5 717.5)"><mask id="h" fill="#fff"><use xlink:href="#g"/></mask><path d="M1444.36.8c0 797.73-646.53 1444.32-1444.32 1444.32" stroke="#3E5779" stroke-width="2" mask="url(#h)"/></g><g transform="rotate(90 493 717)"><mask id="j" fill="#fff"><use xlink:href="#i"/></mask><path d="M1444.96.4c0 797.73-646.53 1444.32-1444.32 1444.32" stroke="#3E5779" stroke-width="2" mask="url(#j)"/></g><g transform="rotate(90 435 717)"><mask id="l" fill="#fff"><use xlink:href="#k"/></mask><path d="M1444.56 0c0 797.73-646.53 1444.32-1444.32 1444.32" stroke="#3E5779" stroke-width="2" mask="url(#l)"/></g><g transform="rotate(90 378 717)"><mask id="n" fill="#fff"><use xlink:href="#m"/></mask><path d="M1445.16.6c0 797.73-646.53 1444.32-1444.32 1444.32" stroke="#3E5779" stroke-width="2" mask="url(#n)"/></g><g transform="rotate(90 320 717)"><mask id="p" fill="#fff"><use xlink:href="#o"/></mask><path d="M1444.76.2c0 797.73-646.53 1444.32-1444.32 1444.32" stroke="#3E5779" stroke-width="2" mask="url(#p)"/></g><g transform="rotate(90 262.5 717.5)"><mask id="r" fill="#fff"><use xlink:href="#q"/></mask><path d="M1444.36.8c0 797.73-646.53 1444.32-1444.32 1444.32" stroke="#3E5779" stroke-width="2" mask="url(#r)"/></g><g transform="rotate(90 720 720)"><mask id="t" fill="#fff"><use xlink:href="#s"/></mask><path d="M1380.93-57.6c0 797.73-646.53 1444.32-1444.32 1444.32" stroke="#3E5779" stroke-width="2" mask="url(#t)"/></g><g transform="rotate(90 720 720)"><mask id="v" fill="#fff"><use xlink:href="#u"/></mask><path d="M1323.33-115.2c0 797.73-646.53 1444.32-1444.32 1444.32" stroke="#3E5779" stroke-width="2" mask="url(#v)"/></g><g transform="rotate(90 720 720)"><mask id="x" fill="#fff"><use xlink:href="#w"/></mask><path d="M1265.73-172.8c0 797.73-646.53 1444.32-1444.32 1444.32" stroke="#3E5779" stroke-width="2" mask="url(#x)"/></g><g transform="rotate(90 720 720)"><mask id="z" fill="#fff"><use xlink:href="#y"/></mask><path d="M1208.13-230.4c0 797.73-646.53 1444.32-1444.32 1444.32" stroke="#3E5779" stroke-width="2" mask="url(#z)"/></g><g transform="rotate(90 720 720)"><mask id="B" fill="#fff"><use xlink:href="#A"/></mask><path d="M1150.53-288c0 797.73-646.53 1444.32-1444.32 1444.32" stroke="#3E5779" stroke-width="2" mask="url(#B)"/></g><g transform="rotate(90 720 720)"><mask id="D" fill="#fff"><use xlink:href="#C"/></mask><path d="M1092.93-345.6c0 797.73-646.53 1444.32-1444.32 1444.32" stroke="#3E5779" stroke-width="2" mask="url(#D)"/></g><g transform="rotate(90 720 720)"><mask id="F" fill="#fff"><use xlink:href="#E"/></mask><path d="M1035.33-403.2c0 797.73-646.53 1444.32-1444.32 1444.32" stroke="#3E5779" stroke-width="2" mask="url(#F)"/></g><g transform="rotate(90 720 720)"><mask id="H" fill="#fff"><use xlink:href="#G"/></mask><path d="M977.73-460.8c0 797.73-646.53 1444.32-1444.32 1444.32" stroke="#3E5779" stroke-width="2" mask="url(#H)"/></g><g transform="rotate(90 720 720)"><mask id="J" fill="#fff"><use xlink:href="#I"/></mask><path d="M920.13-518.4c0 797.73-646.53 1444.32-1444.32 1444.32" stroke="#3E5779" stroke-width="2" mask="url(#J)"/></g><g transform="rotate(90 720 720)"><mask id="L" fill="#fff"><use xlink:href="#K"/></mask><path d="M862.53-576C862.53 221.73 216 868.32-581.8 868.32" stroke="#3E5779" stroke-width="2" mask="url(#L)"/></g><g transform="rotate(90 720 720)"><mask id="N" fill="#fff"><use xlink:href="#M"/></mask><path d="M804.93-633.6c0 797.73-646.53 1444.32-1444.32 1444.32" stroke="#3E5779" stroke-width="2" mask="url(#N)"/></g><g transform="rotate(90 720 720)"><mask id="P" fill="#fff"><use xlink:href="#O"/></mask><path d="M747.33-691.2C747.33 106.53 100.8 753.12-697 753.12" stroke="#3E5779" stroke-width="2" mask="url(#P)"/></g><g transform="rotate(90 720 720)"><mask id="R" fill="#fff"><use xlink:href="#Q"/></mask><path d="M689.73-748.8C689.73 48.93 43.2 695.52-754.6 695.52" stroke="#3E5779" stroke-width="2" mask="url(#R)"/></g><g transform="rotate(90 720 720)"><mask id="T" fill="#fff"><use xlink:href="#S"/></mask><path d="M632.13-806.4C632.13-8.67-14.4 637.92-812.2 637.92" stroke="#3E5779" stroke-width="2" mask="url(#T)"/></g><g transform="rotate(90 720 720)"><mask id="V" fill="#fff"><use xlink:href="#U"/></mask><path d="M574.53-864C574.53-66.27-72 580.32-869.8 580.32" stroke="#3E5779" stroke-width="2" mask="url(#V)"/></g><g transform="rotate(90 720 720)"><mask id="X" fill="#fff"><use xlink:href="#W"/></mask><path d="M516.93-921.6c0 797.73-646.53 1444.32-1444.32 1444.32" stroke="#3E5779" stroke-width="2" mask="url(#X)"/></g><g transform="rotate(90 720 720)"><mask id="Z" fill="#fff"><use xlink:href="#Y"/></mask><path d="M459.33-979.2C459.33-181.47-187.2 465.12-985 465.12" stroke="#3E5779" stroke-width="2" mask="url(#Z)"/></g><g transform="rotate(90 720 720)"><mask id="ab" fill="#fff"><use xlink:href="#aa"/></mask><path d="M401.73-1036.8c0 797.73-646.53 1444.32-1444.32 1444.32" stroke="#3E5779" stroke-width="2" mask="url(#ab)"/></g></g></svg>