<?xml version="1.0" encoding="utf-8"?>
<!-- Generator: Adobe Illustrator 25.2.1, SVG Export Plug-In . SVG Version: 6.00 Build 0)  -->
<svg version="1.1" id="Layer_1" xmlns="http://www.w3.org/2000/svg" xmlns:xlink="http://www.w3.org/1999/xlink" x="0px"
     y="0px"
     viewBox="0 0 53.4 55.5" style="enable-background:new 0 0 53.4 55.5;" xml:space="preserve">
<style type="text/css">
	.st0{fill:#FFFFFF;}
	.st1{fill:#FF5543;}
	.st2{fill:#A112FF;}
	.st3{fill:#00CBEC;}
</style>
    <g>
	<g>
		<path class="st0" d="M39.3,10.2c0.7-0.6,1.5-1,2.4-1.1c1.7-0.3,3.6,0.3,4.8,1.7c1.8,2.2,1.6,5.4-0.6,7.2l-7.6,6.5l-5.6-2l-2.1-0.7
			l-3.5-1.2l2.8-2.4l1.7-1.4L39.3,10.2z"/>
        <path class="st0" d="M13.9,45.3c-0.7,0.6-1.5,1-2.4,1.1c-1.7,0.3-3.6-0.3-4.8-1.7c-1.8-2.2-1.6-5.4,0.6-7.2l7.6-6.5l5.6,2l2.1,0.7
			L26,35l-2.8,2.4l-1.7,1.4L13.9,45.3z"/>
	</g>
        <g>
		<path class="st0" d="M17.7,7.9c-0.5-2.8,1.3-5.5,4.1-6s5.5,1.3,6,4.1l1.8,9.8l-4.5,3.8l-5.6-2L17.7,7.9z"/>
            <path class="st0"
                  d="M35.5,47.5c0.5,2.8-1.3,5.5-4.1,6c-2.8,0.5-5.5-1.3-6-4.1l-1.8-9.8l4.5-3.8l5.6,2L35.5,47.5z"/>
	</g>
        <path class="st0" d="M51.3,36.5c-0.6,1.8-2.2,3-3.9,3.3c-0.9,0.2-1.8,0.1-2.6-0.2l-9.4-3.3l-2.1-0.7l-3.5-1.2l-2.1-0.7l-5.6-2
		L20,30.8l-3.5-1.2l-2.1-0.7L5,25.5C2.3,24.6,1,21.6,1.9,19c0.6-1.8,2.2-3,3.9-3.3c0.9-0.2,1.8-0.1,2.6,0.2l9.4,3.3l2.1,0.7l3.5,1.2
		l2.1,0.7l5.6,2l2.1,0.7l3.5,1.2l2.1,0.7l9.4,3.3C50.9,30.9,52.3,33.8,51.3,36.5z"/>
</g>
</svg>
