<svg width="55" height="50" viewBox="0 0 55 50" fill="none" xmlns="http://www.w3.org/2000/svg">
<g id="Cody Logo">
<path id="Vector 16 (Stroke)" fill-rule="evenodd" clip-rule="evenodd" d="M40.8881 0.181152C43.6858 0.181152 45.9539 2.45217 45.9539 5.25362L45.9539 16.8478C45.9539 19.6493 43.6858 21.9203 40.8881 21.9203C38.0903 21.9203 35.8223 19.6493 35.8223 16.8478L35.8223 5.25362C35.8223 2.45217 38.0903 0.181152 40.8881 0.181152Z" fill="#FF5543"/>
<path id="Vector 18 (Stroke)" fill-rule="evenodd" clip-rule="evenodd" d="M3.25659 13.2246C3.25659 10.4231 5.52462 8.1521 8.32238 8.1521L19.9013 8.1521C22.6991 8.1521 24.9671 10.4231 24.9671 13.2246C24.9671 16.026 22.6991 18.297 19.9013 18.297L8.32238 18.297C5.52462 18.297 3.25659 16.026 3.25659 13.2246Z" fill="#A112FF"/>
<path id="Vector 17 (Stroke)" fill-rule="evenodd" clip-rule="evenodd" d="M9.09754 31.5301C7.41353 29.313 4.25531 28.8695 2.02637 30.5434C-0.211837 32.2242 -0.665443 35.4036 1.01321 37.6448L5.06584 34.6013C1.01321 37.6448 1.01463 37.6467 1.01609 37.6486L1.01914 37.6527L1.02581 37.6616L1.04137 37.6821C1.05272 37.697 1.06604 37.7144 1.08134 37.7342C1.11192 37.7738 1.15041 37.823 1.19679 37.8811C1.28952 37.9974 1.41401 38.1496 1.57024 38.3327C1.88242 38.6985 2.32309 39.1892 2.89221 39.7625C4.0277 40.9063 5.69217 42.3963 7.88632 43.8787C12.2905 46.8541 18.8685 49.8187 27.5001 49.8187C36.1317 49.8187 42.7097 46.8541 47.1138 43.8787C49.3079 42.3963 50.9724 40.9063 52.1079 39.7625C52.677 39.1892 53.1177 38.6985 53.4299 38.3327C53.5861 38.1496 53.7106 37.9974 53.8033 37.8811C53.8497 37.823 53.8882 37.7738 53.9188 37.7342C53.9341 37.7144 53.9474 37.697 53.9587 37.6821L53.9743 37.6616L53.981 37.6527L53.984 37.6486C53.9855 37.6467 53.9869 37.6448 49.9343 34.6013L53.9869 37.6448C55.6656 35.4036 55.2119 32.2242 52.9737 30.5434C50.7448 28.8695 47.5866 29.313 45.9026 31.5301C45.8997 31.5337 45.8946 31.5402 45.8873 31.5494C45.8615 31.5818 45.8082 31.6475 45.7277 31.7418C45.5664 31.9308 45.2975 32.2326 44.9224 32.6104C44.1696 33.3688 43.0071 34.415 41.4472 35.4689C38.3431 37.566 33.704 39.6738 27.5001 39.6738C21.2961 39.6738 16.657 37.566 13.5529 35.4689C11.993 34.415 10.8305 33.3688 10.0777 32.6104C9.70262 32.2326 9.43373 31.9308 9.27241 31.7418C9.19188 31.6475 9.13863 31.5818 9.11282 31.5494C9.1055 31.5402 9.10041 31.5338 9.09754 31.5301ZM45.8875 31.55L45.8869 31.5509L45.8843 31.5542C45.883 31.556 45.8817 31.5578 49.8036 34.5032L45.8816 31.5578C45.8836 31.5552 45.8856 31.5526 45.8875 31.55Z" fill="#00CBEC"/>
</g>
</svg>
