<svg fill="currentColor" viewBox="0 0 16 16" xmlns="http://www.w3.org/2000/svg">
    <path
        fill-rule="evenodd"
        clip-rule="evenodd"
        d="M13 1.25H3C2.0335 1.25 1.25 2.0335 1.25 3V13C1.25 13.9665 2.0335 14.75 3 14.75H13C13.9665 14.75 14.75 13.9665 14.75 13V3C14.75 2.0335 13.9665 1.25 13 1.25ZM3 0C1.34315 0 0 1.34315 0 3V13C0 14.6569 1.34315 16 3 16H13C14.6569 16 16 14.6569 16 13V3C16 1.34315 14.6569 0 13 0H3Z"
    />
    <path
        d="M10.4727 11.0938C9.25781 11.0938 8.49219 10.3555 8.49219 9.17969V8.51562C8.49219 7.33984 9.25781 6.60156 10.4727 6.60156C11.6875 6.60156 12.4531 7.33984 12.4531 8.51562V9.17969C12.4531 10.3555 11.6875 11.0938 10.4727 11.0938ZM10.4727 7.47656C9.89844 7.47656 9.54297 7.89062 9.54297 8.55859V9.13672C9.54297 9.80078 9.89844 10.2188 10.4727 10.2188C11.0469 10.2188 11.4023 9.80078 11.4023 9.13672V8.55859C11.4023 7.89062 11.0469 7.47656 10.4727 7.47656Z"
    />
    <path
        d="M5.74219 11H3.61719V5.36328H5.69141C6.77344 5.36328 7.42578 5.88672 7.42578 6.76562C7.42578 7.375 6.99609 7.88672 6.41016 7.97656V8.04297C7.16016 8.09766 7.69531 8.66406 7.69531 9.39453C7.69531 10.3828 6.94922 11 5.74219 11ZM4.70312 6.21875V7.68359H5.34375C5.95703 7.68359 6.30859 7.41797 6.30859 6.96484C6.30859 6.48047 5.98438 6.21875 5.39062 6.21875H4.70312ZM4.70312 10.1289H5.39844C6.17188 10.1289 6.53906 9.86719 6.53906 9.29688C6.53906 8.76172 6.15234 8.49609 5.39062 8.49609H4.70312V10.1289Z"
    />
</svg>
