<svg fill="currentColor" viewBox="0 0 16 16" xmlns="http://www.w3.org/2000/svg">
    <path
        fill-rule="evenodd"
        clip-rule="evenodd"
        d="M13 1.25H3C2.0335 1.25 1.25 2.0335 1.25 3V13C1.25 13.9665 2.0335 14.75 3 14.75H13C13.9665 14.75 14.75 13.9665 14.75 13V3C14.75 2.0335 13.9665 1.25 13 1.25ZM3 0C1.34315 0 0 1.34315 0 3V13C0 14.6569 1.34315 16 3 16H13C14.6569 16 16 14.6569 16 13V3C16 1.34315 14.6569 0 13 0H3Z"
    />
    <path
        d="M8.125 10.1172C8.70703 10.1172 9.07031 9.71094 9.08203 9.05469H10.207C10.207 10.332 9.41016 11.1133 8.12891 11.1133C6.73438 11.1133 5.91406 10.2422 5.91406 8.75781V7.60547C5.91406 6.12109 6.73438 5.25 8.12891 5.25C9.42578 5.25 10.1953 6.02734 10.2031 7.35938H9.07812C9.06641 6.68359 8.68359 6.24609 8.10938 6.24609C7.42578 6.24609 7.06641 6.71484 7.06641 7.60547V8.75781C7.06641 9.65234 7.42578 10.1172 8.125 10.1172Z"
    />
</svg>
