<svg fill="currentColor" viewBox="0 0 16 16" xmlns="http://www.w3.org/2000/svg">
    <path
        fill-rule="evenodd"
        clip-rule="evenodd"
        d="M13 1.25H3C2.0335 1.25 1.25 2.0335 1.25 3V13C1.25 13.9665 2.0335 14.75 3 14.75H13C13.9665 14.75 14.75 13.9665 14.75 13V3C14.75 2.0335 13.9665 1.25 13 1.25ZM3 0C1.34315 0 0 1.34315 0 3V13C0 14.6569 1.34315 16 3 16H13C14.6569 16 16 14.6569 16 13V3C16 1.34315 14.6569 0 13 0H3Z"
    />
    <path
        d="M8.73047 7.94922C8.73047 7.11328 9.40234 6.58984 10.4688 6.58984C11.5117 6.58984 12.1484 7.05859 12.1992 7.86719H11.1914C11.1406 7.58203 10.8594 7.40625 10.4609 7.40625C10.0547 7.40625 9.78516 7.58984 9.78516 7.86328C9.78516 8.09766 9.96484 8.23828 10.3828 8.32422L11.0508 8.46094C11.9219 8.64062 12.3086 9.01172 12.3086 9.66797C12.3086 10.5391 11.5977 11.0898 10.4766 11.0898C9.375 11.0898 8.69531 10.6172 8.63672 9.80859H9.69141C9.75781 10.1055 10.0469 10.2695 10.4922 10.2695C10.9297 10.2695 11.2109 10.0859 11.2109 9.80469C11.2109 9.5625 11.0469 9.44531 10.5938 9.34766L9.94922 9.21094C9.14062 9.03516 8.73047 8.61328 8.73047 7.94922Z"
    />
    <path
        d="M5.65234 10.1172C6.23438 10.1172 6.59766 9.71094 6.60938 9.05469H7.73438C7.73438 10.332 6.9375 11.1133 5.65625 11.1133C4.26172 11.1133 3.44141 10.2422 3.44141 8.75781V7.60547C3.44141 6.12109 4.26172 5.25 5.65625 5.25C6.95312 5.25 7.72266 6.02734 7.73047 7.35938H6.60547C6.59375 6.68359 6.21094 6.24609 5.63672 6.24609C4.95312 6.24609 4.59375 6.71484 4.59375 7.60547V8.75781C4.59375 9.65234 4.95312 10.1172 5.65234 10.1172Z"
    />
</svg>
