<svg fill="currentColor" viewBox="0 0 16 16" xmlns="http://www.w3.org/2000/svg">
    <path
        fill-rule="evenodd"
        clip-rule="evenodd"
        d="M13 1.25H3C2.0335 1.25 1.25 2.0335 1.25 3V13C1.25 13.9665 2.0335 14.75 3 14.75H13C13.9665 14.75 14.75 13.9665 14.75 13V3C14.75 2.0335 13.9665 1.25 13 1.25ZM3 0C1.34315 0 0 1.34315 0 3V13C0 14.6569 1.34315 16 3 16H13C14.6569 16 16 14.6569 16 13V3C16 1.34315 14.6569 0 13 0H3Z"
    />
    <path
        d="M10.4727 11.0938C9.25781 11.0938 8.49219 10.3555 8.49219 9.17969V8.51562C8.49219 7.33984 9.25781 6.60156 10.4727 6.60156C11.6875 6.60156 12.4531 7.33984 12.4531 8.51562V9.17969C12.4531 10.3555 11.6875 11.0938 10.4727 11.0938ZM10.4727 7.47656C9.89844 7.47656 9.54297 7.89062 9.54297 8.55859V9.13672C9.54297 9.80078 9.89844 10.2188 10.4727 10.2188C11.0469 10.2188 11.4023 9.80078 11.4023 9.13672V8.55859C11.4023 7.89062 11.0469 7.47656 10.4727 7.47656Z"
    />
    <path
        d="M5.65234 10.1172C6.23438 10.1172 6.59766 9.71094 6.60938 9.05469H7.73438C7.73438 10.332 6.9375 11.1133 5.65625 11.1133C4.26172 11.1133 3.44141 10.2422 3.44141 8.75781V7.60547C3.44141 6.12109 4.26172 5.25 5.65625 5.25C6.95312 5.25 7.72266 6.02734 7.73047 7.35938H6.60547C6.59375 6.68359 6.21094 6.24609 5.63672 6.24609C4.95312 6.24609 4.59375 6.71484 4.59375 7.60547V8.75781C4.59375 9.65234 4.95312 10.1172 5.65234 10.1172Z"
    />
</svg>
