<svg fill="currentColor" viewBox="0 0 16 16" xmlns="http://www.w3.org/2000/svg">
    <path
        fill-rule="evenodd"
        clip-rule="evenodd"
        d="M13 1.25H3C2.0335 1.25 1.25 2.0335 1.25 3V13C1.25 13.9665 2.0335 14.75 3 14.75H13C13.9665 14.75 14.75 13.9665 14.75 13V3C14.75 2.0335 13.9665 1.25 13 1.25ZM3 0C1.34315 0 0 1.34315 0 3V13C0 14.6569 1.34315 16 3 16H13C14.6569 16 16 14.6569 16 13V3C16 1.34315 14.6569 0 13 0H3Z"
    />
    <path
        d="M9.46484 8.77734V10.6367H8.53125V5H9.6875L10.6133 8.22656H10.6797L11.5977 5H12.7578V10.6367H11.8242V8.77734L11.9648 6.52734H11.8828L11.0195 9.3125H10.2695L9.40625 6.52734H9.32422L9.46484 8.77734Z"
    />
    <path d="M7.55469 9.67969V10.6367H4V5H7.55469V5.95703H5.11328V7.34375H7.41016V8.23047H5.11328V9.67969H7.55469Z" />
</svg>
