<svg fill="currentColor" viewBox="0 0 16 16" xmlns="http://www.w3.org/2000/svg">
    <path
        fill-rule="evenodd"
        clip-rule="evenodd"
        d="M13 1.25H3C2.0335 1.25 1.25 2.0335 1.25 3V13C1.25 13.9665 2.0335 14.75 3 14.75H13C13.9665 14.75 14.75 13.9665 14.75 13V3C14.75 2.0335 13.9665 1.25 13 1.25ZM3 0C1.34315 0 0 1.34315 0 3V13C0 14.6569 1.34315 16 3 16H13C14.6569 16 16 14.6569 16 13V3C16 1.34315 14.6569 0 13 0H3Z"
    />
    <path
        d="M8.36719 6.69141H9.51562L10.457 9.95703H10.5195L11.4492 6.69141H12.5781L11.0859 11H9.86719L8.36719 6.69141Z"
    />
    <path
        d="M7.38281 10.043V11H3.82812V5.36328H7.38281V6.32031H4.94141V7.70703H7.23828V8.59375H4.94141V10.043H7.38281Z"
    />
</svg>
