<svg fill="currentColor" viewBox="0 0 16 16" xmlns="http://www.w3.org/2000/svg">
    <path
        fill-rule="evenodd"
        clip-rule="evenodd"
        d="M13 1.25H3C2.0335 1.25 1.25 2.0335 1.25 3V13C1.25 13.9665 2.0335 14.75 3 14.75H13C13.9665 14.75 14.75 13.9665 14.75 13V3C14.75 2.0335 13.9665 1.25 13 1.25ZM3 0C1.34315 0 0 1.34315 0 3V13C0 14.6569 1.34315 16 3 16H13C14.6569 16 16 14.6569 16 13V3C16 1.34315 14.6569 0 13 0H3Z"
    />
    <path
        d="M9.99609 11.0664C9.01172 11.0664 8.42578 10.3867 8.42578 9.21484V8.47266C8.42578 7.30078 9.01172 6.62109 9.99609 6.62109C10.6172 6.62109 11.0469 6.91016 11.1914 7.42578H11.2695V5.05078H12.3867V11H11.2852V10.2578H11.2031C11.0547 10.7812 10.6289 11.0664 9.99609 11.0664ZM10.4102 10.1406C10.9609 10.1406 11.2969 9.77734 11.2969 9.18359V8.47266C11.2969 7.87891 10.9609 7.51953 10.4102 7.51953C9.85547 7.51953 9.51562 7.87891 9.51562 8.47266V9.18359C9.51562 9.77734 9.85547 10.1406 10.4102 10.1406Z"
    />
    <path d="M5.00781 11H3.89453V5.36328H7.45703V6.32031H5.00781V7.84766H7.23438V8.76562H5.00781V11Z" />
</svg>
