<svg viewBox="0 0 16 16" fill="none" xmlns="http://www.w3.org/2000/svg">
    <path
        fill-rule="evenodd"
        clip-rule="evenodd"
        d="M13 1.25H3C2.0335 1.25 1.25 2.0335 1.25 3V13C1.25 13.9665 2.0335 14.75 3 14.75H13C13.9665 14.75 14.75 13.9665 14.75 13V3C14.75 2.0335 13.9665 1.25 13 1.25ZM3 0C1.34315 0 0 1.34315 0 3V13C0 14.6569 1.34315 16 3 16H13C14.6569 16 16 14.6569 16 13V3C16 1.34315 14.6569 0 13 0H3Z"
        fill="currentColor"
    />
    <g clip-path="url(#clip0_3027_85654)">
        <path
            d="M11.9284 11.9286C11.9284 12.118 11.8531 12.2997 11.7192 12.4337C11.5853 12.5676 11.4036 12.6429 11.2141 12.6429H4.78557C4.59613 12.6429 4.41445 12.5676 4.2805 12.4337C4.14655 12.2997 4.07129 12.118 4.07129 11.9286V4.07146C4.07129 3.88202 4.14655 3.70034 4.2805 3.56639C4.41445 3.43243 4.59613 3.35718 4.78557 3.35718H9.42843L11.9284 5.85718V11.9286Z"
            stroke="#099268"
            stroke-linecap="round"
            stroke-linejoin="round"
        />
        <path
            d="M6.92857 10.5L5.5 9.07139L6.92857 7.64282"
            stroke="#099268"
            stroke-linecap="round"
            stroke-linejoin="round"
        />
        <path
            d="M9.07129 10.5L10.4999 9.07139L9.07129 7.64282"
            stroke="#099268"
            stroke-linecap="round"
            stroke-linejoin="round"
        />
    </g>
    <defs>
        <clipPath id="clip0_3027_85654">
            <rect width="10" height="10" fill="white" transform="translate(3 3)" />
        </clipPath>
    </defs>
</svg>
