<svg fill="currentColor" viewBox="0 0 16 16" xmlns="http://www.w3.org/2000/svg">
    <path
        fill-rule="evenodd"
        clip-rule="evenodd"
        d="M13 1.25H3C2.0335 1.25 1.25 2.0335 1.25 3V13C1.25 13.9665 2.0335 14.75 3 14.75H13C13.9665 14.75 14.75 13.9665 14.75 13V3C14.75 2.0335 13.9665 1.25 13 1.25ZM3 0C1.34315 0 0 1.34315 0 3V13C0 14.6569 1.34315 16 3 16H13C14.6569 16 16 14.6569 16 13V3C16 1.34315 14.6569 0 13 0H3Z"
    />
    <path
        d="M8.55469 11V6.69141H9.58984V7.41406H9.65625C9.86719 6.89453 10.332 6.60156 10.9531 6.60156C11.8906 6.60156 12.3906 7.16406 12.3906 8.21484V11H11.3203V8.46875C11.3203 7.83594 11.0664 7.53516 10.5234 7.53516C9.97656 7.53516 9.62109 7.91406 9.62109 8.51172V11H8.55469Z"
    />
    <path d="M7.25 11H3.80469V10.0469H4.97266V6.31641H3.80469V5.36328H7.25V6.31641H6.08203V10.0469H7.25V11Z" />
</svg>
