<svg fill="currentColor" viewBox="0 0 16 16" xmlns="http://www.w3.org/2000/svg">
    <path
        fill-rule="evenodd"
        clip-rule="evenodd"
        d="M13 1.25H3C2.0335 1.25 1.25 2.0335 1.25 3V13C1.25 13.9665 2.0335 14.75 3 14.75H13C13.9665 14.75 14.75 13.9665 14.75 13V3C14.75 2.0335 13.9665 1.25 13 1.25ZM3 0C1.34315 0 0 1.34315 0 3V13C0 14.6569 1.34315 16 3 16H13C14.6569 16 16 14.6569 16 13V3C16 1.34315 14.6569 0 13 0H3Z"
    />
    <path
        d="M6.82031 9.14062V11H5.88672V5.36328H7.04297L7.96875 8.58984H8.03516L8.95312 5.36328H10.1133V11H9.17969V9.14062L9.32031 6.89062H9.23828L8.375 9.67578H7.625L6.76172 6.89062H6.67969L6.82031 9.14062Z"
    />
</svg>
