<svg fill="currentColor" viewBox="0 0 16 16" xmlns="http://www.w3.org/2000/svg">
    <path
        fill-rule="evenodd"
        clip-rule="evenodd"
        d="M13 1.25H3C2.0335 1.25 1.25 2.0335 1.25 3V13C1.25 13.9665 2.0335 14.75 3 14.75H13C13.9665 14.75 14.75 13.9665 14.75 13V3C14.75 2.0335 13.9665 1.25 13 1.25ZM3 0C1.34315 0 0 1.34315 0 3V13C0 14.6569 1.34315 16 3 16H13C14.6569 16 16 14.6569 16 13V3C16 1.34315 14.6569 0 13 0H3Z"
    />
    <path
        d="M12.4688 11.0664C11.4844 11.0664 10.8984 10.3867 10.8984 9.21484V8.47266C10.8984 7.30078 11.4844 6.62109 12.4688 6.62109C13.0898 6.62109 13.5195 6.91016 13.6641 7.42578H13.7422V5.05078H14.8594V11H13.7578V10.2578H13.6758C13.5273 10.7812 13.1016 11.0664 12.4688 11.0664ZM12.8828 10.1406C13.4336 10.1406 13.7695 9.77734 13.7695 9.18359V8.47266C13.7695 7.87891 13.4336 7.51953 12.8828 7.51953C12.3281 7.51953 11.9883 7.87891 11.9883 8.47266V9.18359C11.9883 9.77734 12.3281 10.1406 12.8828 10.1406Z"
    />
    <path
        d="M8 11.0938C6.78516 11.0938 6.01953 10.3555 6.01953 9.17969V8.51562C6.01953 7.33984 6.78516 6.60156 8 6.60156C9.21484 6.60156 9.98047 7.33984 9.98047 8.51562V9.17969C9.98047 10.3555 9.21484 11.0938 8 11.0938ZM8 7.47656C7.42578 7.47656 7.07031 7.89062 7.07031 8.55859V9.13672C7.07031 9.80078 7.42578 10.2188 8 10.2188C8.57422 10.2188 8.92969 9.80078 8.92969 9.13672V8.55859C8.92969 7.89062 8.57422 7.47656 8 7.47656Z"
    />
    <path
        d="M1.875 9.14062V11H0.941406V5.36328H2.09766L3.02344 8.58984H3.08984L4.00781 5.36328H5.16797V11H4.23438V9.14062L4.375 6.89062H4.29297L3.42969 9.67578H2.67969L1.81641 6.89062H1.73438L1.875 9.14062Z"
    />
</svg>
