<svg fill="currentColor" viewBox="0 0 16 16" xmlns="http://www.w3.org/2000/svg">
    <path
        fill-rule="evenodd"
        clip-rule="evenodd"
        d="M13 1.25H3C2.0335 1.25 1.25 2.0335 1.25 3V13C1.25 13.9665 2.0335 14.75 3 14.75H13C13.9665 14.75 14.75 13.9665 14.75 13V3C14.75 2.0335 13.9665 1.25 13 1.25ZM3 0C1.34315 0 0 1.34315 0 3V13C0 14.6569 1.34315 16 3 16H13C14.6569 16 16 14.6569 16 13V3C16 1.34315 14.6569 0 13 0H3Z"
    />
    <path
        d="M8.37109 9.42188H9.41797C9.46875 9.91016 9.86719 10.1914 10.5078 10.1914C11.1172 10.1914 11.5039 9.89844 11.5039 9.44141C11.5039 9.05859 11.2539 8.85547 10.6016 8.71094L10.0156 8.57422C8.99609 8.34375 8.49609 7.80469 8.49609 6.96875C8.49609 5.91797 9.27344 5.25 10.4922 5.25C11.6719 5.25 12.4648 5.91016 12.5 6.91797H11.4531C11.4102 6.45312 11.0547 6.16797 10.5039 6.16797C9.94531 6.16797 9.59766 6.42969 9.59766 6.85156C9.59766 7.25 9.84766 7.46875 10.457 7.60156L11.0352 7.73438C12.125 7.97656 12.6016 8.46484 12.6016 9.32812C12.6016 10.4414 11.8047 11.1133 10.4883 11.1133C9.21094 11.1133 8.41016 10.4766 8.37109 9.42188Z"
    />
    <path
        d="M4.51172 11H3.55078V5.36328H4.53906L6.47656 9.10938H6.54297V5.36328H7.50391V11H6.51953L4.57812 7.23047H4.51172V11Z"
    />
</svg>
