<svg fill="currentColor" viewBox="0 0 16 16" xmlns="http://www.w3.org/2000/svg">
    <path
        fill-rule="evenodd"
        clip-rule="evenodd"
        d="M13 1.25H3C2.0335 1.25 1.25 2.0335 1.25 3V13C1.25 13.9665 2.0335 14.75 3 14.75H13C13.9665 14.75 14.75 13.9665 14.75 13V3C14.75 2.0335 13.9665 1.25 13 1.25ZM3 0C1.34315 0 0 1.34315 0 3V13C0 14.6569 1.34315 16 3 16H13C14.6569 16 16 14.6569 16 13V3C16 1.34315 14.6569 0 13 0H3Z"
    />
    <path
        d="M5.01758 11.762L4.12158 10.866L5.05958 10.082C4.62092 9.44736 4.40158 8.71003 4.40158 7.87003C4.40158 7.16069 4.55558 6.52603 4.86358 5.96603C5.18091 5.40603 5.61025 4.96736 6.15158 4.65003C6.69291 4.33269 7.30892 4.17403 7.99958 4.17403C8.84892 4.17403 9.58625 4.41669 10.2116 4.90203L10.9816 3.97803L11.8776 4.87403L10.9396 5.65803C11.3782 6.29269 11.5976 7.03003 11.5976 7.87003C11.5976 8.57936 11.4389 9.21403 11.1216 9.77403C10.8136 10.334 10.3889 10.7727 9.84758 11.09C9.30625 11.4074 8.69025 11.566 7.99958 11.566C7.15025 11.566 6.41292 11.3234 5.78758 10.838L5.01758 11.762ZM5.94158 9.22803L9.39958 5.74203C9.00758 5.43403 8.54092 5.28003 7.99958 5.28003C7.53292 5.28003 7.12225 5.39203 6.76758 5.61603C6.41292 5.84003 6.13292 6.14803 5.92758 6.54003C5.72225 6.92269 5.61958 7.36603 5.61958 7.87003C5.61958 8.38336 5.72692 8.83603 5.94158 9.22803ZM7.99958 10.46C8.46625 10.46 8.87691 10.348 9.23158 10.124C9.58625 9.90003 9.86625 9.59669 10.0716 9.21403C10.2769 8.82203 10.3796 8.37403 10.3796 7.87003C10.3796 7.35669 10.2722 6.90403 10.0576 6.51203L6.59958 9.99803C6.99158 10.306 7.45825 10.46 7.99958 10.46Z"
    />
</svg>
