<svg fill="currentColor" viewBox="0 0 16 16" xmlns="http://www.w3.org/2000/svg">
    <path
        fill-rule="evenodd"
        clip-rule="evenodd"
        d="M13 1.25H3C2.0335 1.25 1.25 2.0335 1.25 3V13C1.25 13.9665 2.0335 14.75 3 14.75H13C13.9665 14.75 14.75 13.9665 14.75 13V3C14.75 2.0335 13.9665 1.25 13 1.25ZM3 0C1.34315 0 0 1.34315 0 3V13C0 14.6569 1.34315 16 3 16H13C14.6569 16 16 14.6569 16 13V3C16 1.34315 14.6569 0 13 0H3Z"
    />
    <path
        d="M10.1914 7.66797H9.39062L9.19141 8.61719H9.98438L9.82812 9.51953H9.02734L8.73438 11H7.87891L8.16797 9.51953H7.29297L7.00391 11H6.14062L6.4375 9.51953H5.65625L5.82031 8.61719H6.60156L6.79688 7.66797H6.01562L6.17969 6.77734H6.96094L7.24219 5.35938H8.09766L7.82031 6.77734H8.69141L8.97266 5.35938H9.83203L9.55859 6.77734H10.3516L10.1914 7.66797ZM7.60938 7.58984L7.39062 8.70312H8.37109L8.59766 7.58984H7.60938Z"
    />
</svg>
