<svg fill="currentColor" viewBox="0 0 16 16" xmlns="http://www.w3.org/2000/svg">
    <path
        fill-rule="evenodd"
        clip-rule="evenodd"
        d="M13 1.25H3C2.0335 1.25 1.25 2.0335 1.25 3V13C1.25 13.9665 2.0335 14.75 3 14.75H13C13.9665 14.75 14.75 13.9665 14.75 13V3C14.75 2.0335 13.9665 1.25 13 1.25ZM3 0C1.34315 0 0 1.34315 0 3V13C0 14.6569 1.34315 16 3 16H13C14.6569 16 16 14.6569 16 13V3C16 1.34315 14.6569 0 13 0H3Z"
    />
    <path
        d="M8.83984 11.8594V11H9.21484C9.76953 11 9.87891 10.8711 9.87891 10.2266V9.14062C9.87891 8.60547 10.2617 8.26172 10.9688 8.21875V8.14844C10.2617 8.10547 9.87891 7.75781 9.87891 7.22656V6.13672C9.87891 5.49219 9.76953 5.36328 9.21484 5.36328H8.83984V4.50391H9.46875C10.5977 4.50391 10.9648 4.85938 10.9648 5.95312V6.81641C10.9648 7.43359 11.2461 7.67188 12.1055 7.63672V8.72656C11.2461 8.69531 10.9648 8.93359 10.9648 9.55078V10.4102C10.9648 11.5039 10.5977 11.8594 9.46875 11.8594H8.83984Z"
    />
    <path
        d="M7.16016 11.8594H6.53125C5.40234 11.8594 5.03516 11.5039 5.03516 10.4102V9.55078C5.03516 8.93359 4.75391 8.69531 3.89453 8.72656V7.63672C4.75391 7.67188 5.03516 7.43359 5.03516 6.81641V5.95312C5.03516 4.85938 5.40234 4.50391 6.53125 4.50391H7.16016V5.36328H6.78516C6.23047 5.36328 6.12109 5.49219 6.12109 6.13672V7.22656C6.12109 7.75781 5.73828 8.10547 5.03125 8.14844V8.21875C5.73828 8.26172 6.12109 8.60547 6.12109 9.14062V10.2266C6.12109 10.8711 6.23047 11 6.78516 11H7.16016V11.8594Z"
    />
</svg>
