<svg fill="currentColor" viewBox="0 0 16 16" xmlns="http://www.w3.org/2000/svg">
    <path
        fill-rule="evenodd"
        clip-rule="evenodd"
        d="M13 1.25H3C2.0335 1.25 1.25 2.0335 1.25 3V13C1.25 13.9665 2.0335 14.75 3 14.75H13C13.9665 14.75 14.75 13.9665 14.75 13V3C14.75 2.0335 13.9665 1.25 13 1.25ZM3 0C1.34315 0 0 1.34315 0 3V13C0 14.6569 1.34315 16 3 16H13C14.6569 16 16 14.6569 16 13V3C16 1.34315 14.6569 0 13 0H3Z"
    />
    <path
        d="M10.9531 6.625C11.9414 6.625 12.5234 7.30469 12.5234 8.47656V9.21875C12.5234 10.3945 11.9414 11.0742 10.9531 11.0742C10.332 11.0742 9.90234 10.7852 9.75781 10.2695H9.67969V12.4336H8.56641V6.69141H9.66406V7.43359H9.74609C9.89844 6.91406 10.3242 6.625 10.9531 6.625ZM10.543 7.55469C9.98828 7.55469 9.65234 7.91406 9.65234 8.50781V9.22266C9.65234 9.81641 9.98828 10.1758 10.543 10.1758C11.0938 10.1758 11.4336 9.8125 11.4336 9.22266V8.50781C11.4336 7.91797 11.0938 7.55469 10.543 7.55469Z"
    />
    <path
        d="M7.69531 8.61328C7.69531 10.1797 6.87891 11.1133 5.52734 11.1133C4.17578 11.1133 3.35938 10.1797 3.35938 8.61328V7.75C3.35938 6.18359 4.17578 5.25 5.52734 5.25C6.87891 5.25 7.69531 6.18359 7.69531 7.75V8.61328ZM5.52734 10.1289C6.20703 10.1289 6.56641 9.61719 6.56641 8.60156V7.76172C6.56641 6.74609 6.20703 6.23438 5.52734 6.23438C4.84766 6.23438 4.48828 6.74609 4.48828 7.76172V8.60156C4.48828 9.61719 4.84766 10.1289 5.52734 10.1289Z"
    />
</svg>
