<svg fill="currentColor" viewBox="0 0 16 16" xmlns="http://www.w3.org/2000/svg">
    <path
        fill-rule="evenodd"
        clip-rule="evenodd"
        d="M13 1.25H3C2.0335 1.25 1.25 2.0335 1.25 3V13C1.25 13.9665 2.0335 14.75 3 14.75H13C13.9665 14.75 14.75 13.9665 14.75 13V3C14.75 2.0335 13.9665 1.25 13 1.25ZM3 0C1.34315 0 0 1.34315 0 3V13C0 14.6569 1.34315 16 3 16H13C14.6569 16 16 14.6569 16 13V3C16 1.34315 14.6569 0 13 0H3Z"
    />
    <path
        d="M12.8242 12.6211C11.707 12.6211 10.9766 12.1484 10.9062 11.3828H11.9492C12.0234 11.6602 12.3672 11.8359 12.8398 11.8359C13.4609 11.8359 13.7891 11.5547 13.7891 11.0156V10.168H13.707C13.5742 10.6523 13.0742 10.9766 12.4336 10.9766C11.4414 10.9766 10.8477 10.2891 10.8477 9.125V8.47266C10.8477 7.29688 11.4531 6.62109 12.4844 6.62109C13.1094 6.62109 13.5898 6.9375 13.7305 7.42578H13.8086V6.69141H14.8594V10.9961C14.8594 12 14.082 12.6211 12.8242 12.6211ZM11.9414 9.09375C11.9414 9.67969 12.2969 10.0469 12.8555 10.0469C13.418 10.0469 13.7734 9.67969 13.7734 9.09375V8.47266C13.7734 7.88672 13.418 7.51953 12.8555 7.51953C12.2969 7.51953 11.9414 7.89062 11.9414 8.47266V9.09375Z"
    />
    <path
        d="M7.44531 8.42188L8.94531 6.69141H10.168L8.57422 8.48438L10.2773 11H9.03906L7.78906 9.16016L7.37891 9.57031V11H6.3125V5.05078H7.37891V8.42188H7.44531Z"
    />
    <path
        d="M1.16406 5.36328H3.22656C4.41016 5.36328 5.16016 6.10938 5.16016 7.29297C5.16016 8.46484 4.38672 9.21094 3.17188 9.21094H2.27344V11H1.16406V5.36328ZM2.27344 6.27344V8.29688H2.94531C3.67188 8.29688 4.03516 7.96484 4.03516 7.28516C4.03516 6.60938 3.67188 6.27344 2.94531 6.27344H2.27344Z"
    />
</svg>
