<svg fill="currentColor" viewBox="0 0 16 16" xmlns="http://www.w3.org/2000/svg">
    <path
        fill-rule="evenodd"
        clip-rule="evenodd"
        d="M13 1.25H3C2.0335 1.25 1.25 2.0335 1.25 3V13C1.25 13.9665 2.0335 14.75 3 14.75H13C13.9665 14.75 14.75 13.9665 14.75 13V3C14.75 2.0335 13.9665 1.25 13 1.25ZM3 0C1.34315 0 0 1.34315 0 3V13C0 14.6569 1.34315 16 3 16H13C14.6569 16 16 14.6569 16 13V3C16 1.34315 14.6569 0 13 0H3Z"
    />
    <path
        d="M10.3906 9.08984V10.2148H11.6406V11H8.54688V10.2148H9.36719V7.48047H8.46875V6.69141H10.3984V7.79688H10.5664C10.7539 6.94141 11.1953 6.57812 12.0078 6.57812C12.25 6.57812 12.4688 6.60938 12.6211 6.66797V7.82812C12.4258 7.75391 12.1445 7.70312 11.9023 7.70312C10.8867 7.70312 10.3906 8.16406 10.3906 9.08984Z"
    />
    <path
        d="M3.63672 5.36328H5.69922C6.88281 5.36328 7.63281 6.10938 7.63281 7.29297C7.63281 8.46484 6.85938 9.21094 5.64453 9.21094H4.74609V11H3.63672V5.36328ZM4.74609 6.27344V8.29688H5.41797C6.14453 8.29688 6.50781 7.96484 6.50781 7.28516C6.50781 6.60938 6.14453 6.27344 5.41797 6.27344H4.74609Z"
    />
</svg>
