<svg fill="currentColor" viewBox="0 0 16 16" xmlns="http://www.w3.org/2000/svg">
    <path
        fill-rule="evenodd"
        clip-rule="evenodd"
        d="M13 1.25H3C2.0335 1.25 1.25 2.0335 1.25 3V13C1.25 13.9665 2.0335 14.75 3 14.75H13C13.9665 14.75 14.75 13.9665 14.75 13V3C14.75 2.0335 13.9665 1.25 13 1.25ZM3 0C1.34315 0 0 1.34315 0 3V13C0 14.6569 1.34315 16 3 16H13C14.6569 16 16 14.6569 16 13V3C16 1.34315 14.6569 0 13 0H3Z"
    />
    <path
        d="M12.2554 9.32861V10.313H13.3491V11H10.6421V10.313H11.3599V7.92041H10.5737V7.22998H12.2622V8.19727H12.4092C12.5732 7.44873 12.9595 7.13086 13.6704 7.13086C13.8823 7.13086 14.0737 7.1582 14.207 7.20947V8.22461C14.0361 8.15967 13.79 8.11523 13.5781 8.11523C12.6895 8.11523 12.2554 8.51855 12.2554 9.32861Z"
    />
    <path
        d="M7.2207 6.15332H8.13672V7.26758H9.5415V8.01611H8.15381V9.81738C8.15381 10.1011 8.35547 10.2617 8.71436 10.2617C8.80322 10.2617 9.45605 10.2583 9.49707 10.2549V10.9932C9.45947 11 8.71436 11.0068 8.63916 11.0068C7.61377 11.0068 7.2207 10.6821 7.2207 9.80713V8.01611H6.23975V7.26758H7.2207V6.15332Z"
    />
    <path
        d="M1.83398 9.61914H2.75C2.79443 10.0464 3.14307 10.2925 3.70361 10.2925C4.23682 10.2925 4.5752 10.0361 4.5752 9.63623C4.5752 9.30127 4.35645 9.12354 3.78564 8.99707L3.27295 8.87744C2.38086 8.67578 1.94336 8.2041 1.94336 7.47266C1.94336 6.55322 2.62354 5.96875 3.68994 5.96875C4.72217 5.96875 5.41602 6.54639 5.44678 7.42822H4.53076C4.49316 7.02148 4.18213 6.77197 3.7002 6.77197C3.21143 6.77197 2.90723 7.00098 2.90723 7.37012C2.90723 7.71875 3.12598 7.91016 3.65918 8.02637L4.16504 8.14258C5.11865 8.35449 5.53564 8.78174 5.53564 9.53711C5.53564 10.5112 4.83838 11.0991 3.68652 11.0991C2.56885 11.0991 1.86816 10.542 1.83398 9.61914Z"
    />
</svg>
