<svg fill="currentColor" viewBox="0 0 16 16" xmlns="http://www.w3.org/2000/svg">
    <path
        fill-rule="evenodd"
        clip-rule="evenodd"
        d="M13 1.25H3C2.0335 1.25 1.25 2.0335 1.25 3V13C1.25 13.9665 2.0335 14.75 3 14.75H13C13.9665 14.75 14.75 13.9665 14.75 13V3C14.75 2.0335 13.9665 1.25 13 1.25ZM3 0C1.34315 0 0 1.34315 0 3V13C0 14.6569 1.34315 16 3 16H13C14.6569 16 16 14.6569 16 13V3C16 1.34315 14.6569 0 13 0H3Z"
    />
    <path
        d="M12.0547 5.46094H13.1016V6.73438H14.707V7.58984H13.1211V9.64844C13.1211 9.97266 13.3516 10.1562 13.7617 10.1562C13.8633 10.1562 14.6094 10.1523 14.6562 10.1484V10.9922C14.6133 11 13.7617 11.0078 13.6758 11.0078C12.5039 11.0078 12.0547 10.6367 12.0547 9.63672V7.58984H10.9336V6.73438H12.0547V5.46094Z"
    />
    <path
        d="M9.94922 8.19531H8.90234C8.83203 7.71094 8.54297 7.47656 8.07812 7.47656C7.50391 7.47656 7.1875 7.90625 7.1875 8.69531V8.98438C7.1875 9.77344 7.50391 10.2031 8.07812 10.2031C8.54688 10.2031 8.82812 9.98047 8.90234 9.51953H9.94922C9.85547 10.5469 9.19922 11.0938 8.08594 11.0938C6.81641 11.0938 6.11328 10.375 6.11328 9.06641V8.61328C6.11328 7.30469 6.81641 6.58594 8.08594 6.58594C9.19922 6.58594 9.84766 7.14062 9.94922 8.19531Z"
    />
    <path
        d="M0.953125 9.42188H2C2.05078 9.91016 2.44922 10.1914 3.08984 10.1914C3.69922 10.1914 4.08594 9.89844 4.08594 9.44141C4.08594 9.05859 3.83594 8.85547 3.18359 8.71094L2.59766 8.57422C1.57812 8.34375 1.07812 7.80469 1.07812 6.96875C1.07812 5.91797 1.85547 5.25 3.07422 5.25C4.25391 5.25 5.04688 5.91016 5.08203 6.91797H4.03516C3.99219 6.45312 3.63672 6.16797 3.08594 6.16797C2.52734 6.16797 2.17969 6.42969 2.17969 6.85156C2.17969 7.25 2.42969 7.46875 3.03906 7.60156L3.61719 7.73438C4.70703 7.97656 5.18359 8.46484 5.18359 9.32812C5.18359 10.4414 4.38672 11.1133 3.07031 11.1133C1.79297 11.1133 0.992188 10.4766 0.953125 9.42188Z"
    />
</svg>
