<svg fill="currentColor" viewBox="0 0 16 16" xmlns="http://www.w3.org/2000/svg">
    <path
        fill-rule="evenodd"
        clip-rule="evenodd"
        d="M13 1.25H3C2.0335 1.25 1.25 2.0335 1.25 3V13C1.25 13.9665 2.0335 14.75 3 14.75H13C13.9665 14.75 14.75 13.9665 14.75 13V3C14.75 2.0335 13.9665 1.25 13 1.25ZM3 0C1.34315 0 0 1.34315 0 3V13C0 14.6569 1.34315 16 3 16H13C14.6569 16 16 14.6569 16 13V3C16 1.34315 14.6569 0 13 0H3Z"
    />
    <path
        d="M8.58203 5.36328H10.6445C11.8281 5.36328 12.5781 6.10938 12.5781 7.29297C12.5781 8.46484 11.8047 9.21094 10.5898 9.21094H9.69141V11H8.58203V5.36328ZM9.69141 6.27344V8.29688H10.3633C11.0898 8.29688 11.4531 7.96484 11.4531 7.28516C11.4531 6.60938 11.0898 6.27344 10.3633 6.27344H9.69141Z"
    />
    <path d="M6.08203 11H4.97266V6.32031H3.35938V5.36328H7.69531V6.32031H6.08203V11Z" />
</svg>
