<svg fill="currentColor" viewBox="0 0 16 16" xmlns="http://www.w3.org/2000/svg">
    <path
        fill-rule="evenodd"
        clip-rule="evenodd"
        d="M13 1.25H3C2.0335 1.25 1.25 2.0335 1.25 3V13C1.25 13.9665 2.0335 14.75 3 14.75H13C13.9665 14.75 14.75 13.9665 14.75 13V3C14.75 2.0335 13.9665 1.25 13 1.25ZM3 0C1.34315 0 0 1.34315 0 3V13C0 14.6569 1.34315 16 3 16H13C14.6569 16 16 14.6569 16 13V3C16 1.34315 14.6569 0 13 0H3Z"
    />
    <path
        d="M7.5 8.75V12.75H3.5V8.75H7.5ZM8 3L10.75 7.5H5.25L8 3ZM10.75 8.5C12 8.5 13 9.5 13 10.75C13 12 12 13 10.75 13C9.5 13 8.5 12 8.5 10.75C8.5 9.5 9.5 8.5 10.75 8.5Z"
    />
</svg>
