<svg fill="currentColor" viewBox="0 0 16 16" xmlns="http://www.w3.org/2000/svg">
    <path
        fill-rule="evenodd"
        clip-rule="evenodd"
        d="M13 1.25H3C2.0335 1.25 1.25 2.0335 1.25 3V13C1.25 13.9665 2.0335 14.75 3 14.75H13C13.9665 14.75 14.75 13.9665 14.75 13V3C14.75 2.0335 13.9665 1.25 13 1.25ZM3 0C1.34315 0 0 1.34315 0 3V13C0 14.6569 1.34315 16 3 16H13C14.6569 16 16 14.6569 16 13V3C16 1.34315 14.6569 0 13 0H3Z"
    />
    <path
        d="M12.8633 9.08984V10.2148H14.1133V11H11.0195V10.2148H11.8398V7.48047H10.9414V6.69141H12.8711V7.79688H13.0391C13.2266 6.94141 13.668 6.57812 14.4805 6.57812C14.7227 6.57812 14.9414 6.60938 15.0938 6.66797V7.82812C14.8984 7.75391 14.6172 7.70312 14.375 7.70312C13.3594 7.70312 12.8633 8.16406 12.8633 9.08984Z"
    />
    <path
        d="M7.41797 11.0703C6.60547 11.0703 6.05859 10.5469 6.05859 9.76953C6.05859 8.99219 6.625 8.53516 7.6875 8.46094L8.69531 8.39844V8.05469C8.69531 7.67969 8.4375 7.46094 7.99609 7.46094C7.625 7.46094 7.34766 7.625 7.25781 7.89453H6.21875C6.29688 7.11328 7.00391 6.60938 8.02734 6.60938C9.13281 6.60938 9.75391 7.13672 9.75391 8.07812V11H8.73828V10.4258H8.64453C8.43359 10.832 7.98047 11.0703 7.41797 11.0703ZM7.78516 10.2148C8.31641 10.2148 8.69531 9.87891 8.69531 9.39844V9.08594L7.86719 9.13672C7.36719 9.16797 7.11328 9.35938 7.11328 9.69141C7.11328 10.0117 7.37109 10.2148 7.78516 10.2148Z"
    />
    <path
        d="M3.11719 9.89453L4.29297 5.36328H5.40234L3.71094 11H2.39844L0.707031 5.36328H1.90625L3.06641 9.89453H3.11719Z"
    />
</svg>
