<svg  xmlns="http://www.w3.org/2000/svg" viewBox="0 0 34 32"><path fill="#a7b3cb" d="M19.314 15.987a2.392 2.392 0 11-4.784 0 2.392 2.392 0 014.784 0z" /><path fill="#a7b3cb" d="M16.922 24.783c1.878 1.826 3.729 2.906 5.221 2.906.489 0 .952-.103 1.337-.334 1.337-.772 1.826-2.701 1.363-5.453-.077-.489-.18-.977-.309-1.492.514-.154.977-.309 1.44-.463 2.598-1.003 4.038-2.392 4.038-3.909 0-1.543-1.44-2.932-4.038-3.909-.463-.18-.926-.334-1.44-.463.129-.514.232-1.003.309-1.492.437-2.803-.051-4.758-1.389-5.53-.386-.231-.849-.334-1.337-.334-1.466 0-3.344 1.08-5.221 2.906-1.852-1.826-3.704-2.906-5.195-2.906-.489 0-.952.103-1.337.334-1.337.772-1.826 2.701-1.363 5.453.077.489.18.977.309 1.492-.514.154-.977.309-1.44.463-2.598 1.003-4.038 2.392-4.038 3.909 0 1.543 1.44 2.932 4.038 3.909.463.18.926.334 1.44.463a16.882 16.882 0 00-.309 1.492c-.437 2.752.051 4.707 1.363 5.453.386.232.849.334 1.337.334 1.492.051 3.344-1.029 5.221-2.829zm-1.441-3.472c.463.026.952.026 1.44.026s.977 0 1.44-.026a24.523 24.523 0 01-1.44 1.723 24.252 24.252 0 01-1.44-1.723zm-3.189-2.649c.257.437.489.849.772 1.26a27.786 27.786 0 01-2.263-.386c.232-.694.489-1.415.797-2.135.206.411.437.849.694 1.26zM10.8 12.463c.72-.154 1.466-.283 2.263-.386-.257.412-.514.823-.772 1.26s-.489.849-.694 1.286a17.109 17.109 0 01-.797-2.161zm1.415 3.524c.334-.694.694-1.389 1.106-2.083.386-.669.823-1.337 1.26-2.006a35.293 35.293 0 014.682 0c.463.669.874 1.337 1.26 2.006.412.694.772 1.389 1.106 2.083a26.922 26.922 0 01-1.106 2.083c-.386.669-.823 1.337-1.26 2.006a35.293 35.293 0 01-4.682 0 28.695 28.695 0 01-1.26-2.006 27.106 27.106 0 01-1.106-2.083zm10.057-1.389l-.694-1.286c-.257-.437-.489-.849-.772-1.26.797.103 1.543.232 2.263.386-.231.72-.489 1.44-.797 2.161zm0 2.778c.309.72.566 1.44.797 2.135-.72.154-1.466.283-2.263.386.257-.412.514-.823.772-1.26.232-.386.463-.823.694-1.26zm.591 8.925c-.206.129-.463.18-.746.18-1.26 0-2.829-1.029-4.372-2.572a26.868 26.868 0 002.186-2.701 23.619 23.619 0 003.447-.54c.129.463.206.926.283 1.389.36 2.186.077 3.755-.797 4.244zm1.338-13.555c2.881.823 4.604 2.083 4.604 3.241 0 1.003-1.183 2.006-3.266 2.804-.412.154-.874.309-1.337.437a27.01 27.01 0 00-1.26-3.241c.514-1.106.952-2.186 1.26-3.241zm-2.058-7.253c.283 0 .514.051.746.18.849.489 1.157 2.032.797 4.244-.077.437-.18.9-.283 1.389a33.072 33.072 0 00-3.447-.54 23.774 23.774 0 00-2.186-2.701c1.543-1.518 3.112-2.572 4.372-2.572zm-3.781 5.17c-.463-.026-.952-.026-1.44-.026s-.977 0-1.44.026c.463-.617.952-1.183 1.44-1.723.489.54.977 1.132 1.44 1.723zm-7.382-4.99c.206-.129.463-.18.746-.18 1.26 0 2.829 1.029 4.372 2.572a26.756 26.756 0 00-2.186 2.701 23.619 23.619 0 00-3.447.54c-.129-.463-.206-.926-.283-1.389-.36-2.186-.077-3.729.797-4.244zM9.643 19.228c-2.881-.823-4.604-2.083-4.604-3.241 0-1.003 1.183-2.006 3.266-2.803.412-.154.874-.309 1.337-.437a27.01 27.01 0 001.26 3.241c-.514 1.106-.952 2.212-1.26 3.241zm.54 2.829c.077-.437.18-.9.283-1.389 1.08.232 2.238.412 3.447.54a23.774 23.774 0 002.186 2.701c-1.543 1.517-3.112 2.572-4.372 2.572-.283 0-.514-.051-.746-.18-.875-.489-1.157-2.058-.797-4.244z" /></svg>
