<?xml version="1.0" encoding="UTF-8" standalone="no"?>
<!DOCTYPE svg PUBLIC "-//W3C//DTD SVG 1.1//EN"
 "http://www.w3.org/Graphics/SVG/1.1/DTD/svg11.dtd">
<!-- Generated by graphviz version 2.50.0 (20211204.2007)
 -->
<!-- Title: G Pages: 1 -->
<svg width="1868pt" height="476pt"
 viewBox="0.00 0.00 1867.66 476.21" xmlns="http://www.w3.org/2000/svg" xmlns:xlink="http://www.w3.org/1999/xlink">
<g id="graph0" class="graph" transform="scale(1 1) rotate(0) translate(4 472.21)">
<title>G</title>
<polygon fill="white" stroke="transparent" points="-4,4 -4,-472.21 1863.66,-472.21 1863.66,4 -4,4"/>
<!-- v13 -->
<g id="node1" class="node">
<title>v13</title>
<ellipse fill="none" stroke="black" cx="1628.66" cy="-450.21" rx="165.17" ry="18"/>
<text text-anchor="middle" x="1628.66" y="-446.51" font-family="Times,serif" font-size="14.00">(13) document &quot;file:/root/basic/basic.repro&quot;</text>
</g>
<!-- v17 -->
<g id="node2" class="node">
<title>v17</title>
<ellipse fill="none" stroke="black" cx="1469.66" cy="-363.21" rx="289.75" ry="18"/>
<text text-anchor="middle" x="1469.66" y="-359.51" font-family="Times,serif" font-size="14.00">(17) range {&quot;start&quot;:{&quot;line&quot;:2,&quot;character&quot;:10},&quot;end&quot;:{&quot;line&quot;:2,&quot;character&quot;:18}}</text>
</g>
<!-- v13&#45;&gt;v17 -->
<g id="edge10" class="edge">
<title>v13&#45;&gt;v17</title>
<path fill="none" stroke="black" d="M1597.25,-432.41C1572.29,-419.07 1537.19,-400.31 1510.13,-385.84"/>
<polygon fill="black" stroke="black" points="1511.75,-382.74 1501.28,-381.11 1508.45,-388.91 1511.75,-382.74"/>
<text text-anchor="middle" x="1594.66" y="-403.01" font-family="Times,serif" font-size="14.00">(20) contains</text>
</g>
<!-- v14 -->
<g id="node7" class="node">
<title>v14</title>
<ellipse fill="none" stroke="black" cx="1465.66" cy="-18" rx="289.75" ry="18"/>
<text text-anchor="middle" x="1465.66" y="-14.3" font-family="Times,serif" font-size="14.00">(14) range {&quot;start&quot;:{&quot;line&quot;:1,&quot;character&quot;:11},&quot;end&quot;:{&quot;line&quot;:1,&quot;character&quot;:19}}</text>
</g>
<!-- v13&#45;&gt;v14 -->
<g id="edge9" class="edge">
<title>v13&#45;&gt;v14</title>
<path fill="none" stroke="black" d="M1714.68,-434.82C1752.14,-423.14 1787.66,-402.08 1787.66,-364.21 1787.66,-364.21 1787.66,-364.21 1787.66,-146.1 1787.66,-114.87 1775.13,-105.07 1749.66,-87 1713.99,-61.68 1670.11,-45.71 1627.59,-35.65"/>
<polygon fill="black" stroke="black" points="1628.22,-32.2 1617.69,-33.41 1626.67,-39.03 1628.22,-32.2"/>
<text text-anchor="middle" x="1823.66" y="-272.51" font-family="Times,serif" font-size="14.00">(20) contains</text>
</g>
<!-- v3 -->
<g id="node9" class="node">
<title>v3</title>
<ellipse fill="none" stroke="black" cx="1334.66" cy="-276.21" rx="53.89" ry="18"/>
<text text-anchor="middle" x="1334.66" y="-272.51" font-family="Times,serif" font-size="14.00">(3) resultSet</text>
</g>
<!-- v17&#45;&gt;v3 -->
<g id="edge7" class="edge">
<title>v17&#45;&gt;v3</title>
<path fill="none" stroke="black" d="M1442.67,-345.21C1421.07,-331.61 1390.68,-312.48 1367.64,-297.97"/>
<polygon fill="black" stroke="black" points="1369.22,-294.83 1358.89,-292.46 1365.49,-300.75 1369.22,-294.83"/>
<text text-anchor="middle" x="1434.66" y="-316.01" font-family="Times,serif" font-size="14.00">(18) next</text>
</g>
<!-- v11 -->
<g id="node3" class="node">
<title>v11</title>
<ellipse fill="none" stroke="black" cx="795.66" cy="-18" rx="233.16" ry="18"/>
<text text-anchor="middle" x="795.66" y="-14.3" font-family="Times,serif" font-size="14.00">(11) packageInformation {&quot;Name&quot;:&quot;basic&quot;,&quot;Version&quot;:&quot;1.0.0&quot;}</text>
</g>
<!-- v4 -->
<g id="node4" class="node">
<title>v4</title>
<ellipse fill="none" stroke="black" cx="1661.66" cy="-147.1" rx="78.79" ry="18"/>
<text text-anchor="middle" x="1661.66" y="-143.4" font-family="Times,serif" font-size="14.00">(4) referenceResult</text>
</g>
<!-- v4&#45;&gt;v17 -->
<g id="edge8" class="edge">
<title>v4&#45;&gt;v17</title>
<path fill="none" stroke="black" d="M1673.39,-165.12C1685.12,-184.44 1699.57,-216.38 1685.66,-240.21 1655.02,-292.71 1592.5,-324.41 1542.57,-342.28"/>
<polygon fill="black" stroke="black" points="1541.39,-338.98 1533.09,-345.56 1543.68,-345.6 1541.39,-338.98"/>
<text text-anchor="middle" x="1698.66" y="-272.51" font-family="Times,serif" font-size="14.00">(19) item</text>
</g>
<!-- v5 -->
<g id="node5" class="node">
<title>v5</title>
<ellipse fill="none" stroke="black" cx="145.66" cy="-147.1" rx="145.83" ry="60.21"/>
<text text-anchor="middle" x="145.66" y="-174.4" font-family="Times,serif" font-size="14.00">(5) hoverResult &quot;definition hello().</text>
<text text-anchor="middle" x="145.66" y="-143.4" font-family="Times,serif" font-size="14.00">&#45;&#45;&#45;</text>
<text text-anchor="middle" x="145.66" y="-112.4" font-family="Times,serif" font-size="14.00">: hello is a method&quot;</text>
</g>
<!-- v9 -->
<g id="node6" class="node">
<title>v9</title>
<ellipse fill="none" stroke="black" cx="795.66" cy="-147.1" rx="486.61" ry="18"/>
<text text-anchor="middle" x="795.66" y="-143.4" font-family="Times,serif" font-size="14.00">(9) moniker {&quot;Kind&quot;:&quot;export&quot;,&quot;Scheme&quot;:&quot;repro_lang&quot;,&quot;Identifier&quot;:&quot;repro_lang repro_manager basic 1.0.0 basic/basic.repro/hello().&quot;}</text>
</g>
<!-- v9&#45;&gt;v11 -->
<g id="edge2" class="edge">
<title>v9&#45;&gt;v11</title>
<path fill="none" stroke="black" d="M795.66,-128.96C795.66,-107.83 795.66,-71.65 795.66,-46.59"/>
<polygon fill="black" stroke="black" points="799.16,-46.28 795.66,-36.28 792.16,-46.28 799.16,-46.28"/>
<text text-anchor="middle" x="863.66" y="-57.8" font-family="Times,serif" font-size="14.00">(12) packageInformation</text>
</g>
<!-- v14&#45;&gt;v3 -->
<g id="edge6" class="edge">
<title>v14&#45;&gt;v3</title>
<path fill="none" stroke="black" d="M1398.07,-35.51C1371.35,-45.7 1343.32,-61.83 1327.66,-87 1296.51,-137.08 1312.73,-210.03 1325.04,-248.75"/>
<polygon fill="black" stroke="black" points="1321.73,-249.89 1328.21,-258.27 1328.37,-247.68 1321.73,-249.89"/>
<text text-anchor="middle" x="1352.66" y="-143.4" font-family="Times,serif" font-size="14.00">(15) next</text>
</g>
<!-- v2 -->
<g id="node8" class="node">
<title>v2</title>
<ellipse fill="none" stroke="black" cx="1465.66" cy="-147.1" rx="79.09" ry="18"/>
<text text-anchor="middle" x="1465.66" y="-143.4" font-family="Times,serif" font-size="14.00">(2) definitionResult</text>
</g>
<!-- v2&#45;&gt;v14 -->
<g id="edge3" class="edge">
<title>v2&#45;&gt;v14</title>
<path fill="none" stroke="black" d="M1465.66,-128.96C1465.66,-107.83 1465.66,-71.65 1465.66,-46.59"/>
<polygon fill="black" stroke="black" points="1469.16,-46.28 1465.66,-36.28 1462.16,-46.28 1469.16,-46.28"/>
<text text-anchor="middle" x="1491.66" y="-57.8" font-family="Times,serif" font-size="14.00">(16) item</text>
</g>
<!-- v3&#45;&gt;v4 -->
<g id="edge1" class="edge">
<title>v3&#45;&gt;v4</title>
<path fill="none" stroke="black" d="M1385.51,-269.89C1420.32,-265.03 1466.98,-256.1 1505.66,-240.21 1516.95,-235.57 1518.27,-231.6 1528.66,-225.21 1560.59,-205.56 1597.51,-184.27 1624.34,-169.04"/>
<polygon fill="black" stroke="black" points="1626.41,-171.9 1633.39,-163.93 1622.96,-165.81 1626.41,-171.9"/>
<text text-anchor="middle" x="1607.16" y="-229.01" font-family="Times,serif" font-size="14.00">(7) textDocument/references</text>
</g>
<!-- v3&#45;&gt;v5 -->
<g id="edge11" class="edge">
<title>v3&#45;&gt;v5</title>
<path fill="none" stroke="black" d="M1280.99,-273.81C1096.56,-268.67 489.73,-248.92 299.66,-207.21 284.86,-203.96 269.6,-199.53 254.7,-194.55"/>
<polygon fill="black" stroke="black" points="255.57,-191.14 244.97,-191.2 253.29,-197.76 255.57,-191.14"/>
<text text-anchor="middle" x="634.66" y="-229.01" font-family="Times,serif" font-size="14.00">(8) textDocument/hover</text>
</g>
<!-- v3&#45;&gt;v9 -->
<g id="edge5" class="edge">
<title>v3&#45;&gt;v9</title>
<path fill="none" stroke="black" d="M1291.92,-265.13C1202.28,-243.99 993.35,-194.72 877.2,-167.33"/>
<polygon fill="black" stroke="black" points="877.82,-163.88 867.29,-164.99 876.21,-170.7 877.82,-163.88"/>
<text text-anchor="middle" x="1211.16" y="-229.01" font-family="Times,serif" font-size="14.00">(10) moniker</text>
</g>
<!-- v3&#45;&gt;v2 -->
<g id="edge4" class="edge">
<title>v3&#45;&gt;v2</title>
<path fill="none" stroke="black" d="M1337.99,-258.16C1340.66,-247.83 1345.21,-234.84 1352.66,-225.21 1358.44,-217.74 1400.66,-189.79 1431.8,-169.69"/>
<polygon fill="black" stroke="black" points="1433.74,-172.61 1440.26,-164.25 1429.95,-166.72 1433.74,-172.61"/>
<text text-anchor="middle" x="1429.16" y="-229.01" font-family="Times,serif" font-size="14.00">(6) textDocument/definition</text>
</g>
</g>
</svg>
