<svg width="89" height="87" viewBox="0 0 89 87" fill="none" xmlns="http://www.w3.org/2000/svg"><g filter="url(#a)"><path d="M32.403 72.764a3.083 3.083 0 0 0 2.18.903h1.542c.77 0 1.542-.309 2.158-.895l11.409-11.439H68.5a6.167 6.167 0 0 0 6.167-6.166v-37A6.166 6.166 0 0 0 68.5 12H19.167A6.166 6.166 0 0 0 13 18.167v37a6.167 6.167 0 0 0 6.167 6.166H31.5v9.25c0 .818.325 1.602.903 2.18Z" fill="#343A4C"/></g><rect x="21" y="22" width="46" height="8" rx="4" fill="#798BAF"/><rect x="31" y="35" width="28" height="8" rx="4" fill="#94D82D"/><rect x="21" y="46" width="11" height="8" rx="4" fill="#798BAF"/><defs><filter id="a" x="3" y="4" width="81.667" height="81.667" filterUnits="userSpaceOnUse" color-interpolation-filters="sRGB"><feFlood flood-opacity="0" result="BackgroundImageFix"/><feColorMatrix in="SourceAlpha" values="0 0 0 0 0 0 0 0 0 0 0 0 0 0 0 0 0 0 127 0"/><feOffset dy="2"/><feGaussianBlur stdDeviation="5"/><feColorMatrix values="0 0 0 0 0.0791667 0 0 0 0 0.0699306 0 0 0 0 0.0699306 0 0 0 1 0"/><feBlend in2="BackgroundImageFix" result="effect1_dropShadow"/><feBlend in="SourceGraphic" in2="effect1_dropShadow" result="shape"/></filter></defs></svg>