<svg width="348" height="90" viewBox="0 0 348 90" fill="none" xmlns="http://www.w3.org/2000/svg"><path d="M117.458 28.063a.877.877 0 0 1-.883-.883c0-.477.391-.882.883-.882.477 0 .882.39.882.882a.895.895 0 0 1-.882.883Zm0-1.592a.71.71 0 0 0 0 1.418.71.71 0 0 0 0-1.418Zm.448 1.172h-.203l-.173-.333h-.232v.333h-.188v-.97h.463c.203 0 .333.131.333.32a.3.3 0 0 1-.203.288l.203.362Zm-.347-.506c.072 0 .144-.044.144-.145 0-.116-.057-.145-.144-.145h-.289v.29h.289Zm-92.028-.927h2.257v6.148h3.92v1.968H25.53V26.21Zm8.506 4.08v-.03c0-2.328 1.88-4.223 4.383-4.223 2.502 0 4.354 1.866 4.354 4.195v.028c0 2.33-1.88 4.224-4.383 4.224s-4.354-1.866-4.354-4.195Zm6.451 0v-.03c0-1.171-.839-2.184-2.083-2.184-1.23 0-2.054.998-2.054 2.17v.029c0 1.172.839 2.184 2.069 2.184 1.244 0 2.068-.998 2.068-2.17Zm5.049.477v-4.556h2.285v4.513c0 1.171.593 1.721 1.49 1.721s1.49-.535 1.49-1.663V26.21h2.285v4.498c0 2.619-1.49 3.761-3.804 3.761-2.3 0-3.746-1.157-3.746-3.703ZM56.53 26.21h3.124c2.893 0 4.585 1.664 4.585 4.008v.029c0 2.343-1.707 4.079-4.629 4.079h-3.08V26.21Zm3.167 6.12c1.345 0 2.242-.738 2.242-2.054v-.03c0-1.301-.897-2.053-2.242-2.053h-.911v4.122h.911v.015Zm7.812-6.12h6.495v1.968H69.75v1.389h3.848v1.866H69.75v2.893h-2.242V26.21Zm9.619 0h2.243v6.148h3.934v1.968h-6.177V26.21Zm12.05-.056h2.17l3.457 8.172h-2.416l-.593-1.446h-3.124l-.579 1.446h-2.358l3.443-8.172Zm1.982 4.976-.897-2.3-.911 2.3h1.808Zm6.538-4.92h3.833c1.244 0 2.097.319 2.647.883.477.463.723 1.085.723 1.895v.029c0 1.244-.665 2.069-1.663 2.488l1.938 2.835h-2.604l-1.634-2.459h-.984v2.46h-2.256v-8.13Zm3.732 3.892c.766 0 1.2-.376 1.2-.955v-.029c0-.636-.463-.954-1.215-.954H99.94v1.938h1.49Zm6.711-3.892h6.524v1.91h-4.296v1.23h3.891v1.779h-3.891v1.287h4.354v1.91h-6.582V26.21Zm-87.528 5.035c-.318.71-.984 1.216-1.852 1.216-1.23 0-2.068-1.027-2.068-2.185v-.029c0-1.171.824-2.17 2.054-2.17.926 0 1.634.565 1.924 1.346h2.372c-.376-1.938-2.083-3.37-4.282-3.37-2.502 0-4.383 1.895-4.383 4.223v.03c0 2.328 1.852 4.194 4.354 4.194 2.141 0 3.82-1.389 4.253-3.24l-2.372-.015Z" fill="#5E6E8C"/><path d="m112.004 13.264-6.206-3.558-1.07-.463-25.387.174v12.888h32.663v-9.04Z" fill="#14171F"/><path d="M100.706 21.12c.304-1.042.189-1.997-.318-2.706-.463-.65-1.244-1.027-2.184-1.07l-17.807-.232a.33.33 0 0 1-.274-.144.399.399 0 0 1-.044-.319.488.488 0 0 1 .42-.318l17.965-.231c2.127-.102 4.441-1.823 5.251-3.935l1.027-2.676a.57.57 0 0 0 .029-.347A11.683 11.683 0 0 0 93.358 0c-5.15 0-9.518 3.327-11.08 7.941a5.314 5.314 0 0 0-3.689-1.027 5.268 5.268 0 0 0-4.7 4.702 5.526 5.526 0 0 0 .13 1.837 7.473 7.473 0 0 0-7.262 7.478c0 .362.029.723.072 1.085a.356.356 0 0 0 .347.304h32.865c.188 0 .362-.13.42-.319l.245-.882Zm5.671-11.443c-.159 0-.333 0-.492.015-.116 0-.217.087-.26.202l-.695 2.416c-.304 1.041-.188 1.996.318 2.705.463.65 1.244 1.027 2.185 1.07l3.79.232c.115 0 .217.058.274.145a.407.407 0 0 1 .044.318.49.49 0 0 1-.42.318l-3.949.231c-2.141.102-4.44 1.823-5.251 3.935l-.289.738c-.058.144.044.289.203.289h13.568a.356.356 0 0 0 .347-.26 9.865 9.865 0 0 0 .362-2.633c0-5.352-4.369-9.72-9.735-9.72Z" fill="#5E6E8C"/><path fill-rule="evenodd" clip-rule="evenodd" d="M186.285 70.998c-.629-.527-1.701-.79-3.219-.79h-3.423v10.551h2.56v-3.307h1.146c1.392 0 2.412-.305 3.061-.917.732-.685 1.1-1.597 1.1-2.736 0-1.181-.408-2.115-1.225-2.8Zm-3 4.066h-1.082v-2.469h.972c1.184 0 1.776.414 1.776 1.242 0 .818-.556 1.227-1.666 1.227Zm8.605-4.857h-2.669v10.552h5.762V78.37h-3.093v-8.163Zm8.322 0-4.192 10.552h2.873l.55-1.534h3.643l.502 1.534h2.906l-4.163-10.552h-2.119Zm-.031 6.881 1.099-3.606 1.083 3.606h-2.183.001Z" fill="#5E6E8C"/><mask id="a" mask-type="alpha" maskUnits="userSpaceOnUse" x="146" y="61" width="76" height="29"><path d="M146.889 89.509h74.929v-28.16h-74.929v28.16Z" fill="#fff"/></mask><g mask="url(#a)"><path fill-rule="evenodd" clip-rule="evenodd" d="M207.827 80.758h2.67V70.207h-2.67v10.552Zm13.034-8.573a4.399 4.399 0 0 0-1.273-1.218c-.806-.507-1.905-.76-3.298-.76h-3.516V80.76h4.114c1.486 0 2.679-.485 3.579-1.456.901-.97 1.35-2.257 1.35-3.86 0-1.275-.319-2.362-.957-3.258h.001Zm-4.272 6.185h-1.146v-5.774h1.162c.817 0 1.444.255 1.884.763.44.508.66 1.23.66 2.163 0 1.899-.853 2.848-2.56 2.848Zm-58.617-17.022-8.651 2.26-2.384 8.678 2.982 3.054-3.03 3.003 2.243 8.716 8.614 2.4 3.03-3.004 2.982 3.054 8.651-2.26 2.383-8.679-2.981-3.052 3.03-3.004-2.244-8.716-8.614-2.4-3.03 3.003-2.981-3.053Zm-5.309 3.93 4.557-1.192 1.993 2.04-2.906 2.881-3.644-3.73Zm10.004.876 2.025-2.007 4.537 1.265-3.703 3.67-2.859-2.928Zm-13 5.42 1.255-4.571 3.643 3.73-2.906 2.88-1.992-2.04Zm17.571-.738 3.703-3.671 1.181 4.591-2.024 2.008-2.86-2.928Zm-9.219-.075 2.906-2.88 2.859 2.927-2.906 2.88-2.859-2.927Zm-4.647 4.606 2.906-2.88 2.86 2.927-2.906 2.88-2.86-2.927Zm9.22.075 2.905-2.88 2.86 2.928-2.907 2.88-2.858-2.928Zm-12.986 3.659 2.026-2.008 2.858 2.928-3.701 3.67-1.183-4.59Zm8.338.947 2.907-2.88 2.859 2.928-2.906 2.88-2.86-2.928Zm9.219.076 2.906-2.88 1.993 2.04-1.255 4.57-3.644-3.73Zm-14.662 5.321 3.702-3.671 2.86 2.928-2.025 2.008-4.537-1.265Zm10.016-.715 2.905-2.88 3.643 3.73-4.556 1.19-1.992-2.04Z" fill="#5E6E8C"/></g><path d="M325.915 22.108c-2.457 0-4.479 1.955-4.479 4.357 0 2.457 1.955 4.48 4.411 4.48 2.457 0 4.479-1.955 4.479-4.412.068-2.402-1.954-4.425-4.411-4.425Zm-9.922-9.623c-2.389-.068-4.479 1.778-4.533 4.235v.122c-.068 2.457 1.832 4.534 4.289 4.601 2.457.068 4.533-1.832 4.601-4.289.068-2.456-1.832-4.533-4.289-4.601-.014-.068-.014-.068-.068-.068Zm-.122 9.623c-2.389 0-4.411 1.955-4.411 4.357v.123c0 2.456 2.022 4.41 4.479 4.41 2.457-.067 4.411-2.021 4.411-4.478s-2.036-4.412-4.479-4.412Zm20.102-.8c2.457 0 4.411-2.023 4.357-4.48-.068-2.456-2.023-4.41-4.479-4.356a4.37 4.37 0 0 0-4.357 4.357v.122c.068 2.47 2.022 4.425 4.479 4.357Zm-10.112-9.556a4.372 4.372 0 0 0 4.479-4.235v-.122a4.355 4.355 0 0 0-4.357-4.479 4.355 4.355 0 0 0-4.479 4.357c-.054 2.403 1.9 4.425 4.357 4.48Zm10.112 0c2.457 0 4.411-1.954 4.411-4.357v-.068a4.385 4.385 0 0 0-4.411-4.41 4.405 4.405 0 0 0-4.411 4.424c-.068 2.389 1.954 4.411 4.411 4.411Zm-20.102-8.877a4.385 4.385 0 0 0-4.411 4.412c-.068 2.389 1.9 4.41 4.289 4.41h.122a4.355 4.355 0 0 0 4.479-4.356v-.054c-.013-2.457-2.036-4.412-4.479-4.412Zm.054 7.588a3.188 3.188 0 0 1-3.189-3.068v-.108a3.168 3.168 0 0 1 3.189-3.19 3.17 3.17 0 0 1 3.19 3.19 3.2 3.2 0 0 1-3.19 3.176Zm19.98 11.713a4.385 4.385 0 0 0-4.411 4.412c-.068 2.389 1.9 4.41 4.289 4.41h.122a4.355 4.355 0 0 0 4.479-4.356v-.068c0-2.443-2.022-4.466-4.479-4.398Zm0 7.588a3.189 3.189 0 0 1-3.19-3.068v-.122a3.17 3.17 0 0 1 3.19-3.19 3.17 3.17 0 0 1 3.19 3.19c.054 1.724-1.358 3.135-3.19 3.19Zm-56.192-11.877c-3.557-.068-6.502 2.7-6.556 6.243v.312c-.122 3.61 2.701 6.556 6.243 6.624h.313c3.61 0 6.555-2.945 6.555-6.556 0-3.624-2.945-6.623-6.555-6.623Zm0 10.356c-1.955 0-3.434-1.656-3.434-3.733 0-2.076 1.466-3.732 3.434-3.732 1.968 0 3.488 1.588 3.488 3.732 0 2.131-1.466 3.733-3.488 3.733Zm9.623-15.324c-.611 0-.977.312-.977.8v17.035h1.588a1.215 1.215 0 0 0 1.343-1.222V23.03h5.525a1.215 1.215 0 0 0 1.343-1.22v-1.59h-6.868v-4.479h7.045a.965.965 0 0 0 .977-.977v-1.846h-9.976Zm13.302 5.456c-.557 0-.978.367-1.046.923v11.456h1.955c.556 0 1.045-.434 1.045-.977V18.375h-1.954Zm.488-5.823c-1.045 0-1.832.856-1.832 1.9 0 1.046.855 1.833 1.9 1.833a1.833 1.833 0 0 0 1.832-1.832c0-1.045-.868-1.9-1.9-1.9Zm27.024 3.068a4.308 4.308 0 0 0-1.778-2.335c-.122-.068-.244-.19-.366-.244-.068-.068-.122-.068-.19-.122a2.729 2.729 0 0 0-.435-.19c-.312-.122-.556-.19-.855-.19-.611-.068-1.221-.068-1.778.122-.312.068-.556.19-.801.312-.678.367-1.289.855-1.71 1.534-.068.068-.068.122-.122.19-.434.679-.611 1.466-.679 2.267-.068 2.389 1.901 4.41 4.289 4.41h.123c2.456 0 4.479-1.954 4.479-4.356v-.068c.068-.475 0-.91-.177-1.33Zm-4.289 4.411c-1.71.068-3.067-1.29-3.122-3v-.122c0-1.71 1.412-3.067 3.068-3.067 1.71-.068 3.122 1.221 3.244 2.945.122 1.71-1.222 3.122-2.946 3.244h-.244Zm-60.604 0c-1.289-.488-2.579-1.1-2.579-2.456 0-.557.19-1.046.557-1.412.556-.489 1.221-.733 1.954-.679 2.756.068 2.579 2.878 2.579 2.878h2.023c.556 0 .977-.367 1.045-.923 0-.313-.068-.611-.19-.923-.068-.122-.977-3.733-5.511-3.855-1.588-.068-3.122.556-4.289 1.656-.855.8-1.289 1.954-1.289 3.19 0 3.61 2.877 4.6 5.945 5.632 1.167.435 2.755.923 2.755 2.634 0 .61-.19 1.167-.611 1.588-.556.556-1.344.855-2.144.855-2.023 0-3.312-1.344-3.312-3.434v-.122h-3.244v.122c0 .312 0 .61.068.855v.068c0 .19.068.366.122.556v.068c.068.19.122.367.122.557.122.366.312.678.489 1.045.067.19.19.312.312.488.068.19.122.313.244.435l.367.366c.122.122.244.245.366.312l.434.313c.313.19.611.366.923.488.245.122.367.245.557.245l.488.122h.068c.19.067.313.067.489.122h.068c.19 0 .366.068.488.068h.557a6.543 6.543 0 0 0 4.778-1.778 5.156 5.156 0 0 0 1.411-3.733c0-3.312-3.366-4.533-6.121-5.456l.081.108Zm-111.535 2.776a5.875 5.875 0 0 0 1.208 1.979 5.186 5.186 0 0 0 1.828 1.257 5.96 5.96 0 0 0 2.297.436c.805 0 1.56-.15 2.264-.452a5.58 5.58 0 0 0 1.845-1.275 5.789 5.789 0 0 0 1.224-1.962c.29-.76.436-1.61.436-2.549V5.752h3.521V29.23h-3.488v-2.18a8.081 8.081 0 0 1-2.767 1.911 8.77 8.77 0 0 1-3.437.671c-1.253 0-2.421-.218-3.505-.654a8.206 8.206 0 0 1-2.818-1.861c-.793-.805-1.419-1.772-1.878-2.902-.458-1.129-.687-2.386-.687-3.773V5.752h3.521v14.49c0 .938.146 1.793.436 2.565Zm20.694-17.055v8.552a8.97 8.97 0 0 1 2.716-1.861c1.029-.459 2.147-.688 3.354-.688 1.253 0 2.426.235 3.522.704a8.997 8.997 0 0 1 2.851 1.912 9.006 9.006 0 0 1 1.912 2.851 8.771 8.771 0 0 1 .704 3.488 8.65 8.65 0 0 1-.704 3.471 9.054 9.054 0 0 1-1.912 2.834 8.993 8.993 0 0 1-2.851 1.912 8.85 8.85 0 0 1-3.522.705 8.264 8.264 0 0 1-3.37-.688 8.913 8.913 0 0 1-2.734-1.861v2.146h-3.354V5.752h3.388Zm.385 17.272a5.849 5.849 0 0 0 1.258 1.879 6.079 6.079 0 0 0 1.878 1.274c.716.313 1.487.47 2.315.47.805 0 1.565-.157 2.28-.47a5.868 5.868 0 0 0 1.862-1.274 6.226 6.226 0 0 0 1.257-1.879 5.71 5.71 0 0 0 .47-2.314 5.83 5.83 0 0 0-.47-2.33 6.17 6.17 0 0 0-1.257-1.896 5.652 5.652 0 0 0-1.862-1.257 5.803 5.803 0 0 0-2.28-.453c-.805 0-1.566.15-2.281.453a5.826 5.826 0 0 0-1.878 1.257 6.01 6.01 0 0 0-1.275 1.895 5.829 5.829 0 0 0-.469 2.331c0 .828.151 1.599.452 2.314Zm16.585-5.768a9.15 9.15 0 0 1 1.845-2.834 8.579 8.579 0 0 1 2.784-1.928c1.073-.47 2.236-.704 3.488-.704 1.23 0 2.37.223 3.421.67a8.122 8.122 0 0 1 2.717 1.862 8.516 8.516 0 0 1 1.777 2.817c.425 1.085.637 2.264.637 3.538v1.107h-13.918a5.802 5.802 0 0 0 1.928 3.471 5.74 5.74 0 0 0 1.711 1.023 5.584 5.584 0 0 0 2.029.37c2.035 0 3.678-.839 4.93-2.516l2.449 1.811a9.115 9.115 0 0 1-3.153 2.683c-1.252.649-2.661.973-4.226.973a9.447 9.447 0 0 1-3.572-.671 8.693 8.693 0 0 1-2.884-1.878 8.92 8.92 0 0 1-1.929-2.834c-.469-1.085-.704-2.264-.704-3.539 0-1.207.223-2.347.67-3.42Zm4.713-1.324c-.951.793-1.582 1.85-1.895 3.169h10.431c-.291-1.32-.912-2.376-1.862-3.17-.95-.793-2.063-1.19-3.337-1.19-1.275 0-2.387.397-3.337 1.19Zm18.295.384c-.716.782-1.073 1.844-1.073 3.186v9.726h-3.388V12.123h3.354v2.113a4.768 4.768 0 0 1 1.66-1.643c.682-.403 1.493-.604 2.432-.604h1.174v3.153h-1.409c-1.118 0-2.035.391-2.75 1.174ZM14.083 67.764 7.04 72.262l7.042 4.498-7.042 4.498L0 76.736l7.041-4.498L0 67.764l7.041-4.499 7.042 4.499ZM7.005 82.705l7.041-4.498 7.041 4.498-7.04 4.499-7.042-4.499Zm7.078-5.97 7.04-4.497-7.04-4.474 7.004-4.499 7.042 4.499-7.042 4.498 7.042 4.498-7.042 4.498-7.004-4.522Zm19.569-8.972h5.694c3.63 0 6.629 2.103 6.629 6.905v1.01c0 4.838-2.805 7.014-6.52 7.014h-5.803v-14.93Zm3.181 2.71v9.496h2.44c2.064 0 3.448-1.35 3.448-4.353v-.79c0-3.003-1.457-4.352-3.557-4.352h-2.33Zm10.83.147h2.549l.412 2.808c.486-1.909 1.724-2.93 3.97-2.93h.79v3.222h-1.312c-2.586 0-3.217.9-3.217 3.453v5.556H47.71v-12.11h-.049Zm8.352 6.297v-.34c0-4.049 2.585-6.261 6.106-6.261 3.593 0 6.106 2.212 6.106 6.26v.341c0 3.976-2.44 6.115-6.106 6.115-3.897-.036-6.107-2.127-6.107-6.115Zm8.995-.036v-.304c0-2.25-1.129-3.599-2.926-3.599-1.76 0-2.925 1.24-2.925 3.599v.304c0 2.176 1.129 3.416 2.925 3.416 1.797-.036 2.926-1.24 2.926-3.416Zm4.868-6.261h2.623l.303 2.285c.632-1.532 1.98-2.59 3.97-2.59 3.072 0 5.099 2.213 5.099 6.31v.34c0 3.976-2.246 6.08-5.099 6.08-1.906 0-3.217-.864-3.86-2.25v6.116h-3.072l.037-16.291Zm8.802 6.26v-.267c0-2.407-1.238-3.598-2.89-3.598-1.76 0-2.925 1.35-2.925 3.598v.231c0 2.14 1.129 3.49 2.89 3.49 1.808-.037 2.925-1.192 2.925-3.453Zm7.843 3.612-.267 2.212H83.56V66.571h3.072v6.188c.68-1.58 2.027-2.443 3.933-2.443 2.89.036 5.026 2.03 5.026 6.042v.377c0 4.012-2.027 6.31-5.099 6.31-2.027-.049-3.338-.985-3.97-2.553Zm5.839-3.757v-.304c0-2.213-1.202-3.453-2.89-3.453-1.723 0-2.925 1.386-2.925 3.49v.267c0 2.25 1.165 3.562 2.89 3.562 1.844 0 2.925-1.155 2.925-3.562Zm4.577.182v-.34c0-4.049 2.586-6.261 6.106-6.261 3.594 0 6.107 2.212 6.107 6.26v.341c0 3.976-2.477 6.115-6.107 6.115-3.897-.036-6.106-2.127-6.106-6.115Zm9.02-.036v-.304c0-2.25-1.129-3.599-2.926-3.599-1.76 0-2.926 1.24-2.926 3.599v.304c0 2.176 1.129 3.416 2.926 3.416 1.809-.036 2.926-1.24 2.926-3.416Zm7.308-.45-4.237-5.811h3.63l2.44 3.635 2.477-3.635h3.594l-4.298 5.774 4.528 6.31h-3.557l-2.768-4.012-2.695 4.012h-3.715l4.601-6.273Z" fill="#5E6E8C"/><path fill-rule="evenodd" clip-rule="evenodd" d="M286.507 85.474c-2.644 0-4.075-1.347-4.075-3.86v-7.371h-.923a1.674 1.674 0 0 1-1.171-.499 1.609 1.609 0 0 1-.466-1.166c.021-.875.747-1.575 1.637-1.58h.923v-2.196a1.9 1.9 0 0 1 1.902-1.734c.997 0 1.829.753 1.903 1.734v2.195h1.484a1.642 1.642 0 0 1 1.596 1.623 1.642 1.642 0 0 1-1.596 1.623h-1.484v6.374c0 1.113.716 1.548 1.309 1.548h.329c1.071 0 1.669.7 1.669 1.612 0 .912-.567 1.697-3.037 1.697Z" fill="#5E6E8C"/><path d="M298.408 85.474c-4.728 0-7.585-3.394-7.585-7.43 0-4.003 2.862-7.396 7.585-7.396 4.759 0 7.616 3.393 7.616 7.397a7.212 7.212 0 0 1-7.616 7.429Zm0-11.523c-2.353 0-3.657 1.899-3.657 4.094 0 2.195 1.309 4.13 3.657 4.13s3.689-1.898 3.689-4.13c0-2.195-1.341-4.094-3.689-4.094ZM319.376 85.3h-.297c-.297 0-1.638-.233-1.638-1.639-.98 1.14-2.671 1.814-4.548 1.814-2.289 0-4.998-1.522-4.998-4.682 0-3.304 2.709-4.56 4.998-4.56 1.909 0 3.599.614 4.548 1.723V76.05c0-1.432-1.251-2.37-3.154-2.37a5.722 5.722 0 0 0-3.212.907 1.428 1.428 0 0 1-.683.206 1.442 1.442 0 0 1-1.431-1.431c.004-.258.075-.51.206-.732.891-1.405 4.103-1.989 5.767-1.989 3.27 0 6.276 1.289 6.276 5.35v7.462a1.843 1.843 0 0 1-1.845 1.84l.011.005Zm-1.935-5.324c-.625-.817-1.813-1.23-3.032-1.23-1.489 0-2.708.753-2.708 2.137 0 1.315 1.219 2.078 2.708 2.078 1.219 0 2.407-.408 3.032-1.23v-1.755Z" fill="#5E6E8C"/><path fill-rule="evenodd" clip-rule="evenodd" d="M330.145 85.474c-1.871 0-4.876-.615-5.766-1.877a1.26 1.26 0 0 1-.266-.79 1.594 1.594 0 0 1 1.575-1.549c.275 0 .54.074.773.218 1.129.641 2.619 1.14 3.864 1.14 1.638 0 2.412-.642 2.412-1.522 0-2.339-8.539-.44-8.539-5.997 0-2.37 2.115-4.444 5.889-4.444 1.871 0 4.431.588 5.236 1.723.155.21.238.462.239.721a1.466 1.466 0 0 1-1.484 1.406 1.54 1.54 0 0 1-.716-.175 6.674 6.674 0 0 0-3.249-.849c-1.367 0-2.258.615-2.258 1.405 0 2.106 8.507.35 8.507 6.05 0 2.578-2.231 4.535-6.217 4.535v.005Zm13.828 0c-2.644 0-4.075-1.347-4.075-3.86v-7.371h-.923a1.674 1.674 0 0 1-1.171-.499 1.608 1.608 0 0 1-.466-1.166c.021-.875.747-1.575 1.637-1.58h.923v-2.196a1.907 1.907 0 0 1 1.902-1.734c.997 0 1.829.753 1.903 1.734v2.195h1.49a1.642 1.642 0 0 1 1.595 1.623 1.64 1.64 0 0 1-1.595 1.623h-1.49v6.374c0 1.113.716 1.548 1.309 1.548h.329c1.071 0 1.664.7 1.664 1.612 0 .912-.562 1.697-3.037 1.697h.005Z" fill="#5E6E8C"/><path d="M277.45 79.662a40.646 40.646 0 0 0-.206-4.682c-.117-1.05-.472-2.397-1.612-2.672a.797.797 0 0 0 .446-.016c1.319-.69 1.219-2.392.752-3.622-.615-1.612-2.072-2.757-3.519-3.516a17.962 17.962 0 0 0-17.157.61c-1.309.806-2.815 2.381-2.152 4.136.18.437.445.834.779 1.167l.498.52c-.673.912-1.166 1.739-1.484 2.847-.954 3.34-.795 5.488-.535 8.171.164 1.66.71 4.131 2.624 4.407 1.558.217 3.249-.297 4.807-.483 1.717-.201 3.45-.52 5.189-.471 2.449.063 4.876.641 7.33.668 1.293.01 3.445.138 3.832-1.57.366-1.623.382-3.309.382-4.963.021-.175.021-.356.021-.525l.005-.006Zm-2.798 2.806c-.61 1.373-2.332 1.22-3.536 1.118l-5.379-.641c-1.601-.048-3.186.254-4.744.599-1.166.255-2.793.928-3.848.032-1.171-.992-1.378-2.683-1.394-4.11.022-1.288.15-2.572.382-3.839a10.99 10.99 0 0 1 .683-2.28c.419-1.06 1.039-1.702 1.071-1.67-.313-.324-.689-.499-.901-.939-.8-1.67 1.198-3.086 2.29-3.569 3.821-1.707 9.164-1.537 12.773.653 1.124.684 3.308 3.033 1.267 4.205 1.256.594 1.58 2.386 1.717 3.658a22.206 22.206 0 0 1-.19 6.136c-.038.223-.104.44-.197.647h.006Z" fill="#5E6E8C"/></svg>