<svg width="76" height="73" viewBox="0 0 76 73" fill="none" xmlns="http://www.w3.org/2000/svg"><rect x=".5" width="75.305" height="73" rx="7.684" fill="url(#a)"/><g clip-path="url(#b)"><path d="M22.456 19.046c-1.32-.996-3.145-1.385-5.156-.929l-6.369 1.444v14.322l1.215.92 6.37-1.44c2.015-.457 3.839-1.677 5.157-3.273 1.318-1.595 2.134-3.568 2.134-5.546 0-1.979-.816-3.585-2.136-4.582l-1.215-.916Z" fill="#FF5543"/><path d="M21.242 18.126c-1.32-.996-3.14-1.386-5.154-.93l-6.372 1.445v14.328l1.215.917 6.369-1.444c2.01-.455 3.835-1.672 5.156-3.268 1.32-1.595 2.136-3.569 2.136-5.547 0-1.978-.818-3.583-2.136-4.579l-1.214-.922Z" fill="#A112FF"/><path d="M20.024 17.207c-1.319-.996-3.141-1.384-5.156-.927L8.5 17.724v14.327l1.216.918 6.37-1.444c2.013-.456 3.835-1.672 5.155-3.268 1.32-1.597 2.135-3.57 2.135-5.547 0-1.977-.816-3.585-2.134-4.584l-1.218-.92Z" fill="#00CBEC"/><path d="M14.868 16.282 8.5 17.724v14.327l6.368-1.444c2.015-.458 3.837-1.673 5.156-3.269 1.319-1.595 2.136-3.573 2.136-5.55 0-1.979-.816-3.583-2.136-4.581-1.32-.998-3.141-1.384-5.156-.925Z" fill="#fff"/><path d="M25.154 16.279v14.324l1.218.922 12.153-2.759v-4.393l-1.216-.917-1.216.275v-3.773l-.583-.441 3.015-.682v-4.393l-1.216-.92-12.155 2.757Z" fill="#FF5543"/><path d="M23.94 15.361v14.325l1.214.917 12.155-2.756v-4.391l-1.216-.92-1.214.275v-3.77l-.584-.442 3.014-.684v-4.394l-1.216-.918-12.153 2.758Z" fill="#A112FF"/><path d="M22.724 14.442v14.326l1.216.918 12.153-2.758v-4.391l-1.217-.92-1.213.276v-3.77l-.583-.443 3.013-.683v-4.394l-1.217-.916-12.152 2.755Z" fill="#00CBEC"/><path d="m22.724 28.768 12.152-2.756v-4.394l-7.29 1.655v-.576l4.861-1.102v-4.392l-4.862 1.103v-.572l7.291-1.655v-4.392l-12.152 2.755v14.326Z" fill="#fff"/><path d="m48.082 10.999-2.364 7.697-1.97-5.52-1.216-.918-5.124 1.161 5.541 13.069 1.216.918 4.714-1.069 5.543-15.581-1.215-.918-5.125 1.16Z" fill="#FF5543"/><path d="m46.867 10.082-2.364 7.693-1.971-5.516-1.216-.918-5.124 1.162 5.542 13.068 1.215.917 4.715-1.071 5.543-15.58-1.216-.916-5.124 1.16Z" fill="#A112FF"/><path d="m45.65 9.163-2.363 7.695-1.97-5.517-1.215-.921-5.126 1.162 5.543 13.068 1.215.92 4.717-1.071 5.54-15.578L50.776 8 45.65 9.163Z" fill="#00CBEC"/><path d="m42.875 18.196-2.773-7.776-5.126 1.162 5.543 13.068 4.715-1.073L50.775 8 45.65 9.163l-2.775 9.033Z" fill="#fff"/><path d="m12.884 21.006 1.482 5.21c.05.17.165.314.321.4a.695.695 0 0 0 .928-.242.65.65 0 0 0 .068-.503L14.2 20.658a.674.674 0 0 0-.322-.398.695.695 0 0 0-.513-.062.674.674 0 0 0-.413.305.649.649 0 0 0-.069.503Z" fill="#FF5543"/><path d="m15.632 20.97-3.723 4.029a.645.645 0 0 0-.172.48.636.636 0 0 0 .236.454.705.705 0 0 0 .965-.062l3.709-4.03a.641.641 0 0 0 .102-.73.648.648 0 0 0-.166-.204.686.686 0 0 0-.951.062Z" fill="#A112FF"/><path d="m11.416 23.22 5.293 1.681a.696.696 0 0 0 .518-.038.677.677 0 0 0 .342-.385.648.648 0 0 0-.2-.707.674.674 0 0 0-.23-.126l-5.292-1.68a.696.696 0 0 0-.52.037.676.676 0 0 0-.341.385.648.648 0 0 0 .201.707c.067.056.145.1.23.126Z" fill="#00CBEC"/><path d="M10.937 34.409v4.39l1.219.92 3.037-.687v8.736l1.215.92 4.86-1.104v-9.93l4.253-.966v-4.393l-1.213-.917-13.371 3.03Z" fill="#FF5543"/><path d="M9.722 33.492v4.39l1.215.918 3.04-.688v8.74l1.216.916 4.861-1.104v-9.93l4.254-.966v-4.39l-1.217-.918-13.369 3.032Z" fill="#A112FF"/><path d="M8.507 32.571v4.395l1.215.916 3.037-.686v8.735l1.218.921 4.862-1.104v-9.932l4.252-.965V30.46l-1.216-.92-13.368 3.031Z" fill="#00CBEC"/><path d="m8.507 36.965 4.252-.962v9.928l4.863-1.105V34.9l4.253-.966v-4.393L8.507 32.57v4.395Z" fill="#fff"/><path d="M37.117 30.62c-1.372-1.037-3.27-1.44-5.362-.965-2.094.474-3.994 1.738-5.362 3.397-1.367 1.659-2.223 3.715-2.223 5.77 0 2.055.85 3.724 2.223 4.763l1.214.922c1.373 1.033 3.271 1.44 5.364.965 2.092-.475 3.989-1.744 5.362-3.397 1.373-1.653 2.219-3.717 2.219-5.774s-.848-3.724-2.219-4.762l-1.216-.919Z" fill="#FF5543"/><path d="M35.902 29.7c-1.373-1.034-3.27-1.439-5.363-.964-2.094.475-3.99 1.742-5.362 3.398-1.372 1.656-2.223 3.714-2.223 5.77 0 2.055.848 3.727 2.222 4.766l1.217.917c1.37 1.037 3.266 1.44 5.36.965 2.096-.474 3.992-1.738 5.364-3.398 1.371-1.66 2.218-3.714 2.218-5.77 0-2.055-.85-3.722-2.218-4.764l-1.215-.92Z" fill="#A112FF"/><path d="M34.685 28.784c-1.372-1.037-3.267-1.44-5.362-.965-2.096.476-3.99 1.737-5.362 3.397-1.372 1.66-2.223 3.713-2.223 5.77 0 2.057.848 3.727 2.223 4.765l1.216.919c1.372 1.035 3.266 1.44 5.362.966 2.096-.476 3.99-1.74 5.363-3.398 1.372-1.658 2.222-3.714 2.222-5.775 0-2.061-.85-3.723-2.222-4.762l-1.217-.917Z" fill="#00CBEC"/><path d="M29.323 27.819c-2.092.475-3.99 1.737-5.362 3.397-1.372 1.66-2.223 3.713-2.223 5.77 0 2.057.848 3.727 2.223 4.765 1.376 1.038 3.27 1.439 5.362.964 2.092-.474 3.994-1.737 5.362-3.396 1.369-1.659 2.22-3.715 2.22-5.772 0-2.057-.85-3.726-2.22-4.763-1.37-1.038-3.267-1.44-5.362-.965Z" fill="#fff"/><path d="M52.693 27.342c-1.372-1.037-3.27-1.44-5.363-.966-2.093.475-3.994 1.739-5.361 3.398-1.368 1.658-2.224 3.714-2.224 5.772 0 2.057.85 3.723 2.224 4.763l1.214.92c1.372 1.032 3.269 1.439 5.362.964 2.092-.474 3.99-1.743 5.362-3.396 1.373-1.653 2.22-3.717 2.22-5.774 0-2.058-.85-3.725-2.22-4.762l-1.214-.919Z" fill="#FF5543"/><path d="M51.477 26.422c-1.372-1.034-3.269-1.44-5.363-.964-2.094.475-3.99 1.74-5.362 3.398-1.372 1.658-2.222 3.713-2.222 5.769 0 2.055.848 3.727 2.222 4.767l1.217.917c1.37 1.036 3.266 1.44 5.361.965 2.095-.475 3.994-1.739 5.363-3.399 1.368-1.66 2.218-3.713 2.218-5.769s-.85-3.726-2.218-4.764l-1.216-.92Z" fill="#A112FF"/><path d="M50.26 25.505c-1.371-1.036-3.267-1.44-5.362-.964s-3.989 1.737-5.361 3.396c-1.373 1.66-2.223 3.713-2.223 5.77 0 2.058.848 3.727 2.223 4.765l1.215.92c1.372 1.035 3.266 1.44 5.362.965s3.99-1.74 5.363-3.398c1.373-1.658 2.224-3.713 2.224-5.774s-.85-3.723-2.222-4.762l-1.218-.918Z" fill="#00CBEC"/><path d="M44.898 24.54c-2.092.476-3.989 1.738-5.361 3.397-1.373 1.66-2.223 3.713-2.223 5.77 0 2.058.848 3.727 2.223 4.765 1.375 1.038 3.269 1.44 5.361.965 2.093-.475 3.994-1.737 5.363-3.396 1.368-1.66 2.219-3.715 2.219-5.772 0-2.058-.849-3.726-2.22-4.764-1.37-1.037-3.267-1.44-5.362-.964Z" fill="#fff"/><path d="M12.317 49.047v4.391l1.22.92 3.036-.688v8.737l1.215.92 4.86-1.104v-9.93l4.254-.966v-4.394l-1.214-.917-13.371 3.031Z" fill="#FF5543"/><path d="M11.102 48.13v4.39l1.215.918 3.04-.687v8.74l1.216.916 4.861-1.104v-9.93l4.254-.966v-4.39l-1.217-.919-13.369 3.032Z" fill="#A112FF"/><path d="M9.888 47.21v4.394l1.214.916 3.038-.685v8.735l1.217.92 4.862-1.103v-9.933l4.252-.965V45.1l-1.215-.92-13.368 3.03Z" fill="#00CBEC"/><path d="m9.888 51.604 4.252-.962v9.928l4.863-1.105V49.54l4.253-.966V44.18L9.888 47.21v4.394Z" fill="#fff"/><path d="M61.43 33.106v-8.739l-1.215-.919-4.863 1.103v14.324l1.217.922 10.33-2.343v-4.396l-1.215-.915-4.254.963Z" fill="#FF5543"/><path d="M60.215 32.186v-8.738l-1.217-.919-4.863 1.1v14.33l1.217.916 10.332-2.343v-4.39l-1.217-.92-4.252.964Z" fill="#A112FF"/><path d="M58.998 31.269v-8.74l-1.215-.916-4.86 1.102V37.04l1.212.919 10.332-2.344v-4.393l-1.214-.919-4.255.966Z" fill="#00CBEC"/><path d="m57.782 21.613-4.86 1.102V37.04l10.33-2.341v-4.395l-5.47 1.239v-9.93Z" fill="#fff"/><path d="M26.21 45.936v14.332l1.216.92 4.864-1.102V45.751l-1.216-.918-4.864 1.103Z" fill="#FF5543"/><path d="M24.995 45.017v14.335l1.215.916 4.864-1.102V44.833l-1.215-.92-4.864 1.104Z" fill="#A112FF"/><path d="M23.78 44.097v14.335l1.215.92 4.864-1.104V43.913l-1.217-.917-4.863 1.101Z" fill="#00CBEC"/><path d="m23.78 58.432 4.862-1.102V42.996l-4.863 1.101v14.335Z" fill="#fff"/><path d="m43.255 42.19-3.02 7.386-2.485-4.942-1.215-.919-4.991 1.133v14.325l1.216.919 4.861-1.106v-3.584l1.121.85 4.652-1.056v1.287l1.217.92 4.86-1.102V41.976l-1.215-.916-5.002 1.13Z" fill="#FF5543"/><path d="m42.037 41.274-3.017 7.383-2.485-4.942-1.216-.917-4.991 1.133v14.325l1.216.916 4.859-1.102v-3.583l1.121.844 4.654-1.055v1.29l1.216.917 4.862-1.101V41.06l-1.216-.92-5.003 1.134Z" fill="#A112FF"/><path d="m40.822 40.354-3.017 7.383-2.486-4.939-1.214-.92-4.992 1.132v14.324l1.214.922 4.862-1.103v-3.586l1.122.848 4.652-1.055v1.286l1.215.92 4.862-1.1V40.14l-1.218-.919-5 1.133Z" fill="#00CBEC"/><path d="m37.466 48.565-3.36-6.687-4.993 1.132v14.324l4.86-1.104v-4.967l1.121 2.235 4.747-1.076 1.122-2.739v4.963l4.859-1.102V39.221l-5 1.133-3.356 8.21Z" fill="#fff"/><path d="M48.576 40.991v14.325l1.218.92 12.153-2.757v-4.393l-1.216-.917-1.216.274V44.67l-.583-.44 3.015-.683v-4.393l-1.216-.92-12.155 2.757Z" fill="#FF5543"/><path d="M47.361 40.074v14.325l1.216.917 12.154-2.757v-4.39l-1.216-.92-1.215.275v-3.77l-.583-.443 3.014-.683v-4.394l-1.216-.918-12.154 2.758Z" fill="#A112FF"/><path d="M46.146 39.155V53.48l1.215.918 12.154-2.758v-4.39l-1.217-.92-1.213.276v-3.771l-.583-.442 3.013-.683v-4.394l-1.217-.916-12.152 2.755Z" fill="#00CBEC"/><path d="m46.146 53.48 12.152-2.755V46.33l-7.29 1.655v-.575l4.861-1.102v-4.392l-4.862 1.103v-.572l7.291-1.655V36.4l-12.152 2.755V53.48Z" fill="#fff"/></g><defs><linearGradient id="a" x1="-5" y1="94" x2="113.147" y2="36.863" gradientUnits="userSpaceOnUse"><stop stop-color="#1C23D7"/><stop offset="1" stop-color="#8E35F4"/></linearGradient><clipPath id="b"><path fill="#fff" transform="translate(8.5 8)" d="M0 0h58.4v55.326H0z"/></clipPath></defs></svg>