<svg width="174" height="126" viewBox="0 0 174 126" fill="none" xmlns="http://www.w3.org/2000/svg"><g filter="url(#a)"><g clip-path="url(#b)"><path d="M13.28 12.78h146.44v92.72a5.72 5.72 0 0 1-5.72 5.72H13.28V12.78Z" fill="#0F111A"/><rect x="20.441" y="31.017" width="130.322" height="5.034" rx="1.678" fill="#5E6E8C"/><rect x="20.441" y="40.526" width="111.864" height="5.034" rx="1.678" fill="#5E6E8C"/><rect x="20.441" y="50.034" width="18.458" height="5.034" rx="1.678" fill="#5E6E8C"/><rect x="43.373" y="50.034" width="49.22" height="5.034" rx="1.678" fill="#5E6E8C"/><rect x="21.559" y="68.492" width="49.22" height="5.034" rx="1.678" fill="#5E6E8C"/><rect x="21.559" y="78.559" width="107.949" height="5.034" rx="1.678" fill="#5E6E8C"/><rect x="21.559" y="88.627" width="107.949" height="5.034" rx="1.678" fill="#5E6E8C"/><g filter="url(#c)"><rect x="74.136" y="42.763" width="75.678" height="55.492" rx="1.678" fill="#14171F"/><g clip-path="url(#d)"><path d="M82.499 53.43c.04.24.123.463.24.666h-2.603a.664.664 0 0 1-.667-.667v-5.333a.667.667 0 0 1 .667-.667h4a.667.667 0 0 1 .666.667v3.03a2.17 2.17 0 0 0-.333-.03 2.17 2.17 0 0 0-.333.03v-3.03h-1.667v2.667l-.833-.75-.834.75v-2.667h-.666v5.333h2.363Zm2.303-.667v-1h-.666v1h-1v.666h1v1h.666v-1h1v-.666h-1Z" fill="#DBE2F0"/></g><path d="M88.875 52.763h.487v-3.056h.043l2.139 3.056h.478v-3.941h-.487v3.067h-.043l-2.139-3.067h-.478v3.94Zm5.301.052c.839 0 1.358-.58 1.358-1.522v-.005c0-.945-.52-1.521-1.358-1.521-.838 0-1.357.576-1.357 1.52v.006c0 .943.519 1.522 1.357 1.522Zm0-.421c-.557 0-.87-.407-.87-1.1v-.006c0-.696.313-1.1.87-1.1.558 0 .872.404.872 1.1v.005c0 .694-.314 1.101-.872 1.101Zm3.141.39c.093 0 .183-.01.276-.027v-.404a1.983 1.983 0 0 1-.219.011c-.305 0-.426-.14-.426-.486v-1.666h.645v-.393h-.645v-.762h-.491v.762h-.464v.393h.464v1.786c0 .563.254.787.86.787Zm2.144.03c.694 0 1.114-.393 1.215-.791l.006-.022h-.475l-.011.024c-.08.178-.325.366-.724.366-.524 0-.86-.355-.874-.964h2.119v-.185c0-.88-.486-1.475-1.286-1.475s-1.32.622-1.32 1.532v.003c0 .923.509 1.513 1.35 1.513Zm-.033-2.624c.434 0 .757.276.806.858h-1.628c.052-.56.385-.858.822-.858Zm2.027 3.556h.475v-1.448h.044c.161.314.513.517.917.517.749 0 1.235-.598 1.235-1.522v-.005c0-.918-.489-1.521-1.235-1.521-.409 0-.737.194-.917.521h-.044v-.47h-.475v3.928Zm1.327-1.352c-.535 0-.863-.42-.863-1.1v-.006c0-.68.328-1.1.863-1.1.538 0 .858.414.858 1.1v.005c0 .686-.32 1.101-.858 1.101Zm2.895.42c.396 0 .705-.172.89-.486h.044v.435h.475v-2.016c0-.612-.401-.98-1.12-.98-.628 0-1.076.311-1.152.773l-.003.016h.475l.003-.008c.077-.23.309-.36.661-.36.44 0 .661.196.661.56v.267l-.844.052c-.685.04-1.073.344-1.073.868v.006c0 .535.423.874.983.874Zm-.497-.884v-.006c0-.292.196-.45.644-.478l.787-.049v.268c0 .42-.352.737-.836.737-.341 0-.595-.175-.595-.472Zm3.862.885c.409 0 .737-.194.917-.522h.044v.47h.475V48.65h-.475v1.633h-.044c-.161-.314-.513-.516-.917-.516-.749 0-1.235.598-1.235 1.52v.006c0 .918.489 1.522 1.235 1.522Zm.109-.421c-.538 0-.858-.415-.858-1.1v-.006c0-.686.32-1.1.858-1.1.535 0 .863.42.863 1.1v.005c0 .68-.328 1.101-.863 1.101Z" fill="#DBE2F0"/><rect x="78.136" y="58.763" width="67.678" height="7.831" rx="1.678" fill="#798BAF"/><rect x="78.136" y="69.949" width="67.678" height="7.831" rx="1.678" fill="#798BAF"/><rect x="78.136" y="81.779" width="67.678" height="12.475" rx="1.678" fill="#0B70DB"/><path d="M82.462 90.11c.839 0 1.461-.467 1.592-1.188v-.006h-.497l-.005.006c-.123.453-.54.734-1.09.734-.76 0-1.234-.62-1.234-1.606v-.005c0-.986.475-1.609 1.231-1.609.544 0 .965.32 1.096.825l.002.006h.495l.002-.006c-.117-.756-.764-1.278-1.595-1.278-1.07 0-1.737.792-1.737 2.062v.005c0 1.268.67 2.06 1.74 2.06Zm2.357-.093h.475v-1.825c0-.431.323-.718.776-.718.104 0 .194.011.292.027v-.461a1.595 1.595 0 0 0-.237-.02c-.4 0-.675.181-.787.49h-.044v-.437h-.475v2.944Zm3.25.052c.694 0 1.114-.394 1.215-.792l.006-.022h-.475l-.011.025c-.08.177-.325.365-.724.365-.524 0-.86-.355-.874-.964h2.12v-.185c0-.88-.487-1.475-1.287-1.475-.8 0-1.32.623-1.32 1.532v.003c0 .923.509 1.513 1.35 1.513Zm-.033-2.625c.434 0 .757.276.806.858h-1.628c.052-.56.385-.858.822-.858Zm2.835 2.625c.396 0 .705-.172.89-.486h.044v.434h.475V88c0-.611-.401-.98-1.12-.98-.628 0-1.075.311-1.152.773l-.003.016h.476l.002-.008c.077-.23.309-.36.661-.36.44 0 .661.196.661.56v.267l-.844.052c-.685.04-1.073.344-1.073.868v.006c0 .535.423.874.983.874Zm-.497-.885v-.006c0-.292.197-.45.645-.477l.786-.05v.268c0 .42-.352.737-.836.737-.341 0-.595-.174-.595-.472Zm3.82.855c.094 0 .184-.011.277-.028v-.404a2.046 2.046 0 0 1-.219.011c-.306 0-.426-.14-.426-.486v-1.666h.645v-.393h-.645v-.762h-.491v.762h-.465v.393h.465v1.786c0 .563.254.787.86.787Zm2.145.03c.693 0 1.114-.394 1.215-.792l.005-.022h-.475l-.01.025c-.08.177-.326.365-.724.365-.525 0-.86-.355-.874-.964h2.119v-.185c0-.88-.486-1.475-1.286-1.475s-1.32.623-1.32 1.532v.003c0 .923.508 1.513 1.35 1.513Zm-.033-2.625c.434 0 .756.276.806.858h-1.628c.052-.56.385-.858.822-.858Z" fill="#181B26"/><rect x="74.415" y="43.042" width="75.119" height="54.932" rx="1.398" stroke="#262B38" stroke-width=".559"/></g><path d="M13.28 12.78h146.44v92.72a5.72 5.72 0 0 1-5.72 5.72H13.28V12.78Z" stroke="#262B38" stroke-width=".559"/></g></g><defs><clipPath id="b"><path d="M13.5 13.5h146v92a6 6 0 0 1-6 6h-140v-98Z" fill="#fff"/></clipPath><clipPath id="d"><path fill="#fff" transform="translate(78.136 46.763)" d="M0 0h8v8H0z"/></clipPath><filter id="a" x="7.5" y="7.5" width="166" height="118" filterUnits="userSpaceOnUse" color-interpolation-filters="sRGB"><feFlood flood-opacity="0" result="BackgroundImageFix"/><feColorMatrix in="SourceAlpha" values="0 0 0 0 0 0 0 0 0 0 0 0 0 0 0 0 0 0 127 0" result="hardAlpha"/><feOffset dx="4" dy="4"/><feGaussianBlur stdDeviation="5"/><feComposite in2="hardAlpha" operator="out"/><feColorMatrix values="0 0 0 0 0 0 0 0 0 0 0 0 0 0 0 0 0 0 0.1 0"/><feBlend in2="BackgroundImageFix" result="effect1_dropShadow_2263_13192"/><feBlend in="SourceGraphic" in2="effect1_dropShadow_2263_13192" result="shape"/></filter><filter id="c" x="68.542" y="39.407" width="86.864" height="66.678" filterUnits="userSpaceOnUse" color-interpolation-filters="sRGB"><feFlood flood-opacity="0" result="BackgroundImageFix"/><feColorMatrix in="SourceAlpha" values="0 0 0 0 0 0 0 0 0 0 0 0 0 0 0 0 0 0 127 0" result="hardAlpha"/><feMorphology radius="3.356" in="SourceAlpha" result="effect1_dropShadow_2263_13192"/><feOffset dy="2.237"/><feGaussianBlur stdDeviation="4.475"/><feColorMatrix values="0 0 0 0 0.141522 0 0 0 0 0.159783 0 0 0 0 0.21 0 0 0 0.2 0"/><feBlend in2="BackgroundImageFix" result="effect1_dropShadow_2263_13192"/><feBlend in="SourceGraphic" in2="effect1_dropShadow_2263_13192" result="shape"/></filter></defs></svg>