<?xml version="1.0" encoding="UTF-8" standalone="no"?>
<svg width="119px" height="22px" viewBox="0 0 119 22" version="1.1" xmlns="http://www.w3.org/2000/svg" xmlns:xlink="http://www.w3.org/1999/xlink">
    <!-- Generator: sketchtool 39.1 (31720) - http://www.bohemiancoding.com/sketch -->
    <title>6C3F0B1F-8A2A-4E98-9B5B-D777437A9EE8</title>
    <desc>Created with sketchtool.</desc>
    <defs>
        <rect id="path-1" x="91" y="28" width="320" height="691"></rect>
        <filter x="-50%" y="-50%" width="200%" height="200%" filterUnits="objectBoundingBox" id="filter-3">
            <feOffset dx="0" dy="4" in="SourceAlpha" result="shadowOffsetOuter1"></feOffset>
            <feGaussianBlur stdDeviation="6" in="shadowOffsetOuter1" result="shadowBlurOuter1"></feGaussianBlur>
            <feColorMatrix values="0 0 0 0 0   0 0 0 0 0   0 0 0 0 0  0 0 0 0.112347147 0" type="matrix" in="shadowBlurOuter1"></feColorMatrix>
        </filter>
    </defs>
    <g id="Page-1" stroke="none" stroke-width="1" fill="none" fill-rule="evenodd">
        <g id="Homepage---Mobile" transform="translate(-31.000000, -2399.000000)">
            <g id="Testimonials" transform="translate(-91.000000, 2172.000000)">
                <rect id="Rectangle-7" fill="#B114F7" x="0" y="0" width="471" height="759"></rect>
                <mask id="mask-2" fill="white">
                    <use xlink:href="#path-1"></use>
                </mask>
                <g id="Grey-Background">
                    <use fill="black" fill-opacity="1" filter="url(#filter-3)" xlink:href="#path-1"></use>
                    <use fill="#FFFFFF" fill-rule="evenodd" xlink:href="#path-1"></use>
                </g>
            </g>
            <g id="Logos" transform="translate(31.000000, 2355.000000)" fill="#333436">
                <g id="Dailymotion_logo_(2015)" transform="translate(0.000000, 43.000000)">
                    <g id="svg2">
                        <g id="g10" transform="translate(59.500000, 11.586425) scale(1, -1) translate(-59.500000, -11.586425) translate(0.000000, 0.586425)">
                            <g id="g12">
                                <path d="M100.674302,6.828728 C102.216335,6.828728 103.47144,8.13327672 103.47144,9.74668939 C103.47144,11.3826587 102.216335,12.6870559 100.674302,12.6870559 C99.1322688,12.6870559 97.8771644,11.3826587 97.8771644,9.74668939 C97.8771644,8.13327672 99.1540821,6.828728 100.674302,6.828728 L100.674302,6.828728 Z M96.2470389,14.1462092 C97.4358644,15.3398858 98.9997109,16.0030302 100.608023,16.0030302 C102.326241,16.0030302 103.801995,15.4059814 104.99166,14.2788212 C106.246764,13.0851446 106.930527,11.449091 106.930527,9.83535 C106.930527,8.04470031 106.335695,6.56334396 105.146031,5.36973467 C103.934553,4.15382972 102.436146,3.51290526 100.652489,3.51290526 C98.8461788,3.51290526 97.3922377,4.13176139 96.18076,5.41393868 C95.0347222,6.60770795 94.440729,8.13327672 94.440729,9.79097759 C94.440729,11.449091 95.0791878,12.9743399 96.2470389,14.1462092 L96.2470389,14.1462092 Z" id="path14"></path>
                                <path d="M75.1742061,6.828728 C76.7160716,6.828728 77.9716794,8.13327672 77.9716794,9.74668939 C77.9716794,11.3826587 76.7160716,12.6870559 75.1742061,12.6870559 C73.6323407,12.6870559 72.3768168,11.3826587 72.3768168,9.74668939 C72.3768168,8.13327672 73.6544896,6.828728 75.1742061,6.828728 L75.1742061,6.828728 Z M70.7466074,14.1462092 C71.9361041,15.3398858 73.4999506,16.0030302 75.1080111,16.0030302 C76.8264805,16.0030302 78.302151,15.4059814 79.4914798,14.2788212 C80.7470876,13.0851446 81.4303476,11.449091 81.4303476,9.83535 C81.4303476,8.04470031 80.8354315,6.56334396 79.6460188,5.36973467 C78.4342054,4.15382972 76.93647,3.51290526 75.152225,3.51290526 C73.3457473,3.51290526 71.8922257,4.13176139 70.6804124,5.41393868 C69.5352136,6.60770795 68.9402975,8.13327672 68.9402975,9.79097759 C68.9402975,11.449091 69.5793436,12.9743399 70.7466074,14.1462092 L70.7466074,14.1462092 Z" id="path16"></path>
                                <polyline id="path18" points="32.8853278 3.84515943 36.3435766 3.84515943 36.3435766 20.287788 32.8853278 19.564021 32.8853278 3.84515943"></polyline>
                                <polygon id="path20" points="27.6051643 3.84640557 31.0634717 3.84640557 31.0634717 15.7175817 27.6051643 15.7175817"></polygon>
                                <path d="M29.3343725,21.3289818 C28.1625783,21.3289818 27.2125247,20.3756066 27.2125247,19.1996116 C27.2125247,18.0236165 28.1625783,17.0703255 29.3343725,17.0703255 C30.5060829,17.0703255 31.4561365,18.0236165 31.4561365,19.1996116 C31.4561365,20.3756066 30.5060829,21.3289818 29.3343725,21.3289818" id="path22"></path>
                                <polyline id="path24" points="43.5348378 8.79819764 41.3101318 15.7175144 37.4553003 15.7175144 41.7948068 4.57590644 40.1135039 0 43.6158827 0 49.7906437 15.7175144 46.0458855 15.7175144 43.5348378 8.79819764"></polyline>
                                <path d="M6.54215588,6.97380976 C4.75792774,6.97380976 3.48036407,8.23398608 3.48036407,9.89193113 C3.48036407,11.4835281 4.75792774,12.832045 6.409984,12.832045 C8.04005076,12.832045 9.29557459,11.5498762 9.29557459,9.84772712 C9.29557459,8.21174936 8.04005076,6.97380976 6.54215588,6.97380976 L6.54215588,6.97380976 Z M11.7170199,9.82743538 C11.7170199,11.1374738 12.034068,12.3662611 12.64375,13.4622679 L12.64375,20.3202884 L9.16343627,19.5966057 L9.16343627,14.423642 C8.37043013,15.4405868 7.2690509,15.9269151 5.83725874,15.9269151 C4.33939742,15.9269151 2.99572265,15.3743229 1.89437697,14.2911142 C0.660855224,13.0973533 0,11.5719361 0,9.86970283 C0,8.01279764 0.704868613,6.42119229 2.07056141,5.20528733 C3.10583792,4.27683474 4.33939742,3.81276 5.77118958,3.81276 C7.18092513,3.81276 8.23829181,4.18852776 9.27350959,5.20528733 L9.27350959,3.87899866 L12.64375,3.87899866 L12.64375,6.12665887 C12.0371722,7.23051297 11.7170199,8.47698184 11.7170199,9.82743538 L11.7170199,9.82743538 Z" id="path26"></path>
                                <path d="M68.2796059,13.1072045 C68.132366,13.7402901 67.8837782,14.2412689 67.5054851,14.6851613 C66.8478976,15.4567528 65.9217548,15.8198151 64.8065073,15.9157167 C63.9002482,15.9936842 63.1192477,15.8770698 62.3664368,15.4783075 C61.5517097,15.046708 60.6267414,14.0375094 60.6267414,14.0375094 C60.6267414,14.0375094 59.707562,15.938366 57.4076001,15.938366 C55.7843542,15.938366 54.793946,15.2470995 54.12864,14.1258333 L54.12864,15.7175144 L50.9787979,15.7175144 L50.9787979,3.84640557 L54.2829272,3.84640557 L54.2829272,10.0965325 C54.2829272,11.3973092 54.5845382,12.6884031 56.3346369,12.6884031 C57.8437824,12.6884031 57.9614065,11.4545639 57.9614065,10.4300413 L57.9614065,3.84640557 L61.3757769,3.84640557 L61.3757769,10.137116 C61.3757769,12.1417889 62.2441984,12.6878979 63.4408263,12.6878979 C64.4064009,12.6878979 65.0542562,12.2499835 65.0542562,10.4300413 L65.0542562,3.84640557 L68.4464777,3.84640557 L68.4464777,6.10890149 C67.8399838,7.22402972 67.5201671,8.47622406 67.5201671,9.81514245 C67.5201671,10.9737085 67.7877157,12.0907649 68.2796059,13.1072045" id="path28"></path>
                                <polyline id="path30" points="87.1081007 20.287788 83.5837408 19.564021 83.5837408 15.6570601 82.0858376 15.6570601 82.0858376 12.2213561 83.5837408 12.2213561 83.5837408 3.84640557 87.1081007 3.84640557 87.1081007 12.2213561 88.6719473 12.2213561 88.6719473 15.6570601 87.1081007 15.6570601 87.1081007 20.287788"></polyline>
                                <path d="M91.9296813,17.0703255 C93.1017273,17.0703255 94.0514453,18.0236165 94.0514453,19.1996116 C94.0514453,20.3756066 93.1017273,21.3289818 91.9296813,21.3289818 C90.7576354,21.3289818 89.8079174,20.3756066 89.8079174,19.1996116 C89.8079174,18.0236165 90.7576354,17.0703255 91.9296813,17.0703255" id="path32"></path>
                                <path d="M93.6588057,12.8278351 L93.6588057,15.7175144 L90.200557,15.7175144 L90.200557,3.84640557 L93.6588057,3.84640557 L93.6588057,6.67825755 C93.2418359,7.63861281 93.0203469,8.68453019 93.0203469,9.79114599 C93.0203469,10.8531368 93.2435138,11.8807748 93.6588057,12.8278351" id="path34"></path>
                                <path d="M114.878962,15.9385344 C113.314277,15.9385344 112.213543,15.3195941 111.486153,14.1258333 L111.530619,15.7175144 L108.225902,15.7175144 L108.225902,3.84640557 L111.640525,3.84640557 L111.640525,10.2794108 C111.640525,11.871092 112.367076,12.6889925 113.732924,12.6889925 C115.07696,12.6889925 115.429329,11.9373559 115.429329,10.2794108 L115.429329,3.84640557 L118.909391,3.84640557 L118.909391,11.6721318 C118.909391,14.3911415 117.323731,15.9385344 114.878962,15.9385344" id="path36"></path>
                                <path d="M19.6797173,6.94104828 C21.1773689,6.94104828 22.4329766,8.17934993 22.4329766,9.81497406 C22.4329766,11.5173757 21.1773689,12.7992078 19.5474951,12.7992078 C17.8954724,12.7992078 16.6177996,11.4509434 16.6177996,9.85917807 C16.6177996,8.2012246 17.8954724,6.94104828 19.6797173,6.94104828 L19.6797173,6.94104828 Z M22.4109116,5.17252585 C21.3757022,4.15576627 20.3183439,3.77999851 18.9086168,3.77999851 C17.4768246,3.77999851 16.2432819,4.24444373 15.2081564,5.17252585 C13.8425592,6.38886021 13.1376537,7.98037295 13.1376537,9.83720236 C13.1376537,11.5390988 13.7983453,13.0646844 15.031888,14.2581927 C16.1332924,15.3415698 17.4768246,15.894162 18.9748118,15.894162 C20.4064361,15.894162 21.5079244,15.4080021 22.3009222,14.3908047 L22.3009222,15.717346 L25.7810681,15.717346 L25.7810681,3.84640557 L22.4109116,3.84640557 L22.4109116,5.17252585 L22.4109116,5.17252585 Z" id="path38"></path>
                            </g>
                        </g>
                    </g>
                </g>
            </g>
        </g>
    </g>
</svg>