<svg xmlns="http://www.w3.org/2000/svg" viewBox="0 0 119 22" xmlns:xlink="http://www.w3.org/1999/xlink"><defs><path id="b" d="M91 28h320v691H91z"/><filter id="a" width="200%" height="200%" x="-50%" y="-50%" filterUnits="objectBoundingBox"><feOffset dy="4" in="SourceAlpha" result="shadowOffsetOuter1"/><feGaussianBlur stdDeviation="6" in="shadowOffsetOuter1" result="shadowBlurOuter1"/><feColorMatrix values="0 0 0 0 0 0 0 0 0 0 0 0 0 0 0 0 0 0 0.112347147 0" in="shadowBlurOuter1"/></filter></defs><g fill="none" fill-rule="evenodd"><path fill="#B114F7" d="M-122-227h471v759h-471z"/><g transform="translate(-122 -227)"><use fill="#000" filter="url(#a)" xlink:href="#b"/><use fill="#FFF" xlink:href="#b"/></g><path fill="#333436" d="M100.6743 14.7577c1.542 0 2.797-1.3046 2.797-2.918 0-1.636-1.255-2.9403-2.797-2.9403-1.542 0-2.797 1.3044-2.797 2.9403 0 1.6134 1.2768 2.918 2.797 2.918zM96.247 7.4402c1.189-1.1937 2.7527-1.8568 4.361-1.8568 1.7182 0 3.194.597 4.3837 1.7242 1.255 1.1937 1.9388 2.8297 1.9388 4.4435 0 1.791-.5948 3.272-1.7845 4.466-1.2114 1.216-2.71 1.857-4.4935 1.857-1.8063 0-3.2603-.619-4.4717-1.901-1.146-1.194-1.74-2.719-1.74-4.377s.6384-3.183 1.8062-4.355zm-21.0728 7.3175c1.542 0 2.7975-1.3046 2.7975-2.918 0-1.636-1.2556-2.9403-2.7975-2.9403-1.542 0-2.7974 1.3044-2.7974 2.9403 0 1.6134 1.2777 2.918 2.7974 2.918zm-4.4276-7.3175C71.936 6.2465 73.5 5.5834 75.108 5.5834c1.7185 0 3.1942.597 4.3835 1.7242 1.2556 1.1937 1.9388 2.8297 1.9388 4.4435 0 1.791-.595 3.272-1.7843 4.466-1.2118 1.216-2.7095 1.857-4.4938 1.857-1.8065 0-3.26-.619-4.4718-1.901-1.1452-1.194-1.74-2.719-1.74-4.377s.639-3.183 1.8062-4.355zm-37.8613 10.301h3.4583V1.2986l-3.4583.7238v15.7188m-5.28-.0012h3.4582V5.8688h-3.4583M29.3344.2574c-1.1718 0-2.122.9534-2.122 2.1294s.9502 2.1293 2.122 2.1293c1.1717 0 2.1217-.953 2.1217-2.129S30.506.258 29.335.258m14.2 12.5304L41.31 5.869h-3.8547l4.3395 11.1415-1.6813 4.576h3.5024L49.79 5.869h-3.744l-2.5112 6.919M6.5422 14.6127c-1.7843 0-3.0618-1.2602-3.0618-2.918 0-1.5917 1.2775-2.9402 2.9296-2.9402 1.63 0 2.8856 1.282 2.8856 2.9843 0 1.636-1.2555 2.874-2.7534 2.874zm5.1748-2.8536c0-1.31.317-2.538.9268-3.634V1.267l-3.4804.723v5.173c-.793-1.017-1.8943-1.5034-3.326-1.5034-1.498 0-2.8417.5526-3.943 1.6358C.661 8.489 0 10.0144 0 11.7167c0 1.857.705 3.4485 2.0706 4.6644 1.0352.929 2.2688 1.393 3.7006 1.393 1.4097 0 2.467-.376 3.5023-1.392v1.327h3.3703V15.46c-.6066-1.104-.9268-2.3504-.9268-3.7008zM68.2796 8.48c-.1472-.633-.3958-1.134-.774-1.578-.6577-.7715-1.5838-1.1346-2.699-1.2305-.9064-.078-1.6874.0387-2.4402.4374-.8147.431-1.7397 1.441-1.7397 1.441s-.919-1.901-3.219-1.901c-1.6233 0-2.6138.691-3.279 1.812V5.869h-3.15V17.74h3.3042v-6.25c0-1.301.301-2.592 2.051-2.592 1.509 0 1.627 1.234 1.627 2.2584V17.74h3.414v-6.2907c0-2.0047.868-2.5508 2.065-2.5508.965 0 1.613.438 1.613 2.258V17.74h3.392v-2.2625c-.6066-1.115-.9264-2.3673-.9264-3.7062 0-1.1586.2675-2.2756.7594-3.292m18.829-7.1807l-3.5242.7238v3.907h-1.498V9.365h1.498v8.375h3.5244V9.365h1.564V5.9293h-1.564V1.2986M91.93 4.516c1.172 0 2.1217-.9532 2.1217-2.1292s-.95-2.1294-2.122-2.1294-2.1218.9534-2.1218 2.1294.949 2.1293 2.121 2.1293m1.729 4.243v-2.89H90.2V17.74h3.4583v-2.8318c-.417-.9604-.6385-2.0063-.6385-3.113 0-1.062.2232-2.0895.6385-3.0366M114.879 5.648c-1.5647 0-2.6655.6188-3.3928 1.8126l.0444-1.5917h-3.3047V17.74h3.414v-6.433c0-1.5917.726-2.4096 2.092-2.4096 1.344 0 1.696.7517 1.696 2.4096v6.433h3.48V9.9143c0-2.719-1.586-4.2664-4.0307-4.2664m-95.199 8.997c1.4976 0 2.7532-1.239 2.7532-2.874 0-1.703-1.2558-2.984-2.8857-2.984-1.652 0-2.9297 1.348-2.9297 2.94 0 1.658 1.2778 2.918 3.062 2.918zm2.731 1.768c-1.035 1.016-2.0926 1.392-3.5023 1.392-1.4317 0-2.6652-.4647-3.7003-1.3928-1.3654-1.2164-2.0703-2.808-2.0703-4.6648 0-1.702.6608-3.2276 1.8944-4.421 1.101-1.0834 2.4446-1.636 3.9426-1.636 1.4316 0 2.533.486 3.326 1.5033V5.869H25.78V17.74h-3.37v-1.326z"/></g></svg>