<?xml version="1.0" encoding="UTF-8" standalone="no"?>
<svg width="26px" height="33px" viewBox="0 0 26 33" version="1.1" xmlns="http://www.w3.org/2000/svg" xmlns:xlink="http://www.w3.org/1999/xlink">
    <!-- Generator: sketchtool 39.1 (31720) - http://www.bohemiancoding.com/sketch -->
    <title>029C0065-4515-4663-81EE-67D53E3F15E4</title>
    <desc>Created with sketchtool.</desc>
    <defs>
        <polygon id="path-1" points="0 54 40 54 40 0 0 0"></polygon>
    </defs>
    <g id="Page-1" stroke="none" stroke-width="1" fill="none" fill-rule="evenodd">
        <g id="Homepage---Mobile" transform="translate(-28.000000, -2100.000000)">
            <g id="Languages" transform="translate(-15.000000, 2057.000000)">
                <g transform="translate(44.000000, 32.000000)" id="Go">
                    <g transform="translate(0.000000, 11.000000)">
                        <g>
                            <path d="M4.14169747,26.5447263 C2.91997343,26.7158464 1.49715533,27.0695797 0.756705351,27.5192715 C0.0866658232,27.9263658 0.174610192,29.1246623 0.651318183,29.7174711 C1.15441872,30.3433911 1.7448243,30.3099151 2.45760321,29.9824518 C2.92545283,29.7674572 3.48891802,29.2883939 4.07101318,28.7517738 C4.08562492,28.2842038 4.1019718,27.8162688 4.12060177,27.3493373 C4.1316519,27.0721337 4.13850115,26.8043253 4.14169747,26.5447263 L4.14169747,26.5447263 Z" id="Stroke-1" stroke="#31B0E7" stroke-width="1.5" stroke-linecap="round" stroke-linejoin="round"></path>
                            <path d="M39.2432045,27.1088023 C38.5582793,26.6928601 37.289889,26.3592855 36.1365661,26.1760338 C36.1654243,26.7977578 36.20515,27.4813259 36.2588481,28.2523696 C36.2685284,28.3916555 36.2781174,28.5290259 36.2874323,28.6654841 C36.7403049,29.0649163 37.1714426,29.4014098 37.5422154,29.5718914 C38.255177,29.8994458 38.8453999,29.9329219 39.3485004,29.3070019 C39.8252997,28.7141931 39.9133354,27.5157141 39.2432045,27.1088023 L39.2432045,27.1088023 Z" id="Stroke-3" stroke="#31B0E7" stroke-width="1.5" stroke-linecap="round" stroke-linejoin="round"></path>
                            <path d="M5.03831032,51.5225092 C4.13840983,53.120694 6.4903519,54.436932 7.70951888,53.328665 C8.7056742,52.4230787 9.49196842,51.6550451 11.2031857,51.4042028 C9.89269536,50.8654848 8.73745382,50.1927713 7.75554586,49.4092311 C6.55765722,49.8770748 5.58789436,50.546687 5.03831032,51.5225092 L5.03831032,51.5225092 Z" id="Stroke-5" stroke="#31B0E7" stroke-width="1.5" stroke-linecap="round" stroke-linejoin="round"></path>
                            <path d="M32.3051855,52.8909224 C33.3131215,54.1937518 35.8174823,53.010597 35.0853428,51.3292238 C34.6043426,50.2245142 33.6955838,49.3082557 32.5577859,48.757406 C31.8127699,49.4522848 30.9277551,50.0972779 29.8812806,50.6607974 C31.0392609,51.2085458 31.606653,51.9878901 32.3051855,52.8909224 L32.3051855,52.8909224 Z" id="Stroke-7" stroke="#31B0E7" stroke-width="1.5" stroke-linecap="round" stroke-linejoin="round"></path>
                            <path d="M0.461000371,29.4075212 C0.765381163,29.188878 0.980447699,28.9522652 1.53715496,28.6689503" id="Stroke-9" stroke="#31B0E7" stroke-width="1.5" stroke-linecap="round" stroke-linejoin="round"></path>
                            <path d="M39.5389096,28.997052 C39.2345288,28.7784087 39.0194623,28.541796 38.4628463,28.258481" id="Stroke-11" stroke="#31B0E7" stroke-width="1.5" stroke-linecap="round" stroke-linejoin="round"></path>
                            <path d="M5.55894485,53.3218239 C5.64113588,52.8702165 5.88770898,52.1109396 6.62742827,51.4540976" id="Stroke-13" stroke="#31B0E7" stroke-width="1.5" stroke-linecap="round" stroke-linejoin="round"></path>
                            <path d="M34.3421532,53.1750583 C34.3397788,52.7161537 34.2230676,51.7825642 33.5324802,51.1505328" id="Stroke-15" stroke="#31B0E7" stroke-width="1.5" stroke-linecap="round" stroke-linejoin="round"></path>
                            <path d="M3.75074212,6.79349392 C3.75074212,6.1578139 4.26589725,5.64253818 4.90141658,5.64253818 C5.27410726,5.64253818 5.60433256,5.8204994 5.81465028,6.09533136 C6.32323013,5.26426797 6.93637432,4.54740625 7.63317255,3.93088146 C7.28797021,3.59721558 6.72706207,3.35348806 5.84661346,3.23536414 C3.01102283,2.85463112 1.56199492,4.25387514 1.2309477,6.12917226 C0.911498189,7.9387031 1.88582759,9.8820469 4.06233655,10.3872889 C4.28699204,9.50386791 4.56224068,8.69351042 4.87968071,7.94335508 C4.25429919,7.9315883 3.75074212,7.4217855 3.75074212,6.79349392 L3.75074212,6.79349392 Z" id="Stroke-17" stroke="#31B0E7" stroke-width="1.5" stroke-linecap="round" stroke-linejoin="round"></path>
                            <mask id="mask-2" fill="white">
                                <use xlink:href="#path-1"></use>
                            </mask>
                            <g id="Clip-20"></g>
                            <path d="M4.90141644,5.6425348 C4.26589772,5.6425348 3.75074155,6.1578152 3.75074155,6.79349189 C3.75074155,7.42178919 4.25429863,7.9315875 4.87968128,7.94326318 C5.10607215,7.40819797 5.35374155,6.90349865 5.6204968,6.42562601 C5.68323562,6.31333885 5.74834977,6.20360574 5.81465023,6.09524088 C5.60433242,5.82049764 5.27401553,5.6425348 4.90141644,5.6425348 L4.90141644,5.6425348 Z" id="Fill-19" fill="#31B0E7" mask="url(#mask-2)"></path>
                            <path d="M37.8059573,5.39032764 C37.4749101,3.5149393 36.0258822,2.11578649 33.1903829,2.49651951 C32.2072868,2.62850818 31.6227259,2.91702244 31.2918614,3.31244114 C31.9189789,3.85334838 32.5025353,4.47498124 33.0518453,5.18399843 C33.0785118,5.21838663 33.1038997,5.2531397 33.1301095,5.28761911 C33.3397879,5.00530749 33.6746707,4.8215997 34.0532061,4.8215997 C34.6887254,4.8215997 35.2038806,5.33687542 35.2038806,5.97255636 C35.2038806,6.52979115 34.8079937,6.9943502 34.2821538,7.10052491 C34.6727438,7.85606196 34.9894533,8.66933834 35.242967,9.57629292 C37.2304375,8.97874093 38.1119819,7.12351119 37.8059573,5.39032764 L37.8059573,5.39032764 Z" id="Stroke-21" stroke="#31B0E7" stroke-width="1.5" stroke-linecap="round" stroke-linejoin="round" mask="url(#mask-2)"></path>
                            <path d="M35.2038813,5.97255507 C35.2038813,5.33687838 34.6887215,4.82159797 34.0532055,4.82159797 C33.6745753,4.82159797 33.3397808,5.00530743 33.1301096,5.28762162 C33.5698265,5.86637939 33.9526575,6.46302466 34.2821461,7.10052568 C34.8079909,6.99435 35.2038813,6.52979493 35.2038813,5.97255507 L35.2038813,5.97255507 Z" id="Fill-22" fill="#31B0E7" mask="url(#mask-2)"></path>
                            <path d="M33.1301095,5.28761911 C33.1038997,5.2531397 33.0785118,5.21838663 33.0518453,5.18399843 C32.502444,4.47498124 31.9189789,3.85334838 31.2918614,3.31244114 C28.5706989,0.965650774 25.028722,0.139057309 19.9012801,0.291113358 C15.4554758,0.423102022 10.7257471,1.19469261 7.63317346,3.93088055 C6.93637706,4.54731413 6.32332237,5.26417585 5.8146512,6.09533136 C5.74835043,6.20369524 5.68323687,6.31342735 5.62049771,6.42571349 C5.35374215,6.90359089 5.10607317,7.40819441 4.87968254,7.94335508 C4.5622425,8.69351042 4.28699478,9.50386791 4.06233837,10.3872889 C3.62699987,12.0994017 3.38079207,14.0845222 3.38088339,16.4309468 C3.38106604,20.5477708 4.19055639,22.5905394 4.14178971,26.5448176 C4.13859339,26.8044166 4.13174414,27.0722249 4.12069401,27.3494285 C4.10206404,27.81636 4.08571716,28.284295 4.07110542,28.751865 C3.92014789,33.5960406 3.97412,38.4081083 3.93421169,41.7077336 C3.89759102,44.7364493 5.27173376,47.4273032 7.75563901,49.4093223 C8.73754788,50.1928625 9.89278669,50.865576 11.203277,51.404294 C13.4966808,52.3471784 16.2642356,52.8806972 19.4081339,52.8806972 C23.9985031,52.8806972 27.3949105,52.0002954 29.8814632,50.6608795 C30.9279377,50.09736 31.8128612,49.4523669 32.5579686,48.7574881 C34.417221,47.023666 35.404518,44.9791643 35.8464318,43.1116205 C36.8939108,38.6855763 36.7565605,35.4422309 36.287615,28.6657486 C36.2782087,28.5292904 36.268711,28.39192 36.2590308,28.2526432 C36.2053326,27.4815996 36.1656983,26.7980315 36.1367488,26.1763074 C35.9784854,22.7700512 36.1425935,21.2217613 36.0930049,17.3341615 C36.0507222,14.0256882 35.8012267,11.5729065 35.2431496,9.57656657 C34.9896359,8.66969955 34.6729356,7.85642317 34.2823456,7.10079491 C33.9526591,6.46302058 33.5699228,5.86628952 33.1301095,5.28761911 L33.1301095,5.28761911 Z" id="Stroke-23" stroke="#31B0E7" stroke-width="1.5" stroke-linecap="round" stroke-linejoin="round" mask="url(#mask-2)"></path>
                            <path d="M18.1752684,8.3549189 C18.1752684,11.0299287 15.9305765,13.1984559 13.1616154,13.1984559 C10.3926543,13.1984559 8.14796238,11.0299287 8.14796238,8.3549189 C8.14796238,5.6799073 10.3926543,3.5113819 13.1616154,3.5113819 C15.9305765,3.5113819 18.1752684,5.6799073 18.1752684,8.3549189 L18.1752684,8.3549189 Z" id="Stroke-24" stroke="#31B0E7" stroke-width="1.5" stroke-linecap="round" stroke-linejoin="round" mask="url(#mask-2)"></path>
                            <path d="M12.257516,8.60110541 C12.257516,9.55322939 11.4847489,10.3250828 10.5314977,10.3250828 C9.57825571,10.3250828 8.80549041,9.55322939 8.80549041,8.60110541 C8.80549041,7.64899054 9.57825571,6.87713716 10.5314977,6.87713716 C11.4847489,6.87713716 12.257516,7.64899054 12.257516,8.60110541 L12.257516,8.60110541 Z" id="Fill-25" fill="#31B0E7" mask="url(#mask-2)"></path>
                            <path d="M11.7643653,9.01157838 C11.7643653,9.2836125 11.5435799,9.50414595 11.2712237,9.50414595 C10.9988676,9.50414595 10.7780731,9.2836125 10.7780731,9.01157838 C10.7780731,8.73954426 10.9988676,8.51901081 11.2712237,8.51901081 C11.5435799,8.51901081 11.7643653,8.73954426 11.7643653,9.01157838 L11.7643653,9.01157838 Z" id="Fill-26" fill="#31B0E7" mask="url(#mask-2)"></path>
                            <path d="M30.7504964,7.78017075 C30.7504964,10.4551805 28.5058137,12.6237078 25.7368434,12.6237078 C22.9678823,12.6237078 20.7231904,10.4551805 20.7231904,7.78017075 C20.7231904,5.10515915 22.9678823,2.93663375 25.7368434,2.93663375 C28.5058137,2.93663375 30.7504964,5.10515915 30.7504964,7.78017075 L30.7504964,7.78017075 Z" id="Stroke-27" stroke="#31B0E7" stroke-width="1.5" stroke-linecap="round" stroke-linejoin="round" mask="url(#mask-2)"></path>
                            <path d="M24.8327397,8.02654358 C24.8327397,8.97866757 24.0599817,9.75051182 23.1067306,9.75051182 C22.1534795,9.75051182 21.3807215,8.97866757 21.3807215,8.02654358 C21.3807215,7.07441959 22.1534795,6.30257534 23.1067306,6.30257534 C24.0599817,6.30257534 24.8327397,7.07441959 24.8327397,8.02654358 L24.8327397,8.02654358 Z" id="Fill-28" fill="#31B0E7" mask="url(#mask-2)"></path>
                            <path d="M24.3395982,8.43701655 C24.3395982,8.70905068 24.1188037,8.929575 23.8464475,8.929575 C23.5740913,8.929575 23.3533059,8.70905068 23.3533059,8.43701655 C23.3533059,8.16498243 23.5740913,7.94444899 23.8464475,7.94444899 C24.1188037,7.94444899 24.3395982,8.16498243 24.3395982,8.43701655 L24.3395982,8.43701655 Z" id="Fill-29" fill="#31B0E7" mask="url(#mask-2)"></path>
                            <path d="M19.6316022,15.5379481 C18.646771,15.5550966 18.4991011,15.9939338 17.6512549,16.145169 C17.6213008,16.6675595 17.583219,17.3825969 17.5450458,18.2336364 C17.4628548,20.0670657 19.7916007,19.6565965 19.7916007,18.5620118 L19.7916007,15.5398637 C19.7404596,15.5379481 19.687766,15.537036 19.6316022,15.5379481 L19.6316022,15.5379481 Z" id="Stroke-30" stroke="#31B0E7" stroke-width="1.5" stroke-linecap="round" stroke-linejoin="round" mask="url(#mask-2)"></path>
                            <path d="M19.7916007,18.5619206 C19.7916007,19.6565052 22.1203466,20.0669745 22.0381556,18.2335452 C21.9989779,17.3595194 21.9598915,16.6290666 21.9295721,16.1033923 C20.8620933,16.0547745 20.7318661,15.5731573 19.7916007,15.5397724 L19.7916007,18.5619206 L19.7916007,18.5619206 Z" id="Stroke-31" stroke="#31B0E7" stroke-width="1.5" stroke-linecap="round" stroke-linejoin="round" mask="url(#mask-2)"></path>
                            <path d="M23.2576879,13.7094445 C22.8600659,13.2821004 22.3881981,13.0492275 21.7577015,12.936759 C21.4230927,13.4262207 20.5895843,13.7731128 19.6135201,13.7731128 C18.6748986,13.7731128 17.8681479,13.4522171 17.5099776,12.9923091 C16.8350066,13.1215613 16.3453307,13.3740455 15.9437819,13.8369636 C15.1559351,14.7453776 15.5385801,16.1074058 16.5972919,16.180743 C17.0499818,16.212121 17.3848646,16.1926922 17.6512549,16.1450777 C18.4991011,15.9938426 18.646771,15.5550054 19.6316022,15.5378569 C19.687766,15.5369448 19.7404596,15.5378569 19.7916007,15.5396812 C20.7317748,15.5730661 20.8620019,16.0546833 21.9295721,16.1033011 C22.1407118,16.1128787 22.3883807,16.1056727 22.6865515,16.074477 C23.7421584,15.9643801 24.0769498,14.5898554 23.2576879,13.7094445 L23.2576879,13.7094445 Z" id="Stroke-32" stroke="#31B0E7" stroke-width="1.5" stroke-linecap="round" stroke-linejoin="round" mask="url(#mask-2)"></path>
                            <path d="M19.6136073,13.7731105 C20.5896712,13.7731105 21.4230959,13.4262243 21.75779,12.9367581 C21.8588858,12.7888054 21.9150502,12.6279912 21.9150502,12.4596061 C21.9150502,11.7341726 20.8848311,11.1461108 19.6136986,11.1461108 C18.342758,11.1461108 17.3123562,11.7341726 17.3123562,12.4596061 C17.3123562,12.6493358 17.3834064,12.8293966 17.5101644,12.9923088 C17.8681461,13.4522209 18.6749863,13.7731105 19.6136073,13.7731105 L19.6136073,13.7731105 Z" id="Fill-33" fill="#31B0E7" mask="url(#mask-2)"></path>
                        </g>
                    </g>
                </g>
            </g>
        </g>
    </g>
</svg>