<svg xmlns="http://www.w3.org/2000/svg" viewBox="0 0 40 56"><g fill="#7793AE" fill-rule="evenodd"><path d="M13 43.3s-2.2 1.2 1.4 1.6c4.2 0 6.4 0 11-1l3 1.4C18 50.4 4.7 45.4 13 43m-1.4-6s-2.3 2 1.2 2.3c4.6.5 8.2.5 14.4-.7 0 0 1 1 2.3 1.4-12.8 3.8-27 .3-18-3m11-10.2c2.6 3-.7 6-.7 6s6.6-3.7 3.6-8c-3-4.2-5-6.3 6.7-13.3 0 0-18 4.7-9 15.3"/><path d="M36.5 47.8S38 49 34.8 50c-6 2-25.4 2.6-30.8.2-2-1 1.7-2 3-2.4l1.7-.2c-2-1.5-13.8 3-6 4.4 21.6 3.6 39.4-1.6 33.8-4.2M14 30.8S4 33.2 10.3 34c2.7.5 8 .4 13 0 4-.4 8-1.2 8-1.2L29 34.2C19 37 0 35.7 5.5 33c4.7-2.5 8.5-2.2 8.5-2.2M31.5 41c10-5.5 5.4-10.7 2.2-10l-1.2.3s.3-.5 1-.7c6.3-2.3 11.3 7-2.2 10.7 0 0 0-.2.2-.3m-6-41S31 6 20 15c-8.7 7.2-2 11.2 0 16-5-5-8.8-9-6.3-13 3.7-6 14-8.7 11.7-18"/><path d="M15 55.7c9.6.7 24.5-.3 25-5 0 0-.8 1.7-8.2 3.2-8.2 1-18.5 1-24.5 0 0 0 1.2 1 7.6 1.2"/></g></svg>