<?xml version="1.0" encoding="UTF-8" standalone="no"?>
<svg width="40px" height="56px" viewBox="0 0 40 56" version="1.1" xmlns="http://www.w3.org/2000/svg" xmlns:xlink="http://www.w3.org/1999/xlink">
    <!-- Generator: Sketch 39.1 (31720) - http://www.bohemiancoding.com/sketch -->
    <title>Java</title>
    <desc>Created with Sketch.</desc>
    <defs></defs>
    <g id="Symbols" stroke="none" stroke-width="1" fill="none" fill-rule="evenodd">
        <g id="Java">
            <g>
                <path d="M12.8990545,43.2530753 C12.8990545,43.2530753 10.8368,44.4942581 14.3666909,44.9142596 C18.6430545,45.4191628 20.8286545,45.3467512 25.5412364,44.4236559 C25.5412364,44.4236559 26.7802182,45.2276789 28.5105455,45.9240675 C17.9461818,50.6100015 4.60130909,45.6526467 12.8990545,43.2530753" id="Fill-1" fill="#7793AE"></path>
                <path d="M11.6081455,37.1382366 C11.6081455,37.1382366 9.29512727,38.9102151 12.8276364,39.2883656 C17.3957818,39.7761075 21.0033455,39.816 27.2458182,38.571957 C27.2458182,38.571957 28.1092364,39.4778925 29.4669091,39.9733118 C16.6939636,43.8388172 2.4672,40.2781505 11.6081455,37.1382366" id="Fill-3" fill="#7793AE"></path>
                <path d="M22.4909091,26.7654409 C25.0939636,29.8671183 21.8069818,32.6582366 21.8069818,32.6582366 C21.8069818,32.6582366 28.4165818,29.1269247 25.3810909,24.7048817 C22.5460364,20.5810538 20.3719273,18.532086 32.1416727,11.4675054 C32.1416727,11.4675054 13.6670545,16.2428602 22.4909091,26.7654409" id="Fill-4" fill="#7793AE"></path>
                <path d="M36.4631273,47.775977 C36.4631273,47.775977 37.9892364,49.0773733 34.7824,50.084172 C28.6845091,51.9960015 9.40232582,52.5733118 4.04581818,50.1603456 C2.12029091,49.2933994 5.7312,48.0903011 6.86705455,47.8378495 C8.05163636,47.5720015 8.72858182,47.6215254 8.72858182,47.6215254 C6.5872,46.0602981 -5.11243491,50.6870753 2.78574545,52.012103 C24.3252364,55.6272673 42.0501818,50.3841951 36.4631273,47.775977" id="Fill-5" fill="#7793AE"></path>
                <path d="M13.8907636,30.8025591 C13.8907636,30.8025591 4.08261818,33.2135699 10.4174545,34.0890968 C13.0922182,34.4597204 18.4242909,34.375871 23.3909818,33.9451828 C27.4500364,33.5908172 31.5258182,32.8373763 31.5258182,32.8373763 C31.5258182,32.8373763 30.0945455,33.4717419 29.0590545,34.2035054 C19.0990545,36.9145376 -0.141816727,35.6533333 5.39738327,32.8802796 C10.0818909,30.5367097 13.8907636,30.8025591 13.8907636,30.8025591" id="Fill-6" fill="#7793AE"></path>
                <path d="M31.4853818,40.9810108 C41.6101818,35.535914 36.9288727,30.3032258 33.6613818,31.0081935 C32.8605091,31.1807097 32.5034182,31.3301935 32.5034182,31.3301935 C32.5034182,31.3301935 32.8007273,30.848172 33.3685818,30.6395269 C39.8327273,28.2875269 44.8040727,37.5764516 31.2818909,41.2554409 C31.2818909,41.2555914 31.4385455,41.1106237 31.4853818,40.9810108" id="Fill-7" fill="#7793AE"></path>
                <path d="M25.3810909,0.0600645161 C25.3810909,0.0600645161 30.9883636,5.86524731 20.0628364,14.7919785 C11.3016713,21.9527527 18.0650182,26.0356344 20.0592,30.7004946 C14.9451636,25.9251398 11.1921455,21.7213763 13.7099636,17.8089032 C17.4055273,12.0657419 27.6434909,9.28124731 25.3810909,0.0600645161" id="Fill-8" fill="#7793AE"></path>
                <path d="M14.8856727,55.735957 C24.6042182,56.379808 39.5281455,55.3787342 39.8816,50.6194839 C39.8816,50.6194839 39.2021818,52.4236744 31.8497455,53.8564931 C23.5547636,55.4720615 13.3240727,55.2834394 7.25614836,54.248043 C7.25629091,54.247891 8.49832727,55.3120415 14.8856727,55.735957" id="Fill-9" fill="#7793AE"></path>
            </g>
        </g>
    </g>
</svg>
