<svg width="102" height="102" viewBox="0 0 102 102" xmlns="http://www.w3.org/2000/svg"><title>JS</title><g fill="none" fill-rule="evenodd"><path fill="#F8DC4D" d="M0 0h102v102H0"/><path d="M68.518 79.688c2.055 3.355 4.728 5.82 9.455 5.82 3.972 0 6.51-1.985 6.51-4.727 0-3.286-2.608-4.45-6.98-6.362L75.11 73.39c-6.917-2.947-11.512-6.638-11.512-14.442 0-7.19 5.477-12.66 14.037-12.66 6.094 0 10.476 2.12 13.633 7.673l-7.464 4.794c-1.643-2.947-3.416-4.108-6.17-4.108-2.806 0-4.585 1.78-4.585 4.108 0 2.875 1.78 4.04 5.893 5.82l2.396 1.027c8.144 3.493 12.742 7.053 12.742 15.058 0 8.63-6.78 13.357-15.883 13.357-8.9 0-14.652-4.242-17.466-9.802l7.788-4.525zm-33.86.83c1.507 2.672 2.876 4.93 6.17 4.93 3.15 0 5.135-1.232 5.135-6.022V46.834h9.585v32.72c0 9.926-5.82 14.443-14.312 14.443-7.675 0-12.12-3.97-14.38-8.755l7.803-4.724z" fill="#2F2F2D"/></g></svg>
