<svg xmlns="http://www.w3.org/2000/svg" viewBox="0 0 40 24" xmlns:xlink="http://www.w3.org/1999/xlink"><defs><path id="a" d="M0 12c0 6.6 8.94 11.97 19.98 11.97C31 23.97 39.95 18.6 39.95 12c0-6.63-8.94-12-19.97-12C8.94 0 0 5.37 0 12z"/></defs><g fill="none" fill-rule="evenodd"><mask id="b" fill="#fff"><use xlink:href="#a"/></mask><use fill="#7793AE" xlink:href="#a"/><path fill="#FFF" d="M10.85 13.36c.88 0 1.53-.18 1.94-.54.4-.36.6-.98.8-1.85.1-.8.1-1.37-.2-1.67-.3-.3-.8-.47-1.6-.47h-1.4l-.8 4.53h1.1zm-4.55 5.6c-.07 0-.13-.05-.17-.1-.04-.06-.06-.14-.05-.2L8.13 6.63c.02-.12.1-.2.2-.2h4.42c1.4 0 2.42.43 3.07 1.28.65.9.86 2.1.6 3.6-.1.6-.28 1.2-.53 1.7-.3.5-.6 1-1 1.4-.5.5-1 .9-1.6 1.1-.6.2-1.3.3-2.2.3H9.3l-.5 3c-.02.1-.1.2-.2.2H6.3z" mask="url(#b)"/><path fill="#7793AE" d="M10.67 9.08h1.22c.9 0 1.3.24 1.4.38.2.24.2.75.1 1.47-.2.8-.4 1.37-.8 1.7-.4.32-1 .48-1.8.48h-.9l.7-4zm2.1-2.9H8.34c-.2 0-.4.18-.43.4l-2 12.04c0 .15 0 .3.1.4.1.13.2.2.4.2h2.3c.2 0 .4-.17.5-.4L9.5 16h1.6c.9 0 1.67-.1 2.27-.34.62-.23 1.2-.6 1.7-1.15.4-.4.75-.9 1-1.4.27-.5.45-1.1.56-1.7.27-1.5.05-2.8-.65-3.7-.7-.9-1.77-1.33-3.23-1.33zm-3.3 7.43h1.38c.93 0 1.62-.2 2.07-.6.45-.3.76-1 .92-1.9.15-.9.08-1.5-.2-1.9s-.88-.5-1.76-.5H10.3l-.84 5.08zm3.28-6.9c1.33 0 2.3.4 2.9 1.2.62.8.8 1.9.56 3.4-.1.6-.2 1.2-.5 1.6s-.5 1-.9 1.4c-.4.5-.9.86-1.5 1.07-.5.2-1.2.3-2.1.3h-2l-.5 3.2H6.3l2.04-12h4.4z" mask="url(#b)"/><path fill="#FFF" d="M21.68 15.75c-.06 0-.13-.03-.17-.1v-.2l.9-5.3c.1-.5.1-.87 0-1.03 0-.1-.3-.25-.9-.25h-1.7l-1.13 6.68c-.02.12-.1.2-.2.2h-2.3c-.05 0-.1-.03-.16-.1-.1-.04-.1-.12-.1-.2l2.04-12c0-.12.1-.2.2-.2h2.28c.1 0 .17.03.2.1.05.04.07.12.06.2l-.5 2.9h1.76c1.35 0 2.26.26 2.8.82.54.56.7 1.47.5 2.7l-.95 5.58c-.05.12-.1.2-.2.2h-2.4z" mask="url(#b)"/><path fill="#7793AE" d="M20.4 3h-2.3c-.2 0-.38.17-.42.4l-2.04 12c-.03.16 0 .3.1.42.07.1.2.18.32.18h2.28c.2 0 .38-.17.42-.4l1.1-6.48h1.47c.68 0 .82.16.82.17.04 0 .1.2 0 .8l-.9 5.3c-.02.1 0 .3.1.4.08.1.2.2.33.2h2.3c.22 0 .4-.2.44-.4l.95-5.6c.22-1.3.03-2.3-.57-2.9-.57-.6-1.53-.9-2.93-.9h-1.5l.44-2.6c.1-.2 0-.3 0-.5-.1-.1-.2-.2-.3-.2m0 .5L20 6.6h2c1.26 0 2.14.2 2.63.7.5.5.64 1.33.44 2.46l-1 5.64h-2.3l.9-5.3c.1-.6.06-1.02-.1-1.24-.2-.2-.58-.33-1.16-.33h-1.9l-1.1 6.87h-2.3l2.05-12h2.3" mask="url(#b)"/><path fill="#FFF" d="M28.76 13.36c.87 0 1.52-.18 1.93-.54.4-.36.6-.98.8-1.85.1-.8.1-1.37-.2-1.67-.3-.3-.8-.47-1.6-.47h-1.4l-.8 4.53h1.1zm-4.56 5.6c-.06 0-.13-.05-.17-.1-.04-.06-.06-.14-.04-.2l2-12.02c0-.12.1-.2.2-.2h4.4c1.4 0 2.4.43 3 1.28.6.85.8 2.04.6 3.53-.1.6-.3 1.18-.58 1.7-.26.5-.6.96-1 1.38-.47.5-1 .88-1.6 1.1-.6.2-1.3.32-2.2.32h-1.8l-.5 3c0 .1-.1.2-.2.2h-2.3z" mask="url(#b)"/><path fill="#7793AE" d="M28.58 9.08h1.2c.98 0 1.32.24 1.43.38.2.24.3.75.2 1.47-.1.8-.4 1.37-.7 1.7-.34.32-1 .48-1.8.48H28l.7-4zm2.08-2.9h-4.4c-.22 0-.4.18-.44.4L23.8 18.62c-.03.15 0 .3.1.4.07.13.2.2.32.2h2.3c.2 0 .38-.17.42-.4l.48-2.8H29c.92 0 1.68-.1 2.28-.34.62-.23 1.2-.6 1.7-1.15.4-.42.75-.9 1-1.44.27-.6.45-1.2.56-1.8.27-1.6.05-2.9-.65-3.8-.7-.9-1.8-1.4-3.3-1.4zm-3.3 7.43h1.4c.92 0 1.6-.2 2.06-.6.46-.3.76-1 .92-1.9.15-.9.1-1.5-.2-1.9s-.88-.5-1.75-.5h-1.6l-.9 5.08zm3.3-6.9c1.33 0 2.3.4 2.9 1.2.62.8.8 1.9.56 3.4-.1.6-.27 1.2-.5 1.6s-.56 1-.95 1.4c-.45.5-.96.86-1.52 1.07-.56.2-1.28.3-2.14.3h-1.9l-.5 3.2h-2.3l2.1-12h4.4z" mask="url(#b)"/></g></svg>