<svg width="40" height="24" viewBox="0 0 40 24" xmlns="http://www.w3.org/2000/svg" xmlns:xlink="http://www.w3.org/1999/xlink"><title>PHP</title><defs><path d="M0 11.987c0 6.62 8.944 11.986 19.976 11.986 11.033 0 19.977-5.366 19.977-11.986C39.953 5.367 31.01 0 19.976 0 8.944 0 0 5.367 0 11.987z" id="a"/></defs><g fill="none" fill-rule="evenodd"><mask id="b" fill="#fff"><use xlink:href="#a"/></mask><use fill="#7793AE" xlink:href="#a"/><path d="M10.853 13.362c.872 0 1.523-.183 1.935-.544.407-.358.688-.978.836-1.843.137-.808.085-1.372-.156-1.677-.246-.31-.778-.468-1.582-.468h-1.393l-.772 4.532h1.133zm-4.556 5.584c-.065 0-.126-.033-.167-.09-.04-.057-.058-.132-.046-.204L8.13 6.64c.02-.117.11-.2.214-.2h4.41c1.388 0 2.42.43 3.068 1.276.652.85.853 2.04.6 3.537-.105.61-.284 1.176-.532 1.682-.248.508-.577.977-.976 1.396-.478.51-1.02.88-1.607 1.1-.578.214-1.32.322-2.207.322H9.314l-.51 2.994c-.02.116-.11.2-.213.2H6.298z" fill="#FFF" mask="url(#b)"/><path d="M10.672 9.077h1.214c.97 0 1.307.242 1.42.387.19.24.227.747.105 1.464-.136.804-.39 1.374-.755 1.694-.372.327-.98.493-1.802.493h-.87l.69-4.038zm2.083-2.885h-4.41c-.21 0-.387.168-.427.4L5.87 18.605c-.023.144.01.294.092.408.083.114.205.18.335.18H8.59c.21 0 .387-.167.427-.4L9.493 16H11.1c.91 0 1.674-.113 2.275-.336.617-.23 1.184-.617 1.687-1.153.416-.435.758-.925 1.017-1.454.26-.53.445-1.12.553-1.756.27-1.574.05-2.835-.648-3.747-.69-.903-1.778-1.36-3.23-1.36zM9.458 13.61h1.395c.925 0 1.614-.2 2.067-.597.453-.397.758-1.06.917-1.99.15-.893.082-1.523-.208-1.89s-.872-.55-1.744-.55h-1.57l-.858 5.027zm3.297-6.923c1.327 0 2.295.397 2.904 1.19.607.796.79 1.905.548 3.33-.1.586-.27 1.122-.507 1.608s-.548.93-.933 1.334c-.458.488-.967.836-1.527 1.043-.56.21-1.273.312-2.14.312H9.135L8.59 18.7H6.298L8.344 6.686h4.41z" fill="#7793AE" mask="url(#b)"/><path d="M21.68 15.752c-.064 0-.126-.032-.167-.09-.04-.056-.058-.13-.045-.204l.905-5.315c.086-.505.065-.868-.06-1.02-.076-.095-.305-.252-.983-.252h-1.64l-1.138 6.682c-.02.117-.11.2-.213.2h-2.277c-.065 0-.126-.032-.168-.09-.04-.056-.057-.13-.045-.204l2.047-12.012c.02-.116.11-.2.213-.2h2.276c.064 0 .126.033.167.09.04.057.058.132.045.204l-.494 2.9h1.765c1.343 0 2.255.27 2.786.826.54.567.71 1.474.502 2.697l-.953 5.59c-.02.116-.11.2-.212.2H21.68z" fill="#FFF" mask="url(#b)"/><path d="M20.386 3H18.11c-.208 0-.386.166-.426.4l-2.047 12.01c-.025.146.01.296.09.41.084.114.206.18.336.18h2.276c.206 0 .385-.168.424-.4l1.105-6.482h1.46c.677 0 .82.165.824.172.04.05.095.283.006.806l-.905 5.315c-.025.146.01.296.09.41.083.114.206.18.335.18h2.313c.207 0 .385-.168.425-.4l.952-5.59c.224-1.312.033-2.297-.568-2.926-.572-.6-1.532-.892-2.933-.892h-1.503l.444-2.605c.026-.145-.008-.295-.09-.408-.082-.115-.205-.18-.334-.18m0 .493l-.545 3.194h2.03c1.275 0 2.155.254 2.64.76.483.51.628 1.33.435 2.468l-.952 5.59H21.68l.906-5.315c.103-.604.065-1.017-.114-1.237-.18-.22-.56-.33-1.142-.33h-1.82l-1.17 6.882h-2.277L18.11 3.493h2.276" fill="#7793AE" mask="url(#b)"/><path d="M28.76 13.362c.87 0 1.52-.183 1.933-.544.407-.358.69-.978.836-1.843.137-.808.084-1.372-.156-1.677-.247-.31-.78-.468-1.582-.468H28.4l-.774 4.532h1.133zM24.2 18.946c-.064 0-.126-.033-.167-.09-.04-.057-.058-.132-.045-.204L26.036 6.64c.02-.117.11-.2.213-.2h4.41c1.387 0 2.42.43 3.068 1.276.652.85.853 2.04.598 3.537-.104.61-.282 1.176-.53 1.682-.25.508-.577.977-.977 1.396-.48.51-1.02.88-1.607 1.1-.58.214-1.32.322-2.208.322H27.22l-.51 2.994c-.02.116-.11.2-.214.2h-2.294z" fill="#FFF" mask="url(#b)"/><path d="M28.577 9.077h1.215c.97 0 1.306.242 1.42.387.19.24.227.747.105 1.464-.138.804-.392 1.374-.756 1.694-.372.327-.978.493-1.8.493h-.87l.687-4.038zm2.084-2.885h-4.41c-.208 0-.387.168-.426.4l-2.047 12.013c-.025.144.01.294.09.408.083.114.206.18.335.18h2.294c.208 0 .386-.167.426-.4L27.398 16h1.608c.91 0 1.674-.113 2.274-.336.617-.23 1.185-.617 1.687-1.153.416-.435.758-.925 1.018-1.454.26-.53.446-1.12.554-1.756.267-1.574.05-2.835-.65-3.747-.69-.903-1.778-1.36-3.23-1.36zm-3.297 7.418h1.396c.924 0 1.613-.2 2.065-.597.453-.397.758-1.06.917-1.99.152-.893.083-1.523-.207-1.89s-.872-.55-1.743-.55H28.22l-.857 5.027zm3.298-6.923c1.328 0 2.296.397 2.904 1.19.61.796.792 1.905.55 3.33-.1.586-.27 1.122-.508 1.608s-.55.93-.933 1.334c-.458.488-.967.836-1.527 1.043-.56.21-1.273.312-2.14.312H27.04l-.544 3.194h-2.294L26.25 6.686h4.41z" fill="#7793AE" mask="url(#b)"/></g></svg>