<svg xmlns="http://www.w3.org/2000/svg" viewBox="0 0 120 15" xmlns:xlink="http://www.w3.org/1999/xlink"><defs><path id="b" d="M91 28h320v691H91z"/><filter id="a" width="200%" height="200%" x="-50%" y="-50%" filterUnits="objectBoundingBox"><feOffset dy="4" in="SourceAlpha" result="shadowOffsetOuter1"/><feGaussianBlur stdDeviation="6" in="shadowOffsetOuter1" result="shadowBlurOuter1"/><feColorMatrix values="0 0 0 0 0 0 0 0 0 0 0 0 0 0 0 0 0 0 0.112347147 0" in="shadowBlurOuter1"/></filter><path id="c" d="M60 14.74h60V0H0v14.74z"/></defs><g fill="none" fill-rule="evenodd"><path fill="#B114F7" d="M-259-231h471v759h-471z"/><g transform="translate(-259 -231)"><use fill="#000" filter="url(#a)" xlink:href="#b"/><use fill="#FFF" xlink:href="#b"/></g><mask id="d" fill="#fff"><use xlink:href="#c"/></mask><path fill="#111" d="M4.17 6.9c.95 0 1.74-.78 1.74-1.8 0-.98-.7-1.7-1.7-1.7h-2v3.5h2zM0 1.57c0-.17.14-.33.32-.33H4.3c2.1 0 3.8 1.75 3.8 3.88 0 2.18-1.7 3.95-3.78 3.95H2.2v4.13c0 .17-.15.33-.32.33H.32c-.18 0-.32-.15-.32-.32V1.6zm14.62 5.26c.9 0 1.68-.8 1.68-1.78 0-.93-.78-1.7-1.68-1.7h-2.76V6.8h2.76zM9.64 1.56c0-.17.13-.33.32-.33h4.85c2.1 0 3.7 1.68 3.7 3.77 0 1.6-1 2.93-2.5 3.54L18.3 13c.13.23 0 .5-.27.5h-1.78c-.15 0-.24-.08-.27-.15L13.72 8.7h-1.88v4.48c0 .17-.15.33-.32.33H9.96c-.2 0-.32-.1-.32-.3V1.6zM25.8 11.4c2.13 0 3.9-1.8 3.9-4 0-2.22-1.77-4.07-3.9-4.07-2.14 0-3.88 1.85-3.88 4.06 0 2.2 1.74 4 3.88 4zm0-10.35c3.4 0 6.1 2.83 6.1 6.34 0 3.5-2.7 6.2-6.1 6.2-3.4 0-6.1-2.8-6.1-6.3S22.4 1 25.8 1zm13.4 0c1.54 0 3 .62 4.14 1.63.14.14.16.36.02.5L42.3 4.3c-.12.14-.28.14-.43 0-.73-.67-1.63-1.02-2.56-1.02-2.1 0-3.7 1.88-3.7 4.07 0 2.17 1.7 4.02 3.8 4.02 1 0 1.7-.3 2.1-.45v-1.5H40c-.2 0-.33-.13-.33-.3v-1.4c0-.2.13-.33.32-.33h3.2c.1 0 .3.1.3.3v4.5c0 .1-.1.2-.2.3 0 0-1.8 1.1-4.2 1.1-3.4 0-6.1-2.8-6.1-6.3S35.7.9 39.1.9zm11.7 5.77c.9 0 1.68-.8 1.68-1.78 0-.93-.78-1.7-1.68-1.7h-2.76V6.8h2.76zm-4.98-5.26c0-.17.14-.33.32-.33h4.85c2 0 3.7 1.68 3.7 3.77 0 1.6-1.1 2.93-2.6 3.54L54.6 13c.12.23 0 .5-.3.5h-1.77c-.15 0-.24-.08-.27-.15L50 8.7h-1.87v4.48c0 .17-.16.33-.33.33h-1.56c-.18 0-.32-.1-.32-.3V1.6zm11 0c0-.17.15-.33.34-.33h6.9c.18 0 .3.16.3.33V3c0 .17-.12.33-.3.33h-5.02V6.2h4.18c.17 0 .32.17.32.34V8c0 .2-.15.33-.32.33h-4.18v3.07h5c.2 0 .33.16.33.34v1.44c0 .17-.13.33-.32.33h-6.9c-.18 0-.32-.1-.32-.3V1.6zm9.02 10.23l.6-1.1c.14-.3.43-.3.58-.2.1 0 1.46 1.1 2.56 1.1.88 0 1.54-.6 1.54-1.4 0-.9-.72-1.5-2.15-2.1-1.6-.7-3.18-1.8-3.18-3.8C65.9 2.8 67 1 69.7 1c1.7 0 3 .9 3.4 1.2.12.1.2.4.1.6l-.7 1c-.13.2-.4.34-.6.2-.12-.1-1.4-.97-2.34-.97-.98 0-1.5.67-1.5 1.23 0 .83.62 1.4 2 1.97 1.64.68 3.54 1.7 3.54 3.96 0 1.8-1.5 3.5-3.9 3.5-2.13 0-3.4-1.1-3.72-1.4-.15-.2-.24-.3-.08-.6zm8.94 0l.6-1.1c.15-.3.43-.3.6-.2.07 0 1.44 1.1 2.55 1.1.88 0 1.54-.6 1.54-1.4 0-.9-.73-1.5-2.15-2.1-1.6-.7-3.2-1.8-3.2-3.8 0-1.5 1.13-3.3 3.82-3.3 1.73 0 3.05.9 3.4 1.2.16.1.2.4.1.6l-.65 1c-.2.2-.4.3-.6.2-.2-.1-1.5-1-2.4-1-1 0-1.5.6-1.5 1.2 0 .8.6 1.4 2 1.9 1.6.7 3.5 1.7 3.5 3.94 0 1.8-1.5 3.5-3.9 3.5-2.2 0-3.4-1.1-3.8-1.4-.2-.2-.3-.3-.1-.57zm9.66-10.3c0-.2.13-.4.32-.4h1.56c.17 0 .32.1.32.3v9.8h4.32c.2 0 .32.1.32.3V13c0 .17-.13.33-.32.33h-6.2c-.2 0-.32-.2-.32-.36V1.53zm9.3 6l-3.87-5.8c-.14-.3 0-.5.27-.5h1.73c.13 0 .22.1.27.1l2.7 4 2.72-4.1c.05-.1.13-.2.27-.2h1.75c.27 0 .4.3.27.5l-3.92 5.9V13c0 .18-.15.34-.32.34h-1.5c-.2 0-.3-.1-.3-.3V7.6z" mask="url(#d)"/><path fill="#62AB32" d="M119.87 6.73l-3.03-6.1C116.67.3 116.2 0 115.8 0H106c-.4 0-.72.32-.72.7v13.32c0 .4.32.72.72.72h9.83c.4 0 .87-.3 1.04-.64L119.9 8c.17-.34.17-.92 0-1.27" mask="url(#d)"/></g></svg>