<svg xmlns="http://www.w3.org/2000/svg" viewBox="0 0 40 40" xmlns:xlink="http://www.w3.org/1999/xlink"><defs><path id="a" d="M19.73.05c-1.65 0-3.22.15-4.6.4-4.07.72-4.8 2.25-4.8 5.07v3.72h9.6v1.24H6.73c-2.8 0-5.25 1.7-6 4.95-.9 3.72-.94 6.04 0 9.92.67 2.9 2.3 4.95 5.1 4.95h3.3v-4.46c0-3.22 2.76-6.07 6-6.07h9.63c2.68 0 4.8-2.23 4.8-4.96V5.55c0-2.65-2.2-4.64-4.8-5.08-1.65-.28-3.37-.4-5-.4zm-5.2 3c1 0 1.8.82 1.8 1.85 0 1.03-.8 1.86-1.8 1.86s-1.8-.83-1.8-1.86c0-1.03.8-1.86 1.8-1.86z"/><path id="c" d="M4.02 29.5c-2.2-.84-4-2.34-4-4.7v-9.3c0-2.67 2.17-4.96 4.8-4.96h9.6c3.2 0 6.02-2.83 6.02-6.2V.04h3.62c2.8 0 4.12 2.1 4.8 4.94.97 3.92 1 6.86 0 9.92-.97 2.96-2 4.94-4.8 4.94H9.63v1.24h9.6v3.72c0 2.5-1.87 3.9-3.98 4.7H4.02zm11.02-5.94c1 0 1.8.83 1.8 1.85 0 1.06-.8 1.9-1.8 1.9s-1.8-.84-1.8-1.87c0-1 .8-1.84 1.8-1.84z"/></defs><g fill="none" fill-rule="evenodd"><g transform="translate(0 .002)"><mask id="b" fill="#fff"><use xlink:href="#a"/></mask><path fill="#7793AE" d="M-2 39.95h139.63V-2.28H-2" mask="url(#b)"/></g><g transform="translate(10.31 10.46)"><mask id="d" fill="#fff"><use xlink:href="#c"/></mask><path fill="#7793AE" d="M-12.3 29.5h139.62v-42.24H-12.3" mask="url(#d)"/></g></g></svg>