<svg width="40" height="40" viewBox="0 0 40 40" xmlns="http://www.w3.org/2000/svg" xmlns:xlink="http://www.w3.org/1999/xlink"><title>Python</title><defs><path d="M19.73.046c-1.647.008-3.218.15-4.6.398-4.073.73-4.812 2.257-4.812 5.074v3.72h9.624v1.24H6.706c-2.797 0-5.246 1.706-6.012 4.95-.883 3.718-.922 6.038 0 9.92.684 2.89 2.318 4.95 5.115 4.95h3.308v-4.46c0-3.222 2.748-6.064 6.012-6.064h9.612c2.676 0 4.812-2.235 4.812-4.96V5.517c0-2.645-2.2-4.633-4.812-5.074C23.09.164 21.374.038 19.73.046zm-5.206 2.992c.994 0 1.806.837 1.806 1.866 0 1.025-.812 1.854-1.806 1.854-.997 0-1.806-.83-1.806-1.854 0-1.03.81-1.866 1.806-1.866z" id="a"/><path d="M4.018 29.49c-2.2-.833-4.01-2.327-4.01-4.69v-9.296c0-2.675 2.178-4.96 4.81-4.96h9.613c3.204 0 6.013-2.83 6.013-6.19V.02h3.612c2.8 0 4.12 2.125 4.812 4.95.962 3.92 1.004 6.862 0 9.92-.973 2.97-2.015 4.95-4.812 4.95H9.63v1.24h9.613v3.72c0 2.498-1.88 3.907-3.994 4.69H4.017zm11.02-5.93c.996 0 1.805.828 1.805 1.854 0 1.03-.81 1.866-1.806 1.866-.994 0-1.806-.837-1.806-1.866 0-1.026.813-1.855 1.807-1.855z" id="c"/></defs><g fill="none" fill-rule="evenodd"><g transform="translate(0 .002)"><mask id="b" fill="#fff"><use xlink:href="#a"/></mask><path fill="#7793AE" mask="url(#b)" d="M-1.99 39.95h139.62V-2.285H-1.99"/></g><g transform="translate(10.31 10.46)"><mask id="d" fill="#fff"><use xlink:href="#c"/></mask><path fill="#7793AE" mask="url(#d)" d="M-12.3 29.49h139.62v-42.232H-12.3"/></g></g></svg>