<?xml version="1.0" encoding="UTF-8" standalone="no"?>
<svg width="93px" height="31px" viewBox="0 0 93 31" version="1.1" xmlns="http://www.w3.org/2000/svg" xmlns:xlink="http://www.w3.org/1999/xlink">
    <!-- Generator: sketchtool 39.1 (31720) - http://www.bohemiancoding.com/sketch -->
    <title>75F7504A-A4BD-4C5F-8AF2-CBC8EDC9B407</title>
    <desc>Created with sketchtool.</desc>
    <defs>
        <rect id="path-1" x="91" y="28" width="320" height="691"></rect>
        <filter x="-50%" y="-50%" width="200%" height="200%" filterUnits="objectBoundingBox" id="filter-3">
            <feOffset dx="0" dy="4" in="SourceAlpha" result="shadowOffsetOuter1"></feOffset>
            <feGaussianBlur stdDeviation="6" in="shadowOffsetOuter1" result="shadowBlurOuter1"></feGaussianBlur>
            <feColorMatrix values="0 0 0 0 0   0 0 0 0 0   0 0 0 0 0  0 0 0 0.112347147 0" type="matrix" in="shadowBlurOuter1"></feColorMatrix>
        </filter>
    </defs>
    <g id="Page-1" stroke="none" stroke-width="1" fill="none" fill-rule="evenodd">
        <g id="Homepage---Mobile" transform="translate(-97.000000, -2355.000000)">
            <g id="Testimonials" transform="translate(-91.000000, 2172.000000)">
                <rect id="Rectangle-7" fill="#B114F7" x="0" y="0" width="471" height="759"></rect>
                <mask id="mask-2" fill="white">
                    <use xlink:href="#path-1"></use>
                </mask>
                <g id="Grey-Background">
                    <use fill="black" fill-opacity="1" filter="url(#filter-3)" xlink:href="#path-1"></use>
                    <use fill="#FFFFFF" fill-rule="evenodd" xlink:href="#path-1"></use>
                </g>
            </g>
            <g id="Logos" transform="translate(31.000000, 2355.000000)">
                <g id="RedHat" transform="translate(66.000000, 0.466249)">
                    <path d="M27.493,22.936001 C26.924,22.806002 26.32,22.723001 25.71,22.723001 C24.665,22.723001 23.715,22.905001 23.014,23.196001 C22.936,23.235001 22.882,23.316002 22.882,23.407001 C22.882,23.441002 22.889,23.475002 22.903,23.503002 C22.985,23.743002 22.849,24.002003 22.171,24.153002 C21.165,24.373001 20.53,25.412003 20.167,25.755001 C19.74,26.160002 18.536,26.409 18.717,26.166 C18.859,25.979 19.401,25.390001 19.73,24.754 C20.026,24.185999 20.289,24.024 20.65,23.480999 C20.757,23.321999 21.168,22.762999 21.288,22.320999 C21.422,21.889 21.377,21.346998 21.429,21.123999 C21.503,20.801998 21.806,20.105 21.829,19.709 C21.842,19.488 20.898,20.028999 20.45,20.028999 C20.002,20.028999 19.565,19.76 19.165,19.742 C18.67,19.718 18.351,20.122999 17.902,20.050999 C17.647,20.010998 17.43,19.786 16.984,19.77 C16.347,19.746 15.568,20.122999 14.107,20.076998 C12.669,20.030001 11.341,18.259 11.16,17.978 C10.947,17.649 10.687,17.649 10.405,17.909 C10.122,18.166 9.772,17.963 9.674,17.79 C9.485,17.46 8.981,16.497 8.2,16.294 C7.12,16.014 6.573,16.892 6.644,17.589 C6.716,18.298 7.175,18.497 7.388,18.874 C7.599,19.25 7.708,19.494 8.106,19.661 C8.39,19.779 8.495,19.953 8.411,20.185001 C8.337,20.386999 8.043,20.434 7.848,20.443001 C7.437,20.462999 7.149,20.351 6.938,20.216999 C6.694,20.059999 6.494,19.844 6.282,19.477 C6.034,19.071 5.645,18.895 5.192,18.895 C4.976,18.895 4.773,18.952 4.594,19.043 C3.884,19.414 3.038,19.632 2.128,19.632 L1.1,19.633 C3.069,25.469999 8.592,29.671999 15.097,29.671999 C20.292,29.671999 24.861,26.991999 27.493,22.935999" id="Fill-1" fill="#FFFFFF"></path>
                    <path d="M27.493,22.938 C26.924,22.806 26.32,22.723999 25.71,22.723999 C24.665,22.723999 23.715,22.905998 23.014,23.196999 C22.936,23.235998 22.882,23.315998 22.882,23.407999 C22.882,23.441 22.889,23.476 22.903,23.502998 C22.985,23.743998 22.849,24.003998 22.171,24.153999 C21.165,24.375 20.53,25.411999 20.167,25.754999 C19.74,26.160999 18.536,26.41 18.717,26.167999 C18.859,25.979 19.401,25.389999 19.73,24.754 C20.026,24.187 20.289,24.024 20.65,23.482 C20.757,23.323 21.168,22.763 21.288,22.322001 C21.422,21.889 21.377,21.348 21.429,21.125 C21.503,20.802999 21.806,20.105999 21.829,19.711 C21.842,19.488 20.898,20.029001 20.45,20.029001 C20.002,20.029001 19.565,19.761 19.165,19.743 C18.67,19.718 18.351,20.124002 17.902,20.052002 C17.647,20.012001 17.43,19.787 16.984,19.77 C16.347,19.747 15.568,20.124002 14.107,20.077002 C12.669,20.030001 11.341,18.261 11.16,17.98 C10.947,17.649 10.687,17.649 10.405,17.909 C10.122,18.167 9.772,17.964 9.674,17.791 C9.485,17.46 8.981,16.497 8.2,16.294 C7.12,16.014 6.573,16.892 6.644,17.59 C6.716,18.298 7.175,18.497 7.388,18.874 C7.599,19.25 7.708,19.495 8.106,19.662 C8.39,19.779 8.495,19.954 8.411,20.186001 C8.337,20.388 8.043,20.434999 7.848,20.444 C7.437,20.462999 7.149,20.351999 6.938,20.216 C6.694,20.062 6.494,19.845 6.282,19.477 C6.034,19.072 5.645,18.895 5.192,18.895 C4.976,18.895 4.773,18.953 4.594,19.043 C3.884,19.414 3.038,19.633 2.128,19.633 L1.1,19.633 C0.6,18.152 0.33,16.565 0.33,14.916 C0.33,6.764 6.941,0.157 15.097,0.157 C23.251,0.157 29.863,6.764 29.863,14.916 C29.863,17.874 28.992,20.625999 27.493,22.938" id="Fill-3" fill="#000000"></path>
                    <path d="M18.3484,21.584499 C18.4244,21.657499 18.5554,21.9065 18.3954,22.223499 C18.3054,22.391499 18.2084,22.508499 18.0364,22.6465 C17.8274,22.813499 17.4224,23.005499 16.8664,22.651499 C16.5664,22.4625 16.5474,22.398499 16.1344,22.452499 C15.8394,22.490499 15.7224,22.1915 15.8274,21.9445 C15.9344,21.6975 16.3694,21.497499 16.9124,21.8155 C17.1574,21.9585 17.5374,22.262501 17.8694,21.9925 C18.0084,21.883501 18.0914,21.8095 18.2824,21.5875 C18.2914,21.578499 18.3034,21.5735 18.3174,21.5735 C18.3294,21.5735 18.3404,21.577499 18.3484,21.584499" id="Fill-4" fill="#000000"></path>
                    <path d="M13.9471,7.185 C12.2421,7.308 12.0641,7.492 11.7451,7.831 C11.2951,8.312 10.7011,7.21 10.7011,7.21 C10.3441,7.135 9.9131,6.561 10.1461,6.026 C10.3761,5.496 10.8001,5.654 10.9321,5.819 C11.0931,6.02 11.4381,6.349 11.8861,6.337 C12.3341,6.325 12.8501,6.231 13.5711,6.231 C14.3011,6.231 14.7911,6.503 14.8181,6.738 C14.8431,6.937 14.7591,7.125 13.9471,7.185 M15.7391,4.368 L15.7311,4.368 C15.7051,4.368 15.6841,4.348 15.6841,4.324 C15.6841,4.306 15.6951,4.29 15.7111,4.283 C16.0421,4.109 16.5351,3.969 17.0991,3.913 C17.2681,3.895 17.4341,3.885 17.5931,3.885 L17.6781,3.885 C18.6251,3.907 19.3821,4.283 19.3711,4.725 C19.3591,5.167 18.5841,5.508 17.6361,5.488 C17.3311,5.48 17.0431,5.436 16.7961,5.364 C16.7651,5.357 16.7451,5.332 16.7451,5.302 C16.7451,5.273 16.7651,5.248 16.7971,5.24 C17.3861,5.104 17.7851,4.88 17.7571,4.669 C17.7191,4.39 16.9481,4.238 16.0321,4.33 C15.9311,4.34 15.8341,4.353 15.7391,4.368 M23.4291,10.989 C23.2831,11.479 23.0761,12.106 22.1521,12.58 C22.0171,12.649 21.9671,12.536 22.0281,12.43 C22.3781,11.836 22.4391,11.688 22.5411,11.455 C22.6821,11.112 22.7581,10.625 22.4751,9.611 C21.9201,7.614 20.7601,4.943 19.9191,4.078 C19.1061,3.242 17.6341,3.006 16.3021,3.348 C15.8121,3.473 14.8531,3.971 13.0751,3.571 C9.998097,2.878 9.542097,4.418 9.366096,5.089 C9.188096,5.76 8.764096,7.667 8.764096,7.667 C8.623096,8.445 8.438096,9.795 13.2171,10.706 C15.4431,11.129 15.5551,11.705 15.6551,12.118 C15.8321,12.859 16.1141,13.283 16.4321,13.495 C16.7501,13.707 16.4321,13.883 16.0791,13.918 C15.1321,14.017 11.6271,13.012 9.553096,11.835 C7.857096,10.799 7.829096,9.867 8.217096,9.075 C5.655096,8.798 3.732096,9.315 3.384096,10.528 C2.785096,12.608 7.960096,16.162 13.8531,17.946 C20.0371,19.817 26.39709,18.51 27.1041,14.625 C27.42509,12.86 25.9381,11.554 23.4291,10.989" id="Fill-5" fill="#E93442"></path>
                    <path d="M29.7137,22.148899 L29.8467,22.148899 L30.0477,22.478899 L30.1777,22.478899 L29.9597,22.142899 C30.0727,22.128899 30.1577,22.069899 30.1577,21.933899 C30.1577,21.7829 30.0687,21.7169 29.8897,21.7169 L29.5987,21.7169 L29.5987,22.478899 L29.7137,22.478899 L29.7137,22.148899 L29.7137,22.148899 Z M29.7137,22.0509 L29.7137,21.8139 L29.8707,21.8139 C29.9497,21.8139 30.0357,21.832899 30.0357,21.9259 C30.0357,22.0439 29.9497,22.0509 29.8517,22.0509 L29.7137,22.0509 L29.7137,22.0509 Z" id="Fill-6" fill="#000000"></path>
                    <path d="M30.5965,22.0991 C30.5965,22.510099 30.2625,22.844101 29.8505,22.844101 C29.4385,22.844101 29.1035,22.510101 29.1035,22.0991 C29.1035,21.688101 29.4385,21.3521 29.8505,21.3521 C30.2625,21.3521 30.5965,21.688101 30.5965,22.0991 M29.8505,21.4851 C29.5105,21.4851 29.2355,21.7591 29.2355,22.1001 C29.2355,22.437099 29.5105,22.7111 29.8505,22.7111 C30.1885,22.7111 30.4635,22.437099 30.4635,22.1001 C30.4635,21.7591 30.1885,21.4851 29.8505,21.4851" id="Fill-7" fill="#000000"></path>
                    <path d="M37.3904,15.8462 C37.3904,14.4922 37.3614,13.4972 37.3074,12.5972 L39.5214,12.5972 L39.6174,14.5182 L39.6894,14.5182 C40.1874,13.0942 41.3674,12.3682 42.4584,12.3682 C42.7074,12.3682 42.8534,12.3772 43.0594,12.4242 L43.0594,14.8322 C42.8194,14.7842 42.5954,14.7592 42.2874,14.7592 C41.0694,14.7592 40.2234,15.5342 39.9944,16.6932 C39.9524,16.9182 39.9284,17.1892 39.9284,17.4642 L39.9284,22.707199 L37.3694,22.707199 L37.3904,15.8462 L37.3904,15.8462 Z" id="Fill-8" fill="#000000"></path>
                    <path d="M46.1473,18.3403 C46.2143,20.1723 47.6333,20.9743 49.2713,20.9743 C50.4473,20.9743 51.2903,20.789301 52.0623,20.5063 L52.4413,22.265301 C51.5763,22.632301 50.37531,22.9053 48.9073,22.9053 C45.6223,22.9053 43.6973,20.8783 43.6973,17.7803 C43.6973,14.9893 45.3903,12.3503 48.6443,12.3503 C51.9343,12.3503 53.0043,15.0533 53.0043,17.2663 C53.0043,17.7423 52.9623,18.1223 52.9143,18.3603 L46.1473,18.3403 L46.1473,18.3403 Z M50.5953,16.5593 C50.6073,15.6223 50.1993,14.0953 48.4863,14.0953 C46.9113,14.0953 46.2563,15.5243 46.1413,16.5593 L50.59529,16.5593 L50.5953,16.5593 Z" id="Fill-9" fill="#000000"></path>
                    <path d="M61.4695,18.3237 C61.4695,18.5917 61.4495,18.8417 61.3915,19.0697 C61.1345,20.176701 60.2285,20.8887 59.1825,20.8887 C57.5725,20.8887 56.6505,19.5317 56.6505,17.6747 C56.6505,15.7987 57.5635,14.3457 59.2105,14.3457 C60.3615,14.3457 61.1855,15.1577 61.4105,16.1417 C61.4545,16.3487 61.4695,16.6047 61.4695,16.8087 L61.4695,18.3237 L61.4695,18.3237 Z M64.02551,8.7027 L61.46951,7.9817 L61.46951,13.6857 L61.42751,13.6857 C60.97451,12.9387 59.97651,12.3687 58.59151,12.3687 C56.15851,12.3687 54.04051,14.3807 54.05651,17.7677 C54.05651,20.8757 55.96951,22.9347 58.38551,22.9347 C59.84451,22.9347 61.06651,22.2397 61.67051,21.106701 L61.7155,21.106701 L61.83051,22.707701 L64.1105,22.707701 C64.06351,22.019701 64.02551,20.907701 64.02551,19.8727 L64.02551,8.7027 L64.02551,8.7027 Z" id="Fill-10" fill="#000000"></path>
                    <path d="M70.7898,12.3569 C70.0188,12.3569 69.3278,12.5789 68.7488,12.9369 C68.1468,13.2889 67.6578,13.8339 67.3658,14.3959 L67.3248,14.3959 L67.3248,9.6649 L66.3238,9.3689 L66.3238,22.707899 L67.3248,22.707899 L67.3248,16.5199 C67.3248,16.1089 67.3558,15.8239 67.4618,15.5229 C67.8938,14.2629 69.0808,13.2309 70.5158,13.2309 C72.5878,13.2309 73.3058,14.8919 73.3058,16.7139 L73.3058,22.707899 L74.3068,22.707899 L74.3068,16.6049 C74.3068,12.8359 71.7488,12.3569 70.7898,12.3569" id="Fill-11" fill="#000000"></path>
                    <path d="M83.2928,20.304199 C83.2928,21.1052 83.3248,21.932199 83.4408,22.707199 L82.51881,22.707199 L82.3708,21.2582 L82.32381,21.2582 C81.83281,22.0382 80.7048,22.9382 79.09581,22.9382 C77.05881,22.9382 76.10981,21.505199 76.10981,20.1572 C76.10981,17.8222 78.17381,16.4142 82.29281,16.4582 L82.29281,16.1882 C82.29281,15.1862 82.09781,13.1902 79.70181,13.2052 C78.8158,13.2052 77.89281,13.4422 77.15981,13.9592 L76.8418,13.2322 C77.76781,12.6052 78.8968,12.3572 79.81281,12.3572 C82.7338,12.3572 83.29281,14.5492 83.29281,16.3572 L83.29281,20.304201 L83.2928,20.304199 Z M82.2928,17.2992 C80.0868,17.2362 77.1758,17.5702 77.1758,19.9992 C77.1758,21.453199 78.1358,22.107199 79.1908,22.107199 C80.8778,22.107199 81.83781,21.063198 82.18781,20.078199 C82.2598,19.8632 82.29281,19.6452 82.29281,19.4712 L82.29281,17.2992 L82.2928,17.2992 Z" id="Fill-12" fill="#000000"></path>
                    <path d="M87.2801,10.3589 L87.2801,12.5879 L90.1671,12.5879 L90.1671,13.3999 L87.2801,13.3999 L87.2801,19.9769 C87.2801,21.263901 87.6791,22.069901 88.7681,22.069901 C89.2891,22.069901 89.6591,22.0019 89.9181,21.9109 L90.0391,22.6859 C89.7121,22.8239 89.2531,22.9289 88.6421,22.9289 C87.9031,22.9289 87.2901,22.696899 86.8941,22.2129 C86.4361,21.680901 86.2791,20.8319 86.2791,19.7989 L86.2791,13.3999 L84.5711,13.3999 L84.5711,12.5879 L86.2791,12.5879 L86.2791,10.7279 L87.2801,10.3589 L87.2801,10.3589 Z" id="Fill-13" fill="#000000"></path>
                    <path d="M91.432,22.169399 L91.565,22.169399 L91.766,22.499399 L91.896,22.499399 L91.678,22.163399 C91.791,22.149399 91.876,22.090399 91.876,21.954399 C91.876,21.8034 91.787,21.7374 91.608,21.7374 L91.317,21.7374 L91.317,22.499399 L91.432,22.499399 L91.432,22.169399 L91.432,22.169399 Z M91.432,22.0714 L91.432,21.8344 L91.589,21.8344 C91.668,21.8344 91.754,21.853399 91.754,21.9464 C91.754,22.0644 91.668,22.0714 91.57,22.0714 L91.432,22.0714 L91.432,22.0714 Z" id="Fill-14" fill="#000000"></path>
                    <path d="M92.3148,22.1196 C92.3148,22.530599 91.9808,22.864601 91.5688,22.864601 C91.1568,22.864601 90.8218,22.530601 90.8218,22.1196 C90.8218,21.708601 91.1568,21.3726 91.5688,21.3726 C91.9808,21.3726 92.3148,21.708601 92.3148,22.1196 M91.5688,21.5056 C91.2288,21.5056 90.9538,21.7796 90.9538,22.1206 C90.9538,22.457599 91.2288,22.7316 91.5688,22.7316 C91.9068,22.7316 92.1818,22.457599 92.1818,22.1206 C92.1818,21.7796 91.9068,21.5056 91.5688,21.5056" id="Fill-15" fill="#000000"></path>
                </g>
            </g>
        </g>
    </g>
</svg>