<svg xmlns="http://www.w3.org/2000/svg" viewBox="0 0 93 31" xmlns:xlink="http://www.w3.org/1999/xlink"><defs><path id="b" d="M91 28h320v691H91z"/><filter id="a" width="200%" height="200%" x="-50%" y="-50%" filterUnits="objectBoundingBox"><feOffset dy="4" in="SourceAlpha" result="shadowOffsetOuter1"/><feGaussianBlur stdDeviation="6" in="shadowOffsetOuter1" result="shadowBlurOuter1"/><feColorMatrix values="0 0 0 0 0 0 0 0 0 0 0 0 0 0 0 0 0 0 0.112347147 0" in="shadowBlurOuter1"/></filter></defs><g fill="none" fill-rule="evenodd"><path fill="#B114F7" d="M-188-183h471v759h-471z"/><g transform="translate(-188 -183)"><use fill="#000" filter="url(#a)" xlink:href="#b"/><use fill="#FFF" xlink:href="#b"/></g><path fill="#FFF" d="M27.5 23.4c-.58-.13-1.18-.2-1.8-.2-1.04 0-1.98.17-2.7.46-.06.04-.12.12-.12.2 0 .05 0 .08.02.1.1.25-.05.5-.73.66-1 .22-1.64 1.26-2 1.6-.43.4-1.63.66-1.45.4.14-.17.68-.76 1-1.4.3-.57.57-.73.93-1.27.1-.16.52-.72.64-1.16.1-.5 0-1 .1-1.2 0-.4.4-1.1.4-1.5 0-.3-1 .3-1.4.3-.5 0-.9-.3-1.3-.3-.5-.1-.8.4-1.3.3-.3-.1-.5-.3-1-.3-.7-.1-1.4.3-2.9.3-1.5-.1-2.8-1.8-3-2.1-.2-.3-.5-.3-.8-.1-.3.2-.6 0-.7-.1-.2-.4-.7-1.3-1.5-1.5-1.1-.3-1.7.6-1.6 1.3.1.7.5.9.7 1.2.2.4.3.6.7.8.3.1.4.3.3.5-.08.2-.38.3-.57.3-.4 0-.7-.1-.9-.3-.27-.2-.47-.4-.68-.8-.28-.4-.67-.6-1.1-.6-.2 0-.4 0-.6.1-.7.4-1.57.6-2.48.6H1C3 25.8 8.5 30 15 30c5.2 0 9.76-2.67 12.4-6.73"/><path fill="#000" d="M27.5 23.4c-.58-.13-1.18-.2-1.8-.2-1.04 0-1.98.17-2.7.46-.06.04-.12.12-.12.2 0 .05 0 .08.02.1.1.25-.05.5-.73.66-1 .22-1.64 1.26-2 1.6-.43.4-1.63.66-1.45.4.14-.17.68-.76 1-1.4.3-.57.57-.73.93-1.27.1-.16.52-.72.64-1.16.1-.5 0-1 .1-1.2 0-.4.4-1.1.4-1.5 0-.3-1 .3-1.4.3-.5 0-.9-.3-1.3-.3-.5-.1-.8.4-1.3.3-.3-.1-.5-.3-1-.3-.7-.1-1.4.3-2.9.3-1.5-.1-2.8-1.8-3-2.1-.2-.3-.5-.3-.8-.1-.3.2-.6 0-.7-.1-.2-.4-.7-1.3-1.5-1.5-1.1-.3-1.7.6-1.6 1.3.1.7.5.9.7 1.2.2.4.3.6.7.8.3.1.4.3.3.5-.08.2-.38.3-.57.3-.4 0-.7-.1-.9-.3-.27-.2-.47-.4-.68-.8-.28-.4-.67-.6-1.1-.6-.2 0-.4 0-.6.1-.7.4-1.57.6-2.48.6H1c-.4-1.4-.7-3-.7-4.6C.32 7.2 6.92.6 15.1.6c8.15 0 14.76 6.6 14.76 14.76 0 2.96-.87 5.7-2.37 8.02"/><path fill="#000" d="M18.35 22.05c.07.07.2.32.05.64l-.36.4c-.2.1-.62.3-1.17 0-.3-.2-.32-.3-.74-.2-.3 0-.4-.3-.3-.5.1-.3.54-.5 1.08-.2.3.1.7.4 1 .2.2-.1.2-.2.4-.4h.1"/><path fill="#E93442" d="M13.95 7.65c-1.7.12-1.9.3-2.2.65-.45.48-1.05-.62-1.05-.62-.36-.08-.8-.65-.55-1.2.23-.52.65-.36.78-.2.16.2.5.54.96.52.4 0 .9-.1 1.6-.1.7 0 1.2.27 1.2.5 0 .2-.1.4-.9.45m1.8-2.82s-.1-.02-.1-.04v-.1c.3-.2.8-.3 1.4-.4l.5-.1c.9 0 1.7.4 1.7.8s-.8.7-1.7.7c-.3 0-.6-.1-.8-.1-.1 0-.1-.1-.1-.1v-.1c.6-.2 1-.4.9-.6 0-.3-.8-.5-1.7-.4h-.3m7.7 6.6c-.1.5-.3 1.1-1.3 1.6-.1.1-.18-.1-.1-.2.4-.6.4-.77.5-1 .2-.34.26-.83 0-1.84-.58-2-1.74-4.7-2.58-5.56-.8-.8-2.3-1.02-3.6-.7-.5.16-1.47.66-3.2.26-3.1-.7-3.57.85-3.7 1.5-.2.7-.6 2.6-.6 2.6-.18.77-.36 2.1 4.42 3 2.25.46 2.37 1 2.47 1.4.2.8.48 1.2.8 1.4.3.2 0 .4-.36.4-.9.1-4.4-.9-6.5-2.04-1.65-1-1.7-1.9-1.3-2.7-2.5-.28-4.5.24-4.8 1.45-.6 2.1 4.6 5.67 10.5 7.4 6.2 1.9 12.56.6 13.26-3.3.3-1.73-1.2-3.1-3.7-3.6"/><path fill="#000" d="M29.7 22.62h.15l.2.33h.13l-.22-.34c.1 0 .2 0 .2-.2 0-.1-.1-.2-.27-.2h-.3v.8h.1v-.3zm0-.1v-.24h.17c.08 0 .17.02.17.1 0 .13-.1.14-.2.14h-.13z"/><path fill="#000" d="M30.6 22.57c0 .4-.34.74-.75.74-.4 0-.75-.3-.75-.7s.34-.7.75-.7c.4 0 .75.4.75.8m-.75-.6c-.34 0-.6.3-.6.7 0 .3.26.6.6.6.34 0 .6-.3.6-.6s-.26-.6-.6-.6m7.55-5.6c0-1.3-.04-2.3-.1-3.2h2.22l.1 1.9h.07c.5-1.4 1.6-2.1 2.7-2.1.2 0 .4 0 .6.04v2.4c-.3-.1-.5-.1-.8-.1-1.3 0-2.1.78-2.3 1.94-.1.2-.1.5-.1.77v5.2h-2.5v-6.9zm8.75 2.5c.06 1.9 1.48 2.7 3.12 2.7 1.18 0 2.02-.2 2.8-.43l.37 1.75c-.86.38-2.06.65-3.53.65-3.2 0-5.2-2-5.2-5.1 0-2.8 1.7-5.45 5-5.45s4.4 2.7 4.4 4.9c0 .5 0 .82-.1 1.1h-6.8zm4.45-1.8c0-.9-.4-2.4-2.1-2.4-1.6 0-2.24 1.4-2.36 2.5h4.46zM61.47 19c0 .3-.02.5-.08.78-.3 1.1-1.2 1.8-2.3 1.8-1.6 0-2.6-1.3-2.6-3.2s.9-3.3 2.5-3.3c1.1 0 2 .83 2.2 1.8V19zm2.56-9.6l-2.56-.7v5.7h-.04c-.46-.75-1.45-1.3-2.84-1.3-2.5 0-4.6 2-4.6 5.4 0 3.1 1.9 5.15 4.3 5.15 1.4 0 2.6-.7 3.2-1.82l.1 1.6H64c-.06-.66-.1-1.8-.1-2.8V9.2zM70.8 13c-.78 0-1.47.2-2.05.56-.6.36-1.1.9-1.38 1.46h-.05v-4.8l-1-.3v13.3h1V17c0-.42.04-.7.14-1 .43-1.27 1.62-2.3 3.06-2.3 2.07 0 2.8 1.66 2.8 3.48v6h1v-6.1c0-3.78-2.57-4.26-3.53-4.26m12.5 7.95c0 .8 0 1.63.1 2.4h-.9l-.2-1.45h-.1c-.5.78-1.6 1.68-3.2 1.68-2.1 0-3-1.43-3-2.78 0-2.33 2-3.74 6.2-3.7v-.27c0-1-.2-3-2.6-2.98-.9 0-1.8.24-2.6.76l-.3-.73c.9-.63 2-.88 2.9-.88 2.9 0 3.5 2.2 3.5 4v3.95zm-1-3c-2.2-.07-5.2.27-5.2 2.7 0 1.45.9 2.1 2 2.1 1.7 0 2.6-1.04 3-2.03.1-.2.1-.43.1-.6v-2.17zm4.9-6.94v2.22h2.9v.82h-2.9v6.57c0 1.3.4 2.1 1.5 2.1.5 0 .9-.07 1.1-.16l.1.77c-.4.14-.8.25-1.4.25-.8 0-1.4-.24-1.8-.72-.5-.53-.7-1.38-.7-2.4v-6.4h-1.7v-.83H86V11.2l1-.37zm4.1 11.8h.1l.2.34h.1l-.3-.34c.1 0 .2-.07.2-.2 0-.16-.1-.23-.3-.23H91v.77h.1v-.33zm0-.1v-.23h.1s.1.02.1.1c0 .13-.1.14-.2.14h-.2z"/><path fill="#000" d="M92.3 22.6c0 .4-.32.73-.73.73-.4 0-.75-.33-.75-.74 0-.5.34-.8.75-.8.4 0 .74.3.74.7m-.7-.7c-.3 0-.6.3-.6.6s.3.6.6.6c.4 0 .6-.3.6-.6 0-.4-.2-.7-.6-.7"/></g></svg>