<svg width="41" height="56" viewBox="0 0 41 56" xmlns="http://www.w3.org/2000/svg" xmlns:xlink="http://www.w3.org/1999/xlink"><title>Scala</title><defs><path id="a" d="M0 0h41v56H0z"/></defs><g fill="none" fill-rule="evenodd"><mask id="b" fill="#fff"><use xlink:href="#a"/></mask><path d="M4.582 36.448S9.845 41.2 14.485 41.2c4.64 0 21.53-4.752 21.53-4.752s5.685-4.64-4.267-5.192c-9.952-.552-27.166 5.192-27.166 5.192zM4.594 20.456s6.573 3.744 9.89 3.744c3.32 0 21.532-4.752 21.532-4.752s6.32-5.178-6.35-3.97c-12.67 1.21-25.072 4.978-25.072 4.978z" fill="#516D88" mask="url(#b)"/><path d="M37.614 33.662v14.33s-4.788 2.112-11.607 3.323C19.187 52.525 4.59 53.45 4.59 53.45s0-5.804-.053-13.34c4.562-.21 27.126-1.492 33.077-6.448zM37.614 16.662v14.33s-4.788 2.112-11.607 3.323C19.187 35.525 4.59 36.45 4.59 36.45s0-5.804-.053-13.34c4.562-.21 27.126-1.492 33.077-6.448zM37.614.662v14.33s-4.788 2.112-11.607 3.323C19.187 19.525 4.59 20.45 4.59 20.45s0-5.804-.053-13.34C9.1 6.9 31.663 5.62 37.614.663z" fill="#7591AC" mask="url(#b)"/></g></svg>