<svg xmlns="http://www.w3.org/2000/svg" viewBox="0 0 30 25" xmlns:xlink="http://www.w3.org/1999/xlink"><defs><path id="b" d="M91 28h320v691H91z"/><filter id="a" width="200%" height="200%" x="-50%" y="-50%" filterUnits="objectBoundingBox"><feOffset dy="4" in="SourceAlpha" result="shadowOffsetOuter1"/><feGaussianBlur stdDeviation="6" in="shadowOffsetOuter1" result="shadowBlurOuter1"/><feColorMatrix values="0 0 0 0 0 0 0 0 0 0 0 0 0 0 0 0 0 0 0.112347147 0" in="shadowBlurOuter1"/></filter></defs><g fill="none" fill-rule="evenodd"><path fill="#B114F7" d="M-123-185h471v759h-471z"/><g transform="translate(-123 -185)"><use fill="#000" filter="url(#a)" xlink:href="#b"/><use fill="#FFF" xlink:href="#b"/></g><path fill="#1DA1F2" d="M9.43 24.84c11.33 0 17.52-9.38 17.52-17.5 0-.28 0-.54-.02-.8 1.2-.88 2.24-1.96 3.07-3.2-1.12.5-2.32.83-3.54.98 1.3-.77 2.25-1.98 2.7-3.4-1.2.7-2.52 1.2-3.9 1.5-1.9-2.04-4.94-2.54-7.4-1.22-2.45 1.3-3.72 4.1-3.1 6.82C9.83 7.77 5.22 5.42 2.1 1.6.44 4.4 1.3 8 4 9.8c-1-.02-1.94-.3-2.8-.76v.07c0 2.97 2.07 5.5 4.94 6.08-.9.24-1.86.28-2.78.1.8 2.5 3.12 4.23 5.75 4.28-2.14 1.7-4.83 2.64-7.6 2.64-.5 0-1-.04-1.47-.1 2.8 1.8 6.1 2.76 9.44 2.76"/></g></svg>