<svg xmlns="http://www.w3.org/2000/svg" viewBox="0 0 46 46"><path fill="#0D79C9" fill-rule="evenodd" d="M0 22v23h46V-1H0v23zm37-1.8c1.2.3 2 .8 3 1.6.4.5 1 1.3 1 1.5l-3 2.2c-.2 0-.4-.2-.6-.5-.6-1-1.2-1.2-2-1.3-1.5 0-2.4.6-2.4 2 0 .2 0 .4.2.7.3.7 1 1 2.7 1.8 3 1.4 4.6 2.4 5.4 3.7 1 1.4 1.2 3.7.6 5.5-.8 2-2.6 3.2-5 3.6-1 .3-2.8.3-3.6 0-2-.2-3.6-1-4.7-2.3-.4-.5-1.3-1.7-1.2-1.8l.4-.4s1-.5 1.6-1L31 35l.2.3c.4.6 1.3 1.4 1.8 1.6 1.4.7 3.4.6 4.4-.3.5-.4.6-.8.6-1.4 0-.5 0-.7-.3-1-.4-.6-1-1-3.2-2-2.3-1-3.4-1.6-4.3-2.6-.5-.6-1-1.6-1.3-2.3-.2-.7-.3-2.3 0-3 .4-2.3 2-4 4.6-4.3.8 0 2.7 0 3.5.2zm-10.7 2V24h-6v17H16V24h-6v-2-1.8h16.2v2z"/></svg>