<svg width="16" height="16" viewBox="0 0 16 16" fill="none" xmlns="http://www.w3.org/2000/svg">
    <path
        d="M11.0667 4.73337L10.0667 0.533371H4.73339L0.533386 6.93337L1.73339 9.8667L0.533386 12.6L7.66672 13.8667L12.2667 9.80004L11.0667 4.73337Z"
        fill="url(#paint0_linear)"/>
    <path d="M2.00005 7.13337L0.533386 6.93336L1.73339 9.8667L0.533386 12.6L3.40005 10.2L2.00005 7.13337Z"
          fill="url(#paint1_linear)"/>
    <path d="M2.00005 7.13336L0.533386 6.93336L1.73339 9.8667L3.40005 10.2L2.00005 7.13336Z"
          fill="url(#paint2_linear)"/>
    <path d="M2.00005 7.13337L10.0667 0.533371H4.73339L0.533386 6.93337L2.00005 7.13337Z" fill="url(#paint3_linear)"/>
    <path d="M2.00005 7.13337L10.0667 0.533371H4.73339L0.533386 6.93337L2.00005 7.13337Z" fill="url(#paint4_linear)"/>
    <path d="M2.00005 7.13337L5.80005 4.00004L4.73339 0.533371L0.533386 6.93337L2.00005 7.13337Z"
          fill="url(#paint5_linear)"/>
    <path d="M2.00005 7.13337L5.80005 4.00004L4.73339 0.533371L0.533386 6.93337L2.00005 7.13337Z"
          fill="url(#paint6_linear)"/>
    <path d="M13.7334 6.33337L15.5334 10.3334L12.4667 15.5334L10.6 10.9334L13.7334 6.33337Z"
          fill="url(#paint7_linear)"/>
    <path d="M12.1334 8.73337L15.5334 10.3334L12.4667 15.5334L9.33337 14.3333L12.1334 8.73337Z"
          fill="url(#paint8_linear)"/>
    <path d="M10.5334 10.9334L12.4001 15.5334L7.66675 13.9334L10.5334 10.9334Z" fill="url(#paint9_linear)"/>
    <path d="M15.4667 3.6667L9.20005 5.20004L0.533386 12.6L6.13339 15.4667L10.5334 10.9334L15.4667 3.6667Z"
          fill="url(#paint10_linear)"/>
    <path d="M4.20005 12.7334L0.533386 12.6L6.13339 15.4667L7.73339 13.8L4.20005 12.7334Z" fill="url(#paint11_linear)"/>
    <path d="M4.20005 12.7334L0.533386 12.6L3.33339 10.1334L4.20005 12.7334Z" fill="url(#paint12_linear)"/>
    <path d="M15.4667 3.6667L9.20007 5.20004L13.6667 6.40004L15.4667 3.6667Z" fill="url(#paint13_linear)"/>
    <path d="M15.4667 3.6667L9.20007 5.20004L13.4001 6.33337L15.4667 3.6667Z" fill="url(#paint14_linear)"/>
    <path d="M12.0001 8.80003L11.0667 4.73337L9.20008 5.20003L6.66675 7.33337L12.0001 8.80003Z"
          fill="url(#paint15_linear)"/>
    <path d="M11.3334 5.73337L11.0667 4.73337L9.20007 5.20003L11.3334 5.73337Z" fill="url(#paint16_linear)"/>
    <path d="M3.33337 10.2L10.5334 10.9334L13.7334 6.33337L11.4 6.60004L3.33337 10.2Z" fill="url(#paint17_linear)"/>
    <path d="M15.4667 3.6667L6.13336 15.4667L10.5334 10.9334L15.4667 3.6667Z" fill="url(#paint18_linear)"/>
    <path d="M15.4667 3.6667L6.13336 15.4667L10.5334 10.9334L15.4667 3.6667Z" fill="url(#paint19_linear)"/>
    <path d="M12.6666 3.33333H3.33331V12.6667H12.6666V3.33333Z" fill="url(#paint20_linear)"/>
    <path d="M8.66663 10.6667H4.66663V11.3333H8.66663V10.6667Z" fill="white"/>
    <path
        d="M4.33331 6.6666C4.33331 5.53326 5.13331 4.59993 6.26665 4.59993C6.93331 4.59993 7.33331 4.79993 7.73331 5.13326L7.19998 5.79993C6.93331 5.53326 6.66665 5.39993 6.26665 5.39993C5.66665 5.39993 5.19998 5.93326 5.19998 6.6666C5.19998 7.39993 5.66665 7.93326 6.33331 7.93326C6.59998 7.93326 6.86665 7.8666 7.13331 7.6666V7.13326H6.26665V6.33326H7.86665V8.0666C7.46665 8.39993 6.93331 8.73326 6.26665 8.73326C5.13331 8.73326 4.33331 7.8666 4.33331 6.6666Z"
        fill="white"/>
    <path
        d="M8.33331 6.6666C8.33331 5.53326 9.13331 4.59993 10.2666 4.59993C11.4 4.59993 12.1333 5.53326 12.1333 6.6666C12.1333 7.79993 11.3333 8.73326 10.2 8.73326C9.13331 8.73326 8.33331 7.79993 8.33331 6.6666ZM11.3333 6.6666C11.3333 5.99993 10.8666 5.39993 10.2666 5.39993C9.66665 5.39993 9.19998 5.93326 9.19998 6.6666C9.19998 7.33326 9.66665 7.93326 10.2666 7.93326C10.8666 7.93326 11.3333 7.33326 11.3333 6.6666Z"
        fill="white"/>
    <defs>
        <linearGradient id="paint0_linear" x1="7.25625" y1="6.5511" x2="10.817" y2="2.50004"
                        gradientUnits="userSpaceOnUse">
            <stop stop-color="#087CFA"/>
            <stop offset="0.0225255" stop-color="#0D7BFA"/>
            <stop offset="0.3726" stop-color="#5566F9"/>
            <stop offset="0.6634" stop-color="#8A57F8"/>
            <stop offset="0.8808" stop-color="#AB4EF7"/>
            <stop offset="1" stop-color="#B74AF7"/>
        </linearGradient>
        <linearGradient id="paint1_linear" x1="0.494986" y1="9.7621" x2="4.41132" y2="9.59177"
                        gradientUnits="userSpaceOnUse">
            <stop offset="0.1204" stop-color="#2D58F9"/>
            <stop offset="0.9461" stop-color="#B74AF7"/>
        </linearGradient>
        <linearGradient id="paint2_linear" x1="1.21745" y1="6.55616" x2="2.64979" y2="10.5602"
                        gradientUnits="userSpaceOnUse">
            <stop offset="0.0852751" stop-color="#086AFA"/>
            <stop offset="0.4762" stop-color="#087CFA"/>
            <stop offset="0.6849" stop-color="#466AF9"/>
            <stop offset="0.8976" stop-color="#8059F8"/>
            <stop offset="1" stop-color="#9653F8"/>
        </linearGradient>
        <linearGradient id="paint3_linear" x1="1.02725" y1="5.71237" x2="9.26425" y2="-1.02403"
                        gradientUnits="userSpaceOnUse">
            <stop stop-color="#087CFA"/>
            <stop offset="0.0188132" stop-color="#0D7BFA"/>
            <stop offset="0.3112" stop-color="#5566F9"/>
            <stop offset="0.5541" stop-color="#8A57F8"/>
            <stop offset="0.7356" stop-color="#AB4EF7"/>
            <stop offset="0.8352" stop-color="#B74AF7"/>
            <stop offset="0.9797" stop-color="#DB5CFF"/>
        </linearGradient>
        <linearGradient id="paint4_linear" x1="4.81565" y1="3.3385" x2="6.48425" y2="4.6495"
                        gradientUnits="userSpaceOnUse">
            <stop offset="0.5234" stop-color="#B74AF7" stop-opacity="0"/>
            <stop offset="0.9263" stop-color="#D66EFF"/>
        </linearGradient>
        <linearGradient id="paint5_linear" x1="0.694253" y1="5.98217" x2="7.43812" y2="0.466771"
                        gradientUnits="userSpaceOnUse">
            <stop stop-color="#087CFA"/>
            <stop offset="0.0163189" stop-color="#0D7BFA"/>
            <stop offset="0.2699" stop-color="#5566F9"/>
            <stop offset="0.4806" stop-color="#8A57F8"/>
            <stop offset="0.6381" stop-color="#AB4EF7"/>
            <stop offset="0.7245" stop-color="#B74AF7"/>
            <stop offset="0.9526" stop-color="#DB5CFF"/>
        </linearGradient>
        <linearGradient id="paint6_linear" x1="1.21132" y1="7.8615" x2="2.49005" y2="6.08537"
                        gradientUnits="userSpaceOnUse">
            <stop stop-color="#8F99FF"/>
            <stop offset="1" stop-color="#B74AF7" stop-opacity="0"/>
        </linearGradient>
        <linearGradient id="paint7_linear" x1="15.2705" y1="9.04457" x2="9.41177" y2="14.0019"
                        gradientUnits="userSpaceOnUse">
            <stop stop-color="#087CFA"/>
            <stop offset="0.0225255" stop-color="#0D7BFA"/>
            <stop offset="0.3726" stop-color="#5566F9"/>
            <stop offset="0.6634" stop-color="#8A57F8"/>
            <stop offset="0.8808" stop-color="#AB4EF7"/>
            <stop offset="1" stop-color="#B74AF7"/>
        </linearGradient>
        <linearGradient id="paint8_linear" x1="15.0964" y1="11.6768" x2="9.75646" y2="12.4845"
                        gradientUnits="userSpaceOnUse">
            <stop offset="0.003297" stop-color="#2D58F9"/>
            <stop offset="0.8129" stop-color="#B74AF7"/>
        </linearGradient>
        <linearGradient id="paint9_linear" x1="12.2101" y1="12.5755" x2="10.1179" y2="14.4474"
                        gradientUnits="userSpaceOnUse">
            <stop stop-color="#C386F7"/>
            <stop offset="0.8129" stop-color="#B74AF7"/>
        </linearGradient>
        <linearGradient id="paint10_linear" x1="2.58392" y1="13.6036" x2="13.4043" y2="6.65057"
                        gradientUnits="userSpaceOnUse">
            <stop stop-color="#087CFA"/>
            <stop offset="0.1021" stop-color="#1598D3"/>
            <stop offset="0.2248" stop-color="#23B6AA"/>
            <stop offset="0.3455" stop-color="#2DCC8B"/>
            <stop offset="0.4619" stop-color="#35DD74"/>
            <stop offset="0.5723" stop-color="#39E767"/>
            <stop offset="0.6701" stop-color="#3BEA62"/>
        </linearGradient>
        <linearGradient id="paint11_linear" x1="3.19585" y1="14.1568" x2="8.23879" y2="9.1815"
                        gradientUnits="userSpaceOnUse">
            <stop stop-color="#087CFA"/>
            <stop offset="0.1021" stop-color="#1598D3"/>
            <stop offset="0.2248" stop-color="#23B6AA"/>
            <stop offset="0.3455" stop-color="#2DCC8B"/>
            <stop offset="0.4619" stop-color="#35DD74"/>
            <stop offset="0.5723" stop-color="#39E767"/>
            <stop offset="0.6701" stop-color="#3BEA62"/>
        </linearGradient>
        <linearGradient id="paint12_linear" x1="1.97052" y1="13.0672" x2="6.35366" y2="8.74291"
                        gradientUnits="userSpaceOnUse">
            <stop offset="0.1708" stop-color="#087CFA"/>
            <stop offset="0.4017" stop-color="#19A1C8"/>
            <stop offset="0.6796" stop-color="#2BC891"/>
            <stop offset="0.8874" stop-color="#37E16F"/>
            <stop offset="1" stop-color="#3BEA62"/>
        </linearGradient>
        <linearGradient id="paint13_linear" x1="10.3171" y1="6.82624" x2="14.6986" y2="2.73677"
                        gradientUnits="userSpaceOnUse">
            <stop offset="0.4926" stop-color="#00FA45"/>
            <stop offset="0.8682" stop-color="#B5FF91"/>
        </linearGradient>
        <linearGradient id="paint14_linear" x1="11.5081" y1="3.9439" x2="14.1047" y2="5.43697"
                        gradientUnits="userSpaceOnUse">
            <stop offset="0.175" stop-color="#00FA45" stop-opacity="0"/>
            <stop offset="0.8682" stop-color="#A0FF5E"/>
        </linearGradient>
        <linearGradient id="paint15_linear" x1="12.2127" y1="4.99223" x2="9.21228" y2="8.20563"
                        gradientUnits="userSpaceOnUse">
            <stop stop-color="#7165DF"/>
            <stop offset="0.0682475" stop-color="#6475D9"/>
            <stop offset="0.2346" stop-color="#4897CD"/>
            <stop offset="0.3197" stop-color="#44B2AA"/>
            <stop offset="0.4142" stop-color="#40CA8B"/>
            <stop offset="0.506" stop-color="#3DDC74"/>
            <stop offset="0.593" stop-color="#3CE667"/>
            <stop offset="0.6701" stop-color="#3BEA62"/>
        </linearGradient>
        <linearGradient id="paint16_linear" x1="11.1299" y1="4.5309" x2="10.1567" y2="5.57324"
                        gradientUnits="userSpaceOnUse">
            <stop offset="0.3832" stop-color="#59C1DB"/>
            <stop offset="0.4687" stop-color="#4FCEB4"/>
            <stop offset="0.5786" stop-color="#44DD88"/>
            <stop offset="0.664" stop-color="#3EE76C"/>
            <stop offset="0.7139" stop-color="#3BEA62"/>
        </linearGradient>
        <linearGradient id="paint17_linear" x1="6.26804" y1="7.49224" x2="15.9311" y2="10.6848"
                        gradientUnits="userSpaceOnUse">
            <stop stop-color="#1CA7BE"/>
            <stop offset="0.3751" stop-color="#2FCF87"/>
            <stop offset="0.6552" stop-color="#3BEA62"/>
            <stop offset="0.8574" stop-color="#5FFF58"/>
        </linearGradient>
        <linearGradient id="paint18_linear" x1="5.84136" y1="9.8635" x2="12.8652" y2="9.48037"
                        gradientUnits="userSpaceOnUse">
            <stop offset="0.2959" stop-color="#1CA7BE"/>
            <stop offset="0.3429" stop-color="#23B5AA"/>
            <stop offset="0.4312" stop-color="#2DCC8B"/>
            <stop offset="0.5168" stop-color="#35DD74"/>
            <stop offset="0.5981" stop-color="#39E767"/>
            <stop offset="0.6701" stop-color="#3BEA62"/>
            <stop offset="1" stop-color="#7EEF5A"/>
        </linearGradient>
        <linearGradient id="paint19_linear" x1="13.6509" y1="1.98117" x2="10.9904" y2="9.10737"
                        gradientUnits="userSpaceOnUse">
            <stop offset="0.124" stop-color="#1CA563"/>
            <stop offset="0.3268" stop-color="#29C163" stop-opacity="0.7473"/>
            <stop offset="0.5412" stop-color="#33D862" stop-opacity="0.48"/>
            <stop offset="0.7453" stop-color="#39E562" stop-opacity="0.2256"/>
            <stop offset="0.9263" stop-color="#3BEA62" stop-opacity="0"/>
        </linearGradient>
        <linearGradient id="paint20_linear" x1="3.36978" y1="3.3698" x2="13.0203" y2="13.0203"
                        gradientUnits="userSpaceOnUse">
            <stop stop-color="#006396"/>
            <stop offset="0.0339724" stop-color="#005682"/>
            <stop offset="0.121" stop-color="#003754"/>
            <stop offset="0.2043" stop-color="#001F2F"/>
            <stop offset="0.2818" stop-color="#000E15"/>
            <stop offset="0.3512" stop-color="#000406"/>
            <stop offset="0.4058"/>
            <stop offset="0.9138"/>
        </linearGradient>
    </defs>
</svg>
