<svg width="16" height="16" viewBox="0 0 16 16" fill="none" xmlns="http://www.w3.org/2000/svg">
    <path
        d="M2.53339 14.0667L0.533386 2.0667L4.26672 0.533371L6.60005 1.93337L8.80005 0.733371L13.4001 2.53337L10.8001 15.4667L2.53339 14.0667Z"
        fill="url(#paint0_linear)"/>
    <path
        d="M8.80004 0.733368L6.60004 1.93337L7.2667 6.80003L8.60004 7.73337L9.00004 10.6L10.5334 10.7334L9.40004 5.4667L8.80004 0.733368Z"
        fill="url(#paint1_linear)"/>
    <path
        d="M7.26672 7.33337L6.60006 1.93337L4.26672 0.533371L5.26672 6.33337L5.60006 9.93337L7.66672 9.8667L7.46672 8.93337L7.26672 7.33337Z"
        fill="url(#paint2_linear)"/>
    <path d="M2.53339 14.0667L0.533386 2.0667L4.26672 0.533371L5.26672 6.53337L2.53339 14.0667Z"
          fill="url(#paint3_linear)"/>
    <path d="M5.26672 6.53337L4.26672 0.533371L0.533386 2.0667L4.66672 5.6667L5.26672 6.53337Z"
          fill="url(#paint4_linear)"/>
    <path d="M2.53339 14.0667L0.533386 2.06671L4.66672 5.66671L8.80005 11.2L2.53339 14.0667Z"
          fill="url(#paint5_linear)"/>
    <path d="M2.53339 14.0667L6.06672 11.4667L10.8001 15.4667L2.53339 14.0667Z" fill="url(#paint6_linear)"/>
    <path d="M7.73338 10.8667L6.06671 12.4L10.8 15.4667L11.6667 11.3334L7.73338 10.8667Z" fill="url(#paint7_linear)"/>
    <path d="M2.53339 14.0667L6.06672 12.4L10.8001 15.4667L2.53339 14.0667Z" fill="url(#paint8_linear)"/>
    <path
        d="M15.4667 5.60004L13.5334 0.800038L10.0667 0.533371L4.60004 5.73337L6.00004 12.4L8.93337 14.2667L15.4667 10.3334L13.8667 7.2667L15.4667 5.60004Z"
        fill="url(#paint9_linear)"/>
    <path d="M10.4667 5.33337L10.0667 0.533371L4.60004 5.73337L8.6667 6.93337L10.4667 5.33337Z"
          fill="url(#paint10_linear)"/>
    <path d="M9.53337 1.00003L4.60004 5.73336L8.6667 6.93336L10.8 9.2667L10.1334 1.2667L9.53337 1.00003Z"
          fill="url(#paint11_linear)"/>
    <path
        d="M8.6667 6.93337L9.53337 6.13337L9.40003 5.4667L8.93337 1.60004L6.8667 3.60004L7.20003 6.53337L8.6667 6.93337Z"
        fill="url(#paint12_linear)"/>
    <path d="M7.20005 6.53337L6.80004 3.60004L5.06671 5.2667L5.13338 5.8667L7.20005 6.53337Z"
          fill="url(#paint13_linear)"/>
    <path d="M9.53337 1.00003L4.60004 5.73336L10.1334 1.2667L9.53337 1.00003Z" fill="url(#paint14_linear)"/>
    <path d="M9.00003 2.13337L8.93337 1.60004L6.8667 3.60004V3.8667L9.00003 2.13337Z" fill="url(#paint15_linear)"/>
    <path d="M6.86671 3.8667L6.80004 3.60004L5.06671 5.2667V5.33337L6.86671 3.8667Z" fill="url(#paint16_linear)"/>
    <path d="M12.0001 3.93336L8.66675 6.93336L8.93341 14.2667L15.4667 10.3334L13.8667 7.2667L12.0001 3.93336Z"
          fill="url(#paint17_linear)"/>
    <path d="M10.4667 5.73337L10.8001 9.53337L15.4667 10.3334L13.8667 7.2667L12.8667 5.53337L10.4667 5.73337Z"
          fill="url(#paint18_linear)"/>
    <path d="M10.4667 5.73337L10.8001 9.53337L11.5334 9.6667L13.8667 7.2667L12.8667 5.53337L10.4667 5.73337Z"
          fill="url(#paint19_linear)"/>
    <path d="M8.6667 6.93337L4.60004 5.73337L6.00004 12.4L8.93337 14.2667L8.6667 6.93337Z" fill="url(#paint20_linear)"/>
    <path
        d="M7.33336 7.33337L7.20003 6.53337L5.13336 5.8667L5.2667 6.33337L5.93336 11.5334L6.00003 12L8.13336 13.6667L7.33336 7.33337Z"
        fill="url(#paint21_linear)"/>
    <path d="M6.00006 12.4L8.93339 14.2667L8.80006 10.6667L6.00006 12.4Z" fill="url(#paint22_linear)"/>
    <path d="M12 3.93337L13.8667 7.2667L15.4667 5.60003L13.5334 0.800034L11.1334 3.80003L12 3.93337Z"
          fill="url(#paint23_linear)"/>
    <path d="M12.9334 5.60004L13.8667 7.2667L15.4667 5.60004H12.9334Z" fill="url(#paint24_linear)"/>
    <path d="M4.60004 5.73337L4.93337 7.2667L4.60004 5.73337Z" fill="url(#paint25_linear)"/>
    <path d="M12.6666 3.33333H3.33331V12.6667H12.6666V3.33333Z" fill="url(#paint26_linear)"/>
    <path d="M8.66663 10.6667H4.66663V11.3333H8.66663V10.6667Z" fill="white"/>
    <path
        d="M8.79993 8.06667L9.33326 7.46667C9.66659 7.73334 10.0666 7.93334 10.5333 7.93334C10.8666 7.93334 11.1333 7.80001 11.1333 7.53334C11.1333 7.33334 10.9999 7.20001 10.3333 7.00001C9.53326 6.80001 8.99993 6.60001 8.99993 5.80001C8.99993 5.06667 9.59993 4.60001 10.3999 4.60001C10.9999 4.60001 11.4666 4.80001 11.8666 5.13334L11.3999 5.80001C11.0666 5.53334 10.6666 5.40001 10.3333 5.40001C9.99993 5.40001 9.79993 5.53334 9.79993 5.73334C9.79993 6.00001 9.99993 6.06667 10.6666 6.26667C11.5333 6.46667 11.9999 6.80001 11.9999 7.46667C11.9999 8.26667 11.3999 8.73334 10.5333 8.73334C9.93326 8.73334 9.33326 8.53334 8.79993 8.06667Z"
        fill="white"/>
    <path
        d="M5.86671 8.66673L6.53338 6.3334L7.13338 8.66673H7.86671L9.00004 4.66673H8.06671L7.53338 7.00007L6.86671 4.66673H6.20004L5.53338 7.00007L4.93338 4.66673H4.06671L5.13338 8.66673H5.86671Z"
        fill="white"/>
    <defs>
        <linearGradient id="paint0_linear" x1="5.87165" y1="0.812904" x2="9.75352" y2="14.7875"
                        gradientUnits="userSpaceOnUse">
            <stop offset="0.2849" stop-color="#07C3F2"/>
            <stop offset="0.9409" stop-color="#087CFA"/>
        </linearGradient>
        <linearGradient id="paint1_linear" x1="7.16144" y1="0.0177846" x2="9.18344" y2="8.72304"
                        gradientUnits="userSpaceOnUse">
            <stop offset="0.0669317" stop-color="#42FFFA"/>
            <stop offset="0.3409" stop-color="#07C3F2"/>
            <stop offset="0.9409" stop-color="#087CFA"/>
        </linearGradient>
        <linearGradient id="paint2_linear" x1="3.76052" y1="0.0386316" x2="6.93292" y2="8.00157"
                        gradientUnits="userSpaceOnUse">
            <stop offset="0.2849" stop-color="#07C3F2"/>
            <stop offset="0.9409" stop-color="#087CFA"/>
        </linearGradient>
        <linearGradient id="paint3_linear" x1="1.36285" y1="-0.908096" x2="4.78959" y2="13.0118"
                        gradientUnits="userSpaceOnUse">
            <stop offset="0.0669317" stop-color="#42FFFA"/>
            <stop offset="0.3409" stop-color="#07C3F2"/>
            <stop offset="0.9409" stop-color="#087CFA"/>
        </linearGradient>
        <linearGradient id="paint4_linear" x1="2.62245" y1="4.56637" x2="3.65259" y2="3.5007"
                        gradientUnits="userSpaceOnUse">
            <stop offset="0.00971316" stop-color="#42FFFA"/>
            <stop offset="0.9216" stop-color="#07C3F2" stop-opacity="0"/>
        </linearGradient>
        <linearGradient id="paint5_linear" x1="-3.24721" y1="5.00565" x2="6.88412" y2="11.5186"
                        gradientUnits="userSpaceOnUse">
            <stop offset="0.1985" stop-color="#07C3F2"/>
            <stop offset="0.9403" stop-color="#087CFA"/>
        </linearGradient>
        <linearGradient id="paint6_linear" x1="0.549453" y1="13.2642" x2="6.38132" y2="13.4345"
                        gradientUnits="userSpaceOnUse">
            <stop offset="0.1291" stop-color="#1D53B8"/>
            <stop offset="0.8696" stop-color="#087CFA"/>
        </linearGradient>
        <linearGradient id="paint7_linear" x1="8.58951" y1="10.889" x2="9.85338" y2="15.4391"
                        gradientUnits="userSpaceOnUse">
            <stop offset="0.2771" stop-color="#087BFA"/>
            <stop offset="0.6826" stop-color="#085DFA"/>
        </linearGradient>
        <linearGradient id="paint8_linear" x1="5.83979" y1="8.07184" x2="6.73372" y2="15.3085"
                        gradientUnits="userSpaceOnUse">
            <stop offset="0.5232" stop-color="#087BFA"/>
            <stop offset="0.9771" stop-color="#086DFA"/>
        </linearGradient>
        <linearGradient id="paint9_linear" x1="7.05837" y1="2.6027" x2="13.6252" y2="12.232"
                        gradientUnits="userSpaceOnUse">
            <stop offset="0.1286" stop-color="#FCF84A"/>
            <stop offset="0.4986" stop-color="#07C3F2"/>
        </linearGradient>
        <linearGradient id="paint10_linear" x1="9.94464" y1="0.437638" x2="9.30344" y2="1.79544"
                        gradientUnits="userSpaceOnUse">
            <stop stop-color="#73A4AA"/>
            <stop offset="0.6751" stop-color="#FCF84A"/>
        </linearGradient>
        <linearGradient id="paint11_linear" x1="6.60857" y1="-1.71257" x2="8.90277" y2="13.8821"
                        gradientUnits="userSpaceOnUse">
            <stop offset="0.1786" stop-color="#FCF84A"/>
            <stop offset="0.8591" stop-color="#07C3F2"/>
        </linearGradient>
        <linearGradient id="paint12_linear" x1="7.4433" y1="1.35997" x2="9.1941" y2="8.8979"
                        gradientUnits="userSpaceOnUse">
            <stop offset="0.1787" stop-color="#FCF84A"/>
            <stop offset="0.9725" stop-color="#12C6EC"/>
        </linearGradient>
        <linearGradient id="paint13_linear" x1="5.58198" y1="3.88884" x2="7.01084" y2="6.8629"
                        gradientUnits="userSpaceOnUse">
            <stop offset="0.1286" stop-color="#FCF84A"/>
            <stop offset="0.9414" stop-color="#07C3F2"/>
        </linearGradient>
        <linearGradient id="paint14_linear" x1="6.85217" y1="-0.0698363" x2="7.92897" y2="7.24936"
                        gradientUnits="userSpaceOnUse">
            <stop offset="0.1786" stop-color="#FCF84A"/>
            <stop offset="0.8591" stop-color="#07C3F2"/>
        </linearGradient>
        <linearGradient id="paint15_linear" x1="7.6559" y1="1.6905" x2="8.2473" y2="4.23664"
                        gradientUnits="userSpaceOnUse">
            <stop offset="0.1787" stop-color="#D3FF8C"/>
            <stop offset="0.8762" stop-color="#12C6EC"/>
        </linearGradient>
        <linearGradient id="paint16_linear" x1="5.73378" y1="4.03597" x2="6.14891" y2="4.90004"
                        gradientUnits="userSpaceOnUse">
            <stop offset="0.1286" stop-color="#FCF84A"/>
            <stop offset="0.9414" stop-color="#07C3F2"/>
        </linearGradient>
        <linearGradient id="paint17_linear" x1="8.55328" y1="6.30517" x2="12.8267" y2="12.5716"
                        gradientUnits="userSpaceOnUse">
            <stop stop-color="#07C3F2"/>
            <stop offset="0.906" stop-color="#00A0FF"/>
        </linearGradient>
        <linearGradient id="paint18_linear" x1="14.7507" y1="7.82017" x2="9.38707" y2="8.5013"
                        gradientUnits="userSpaceOnUse">
            <stop stop-color="#07C3F2"/>
            <stop offset="1" stop-color="#0895F7"/>
        </linearGradient>
        <linearGradient id="paint19_linear" x1="13.5601" y1="7.3763" x2="9.64647" y2="7.87324"
                        gradientUnits="userSpaceOnUse">
            <stop stop-color="#07C3F2"/>
            <stop offset="1" stop-color="#0895F7"/>
        </linearGradient>
        <linearGradient id="paint20_linear" x1="4.02017" y1="4.8405" x2="9.5751" y2="12.9861"
                        gradientUnits="userSpaceOnUse">
            <stop offset="0.080633" stop-color="#FCF84A"/>
            <stop offset="0.5708" stop-color="#07C3F2"/>
        </linearGradient>
        <linearGradient id="paint21_linear" x1="4.6521" y1="5.1939" x2="8.90109" y2="14.0377"
                        gradientUnits="userSpaceOnUse">
            <stop offset="0.1286" stop-color="#FCF84A"/>
            <stop offset="0.4216" stop-color="#07C3F2"/>
        </linearGradient>
        <linearGradient id="paint22_linear" x1="5.87913" y1="10.5013" x2="9.49199" y2="12.9472"
                        gradientUnits="userSpaceOnUse">
            <stop offset="0.09347" stop-color="#087CFA"/>
            <stop offset="0.6584" stop-color="#07C3F2"/>
        </linearGradient>
        <linearGradient id="paint23_linear" x1="12.2192" y1="0.8101" x2="14.0728" y2="7.37497"
                        gradientUnits="userSpaceOnUse">
            <stop stop-color="#FCF84A"/>
            <stop offset="0.4651" stop-color="#07C3F2"/>
            <stop offset="0.9409" stop-color="#087CFA"/>
        </linearGradient>
        <linearGradient id="paint24_linear" x1="16.2247" y1="6.0123" x2="10.7333" y2="6.8211"
                        gradientUnits="userSpaceOnUse">
            <stop stop-color="#0863FA"/>
            <stop offset="0.9409" stop-color="#1AC8FB"/>
        </linearGradient>
        <linearGradient id="paint25_linear" x1="4.38004" y1="5.88803" x2="5.24444" y2="7.1555"
                        gradientUnits="userSpaceOnUse">
            <stop offset="0.1286" stop-color="#FCF84A"/>
            <stop offset="0.4216" stop-color="#07C3F2"/>
        </linearGradient>
        <linearGradient id="paint26_linear" x1="3.09891" y1="2.9095" x2="11.2678" y2="11.3941"
                        gradientUnits="userSpaceOnUse">
            <stop stop-color="#006396"/>
            <stop offset="0.0470796" stop-color="#005682"/>
            <stop offset="0.1677" stop-color="#003754"/>
            <stop offset="0.2832" stop-color="#001F2F"/>
            <stop offset="0.3905" stop-color="#000E15"/>
            <stop offset="0.4867" stop-color="#000406"/>
            <stop offset="0.5623"/>
            <stop offset="0.9138"/>
        </linearGradient>
    </defs>
</svg>
