<svg width="122" height="108" viewBox="0 0 122 108" fill="none" xmlns="http://www.w3.org/2000/svg"><mask id="b" style="mask-type:alpha" maskUnits="userSpaceOnUse" x="0" y="0" width="122" height="108"><rect width="121.267" height="107.487" rx="4.295" fill="url(#a)"/></mask><g mask="url(#b)"><path d="m24.923 46.677-57.465-57.465" stroke="url(#c)" stroke-width=".345" stroke-dasharray="2.76 2.76"/><path d="M8.322-45.748 117.557 63.487" stroke="url(#d)" stroke-width=".345" stroke-dasharray="2.76 2.76"/><rect x="102.796" y="26.306" width="54.408" height="54.408" rx=".345" transform="rotate(135 102.796 26.306)" stroke="url(#e)" stroke-width=".691" stroke-linejoin="round"/><g filter="url(#f)"><rect x="102.796" y="70.39" width="54.408" height="54.408" rx=".345" transform="rotate(135 102.796 70.39)" stroke="url(#g)" stroke-width=".691" stroke-linejoin="round"/></g><rect opacity=".4" x="102.796" y="70.39" width="54.408" height="54.408" rx=".345" transform="rotate(135 102.796 70.39)" stroke="url(#h)" stroke-width=".691" stroke-linejoin="round"/><g filter="url(#i)"><rect x="103.284" y="48.141" width="55.098" height="55.098" rx=".691" transform="rotate(135 103.284 48.14)" fill="#7010BE"/><mask id="j" style="mask-type:alpha" maskUnits="userSpaceOnUse" x="25" y="9" width="78" height="78"><rect x="103.284" y="48.142" width="55.098" height="55.098" rx=".691" transform="rotate(135 103.284 48.142)" fill="#D9D9D9"/></mask><g mask="url(#j)" stroke="#CE9CFF" stroke-width=".23"><path transform="matrix(.43768 .90701 -.12106 -.98545 10.608 2.203)" d="M0-.115h112.387"/><path transform="matrix(.43768 .90701 -.12106 -.98545 12.616 1.858)" d="M0-.115h112.387"/><path transform="matrix(.43768 .90701 -.12106 -.98545 14.624 1.513)" d="M0-.115h112.387"/><path transform="matrix(.43768 .90701 -.12106 -.98545 16.632 1.167)" d="M0-.115h112.387"/><path transform="matrix(.43768 .90701 -.12106 -.98545 18.64 .821)" d="M0-.115h112.387"/><path transform="matrix(.43768 .90701 -.12106 -.98545 20.646 .477)" d="M0-.115h112.387"/><path transform="matrix(.43768 .90701 -.12106 -.98545 22.654 .13)" d="M0-.115h112.387"/><path transform="matrix(.43768 .90701 -.12106 -.98545 24.662 -.215)" d="M0-.115h112.387"/><path transform="matrix(.43768 .90701 -.12106 -.98545 26.67 -.56)" d="M0-.115h112.387"/><path transform="matrix(.43768 .90701 -.12106 -.98545 28.678 -.906)" d="M0-.115h112.387"/><path transform="matrix(.43768 .90701 -.12106 -.98545 30.686 -1.252)" d="M0-.115h112.387"/><path transform="matrix(.43768 .90701 -.12106 -.98545 32.692 -1.597)" d="M0-.115h112.387"/><path transform="matrix(.43768 .90701 -.12106 -.98545 34.7 -1.942)" d="M0-.115h112.387"/><path transform="matrix(.43768 .90701 -.12106 -.98545 36.708 -2.29)" d="M0-.115h112.387"/><path transform="matrix(.43768 .90701 -.12106 -.98545 38.716 -2.634)" d="M0-.115h112.387"/><path transform="matrix(.43768 .90701 -.12106 -.98545 40.724 -2.98)" d="M0-.115h112.387"/><path transform="matrix(.43768 .90701 -.12106 -.98545 42.731 -3.325)" d="M0-.115h112.387"/><path transform="matrix(.43768 .90701 -.12106 -.98545 44.738 -3.67)" d="M0-.115h112.387"/><path transform="matrix(.43768 .90701 -.12106 -.98545 46.746 -4.016)" d="M0-.115h112.387"/><path transform="matrix(.43768 .90701 -.12106 -.98545 48.754 -4.361)" d="M0-.115h112.387"/><path transform="matrix(.43768 .90701 -.12106 -.98545 50.762 -4.707)" d="M0-.115h112.387"/><path transform="matrix(.43768 .90701 -.12106 -.98545 52.769 -5.053)" d="M0-.115h112.387"/><path transform="matrix(.43768 .90701 -.12106 -.98545 54.776 -5.398)" d="M0-.115h112.387"/><path transform="matrix(.43768 .90701 -.12106 -.98545 56.785 -5.744)" d="M0-.115h112.387"/><path transform="matrix(.43768 .90701 -.12106 -.98545 58.792 -6.09)" d="M0-.115h112.387"/><path transform="matrix(.43768 .90701 -.12106 -.98545 60.8 -6.435)" d="M0-.115h112.387"/><path transform="matrix(.43768 .90701 -.12106 -.98545 62.807 -6.781)" d="M0-.115h112.387"/><path transform="matrix(.43768 .90701 -.12106 -.98545 64.814 -7.126)" d="M0-.115h112.387"/><path transform="matrix(.43768 .90701 -.12106 -.98545 66.822 -7.472)" d="M0-.115h112.387"/><path transform="matrix(.43768 .90701 -.12106 -.98545 68.83 -7.817)" d="M0-.115h112.387"/><path transform="matrix(.43768 .90701 -.12106 -.98545 70.838 -8.163)" d="M0-.115h112.387"/><path transform="matrix(.43768 .90701 -.12106 -.98545 72.846 -8.508)" d="M0-.115h112.387"/><path transform="matrix(.43768 .90701 -.12106 -.98545 74.853 -8.854)" d="M0-.115h112.387"/><path transform="matrix(.43768 .90701 -.12106 -.98545 76.86 -9.2)" d="M0-.115h112.387"/><path transform="matrix(.43768 .90701 -.12106 -.98545 78.868 -9.545)" d="M0-.115h112.387"/><path transform="matrix(.43768 .90701 -.12106 -.98545 80.876 -9.89)" d="M0-.115h112.387"/><path transform="matrix(.43768 .90701 -.12106 -.98545 82.883 -10.236)" d="M0-.115h112.387"/><path transform="matrix(.43768 .90701 -.12106 -.98545 84.892 -10.582)" d="M0-.115h112.387"/><path transform="matrix(.43768 .90701 -.12106 -.98545 86.898 -10.927)" d="M0-.115h112.387"/><path transform="matrix(.43768 .90701 -.12106 -.98545 88.905 -11.273)" d="M0-.115h112.387"/><path transform="matrix(.43768 .90701 -.12106 -.98545 90.914 -11.618)" d="M0-.115h112.387"/><path transform="matrix(.43768 .90701 -.12106 -.98545 92.922 -11.964)" d="M0-.115h112.387"/><path transform="matrix(.43768 .90701 -.12106 -.98545 8.602 2.549)" d="M0-.115h112.387"/><path transform="matrix(.43768 .90701 -.12106 -.98545 6.594 2.896)" d="M0-.115h112.387"/><path transform="matrix(.43768 .90701 -.12106 -.98545 4.586 3.24)" d="M0-.115h112.387"/><path transform="matrix(.43768 .90701 -.12106 -.98545 2.58 3.586)" d="M0-.115h112.387"/><path transform="matrix(.43768 .90701 -.12106 -.98545 .571 3.932)" d="M0-.115h112.387"/><path transform="matrix(.43768 .90701 -.12106 -.98545 -1.437 4.277)" d="M0-.115h112.387"/><path transform="matrix(.43768 .90701 -.12106 -.98545 -3.444 4.622)" d="M0-.115h112.387"/><path transform="matrix(.43768 .90701 -.12106 -.98545 -5.452 4.968)" d="M0-.115h112.387"/><path transform="matrix(.43768 .90701 -.12106 -.98545 -7.46 5.313)" d="M0-.115h112.387"/><path transform="matrix(.43768 .90701 -.12106 -.98545 -9.468 5.66)" d="M0-.115h112.387"/><path transform="matrix(.43768 .90701 -.12106 -.98545 -11.475 6.005)" d="M0-.115h112.387"/><path transform="matrix(.43768 .90701 -.12106 -.98545 -13.482 6.35)" d="M0-.115h112.387"/></g><rect x="102.796" y="48.141" width="54.408" height="54.408" rx=".345" transform="rotate(135 102.796 48.14)" stroke="#A112FF" stroke-width=".691" stroke-linejoin="round"/></g><path d="M123.131 145.199 65.666 87.734" stroke="url(#k)" stroke-width=".345" stroke-dasharray="2.76 2.76"/><g filter="url(#l)"><rect x="102.796" y="26.306" width="54.408" height="54.408" rx=".345" transform="rotate(135 102.796 26.306)" stroke="url(#m)" stroke-width=".691" stroke-linejoin="round"/></g></g><defs><linearGradient id="a" x1="121.267" y1="47.563" x2="0" y2="47.563" gradientUnits="userSpaceOnUse"><stop stop-color="#270741"/><stop offset="1" stop-color="#340957"/></linearGradient><linearGradient id="c" x1="24.425" y1="47.175" x2="-39.589" y2="-1.718" gradientUnits="userSpaceOnUse"><stop stop-color="#A112FF"/><stop offset="1" stop-color="#FF5543"/></linearGradient><linearGradient id="d" x1="7.824" y1="-45.25" x2="84.295" y2="83.454" gradientUnits="userSpaceOnUse"><stop stop-color="#00CBEC"/><stop offset="1" stop-color="#A112FF"/></linearGradient><linearGradient id="e" x1="130.833" y1="26.306" x2="130.833" y2="81.404" gradientUnits="userSpaceOnUse"><stop stop-color="#A112FF"/><stop offset="1" stop-color="#129BFF"/></linearGradient><linearGradient id="g" x1="130.833" y1="70.39" x2="130.833" y2="125.488" gradientUnits="userSpaceOnUse"><stop stop-color="#A112FF"/><stop offset="1" stop-color="#129BFF"/></linearGradient><linearGradient id="h" x1="130.833" y1="70.39" x2="130.833" y2="125.488" gradientUnits="userSpaceOnUse"><stop stop-color="#A112FF"/><stop offset="1" stop-color="#129BFF"/></linearGradient><linearGradient id="k" x1="123.629" y1="144.701" x2="74.736" y2="80.688" gradientUnits="userSpaceOnUse"><stop stop-color="#00CBEC"/><stop offset="1" stop-color="#A112FF"/></linearGradient><linearGradient id="m" x1="130.833" y1="26.306" x2="130.833" y2="81.404" gradientUnits="userSpaceOnUse"><stop stop-color="#A112FF"/><stop offset="1" stop-color="#129BFF"/></linearGradient><filter id="f" x="22.893" y="28.96" width="82.861" height="82.86" filterUnits="userSpaceOnUse" color-interpolation-filters="sRGB"><feFlood flood-opacity="0" result="BackgroundImageFix"/><feBlend in="SourceGraphic" in2="BackgroundImageFix" result="shape"/><feGaussianBlur stdDeviation="1.378" result="effect1_foregroundBlur_378_301"/></filter><filter id="i" x="-12.351" y="-3.533" width="153.349" height="153.349" filterUnits="userSpaceOnUse" color-interpolation-filters="sRGB"><feFlood flood-opacity="0" result="BackgroundImageFix"/><feColorMatrix in="SourceAlpha" values="0 0 0 0 0 0 0 0 0 0 0 0 0 0 0 0 0 0 127 0" result="hardAlpha"/><feMorphology radius="12" in="SourceAlpha" result="effect1_dropShadow_378_301"/><feOffset dy="25"/><feGaussianBlur stdDeviation="25"/><feColorMatrix values="0 0 0 0 0 0 0 0 0 0 0 0 0 0 0 0 0 0 0.25 0"/><feBlend in2="BackgroundImageFix" result="effect1_dropShadow_378_301"/><feBlend in="SourceGraphic" in2="effect1_dropShadow_378_301" result="shape"/></filter><filter id="l" x="-12.351" y="-25.368" width="153.349" height="153.348" filterUnits="userSpaceOnUse" color-interpolation-filters="sRGB"><feFlood flood-opacity="0" result="BackgroundImageFix"/><feColorMatrix in="SourceAlpha" values="0 0 0 0 0 0 0 0 0 0 0 0 0 0 0 0 0 0 127 0" result="hardAlpha"/><feMorphology radius="12" in="SourceAlpha" result="effect1_dropShadow_378_301"/><feOffset dy="25"/><feGaussianBlur stdDeviation="25"/><feColorMatrix values="0 0 0 0 0 0 0 0 0 0 0 0 0 0 0 0 0 0 0.25 0"/><feBlend in2="BackgroundImageFix" result="effect1_dropShadow_378_301"/><feBlend in="SourceGraphic" in2="effect1_dropShadow_378_301" result="shape"/></filter></defs></svg>