<svg width="541" height="72" viewBox="0 0 541 72" fill="none" xmlns="http://www.w3.org/2000/svg">
<path d="M37.6127 71.8971C34.1753 72.5152 30.8606 70.2898 30.2468 66.8281L20.9166 15.5209C20.3027 12.0592 22.5125 8.72111 25.95 8.10295C29.3874 7.48479 32.7021 9.71017 33.3159 13.1719L42.6461 64.4791C43.26 67.9408 40.9274 71.2789 37.6127 71.8971Z" fill="#FF5543"/>
<path d="M13.1823 63.1192C10.9725 63.4901 8.76273 62.7483 7.16678 61.0175C4.95699 58.2976 5.20252 54.3413 7.90337 52.116L47.3112 18.3644C50.0121 16.1391 53.9406 16.3863 56.1504 19.1062C58.3602 21.8261 58.1146 25.7824 55.4138 28.0077L16.1287 61.7593C15.2693 62.501 14.1644 62.9956 13.1823 63.1192Z" fill="#A112FF"/>
<path d="M57.2553 54.9595C56.1504 55.2067 55.0455 55.0831 54.0634 54.7122L5.20257 37.2801C1.88789 36.0438 0.169164 32.4585 1.39682 29.1204C2.62448 25.7823 6.18469 24.0515 9.49937 25.2878L58.2374 42.7199C61.5521 43.9562 63.2708 47.5416 62.0432 50.8796C61.3066 53.105 59.3423 54.5886 57.2553 54.9595Z" fill="#00CBEC"/>
<path d="M99.5 48.5405C99.5 47.2793 99 46.2703 98.125 45.5135C97.25 44.7568 96.125 44 94.75 43.3694C93.375 42.7387 91.875 42.1081 90.25 41.3513C88.625 40.7207 87.125 39.8378 85.75 38.8288C84.375 37.8198 83.25 36.5585 82.375 35.045C81.5 33.5315 81 31.6396 81 29.3694C81 27.3513 81.375 25.5856 82 24.1982C82.625 22.6847 83.625 21.5495 84.875 20.5405C86.125 19.5315 87.5 18.9009 89.25 18.3964C90.875 17.8919 92.75 17.6396 94.875 17.6396C97.25 17.6396 99.5 17.8919 101.5 18.2703C103.5 18.6486 105.375 19.2793 106.625 20.036L104.125 26.7207C103.25 26.2162 102 25.7117 100.25 25.3333C98.5 24.8288 96.75 24.7027 94.75 24.7027C92.875 24.7027 91.5 25.0811 90.5 25.8378C89.5 26.5946 89 27.6036 89 28.8649C89 30 89.5 31.009 90.375 31.7658C91.25 32.5225 92.375 33.2793 93.75 33.9099C95.125 34.5405 96.625 35.2973 98.25 35.9279C99.875 36.6847 101.375 37.4414 102.75 38.4504C104.125 39.4595 105.25 40.7207 106.125 42.1081C107 43.6216 107.5 45.3874 107.5 47.5315C107.5 49.6757 107.125 51.5676 106.375 53.2072C105.625 54.8468 104.625 56.1081 103.375 57.1171C102.125 58.1261 100.5 59.009 98.625 59.5135C96.75 60.018 94.75 60.2703 92.5 60.2703C89.625 60.2703 87 60.018 84.875 59.3874C82.625 58.8829 81 58.2522 80 57.7477L82.5 50.9369C82.875 51.1892 83.5 51.4414 84.125 51.6937C84.75 51.9459 85.625 52.1982 86.375 52.4504C87.25 52.7027 88.125 52.8288 89.125 53.0811C90.125 53.2072 91 53.3333 92 53.3333C94.375 53.3333 96.125 52.9549 97.375 52.0721C98.875 51.3153 99.5 50.1802 99.5 48.5405Z" fill="black"/>
<path d="M110.875 44.8829C110.875 39.964 112.125 36.0541 114.5 33.4054C116.875 30.7568 120.25 29.3694 124.625 29.3694C127 29.3694 129 29.7477 130.625 30.5045C132.375 31.2613 133.75 32.2703 134.875 33.6577C136 35.045 136.875 36.6847 137.375 38.5766C137.875 40.4685 138.25 42.6126 138.25 44.8829C138.25 49.8018 137 53.7117 134.625 56.3604C132.25 59.009 128.875 60.3964 124.5 60.3964C122.125 60.3964 120.125 60.018 118.5 59.2613C116.75 58.5045 115.375 57.4955 114.25 56.1081C113.125 54.7207 112.25 53.0811 111.75 51.1892C111.125 49.2973 110.875 47.1532 110.875 44.8829ZM118.625 44.8829C118.625 46.1441 118.75 47.4054 119 48.4144C119.25 49.5495 119.625 50.4324 120 51.3153C120.5 52.1982 121.125 52.8288 121.875 53.2072C122.625 53.7117 123.5 53.8378 124.625 53.8378C126.625 53.8378 128.125 53.0811 129 51.6937C130 50.3063 130.5 47.9099 130.5 44.8829C130.5 42.2342 130 39.964 129.125 38.3243C128.25 36.6847 126.75 35.8018 124.625 35.8018C122.75 35.8018 121.25 36.5586 120.25 37.9459C119.125 39.3333 118.625 41.6036 118.625 44.8829Z" fill="black"/>
<path d="M149.625 30.2522V46.9009C149.625 49.2973 149.875 51.0631 150.5 52.0721C151 53.0811 152.125 53.7117 153.75 53.7117C155.125 53.7117 156.375 53.3333 157.375 52.4504C158.375 51.5676 159 50.5585 159.5 49.2973V30.3784H167V50.8108C167 52.4504 167.125 53.964 167.25 55.4775C167.375 56.991 167.625 58.3784 168 59.6396H162.25L160.875 55.3513H160.625C159.75 56.8649 158.5 58.1261 156.875 59.009C155.25 60.018 153.375 60.5225 151.25 60.5225C149.75 60.5225 148.5 60.2703 147.25 59.8919C146.125 59.5135 145.125 58.8829 144.375 58C143.625 57.1171 143 55.8558 142.625 54.3423C142.25 52.8288 142 50.8108 142 48.4144V30.2522H149.625Z" fill="black"/>
<path d="M188.875 37.3153C187.625 36.9369 186.625 36.6847 185.625 36.6847C184.25 36.6847 183.125 37.0631 182.25 37.8198C181.375 38.5766 180.75 39.4595 180.375 40.5946V59.5135H172.875V30.2523H178.75L179.625 34.1622H179.875C180.5 32.7748 181.375 31.6396 182.5 30.7568C183.625 29.8739 185 29.6216 186.5 29.6216C187.5 29.6216 189.625 30.1261 190.75 30.6306L188.875 37.3153Z" fill="black"/>
<path d="M213.375 57.7477C212.25 58.6306 210.75 59.2613 209.125 59.7658C207.5 60.2703 205.75 60.3964 204 60.3964C201.625 60.3964 199.75 60.018 198.125 59.2613C196.5 58.5045 195.25 57.4955 194.25 56.1081C193.25 54.7207 192.5 53.0811 192.125 51.1892C191.625 49.2973 191.5 47.1532 191.5 44.8829C191.5 39.964 192.625 36.0541 194.875 33.4054C197.125 30.7568 200.25 29.3694 204.5 29.3694C206.625 29.3694 208.375 29.4955 209.625 29.8739C210.875 30.2523 212.125 30.6306 213.125 31.2613L211.375 37.4414C210.5 37.0631 209.625 36.6847 208.75 36.4324C207.875 36.1802 206.875 36.0541 205.75 36.0541C203.625 36.0541 202.125 36.8108 201 38.1982C199.875 39.5856 199.375 41.8559 199.375 44.8829C199.375 46.1441 199.5 47.2793 199.75 48.2883C200 49.2973 200.375 50.3063 201 51.0631C201.5 51.8198 202.25 52.4504 203.125 52.955C204 53.4595 205 53.5856 206.125 53.5856C207.375 53.5856 208.5 53.4595 209.375 53.0811C210.25 52.7027 211 52.3243 211.75 51.8198L213.375 57.7477Z" fill="black"/>
<path d="M240 56.991C238.875 57.8739 237.25 58.7568 235.25 59.3874C233.25 60.018 231.125 60.3964 228.875 60.3964C224.125 60.3964 220.75 59.009 218.625 56.2342C216.5 53.4595 215.375 49.6757 215.375 44.8829C215.375 39.7117 216.625 35.8018 219 33.2793C221.375 30.7568 224.875 29.3694 229.25 29.3694C230.75 29.3694 232.125 29.6216 233.5 30C234.875 30.3784 236.125 31.009 237.25 31.8919C238.375 32.7748 239.25 34.036 239.875 35.5495C240.5 37.0631 240.875 38.955 240.875 41.2252C240.875 42.1081 240.875 42.8649 240.75 43.8739C240.625 44.7568 240.5 45.7658 240.375 46.7748H222.875C223 49.2973 223.625 51.0631 224.75 52.3243C225.875 53.5856 227.75 54.2162 230.25 54.2162C231.875 54.2162 233.25 53.964 234.5 53.4595C235.75 52.955 236.75 52.4504 237.375 51.9459L240 56.991ZM229.125 35.4234C227.125 35.4234 225.625 36.0541 224.75 37.1892C223.75 38.3243 223.25 39.964 223 41.982H233.75C233.875 39.8378 233.625 38.1982 232.75 37.0631C232.125 36.0541 230.875 35.4234 229.125 35.4234Z" fill="black"/>
<path d="M270.25 59.5135C270.25 63.8018 269.125 66.955 266.875 68.973C264.625 70.991 261.375 72 257.25 72C254.5 72 252.25 71.7477 250.625 71.3694C249 70.991 247.75 70.6126 247 70.1081L248.625 64.0541C249.5 64.4324 250.5 64.8108 251.75 65.0631C253 65.3153 254.375 65.5676 256.125 65.5676C258.75 65.5676 260.5 64.9369 261.5 63.8018C262.5 62.6667 262.875 61.027 262.875 59.009V57.2432H262.625C261.25 59.1351 258.875 60.018 255.375 60.018C251.625 60.018 248.875 58.8829 247 56.4865C245.125 54.0901 244.25 50.4324 244.25 45.5135C244.25 40.2162 245.5 36.3063 248 33.6577C250.5 31.009 254.125 29.6216 258.75 29.6216C261.25 29.6216 263.5 29.7478 265.375 30.1261C267.25 30.5045 268.875 30.8829 270.125 31.3874V59.5135H270.25ZM257.5 53.8378C259 53.8378 260.125 53.4595 260.875 52.8288C261.625 52.1982 262.25 51.1892 262.75 49.8018V36.6847C261.5 36.1802 260 35.9279 258.25 35.9279C256.25 35.9279 254.75 36.6847 253.75 38.0721C252.625 39.5856 252.125 41.8559 252.125 45.1351C252.125 48.036 252.625 50.1802 253.5 51.6937C254.375 53.2072 255.75 53.8378 257.5 53.8378Z" fill="black"/>
<path d="M292.125 37.3153C290.875 36.9369 289.875 36.6847 288.875 36.6847C287.5 36.6847 286.375 37.0631 285.5 37.8198C284.625 38.5766 284 39.4595 283.625 40.5946V59.5135H276.125V30.2523H282L282.875 34.1622H283.125C283.75 32.7748 284.625 31.6396 285.75 30.7568C286.875 29.8739 288.25 29.6216 289.75 29.6216C290.75 29.6216 291.875 29.8739 293.125 30.2523L292.125 37.3153Z" fill="black"/>
<path d="M295.75 31.6396C297.25 30.8829 298.375 30.6306 300.5 30.2523C302.625 29.8739 304.875 29.6216 307.125 29.6216C309.125 29.6216 310.875 29.8739 312.125 30.3784C313.375 30.8829 314.5 31.5135 315.375 32.5225C316.125 33.4054 316.75 34.5405 317 35.8018C317.375 37.0631 317.5 38.4505 317.5 39.964C317.5 41.7297 317.5 43.3694 317.375 45.1351C317.25 46.9009 317.25 48.5405 317.125 50.3063C317.125 51.9459 317.125 53.5856 317.25 55.2252C317.375 56.8649 317.625 58.2523 318.125 59.7658H312L310.75 55.7297C310 56.991 308.875 58 307.5 58.8829C306.125 59.7658 304.375 60.1441 302.125 60.1441C300.75 60.1441 299.5 59.8919 298.5 59.5135C297.375 59.1351 296.5 58.5045 295.75 57.7478C295 56.991 294.375 56.1081 294 55.0991C293.625 54.0901 293.375 52.955 293.375 51.5676C293.375 49.8018 293.75 48.2883 294.625 47.027C295.5 45.7658 296.5 44.7568 298 44C299.5 43.2432 301.25 42.7387 303.375 42.3604C305.5 41.982 307.75 41.982 310.375 42.1081C310.625 39.964 310.5 38.3243 309.875 37.4414C309.25 36.4324 308 36.0541 306 36.0541C304.5 36.0541 302.875 36.1802 301.25 36.5586C299.625 36.9369 298.875 37.0631 297.875 37.5676L295.75 31.6396ZM304.625 53.7117C306.125 53.7117 307.375 53.3333 308.25 52.7027C309.125 52.0721 309.75 51.3153 310.25 50.5586V46.7748C309 46.6487 307.875 46.6487 306.75 46.7748C305.625 46.9009 304.625 47.027 303.875 47.2793C303.125 47.5315 302.375 47.9099 301.875 48.4144C301.375 48.9189 301.125 49.5496 301.125 50.3063C301.125 51.4414 301.5 52.1982 302.125 52.8288C302.625 53.4595 303.5 53.7117 304.625 53.7117Z" fill="black"/>
<path d="M323.375 30.2523H328.875L329.75 33.7838H330C331 32.2703 332.25 31.2613 333.625 30.5045C335 29.7477 336.625 29.4955 338.625 29.4955C342.25 29.4955 345 30.6306 346.875 33.027C348.75 35.4234 349.625 39.0811 349.625 44.2523C349.625 46.7748 349.375 49.045 348.75 51.0631C348.125 53.0811 347.25 54.8468 346.125 56.2342C345 57.6216 343.625 58.7568 342 59.5135C340.375 60.2703 338.5 60.6487 336.375 60.6487C335.125 60.6487 334.125 60.5225 333.375 60.3964C332.625 60.2703 331.875 59.8919 331 59.5135V71.4955H323.5V30.2523H323.375ZM336.25 35.8018C334.75 35.8018 333.625 36.1802 332.75 36.9369C331.875 37.6937 331.25 38.8288 330.75 40.3423V52.5766C331.25 52.955 331.875 53.3333 332.5 53.5856C333.125 53.8378 334 53.964 335 53.964C337.125 53.964 338.75 53.2072 339.875 51.6937C341 50.1802 341.5 47.6577 341.5 44C341.5 41.4775 341.125 39.4595 340.25 38.0721C339.5 36.5586 338.125 35.8018 336.25 35.8018Z" fill="black"/>
<path d="M371.5 59.5135V42.8649C371.5 40.4685 371.125 38.7027 370.5 37.6937C369.875 36.6847 368.625 36.0541 366.875 36.0541C365.625 36.0541 364.375 36.4324 363.375 37.3153C362.25 38.1982 361.625 39.3333 361.25 40.7207V59.3874H353.75V18.5225H361.25V33.5315H361.5C362.375 32.2703 363.625 31.2613 364.875 30.5045C366.25 29.7478 368 29.3694 370 29.3694C371.5 29.3694 372.75 29.6216 373.875 30C375 30.3784 376 31.009 376.75 31.8919C377.5 32.7748 378.125 34.036 378.375 35.5496C378.625 37.0631 378.875 38.955 378.875 41.2252V59.5135H371.5Z" fill="black"/>
<path d="M401.185 62V23.296H410.861C416.84 23.296 421.383 24.9677 424.49 28.311C427.597 31.615 429.151 36.335 429.151 42.471C429.151 48.6463 427.597 53.445 424.49 56.867C421.422 60.289 416.958 62 411.097 62H401.185ZM406.082 57.988H410.507C415.03 57.988 418.413 56.631 420.655 53.917C422.936 51.1637 424.077 47.3483 424.077 42.471C424.077 37.5937 422.936 33.857 420.655 31.261C418.413 28.6257 415.03 27.308 410.507 27.308H406.082V57.988ZM448.163 62.708C445.842 62.708 443.659 62.118 441.614 60.938C439.608 59.758 437.975 58.047 436.717 55.805C435.497 53.563 434.888 50.8687 434.888 47.722C434.888 44.4967 435.497 41.763 436.717 39.521C437.975 37.279 439.608 35.568 441.614 34.388C443.659 33.208 445.842 32.618 448.163 32.618C450.523 32.618 452.706 33.208 454.712 34.388C456.718 35.568 458.33 37.279 459.55 39.521C460.808 41.763 461.438 44.4967 461.438 47.722C461.438 50.8687 460.808 53.563 459.55 55.805C458.33 58.047 456.718 59.758 454.712 60.938C452.706 62.118 450.523 62.708 448.163 62.708ZM448.163 58.696C450.641 58.696 452.627 57.693 454.122 55.687C455.656 53.6417 456.423 50.9867 456.423 47.722C456.423 44.418 455.656 41.7433 454.122 39.698C452.627 37.6527 450.641 36.63 448.163 36.63C445.724 36.63 443.738 37.6527 442.204 39.698C440.67 41.7433 439.903 44.418 439.903 47.722C439.903 50.9867 440.67 53.6417 442.204 55.687C443.738 57.693 445.724 58.696 448.163 58.696ZM480.317 62.708C477.8 62.708 475.519 62.118 473.473 60.938C471.428 59.758 469.815 58.047 468.635 55.805C467.455 53.563 466.865 50.8687 466.865 47.722C466.865 44.4967 467.495 41.763 468.753 39.521C470.051 37.279 471.743 35.568 473.827 34.388C475.951 33.208 478.233 32.618 480.671 32.618C482.559 32.618 484.172 32.9523 485.509 33.621C486.886 34.2897 488.066 35.0763 489.049 35.981L486.571 39.167C485.745 38.4197 484.86 37.81 483.916 37.338C483.012 36.866 481.989 36.63 480.848 36.63C479.118 36.63 477.564 37.102 476.187 38.046C474.85 38.9507 473.788 40.2487 473.001 41.94C472.254 43.592 471.88 45.5193 471.88 47.722C471.88 50.9867 472.687 53.6417 474.299 55.687C475.951 57.693 478.095 58.696 480.73 58.696C482.068 58.696 483.307 58.4207 484.447 57.87C485.588 57.28 486.591 56.5917 487.456 55.805L489.58 59.05C488.282 60.1907 486.847 61.0953 485.273 61.764C483.7 62.3933 482.048 62.708 480.317 62.708ZM503.39 62.708C501.344 62.708 499.397 62.3343 497.549 61.587C495.7 60.8003 494.087 59.8563 492.711 58.755L495.13 55.51C496.388 56.4933 497.686 57.3193 499.024 57.988C500.361 58.6173 501.875 58.932 503.567 58.932C505.455 58.932 506.871 58.4993 507.815 57.634C508.759 56.7293 509.231 55.6673 509.231 54.448C509.231 53.4647 508.896 52.6387 508.228 51.97C507.598 51.3013 506.772 50.7507 505.75 50.318C504.766 49.846 503.744 49.4133 502.682 49.02C501.344 48.5087 500.027 47.9383 498.729 47.309C497.431 46.6403 496.369 45.7947 495.543 44.772C494.717 43.71 494.304 42.3727 494.304 40.76C494.304 38.4393 495.169 36.512 496.9 34.978C498.67 33.4047 501.108 32.618 504.216 32.618C505.986 32.618 507.638 32.9327 509.172 33.562C510.706 34.1913 512.023 34.9583 513.125 35.863L510.765 38.931C509.781 38.1837 508.759 37.574 507.697 37.102C506.635 36.63 505.474 36.394 504.216 36.394C502.406 36.394 501.069 36.807 500.204 37.633C499.378 38.459 498.965 39.4227 498.965 40.524C498.965 41.4287 499.26 42.176 499.85 42.766C500.44 43.3167 501.207 43.8083 502.151 44.241C503.095 44.6343 504.098 45.0473 505.16 45.48C506.536 45.9913 507.893 46.5813 509.231 47.25C510.568 47.8793 511.669 48.7447 512.535 49.846C513.439 50.908 513.892 52.3437 513.892 54.153C513.892 55.687 513.479 57.103 512.653 58.401C511.866 59.699 510.686 60.7413 509.113 61.528C507.579 62.3147 505.671 62.708 503.39 62.708Z" fill="black"/>
</svg>
