<?xml version="1.0" encoding="utf-8"?>
<!-- Generator: Adobe Illustrator 21.0.2, SVG Export Plug-In . SVG Version: 6.00 Build 0)  -->
<svg version="1.1" id="Layer_1" xmlns="http://www.w3.org/2000/svg" xmlns:xlink="http://www.w3.org/1999/xlink" x="0px" y="0px"
	 viewBox="0 0 261 35" style="enable-background:new 0 0 261 35;" xml:space="preserve">
<style type="text/css">
	.st0{fill:#F96216;}
	.st1{fill:#B200F8;}
	.st2{fill:#00B4F2;}
	.st3{fill:#242427;}
</style>
<g>
	<path class="st0" d="M9.4,6.6l7.2,25.9c0.5,1.7,2.4,2.8,4.1,2.3c1.8-0.5,2.8-2.3,2.4-4L15.9,4.9c-0.5-1.7-2.4-2.8-4.1-2.3
		C10,3.1,9,4.9,9.4,6.6z"/>
	<path class="st1" d="M22.9,6.5L4.7,26.5c-1.2,1.4-1.1,3.4,0.3,4.6c1.4,1.2,3.5,1.1,4.7-0.3l18.1-20.1c1.2-1.4,1.1-3.4-0.3-4.6
		C26.2,5,24.1,5.1,22.9,6.5z"/>
	<path class="st2" d="M2.3,17.7L28.1,26c1.7,0.6,3.7-0.4,4.2-2.1s-0.4-3.6-2.1-4.1L4.4,11.4c-1.7-0.6-3.7,0.4-4.2,2.1
		S0.5,17.1,2.3,17.7z"/>
	<path class="st3" d="M50.9,22.6c0-0.6-0.2-1.1-0.7-1.5c-0.4-0.4-1-0.7-1.7-1s-1.4-0.6-2.2-0.9c-0.7-0.3-1.5-0.7-2.2-1.2
		c-0.7-0.5-1.2-1.1-1.7-1.8c-0.4-0.7-0.6-1.6-0.6-2.7c0-0.9,0.2-1.8,0.5-2.5c0.3-0.7,0.7-1.3,1.4-1.8c0.6-0.5,1.3-0.8,2.1-1.1
		c0.8-0.2,1.7-0.3,2.7-0.3c1.1,0,2.2,0.1,3.2,0.3c1,0.2,1.9,0.5,2.5,0.9L53,12.2c-0.4-0.2-1.1-0.5-1.9-0.7c-0.8-0.2-1.7-0.3-2.7-0.3
		c-0.9,0-1.6,0.2-2.1,0.6c-0.5,0.4-0.7,0.8-0.7,1.4c0,0.6,0.2,1.1,0.6,1.4c0.4,0.4,1,0.7,1.7,1.1s1.4,0.6,2.2,1
		c0.8,0.3,1.5,0.7,2.2,1.2s1.2,1.1,1.7,1.8c0.4,0.7,0.7,1.5,0.7,2.6s-0.2,2-0.6,2.7c-0.3,0.7-0.8,1.4-1.5,1.9
		c-0.6,0.5-1.4,0.9-2.3,1.1c-0.9,0.2-1.9,0.4-2.9,0.4c-1.4,0-2.7-0.1-3.7-0.4c-1.1-0.2-1.9-0.5-2.4-0.8l1.2-3.3
		c0.2,0.1,0.5,0.2,0.8,0.4c0.3,0.1,0.7,0.2,1.1,0.4c0.4,0.1,0.9,0.2,1.3,0.3c0.5,0.1,0.9,0.1,1.4,0.1c1.1,0,2-0.2,2.6-0.6
		C50.6,24,50.9,23.4,50.9,22.6z"/>
	<path class="st3" d="M69.6,17.8c-0.2-0.9-0.7-1.7-1.2-2.4c-0.6-0.7-1.2-1.2-2-1.5c-0.8-0.4-1.8-0.6-2.9-0.6c-2.1,0-3.7,0.6-4.9,1.9
		s-1.7,3.1-1.7,5.4c0,1.1,0.1,2.1,0.4,3c0.3,0.9,0.7,1.7,1.2,2.4c0.6,0.6,1.2,1.1,2.1,1.5c0.8,0.4,1.8,0.6,2.9,0.6
		c2.1,0,3.7-0.6,4.8-1.9c1.2-1.3,1.7-3.1,1.7-5.5C70.1,19.7,69.9,18.7,69.6,17.8z M65.6,24.1c-0.5,0.7-1.2,1.1-2.1,1.1
		c-0.5,0-0.9-0.1-1.3-0.3c-0.4-0.2-0.6-0.6-0.9-0.9c-0.2-0.4-0.4-0.9-0.5-1.4c-0.1-0.5-0.2-1.1-0.2-1.7c0-1.5,0.2-2.7,0.7-3.3
		s1.2-1,2.1-1c1.1,0,1.7,0.4,2.2,1.2c0.4,0.8,0.6,1.8,0.6,3.1C66.3,22.3,66.1,23.4,65.6,24.1z"/>
	<path class="st3" d="M76.5,13.8v8c0,1.1,0.1,2,0.4,2.5c0.3,0.5,0.8,0.7,1.6,0.7c0.7,0,1.2-0.2,1.7-0.6s0.8-0.9,1.1-1.5v-9.1h3.7
		v9.8c0,0.7,0.1,1.5,0.1,2.3c0.1,0.7,0.2,1.4,0.3,2h-2.7L82,25.8h-0.1c-0.4,0.7-1.1,1.3-1.8,1.8c-0.7,0.5-1.7,0.7-2.7,0.7
		c-0.7,0-1.4-0.1-1.9-0.3c-0.6-0.2-1.1-0.5-1.4-0.9c-0.4-0.4-0.7-1-0.9-1.7c-0.2-0.7-0.3-1.7-0.3-2.7v-8.7H76.5z"/>
	<path class="st3" d="M96.6,17.2C96,17,95.4,16.9,95,16.9c-0.7,0-1.2,0.2-1.7,0.6c-0.4,0.3-0.7,0.8-0.9,1.3v9h-3.7v-14h2.8l0.4,1.9
		h0.1c0.3-0.7,0.7-1.2,1.3-1.6s1.2-0.6,1.9-0.6c0.5,0,1.1,0.1,1.7,0.3L96.6,17.2z"/>
	<path class="st3" d="M108.9,27c-0.6,0.4-1.2,0.7-2,0.9c-0.8,0.2-1.6,0.3-2.4,0.3c-1.1,0-2.1-0.2-2.8-0.6c-0.7-0.4-1.4-0.9-1.9-1.5
		c-0.5-0.7-0.9-1.4-1.1-2.4s-0.3-1.9-0.3-3c0-2.4,0.6-4.2,1.6-5.4c1.1-1.3,2.6-1.9,4.6-1.9c1.1,0,1.9,0.1,2.5,0.2
		c0.6,0.2,1.2,0.4,1.7,0.6l-0.9,3c-0.4-0.2-0.9-0.4-1.3-0.5c-0.4-0.1-0.9-0.2-1.4-0.2c-1,0-1.8,0.3-2.3,1c-0.5,0.7-0.8,1.7-0.8,3.2
		c0,0.6,0.1,1.2,0.2,1.7c0.1,0.5,0.3,0.9,0.6,1.3c0.2,0.4,0.6,0.7,1,0.9c0.4,0.2,0.9,0.3,1.5,0.3c0.6,0,1.1-0.1,1.5-0.2
		c0.4-0.2,0.8-0.4,1.2-0.6L108.9,27z"/>
	<path class="st3" d="M122.2,16.4c-0.3-0.7-0.7-1.3-1.2-1.7s-1.1-0.7-1.8-0.9c-0.7-0.2-1.4-0.3-2.1-0.3c-2.1,0-3.8,0.6-5,1.9
		s-1.8,3.1-1.8,5.6c0,2.3,0.5,4.1,1.5,5.4c1.1,1.3,2.7,2,5,2c1.1,0,2.1-0.1,3-0.4c1-0.3,1.7-0.7,2.3-1.2l-1.2-2.4
		c-0.3,0.2-0.8,0.5-1.4,0.7c-0.6,0.2-1.3,0.3-2,0.3c-1.2,0-2.1-0.3-2.7-0.9c-0.6-0.6-0.9-1.5-0.9-2.7h8.4c0.1-0.5,0.2-0.9,0.2-1.4
		c0.1-0.4,0.1-0.9,0.1-1.2C122.7,18,122.6,17.1,122.2,16.4z M119.3,19.5h-5.2c0.1-0.9,0.4-1.7,0.8-2.3c0.5-0.6,1.2-0.9,2.1-0.9
		c0.8,0,1.4,0.2,1.8,0.8C119.3,17.7,119.4,18.5,119.3,19.5z"/>
	<path class="st3" d="M135.4,13.8c-0.9-0.2-2-0.2-3.2-0.2c-2.3,0-4,0.6-5.2,1.9s-1.8,3.2-1.8,5.7c0,2.4,0.4,4.1,1.3,5.3
		c0.9,1.1,2.2,1.7,4.1,1.7c1.7,0,2.8-0.4,3.5-1.3h0.1v0.9c0,1-0.2,1.7-0.7,2.3c-0.4,0.6-1.3,0.9-2.6,0.9c-0.9,0-1.5-0.1-2.1-0.2
		s-1.1-0.3-1.5-0.5l-0.7,2.9c0.4,0.2,1,0.4,1.7,0.6c0.8,0.2,1.9,0.3,3.2,0.3c2,0,3.5-0.5,4.6-1.5c1.1-0.9,1.7-2.5,1.7-4.5V14.3
		C137.2,14.1,136.4,13.9,135.4,13.8z M134.1,23.2c-0.2,0.6-0.5,1.1-0.9,1.4c-0.4,0.3-0.9,0.5-1.6,0.5c-0.9,0-1.5-0.4-1.9-1.1
		c-0.4-0.7-0.7-1.7-0.7-3.1c0-1.5,0.2-2.7,0.8-3.3c0.5-0.7,1.2-1.1,2.2-1.1c0.9,0,1.6,0.1,2.2,0.4L134.1,23.2L134.1,23.2z"/>
	<path class="st3" d="M148.7,17.2c-0.6-0.2-1.1-0.3-1.5-0.3c-0.7,0-1.2,0.2-1.7,0.6c-0.4,0.3-0.7,0.8-0.9,1.3v9h-3.7v-14h2.8
		l0.4,1.9h0.1c0.3-0.7,0.7-1.2,1.3-1.6c0.6-0.4,1.2-0.6,1.9-0.6c0.5,0,1.1,0.1,1.7,0.3L148.7,17.2z"/>
	<path class="st3" d="M162.3,25.8c-0.1-0.7-0.1-1.5-0.1-2.4c0-0.8,0.1-1.6,0.1-2.4c0.1-0.9,0.1-1.7,0.1-2.5c0-0.7-0.1-1.4-0.2-2
		c-0.1-0.6-0.4-1.1-0.8-1.5c-0.4-0.4-0.9-0.7-1.5-1c-0.7-0.2-1.5-0.4-2.4-0.4c-1.1,0-2.2,0.1-3.2,0.3c-1.1,0.2-1.9,0.4-2.7,0.8
		l0.9,2.7c0.5-0.2,1.2-0.4,2-0.6c0.8-0.1,1.6-0.2,2.4-0.2c1,0,1.6,0.2,1.9,0.7c0.3,0.4,0.4,1.2,0.2,2.2c-1.2-0.1-2.4,0-3.3,0.1
		c-1,0.1-1.9,0.4-2.6,0.7c-0.7,0.4-1.2,0.8-1.7,1.4c-0.4,0.6-0.6,1.3-0.6,2.2c0,0.6,0.1,1.2,0.3,1.7c0.2,0.5,0.5,0.9,0.9,1.3
		c0.4,0.4,0.8,0.6,1.4,0.9c0.5,0.2,1.1,0.3,1.8,0.3c1.1,0,1.9-0.2,2.5-0.6c0.7-0.4,1.2-0.9,1.5-1.5h0.1l0.6,1.9h3
		C162.5,27.2,162.4,26.5,162.3,25.8z M158.4,23.5c-0.2,0.4-0.5,0.7-0.9,1.1c-0.4,0.3-1,0.5-1.7,0.5c-0.6,0-1-0.1-1.3-0.4
		c-0.3-0.3-0.4-0.7-0.4-1.2c0-0.4,0.1-0.7,0.4-0.9c0.2-0.2,0.6-0.4,1-0.6c0.4-0.1,0.9-0.2,1.4-0.2c0.6-0.1,1.1,0,1.7,0L158.4,23.5
		L158.4,23.5z"/>
	<path class="st3" d="M176.7,15.1c-0.9-1.1-2.2-1.7-4-1.7c-0.9,0-1.8,0.2-2.4,0.5c-0.7,0.3-1.2,0.9-1.7,1.5h-0.1l-0.4-1.7h-2.7v19.6
		h3.7v-5.8c0.4,0.2,0.7,0.3,1.1,0.4c0.4,0.1,0.9,0.1,1.4,0.1c1.1,0,1.9-0.2,2.7-0.6c0.8-0.4,1.5-0.9,2-1.5c0.6-0.7,1-1.5,1.2-2.4
		c0.3-1,0.4-2,0.4-3.3C178.1,18,177.7,16.2,176.7,15.1z M173.5,24c-0.5,0.7-1.3,1.1-2.4,1.1c-0.5,0-0.9-0.1-1.2-0.2
		c-0.3-0.1-0.6-0.3-0.9-0.5v-5.8c0.2-0.7,0.6-1.2,0.9-1.6c0.4-0.4,1-0.6,1.7-0.6c0.9,0,1.6,0.3,2,1c0.4,0.7,0.6,1.6,0.6,2.8
		C174.3,22.1,174.1,23.3,173.5,24z"/>
	<path class="st3" d="M189.5,27.9v-8c0-1.1-0.2-2-0.5-2.5c-0.3-0.5-0.9-0.7-1.7-0.7c-0.6,0-1.2,0.2-1.7,0.6c-0.5,0.4-0.9,0.9-1,1.6
		v9h-3.7V8.2h3.7v7.2h0.1c0.4-0.6,1-1.1,1.7-1.4c0.7-0.4,1.5-0.6,2.5-0.6c0.7,0,1.4,0.1,1.9,0.3c0.5,0.2,1,0.5,1.4,0.9
		c0.4,0.4,0.6,1,0.8,1.8c0.2,0.7,0.3,1.6,0.3,2.7v8.7C193.2,27.9,189.5,27.9,189.5,27.9z"/>
	<g>
		<path class="st3" d="M217.9,23.1c0,1,0,1.8,0,2.6c0,0.8,0.1,1.6,0.3,2.3h-1.5l-0.6-2H216c-0.4,0.7-0.9,1.2-1.7,1.7
			s-1.6,0.7-2.5,0.7c-1.9,0-3.3-0.6-4.2-1.8s-1.4-3.1-1.4-5.6c0-2.4,0.6-4.3,1.7-5.5c1.1-1.3,2.7-1.9,4.7-1.9c0.7,0,1.3,0,1.7,0.1
			c0.4,0.1,0.8,0.2,1.3,0.4V8.1h2.3V23.1z M212.1,26.4c1,0,1.7-0.3,2.3-0.8s1-1.3,1.2-2.3v-7.1c-0.3-0.3-0.7-0.5-1.2-0.6
			s-1-0.2-1.7-0.2c-1.3,0-2.3,0.4-3.1,1.3c-0.7,0.9-1.1,2.2-1.1,4.1c0,0.8,0.1,1.5,0.2,2.2c0.1,0.7,0.3,1.2,0.6,1.7
			c0.3,0.5,0.7,0.8,1.1,1.1C210.9,26.2,211.5,26.4,212.1,26.4z"/>
		<path class="st3" d="M221.2,20.9c0-2.4,0.5-4.3,1.6-5.5c1.1-1.3,2.6-1.9,4.6-1.9c1.1,0,2,0.2,2.8,0.5c0.8,0.4,1.4,0.9,2,1.5
			c0.5,0.7,0.9,1.4,1.1,2.4c0.2,0.9,0.4,1.9,0.4,3.1c0,2.4-0.5,4.3-1.6,5.5c-1.1,1.3-2.6,1.9-4.6,1.9c-1.1,0-2-0.2-2.8-0.5
			c-0.8-0.4-1.4-0.9-2-1.5c-0.5-0.7-0.9-1.4-1.1-2.4C221.3,23,221.2,22,221.2,20.9z M223.5,20.9c0,0.7,0.1,1.4,0.2,2.1
			c0.1,0.7,0.4,1.2,0.7,1.7c0.3,0.5,0.7,0.9,1.2,1.2c0.5,0.3,1.1,0.5,1.8,0.5c2.6,0,3.9-1.8,3.9-5.5c0-0.7-0.1-1.4-0.2-2.1
			c-0.1-0.7-0.4-1.2-0.7-1.7s-0.7-0.9-1.2-1.2c-0.5-0.3-1.1-0.4-1.8-0.4C224.8,15.4,223.5,17.2,223.5,20.9z"/>
		<path class="st3" d="M246.8,27.1c-0.6,0.4-1.2,0.7-2,1c-0.8,0.2-1.6,0.3-2.4,0.3c-1.1,0-2-0.2-2.8-0.5c-0.8-0.4-1.4-0.9-1.9-1.5
			c-0.5-0.7-0.8-1.4-1.1-2.4c-0.2-0.9-0.3-1.9-0.3-3.1c0-2.4,0.5-4.3,1.6-5.5c1.1-1.3,2.6-1.9,4.6-1.9c0.9,0,1.7,0.1,2.3,0.2
			c0.6,0.1,1.2,0.3,1.7,0.6l-0.7,2c-0.4-0.2-0.9-0.4-1.5-0.6c-0.5-0.1-1.1-0.2-1.7-0.2c-2.7,0-4,1.8-4,5.5c0,0.7,0.1,1.4,0.2,2.1
			s0.4,1.2,0.7,1.7s0.8,0.9,1.3,1.2c0.5,0.3,1.2,0.5,2,0.5c0.7,0,1.3-0.1,1.8-0.3s1-0.4,1.3-0.7L246.8,27.1z"/>
		<path class="st3" d="M256.4,24.1c0-0.6-0.2-1-0.5-1.3c-0.3-0.3-0.8-0.6-1.3-0.8c-0.5-0.2-1.1-0.4-1.7-0.6s-1.1-0.5-1.7-0.8
			c-0.5-0.3-0.9-0.7-1.3-1.2c-0.3-0.5-0.5-1.2-0.5-2c0-1.4,0.4-2.4,1.2-3c0.8-0.6,1.9-1,3.2-1c1,0,1.9,0.1,2.6,0.3s1.3,0.4,1.8,0.6
			l-0.5,1.9c-0.4-0.2-1-0.4-1.6-0.6c-0.6-0.2-1.3-0.2-2-0.2c-0.8,0-1.4,0.1-1.8,0.4c-0.4,0.3-0.6,0.8-0.6,1.5c0,0.5,0.2,0.9,0.5,1.2
			c0.3,0.3,0.8,0.5,1.3,0.7c0.5,0.2,1.1,0.4,1.7,0.6s1.1,0.5,1.7,0.8c0.5,0.3,0.9,0.8,1.3,1.3c0.3,0.5,0.5,1.2,0.5,2.1
			c0,0.6-0.1,1.2-0.3,1.7c-0.2,0.5-0.5,1-0.9,1.4c-0.4,0.4-0.9,0.7-1.6,0.9c-0.6,0.2-1.3,0.3-2.2,0.3c-1.1,0-2-0.1-2.8-0.3
			c-0.8-0.2-1.4-0.5-1.9-0.7l0.7-1.9c0.4,0.2,1,0.5,1.7,0.7c0.7,0.2,1.4,0.3,2.1,0.3c0.8,0,1.5-0.2,2-0.5
			C256.1,25.5,256.4,25,256.4,24.1z"/>
	</g>
</g>
</svg>
