<svg xmlns="http://www.w3.org/2000/svg" width="114" height="33" viewBox="0 0 114 33"><g fill="none" fill-rule="evenodd"><path fill="#212529" d="M46.456 18.288c0 3.564 1.836 6.192 5.076 6.192 3.096 0 5.004-2.7 5.004-6.264s-1.872-6.012-4.968-6.012-5.112 2.52-5.112 6.084zm10.116 6.372v-.288c-.828 1.656-2.664 3.096-5.364 3.096-5.076 0-8.208-4.032-8.208-9.18 0-4.896 3.312-9.072 8.208-9.072 3.06 0 4.716 1.512 5.292 2.916V.936h3.348v22.86c0 1.656.144 2.916.18 3.204h-3.276a14.504 14.504 0 0 1-.18-2.34zm15.393-.144c2.88 0 5.4-2.16 5.4-6.192 0-3.996-2.52-6.156-5.4-6.156-2.88 0-5.4 2.16-5.4 6.156 0 4.032 2.52 6.192 5.4 6.192zm0-15.372c5.184 0 8.856 3.924 8.856 9.18 0 5.292-3.672 9.216-8.856 9.216-5.184 0-8.856-3.924-8.856-9.216 0-5.256 3.672-9.18 8.856-9.18zm19.39 3.132c-2.737 0-5.257 2.016-5.257 6.048 0 3.96 2.484 6.084 5.292 6.084 3.24 0 4.428-2.196 4.824-3.564l2.988 1.296c-.828 2.484-3.312 5.4-7.812 5.4-5.04 0-8.748-3.96-8.748-9.216 0-5.4 3.78-9.18 8.712-9.18 4.608 0 6.984 2.88 7.704 5.508l-3.06 1.296c-.432-1.692-1.692-3.672-4.644-3.672zm9.129 10.224l3.06-1.08c.216 1.8 1.584 3.24 4.032 3.24 1.908 0 2.952-1.08 2.952-2.304 0-1.08-.792-1.908-2.232-2.232l-2.952-.648c-2.7-.576-4.32-2.412-4.32-4.86 0-2.952 2.772-5.472 6.156-5.472 4.752 0 6.228 3.096 6.588 4.644l-2.988 1.116c-.144-.9-.864-2.88-3.6-2.88-1.728 0-2.88 1.116-2.88 2.304 0 1.044.648 1.8 1.98 2.088l2.808.612c3.132.684 4.788 2.592 4.788 5.148 0 2.448-2.052 5.364-6.336 5.364-4.752 0-6.768-3.06-7.056-5.04z"/><path fill="#F96216" d="M9.045 5.256l6.944 25.426a3.204 3.204 0 0 0 3.933 2.248 3.21 3.21 0 0 0 2.243-3.942L15.22 3.561a3.202 3.202 0 0 0-3.934-2.246 3.209 3.209 0 0 0-2.241 3.941z"/><path fill="#B200F8" d="M21.906 5.08L4.516 24.749a3.214 3.214 0 0 0 .273 4.53 3.196 3.196 0 0 0 4.519-.275l17.39-19.667a3.212 3.212 0 0 0-.273-4.529 3.196 3.196 0 0 0-4.52.274z"/><path fill="#00B4F2" d="M2.197 16.056l24.801 8.216a3.2 3.2 0 0 0 4.045-2.038 3.207 3.207 0 0 0-2.034-4.052L4.207 9.962a3.2 3.2 0 0 0-4.044 2.04 3.21 3.21 0 0 0 2.034 4.054z"/></g></svg>