<svg xmlns="http://www.w3.org/2000/svg" width="314" height="35" viewBox="0 0 314 35"><g fill="none" fill-rule="evenodd"><path fill="#212529" d="M245.896 18.288c0 3.564 1.836 6.192 5.076 6.192 3.096 0 5.004-2.7 5.004-6.264s-1.872-6.012-4.968-6.012-5.112 2.52-5.112 6.084zm10.116 6.372v-.288c-.828 1.656-2.664 3.096-5.364 3.096-5.076 0-8.208-4.032-8.208-9.18 0-4.896 3.312-9.072 8.208-9.072 3.06 0 4.716 1.512 5.292 2.916V.936h3.348v22.86c0 1.656.144 2.916.18 3.204h-3.276a14.504 14.504 0 0 1-.18-2.34zm15.393-.144c2.88 0 5.4-2.16 5.4-6.192 0-3.996-2.52-6.156-5.4-6.156-2.88 0-5.4 2.16-5.4 6.156 0 4.032 2.52 6.192 5.4 6.192zm0-15.372c5.184 0 8.856 3.924 8.856 9.18 0 5.292-3.672 9.216-8.856 9.216-5.184 0-8.856-3.924-8.856-9.216 0-5.256 3.672-9.18 8.856-9.18zm19.39 3.132c-2.737 0-5.257 2.016-5.257 6.048 0 3.96 2.484 6.084 5.292 6.084 3.24 0 4.428-2.196 4.824-3.564l2.988 1.296c-.828 2.484-3.312 5.4-7.812 5.4-5.04 0-8.748-3.96-8.748-9.216 0-5.4 3.78-9.18 8.712-9.18 4.608 0 6.984 2.88 7.704 5.508l-3.06 1.296c-.432-1.692-1.692-3.672-4.644-3.672zm9.129 10.224l3.06-1.08c.216 1.8 1.584 3.24 4.032 3.24 1.908 0 2.952-1.08 2.952-2.304 0-1.08-.792-1.908-2.232-2.232l-2.952-.648c-2.7-.576-4.32-2.412-4.32-4.86 0-2.952 2.772-5.472 6.156-5.472 4.752 0 6.228 3.096 6.588 4.644l-2.988 1.116c-.144-.9-.864-2.88-3.6-2.88-1.728 0-2.88 1.116-2.88 2.304 0 1.044.648 1.8 1.98 2.088l2.808.612c3.132.684 4.788 2.592 4.788 5.148 0 2.448-2.052 5.364-6.336 5.364-4.752 0-6.768-3.06-7.056-5.04z"/><g fill="#212529"><path d="M217.12 27.059h-4.42V3h4.42v9.072a4.41 4.41 0 0 1 2.026-1.38 7.43 7.43 0 0 1 2.392-.415c1.043 0 1.944.171 2.707.515.767.343 1.397.804 1.895 1.38.5.576.87 1.262 1.112 2.06a8.61 8.61 0 0 1 .367 2.525V27.06h-4.42V17.52c0-.93-.239-1.705-.716-2.326-.475-.62-1.246-.93-2.309-.93-.93 0-1.66.303-2.193.913-.53.61-.82 1.368-.864 2.276v9.605h.002z"/><path fill-rule="nonzero" d="M193.03 33.327V10.665h4.288v1.994c.377-.643.994-1.196 1.859-1.662.864-.465 1.916-.697 3.157-.697 1.197 0 2.259.215 3.19.647a6.961 6.961 0 0 1 2.377 1.796 7.72 7.72 0 0 1 1.477 2.692c.332 1.03.498 2.154.498 3.372 0 1.241-.182 2.386-.548 3.44-.364 1.05-.885 1.96-1.56 2.723a7.153 7.153 0 0 1-2.444 1.795c-.952.432-2.006.65-3.155.65-1.131 0-2.1-.195-2.91-.582-.806-.389-1.412-.86-1.81-1.412v7.907h-4.419zm12.495-14.49c0-1.462-.394-2.59-1.18-3.39-.786-.797-1.743-1.196-2.874-1.196-.577 0-1.107.106-1.595.317-.487.21-.92.509-1.296.897a4.052 4.052 0 0 0-.88 1.428c-.21.565-.316 1.213-.316 1.945 0 .73.105 1.38.316 1.942.211.565.503 1.047.88 1.447.377.4.809.703 1.296.913a3.945 3.945 0 0 0 1.595.315c1.13 0 2.088-.402 2.874-1.211.787-.808 1.18-1.944 1.18-3.406zM174.79 22.595c0-.73.129-1.379.382-1.944a4.646 4.646 0 0 1 1.044-1.478c.445-.421.96-.753 1.545-.996a8.622 8.622 0 0 1 1.911-.532l4.022-.598c.465-.066.786-.205.963-.415.178-.21.266-.459.266-.748 0-.576-.227-1.074-.68-1.496-.456-.42-1.147-.632-2.078-.632-.975 0-1.72.267-2.243.798-.52.532-.814 1.152-.88 1.861l-3.921-.83a5.385 5.385 0 0 1 .598-1.929 5.939 5.939 0 0 1 1.362-1.727c.577-.51 1.286-.925 2.127-1.247.841-.321 1.816-.482 2.924-.482 1.283 0 2.382.171 3.291.514.907.344 1.643.798 2.208 1.363a5.035 5.035 0 0 1 1.229 1.976c.256.754.384 1.54.384 2.36v8.04c0 .445.021.915.066 1.413s.088.891.134 1.18h-4.054a8.588 8.588 0 0 1-.116-.914c-.032-.387-.05-.735-.05-1.047-.422.643-1.025 1.208-1.811 1.696-.786.487-1.79.73-3.007.73-.865 0-1.645-.137-2.341-.417-.699-.276-1.292-.64-1.78-1.096a4.642 4.642 0 0 1-1.112-1.56 4.593 4.593 0 0 1-.383-1.843zm6.547 1.628c.462 0 .912-.06 1.344-.183a2.877 2.877 0 0 0 1.149-.63c.331-.3.595-.687.796-1.164.198-.474.298-1.08.298-1.81v-.73l-3.688.563c-.574.089-1.06.295-1.444.616-.39.322-.583.804-.583 1.445 0 .489.177.927.533 1.313.354.386.884.58 1.595.58z"/><path d="M173.23 15.118a6.739 6.739 0 0 0-1.33-.133 5.6 5.6 0 0 0-1.628.232c-.51.155-.951.41-1.328.765-.377.355-.68.825-.915 1.412-.231.588-.347 1.325-.347 2.21v7.476h-4.422V10.732h4.286v2.426c.245-.532.56-.968.949-1.313a4.386 4.386 0 0 1 1.228-.78 5.699 5.699 0 0 1 1.297-.366 7.914 7.914 0 0 1 1.178-.099c.179 0 .348.005.514.017.169.011.34.028.515.05v4.451h.002z"/><path fill-rule="nonzero" d="M146.91 26.883c.153.908.564 1.649 1.228 2.226.666.575 1.53.863 2.593.863 1.394 0 2.47-.36 3.223-1.079.754-.721 1.131-1.879 1.131-3.473v-1.197c-.334.532-.877 1.015-1.63 1.447-.752.43-1.727.647-2.922.647-1.088 0-2.095-.198-3.025-.598a7.172 7.172 0 0 1-2.41-1.662 7.823 7.823 0 0 1-1.594-2.508c-.39-.963-.583-2.02-.583-3.173 0-1.086.188-2.11.565-3.074a8.142 8.142 0 0 1 1.563-2.543 7.212 7.212 0 0 1 2.39-1.727c.933-.421 1.962-.632 3.093-.632 1.307 0 2.336.233 3.087.697.753.464 1.276.975 1.562 1.528v-1.924h4.254v14.587c0 1.13-.16 2.21-.48 3.24a7.494 7.494 0 0 1-1.512 2.725c-.689.786-1.576 1.418-2.658 1.894-1.085.476-2.393.715-3.921.715-1.13 0-2.156-.161-3.076-.481-.92-.322-1.723-.754-2.409-1.297a6.759 6.759 0 0 1-1.66-1.893 6.134 6.134 0 0 1-.799-2.243l3.99-1.065zm4.386-4.354c1.128 0 2.055-.377 2.773-1.13.721-.753 1.08-1.761 1.08-3.024 0-1.264-.377-2.265-1.13-3.008a3.74 3.74 0 0 0-2.723-1.113 4.16 4.16 0 0 0-1.545.282 3.504 3.504 0 0 0-1.249.831c-.354.366-.63.804-.83 1.314a4.643 4.643 0 0 0-.298 1.694c0 1.286.364 2.3 1.096 3.04.73.742 1.673 1.114 2.826 1.114zM141.03 22.365a6.759 6.759 0 0 1-.944 2.01c-.433.63-.96 1.178-1.581 1.643-.62.465-1.344.835-2.175 1.112-.831.278-1.743.416-2.741.416a8.996 8.996 0 0 1-3.223-.581 7.813 7.813 0 0 1-2.691-1.711c-.776-.754-1.39-1.672-1.845-2.76-.454-1.083-.68-2.314-.68-3.688 0-1.307.22-2.493.665-3.555.442-1.064 1.035-1.965 1.778-2.708a7.955 7.955 0 0 1 2.576-1.727 7.714 7.714 0 0 1 3.022-.616c2.547 0 4.53.754 5.95 2.26 1.417 1.506 2.124 3.577 2.124 6.214 0 .31-.01.603-.032.88a8.848 8.848 0 0 0-.032.482h-11.697c.022.53.15 1.025.383 1.477.232.456.531.85.897 1.181a4.05 4.05 0 0 0 1.28.781 4.302 4.302 0 0 0 1.56.282c1.041 0 1.854-.234 2.442-.699a3.938 3.938 0 0 0 1.279-1.794l3.685 1.101zm-4.12-5.351a3.993 3.993 0 0 0-.248-1.18 2.81 2.81 0 0 0-.664-1.029c-.301-.3-.675-.542-1.13-.73-.456-.188-.992-.283-1.614-.283-.575 0-1.084.1-1.526.3-.444.199-.821.455-1.13.763a3.368 3.368 0 0 0-.714 1.03 3.23 3.23 0 0 0-.282 1.13h7.308v-.001z"/><path d="M116.274 14.288c-.576 0-1.114.1-1.612.298-.499.2-.936.494-1.312.881-.377.388-.676.87-.897 1.446-.223.576-.332 1.23-.332 1.96s.109 1.385.332 1.96c.22.578.526 1.063.913 1.463.387.4.83.698 1.328.896a4.3 4.3 0 0 0 1.612.298c.554 0 1.047-.08 1.48-.248a3.79 3.79 0 0 0 1.113-.648c.31-.266.56-.565.747-.896a4.47 4.47 0 0 0 .416-.964l3.887 1.295a7.221 7.221 0 0 1-2.46 3.773c-.643.52-1.395.94-2.26 1.26-.862.322-1.839.483-2.923.483a8.788 8.788 0 0 1-3.372-.649 8.276 8.276 0 0 1-2.741-1.81 8.465 8.465 0 0 1-1.827-2.742c-.443-1.052-.666-2.21-.666-3.472s.216-2.426.648-3.49a8.162 8.162 0 0 1 1.796-2.74 8.32 8.32 0 0 1 2.69-1.795c1.03-.43 2.145-.647 3.34-.647 1.108 0 2.099.16 2.973.482.875.322 1.634.736 2.277 1.247a6.505 6.505 0 0 1 1.561 1.76c.4.665.687 1.34.865 2.028l-3.954 1.328c-.2-.685-.583-1.317-1.147-1.893-.565-.576-1.39-.864-2.475-.864zM106.638 15.118a6.739 6.739 0 0 0-1.329-.133c-.576 0-1.119.078-1.628.232-.51.156-.953.41-1.329.765-.376.355-.681.825-.913 1.412-.233.588-.348 1.325-.348 2.21v7.476H96.67V10.732h4.287v2.426c.243-.532.56-.968.947-1.313a4.392 4.392 0 0 1 1.23-.78c.43-.178.864-.3 1.294-.366a7.93 7.93 0 0 1 1.18-.099c.177 0 .348.005.514.017.166.011.339.028.515.05v4.451h.001zM88.565 27.049a4.422 4.422 0 0 1-.1-.765 14.33 14.33 0 0 1-.033-.997c-.444.777-1.092 1.335-1.943 1.68a6.875 6.875 0 0 1-2.575.514c-.997 0-1.877-.173-2.642-.514a5.913 5.913 0 0 1-1.944-1.38 5.815 5.815 0 0 1-1.213-2.044 7.507 7.507 0 0 1-.415-2.508V10.7h4.42v9.437c0 .931.237 1.71.715 2.342.475.63 1.234.947 2.276.947.997 0 1.762-.299 2.293-.897.532-.598.798-1.373.798-2.326V10.7h4.42v13.39c0 .644.016 1.225.05 1.746.033.521.071.925.115 1.213h-4.222z"/><path fill-rule="nonzero" d="M66.534 10.2c1.218 0 2.354.215 3.406.647a8.242 8.242 0 0 1 2.725 1.794 8.19 8.19 0 0 1 1.794 2.741c.433 1.064.649 2.227.649 3.49 0 1.263-.216 2.419-.649 3.472a8.388 8.388 0 0 1-1.794 2.741 8.075 8.075 0 0 1-2.725 1.811c-1.052.432-2.188.649-3.406.649-1.22 0-2.355-.217-3.406-.649a8.088 8.088 0 0 1-2.724-1.81 8.372 8.372 0 0 1-1.796-2.742c-.432-1.053-.648-2.21-.648-3.472s.216-2.426.648-3.49a8.162 8.162 0 0 1 1.796-2.74 8.223 8.223 0 0 1 2.724-1.795c1.052-.43 2.188-.647 3.406-.647zm0 13.325c.532 0 1.052-.098 1.561-.299.51-.198.953-.492 1.33-.88.376-.387.68-.869.915-1.445.233-.576.348-1.252.348-2.027 0-.776-.115-1.451-.348-2.027-.234-.575-.538-1.058-.915-1.446a3.742 3.742 0 0 0-1.33-.881 4.246 4.246 0 0 0-3.123 0c-.509.2-.951.494-1.328.88-.377.39-.68.872-.913 1.447-.233.576-.349 1.251-.349 2.027 0 .775.117 1.45.349 2.027.232.576.536 1.058.913 1.446.377.387.82.68 1.328.88.51.2 1.03.298 1.562.298z"/><path d="M46.997 21.665c.043.643.31 1.218.797 1.728.486.509 1.218.765 2.193.765.732 0 1.273-.16 1.63-.482.352-.32.53-.704.53-1.146 0-.377-.133-.704-.4-.982-.265-.276-.72-.48-1.361-.615l-2.16-.499c-1.595-.353-2.759-.968-3.49-1.844a4.603 4.603 0 0 1-1.096-3.04c0-.733.154-1.423.465-2.078a5.188 5.188 0 0 1 1.28-1.695 6.399 6.399 0 0 1 1.928-1.146c.742-.287 1.555-.431 2.443-.431 1.15 0 2.126.16 2.923.482.797.322 1.446.726 1.944 1.213.499.488.869 1.002 1.112 1.545.243.543.387 1.035.432 1.48l-3.687.829a4.15 4.15 0 0 0-.216-.748 2.095 2.095 0 0 0-.481-.715 2.475 2.475 0 0 0-.815-.53c-.321-.133-.713-.2-1.179-.2-.576 0-1.069.155-1.48.464-.408.311-.614.698-.614 1.163 0 .399.138.72.415.964.277.244.637.41 1.08.498l2.326.498c1.617.333 2.83.953 3.64 1.861.808.91 1.212 1.96 1.212 3.156 0 .667-.129 1.319-.382 1.96a4.887 4.887 0 0 1-1.18 1.73c-.53.51-1.196.919-1.993 1.229-.798.309-1.728.464-2.791.464-1.24 0-2.28-.177-3.123-.53-.843-.355-1.528-.788-2.06-1.297-.533-.51-.925-1.058-1.18-1.644-.255-.588-.405-1.113-.449-1.578l3.787-.829z"/></g><path fill="#F96216" d="M9.045 7.256l6.944 25.426a3.204 3.204 0 0 0 3.933 2.248 3.21 3.21 0 0 0 2.243-3.942L15.22 5.561a3.202 3.202 0 0 0-3.934-2.246 3.209 3.209 0 0 0-2.241 3.941z"/><path fill="#B200F8" d="M21.906 7.08L4.516 26.749a3.214 3.214 0 0 0 .273 4.53 3.196 3.196 0 0 0 4.519-.275l17.39-19.667a3.212 3.212 0 0 0-.273-4.529 3.196 3.196 0 0 0-4.52.274z"/><path fill="#00B4F2" d="M2.197 18.056l24.801 8.216a3.2 3.2 0 0 0 4.045-2.038 3.207 3.207 0 0 0-2.034-4.052l-24.802-8.22a3.2 3.2 0 0 0-4.044 2.04 3.21 3.21 0 0 0 2.034 4.054z"/></g></svg>