<svg width="16" height="16" viewBox="0 0 16 16" fill="none" xmlns="http://www.w3.org/2000/svg">
<g clip-path="url(#clip0_2_2058)">
<path d="M16 0H0V16H16V0Z" fill="white"/>
<path d="M11 3H10V7H11V3Z" fill="black"/>
<path d="M7 5H3V6H7V5Z" fill="black"/>
<path d="M8 13C4.4 13 2.6 9.9 2.6 9.7L2.3 9.3L3.2 8.8L3.4 9.2C3.5 9.3 5 12 8 12C11 12 12.5 9.3 12.6 9.3L12.8 8.9L13.7 9.4L13.5 9.8C13.4 9.9 11.6 13 8 13Z" fill="black"/>
</g>
<defs>
<clipPath id="clip0_2_2058">
<rect width="16" height="16" fill="white"/>
</clipPath>
</defs>
</svg>
