<svg width="89" height="47" viewBox="0 0 89 47" fill="none" xmlns="http://www.w3.org/2000/svg"><rect y="2" width="54" height="8" rx="4" fill="#CAD2E2"/><rect x="57" y="2" width="32" height="8" rx="4" fill="#CAD2E2"/><rect x="9.998" y="15" width="14" height="8" rx="4" fill="#CAD2E2"/><rect x="29" y="14" width="46" height="8" rx="4" fill="#94D82D"/><rect x="61" y="14" width="14" height="8" rx="4" fill="#CAD2E2"/><rect x="29" y="14" width="14" height="8" rx="4" fill="#CAD2E2"/><rect x="11" y="28" width="37" height="8" rx="4" fill="#CAD2E2"/><rect y="38" width="11" height="8" rx="4" fill="#CAD2E2"/><path d="M52.604 32.333a13.76 13.76 0 0 0 7.813-2.433v.868l.293.293 9.791 9.792.707.707.707-.707 2.938-2.938.707-.707-.707-.707-9.792-9.791-.293-.293h-.87A13.736 13.736 0 0 0 52.604 4.875a13.73 13.73 0 1 0 0 27.458Zm-7.812-13.729a7.776 7.776 0 0 1 7.812-7.812 7.776 7.776 0 0 1 7.813 7.812 7.776 7.776 0 0 1-7.813 7.813 7.776 7.776 0 0 1-7.812-7.813Z" fill="#A305E1" stroke="#fff" stroke-width="2"/></svg>