<svg width="456" height="304" viewBox="0 0 456 304" fill="none" xmlns="http://www.w3.org/2000/svg">
<rect width="456" height="304" fill="#181B26"/>
<g opacity="0.98">
<g opacity="0.7">
<path d="M8.9529 19.8092C9.43792 19.8092 9.80775 19.4455 9.80775 18.9605C9.80775 18.4815 9.43792 18.1177 8.9529 18.1177C8.46789 18.1177 8.09806 18.4815 8.09806 18.9605C8.09806 19.4455 8.46789 19.8092 8.9529 19.8092ZM11.7115 28V27.1452H9.53493V21.4219H6.27924V22.2768H8.51639V27.1452H6.26105V28H11.7115ZM19.684 23.1559C19.684 21.9373 19.205 21.3007 18.2895 21.3007C17.6287 21.3007 17.1012 21.7008 16.9315 22.3313H16.8223C16.6829 21.6826 16.2464 21.3007 15.628 21.3007C15.0096 21.3007 14.5367 21.6887 14.373 22.3495H14.2639V21.4219H13.3423V28H14.2699V23.5621C14.2699 22.7436 14.6337 22.2404 15.2157 22.2404C15.7735 22.2404 16.0645 22.6587 16.0645 23.4529V28H16.986V23.5621C16.986 22.7436 17.3377 22.2404 17.9136 22.2404C18.4653 22.2404 18.7564 22.6587 18.7564 23.459V28H19.684V23.1559ZM24.6008 21.3128C23.6611 21.3128 22.976 21.7008 22.6304 22.4283H22.5213V21.4219H21.5028V30.219H22.5516V26.9815H22.6668C22.9518 27.7029 23.649 28.1091 24.6008 28.1091C26.1226 28.1091 27.1169 27.0118 27.1169 25.3263V24.1017C27.1169 22.4102 26.1226 21.3128 24.6008 21.3128ZM24.3038 22.2586C25.389 22.2586 26.0801 23.0346 26.0801 24.2472V25.193C26.0801 26.4055 25.389 27.1876 24.3038 27.1876C23.2185 27.1876 22.5274 26.4116 22.5274 25.193V24.2472C22.5274 23.0346 23.2185 22.2586 24.3038 22.2586ZM31.864 28.1213C33.604 28.1213 34.7135 26.9875 34.7135 25.2111V24.2169C34.7135 22.4405 33.604 21.3067 31.864 21.3067C30.124 21.3067 29.0145 22.4405 29.0145 24.2169V25.2111C29.0145 26.9875 30.124 28.1213 31.864 28.1213ZM31.864 22.2161C32.9917 22.2161 33.6949 23.0164 33.6949 24.3078V25.1141C33.6949 26.4116 32.9917 27.2058 31.864 27.2058C30.7363 27.2058 30.033 26.4116 30.033 25.1141V24.3078C30.033 23.0164 30.7363 22.2161 31.864 22.2161ZM39.2787 25.0535C39.2787 23.3802 40.1396 22.3738 41.5947 22.3738C41.9524 22.3738 42.3768 22.4465 42.6799 22.5557V21.3977C42.4617 21.3067 42.104 21.2522 41.7281 21.2522C40.461 21.2522 39.6425 21.8827 39.4 23.1013H39.2666V21.4219H36.8112V22.2465H38.2723V27.1755H36.9446V28H41.3158V27.1755H39.2787V25.0535ZM46.0932 19.6577V21.4401H44.3411V22.3192H46.0932V26.0417C46.0932 27.4119 46.8511 28.0303 48.482 28.0303C48.7972 28.0303 49.5975 28 49.7612 27.9697V27.0967C49.5854 27.1148 48.9245 27.133 48.5547 27.133C47.6271 27.133 47.1239 26.745 47.1239 26.0296V22.3192H49.7794V21.4401H47.1118V19.6577H46.0932ZM146.025 28H147.056V22.3192H149.948V21.4401H147.044V20.7611C147.044 20.1003 147.529 19.7607 148.444 19.7607C148.814 19.7607 149.663 19.785 149.948 19.8153V18.9726C149.73 18.9423 148.814 18.912 148.432 18.912C146.813 18.912 146.025 19.5061 146.025 20.7793V21.4401H144.261V22.3192H146.025V28ZM154.41 25.0535C154.41 23.3802 155.271 22.3738 156.726 22.3738C157.084 22.3738 157.508 22.4465 157.811 22.5557V21.3977C157.593 21.3067 157.235 21.2522 156.859 21.2522C155.592 21.2522 154.774 21.8827 154.531 23.1013H154.398V21.4219H151.943V22.2465H153.404V27.1755H152.076V28H156.447V27.1755H154.41V25.0535ZM162.346 28.1213C164.086 28.1213 165.196 26.9875 165.196 25.2111V24.2169C165.196 22.4405 164.086 21.3067 162.346 21.3067C160.606 21.3067 159.497 22.4405 159.497 24.2169V25.2111C159.497 26.9875 160.606 28.1213 162.346 28.1213ZM162.346 22.2161C163.474 22.2161 164.177 23.0164 164.177 24.3078V25.1141C164.177 26.4116 163.474 27.2058 162.346 27.2058C161.219 27.2058 160.515 26.4116 160.515 25.1141V24.3078C160.515 23.0164 161.219 22.2161 162.346 22.2161ZM173.192 23.1559C173.192 21.9373 172.714 21.3007 171.798 21.3007C171.137 21.3007 170.61 21.7008 170.44 22.3313H170.331C170.191 21.6826 169.755 21.3007 169.136 21.3007C168.518 21.3007 168.045 21.6887 167.882 22.3495H167.772V21.4219H166.851V28H167.778V23.5621C167.778 22.7436 168.142 22.2404 168.724 22.2404C169.282 22.2404 169.573 22.6587 169.573 23.4529V28H170.495V23.5621C170.495 22.7436 170.846 22.2404 171.422 22.2404C171.974 22.2404 172.265 22.6587 172.265 23.459V28H173.192V23.1559Z" fill="#CD6FCC"/>
<path d="M65.3061 23.4711C65.1363 22.1191 64.142 21.2946 62.6869 21.2946C60.8984 21.2946 59.8557 22.392 59.8557 24.2775V25.1384C59.8557 27.0239 60.8984 28.1213 62.6869 28.1213C64.142 28.1213 65.1424 27.3028 65.3061 25.9629H64.2875C64.1602 26.7147 63.5175 27.1937 62.6688 27.1937C61.5229 27.1937 60.8863 26.4176 60.8863 25.005V24.4109C60.8863 22.9982 61.5229 22.2161 62.6688 22.2161C63.5175 22.2161 64.1602 22.7012 64.2875 23.4711H65.3061ZM73.1149 28V27.1452H70.9444V18.8392H67.6826V19.694H69.9137V27.1452H67.6645V28H73.1149ZM77.2496 28.1152C78.2076 28.1152 78.923 27.7211 79.2382 27.0178H79.3413V28.0061H80.3235V23.5014C80.3235 22.1313 79.4383 21.3431 77.8923 21.3431C76.5464 21.3431 75.5278 22.0646 75.4066 23.1195H76.4191C76.5888 22.5557 77.1223 22.2343 77.8802 22.2343C78.7956 22.2343 79.2989 22.689 79.2989 23.5136V24.1077L77.4922 24.1987C75.9947 24.2775 75.158 24.9686 75.158 26.1327C75.158 27.327 75.9947 28.1152 77.2496 28.1152ZM77.5467 27.2118C76.7161 27.2118 76.2008 26.7875 76.2008 26.0963C76.2008 25.4112 76.6858 25.0171 77.6073 24.9747L79.2989 24.8959V25.6719C79.2989 26.551 78.541 27.2118 77.5467 27.2118ZM83.1972 23.1983C83.1972 24.132 83.7853 24.7322 84.9736 25.005L85.9497 25.2293C86.7863 25.4173 87.1077 25.6962 87.1077 26.2176C87.1077 26.8481 86.5378 27.2543 85.6405 27.2543C84.7917 27.2543 84.2097 26.9026 84.0581 26.2964H83.0092C83.1244 27.424 84.1127 28.1213 85.6041 28.1213C87.1622 28.1213 88.1747 27.3331 88.1747 26.1206C88.1747 25.1687 87.5927 24.6109 86.3134 24.3199L85.3858 24.1077C84.5613 23.9258 84.2218 23.6409 84.2218 23.1377C84.2218 22.5375 84.7614 22.1495 85.598 22.1495C86.368 22.1495 86.9197 22.5011 87.041 23.0771H88.0353C87.914 21.9797 86.9864 21.2946 85.6162 21.2946C84.1672 21.2946 83.1972 22.0585 83.1972 23.1983ZM90.8726 23.1983C90.8726 24.132 91.4607 24.7322 92.649 25.005L93.6251 25.2293C94.4618 25.4173 94.7831 25.6962 94.7831 26.2176C94.7831 26.8481 94.2132 27.2543 93.3159 27.2543C92.4671 27.2543 91.8851 26.9026 91.7335 26.2964H90.6847C90.7999 27.424 91.7881 28.1213 93.2795 28.1213C94.8376 28.1213 95.8501 27.3331 95.8501 26.1206C95.8501 25.1687 95.2681 24.6109 93.9889 24.3199L93.0613 24.1077C92.2367 23.9258 91.8972 23.6409 91.8972 23.1377C91.8972 22.5375 92.4368 22.1495 93.2735 22.1495C94.0434 22.1495 94.5951 22.5011 94.7164 23.0771H95.7107C95.5894 21.9797 94.6618 21.2946 93.2917 21.2946C91.8427 21.2946 90.8726 22.0585 90.8726 23.1983ZM98.9967 28V21.1734H99.0816L102.84 28H103.853V19.2515H102.889V26.0599H102.804L99.0573 19.2515H98.0327V28H98.9967ZM107.951 28.1152C108.909 28.1152 109.625 27.7211 109.94 27.0178H110.043V28.0061H111.025V23.5014C111.025 22.1313 110.14 21.3431 108.594 21.3431C107.248 21.3431 106.23 22.0646 106.108 23.1195H107.121C107.291 22.5557 107.824 22.2343 108.582 22.2343C109.497 22.2343 110.001 22.689 110.001 23.5136V24.1077L108.194 24.1987C106.696 24.2775 105.86 24.9686 105.86 26.1327C105.86 27.327 106.696 28.1152 107.951 28.1152ZM108.248 27.2118C107.418 27.2118 106.902 26.7875 106.902 26.0963C106.902 25.4112 107.388 25.0171 108.309 24.9747L110.001 24.8959V25.6719C110.001 26.551 109.243 27.2118 108.248 27.2118ZM119.464 23.1559C119.464 21.9373 118.986 21.3007 118.07 21.3007C117.409 21.3007 116.882 21.7008 116.712 22.3313H116.603C116.463 21.6826 116.027 21.3007 115.409 21.3007C114.79 21.3007 114.317 21.6887 114.154 22.3495H114.044V21.4219H113.123V28H114.05V23.5621C114.05 22.7436 114.414 22.2404 114.996 22.2404C115.554 22.2404 115.845 22.6587 115.845 23.4529V28H116.767V23.5621C116.767 22.7436 117.118 22.2404 117.694 22.2404C118.246 22.2404 118.537 22.6587 118.537 23.459V28H119.464V23.1559ZM125.745 26.3024C125.564 26.8784 124.951 27.23 124.121 27.23C122.999 27.23 122.284 26.454 122.284 25.2475V24.9808H126.764V24.3381C126.764 22.4344 125.758 21.3007 124.048 21.3007C122.375 21.3007 121.265 22.4405 121.265 24.1744V25.1626C121.265 27.036 122.314 28.1213 124.121 28.1213C125.503 28.1213 126.546 27.3877 126.746 26.3024H125.745ZM124.042 22.1858C125.103 22.1858 125.745 22.9437 125.745 24.1987H122.284C122.284 22.9376 122.945 22.1858 124.042 22.1858ZM129.25 23.1983C129.25 24.132 129.838 24.7322 131.026 25.005L132.002 25.2293C132.839 25.4173 133.16 25.6962 133.16 26.2176C133.16 26.8481 132.59 27.2543 131.693 27.2543C130.844 27.2543 130.262 26.9026 130.111 26.2964H129.062C129.177 27.424 130.165 28.1213 131.657 28.1213C133.215 28.1213 134.227 27.3331 134.227 26.1206C134.227 25.1687 133.645 24.6109 132.366 24.3199L131.438 24.1077C130.614 23.9258 130.274 23.6409 130.274 23.1377C130.274 22.5375 130.814 22.1495 131.651 22.1495C132.421 22.1495 132.972 22.5011 133.094 23.0771H134.088C133.967 21.9797 133.039 21.2946 131.669 21.2946C130.22 21.2946 129.25 22.0585 129.25 23.1983Z" fill="#F880AB"/>
<path d="M185.457 19.2515L184.318 23.1983H185.682L186.433 19.2515H185.457ZM195.788 23.4711C195.619 22.1191 194.624 21.2946 193.169 21.2946C191.381 21.2946 190.338 22.392 190.338 24.2775V25.1384C190.338 27.0239 191.381 28.1213 193.169 28.1213C194.624 28.1213 195.625 27.3028 195.788 25.9629H194.77C194.642 26.7147 194 27.1937 193.151 27.1937C192.005 27.1937 191.369 26.4176 191.369 25.005V24.4109C191.369 22.9982 192.005 22.2161 193.151 22.2161C194 22.2161 194.642 22.7012 194.77 23.4711H195.788ZM203.597 28V27.1452H201.427V18.8392H198.165V19.694H200.396V27.1452H198.147V28H203.597ZM207.732 28.1152C208.69 28.1152 209.405 27.7211 209.72 27.0178H209.824V28.0061H210.806V23.5014C210.806 22.1313 209.921 21.3431 208.375 21.3431C207.029 21.3431 206.01 22.0646 205.889 23.1195H206.901C207.071 22.5557 207.605 22.2343 208.362 22.2343C209.278 22.2343 209.781 22.689 209.781 23.5136V24.1077L207.974 24.1987C206.477 24.2775 205.64 24.9686 205.64 26.1327C205.64 27.327 206.477 28.1152 207.732 28.1152ZM208.029 27.2118C207.198 27.2118 206.683 26.7875 206.683 26.0963C206.683 25.4112 207.168 25.0171 208.09 24.9747L209.781 24.8959V25.6719C209.781 26.551 209.023 27.2118 208.029 27.2118ZM213.679 23.1983C213.679 24.132 214.268 24.7322 215.456 25.005L216.432 25.2293C217.269 25.4173 217.59 25.6962 217.59 26.2176C217.59 26.8481 217.02 27.2543 216.123 27.2543C215.274 27.2543 214.692 26.9026 214.54 26.2964H213.491C213.607 27.424 214.595 28.1213 216.086 28.1213C217.644 28.1213 218.657 27.3331 218.657 26.1206C218.657 25.1687 218.075 24.6109 216.796 24.3199L215.868 24.1077C215.044 23.9258 214.704 23.6409 214.704 23.1377C214.704 22.5375 215.244 22.1495 216.08 22.1495C216.85 22.1495 217.402 22.5011 217.523 23.0771H218.517C218.396 21.9797 217.469 21.2946 216.098 21.2946C214.649 21.2946 213.679 22.0585 213.679 23.1983ZM221.355 23.1983C221.355 24.132 221.943 24.7322 223.131 25.005L224.107 25.2293C224.944 25.4173 225.265 25.6962 225.265 26.2176C225.265 26.8481 224.695 27.2543 223.798 27.2543C222.949 27.2543 222.367 26.9026 222.216 26.2964H221.167C221.282 27.424 222.27 28.1213 223.762 28.1213C225.32 28.1213 226.332 27.3331 226.332 26.1206C226.332 25.1687 225.75 24.6109 224.471 24.3199L223.544 24.1077C222.719 23.9258 222.379 23.6409 222.379 23.1377C222.379 22.5375 222.919 22.1495 223.756 22.1495C224.526 22.1495 225.077 22.5011 225.199 23.0771H226.193C226.072 21.9797 225.144 21.2946 223.774 21.2946C222.325 21.2946 221.355 22.0585 221.355 23.1983ZM228.733 28H229.764V24.1259C229.764 23.0043 230.491 22.2465 231.577 22.2465C232.601 22.2465 233.086 22.8042 233.086 23.9925V28H234.117V23.7318C234.117 22.1555 233.341 21.3007 231.91 21.3007C230.91 21.3007 230.158 21.7614 229.806 22.5799H229.721V21.4219H228.733V28ZM238.434 28.1152C239.392 28.1152 240.107 27.7211 240.422 27.0178H240.525V28.0061H241.507V23.5014C241.507 22.1313 240.622 21.3431 239.076 21.3431C237.73 21.3431 236.712 22.0646 236.591 23.1195H237.603C237.773 22.5557 238.306 22.2343 239.064 22.2343C239.98 22.2343 240.483 22.689 240.483 23.5136V24.1077L238.676 24.1987C237.179 24.2775 236.342 24.9686 236.342 26.1327C236.342 27.327 237.179 28.1152 238.434 28.1152ZM238.731 27.2118C237.9 27.2118 237.385 26.7875 237.385 26.0963C237.385 25.4112 237.87 25.0171 238.791 24.9747L240.483 24.8959V25.6719C240.483 26.551 239.725 27.2118 238.731 27.2118ZM249.947 23.1559C249.947 21.9373 249.468 21.3007 248.552 21.3007C247.891 21.3007 247.364 21.7008 247.194 22.3313H247.085C246.946 21.6826 246.509 21.3007 245.891 21.3007C245.272 21.3007 244.799 21.6887 244.636 22.3495H244.527V21.4219H243.605V28H244.533V23.5621C244.533 22.7436 244.896 22.2404 245.478 22.2404C246.036 22.2404 246.327 22.6587 246.327 23.4529V28H247.249V23.5621C247.249 22.7436 247.6 22.2404 248.176 22.2404C248.728 22.2404 249.019 22.6587 249.019 23.459V28H249.947V23.1559ZM256.228 26.3024C256.046 26.8784 255.434 27.23 254.603 27.23C253.481 27.23 252.766 26.454 252.766 25.2475V24.9808H257.246V24.3381C257.246 22.4344 256.24 21.3007 254.53 21.3007C252.857 21.3007 251.747 22.4405 251.747 24.1744V25.1626C251.747 27.036 252.796 28.1213 254.603 28.1213C255.985 28.1213 257.028 27.3877 257.228 26.3024H256.228ZM254.524 22.1858C255.585 22.1858 256.228 22.9437 256.228 24.1987H252.766C252.766 22.9376 253.427 22.1858 254.524 22.1858ZM259.732 23.1983C259.732 24.132 260.32 24.7322 261.508 25.005L262.484 25.2293C263.321 25.4173 263.642 25.6962 263.642 26.2176C263.642 26.8481 263.073 27.2543 262.175 27.2543C261.326 27.2543 260.744 26.9026 260.593 26.2964H259.544C259.659 27.424 260.647 28.1213 262.139 28.1213C263.697 28.1213 264.71 27.3331 264.71 26.1206C264.71 25.1687 264.127 24.6109 262.848 24.3199L261.921 24.1077C261.096 23.9258 260.757 23.6409 260.757 23.1377C260.757 22.5375 261.296 22.1495 262.133 22.1495C262.903 22.1495 263.455 22.5011 263.576 23.0771H264.57C264.449 21.9797 263.521 21.2946 262.151 21.2946C260.702 21.2946 259.732 22.0585 259.732 23.1983ZM269.717 23.1983L270.857 19.2515H269.493L268.741 23.1983H269.717Z" fill="#70B276"/>
</g>
</g>
<g filter="url(#filter0_d_312_3281)">
<rect x="89.7014" y="105" width="359.162" height="179" rx="2.40536" fill="#343A4C"/>
<rect x="90.7014" y="106" width="357.162" height="177" rx="1.40536" stroke="#343A4C" stroke-width="2"/>
</g>
<path d="M149.056 141.648V132.621H152.129V131.479H144.744V132.621H147.816V141.648H149.056ZM157.358 141.789C159.38 141.789 160.67 140.471 160.67 138.407V137.251C160.67 135.186 159.38 133.868 157.358 133.868C155.335 133.868 154.046 135.186 154.046 137.251V138.407C154.046 140.471 155.335 141.789 157.358 141.789ZM157.358 134.925C158.668 134.925 159.486 135.856 159.486 137.357V138.294C159.486 139.802 158.668 140.725 157.358 140.725C156.047 140.725 155.23 139.802 155.23 138.294V137.357C155.23 135.856 156.047 134.925 157.358 134.925ZM166.279 136.278C166.977 136.278 167.555 135.686 167.555 134.975C167.555 134.263 166.977 133.671 166.279 133.671C165.582 133.671 165.004 134.263 165.004 134.975C165.004 135.686 165.582 136.278 166.279 136.278ZM166.279 141.69C166.977 141.69 167.555 141.106 167.555 140.387C167.555 139.675 166.977 139.09 166.279 139.09C165.582 139.09 165.004 139.675 165.004 140.387C165.004 141.106 165.582 141.69 166.279 141.69ZM183.643 141.775C184.735 141.775 185.538 141.324 185.933 140.478H186.067V141.648H187.244V131H186.025V135.186H185.898C185.567 134.348 184.749 133.875 183.643 133.875C181.874 133.875 180.718 135.151 180.718 137.11V138.533C180.718 140.5 181.874 141.775 183.643 141.775ZM183.995 140.683C182.734 140.683 181.923 139.774 181.923 138.364V137.265C181.923 135.856 182.734 134.954 183.995 134.954C185.25 134.954 186.06 135.856 186.06 137.265V138.364C186.06 139.781 185.25 140.683 183.995 140.683ZM195.108 139.675C194.897 140.345 194.185 140.753 193.22 140.753C191.916 140.753 191.084 139.851 191.084 138.449V138.139H196.292V137.392C196.292 135.179 195.122 133.861 193.135 133.861C191.19 133.861 189.901 135.186 189.901 137.202V138.35C189.901 140.528 191.12 141.789 193.22 141.789C194.826 141.789 196.038 140.936 196.271 139.675H195.108ZM193.128 134.89C194.361 134.89 195.108 135.771 195.108 137.23H191.084C191.084 135.764 191.853 134.89 193.128 134.89ZM198.512 134.002L201.31 141.648H202.627L205.418 134.002H204.142L202.021 140.366H201.93L199.794 134.002H198.512ZM211.098 143.043C211.788 143.043 212.486 142.931 212.824 142.769V141.937C212.528 142.085 211.859 142.191 211.225 142.191C209.082 142.191 208.103 140.781 208.103 137.66V136.567C208.103 133.495 209.012 132.107 210.985 132.107C212.831 132.107 213.79 133.333 213.79 135.736V137.716C213.79 138.421 213.55 138.681 212.902 138.681H211.746V135.757C211.746 135.228 211.478 134.897 211.07 134.897C210.654 134.897 210.386 135.228 210.386 135.757V138.639C210.386 139.161 210.717 139.492 211.246 139.492H213.043C214.057 139.492 214.649 138.822 214.649 137.688V135.581C214.649 132.797 213.332 131.254 210.992 131.254C208.533 131.254 207.229 133.072 207.229 136.504V137.822C207.229 141.254 208.561 143.043 211.098 143.043ZM219.033 141.782C220.146 141.782 220.978 141.324 221.344 140.507H221.464V141.655H222.605V136.419C222.605 134.827 221.577 133.911 219.78 133.911C218.215 133.911 217.031 134.749 216.89 135.975H218.067C218.265 135.32 218.885 134.947 219.766 134.947C220.83 134.947 221.414 135.475 221.414 136.433V137.124L219.315 137.23C217.574 137.321 216.601 138.125 216.601 139.478C216.601 140.866 217.574 141.782 219.033 141.782ZM219.378 140.732C218.412 140.732 217.814 140.239 217.814 139.435C217.814 138.639 218.377 138.181 219.448 138.132L221.414 138.04V138.942C221.414 139.964 220.534 140.732 219.378 140.732ZM231.914 136.384C231.717 134.813 230.561 133.854 228.87 133.854C226.791 133.854 225.579 135.13 225.579 137.321V138.322C225.579 140.514 226.791 141.789 228.87 141.789C230.561 141.789 231.724 140.838 231.914 139.28H230.731C230.583 140.154 229.836 140.711 228.849 140.711C227.517 140.711 226.777 139.809 226.777 138.167V137.476C226.777 135.834 227.517 134.925 228.849 134.925C229.836 134.925 230.583 135.489 230.731 136.384H231.914ZM241.336 136.018C241.336 134.601 240.78 133.861 239.715 133.861C238.947 133.861 238.334 134.326 238.137 135.059H238.01C237.848 134.305 237.341 133.861 236.622 133.861C235.903 133.861 235.353 134.312 235.163 135.08H235.036V134.002H233.965V141.648H235.043V136.49C235.043 135.538 235.466 134.954 236.143 134.954C236.791 134.954 237.129 135.44 237.129 136.363V141.648H238.2V136.49C238.2 135.538 238.609 134.954 239.279 134.954C239.92 134.954 240.258 135.44 240.258 136.37V141.648H241.336V136.018ZM248.637 139.675C248.425 140.345 247.714 140.753 246.748 140.753C245.445 140.753 244.613 139.851 244.613 138.449V138.139H249.821V137.392C249.821 135.179 248.651 133.861 246.664 133.861C244.719 133.861 243.429 135.186 243.429 137.202V138.35C243.429 140.528 244.648 141.789 246.748 141.789C248.355 141.789 249.567 140.936 249.8 139.675H248.637ZM246.657 134.89C247.89 134.89 248.637 135.771 248.637 137.23H244.613C244.613 135.764 245.381 134.89 246.657 134.89ZM258.679 136.384C258.481 134.813 257.326 133.854 255.634 133.854C253.556 133.854 252.344 135.13 252.344 137.321V138.322C252.344 140.514 253.556 141.789 255.634 141.789C257.326 141.789 258.488 140.838 258.679 139.28H257.495C257.347 140.154 256.6 140.711 255.613 140.711C254.281 140.711 253.542 139.809 253.542 138.167V137.476C253.542 135.834 254.281 134.925 255.613 134.925C256.6 134.925 257.347 135.489 257.495 136.384H258.679ZM264.415 141.789C266.437 141.789 267.727 140.471 267.727 138.407V137.251C267.727 135.186 266.437 133.868 264.415 133.868C262.392 133.868 261.103 135.186 261.103 137.251V138.407C261.103 140.471 262.392 141.789 264.415 141.789ZM264.415 134.925C265.726 134.925 266.543 135.856 266.543 137.357V138.294C266.543 139.802 265.726 140.725 264.415 140.725C263.104 140.725 262.287 139.802 262.287 138.294V137.357C262.287 135.856 263.104 134.925 264.415 134.925ZM273.033 138.223C273.033 136.278 274.034 135.109 275.725 135.109C276.141 135.109 276.634 135.193 276.987 135.32V133.974C276.733 133.868 276.317 133.805 275.88 133.805C274.408 133.805 273.456 134.538 273.174 135.954H273.019V134.002H270.165V134.961H271.864V140.69H270.32V141.648H275.401V140.69H273.033V138.223ZM282.737 133.875C281.645 133.875 280.848 134.326 280.447 135.172H280.32V134.002H279.136V144.227H280.355V140.464H280.489C280.82 141.303 281.631 141.775 282.737 141.775C284.506 141.775 285.662 140.5 285.662 138.54V137.117C285.662 135.151 284.506 133.875 282.737 133.875ZM282.392 134.975C283.653 134.975 284.457 135.877 284.457 137.286V138.385C284.457 139.795 283.653 140.704 282.392 140.704C281.13 140.704 280.327 139.802 280.327 138.385V137.286C280.327 135.877 281.13 134.975 282.392 134.975ZM291.179 141.69C291.877 141.69 292.455 141.106 292.455 140.387C292.455 139.675 291.877 139.09 291.179 139.09C290.482 139.09 289.904 139.675 289.904 140.387C289.904 141.106 290.482 141.69 291.179 141.69ZM303.286 136.384C303.089 134.813 301.933 133.854 300.242 133.854C298.163 133.854 296.951 135.13 296.951 137.321V138.322C296.951 140.514 298.163 141.789 300.242 141.789C301.933 141.789 303.096 140.838 303.286 139.28H302.102C301.954 140.154 301.207 140.711 300.221 140.711C298.889 140.711 298.149 139.809 298.149 138.167V137.476C298.149 135.834 298.889 134.925 300.221 134.925C301.207 134.925 301.954 135.489 302.102 136.384H303.286ZM309.022 141.789C311.045 141.789 312.334 140.471 312.334 138.407V137.251C312.334 135.186 311.045 133.868 309.022 133.868C307 133.868 305.71 135.186 305.71 137.251V138.407C305.71 140.471 307 141.789 309.022 141.789ZM309.022 134.925C310.333 134.925 311.15 135.856 311.15 137.357V138.294C311.15 139.802 310.333 140.725 309.022 140.725C307.711 140.725 306.894 139.802 306.894 138.294V137.357C306.894 135.856 307.711 134.925 309.022 134.925Z" fill="#DBE2F0"/>
<path d="M148.271 204.399H145.197V213.896C145.197 217.133 147.589 219.332 151.355 219.332C155.111 219.332 157.503 217.133 157.503 213.896V204.399H154.429V213.591C154.429 215.474 153.32 216.706 151.355 216.706C149.381 216.706 148.271 215.474 148.271 213.591V204.399ZM159.519 211.382C159.519 213.021 160.588 214.08 162.695 214.527L164.557 214.914C165.626 215.159 166.003 215.484 166.003 216.065C166.003 216.777 165.311 217.235 164.191 217.235C163.01 217.235 162.328 216.726 162.145 215.769H159.244C159.437 217.917 161.178 219.322 164.191 219.322C167 219.322 168.965 217.907 168.965 215.759C168.965 214.161 168.028 213.265 165.748 212.787L163.886 212.39C162.786 212.156 162.379 211.779 162.379 211.219C162.379 210.497 163.061 210.028 164.089 210.028C165.188 210.028 165.85 210.629 165.942 211.515H168.68C168.619 209.377 166.888 207.942 164.089 207.942C161.31 207.942 159.519 209.306 159.519 211.382ZM177.658 215.749C177.383 216.584 176.548 217.123 175.459 217.123C173.942 217.123 172.955 216.054 172.955 214.497V214.314H180.477V213.408C180.477 210.089 178.472 207.942 175.296 207.942C172.069 207.942 170.034 210.201 170.034 213.683C170.034 217.174 172.049 219.322 175.408 219.322C178.106 219.322 180.06 217.887 180.386 215.749H177.658ZM175.327 210.14C176.65 210.14 177.556 211.097 177.617 212.492H172.986C173.087 211.128 174.024 210.14 175.327 210.14ZM191.155 219.322C194.453 219.322 196.56 217.215 196.56 213.622C196.56 210.079 194.422 207.942 191.155 207.942C187.887 207.942 185.75 210.089 185.75 213.622C185.75 217.205 187.857 219.322 191.155 219.322ZM191.155 217.052C189.689 217.052 188.763 215.82 188.763 213.632C188.763 211.464 189.71 210.212 191.155 210.212C192.6 210.212 193.537 211.464 193.537 213.632C193.537 215.82 192.61 217.052 191.155 217.052ZM198.891 219.088H201.863V210.415H203.96V208.227H201.792V207.504C201.792 206.73 202.219 206.303 203.197 206.303C203.492 206.303 203.787 206.323 204.001 206.364V204.399C203.655 204.328 203.034 204.267 202.484 204.267C199.899 204.267 198.891 205.265 198.891 207.402V208.227H197.405V210.415H198.891V219.088ZM213.711 219.261C215.32 219.261 216.582 218.416 217.111 217.215H217.162V219.088H220.094V204.399H217.121V210.049H217.06C216.531 208.837 215.309 208.003 213.732 208.003C210.994 208.003 209.263 210.151 209.263 213.611C209.263 217.103 210.983 219.261 213.711 219.261ZM214.719 210.385C216.195 210.385 217.142 211.647 217.142 213.632C217.142 215.627 216.195 216.869 214.719 216.869C213.223 216.869 212.307 215.637 212.307 213.632C212.307 211.637 213.223 210.385 214.719 210.385ZM229.306 215.749C229.031 216.584 228.196 217.123 227.107 217.123C225.59 217.123 224.603 216.054 224.603 214.497V214.314H232.125V213.408C232.125 210.089 230.12 207.942 226.944 207.942C223.717 207.942 221.682 210.201 221.682 213.683C221.682 217.174 223.697 219.322 227.056 219.322C229.753 219.322 231.708 217.887 232.033 215.749H229.306ZM226.975 210.14C228.298 210.14 229.204 211.097 229.265 212.492H224.633C224.735 211.128 225.672 210.14 226.975 210.14ZM240.034 208.003C238.456 208.003 237.245 208.797 236.655 210.079H236.594V208.176H233.662V222.65H236.634V217.255H236.695C237.276 218.487 238.497 219.261 240.085 219.261C242.813 219.261 244.503 217.143 244.503 213.632C244.503 210.11 242.803 208.003 240.034 208.003ZM239.037 216.869C237.581 216.869 236.624 215.606 236.624 213.632C236.624 211.677 237.581 210.385 239.037 210.385C240.523 210.385 241.459 211.657 241.459 213.632C241.459 215.617 240.523 216.869 239.037 216.869ZM246.04 219.088H249.012V212.99C249.012 211.453 249.867 210.558 251.333 210.558C251.76 210.558 252.167 210.629 252.412 210.731V208.115C252.208 208.054 251.913 208.003 251.567 208.003C250.284 208.003 249.358 208.756 248.971 210.14H248.91V208.176H246.04V219.088ZM260.494 215.749C260.219 216.584 259.384 217.123 258.295 217.123C256.778 217.123 255.791 216.054 255.791 214.497V214.314H263.313V213.408C263.313 210.089 261.308 207.942 258.132 207.942C254.906 207.942 252.87 210.201 252.87 213.683C252.87 217.174 254.885 219.322 258.244 219.322C260.942 219.322 262.896 217.887 263.222 215.749H260.494ZM258.163 210.14C259.486 210.14 260.392 211.097 260.453 212.492H255.822C255.923 211.128 256.86 210.14 258.163 210.14ZM274.765 212.237C274.632 209.764 272.759 207.942 269.807 207.942C266.54 207.942 264.453 210.12 264.453 213.622C264.453 217.184 266.54 219.322 269.828 219.322C272.698 219.322 274.622 217.663 274.775 215.087H272.006C271.823 216.278 271.049 216.991 269.858 216.991C268.382 216.991 267.466 215.769 267.466 213.622C267.466 211.515 268.382 210.273 269.848 210.273C271.07 210.273 271.833 211.087 272.006 212.237H274.765ZM279.447 219.261C280.811 219.261 282.165 218.579 282.775 217.418H282.836V219.088H285.707V211.586C285.707 209.387 283.885 207.942 281.086 207.942C278.195 207.942 276.393 209.397 276.281 211.515H278.999C279.142 210.71 279.844 210.161 280.953 210.161C282.073 210.161 282.786 210.751 282.786 211.769V212.492L280.037 212.655C277.32 212.817 275.793 213.968 275.793 215.953C275.793 217.917 277.37 219.261 279.447 219.261ZM280.424 217.113C279.416 217.113 278.745 216.604 278.745 215.79C278.745 215.016 279.376 214.517 280.485 214.436L282.786 214.293V215.087C282.786 216.268 281.717 217.113 280.424 217.113ZM288.425 205.662V208.176H286.888V210.415H288.425V216.146C288.425 218.273 289.422 219.128 291.987 219.128C292.588 219.128 293.097 219.077 293.402 219.006V216.818C293.219 216.848 292.944 216.869 292.68 216.869C291.804 216.869 291.397 216.472 291.397 215.637V210.415H293.412V208.176H291.397V205.662H288.425ZM302.105 215.749C301.83 216.584 300.996 217.123 299.907 217.123C298.39 217.123 297.403 216.054 297.403 214.497V214.314H304.925V213.408C304.925 210.089 302.92 207.942 299.744 207.942C296.517 207.942 294.481 210.201 294.481 213.683C294.481 217.174 296.497 219.322 299.856 219.322C302.553 219.322 304.507 217.887 304.833 215.749H302.105ZM299.774 210.14C301.097 210.14 302.003 211.097 302.064 212.492H297.433C297.535 211.128 298.471 210.14 299.774 210.14ZM310.513 219.261C312.121 219.261 313.383 218.416 313.913 217.215H313.964V219.088H316.895V204.399H313.923V210.049H313.862C313.333 208.837 312.111 208.003 310.533 208.003C307.795 208.003 306.065 210.151 306.065 213.611C306.065 217.103 307.785 219.261 310.513 219.261ZM311.521 210.385C312.997 210.385 313.943 211.647 313.943 213.632C313.943 215.627 312.997 216.869 311.521 216.869C310.024 216.869 309.108 215.637 309.108 213.632C309.108 211.637 310.024 210.385 311.521 210.385ZM323.013 219.088H325.985V212.502C325.985 211.28 326.748 210.425 327.878 210.425C328.978 210.425 329.639 211.118 329.639 212.288V219.088H332.499V212.461C332.499 211.25 333.243 210.425 334.372 210.425C335.523 210.425 336.154 211.118 336.154 212.38V219.088H339.126V211.637C339.126 209.438 337.691 207.972 335.553 207.972C333.955 207.972 332.652 208.837 332.164 210.212H332.102C331.736 208.787 330.637 207.972 329.059 207.972C327.573 207.972 326.402 208.837 325.944 210.151H325.883V208.176H323.013V219.088ZM348.236 215.749C347.961 216.584 347.127 217.123 346.037 217.123C344.521 217.123 343.533 216.054 343.533 214.497V214.314H351.056V213.408C351.056 210.089 349.05 207.942 345.875 207.942C342.648 207.942 340.612 210.201 340.612 213.683C340.612 217.174 342.628 219.322 345.987 219.322C348.684 219.322 350.638 217.887 350.964 215.749H348.236ZM345.905 210.14C347.228 210.14 348.134 211.097 348.195 212.492H343.564C343.666 211.128 344.602 210.14 345.905 210.14ZM353.387 205.662V208.176H351.85V210.415H353.387V216.146C353.387 218.273 354.384 219.128 356.949 219.128C357.55 219.128 358.059 219.077 358.364 219.006V216.818C358.181 216.848 357.906 216.869 357.641 216.869C356.766 216.869 356.359 216.472 356.359 215.637V210.415H358.374V208.176H356.359V205.662H353.387ZM360.074 219.088H363.046V212.858C363.046 211.423 363.871 210.436 365.276 210.436C366.629 210.436 367.322 211.291 367.322 212.695V219.088H370.294V212.064C370.294 209.54 368.909 207.972 366.487 207.972C364.828 207.972 363.637 208.746 363.057 210.12H362.996V204.399H360.074V219.088ZM377.205 219.322C380.503 219.322 382.61 217.215 382.61 213.622C382.61 210.079 380.473 207.942 377.205 207.942C373.938 207.942 371.8 210.089 371.8 213.622C371.8 217.205 373.907 219.322 377.205 219.322ZM377.205 217.052C375.74 217.052 374.813 215.82 374.813 213.632C374.813 211.464 375.76 210.212 377.205 210.212C378.651 210.212 379.587 211.464 379.587 213.632C379.587 215.82 378.661 217.052 377.205 217.052ZM388.199 219.261C389.807 219.261 391.069 218.416 391.598 217.215H391.649V219.088H394.581V204.399H391.608V210.049H391.547C391.018 208.837 389.797 208.003 388.219 208.003C385.481 208.003 383.75 210.151 383.75 213.611C383.75 217.103 385.471 219.261 388.199 219.261ZM389.206 210.385C390.682 210.385 391.629 211.647 391.629 213.632C391.629 215.627 390.682 216.869 389.206 216.869C387.71 216.869 386.794 215.637 386.794 213.632C386.794 211.637 387.71 210.385 389.206 210.385ZM148.803 239.088V230.061H152.009V228.919H144.328V230.061H147.534V239.088H148.803ZM153.221 239.088H154.447V234.817C154.447 233.549 155.201 232.717 156.42 232.717C157.569 232.717 158.154 233.415 158.154 234.578V239.088H159.38V234.352C159.38 232.717 158.408 231.632 156.801 231.632C155.688 231.632 154.884 232.111 154.476 232.929H154.447V228.919H153.221V239.088ZM165.8 236.988C165.596 237.678 164.912 238.15 163.982 238.15C162.664 238.15 161.84 237.227 161.84 235.825V235.754H167.097V235.289C167.097 233.07 165.878 231.632 163.897 231.632C161.875 231.632 160.578 233.175 160.578 235.451C160.578 237.756 161.854 239.214 163.954 239.214C165.553 239.214 166.794 238.27 167.005 236.988H165.8ZM163.876 232.696C165.032 232.696 165.8 233.57 165.828 234.796H161.847C161.924 233.577 162.728 232.696 163.876 232.696ZM168.337 239.088H169.563V234.521C169.563 233.485 170.183 232.802 171.135 232.802C171.43 232.802 171.691 232.837 171.79 232.872V231.681C171.691 231.667 171.508 231.632 171.297 231.632C170.437 231.632 169.76 232.146 169.521 232.957H169.493V231.759H168.337V239.088ZM177.301 236.988C177.096 237.678 176.413 238.15 175.482 238.15C174.165 238.15 173.34 237.227 173.34 235.825V235.754H178.597V235.289C178.597 233.07 177.378 231.632 175.398 231.632C173.375 231.632 172.079 233.175 172.079 235.451C172.079 237.756 173.354 239.214 175.454 239.214C177.054 239.214 178.294 238.27 178.506 236.988H177.301ZM175.377 232.696C176.532 232.696 177.301 233.57 177.329 234.796H173.347C173.425 233.577 174.228 232.696 175.377 232.696ZM192.12 231.759H190.908L189.442 237.721H189.414L187.751 231.759H186.567L184.911 237.721H184.883L183.417 231.759H182.198L184.249 239.088H185.496L187.145 233.415H187.173L188.829 239.088H190.077L192.12 231.759ZM195.129 239.214C196.116 239.214 197.046 238.665 197.483 237.826H197.511V239.088H198.674V234.021C198.674 232.562 197.589 231.632 195.869 231.632C194.136 231.632 193.051 232.604 192.966 233.873H194.15C194.305 233.154 194.897 232.71 195.841 232.71C196.856 232.71 197.448 233.246 197.448 234.141V234.754L195.348 234.874C193.657 234.972 192.691 235.761 192.691 237.016C192.691 238.334 193.671 239.214 195.129 239.214ZM195.404 238.172C194.523 238.172 193.938 237.713 193.938 237.016C193.938 236.325 194.502 235.888 195.489 235.825L197.448 235.705V236.304C197.448 237.361 196.56 238.172 195.404 238.172ZM200.105 233.781C200.105 234.838 200.774 235.48 202.155 235.811L203.318 236.093C204.157 236.297 204.445 236.6 204.445 237.129C204.445 237.791 203.832 238.214 202.839 238.214C201.845 238.214 201.281 237.812 201.133 236.974H199.907C200.048 238.348 201.119 239.214 202.839 239.214C204.474 239.214 205.679 238.312 205.679 237.037C205.679 235.987 205.143 235.409 203.663 235.05L202.5 234.768C201.683 234.571 201.31 234.225 201.31 233.718C201.31 233.077 201.902 232.633 202.796 232.633C203.698 232.633 204.262 233.105 204.354 233.873H205.524C205.474 232.576 204.403 231.632 202.796 231.632C201.211 231.632 200.105 232.527 200.105 233.781ZM212.535 239.088H213.762V228.919H212.521L209.815 230.864V232.139L212.507 230.265H212.535V239.088ZM219.272 239.088H220.498V234.775C220.498 233.535 221.252 232.717 222.408 232.717C223.536 232.717 224.092 233.366 224.092 234.549V239.088H225.319V234.331C225.319 232.668 224.388 231.632 222.782 231.632C221.647 231.632 220.865 232.139 220.456 232.929H220.428V231.759H219.272V239.088ZM231.745 236.988C231.541 237.678 230.857 238.15 229.927 238.15C228.609 238.15 227.785 237.227 227.785 235.825V235.754H233.042V235.289C233.042 233.07 231.823 231.632 229.843 231.632C227.82 231.632 226.524 233.175 226.524 235.451C226.524 237.756 227.799 239.214 229.899 239.214C231.499 239.214 232.739 238.27 232.95 236.988H231.745ZM229.822 232.696C230.977 232.696 231.745 233.57 231.774 234.796H227.792C227.87 233.577 228.673 232.696 229.822 232.696ZM243.605 231.759H242.393L240.928 237.721H240.899L239.236 231.759H238.052L236.396 237.721H236.368L234.902 231.759H233.683L235.734 239.088H236.981L238.63 233.415H238.658L240.314 239.088H241.562L243.605 231.759ZM247.446 233.781C247.446 234.838 248.115 235.48 249.497 235.811L250.659 236.093C251.498 236.297 251.787 236.6 251.787 237.129C251.787 237.791 251.174 238.214 250.18 238.214C249.187 238.214 248.623 237.812 248.475 236.974H247.249C247.39 238.348 248.461 239.214 250.18 239.214C251.815 239.214 253.02 238.312 253.02 237.037C253.02 235.987 252.484 235.409 251.005 235.05L249.842 234.768C249.024 234.571 248.651 234.225 248.651 233.718C248.651 233.077 249.243 232.633 250.138 232.633C251.04 232.633 251.604 233.105 251.695 233.873H252.865C252.816 232.576 251.745 231.632 250.138 231.632C248.552 231.632 247.446 232.527 247.446 233.781ZM259.158 236.988C258.954 237.678 258.27 238.15 257.34 238.15C256.022 238.15 255.198 237.227 255.198 235.825V235.754H260.455V235.289C260.455 233.07 259.235 231.632 257.255 231.632C255.233 231.632 253.936 233.175 253.936 235.451C253.936 237.756 255.212 239.214 257.312 239.214C258.911 239.214 260.152 238.27 260.363 236.988H259.158ZM257.234 232.696C258.39 232.696 259.158 233.57 259.186 234.796H255.205C255.282 233.577 256.085 232.696 257.234 232.696ZM263.837 239.214C264.824 239.214 265.754 238.665 266.191 237.826H266.219V239.088H267.382V234.021C267.382 232.562 266.297 231.632 264.577 231.632C262.844 231.632 261.758 232.604 261.674 233.873H262.858C263.013 233.154 263.605 232.71 264.549 232.71C265.564 232.71 266.156 233.246 266.156 234.141V234.754L264.056 234.874C262.364 234.972 261.399 235.761 261.399 237.016C261.399 238.334 262.378 239.214 263.837 239.214ZM264.112 238.172C263.231 238.172 262.646 237.713 262.646 237.016C262.646 236.325 263.21 235.888 264.197 235.825L266.156 235.705V236.304C266.156 237.361 265.268 238.172 264.112 238.172ZM268.939 239.088H270.165V234.521C270.165 233.485 270.785 232.802 271.737 232.802C272.033 232.802 272.293 232.837 272.392 232.872V231.681C272.293 231.667 272.11 231.632 271.899 231.632C271.039 231.632 270.363 232.146 270.123 232.957H270.095V231.759H268.939V239.088ZM279.129 234.162C278.974 232.844 277.882 231.632 276.049 231.632C274.027 231.632 272.681 233.112 272.681 235.423C272.681 237.784 274.034 239.214 276.064 239.214C277.727 239.214 278.953 238.186 279.143 236.727H277.938C277.727 237.608 277.071 238.136 276.071 238.136C274.802 238.136 273.928 237.129 273.928 235.423C273.928 233.76 274.788 232.71 276.057 232.71C277.135 232.71 277.755 233.366 277.931 234.162H279.129ZM280.334 239.088H281.56V234.817C281.56 233.549 282.314 232.717 283.533 232.717C284.682 232.717 285.267 233.415 285.267 234.578V239.088H286.493V234.352C286.493 232.717 285.521 231.632 283.914 231.632C282.8 231.632 281.997 232.111 281.588 232.929H281.56V228.919H280.334V239.088ZM291.01 239.088H292.236V234.521C292.236 233.485 292.856 232.802 293.808 232.802C294.104 232.802 294.365 232.837 294.463 232.872V231.681C294.365 231.667 294.181 231.632 293.97 231.632C293.11 231.632 292.434 232.146 292.194 232.957H292.166V231.759H291.01V239.088ZM299.974 236.988C299.77 237.678 299.086 238.15 298.156 238.15C296.838 238.15 296.014 237.227 296.014 235.825V235.754H301.271V235.289C301.271 233.07 300.051 231.632 298.071 231.632C296.049 231.632 294.752 233.175 294.752 235.451C294.752 237.756 296.028 239.214 298.128 239.214C299.727 239.214 300.968 238.27 301.179 236.988H299.974ZM298.05 232.696C299.206 232.696 299.974 233.57 300.002 234.796H296.021C296.098 233.577 296.901 232.696 298.05 232.696ZM302.384 233.781C302.384 234.838 303.053 235.48 304.435 235.811L305.597 236.093C306.436 236.297 306.725 236.6 306.725 237.129C306.725 237.791 306.112 238.214 305.118 238.214C304.125 238.214 303.561 237.812 303.413 236.974H302.187C302.328 238.348 303.399 239.214 305.118 239.214C306.753 239.214 307.958 238.312 307.958 237.037C307.958 235.987 307.423 235.409 305.943 235.05L304.78 234.768C303.962 234.571 303.589 234.225 303.589 233.718C303.589 233.077 304.181 232.633 305.076 232.633C305.978 232.633 306.542 233.105 306.633 233.873H307.803C307.754 232.576 306.683 231.632 305.076 231.632C303.49 231.632 302.384 232.527 302.384 233.781ZM315.252 231.759H314.025V236.065C314.025 237.312 313.307 238.129 312.116 238.129C310.981 238.129 310.424 237.488 310.424 236.297V231.759H309.198V236.516C309.198 238.179 310.136 239.214 311.735 239.214C312.863 239.214 313.624 238.742 314.061 237.897H314.089V239.088H315.252V231.759ZM316.908 239.088H318.134V228.919H316.908V239.088ZM320.185 229.99V231.759H319.092V232.767H320.185V237.185C320.185 238.594 320.706 239.144 322.052 239.144C322.341 239.144 322.679 239.123 322.827 239.088V238.059C322.743 238.073 322.461 238.094 322.32 238.094C321.693 238.094 321.411 237.791 321.411 237.122V232.767H322.834V231.759H321.411V229.99H320.185ZM327.499 239.088H328.725V232.767H330.219V231.759H328.718V230.948C328.718 230.223 329.035 229.87 329.698 229.87C329.902 229.87 330.107 229.891 330.255 229.913V228.919C330.078 228.891 329.782 228.863 329.508 228.863C328.155 228.863 327.499 229.532 327.499 230.941V231.759H326.477V232.767H327.499V239.088ZM334.173 239.214C336.195 239.214 337.562 237.756 337.562 235.423C337.562 233.084 336.195 231.632 334.173 231.632C332.143 231.632 330.776 233.084 330.776 235.423C330.776 237.756 332.143 239.214 334.173 239.214ZM334.173 238.136C332.876 238.136 332.023 237.15 332.023 235.423C332.023 233.697 332.876 232.71 334.173 232.71C335.469 232.71 336.315 233.697 336.315 235.423C336.315 237.15 335.469 238.136 334.173 238.136ZM338.803 239.088H340.029V234.521C340.029 233.485 340.649 232.802 341.6 232.802C341.896 232.802 342.157 232.837 342.256 232.872V231.681C342.157 231.667 341.974 231.632 341.762 231.632C340.903 231.632 340.226 232.146 339.986 232.957H339.958V231.759H338.803V239.088ZM346.829 241.829C348.154 241.829 348.76 241.314 349.387 239.602L352.269 231.759H350.98L348.95 237.861H348.929L346.9 231.759H345.589L348.295 239.095L348.126 239.609C347.844 240.462 347.463 240.793 346.78 240.793C346.625 240.793 346.434 240.786 346.301 240.758V241.787C346.434 241.815 346.681 241.829 346.829 241.829ZM356.061 239.214C358.083 239.214 359.45 237.756 359.45 235.423C359.45 233.084 358.083 231.632 356.061 231.632C354.031 231.632 352.664 233.084 352.664 235.423C352.664 237.756 354.031 239.214 356.061 239.214ZM356.061 238.136C354.764 238.136 353.911 237.15 353.911 235.423C353.911 233.697 354.764 232.71 356.061 232.71C357.357 232.71 358.203 233.697 358.203 235.423C358.203 237.15 357.357 238.136 356.061 238.136ZM366.708 231.759H365.482V236.065C365.482 237.312 364.764 238.129 363.573 238.129C362.438 238.129 361.881 237.488 361.881 236.297V231.759H360.655V236.516C360.655 238.179 361.592 239.214 363.192 239.214C364.32 239.214 365.081 238.742 365.518 237.897H365.546V239.088H366.708V231.759ZM368.301 239.088H369.527V234.521C369.527 233.485 370.147 232.802 371.099 232.802C371.395 232.802 371.655 232.837 371.754 232.872V231.681C371.655 231.667 371.472 231.632 371.261 231.632C370.401 231.632 369.725 232.146 369.485 232.957H369.457V231.759H368.301V239.088ZM378.477 231.632C376.595 231.632 375.355 233.119 375.355 235.423C375.355 237.721 376.595 239.214 378.449 239.214C379.485 239.214 380.337 238.7 380.795 237.861H380.824V241.533H382.05V231.759H380.88V232.999H380.852C380.38 232.153 379.541 231.632 378.477 231.632ZM378.695 238.136C377.413 238.136 376.609 237.093 376.609 235.423C376.609 233.746 377.413 232.71 378.695 232.71C379.95 232.71 380.824 233.788 380.824 235.423C380.824 237.058 379.95 238.136 378.695 238.136ZM389.667 231.759H388.441V236.065C388.441 237.312 387.722 238.129 386.532 238.129C385.397 238.129 384.84 237.488 384.84 236.297V231.759H383.614V236.516C383.614 238.179 384.551 239.214 386.151 239.214C387.279 239.214 388.04 238.742 388.477 237.897H388.505V239.088H389.667V231.759ZM396.122 236.988C395.918 237.678 395.235 238.15 394.304 238.15C392.987 238.15 392.162 237.227 392.162 235.825V235.754H397.419V235.289C397.419 233.07 396.2 231.632 394.22 231.632C392.197 231.632 390.901 233.175 390.901 235.451C390.901 237.756 392.176 239.214 394.276 239.214C395.876 239.214 397.116 238.27 397.327 236.988H396.122ZM394.199 232.696C395.354 232.696 396.122 233.57 396.151 234.796H392.169C392.247 233.577 393.05 232.696 394.199 232.696ZM398.659 239.088H399.886V234.521C399.886 233.485 400.506 232.802 401.457 232.802C401.753 232.802 402.014 232.837 402.112 232.872V231.681C402.014 231.667 401.83 231.632 401.619 231.632C400.759 231.632 400.083 232.146 399.843 232.957H399.815V231.759H398.659V239.088ZM403.726 241.829C405.051 241.829 405.657 241.314 406.284 239.602L409.166 231.759H407.877L405.847 237.861H405.826L403.797 231.759H402.486L405.192 239.095L405.023 239.609C404.741 240.462 404.36 240.793 403.677 240.793C403.522 240.793 403.331 240.786 403.198 240.758V241.787C403.331 241.815 403.578 241.829 403.726 241.829Z" fill="#DBE2F0"/>
<line x1="129.957" y1="183.664" x2="448.437" y2="183.664" stroke="#262B38" stroke-width="1.16234"/>
<path d="M144.98 166.294C145.085 168.098 146.459 169.211 148.559 169.211C150.688 169.211 152.062 168.049 152.062 166.224C152.062 164.694 151.23 163.835 149.257 163.348L148.369 163.123C147.044 162.792 146.481 162.284 146.481 161.403C146.481 160.367 147.263 159.747 148.566 159.747C149.764 159.747 150.54 160.367 150.666 161.417H151.878C151.794 159.726 150.476 158.62 148.559 158.62C146.53 158.62 145.226 159.74 145.226 161.474C145.226 162.947 146.079 163.842 147.967 164.321L148.841 164.539C150.215 164.878 150.807 165.406 150.807 166.287C150.807 167.379 149.919 168.084 148.566 168.084C147.213 168.084 146.318 167.407 146.192 166.294H144.98ZM160.511 161.354H159.313V165.857C159.313 167.161 158.467 168.042 157.206 168.042C156.015 168.042 155.451 167.393 155.451 166.012V161.354H154.253V166.315C154.253 168.147 155.155 169.141 156.818 169.141C157.981 169.141 158.855 168.605 159.264 167.654H159.362V169H160.511V161.354ZM166.783 169.127C168.552 169.127 169.707 167.851 169.707 165.885V164.462C169.707 162.503 168.552 161.227 166.783 161.227C165.676 161.227 164.866 161.699 164.528 162.538H164.401V158.352H163.182V169H164.359V167.83H164.493C164.887 168.676 165.691 169.127 166.783 169.127ZM166.43 168.035C165.176 168.035 164.373 167.133 164.373 165.716V164.617C164.373 163.207 165.176 162.305 166.43 162.305C167.699 162.305 168.502 163.207 168.502 164.617V165.716C168.502 167.126 167.699 168.035 166.43 168.035ZM176.233 159.48C176.796 159.48 177.226 159.057 177.226 158.493C177.226 157.936 176.796 157.513 176.233 157.513C175.669 157.513 175.239 157.936 175.239 158.493C175.239 159.057 175.669 159.48 176.233 159.48ZM176.923 161.354H172.251V162.348H175.747V168.817C175.747 169.909 175.317 170.247 173.893 170.247C173.428 170.247 172.441 170.226 172.075 170.191V171.262C172.582 171.304 173.4 171.318 173.928 171.318C176.057 171.318 176.923 170.649 176.923 168.958V161.354ZM186.211 167.027C186 167.696 185.288 168.105 184.323 168.105C183.019 168.105 182.187 167.203 182.187 165.801V165.491H187.395V164.744C187.395 162.531 186.225 161.213 184.238 161.213C182.293 161.213 181.004 162.538 181.004 164.553V165.702C181.004 167.88 182.223 169.141 184.323 169.141C185.929 169.141 187.141 168.288 187.374 167.027H186.211ZM184.231 162.242C185.464 162.242 186.211 163.123 186.211 164.582H182.187C182.187 163.116 182.956 162.242 184.231 162.242ZM196.253 163.736C196.056 162.164 194.9 161.206 193.209 161.206C191.13 161.206 189.918 162.482 189.918 164.673V165.674C189.918 167.865 191.13 169.141 193.209 169.141C194.9 169.141 196.063 168.19 196.253 166.632H195.069C194.921 167.506 194.174 168.063 193.188 168.063C191.856 168.063 191.116 167.161 191.116 165.519V164.828C191.116 163.186 191.856 162.277 193.188 162.277C194.174 162.277 194.921 162.841 195.069 163.736H196.253ZM200.686 159.303V161.375H198.649V162.397H200.686V166.724C200.686 168.316 201.567 169.035 203.462 169.035C203.829 169.035 204.759 169 204.949 168.965V167.95C204.745 167.971 203.977 167.992 203.547 167.992C202.469 167.992 201.884 167.541 201.884 166.71V162.397H204.97V161.375H201.87V159.303H200.686ZM210.911 163.63C211.608 163.63 212.186 163.038 212.186 162.327C212.186 161.615 211.608 161.023 210.911 161.023C210.213 161.023 209.635 161.615 209.635 162.327C209.635 163.038 210.213 163.63 210.911 163.63ZM210.911 169.042C211.608 169.042 212.186 168.457 212.186 167.739C212.186 167.027 211.608 166.442 210.911 166.442C210.213 166.442 209.635 167.027 209.635 167.739C209.635 168.457 210.213 169.042 210.911 169.042ZM228.274 169.127C229.367 169.127 230.17 168.676 230.565 167.83H230.699V169H231.875V158.352H230.656V162.538H230.529C230.198 161.699 229.381 161.227 228.274 161.227C226.506 161.227 225.35 162.503 225.35 164.462V165.885C225.35 167.851 226.506 169.127 228.274 169.127ZM228.627 168.035C227.365 168.035 226.555 167.126 226.555 165.716V164.617C226.555 163.207 227.365 162.305 228.627 162.305C229.881 162.305 230.692 163.207 230.692 164.617V165.716C230.692 167.133 229.881 168.035 228.627 168.035ZM239.74 167.027C239.528 167.696 238.817 168.105 237.851 168.105C236.548 168.105 235.716 167.203 235.716 165.801V165.491H240.924V164.744C240.924 162.531 239.754 161.213 237.767 161.213C235.822 161.213 234.532 162.538 234.532 164.553V165.702C234.532 167.88 235.751 169.141 237.851 169.141C239.458 169.141 240.67 168.288 240.903 167.027H239.74ZM237.76 162.242C238.993 162.242 239.74 163.123 239.74 164.582H235.716C235.716 163.116 236.484 162.242 237.76 162.242ZM247.076 161.227C245.983 161.227 245.187 161.678 244.785 162.524H244.659V161.354H243.475V171.579H244.694V167.816H244.828C245.159 168.655 245.969 169.127 247.076 169.127C248.844 169.127 250 167.851 250 165.892V164.469C250 162.503 248.844 161.227 247.076 161.227ZM246.73 162.327C247.992 162.327 248.795 163.229 248.795 164.638V165.737C248.795 167.147 247.992 168.056 246.73 168.056C245.469 168.056 244.666 167.154 244.666 165.737V164.638C244.666 163.229 245.469 162.327 246.73 162.327ZM255.215 165.575C255.215 163.63 256.216 162.46 257.907 162.46C258.323 162.46 258.816 162.545 259.168 162.672V161.326C258.915 161.22 258.499 161.157 258.062 161.157C256.589 161.157 255.638 161.89 255.356 163.306H255.201V161.354H252.347V162.312H254.045V168.042H252.502V169H257.583V168.042H255.215V165.575ZM266.504 167.027C266.293 167.696 265.581 168.105 264.616 168.105C263.312 168.105 262.48 167.203 262.48 165.801V165.491H267.688V164.744C267.688 162.531 266.518 161.213 264.531 161.213C262.586 161.213 261.296 162.538 261.296 164.553V165.702C261.296 167.88 262.516 169.141 264.616 169.141C266.222 169.141 267.434 168.288 267.667 167.027H266.504ZM264.524 162.242C265.757 162.242 266.504 163.123 266.504 164.582H262.48C262.48 163.116 263.248 162.242 264.524 162.242ZM276.546 163.736C276.349 162.164 275.193 161.206 273.502 161.206C271.423 161.206 270.211 162.482 270.211 164.673V165.674C270.211 167.865 271.423 169.141 273.502 169.141C275.193 169.141 276.356 168.19 276.546 166.632H275.362C275.214 167.506 274.467 168.063 273.481 168.063C272.149 168.063 271.409 167.161 271.409 165.519V164.828C271.409 163.186 272.149 162.277 273.481 162.277C274.467 162.277 275.214 162.841 275.362 163.736H276.546ZM281.507 169.134C282.621 169.134 283.452 168.676 283.819 167.858H283.938V169.007H285.08V163.771C285.08 162.179 284.051 161.262 282.254 161.262C280.69 161.262 279.506 162.101 279.365 163.327H280.542C280.739 162.672 281.359 162.298 282.24 162.298C283.304 162.298 283.889 162.827 283.889 163.785V164.476L281.789 164.582C280.048 164.673 279.076 165.477 279.076 166.83C279.076 168.218 280.048 169.134 281.507 169.134ZM281.852 168.084C280.887 168.084 280.288 167.591 280.288 166.787C280.288 165.991 280.852 165.533 281.923 165.484L283.889 165.392V166.294C283.889 167.316 283.008 168.084 281.852 168.084ZM289.9 159.303V161.375H287.863V162.397H289.9V166.724C289.9 168.316 290.781 169.035 292.677 169.035C293.043 169.035 293.973 169 294.163 168.965V167.95C293.959 167.971 293.191 167.992 292.761 167.992C291.683 167.992 291.098 167.541 291.098 166.71V162.397H294.185V161.375H291.084V159.303H289.9ZM302.19 167.027C301.978 167.696 301.267 168.105 300.301 168.105C298.998 168.105 298.166 167.203 298.166 165.801V165.491H303.374V164.744C303.374 162.531 302.204 161.213 300.217 161.213C298.272 161.213 296.982 162.538 296.982 164.553V165.702C296.982 167.88 298.201 169.141 300.301 169.141C301.908 169.141 303.12 168.288 303.353 167.027H302.19ZM300.21 162.242C301.443 162.242 302.19 163.123 302.19 164.582H298.166C298.166 163.116 298.934 162.242 300.21 162.242ZM308.567 169.127C309.66 169.127 310.463 168.676 310.858 167.83H310.992V169H312.168V158.352H310.949V162.538H310.822C310.491 161.699 309.674 161.227 308.567 161.227C306.799 161.227 305.643 162.503 305.643 164.462V165.885C305.643 167.851 306.799 169.127 308.567 169.127ZM308.92 168.035C307.658 168.035 306.848 167.126 306.848 165.716V164.617C306.848 163.207 307.658 162.305 308.92 162.305C310.174 162.305 310.984 163.207 310.984 164.617V165.716C310.984 167.133 310.174 168.035 308.92 168.035ZM330.575 163.369C330.575 161.953 330.018 161.213 328.954 161.213C328.186 161.213 327.573 161.678 327.376 162.411H327.249C327.087 161.657 326.579 161.213 325.861 161.213C325.142 161.213 324.592 161.664 324.402 162.432H324.275V161.354H323.204V169H324.282V163.842C324.282 162.89 324.705 162.305 325.381 162.305C326.03 162.305 326.368 162.792 326.368 163.715V169H327.439V163.842C327.439 162.89 327.848 162.305 328.517 162.305C329.159 162.305 329.497 162.792 329.497 163.722V169H330.575V163.369ZM337.876 167.027C337.664 167.696 336.952 168.105 335.987 168.105C334.683 168.105 333.852 167.203 333.852 165.801V165.491H339.06V164.744C339.06 162.531 337.89 161.213 335.902 161.213C333.958 161.213 332.668 162.538 332.668 164.553V165.702C332.668 167.88 333.887 169.141 335.987 169.141C337.594 169.141 338.806 168.288 339.038 167.027H337.876ZM335.895 162.242C337.129 162.242 337.876 163.123 337.876 164.582H333.852C333.852 163.116 334.62 162.242 335.895 162.242ZM343.429 159.303V161.375H341.392V162.397H343.429V166.724C343.429 168.316 344.31 169.035 346.205 169.035C346.572 169.035 347.502 169 347.692 168.965V167.95C347.488 167.971 346.72 167.992 346.29 167.992C345.212 167.992 344.627 167.541 344.627 166.71V162.397H347.713V161.375H344.613V159.303H343.429ZM350.518 169H351.716V164.504C351.716 163.2 352.569 162.319 353.83 162.319C355.028 162.319 355.592 162.975 355.592 164.349V169H356.79V164.046C356.79 162.221 355.888 161.22 354.225 161.22C353.055 161.22 352.174 161.756 351.772 162.707H351.674V158.352H350.518V169ZM362.575 169.141C364.598 169.141 365.887 167.823 365.887 165.758V164.603C365.887 162.538 364.598 161.22 362.575 161.22C360.553 161.22 359.263 162.538 359.263 164.603V165.758C359.263 167.823 360.553 169.141 362.575 169.141ZM362.575 162.277C363.886 162.277 364.703 163.207 364.703 164.708V165.646C364.703 167.154 363.886 168.077 362.575 168.077C361.264 168.077 360.447 167.154 360.447 165.646V164.708C360.447 163.207 361.264 162.277 362.575 162.277ZM371.017 169.127C372.11 169.127 372.913 168.676 373.308 167.83H373.442V169H374.618V158.352H373.399V162.538H373.272C372.941 161.699 372.124 161.227 371.017 161.227C369.249 161.227 368.093 162.503 368.093 164.462V165.885C368.093 167.851 369.249 169.127 371.017 169.127ZM371.37 168.035C370.108 168.035 369.298 167.126 369.298 165.716V164.617C369.298 163.207 370.108 162.305 371.37 162.305C372.624 162.305 373.435 163.207 373.435 164.617V165.716C373.435 167.133 372.624 168.035 371.37 168.035Z" fill="#DBE2F0"/>
<path d="M148.782 260.6L151.441 252.691H149.637L147.829 258.896H147.79L145.982 252.691H144.129L146.787 260.6H148.782ZM152.849 253.93C153.315 253.93 153.682 253.557 153.682 253.108C153.682 252.653 153.315 252.286 152.849 252.286C152.383 252.286 152.016 252.653 152.016 253.108C152.016 253.557 152.383 253.93 152.849 253.93ZM152.055 260.6H153.655V254.725H152.055V260.6ZM158.615 258.803C158.467 259.252 158.018 259.543 157.431 259.543C156.615 259.543 156.083 258.967 156.083 258.128V258.03H160.133V257.542C160.133 255.755 159.054 254.599 157.344 254.599C155.606 254.599 154.51 255.815 154.51 257.69C154.51 259.57 155.595 260.726 157.404 260.726C158.856 260.726 159.909 259.954 160.084 258.803H158.615ZM157.36 255.783C158.073 255.783 158.56 256.298 158.593 257.049H156.099C156.154 256.314 156.659 255.783 157.36 255.783ZM169.172 254.725H167.593L166.7 259.082H166.667L165.62 254.725H164.085L163.044 259.082H163.011L162.123 254.725H160.512L162.074 260.6H163.756L164.814 256.446H164.847L165.91 260.6H167.615L169.172 254.725ZM177.36 256.912C177.289 255.58 176.28 254.599 174.691 254.599C172.931 254.599 171.808 255.772 171.808 257.657C171.808 259.575 172.931 260.726 174.702 260.726C176.247 260.726 177.283 259.833 177.366 258.446H175.875C175.776 259.088 175.36 259.471 174.718 259.471C173.924 259.471 173.43 258.814 173.43 257.657C173.43 256.523 173.924 255.854 174.713 255.854C175.371 255.854 175.782 256.292 175.875 256.912H177.36ZM180.835 260.726C182.611 260.726 183.745 259.592 183.745 257.657C183.745 255.75 182.594 254.599 180.835 254.599C179.076 254.599 177.925 255.755 177.925 257.657C177.925 259.586 179.059 260.726 180.835 260.726ZM180.835 259.504C180.046 259.504 179.547 258.841 179.547 257.663C179.547 256.495 180.057 255.821 180.835 255.821C181.613 255.821 182.118 256.495 182.118 257.663C182.118 258.841 181.619 259.504 180.835 259.504ZM186.754 260.694C187.62 260.694 188.3 260.239 188.585 259.592H188.613V260.6H190.191V252.691H188.591V255.733H188.558C188.273 255.081 187.615 254.632 186.765 254.632C185.291 254.632 184.359 255.788 184.359 257.652C184.359 259.532 185.286 260.694 186.754 260.694ZM187.297 255.914C188.092 255.914 188.602 256.594 188.602 257.663C188.602 258.737 188.092 259.405 187.297 259.405C186.491 259.405 185.998 258.742 185.998 257.663C185.998 256.588 186.491 255.914 187.297 255.914ZM195.151 258.803C195.003 259.252 194.554 259.543 193.967 259.543C193.151 259.543 192.619 258.967 192.619 258.128V258.03H196.67V257.542C196.67 255.755 195.59 254.599 193.88 254.599C192.142 254.599 191.046 255.815 191.046 257.69C191.046 259.57 192.131 260.726 193.94 260.726C195.392 260.726 196.445 259.954 196.62 258.803H195.151ZM193.896 255.783C194.609 255.783 195.096 256.298 195.129 257.049H192.636C192.69 256.314 193.195 255.783 193.896 255.783ZM199.722 260.6H201.323V257.054C201.323 256.396 201.734 255.936 202.342 255.936C202.934 255.936 203.291 256.309 203.291 256.939V260.6H204.831V257.032C204.831 256.38 205.231 255.936 205.839 255.936C206.459 255.936 206.798 256.309 206.798 256.988V260.6H208.399V256.588C208.399 255.404 207.626 254.615 206.475 254.615C205.614 254.615 204.913 255.081 204.65 255.821H204.617C204.42 255.054 203.828 254.615 202.978 254.615C202.178 254.615 201.548 255.081 201.301 255.788H201.268V254.725H199.722V260.6ZM212.109 260.726C213.885 260.726 215.02 259.592 215.02 257.657C215.02 255.75 213.869 254.599 212.109 254.599C210.35 254.599 209.199 255.755 209.199 257.657C209.199 259.586 210.334 260.726 212.109 260.726ZM212.109 259.504C211.32 259.504 210.821 258.841 210.821 257.663C210.821 256.495 211.331 255.821 212.109 255.821C212.888 255.821 213.392 256.495 213.392 257.663C213.392 258.841 212.893 259.504 212.109 259.504ZM215.847 260.6H217.448V257.23C217.448 256.468 217.903 255.942 218.621 255.942C219.339 255.942 219.701 256.38 219.701 257.147V260.6H221.301V256.813C221.301 255.437 220.567 254.615 219.262 254.615C218.358 254.615 217.738 255.043 217.426 255.772H217.393V254.725H215.847V260.6ZM223.137 253.93C223.603 253.93 223.97 253.557 223.97 253.108C223.97 252.653 223.603 252.286 223.137 252.286C222.671 252.286 222.304 252.653 222.304 253.108C222.304 253.557 222.671 253.93 223.137 253.93ZM222.342 260.6H223.943V254.725H222.342V260.6ZM225.439 253.371V254.725H224.611V255.931H225.439V259.016C225.439 260.162 225.976 260.622 227.357 260.622C227.681 260.622 227.955 260.595 228.119 260.556V259.378C228.021 259.395 227.873 259.405 227.73 259.405C227.259 259.405 227.04 259.192 227.04 258.742V255.931H228.125V254.725H227.04V253.371H225.439ZM231.611 260.726C233.386 260.726 234.521 259.592 234.521 257.657C234.521 255.75 233.37 254.599 231.611 254.599C229.851 254.599 228.7 255.755 228.7 257.657C228.7 259.586 229.835 260.726 231.611 260.726ZM231.611 259.504C230.821 259.504 230.323 258.841 230.323 257.663C230.323 256.495 230.832 255.821 231.611 255.821C232.389 255.821 232.893 256.495 232.893 257.663C232.893 258.841 232.394 259.504 231.611 259.504ZM235.349 260.6H236.949V257.317C236.949 256.49 237.41 256.007 238.199 256.007C238.429 256.007 238.648 256.046 238.78 256.1V254.692C238.67 254.659 238.511 254.632 238.325 254.632C237.634 254.632 237.135 255.037 236.927 255.783H236.894V254.725H235.349V260.6ZM241.663 260.6H243.263V257.317C243.263 256.49 243.724 256.007 244.513 256.007C244.743 256.007 244.962 256.046 245.094 256.1V254.692C244.984 254.659 244.825 254.632 244.639 254.632C243.948 254.632 243.45 255.037 243.241 255.783H243.208V254.725H241.663V260.6ZM249.446 258.803C249.298 259.252 248.848 259.543 248.262 259.543C247.445 259.543 246.913 258.967 246.913 258.128V258.03H250.964V257.542C250.964 255.755 249.884 254.599 248.174 254.599C246.437 254.599 245.34 255.815 245.34 257.69C245.34 259.57 246.426 260.726 248.234 260.726C249.687 260.726 250.739 259.954 250.915 258.803H249.446ZM248.191 255.783C248.903 255.783 249.391 256.298 249.424 257.049H246.93C246.985 256.314 247.489 255.783 248.191 255.783ZM251.693 256.451C251.693 257.334 252.268 257.904 253.403 258.145L254.406 258.353C254.981 258.485 255.184 258.66 255.184 258.972C255.184 259.356 254.812 259.603 254.209 259.603C253.573 259.603 253.206 259.329 253.107 258.814H251.545C251.649 259.97 252.586 260.726 254.209 260.726C255.721 260.726 256.779 259.965 256.779 258.808C256.779 257.948 256.275 257.465 255.047 257.208L254.044 256.994C253.452 256.868 253.233 256.665 253.233 256.364C253.233 255.974 253.6 255.722 254.154 255.722C254.746 255.722 255.102 256.046 255.151 256.523H256.626C256.593 255.372 255.661 254.599 254.154 254.599C252.658 254.599 251.693 255.333 251.693 256.451ZM262.995 254.725H261.394V258.09C261.394 258.868 260.95 259.378 260.238 259.378C259.531 259.378 259.142 258.962 259.142 258.178V254.725H257.541V258.512C257.541 259.882 258.385 260.71 259.657 260.71C260.545 260.71 261.126 260.282 261.416 259.543H261.449V260.6H262.995V254.725ZM264.074 260.6H265.675V252.691H264.074V260.6ZM267.182 253.371V254.725H266.354V255.931H267.182V259.016C267.182 260.162 267.719 260.622 269.1 260.622C269.424 260.622 269.698 260.595 269.862 260.556V259.378C269.764 259.395 269.616 259.405 269.473 259.405C269.002 259.405 268.783 259.192 268.783 258.742V255.931H269.868V254.725H268.783V253.371H267.182ZM270.646 256.451C270.646 257.334 271.222 257.904 272.356 258.145L273.359 258.353C273.935 258.485 274.137 258.66 274.137 258.972C274.137 259.356 273.765 259.603 273.162 259.603C272.526 259.603 272.159 259.329 272.06 258.814H270.498C270.602 259.97 271.539 260.726 273.162 260.726C274.675 260.726 275.732 259.965 275.732 258.808C275.732 257.948 275.228 257.465 274 257.208L272.997 256.994C272.405 256.868 272.186 256.665 272.186 256.364C272.186 255.974 272.553 255.722 273.107 255.722C273.699 255.722 274.055 256.046 274.105 256.523H275.579C275.546 255.372 274.614 254.599 273.107 254.599C271.611 254.599 270.646 255.333 270.646 256.451Z" fill="#4393E7"/>
<path d="M143.976 262.656H276.001V263.697H143.976V262.656Z" fill="#4393E7"/>
<line x1="130.964" y1="105" x2="130.964" y2="282.838" stroke="#262B38" stroke-width="1.16234"/>
<path d="M111.205 131.123L103.068 126.038V133.768H119.341V126.038L111.205 131.123ZM103.068 123.597L111.205 128.683L119.341 123.597L111.205 118.512L103.068 123.597ZM121.375 123.597V133.768C121.375 134.886 120.46 135.802 119.341 135.802H103.068C101.95 135.802 101.034 134.886 101.034 133.768V123.597C101.034 122.885 101.441 122.173 102.051 121.868L111.205 116.173L120.358 121.868C120.968 122.173 121.375 122.885 121.375 123.597Z" fill="#DBE2F0"/>
<path d="M44.9414 66C44.9414 96.2586 46.7868 135.931 77.9414 144" stroke="#374572" stroke-width="6"/>
<path d="M76.8173 143.817L78.308 134L86.6347 145.308L75.3267 153.635L76.8173 143.817Z" fill="#374572"/>
<g filter="url(#filter1_d_312_3281)">
<rect x="34.9414" y="39" width="285" height="27.5922" rx="2.06941" fill="#33B54A" fill-opacity="0.4"/>
<path d="M45.0737 54.3781H47.5897V52.8745H45.0737V50.3463H43.5156V52.8745H40.9995V54.3781H43.5156V56.9062H45.0737V54.3781Z" fill="#94D82D"/>
<path d="M59.3172 49.0414C59.8022 49.0414 60.172 48.6777 60.172 48.1926C60.172 47.7137 59.8022 47.3499 59.3172 47.3499C58.8321 47.3499 58.4623 47.7137 58.4623 48.1926C58.4623 48.6777 58.8321 49.0414 59.3172 49.0414ZM62.0757 57.2322V56.3773H59.8992V50.6541H56.6435V51.509H58.8806V56.3773H56.6253V57.2322H62.0757ZM70.0482 52.3881C70.0482 51.1694 69.5693 50.5329 68.6538 50.5329C67.9929 50.5329 67.4655 50.933 67.2957 51.5635H67.1866C67.0472 50.9148 66.6106 50.5329 65.9922 50.5329C65.3738 50.5329 64.9009 50.9209 64.7373 51.5817H64.6281V50.6541H63.7066V57.2322H64.6342V52.7943C64.6342 51.9758 64.9979 51.4726 65.58 51.4726C66.1377 51.4726 66.4288 51.8909 66.4288 52.6851V57.2322H67.3503V52.7943C67.3503 51.9758 67.7019 51.4726 68.2779 51.4726C68.8296 51.4726 69.1206 51.8909 69.1206 52.6912V57.2322H70.0482V52.3881ZM74.9651 50.545C74.0254 50.545 73.3403 50.933 72.9947 51.6605H72.8856V50.6541H71.867V59.4511H72.9159V56.2136H73.0311C73.316 56.9351 74.0132 57.3413 74.9651 57.3413C76.4868 57.3413 77.4811 56.244 77.4811 54.5585V53.3338C77.4811 51.6423 76.4868 50.545 74.9651 50.545ZM74.668 51.4908C75.7532 51.4908 76.4444 52.2668 76.4444 53.4793V54.4251C76.4444 55.6377 75.7532 56.4198 74.668 56.4198C73.5828 56.4198 72.8916 55.6437 72.8916 54.4251V53.4793C72.8916 52.2668 73.5828 51.4908 74.668 51.4908ZM82.2282 57.3534C83.9683 57.3534 85.0777 56.2197 85.0777 54.4433V53.449C85.0777 51.6726 83.9683 50.5389 82.2282 50.5389C80.4882 50.5389 79.3788 51.6726 79.3788 53.449V54.4433C79.3788 56.2197 80.4882 57.3534 82.2282 57.3534ZM82.2282 51.4483C83.3559 51.4483 84.0592 52.2486 84.0592 53.54V54.3463C84.0592 55.6437 83.3559 56.438 82.2282 56.438C81.1006 56.438 80.3973 55.6437 80.3973 54.3463V53.54C80.3973 52.2486 81.1006 51.4483 82.2282 51.4483ZM89.643 54.2857C89.643 52.6124 90.5039 51.606 91.9589 51.606C92.3166 51.606 92.741 51.6787 93.0442 51.7878V50.6299C92.8259 50.5389 92.4682 50.4844 92.0923 50.4844C90.8252 50.4844 90.0067 51.1149 89.7642 52.3335H89.6309V50.6541H87.1754V51.4786H88.6366V56.4076H87.3088V57.2322H91.6801V56.4076H89.643V54.2857ZM96.4575 48.8899V50.6723H94.7054V51.5514H96.4575V55.2739C96.4575 56.6441 97.2153 57.2625 98.8462 57.2625C99.1615 57.2625 99.9618 57.2322 100.125 57.2019V56.3288C99.9496 56.347 99.2888 56.3652 98.919 56.3652C97.9914 56.3652 97.4882 55.9772 97.4882 55.2618V51.5514H100.144V50.6723H97.476V48.8899H96.4575ZM173.363 57.2322H174.394V51.5514H177.286V50.6723H174.382V49.9933C174.382 49.3324 174.867 48.9929 175.782 48.9929C176.152 48.9929 177.001 49.0172 177.286 49.0475V48.2048C177.068 48.1744 176.152 48.1441 175.77 48.1441C174.151 48.1441 173.363 48.7383 173.363 50.0115V50.6723H171.599V51.5514H173.363V57.2322ZM181.748 54.2857C181.748 52.6124 182.609 51.606 184.064 51.606C184.422 51.606 184.846 51.6787 185.149 51.7878V50.6299C184.931 50.5389 184.573 50.4844 184.197 50.4844C182.93 50.4844 182.112 51.1149 181.869 52.3335H181.736V50.6541H179.281V51.4786H180.742V56.4076H179.414V57.2322H183.785V56.4076H181.748V54.2857ZM189.684 57.3534C191.424 57.3534 192.534 56.2197 192.534 54.4433V53.449C192.534 51.6726 191.424 50.5389 189.684 50.5389C187.944 50.5389 186.835 51.6726 186.835 53.449V54.4433C186.835 56.2197 187.944 57.3534 189.684 57.3534ZM189.684 51.4483C190.812 51.4483 191.515 52.2486 191.515 53.54V54.3463C191.515 55.6437 190.812 56.438 189.684 56.438C188.557 56.438 187.853 55.6437 187.853 54.3463V53.54C187.853 52.2486 188.557 51.4483 189.684 51.4483ZM200.53 52.3881C200.53 51.1694 200.051 50.5329 199.136 50.5329C198.475 50.5329 197.948 50.933 197.778 51.5635H197.669C197.529 50.9148 197.093 50.5329 196.474 50.5329C195.856 50.5329 195.383 50.9209 195.219 51.5817H195.11V50.6541H194.189V57.2322H195.116V52.7943C195.116 51.9758 195.48 51.4726 196.062 51.4726C196.62 51.4726 196.911 51.8909 196.911 52.6851V57.2322H197.833V52.7943C197.833 51.9758 198.184 51.4726 198.76 51.4726C199.312 51.4726 199.603 51.8909 199.603 52.6912V57.2322H200.53V52.3881Z" fill="#DC92F1"/>
<path d="M115.191 57.2322H116.319L113.5 48.4836H112.36L109.541 57.2322H110.626L111.39 54.7222H114.434L115.191 57.2322ZM112.9 49.7689H112.93L114.155 53.8067H111.669L112.9 49.7689ZM123.297 50.6541H122.267V54.5282C122.267 55.6498 121.539 56.4076 120.454 56.4076C119.429 56.4076 118.944 55.8499 118.944 54.6616V50.6541H117.914V54.9223C117.914 56.4986 118.69 57.3534 120.12 57.3534C121.121 57.3534 121.872 56.8927 122.224 56.0742H122.309V57.2322H123.297V50.6541ZM127.159 48.8899V50.6723H125.407V51.5514H127.159V55.2739C127.159 56.6441 127.917 57.2625 129.548 57.2625C129.863 57.2625 130.663 57.2322 130.827 57.2019V56.3288C130.651 56.347 129.99 56.3652 129.621 56.3652C128.693 56.3652 128.19 55.9772 128.19 55.2618V51.5514H130.845V50.6723H128.178V48.8899H127.159ZM133.258 57.2322H134.289V53.3642C134.289 52.2425 135.023 51.4847 136.108 51.4847C137.138 51.4847 137.623 52.0485 137.623 53.2308V57.2322H138.654V52.9701C138.654 51.3998 137.878 50.5389 136.447 50.5389C135.441 50.5389 134.683 50.9997 134.337 51.8182H134.253V48.0714H133.258V57.2322ZM145.893 57.2322H147.021L144.202 48.4836H143.062L140.243 57.2322H141.328L142.092 54.7222H145.135L145.893 57.2322ZM143.601 49.7689H143.632L144.856 53.8067H142.371L143.601 49.7689ZM151.719 50.545C150.78 50.545 150.095 50.933 149.749 51.6605H149.64V50.6541H148.621V59.4511H149.67V56.2136H149.785C150.07 56.9351 150.767 57.3413 151.719 57.3413C153.241 57.3413 154.235 56.244 154.235 54.5585V53.3338C154.235 51.6423 153.241 50.545 151.719 50.545ZM151.422 51.4908C152.508 51.4908 153.199 52.2668 153.199 53.4793V54.4251C153.199 55.6377 152.508 56.4198 151.422 56.4198C150.337 56.4198 149.646 55.6437 149.646 54.4251V53.4793C149.646 52.2668 150.337 51.4908 151.422 51.4908ZM159.098 49.0414C159.583 49.0414 159.953 48.6777 159.953 48.1926C159.953 47.7137 159.583 47.3499 159.098 47.3499C158.613 47.3499 158.243 47.7137 158.243 48.1926C158.243 48.6777 158.613 49.0414 159.098 49.0414ZM161.856 57.2322V56.3773H159.68V50.6541H156.424V51.509H158.661V56.3773H156.406V57.2322H161.856Z" fill="#EB7AFE"/>
<path d="M212.795 48.4836L211.656 52.4305H213.02L213.771 48.4836H212.795ZM220.586 56.4016C219.167 56.4016 218.428 55.4497 218.428 53.637V52.0789C218.428 50.2661 219.167 49.3142 220.58 49.3142C221.702 49.3142 222.484 50.1085 222.52 51.2907H223.605C223.569 49.4234 222.429 48.3018 220.586 48.3018C218.531 48.3018 217.336 49.6901 217.336 52.0789V53.637C217.336 56.0257 218.531 57.4141 220.586 57.4141C222.374 57.4141 223.599 56.2682 223.599 54.5767H222.52C222.49 55.7044 221.75 56.4016 220.586 56.4016ZM230.753 50.6541H229.723V54.5282C229.723 55.6498 228.995 56.4076 227.91 56.4076C226.885 56.4076 226.4 55.8499 226.4 54.6616V50.6541H225.369V54.9223C225.369 56.4986 226.146 57.3534 227.576 57.3534C228.577 57.3534 229.328 56.8927 229.68 56.0742H229.765V57.2322H230.753V50.6541ZM233.342 52.4305C233.342 53.3642 233.93 53.9644 235.118 54.2372L236.094 54.4615C236.931 54.6495 237.252 54.9283 237.252 55.4497C237.252 56.0803 236.683 56.4865 235.785 56.4865C234.936 56.4865 234.354 56.1348 234.203 55.5285H233.154C233.269 56.6562 234.257 57.3534 235.749 57.3534C237.307 57.3534 238.32 56.5653 238.32 55.3527C238.32 54.4009 237.737 53.8431 236.458 53.5521L235.531 53.3399C234.706 53.158 234.367 52.8731 234.367 52.3699C234.367 51.7697 234.906 51.3816 235.743 51.3816C236.513 51.3816 237.065 51.7333 237.186 52.3092H238.18C238.059 51.2119 237.131 50.5268 235.761 50.5268C234.312 50.5268 233.342 51.2907 233.342 52.4305ZM242.291 48.8899V50.6723H240.538V51.5514H242.291V55.2739C242.291 56.6441 243.048 57.2625 244.679 57.2625C244.995 57.2625 245.795 57.2322 245.959 57.2019V56.3288C245.783 56.347 245.122 56.3652 244.752 56.3652C243.824 56.3652 243.321 55.9772 243.321 55.2618V51.5514H245.977V50.6723H243.309V48.8899H242.291ZM251.088 57.3534C252.828 57.3534 253.937 56.2197 253.937 54.4433V53.449C253.937 51.6726 252.828 50.5389 251.088 50.5389C249.348 50.5389 248.238 51.6726 248.238 53.449V54.4433C248.238 56.2197 249.348 57.3534 251.088 57.3534ZM251.088 51.4483C252.215 51.4483 252.919 52.2486 252.919 53.54V54.3463C252.919 55.6437 252.215 56.438 251.088 56.438C249.96 56.438 249.257 55.6437 249.257 54.3463V53.54C249.257 52.2486 249.96 51.4483 251.088 51.4483ZM261.934 52.3881C261.934 51.1694 261.455 50.5329 260.539 50.5329C259.879 50.5329 259.351 50.933 259.181 51.5635H259.072C258.933 50.9148 258.496 50.5329 257.878 50.5329C257.259 50.5329 256.787 50.9209 256.623 51.5817H256.514V50.6541H255.592V57.2322H256.52V52.7943C256.52 51.9758 256.884 51.4726 257.466 51.4726C258.023 51.4726 258.314 51.8909 258.314 52.6851V57.2322H259.236V52.7943C259.236 51.9758 259.588 51.4726 260.164 51.4726C260.715 51.4726 261.006 51.8909 261.006 52.6912V57.2322H261.934V52.3881ZM268.7 57.2322H269.828L267.008 48.4836H265.869L263.049 57.2322H264.135L264.899 54.7222H267.942L268.7 57.2322ZM266.408 49.7689H266.438L267.663 53.8067H265.177L266.408 49.7689ZM276.806 50.6541H275.775V54.5282C275.775 55.6498 275.048 56.4076 273.962 56.4076C272.938 56.4076 272.453 55.8499 272.453 54.6616V50.6541H271.422V54.9223C271.422 56.4986 272.198 57.3534 273.629 57.3534C274.629 57.3534 275.381 56.8927 275.733 56.0742H275.818V57.2322H276.806V50.6541ZM280.668 48.8899V50.6723H278.916V51.5514H280.668V55.2739C280.668 56.6441 281.426 57.2625 283.056 57.2625C283.372 57.2625 284.172 57.2322 284.336 57.2019V56.3288C284.16 56.347 283.499 56.3652 283.129 56.3652C282.202 56.3652 281.698 55.9772 281.698 55.2618V51.5514H284.354V50.6723H281.686V48.8899H280.668ZM286.767 57.2322H287.798V53.3642C287.798 52.2425 288.531 51.4847 289.616 51.4847C290.647 51.4847 291.132 52.0485 291.132 53.2308V57.2322H292.163V52.9701C292.163 51.3998 291.387 50.5389 289.956 50.5389C288.949 50.5389 288.192 50.9997 287.846 51.8182H287.761V48.0714H286.767V57.2322ZM297.055 52.4305L298.195 48.4836H296.831L296.079 52.4305H297.055Z" fill="#80E997"/>
</g>
<defs>
<filter id="filter0_d_312_3281" x="85.2134" y="103.719" width="368.138" height="187.976" filterUnits="userSpaceOnUse" color-interpolation-filters="sRGB">
<feFlood flood-opacity="0" result="BackgroundImageFix"/>
<feColorMatrix in="SourceAlpha" type="matrix" values="0 0 0 0 0 0 0 0 0 0 0 0 0 0 0 0 0 0 127 0" result="hardAlpha"/>
<feMorphology radius="4.81072" operator="erode" in="SourceAlpha" result="effect1_dropShadow_312_3281"/>
<feOffset dy="3.20714"/>
<feGaussianBlur stdDeviation="4.64935"/>
<feColorMatrix type="matrix" values="0 0 0 0 0.141522 0 0 0 0 0.159783 0 0 0 0 0.21 0 0 0 0.2 0"/>
<feBlend mode="normal" in2="BackgroundImageFix" result="effect1_dropShadow_312_3281"/>
<feBlend mode="normal" in="SourceGraphic" in2="effect1_dropShadow_312_3281" result="shape"/>
</filter>
<filter id="filter1_d_312_3281" x="30.8026" y="37.6204" width="293.278" height="35.8699" filterUnits="userSpaceOnUse" color-interpolation-filters="sRGB">
<feFlood flood-opacity="0" result="BackgroundImageFix"/>
<feColorMatrix in="SourceAlpha" type="matrix" values="0 0 0 0 0 0 0 0 0 0 0 0 0 0 0 0 0 0 127 0" result="hardAlpha"/>
<feMorphology radius="4.13883" operator="erode" in="SourceAlpha" result="effect1_dropShadow_312_3281"/>
<feOffset dy="2.75922"/>
<feGaussianBlur stdDeviation="4.13883"/>
<feColorMatrix type="matrix" values="0 0 0 0 0.141522 0 0 0 0 0.159783 0 0 0 0 0.21 0 0 0 0.92 0"/>
<feBlend mode="normal" in2="BackgroundImageFix" result="effect1_dropShadow_312_3281"/>
<feBlend mode="normal" in="SourceGraphic" in2="effect1_dropShadow_312_3281" result="shape"/>
</filter>
</defs>
</svg>
