<svg width="457" height="304" viewBox="0 0 457 304" fill="none" xmlns="http://www.w3.org/2000/svg"><path fill="#fff" d="M1 0h456v304H1z"/><g opacity=".5"><path d="M9.453 19.81a.834.834 0 0 0 .855-.85.833.833 0 0 0-.855-.842.833.833 0 0 0-.855.843c0 .485.37.848.855.848ZM12.21 28v-.855h-2.176v-5.723H6.779v.855h2.237v4.868H6.761V28h5.45Zm7.973-4.844c0-1.219-.479-1.855-1.395-1.855-.66 0-1.188.4-1.358 1.03h-.109c-.14-.648-.576-1.03-1.194-1.03s-1.091.388-1.255 1.049h-.11v-.928h-.92V28h.927v-4.438c0-.818.364-1.322.946-1.322.557 0 .848.419.848 1.213V28h.922v-4.438c0-.818.352-1.322.928-1.322.551 0 .842.419.842 1.219V28h.928v-4.844Zm4.917-1.843c-.94 0-1.625.388-1.97 1.115h-.11v-1.006h-1.018v8.797h1.049v-3.238h.115c.285.722.982 1.128 1.934 1.128 1.522 0 2.516-1.097 2.516-2.783v-1.224c0-1.692-.994-2.79-2.516-2.79Zm-.297.946c1.085 0 1.776.776 1.776 1.988v.946c0 1.212-.691 1.995-1.776 1.995s-1.777-.776-1.777-1.995v-.946c0-1.212.691-1.988 1.777-1.988Zm7.56 5.862c1.74 0 2.85-1.133 2.85-2.91v-.994c0-1.776-1.11-2.91-2.85-2.91s-2.85 1.134-2.85 2.91v.994c0 1.777 1.11 2.91 2.85 2.91Zm0-5.905c1.128 0 1.83.8 1.83 2.092v.806c0 1.298-.702 2.092-1.83 2.092-1.128 0-1.831-.794-1.831-2.092v-.806c0-1.292.703-2.092 1.831-2.092Zm7.415 2.837c0-1.673.86-2.68 2.316-2.68.357 0 .782.073 1.085.183v-1.158c-.218-.091-.576-.146-.952-.146-1.267 0-2.086.63-2.328 1.85h-.133v-1.68H37.31v.825h1.461v4.928h-1.327V28h4.37v-.825H39.78v-2.122Zm6.814-5.395v1.782H44.84v.88h1.752v3.722c0 1.37.758 1.988 2.389 1.988.315 0 1.115-.03 1.28-.06v-.873a20.01 20.01 0 0 1-1.207.036c-.928 0-1.431-.388-1.431-1.103v-3.71h2.655v-.88h-2.667v-1.782h-1.019ZM146.525 28h1.031v-5.68h2.892v-.88h-2.904v-.679c0-.66.485-1 1.4-1 .37 0 1.219.024 1.504.054v-.842c-.218-.03-1.134-.061-1.516-.061-1.619 0-2.407.594-2.407 1.867v.661h-1.764v.88h1.764V28Zm8.385-2.947c0-1.673.861-2.68 2.316-2.68.358 0 .782.073 1.085.183v-1.158c-.218-.091-.576-.146-.952-.146-1.267 0-2.085.63-2.328 1.85h-.133v-1.68h-2.455v.825h1.461v4.928h-1.328V28h4.371v-.825h-2.037v-2.122Zm7.936 3.068c1.74 0 2.85-1.133 2.85-2.91v-.994c0-1.776-1.11-2.91-2.85-2.91s-2.849 1.134-2.849 2.91v.994c0 1.777 1.109 2.91 2.849 2.91Zm0-5.905c1.128 0 1.831.8 1.831 2.092v.806c0 1.298-.703 2.092-1.831 2.092-1.127 0-1.831-.794-1.831-2.092v-.806c0-1.292.704-2.092 1.831-2.092Zm10.846.94c0-1.219-.478-1.855-1.394-1.855-.661 0-1.188.4-1.358 1.03h-.109c-.14-.648-.576-1.03-1.195-1.03-.618 0-1.091.388-1.254 1.049h-.11v-.928h-.921V28h.927v-4.438c0-.818.364-1.322.946-1.322.558 0 .849.419.849 1.213V28h.922v-4.438c0-.818.351-1.322.927-1.322.552 0 .843.419.843 1.219V28h.927v-4.844Z" fill="#A626A4"/><path d="M65.806 23.471c-.17-1.352-1.164-2.176-2.62-2.176-1.788 0-2.83 1.097-2.83 2.982v.861c0 1.886 1.042 2.983 2.83 2.983 1.456 0 2.456-.818 2.62-2.158h-1.019c-.127.752-.77 1.23-1.618 1.23-1.146 0-1.783-.775-1.783-2.188v-.594c0-1.413.637-2.195 1.783-2.195.849 0 1.491.485 1.618 1.255h1.02ZM73.615 28v-.855h-2.17V18.84h-3.262v.855h2.23v7.451h-2.248V28h5.45Zm4.135.115c.958 0 1.673-.394 1.988-1.097h.103v.988h.983v-4.505c0-1.37-.886-2.158-2.432-2.158-1.346 0-2.364.722-2.485 1.776h1.012c.17-.563.703-.885 1.461-.885.916 0 1.419.455 1.419 1.28v.594l-1.807.09c-1.497.08-2.334.77-2.334 1.935 0 1.194.837 1.982 2.092 1.982Zm.297-.903c-.83 0-1.346-.424-1.346-1.116 0-.685.485-1.079 1.406-1.121l1.692-.08v.777c0 .879-.758 1.54-1.752 1.54Zm5.65-4.014c0 .934.588 1.534 1.777 1.807l.976.224c.836.188 1.158.467 1.158.989 0 .63-.57 1.036-1.468 1.036-.848 0-1.43-.351-1.582-.958H83.51c.115 1.128 1.104 1.825 2.595 1.825 1.558 0 2.57-.788 2.57-2 0-.952-.581-1.51-1.86-1.801l-.928-.212c-.825-.182-1.164-.467-1.164-.97 0-.6.54-.989 1.376-.989.77 0 1.322.352 1.443.928h.994c-.121-1.097-1.049-1.782-2.419-1.782-1.449 0-2.419.763-2.419 1.903Zm7.676 0c0 .934.588 1.534 1.776 1.807l.976.224c.837.188 1.158.467 1.158.989 0 .63-.57 1.036-1.467 1.036-.849 0-1.43-.351-1.582-.958h-1.05c.116 1.128 1.104 1.825 2.596 1.825 1.558 0 2.57-.788 2.57-2 0-.952-.582-1.51-1.861-1.801l-.928-.212c-.824-.182-1.164-.467-1.164-.97 0-.6.54-.989 1.376-.989.77 0 1.322.352 1.443.928h.995c-.122-1.097-1.05-1.782-2.42-1.782-1.448 0-2.418.763-2.418 1.903ZM99.497 28v-6.827h.085L103.34 28h1.013v-8.748h-.964v6.808h-.085l-3.747-6.808h-1.024V28h.964Zm8.954.115c.958 0 1.674-.394 1.989-1.097h.103v.988h.982v-4.505c0-1.37-.885-2.158-2.431-2.158-1.346 0-2.364.722-2.486 1.776h1.013c.17-.563.703-.885 1.461-.885.915 0 1.419.455 1.419 1.28v.594l-1.807.09c-1.498.08-2.334.77-2.334 1.935 0 1.194.836 1.982 2.091 1.982Zm.297-.903c-.83 0-1.346-.424-1.346-1.116 0-.685.486-1.079 1.407-1.121l1.692-.08v.777c0 .879-.758 1.54-1.753 1.54Zm11.216-4.056c0-1.219-.478-1.855-1.394-1.855-.661 0-1.188.4-1.358 1.03h-.109c-.14-.648-.576-1.03-1.194-1.03-.619 0-1.092.388-1.255 1.049h-.11v-.928h-.921V28h.927v-4.438c0-.818.364-1.322.946-1.322.558 0 .849.419.849 1.213V28h.922v-4.438c0-.818.351-1.322.927-1.322.552 0 .843.419.843 1.219V28h.927v-4.844Zm6.281 3.146c-.181.576-.794.928-1.624.928-1.122 0-1.837-.776-1.837-1.983v-.266h4.48v-.643c0-1.904-1.006-3.037-2.716-3.037-1.673 0-2.783 1.14-2.783 2.873v.989c0 1.873 1.049 2.958 2.856 2.958 1.382 0 2.425-.733 2.625-1.819h-1.001Zm-1.703-4.116c1.061 0 1.703.758 1.703 2.013h-3.461c0-1.261.661-2.013 1.758-2.013Zm5.208 1.012c0 .934.588 1.534 1.776 1.807l.976.224c.837.188 1.158.467 1.158.989 0 .63-.57 1.036-1.467 1.036-.849 0-1.431-.351-1.582-.958h-1.049c.115 1.128 1.103 1.825 2.595 1.825 1.558 0 2.57-.788 2.57-2 0-.952-.582-1.51-1.861-1.801l-.928-.212c-.824-.182-1.164-.467-1.164-.97 0-.6.54-.989 1.377-.989.77 0 1.321.352 1.443.928h.994c-.121-1.097-1.049-1.782-2.419-1.782-1.449 0-2.419.763-2.419 1.903Z" fill="#EB0055"/><path d="m185.957 19.252-1.139 3.946h1.364l.751-3.947h-.976Zm10.331 4.22c-.169-1.353-1.164-2.177-2.619-2.177-1.788 0-2.831 1.097-2.831 2.982v.861c0 1.886 1.043 2.983 2.831 2.983 1.455 0 2.456-.818 2.619-2.158h-1.018c-.128.752-.77 1.23-1.619 1.23-1.146 0-1.782-.775-1.782-2.188v-.594c0-1.413.636-2.195 1.782-2.195.849 0 1.491.485 1.619 1.255h1.018ZM204.097 28v-.855h-2.17V18.84h-3.262v.855h2.231v7.451h-2.249V28h5.45Zm4.135.115c.958 0 1.673-.394 1.988-1.097h.104v.988h.982v-4.505c0-1.37-.885-2.158-2.431-2.158-1.346 0-2.365.722-2.486 1.776h1.012c.17-.563.704-.885 1.461-.885.916 0 1.419.455 1.419 1.28v.594l-1.807.09c-1.497.08-2.334.77-2.334 1.935 0 1.194.837 1.982 2.092 1.982Zm.297-.903c-.831 0-1.346-.424-1.346-1.116 0-.685.485-1.079 1.407-1.121l1.691-.08v.777c0 .879-.758 1.54-1.752 1.54Zm5.65-4.014c0 .934.589 1.534 1.777 1.807l.976.224c.837.188 1.158.467 1.158.989 0 .63-.57 1.036-1.467 1.036-.849 0-1.431-.351-1.583-.958h-1.049c.116 1.128 1.104 1.825 2.595 1.825 1.558 0 2.571-.788 2.571-2 0-.952-.582-1.51-1.861-1.801l-.928-.212c-.824-.182-1.164-.467-1.164-.97 0-.6.54-.989 1.376-.989.77 0 1.322.352 1.443.928h.994c-.121-1.097-1.048-1.782-2.419-1.782-1.449 0-2.419.763-2.419 1.903Zm7.676 0c0 .934.588 1.534 1.776 1.807l.976.224c.837.188 1.158.467 1.158.989 0 .63-.57 1.036-1.467 1.036-.849 0-1.431-.351-1.582-.958h-1.049c.115 1.128 1.103 1.825 2.595 1.825 1.558 0 2.57-.788 2.57-2 0-.952-.582-1.51-1.861-1.801l-.927-.212c-.825-.182-1.165-.467-1.165-.97 0-.6.54-.989 1.377-.989.77 0 1.321.352 1.443.928h.994c-.121-1.097-1.049-1.782-2.419-1.782-1.449 0-2.419.763-2.419 1.903ZM229.233 28h1.031v-3.874c0-1.122.727-1.88 1.813-1.88 1.024 0 1.509.558 1.509 1.747V28h1.031v-4.268c0-1.576-.776-2.431-2.207-2.431-1 0-1.752.46-2.104 1.279h-.085v-1.158h-.988V28Zm9.701.115c.958 0 1.673-.394 1.988-1.097h.103v.988h.982v-4.505c0-1.37-.885-2.158-2.431-2.158-1.346 0-2.364.722-2.485 1.776h1.012c.17-.563.703-.885 1.461-.885.916 0 1.419.455 1.419 1.28v.594l-1.807.09c-1.497.08-2.334.77-2.334 1.935 0 1.194.837 1.982 2.092 1.982Zm.297-.903c-.831 0-1.346-.424-1.346-1.116 0-.685.485-1.079 1.406-1.121l1.692-.08v.777c0 .879-.758 1.54-1.752 1.54Zm11.216-4.056c0-1.219-.479-1.855-1.395-1.855-.661 0-1.188.4-1.358 1.03h-.109c-.139-.648-.576-1.03-1.194-1.03-.619 0-1.092.388-1.255 1.049h-.109v-.928h-.922V28h.928v-4.438c0-.818.363-1.322.945-1.322.558 0 .849.419.849 1.213V28h.922v-4.438c0-.818.351-1.322.927-1.322.552 0 .843.419.843 1.219V28h.928v-4.844Zm6.281 3.146c-.182.576-.794.928-1.625.928-1.122 0-1.837-.776-1.837-1.983v-.266h4.48v-.643c0-1.904-1.006-3.037-2.716-3.037-1.673 0-2.783 1.14-2.783 2.873v.989c0 1.873 1.049 2.958 2.856 2.958 1.382 0 2.425-.733 2.625-1.819h-1Zm-1.704-4.116c1.061 0 1.704.758 1.704 2.013h-3.462c0-1.261.661-2.013 1.758-2.013Zm5.208 1.012c0 .934.588 1.534 1.776 1.807l.976.224c.837.188 1.158.467 1.158.989 0 .63-.569 1.036-1.467 1.036-.849 0-1.431-.351-1.582-.958h-1.049c.115 1.128 1.103 1.825 2.595 1.825 1.558 0 2.571-.788 2.571-2 0-.952-.583-1.51-1.862-1.801l-.927-.212c-.825-.182-1.164-.467-1.164-.97 0-.6.539-.989 1.376-.989.77 0 1.322.352 1.443.928h.994c-.121-1.097-1.049-1.782-2.419-1.782-1.449 0-2.419.763-2.419 1.903Zm9.985 0 1.14-3.947h-1.364l-.752 3.947h.976Z" fill="#188C23"/></g><g filter="url(#a)"><rect x="89.701" y="105" width="359.162" height="179" rx="2.405" fill="#fff"/><rect x="90.701" y="106" width="357.162" height="177" rx="1.405" stroke="#DCE2EA" stroke-width="2"/></g><path d="M149.056 141.648v-9.027h3.073v-1.142h-7.385v1.142h3.072v9.027h1.24Zm8.302.141c2.022 0 3.312-1.318 3.312-3.382v-1.156c0-2.065-1.29-3.383-3.312-3.383-2.023 0-3.312 1.318-3.312 3.383v1.156c0 2.064 1.289 3.382 3.312 3.382Zm0-6.864c1.31 0 2.128.931 2.128 2.432v.937c0 1.508-.818 2.431-2.128 2.431-1.311 0-2.128-.923-2.128-2.431v-.937c0-1.501.817-2.432 2.128-2.432Zm8.921 1.353c.698 0 1.276-.592 1.276-1.303 0-.712-.578-1.304-1.276-1.304-.697 0-1.275.592-1.275 1.304 0 .711.578 1.303 1.275 1.303Zm0 5.412c.698 0 1.276-.584 1.276-1.303 0-.712-.578-1.297-1.276-1.297-.697 0-1.275.585-1.275 1.297 0 .719.578 1.303 1.275 1.303Zm17.364.085c1.092 0 1.895-.451 2.29-1.297h.134v1.17h1.177V131h-1.219v4.186h-.127c-.331-.838-1.149-1.311-2.255-1.311-1.769 0-2.925 1.276-2.925 3.235v1.423c0 1.967 1.156 3.242 2.925 3.242Zm.352-1.092c-1.261 0-2.072-.909-2.072-2.319v-1.099c0-1.409.811-2.311 2.072-2.311 1.255 0 2.065.902 2.065 2.311v1.099c0 1.417-.81 2.319-2.065 2.319Zm11.113-1.008c-.211.67-.923 1.078-1.888 1.078-1.304 0-2.136-.902-2.136-2.304v-.31h5.208v-.747c0-2.213-1.17-3.531-3.157-3.531-1.945 0-3.234 1.325-3.234 3.341v1.148c0 2.178 1.219 3.439 3.319 3.439 1.606 0 2.818-.853 3.051-2.114h-1.163Zm-1.98-4.785c1.233 0 1.98.881 1.98 2.34h-4.024c0-1.466.769-2.34 2.044-2.34Zm5.384-.888 2.798 7.646h1.317l2.791-7.646h-1.276l-2.121 6.364h-.091l-2.136-6.364h-1.282Zm12.586 9.041c.69 0 1.388-.112 1.726-.274v-.832c-.296.148-.965.254-1.599.254-2.143 0-3.122-1.41-3.122-4.531v-1.093c0-3.072.909-4.46 2.882-4.46 1.846 0 2.805 1.226 2.805 3.629v1.98c0 .705-.24.965-.888.965h-1.156v-2.924c0-.529-.268-.86-.676-.86-.416 0-.684.331-.684.86v2.882c0 .522.331.853.86.853h1.797c1.014 0 1.606-.67 1.606-1.804v-2.107c0-2.784-1.317-4.327-3.657-4.327-2.459 0-3.763 1.818-3.763 5.25v1.318c0 3.432 1.332 5.221 3.869 5.221Zm7.935-1.261c1.113 0 1.945-.458 2.311-1.275h.12v1.148h1.141v-5.236c0-1.592-1.028-2.508-2.825-2.508-1.565 0-2.749.838-2.89 2.064h1.177c.198-.655.818-1.028 1.699-1.028 1.064 0 1.648.528 1.648 1.486v.691l-2.099.106c-1.741.091-2.714.895-2.714 2.248 0 1.388.973 2.304 2.432 2.304Zm.345-1.05c-.966 0-1.564-.493-1.564-1.297 0-.796.563-1.254 1.634-1.303l1.966-.092v.902c0 1.022-.88 1.79-2.036 1.79Zm12.536-4.348c-.197-1.571-1.353-2.53-3.044-2.53-2.079 0-3.291 1.276-3.291 3.467v1.001c0 2.192 1.212 3.467 3.291 3.467 1.691 0 2.854-.951 3.044-2.509h-1.183c-.148.874-.895 1.431-1.882 1.431-1.332 0-2.072-.902-2.072-2.544v-.691c0-1.642.74-2.551 2.072-2.551.987 0 1.734.564 1.882 1.459h1.183Zm9.422-.366c0-1.417-.556-2.157-1.621-2.157-.768 0-1.381.465-1.578 1.198h-.127c-.162-.754-.669-1.198-1.388-1.198-.719 0-1.269.451-1.459 1.219h-.127v-1.078h-1.071v7.646h1.078v-5.158c0-.952.423-1.536 1.1-1.536.648 0 .986.486.986 1.409v5.285h1.071v-5.158c0-.952.409-1.536 1.079-1.536.641 0 .979.486.979 1.416v5.278h1.078v-5.63Zm7.301 3.657c-.212.67-.923 1.078-1.889 1.078-1.303 0-2.135-.902-2.135-2.304v-.31h5.208v-.747c0-2.213-1.17-3.531-3.157-3.531-1.945 0-3.235 1.325-3.235 3.341v1.148c0 2.178 1.219 3.439 3.319 3.439 1.607 0 2.819-.853 3.052-2.114h-1.163Zm-1.98-4.785c1.233 0 1.98.881 1.98 2.34h-4.024c0-1.466.768-2.34 2.044-2.34Zm12.022 1.494c-.198-1.571-1.353-2.53-3.045-2.53-2.078 0-3.29 1.276-3.29 3.467v1.001c0 2.192 1.212 3.467 3.29 3.467 1.692 0 2.854-.951 3.045-2.509h-1.184c-.148.874-.895 1.431-1.882 1.431-1.332 0-2.071-.902-2.071-2.544v-.691c0-1.642.739-2.551 2.071-2.551.987 0 1.734.564 1.882 1.459h1.184Zm5.736 5.405c2.022 0 3.312-1.318 3.312-3.382v-1.156c0-2.065-1.29-3.383-3.312-3.383-2.023 0-3.312 1.318-3.312 3.383v1.156c0 2.064 1.289 3.382 3.312 3.382Zm0-6.864c1.311 0 2.128.931 2.128 2.432v.937c0 1.508-.817 2.431-2.128 2.431-1.311 0-2.128-.923-2.128-2.431v-.937c0-1.501.817-2.432 2.128-2.432Zm8.618 3.298c0-1.945 1.001-3.114 2.692-3.114.416 0 .909.084 1.262.211v-1.346c-.254-.106-.67-.169-1.107-.169-1.472 0-2.424.733-2.706 2.149h-.155v-1.952h-2.854v.959h1.699v5.729h-1.544v.958h5.081v-.958h-2.368v-2.467Zm9.704-4.348c-1.092 0-1.889.451-2.29 1.297h-.127v-1.17h-1.184v10.225h1.219v-3.763h.134c.331.839 1.142 1.311 2.248 1.311 1.769 0 2.925-1.275 2.925-3.235v-1.423c0-1.966-1.156-3.242-2.925-3.242Zm-.345 1.1c1.261 0 2.065.902 2.065 2.311v1.099c0 1.41-.804 2.319-2.065 2.319-1.262 0-2.065-.902-2.065-2.319v-1.099c0-1.409.803-2.311 2.065-2.311Zm8.787 6.715c.698 0 1.276-.584 1.276-1.303 0-.712-.578-1.297-1.276-1.297-.697 0-1.275.585-1.275 1.297 0 .719.578 1.303 1.275 1.303Zm12.107-5.306c-.197-1.571-1.353-2.53-3.044-2.53-2.079 0-3.291 1.276-3.291 3.467v1.001c0 2.192 1.212 3.467 3.291 3.467 1.691 0 2.854-.951 3.044-2.509h-1.184c-.148.874-.895 1.431-1.881 1.431-1.332 0-2.072-.902-2.072-2.544v-.691c0-1.642.74-2.551 2.072-2.551.986 0 1.733.564 1.881 1.459h1.184Zm5.736 5.405c2.023 0 3.312-1.318 3.312-3.382v-1.156c0-2.065-1.289-3.383-3.312-3.383-2.022 0-3.312 1.318-3.312 3.383v1.156c0 2.064 1.29 3.382 3.312 3.382Zm0-6.864c1.311 0 2.128.931 2.128 2.432v.937c0 1.508-.817 2.431-2.128 2.431-1.311 0-2.128-.923-2.128-2.431v-.937c0-1.501.817-2.432 2.128-2.432Zm-161.226 69.387h-3.075v9.497c0 3.237 2.393 5.435 6.159 5.435 3.756 0 6.148-2.198 6.148-5.435v-9.497h-3.074v9.191c0 1.883-1.11 3.115-3.074 3.115-1.975 0-3.084-1.232-3.084-3.115v-9.191Zm11.247 6.983c0 1.638 1.069 2.697 3.176 3.145l1.863.387c1.069.244 1.445.57 1.445 1.15 0 .712-.692 1.17-1.812 1.17-1.18 0-1.862-.509-2.046-1.465h-2.901c.194 2.147 1.934 3.552 4.947 3.552 2.81 0 4.774-1.415 4.774-3.563 0-1.598-.936-2.493-3.216-2.972l-1.863-.397c-1.099-.234-1.507-.61-1.507-1.17 0-.723.682-1.191 1.711-1.191 1.099 0 1.761.6 1.852 1.486h2.738c-.061-2.138-1.791-3.573-4.59-3.573-2.779 0-4.571 1.364-4.571 3.441Zm18.139 4.366c-.275.835-1.109 1.374-2.199 1.374-1.516 0-2.504-1.068-2.504-2.626v-.183h7.523v-.906c0-3.318-2.006-5.466-5.181-5.466-3.227 0-5.263 2.26-5.263 5.741 0 3.491 2.015 5.639 5.375 5.639 2.697 0 4.651-1.435 4.977-3.573h-2.728Zm-2.331-5.608c1.323 0 2.229.957 2.29 2.351h-4.631c.102-1.364 1.038-2.351 2.341-2.351Zm15.828 9.181c3.298 0 5.405-2.107 5.405-5.7 0-3.542-2.137-5.68-5.405-5.68-3.267 0-5.405 2.148-5.405 5.68 0 3.583 2.107 5.7 5.405 5.7Zm0-2.27c-1.465 0-2.392-1.231-2.392-3.42 0-2.168.947-3.42 2.392-3.42 1.446 0 2.382 1.252 2.382 3.42 0 2.189-.926 3.42-2.382 3.42Zm7.736 2.036h2.973v-8.672h2.096v-2.189h-2.168v-.723c0-.773.428-1.201 1.405-1.201.295 0 .59.021.804.061v-1.964a8.665 8.665 0 0 0-1.517-.133c-2.585 0-3.593.998-3.593 3.136v.824h-1.486v2.189h1.486V219Zm14.821.173c1.608 0 2.87-.845 3.4-2.046h.05V219h2.932v-14.688h-2.972v5.649h-.061c-.53-1.211-1.751-2.046-3.329-2.046-2.738 0-4.468 2.148-4.468 5.609 0 3.491 1.72 5.649 4.448 5.649Zm1.008-8.876c1.475 0 2.422 1.262 2.422 3.247 0 1.995-.947 3.237-2.422 3.237-1.497 0-2.413-1.232-2.413-3.237 0-1.995.916-3.247 2.413-3.247Zm14.586 5.364c-.275.835-1.11 1.374-2.199 1.374-1.516 0-2.504-1.068-2.504-2.626v-.183h7.522v-.906c0-3.318-2.005-5.466-5.181-5.466-3.226 0-5.262 2.26-5.262 5.741 0 3.491 2.015 5.639 5.374 5.639 2.698 0 4.652-1.435 4.978-3.573h-2.728Zm-2.331-5.608c1.323 0 2.229.957 2.29 2.351h-4.631c.102-1.364 1.038-2.351 2.341-2.351Zm13.06-2.138c-1.578 0-2.79.794-3.38 2.077h-.061v-1.904h-2.931v14.475h2.972v-5.395h.061c.58 1.231 1.802 2.005 3.389 2.005 2.728 0 4.418-2.117 4.418-5.629 0-3.522-1.7-5.629-4.468-5.629Zm-.998 8.866c-1.456 0-2.412-1.262-2.412-3.237 0-1.954.956-3.247 2.412-3.247 1.486 0 2.423 1.272 2.423 3.247 0 1.985-.937 3.237-2.423 3.237Zm7.003 2.219h2.972v-6.097c0-1.537.855-2.433 2.321-2.433.428 0 .835.071 1.079.173v-2.616a3.029 3.029 0 0 0-.845-.112c-1.282 0-2.209.753-2.595 2.138h-.061v-1.965h-2.871V219Zm14.454-3.339c-.275.835-1.109 1.374-2.198 1.374-1.517 0-2.505-1.068-2.505-2.626v-.183h7.523v-.906c0-3.318-2.006-5.466-5.181-5.466-3.227 0-5.263 2.26-5.263 5.741 0 3.491 2.016 5.639 5.375 5.639 2.697 0 4.651-1.435 4.977-3.573h-2.728Zm-2.331-5.608c1.323 0 2.229.957 2.29 2.351h-4.631c.102-1.364 1.038-2.351 2.341-2.351Zm16.602 2.097c-.132-2.474-2.005-4.296-4.957-4.296-3.268 0-5.354 2.178-5.354 5.68 0 3.563 2.086 5.7 5.374 5.7 2.871 0 4.795-1.659 4.947-4.234h-2.768c-.184 1.191-.957 1.903-2.148 1.903-1.476 0-2.392-1.221-2.392-3.369 0-2.107.916-3.349 2.382-3.349 1.221 0 1.984.814 2.158 1.965h2.758Zm4.682 7.023c1.364 0 2.718-.682 3.329-1.842h.061V219h2.87v-7.502c0-2.199-1.822-3.644-4.621-3.644-2.891 0-4.692 1.456-4.804 3.573h2.717c.143-.804.845-1.354 1.955-1.354 1.119 0 1.832.59 1.832 1.608v.723l-2.748.163c-2.718.163-4.245 1.313-4.245 3.298 0 1.964 1.578 3.308 3.654 3.308Zm.977-2.148c-1.007 0-1.679-.509-1.679-1.323 0-.774.631-1.272 1.741-1.354l2.3-.142V215c0 1.18-1.069 2.025-2.362 2.025Zm8.001-11.451v2.514h-1.537v2.24h1.537v5.73c0 2.128.998 2.983 3.563 2.983.6 0 1.109-.051 1.415-.122v-2.189a4.757 4.757 0 0 1-.723.051c-.875 0-1.283-.397-1.283-1.232v-5.221h2.016v-2.24h-2.016v-2.514h-2.972Zm13.681 10.087c-.275.835-1.11 1.374-2.199 1.374-1.517 0-2.504-1.068-2.504-2.626v-.183h7.522v-.906c0-3.318-2.005-5.466-5.181-5.466-3.227 0-5.262 2.26-5.262 5.741 0 3.491 2.015 5.639 5.374 5.639 2.697 0 4.652-1.435 4.978-3.573h-2.728Zm-2.331-5.608c1.323 0 2.229.957 2.29 2.351h-4.632c.102-1.364 1.039-2.351 2.342-2.351Zm10.738 9.12c1.609 0 2.871-.845 3.4-2.046h.051V219h2.932v-14.688h-2.973v5.649h-.061c-.529-1.211-1.751-2.046-3.328-2.046-2.738 0-4.469 2.148-4.469 5.609 0 3.491 1.72 5.649 4.448 5.649Zm1.008-8.876c1.476 0 2.423 1.262 2.423 3.247 0 1.995-.947 3.237-2.423 3.237-1.496 0-2.412-1.232-2.412-3.237 0-1.995.916-3.247 2.412-3.247ZM322.537 219h2.972v-6.586c0-1.221.764-2.076 1.894-2.076 1.099 0 1.761.692 1.761 1.862v6.8h2.86v-6.626c0-1.212.743-2.036 1.873-2.036 1.15 0 1.781.692 1.781 1.954V219h2.972v-7.451c0-2.199-1.435-3.664-3.572-3.664-1.599 0-2.901.865-3.39 2.239h-.061c-.367-1.425-1.466-2.239-3.044-2.239-1.486 0-2.656.865-3.114 2.178h-.061v-1.975h-2.871V219Zm25.224-3.339c-.275.835-1.11 1.374-2.199 1.374-1.517 0-2.504-1.068-2.504-2.626v-.183h7.522v-.906c0-3.318-2.005-5.466-5.181-5.466-3.227 0-5.263 2.26-5.263 5.741 0 3.491 2.016 5.639 5.375 5.639 2.697 0 4.652-1.435 4.977-3.573h-2.727Zm-2.331-5.608c1.323 0 2.229.957 2.29 2.351h-4.632c.102-1.364 1.039-2.351 2.342-2.351Zm7.481-4.479v2.514h-1.537v2.24h1.537v5.73c0 2.128.998 2.983 3.563 2.983.6 0 1.109-.051 1.415-.122v-2.189a4.767 4.767 0 0 1-.723.051c-.876 0-1.283-.397-1.283-1.232v-5.221h2.016v-2.24h-2.016v-2.514h-2.972ZM359.599 219h2.972v-6.23c0-1.435.824-2.422 2.229-2.422 1.354 0 2.046.855 2.046 2.26V219h2.972v-7.023c0-2.525-1.384-4.092-3.807-4.092-1.659 0-2.85.773-3.43 2.147h-.061v-5.72h-2.921V219Zm17.131.234c3.298 0 5.405-2.107 5.405-5.7 0-3.542-2.138-5.68-5.405-5.68-3.268 0-5.405 2.148-5.405 5.68 0 3.583 2.107 5.7 5.405 5.7Zm0-2.27c-1.466 0-2.392-1.231-2.392-3.42 0-2.168.946-3.42 2.392-3.42 1.445 0 2.382 1.252 2.382 3.42 0 2.189-.927 3.42-2.382 3.42Zm10.993 2.209c1.608 0 2.87-.845 3.4-2.046h.051V219h2.931v-14.688h-2.972v5.649h-.061c-.529-1.211-1.751-2.046-3.329-2.046-2.738 0-4.468 2.148-4.468 5.609 0 3.491 1.72 5.649 4.448 5.649Zm1.008-8.876c1.476 0 2.422 1.262 2.422 3.247 0 1.995-.946 3.237-2.422 3.237-1.497 0-2.413-1.232-2.413-3.237 0-1.995.916-3.247 2.413-3.247Zm-239.953 18.365c-2.882 0-4.686 2.03-4.686 5.257 0 3.228 1.804 5.25 4.686 5.25 2.882 0 4.686-2.022 4.686-5.25 0-3.227-1.804-5.257-4.686-5.257Zm0 1.17c2.079 0 3.383 1.578 3.383 4.087 0 2.502-1.304 4.08-3.383 4.08-2.079 0-3.382-1.578-3.382-4.08 0-2.509 1.303-4.087 3.382-4.087Zm6.075 9.168h1.226v-4.313c0-1.24.754-2.057 1.91-2.057 1.127 0 1.684.648 1.684 1.832V239h1.226v-4.757c0-1.663-.93-2.699-2.537-2.699-1.135 0-1.917.508-2.325 1.297h-.029v-1.17h-1.155V239Zm12.473-2.1c-.205.691-.888 1.163-1.818 1.163-1.318 0-2.143-.923-2.143-2.326v-.07h5.257v-.465c0-2.22-1.219-3.658-3.199-3.658-2.022 0-3.319 1.544-3.319 3.82 0 2.304 1.275 3.763 3.375 3.763 1.6 0 2.84-.944 3.052-2.227h-1.205Zm-1.924-4.292c1.156 0 1.924.874 1.952 2.1h-3.982c.078-1.219.881-2.1 2.03-2.1Zm7.42 6.392h1.227v-4.313c0-1.24.754-2.057 1.909-2.057 1.128 0 1.684.648 1.684 1.832V239h1.227v-4.757c0-1.663-.931-2.699-2.537-2.699-1.135 0-1.917.508-2.326 1.297h-.028v-1.17h-1.156V239Zm12.473-2.1c-.204.691-.887 1.163-1.818 1.163-1.317 0-2.142-.923-2.142-2.326v-.07h5.257v-.465c0-2.22-1.219-3.658-3.199-3.658-2.023 0-3.319 1.544-3.319 3.82 0 2.304 1.275 3.763 3.375 3.763 1.6 0 2.84-.944 3.051-2.227h-1.205Zm-1.923-4.292c1.155 0 1.923.874 1.952 2.1h-3.982c.078-1.219.881-2.1 2.03-2.1Zm13.783-.937h-1.212l-1.465 5.962h-.029l-1.663-5.962h-1.184l-1.656 5.962h-.028l-1.466-5.962h-1.219l2.051 7.329h1.247l1.649-5.673h.029l1.656 5.673h1.247l2.043-7.329Zm3.841 2.023c0 1.057.67 1.698 2.051 2.029l1.162.282c.839.204 1.128.507 1.128 1.036 0 .662-.613 1.085-1.607 1.085-.993 0-1.557-.401-1.705-1.24h-1.226c.141 1.374 1.212 2.241 2.931 2.241 1.635 0 2.84-.902 2.84-2.178 0-1.05-.535-1.628-2.015-1.987l-1.163-.282c-.817-.197-1.191-.542-1.191-1.05 0-.641.592-1.085 1.487-1.085.902 0 1.466.472 1.557 1.24h1.17c-.049-1.296-1.12-2.241-2.727-2.241-1.586 0-2.692.895-2.692 2.15Zm11.712 3.206c-.204.691-.888 1.163-1.818 1.163-1.318 0-2.142-.923-2.142-2.326v-.07h5.257v-.465c0-2.22-1.219-3.658-3.2-3.658-2.022 0-3.319 1.544-3.319 3.82 0 2.304 1.276 3.763 3.376 3.763 1.599 0 2.84-.944 3.051-2.227h-1.205Zm-1.924-4.292c1.156 0 1.924.874 1.952 2.1h-3.981c.077-1.219.881-2.1 2.029-2.1Zm6.603 6.519c.987 0 1.917-.55 2.354-1.388h.028V239h1.163v-5.067c0-1.458-1.085-2.389-2.805-2.389-1.733 0-2.819.973-2.903 2.241h1.184c.155-.719.747-1.162 1.691-1.162 1.015 0 1.607.535 1.607 1.43v.613l-2.1.12c-1.692.099-2.657.888-2.657 2.142 0 1.318.98 2.199 2.438 2.199Zm.275-1.043c-.881 0-1.466-.458-1.466-1.156 0-.69.564-1.127 1.551-1.191l1.959-.12v.599c0 1.057-.888 1.868-2.044 1.868Zm4.827.916h1.226v-4.566c0-1.036.621-1.72 1.572-1.72.296 0 .557.035.655.071v-1.191c-.098-.014-.282-.05-.493-.05-.86 0-1.536.515-1.776 1.325h-.028v-1.198h-1.156V239Zm10.19-4.926c-.155-1.318-1.247-2.53-3.079-2.53-2.023 0-3.369 1.48-3.369 3.792 0 2.36 1.353 3.791 3.383 3.791 1.663 0 2.889-1.029 3.079-2.488h-1.205c-.211.881-.867 1.41-1.867 1.41-1.269 0-2.143-1.008-2.143-2.713 0-1.663.86-2.713 2.129-2.713 1.078 0 1.698.655 1.874 1.451h1.198Zm1.205 4.926h1.226v-4.27c0-1.269.754-2.1 1.973-2.1 1.149 0 1.734.697 1.734 1.86V239h1.226v-4.736c0-1.634-.972-2.72-2.579-2.72-1.113 0-1.917.48-2.325 1.297h-.029v-4.01h-1.226V239Zm10.676 0h1.226v-4.566c0-1.036.621-1.72 1.572-1.72.296 0 .557.035.655.071v-1.191c-.098-.014-.282-.05-.493-.05-.86 0-1.536.515-1.776 1.325h-.028v-1.198h-1.156V239Zm8.964-2.1c-.204.691-.888 1.163-1.818 1.163-1.318 0-2.142-.923-2.142-2.326v-.07h5.257v-.465c0-2.22-1.219-3.658-3.2-3.658-2.022 0-3.319 1.544-3.319 3.82 0 2.304 1.276 3.763 3.376 3.763 1.599 0 2.84-.944 3.051-2.227h-1.205Zm-1.924-4.292c1.156 0 1.924.874 1.952 2.1h-3.981c.077-1.219.881-2.1 2.029-2.1Zm4.334 1.086c0 1.057.67 1.698 2.051 2.029l1.162.282c.839.204 1.128.507 1.128 1.036 0 .662-.613 1.085-1.607 1.085-.993 0-1.557-.401-1.705-1.24h-1.226c.141 1.374 1.212 2.241 2.931 2.241 1.635 0 2.84-.902 2.84-2.178 0-1.05-.535-1.628-2.015-1.987l-1.163-.282c-.817-.197-1.191-.542-1.191-1.05 0-.641.592-1.085 1.487-1.085.902 0 1.466.472 1.557 1.24h1.17c-.049-1.296-1.12-2.241-2.727-2.241-1.586 0-2.692.895-2.692 2.15Zm12.868-2.023h-1.226v4.306c0 1.247-.719 2.065-1.91 2.065-1.135 0-1.691-.642-1.691-1.833v-4.538h-1.227v4.757c0 1.663.938 2.699 2.537 2.699 1.128 0 1.889-.472 2.326-1.318h.028V239h1.163v-7.329Zm1.656 7.329h1.226v-10.169h-1.226V239Zm3.277-9.098v1.769h-1.093v1.008h1.093v4.418c0 1.41.521 1.959 1.867 1.959.289 0 .627-.021.775-.056v-1.029a4.782 4.782 0 0 1-.507.035c-.627 0-.909-.303-.909-.972v-4.355h1.423v-1.008h-1.423v-1.769h-1.226Zm7.314 9.098h1.227v-6.321h1.494v-1.008h-1.501v-.81c0-.726.317-1.078.979-1.078.204 0 .409.021.557.042v-.994a5.253 5.253 0 0 0-.747-.056c-1.353 0-2.009.669-2.009 2.079v.817h-1.021v1.008h1.021V239Zm6.674.127c2.022 0 3.389-1.459 3.389-3.791 0-2.34-1.367-3.792-3.389-3.792-2.03 0-3.397 1.452-3.397 3.792 0 2.332 1.367 3.791 3.397 3.791Zm0-1.078c-1.297 0-2.149-.987-2.149-2.713 0-1.727.852-2.713 2.149-2.713 1.296 0 2.142.986 2.142 2.713 0 1.726-.846 2.713-2.142 2.713Zm4.63.951h1.226v-4.566c0-1.036.62-1.72 1.571-1.72.296 0 .557.035.656.071v-1.191c-.099-.014-.282-.05-.494-.05-.859 0-1.536.515-1.775 1.325h-.029v-1.198h-1.155V239Zm8.026 2.741c1.325 0 1.931-.514 2.558-2.227l2.882-7.843h-1.289l-2.03 6.103h-.021l-2.029-6.103h-1.311l2.706 7.336-.169.514c-.282.853-.663 1.184-1.346 1.184-.155 0-.345-.007-.479-.035v1.029c.134.028.38.042.528.042Zm9.232-2.614c2.022 0 3.389-1.459 3.389-3.791 0-2.34-1.367-3.792-3.389-3.792-2.03 0-3.397 1.452-3.397 3.792 0 2.332 1.367 3.791 3.397 3.791Zm0-1.078c-1.297 0-2.15-.987-2.15-2.713 0-1.727.853-2.713 2.15-2.713 1.296 0 2.142.986 2.142 2.713 0 1.726-.846 2.713-2.142 2.713Zm10.648-6.378h-1.227v4.306c0 1.247-.718 2.065-1.909 2.065-1.135 0-1.692-.642-1.692-1.833v-4.538h-1.226v4.757c0 1.663.938 2.699 2.537 2.699 1.128 0 1.889-.472 2.326-1.318h.028V239h1.163v-7.329Zm1.592 7.329h1.226v-4.566c0-1.036.621-1.72 1.572-1.72.296 0 .557.035.655.071v-1.191c-.098-.014-.282-.05-.493-.05-.86 0-1.536.515-1.776 1.325h-.028v-1.198h-1.156V239Zm10.176-7.456c-1.882 0-3.122 1.487-3.122 3.792 0 2.297 1.24 3.791 3.094 3.791 1.036 0 1.888-.515 2.346-1.353h.029v3.671h1.226v-9.774h-1.17v1.24h-.028c-.472-.845-1.311-1.367-2.375-1.367Zm.218 6.505c-1.282 0-2.085-1.043-2.085-2.713 0-1.678.803-2.713 2.085-2.713 1.255 0 2.129 1.078 2.129 2.713 0 1.634-.874 2.713-2.129 2.713Zm10.973-6.378h-1.227v4.306c0 1.247-.718 2.065-1.909 2.065-1.135 0-1.692-.642-1.692-1.833v-4.538h-1.226v4.757c0 1.663.937 2.699 2.537 2.699 1.128 0 1.889-.472 2.326-1.318h.028V239h1.163v-7.329Zm6.455 5.229c-.205.691-.888 1.163-1.819 1.163-1.317 0-2.142-.923-2.142-2.326v-.07h5.257v-.465c0-2.22-1.219-3.658-3.199-3.658-2.023 0-3.319 1.544-3.319 3.82 0 2.304 1.275 3.763 3.375 3.763 1.6 0 2.84-.944 3.052-2.227h-1.205Zm-1.924-4.292c1.155 0 1.924.874 1.952 2.1h-3.982c.078-1.219.881-2.1 2.03-2.1Zm4.46 6.392h1.227v-4.566c0-1.036.62-1.72 1.571-1.72.296 0 .557.035.655.071v-1.191c-.098-.014-.281-.05-.493-.05-.86 0-1.536.515-1.776 1.325h-.028v-1.198h-1.156V239Zm5.067 2.741c1.325 0 1.931-.514 2.558-2.227l2.882-7.843h-1.289l-2.03 6.103h-.021l-2.029-6.103h-1.311l2.706 7.336-.169.514c-.282.853-.663 1.184-1.346 1.184-.155 0-.345-.007-.479-.035v1.029c.134.028.38.042.528.042Zm6.385-2.671a.794.794 0 0 0 .803-.803.794.794 0 0 0-.803-.803.794.794 0 0 0-.804.803c0 .451.353.803.804.803Z" fill="#000"/><path stroke="#E6EBF2" stroke-width="1.162" d="M129.957 183.664h318.48"/><path d="M144.48 166.294c.105 1.804 1.479 2.917 3.579 2.917 2.129 0 3.503-1.162 3.503-2.987 0-1.53-.832-2.389-2.805-2.876l-.888-.225c-1.325-.331-1.888-.839-1.888-1.72 0-1.036.782-1.656 2.085-1.656 1.198 0 1.974.62 2.1 1.67h1.212c-.084-1.691-1.402-2.797-3.319-2.797-2.029 0-3.333 1.12-3.333 2.854 0 1.473.853 2.368 2.741 2.847l.874.218c1.374.339 1.966.867 1.966 1.748 0 1.092-.888 1.797-2.241 1.797-1.353 0-2.248-.677-2.374-1.79h-1.212Zm15.531-4.94h-1.198v4.503c0 1.304-.846 2.185-2.107 2.185-1.191 0-1.755-.649-1.755-2.03v-4.658h-1.198v4.961c0 1.832.902 2.826 2.565 2.826 1.163 0 2.037-.536 2.446-1.487h.098V169h1.149v-7.646Zm6.272 7.773c1.769 0 2.924-1.276 2.924-3.242v-1.423c0-1.959-1.155-3.235-2.924-3.235-1.107 0-1.917.472-2.255 1.311h-.127v-4.186h-1.219V169h1.177v-1.17h.134c.394.846 1.198 1.297 2.29 1.297Zm-.353-1.092c-1.254 0-2.057-.902-2.057-2.319v-1.099c0-1.41.803-2.312 2.057-2.312 1.269 0 2.072.902 2.072 2.312v1.099c0 1.41-.803 2.319-2.072 2.319Zm9.803-8.555a.97.97 0 0 0 .993-.987c0-.557-.43-.98-.993-.98-.564 0-.994.423-.994.98 0 .564.43.987.994.987Zm.69 1.874h-4.672v.994h3.496v6.469c0 1.092-.43 1.43-1.854 1.43-.465 0-1.452-.021-1.818-.056v1.071c.507.042 1.325.056 1.853.056 2.129 0 2.995-.669 2.995-2.36v-7.604Zm9.288 5.673c-.211.669-.923 1.078-1.888 1.078-1.304 0-2.136-.902-2.136-2.304v-.31h5.208v-.747c0-2.213-1.17-3.531-3.157-3.531-1.945 0-3.234 1.325-3.234 3.34v1.149c0 2.178 1.219 3.439 3.319 3.439 1.606 0 2.818-.853 3.051-2.114h-1.163Zm-1.98-4.785c1.233 0 1.98.881 1.98 2.34h-4.024c0-1.466.769-2.34 2.044-2.34Zm12.022 1.494c-.197-1.572-1.353-2.53-3.044-2.53-2.079 0-3.291 1.276-3.291 3.467v1.001c0 2.191 1.212 3.467 3.291 3.467 1.691 0 2.854-.951 3.044-2.509h-1.184c-.148.874-.895 1.431-1.881 1.431-1.332 0-2.072-.902-2.072-2.544v-.691c0-1.642.74-2.551 2.072-2.551.986 0 1.733.564 1.881 1.459h1.184Zm4.433-4.433v2.072h-2.037v1.022h2.037v4.327c0 1.592.881 2.311 2.776 2.311.367 0 1.297-.035 1.487-.07v-1.015c-.204.021-.972.042-1.402.042-1.078 0-1.663-.451-1.663-1.282v-4.313h3.086v-1.022h-3.1v-2.072h-1.184Zm10.225 4.327c.697 0 1.275-.592 1.275-1.303 0-.712-.578-1.304-1.275-1.304-.698 0-1.276.592-1.276 1.304 0 .711.578 1.303 1.276 1.303Zm0 5.412c.697 0 1.275-.585 1.275-1.303 0-.712-.578-1.297-1.275-1.297-.698 0-1.276.585-1.276 1.297 0 .718.578 1.303 1.276 1.303Zm17.363.085c1.093 0 1.896-.451 2.291-1.297h.134V169h1.176v-10.648h-1.219v4.186h-.127c-.331-.839-1.148-1.311-2.255-1.311-1.768 0-2.924 1.276-2.924 3.235v1.423c0 1.966 1.156 3.242 2.924 3.242Zm.353-1.092c-1.262 0-2.072-.909-2.072-2.319v-1.099c0-1.41.81-2.312 2.072-2.312 1.254 0 2.065.902 2.065 2.312v1.099c0 1.417-.811 2.319-2.065 2.319Zm11.113-1.008c-.212.669-.923 1.078-1.889 1.078-1.303 0-2.135-.902-2.135-2.304v-.31h5.208v-.747c0-2.213-1.17-3.531-3.157-3.531-1.945 0-3.235 1.325-3.235 3.34v1.149c0 2.178 1.219 3.439 3.319 3.439 1.607 0 2.819-.853 3.052-2.114h-1.163Zm-1.98-4.785c1.233 0 1.98.881 1.98 2.34h-4.024c0-1.466.768-2.34 2.044-2.34Zm9.316-1.015c-1.093 0-1.889.451-2.291 1.297h-.126v-1.17h-1.184v10.225h1.219v-3.763h.134c.331.839 1.141 1.311 2.248 1.311 1.768 0 2.924-1.276 2.924-3.235v-1.423c0-1.966-1.156-3.242-2.924-3.242Zm-.346 1.1c1.262 0 2.065.902 2.065 2.311v1.099c0 1.41-.803 2.319-2.065 2.319-1.261 0-2.064-.902-2.064-2.319v-1.099c0-1.409.803-2.311 2.064-2.311Zm8.485 3.248c0-1.945 1.001-3.115 2.692-3.115.416 0 .909.085 1.261.212v-1.346c-.253-.106-.669-.169-1.106-.169-1.473 0-2.424.733-2.706 2.149h-.155v-1.952h-2.854v.958h1.698v5.73h-1.543V169h5.081v-.958h-2.368v-2.467Zm11.289 1.452c-.211.669-.923 1.078-1.888 1.078-1.304 0-2.136-.902-2.136-2.304v-.31h5.208v-.747c0-2.213-1.17-3.531-3.157-3.531-1.945 0-3.235 1.325-3.235 3.34v1.149c0 2.178 1.22 3.439 3.32 3.439 1.606 0 2.818-.853 3.051-2.114h-1.163Zm-1.98-4.785c1.233 0 1.98.881 1.98 2.34h-4.024c0-1.466.768-2.34 2.044-2.34Zm12.022 1.494c-.197-1.572-1.353-2.53-3.044-2.53-2.079 0-3.291 1.276-3.291 3.467v1.001c0 2.191 1.212 3.467 3.291 3.467 1.691 0 2.854-.951 3.044-2.509h-1.184c-.148.874-.895 1.431-1.881 1.431-1.332 0-2.072-.902-2.072-2.544v-.691c0-1.642.74-2.551 2.072-2.551.986 0 1.733.564 1.881 1.459h1.184Zm4.961 5.398c1.114 0 1.945-.458 2.312-1.276h.119v1.149h1.142v-5.236c0-1.592-1.029-2.509-2.826-2.509-1.564 0-2.748.839-2.889 2.065h1.177c.197-.655.817-1.029 1.698-1.029 1.064 0 1.649.529 1.649 1.487v.691l-2.1.106c-1.741.091-2.713.895-2.713 2.248 0 1.388.972 2.304 2.431 2.304Zm.345-1.05c-.965 0-1.564-.493-1.564-1.297 0-.796.564-1.254 1.635-1.303l1.966-.092v.902c0 1.022-.881 1.79-2.037 1.79Zm8.048-8.781v2.072h-2.037v1.022h2.037v4.327c0 1.592.881 2.311 2.777 2.311.366 0 1.296-.035 1.486-.07v-1.015c-.204.021-.972.042-1.402.042-1.078 0-1.663-.451-1.663-1.282v-4.313h3.087v-1.022h-3.101v-2.072H289.4Zm12.29 7.724c-.212.669-.923 1.078-1.889 1.078-1.303 0-2.135-.902-2.135-2.304v-.31h5.208v-.747c0-2.213-1.17-3.531-3.157-3.531-1.945 0-3.235 1.325-3.235 3.34v1.149c0 2.178 1.219 3.439 3.319 3.439 1.607 0 2.819-.853 3.052-2.114h-1.163Zm-1.98-4.785c1.233 0 1.98.881 1.98 2.34h-4.024c0-1.466.768-2.34 2.044-2.34Zm8.357 6.885c1.093 0 1.896-.451 2.291-1.297h.134V169h1.176v-10.648h-1.219v4.186h-.127c-.331-.839-1.148-1.311-2.255-1.311-1.768 0-2.924 1.276-2.924 3.235v1.423c0 1.966 1.156 3.242 2.924 3.242Zm.353-1.092c-1.262 0-2.072-.909-2.072-2.319v-1.099c0-1.41.81-2.312 2.072-2.312 1.254 0 2.064.902 2.064 2.312v1.099c0 1.417-.81 2.319-2.064 2.319Zm21.655-4.666c0-1.416-.557-2.156-1.621-2.156-.768 0-1.381.465-1.578 1.198h-.127c-.162-.754-.67-1.198-1.388-1.198-.719 0-1.269.451-1.459 1.219h-.127v-1.078h-1.071V169h1.078v-5.158c0-.952.423-1.537 1.099-1.537.649 0 .987.487.987 1.41V169h1.071v-5.158c0-.952.409-1.537 1.078-1.537.642 0 .98.487.98 1.417V169h1.078v-5.631Zm7.301 3.658c-.212.669-.924 1.078-1.889 1.078-1.304 0-2.135-.902-2.135-2.304v-.31h5.208v-.747c0-2.213-1.17-3.531-3.158-3.531-1.944 0-3.234 1.325-3.234 3.34v1.149c0 2.178 1.219 3.439 3.319 3.439 1.607 0 2.819-.853 3.051-2.114h-1.162Zm-1.981-4.785c1.234 0 1.981.881 1.981 2.34h-4.024c0-1.466.768-2.34 2.043-2.34Zm7.534-2.939v2.072h-2.037v1.022h2.037v4.327c0 1.592.881 2.311 2.776 2.311.367 0 1.297-.035 1.487-.07v-1.015c-.204.021-.972.042-1.402.042-1.078 0-1.663-.451-1.663-1.282v-4.313h3.086v-1.022h-3.1v-2.072h-1.184Zm7.089 9.697h1.198v-4.496c0-1.304.853-2.185 2.114-2.185 1.198 0 1.762.656 1.762 2.03V169h1.198v-4.954c0-1.825-.902-2.826-2.565-2.826-1.17 0-2.051.536-2.453 1.487h-.098v-4.355h-1.156V169Zm12.057.141c2.023 0 3.312-1.318 3.312-3.383v-1.155c0-2.065-1.289-3.383-3.312-3.383-2.022 0-3.312 1.318-3.312 3.383v1.155c0 2.065 1.29 3.383 3.312 3.383Zm0-6.864c1.311 0 2.128.93 2.128 2.431v.938c0 1.508-.817 2.431-2.128 2.431-1.311 0-2.128-.923-2.128-2.431v-.938c0-1.501.817-2.431 2.128-2.431Zm8.442 6.85c1.093 0 1.896-.451 2.291-1.297h.134V169h1.176v-10.648h-1.219v4.186h-.127c-.331-.839-1.148-1.311-2.255-1.311-1.768 0-2.924 1.276-2.924 3.235v1.423c0 1.966 1.156 3.242 2.924 3.242Zm.353-1.092c-1.262 0-2.072-.909-2.072-2.319v-1.099c0-1.41.81-2.312 2.072-2.312 1.254 0 2.065.902 2.065 2.312v1.099c0 1.417-.811 2.319-2.065 2.319Z" fill="#000"/><path d="m148.782 260.6 2.659-7.909h-1.804l-1.808 6.205h-.039l-1.808-6.205h-1.853l2.658 7.909h1.995Zm4.067-6.67a.827.827 0 0 0 .833-.822.823.823 0 0 0-.833-.822.823.823 0 0 0-.833.822c0 .449.367.822.833.822Zm-.794 6.67h1.6v-5.875h-1.6v5.875Zm6.56-1.797c-.148.449-.597.74-1.184.74-.816 0-1.348-.576-1.348-1.415v-.098h4.05v-.488c0-1.787-1.079-2.943-2.789-2.943-1.738 0-2.834 1.216-2.834 3.091 0 1.88 1.085 3.036 2.894 3.036 1.452 0 2.505-.772 2.68-1.923h-1.469Zm-1.255-3.02c.713 0 1.2.515 1.233 1.266h-2.494c.055-.735.56-1.266 1.261-1.266Zm11.812-1.058h-1.579l-.893 4.357h-.033l-1.047-4.357h-1.535l-1.041 4.357h-.033l-.888-4.357h-1.611l1.562 5.875h1.682l1.058-4.154h.033l1.063 4.154h1.705l1.557-5.875Zm8.188 2.187c-.071-1.332-1.08-2.313-2.669-2.313-1.76 0-2.883 1.173-2.883 3.058 0 1.918 1.123 3.069 2.894 3.069 1.545 0 2.581-.893 2.664-2.28h-1.491c-.099.642-.515 1.025-1.157 1.025-.794 0-1.288-.657-1.288-1.814 0-1.134.494-1.803 1.283-1.803.658 0 1.069.438 1.162 1.058h1.485Zm3.475 3.814c1.776 0 2.91-1.134 2.91-3.069 0-1.907-1.151-3.058-2.91-3.058-1.759 0-2.91 1.156-2.91 3.058 0 1.929 1.134 3.069 2.91 3.069Zm0-1.222c-.789 0-1.288-.663-1.288-1.841 0-1.168.51-1.842 1.288-1.842s1.283.674 1.283 1.842c0 1.178-.499 1.841-1.283 1.841Zm5.919 1.19c.866 0 1.546-.455 1.831-1.102h.028v1.008h1.578v-7.909h-1.6v3.042h-.033c-.285-.652-.943-1.101-1.793-1.101-1.474 0-2.406 1.156-2.406 3.02 0 1.88.927 3.042 2.395 3.042Zm.543-4.78c.795 0 1.305.68 1.305 1.749 0 1.074-.51 1.742-1.305 1.742-.806 0-1.299-.663-1.299-1.742 0-1.075.493-1.749 1.299-1.749Zm7.854 2.889c-.148.449-.597.74-1.184.74-.816 0-1.348-.576-1.348-1.415v-.098h4.051v-.488c0-1.787-1.08-2.943-2.79-2.943-1.738 0-2.834 1.216-2.834 3.091 0 1.88 1.085 3.036 2.894 3.036 1.452 0 2.505-.772 2.68-1.923h-1.469Zm-1.255-3.02c.713 0 1.2.515 1.233 1.266h-2.493c.054-.735.559-1.266 1.26-1.266Zm5.826 4.817h1.601v-3.546c0-.658.411-1.118 1.019-1.118.592 0 .949.373.949 1.003v3.661h1.54v-3.568c0-.652.4-1.096 1.008-1.096.62 0 .959.373.959 1.052v3.612h1.601v-4.012c0-1.184-.773-1.973-1.924-1.973-.861 0-1.562.466-1.825 1.206h-.033c-.197-.767-.789-1.206-1.639-1.206-.8 0-1.43.466-1.677 1.173h-.033v-1.063h-1.546v5.875Zm12.387.126c1.776 0 2.911-1.134 2.911-3.069 0-1.907-1.151-3.058-2.911-3.058-1.759 0-2.91 1.156-2.91 3.058 0 1.929 1.135 3.069 2.91 3.069Zm0-1.222c-.789 0-1.288-.663-1.288-1.841 0-1.168.51-1.842 1.288-1.842.779 0 1.283.674 1.283 1.842 0 1.178-.499 1.841-1.283 1.841Zm3.738 1.096h1.601v-3.37c0-.762.455-1.288 1.173-1.288s1.08.438 1.08 1.205v3.453h1.6v-3.787c0-1.376-.734-2.198-2.039-2.198-.904 0-1.524.428-1.836 1.157h-.033v-1.047h-1.546v5.875Zm7.29-6.67a.827.827 0 0 0 .833-.822.823.823 0 0 0-.833-.822.823.823 0 0 0-.833.822c0 .449.367.822.833.822Zm-.795 6.67h1.601v-5.875h-1.601v5.875Zm3.097-7.229v1.354h-.828v1.206h.828v3.085c0 1.146.537 1.606 1.918 1.606.324 0 .598-.027.762-.066v-1.178a2.51 2.51 0 0 1-.389.027c-.471 0-.69-.213-.69-.663v-2.811h1.085v-1.206h-1.085v-1.354h-1.601Zm6.172 7.355c1.775 0 2.91-1.134 2.91-3.069 0-1.907-1.151-3.058-2.91-3.058-1.76 0-2.911 1.156-2.911 3.058 0 1.929 1.135 3.069 2.911 3.069Zm0-1.222c-.79 0-1.288-.663-1.288-1.841 0-1.168.509-1.842 1.288-1.842.778 0 1.282.674 1.282 1.842 0 1.178-.499 1.841-1.282 1.841Zm3.738 1.096h1.6v-3.283c0-.827.461-1.31 1.25-1.31.23 0 .449.039.581.093v-1.408a1.632 1.632 0 0 0-.455-.06c-.691 0-1.19.405-1.398 1.151h-.033v-1.058h-1.545v5.875Zm6.314 0h1.6v-3.283c0-.827.461-1.31 1.25-1.31.23 0 .449.039.581.093v-1.408a1.632 1.632 0 0 0-.455-.06c-.691 0-1.189.405-1.398 1.151h-.033v-1.058h-1.545v5.875Zm7.783-1.797c-.148.449-.598.74-1.184.74-.817 0-1.349-.576-1.349-1.415v-.098h4.051v-.488c0-1.787-1.08-2.943-2.79-2.943-1.737 0-2.834 1.216-2.834 3.091 0 1.88 1.086 3.036 2.894 3.036 1.453 0 2.505-.772 2.681-1.923h-1.469Zm-1.255-3.02c.712 0 1.2.515 1.233 1.266h-2.494c.055-.735.559-1.266 1.261-1.266Zm3.502.668c0 .883.575 1.453 1.71 1.694l1.003.208c.575.132.778.307.778.619 0 .384-.372.631-.975.631-.636 0-1.003-.274-1.102-.789h-1.562c.104 1.156 1.041 1.912 2.664 1.912 1.512 0 2.57-.761 2.57-1.918 0-.86-.504-1.343-1.732-1.6l-1.003-.214c-.592-.126-.811-.329-.811-.63 0-.39.367-.642.921-.642.592 0 .948.324.997.801h1.475c-.033-1.151-.965-1.924-2.472-1.924-1.496 0-2.461.734-2.461 1.852Zm11.302-1.726h-1.601v3.365c0 .778-.444 1.288-1.156 1.288-.707 0-1.096-.416-1.096-1.2v-3.453h-1.601v3.787c0 1.37.844 2.198 2.116 2.198.888 0 1.469-.428 1.759-1.167h.033v1.057h1.546v-5.875Zm1.079 5.875h1.601v-7.909h-1.601v7.909Zm3.108-7.229v1.354h-.828v1.206h.828v3.085c0 1.146.537 1.606 1.918 1.606.324 0 .598-.027.762-.066v-1.178a2.51 2.51 0 0 1-.389.027c-.471 0-.69-.213-.69-.663v-2.811h1.085v-1.206h-1.085v-1.354h-1.601Zm3.464 3.08c0 .883.576 1.453 1.71 1.694l1.003.208c.576.132.778.307.778.619 0 .384-.372.631-.975.631-.636 0-1.003-.274-1.102-.789h-1.562c.104 1.156 1.041 1.912 2.664 1.912 1.513 0 2.57-.761 2.57-1.918 0-.86-.504-1.343-1.732-1.6l-1.003-.214c-.592-.126-.811-.329-.811-.63 0-.39.367-.642.921-.642.592 0 .948.324.998.801h1.474c-.033-1.151-.965-1.924-2.472-1.924-1.496 0-2.461.734-2.461 1.852Zm-126.67 6.205h132.025v1.041H143.976v-1.041Z" fill="#0B70DB"/><path stroke="#E6EBF2" stroke-width="1.162" d="M130.964 105v177.838"/><path d="m111.205 131.123-8.137-5.085v7.73h16.273v-7.73l-8.136 5.085Zm-8.137-7.526 8.137 5.086 8.136-5.086-8.136-5.085-8.137 5.085Zm18.307 0v10.171a2.04 2.04 0 0 1-2.034 2.034h-16.273a2.04 2.04 0 0 1-2.034-2.034v-10.171c0-.712.407-1.424 1.017-1.729l9.154-5.695 9.153 5.695c.61.305 1.017 1.017 1.017 1.729Z" fill="#000"/><path d="M44.941 66c0 38 4.059 70 33.059 78" stroke="#CCD1E2" stroke-width="6"/><path d="M76.817 143.817 78.308 134l8.327 11.308-11.308 8.327 1.49-9.818Z" fill="#CCD1E2"/><g filter="url(#b)"><rect x="4.5" y="39" width="423" height="27.592" rx="2.069" fill="#E1FFDD"/><path d="M14.632 54.378h2.516v-1.504h-2.516v-2.528h-1.558v2.529h-2.516v1.503h2.516v2.528h1.558v-2.528Z" fill="#6EAE50"/><path d="M29.012 48.81a.834.834 0 0 0 .854-.85.832.832 0 0 0-.854-.842.832.832 0 0 0-.855.843c0 .485.37.848.855.848ZM31.77 57v-.855h-2.177v-5.723h-3.255v.855h2.237v4.868H26.32V57h5.45Zm7.973-4.844c0-1.219-.48-1.855-1.395-1.855-.66 0-1.188.4-1.358 1.03h-.11c-.139-.648-.575-1.03-1.193-1.03-.619 0-1.092.388-1.255 1.048h-.11v-.927h-.921V57h.927v-4.438c0-.818.364-1.322.946-1.322.558 0 .85.419.85 1.213V57h.92v-4.438c0-.818.352-1.322.928-1.322.552 0 .843.419.843 1.219V57h.928v-4.844Zm4.916-1.843c-.94 0-1.624.388-1.97 1.115h-.11v-1.006h-1.018v8.797h1.05v-3.238h.114c.285.722.983 1.128 1.934 1.128 1.522 0 2.517-1.097 2.517-2.783v-1.224c0-1.692-.995-2.79-2.517-2.79Zm-.297.946c1.086 0 1.777.776 1.777 1.988v.946c0 1.213-.691 1.995-1.777 1.995-1.085 0-1.776-.776-1.776-1.995v-.946c0-1.212.691-1.988 1.776-1.988Zm7.56 5.862c1.74 0 2.85-1.134 2.85-2.91v-.994c0-1.776-1.11-2.91-2.85-2.91s-2.849 1.133-2.849 2.91v.994c0 1.776 1.11 2.91 2.85 2.91Zm0-5.905c1.128 0 1.832.8 1.832 2.092v.806c0 1.298-.704 2.092-1.831 2.092-1.128 0-1.831-.794-1.831-2.092v-.806c0-1.292.703-2.092 1.83-2.092Zm7.415 2.837c0-1.673.861-2.68 2.316-2.68.358 0 .782.074 1.086.183v-1.158c-.219-.091-.576-.146-.952-.146-1.267 0-2.086.63-2.328 1.85h-.134v-1.68H56.87v.825h1.46v4.928h-1.327V57h4.371v-.825h-2.037v-2.121Zm6.815-5.395v1.782H64.4v.88h1.752v3.722c0 1.37.758 1.988 2.388 1.988.316 0 1.116-.03 1.28-.06v-.873a20.01 20.01 0 0 1-1.207.036c-.927 0-1.43-.388-1.43-1.103v-3.71h2.655v-.88H67.17v-1.782h-1.018ZM143.058 57h1.03v-5.68h2.892v-.88h-2.904v-.679c0-.66.485-1 1.401-1 .37 0 1.218.024 1.503.054v-.842c-.218-.03-1.133-.061-1.515-.061-1.619 0-2.407.594-2.407 1.867v.661h-1.765v.88h1.765V57Zm8.384-2.947c0-1.673.861-2.68 2.316-2.68.358 0 .782.074 1.086.183v-1.158c-.219-.091-.576-.146-.952-.146-1.267 0-2.086.63-2.328 1.85h-.134v-1.68h-2.455v.825h1.461v4.928h-1.328V57h4.372v-.825h-2.038v-2.121Zm7.937 3.068c1.74 0 2.849-1.134 2.849-2.91v-.994c0-1.776-1.109-2.91-2.849-2.91-1.74 0-2.85 1.133-2.85 2.91v.994c0 1.776 1.11 2.91 2.85 2.91Zm0-5.905c1.127 0 1.83.8 1.83 2.092v.806c0 1.298-.703 2.092-1.83 2.092-1.128 0-1.831-.794-1.831-2.092v-.806c0-1.292.703-2.092 1.831-2.092Zm10.846.94c0-1.219-.479-1.855-1.395-1.855-.66 0-1.188.4-1.358 1.03h-.109c-.139-.648-.576-1.03-1.194-1.03-.619 0-1.091.388-1.255 1.048h-.109v-.927h-.922V57h.928v-4.438c0-.818.364-1.322.946-1.322.557 0 .848.419.848 1.213V57h.922v-4.438c0-.818.352-1.322.927-1.322.552 0 .843.419.843 1.219V57h.928v-4.844Z" fill="#A626A4"/><path d="M84.886 57h1.127l-2.819-8.748h-1.14L79.235 57h1.085l.764-2.51h3.044l.758 2.51Zm-2.292-7.463h.03l1.225 4.038h-2.486l1.231-4.038Zm10.398.885H91.96v3.874c0 1.122-.728 1.88-1.813 1.88-1.024 0-1.51-.558-1.51-1.747v-4.007h-1.03v4.268c0 1.576.776 2.431 2.207 2.431 1 0 1.752-.46 2.103-1.279h.085V57h.989v-6.578Zm3.861-1.764v1.782h-1.752v.88h1.752v3.722c0 1.37.758 1.988 2.39 1.988.315 0 1.115-.03 1.278-.06v-.873c-.175.018-.836.036-1.206.036-.928 0-1.43-.388-1.43-1.103v-3.71h2.655v-.88h-2.668v-1.782h-1.019Zm6.1 8.342h1.03v-3.868c0-1.122.734-1.88 1.819-1.88 1.031 0 1.516.564 1.516 1.747V57h1.03v-4.262c0-1.57-.776-2.431-2.206-2.431-1.007 0-1.765.46-2.11 1.279h-.085v-3.747h-.994V57Zm12.634 0h1.128l-2.819-8.748h-1.14L109.937 57h1.085l.764-2.51h3.044l.757 2.51Zm-2.291-7.463h.03l1.225 4.038h-2.486l1.231-4.038Zm8.118.776c-.94 0-1.625.388-1.971 1.115h-.109v-1.006h-1.018v8.797h1.048v-3.238h.116c.285.722.982 1.128 1.934 1.128 1.521 0 2.516-1.097 2.516-2.783v-1.224c0-1.692-.995-2.79-2.516-2.79Zm-.297.946c1.085 0 1.776.776 1.776 1.988v.946c0 1.213-.691 1.995-1.776 1.995-1.086 0-1.777-.776-1.777-1.995v-.946c0-1.212.691-1.988 1.777-1.988Zm7.675-2.45a.834.834 0 0 0 .855-.848.833.833 0 0 0-.855-.843.833.833 0 0 0-.855.843c0 .485.37.848.855.848ZM131.551 57v-.855h-2.177v-5.723h-3.256v.855h2.238v4.868H126.1V57h5.451Z" fill="#ED36D0"/><path d="m182.49 48.252-1.14 3.946h1.364l.752-3.947h-.976Zm7.79 7.917c-1.418 0-2.158-.951-2.158-2.764v-1.558c0-1.813.74-2.765 2.152-2.765 1.122 0 1.904.794 1.94 1.977h1.086c-.037-1.868-1.177-2.99-3.02-2.99-2.055 0-3.249 1.389-3.249 3.778v1.558c0 2.389 1.194 3.777 3.249 3.777 1.789 0 3.014-1.146 3.014-2.838h-1.08c-.03 1.128-.77 1.825-1.934 1.825Zm10.168-5.747h-1.031v3.874c0 1.122-.728 1.88-1.813 1.88-1.024 0-1.51-.558-1.51-1.747v-4.007h-1.03v4.268c0 1.576.776 2.431 2.207 2.431 1 0 1.752-.46 2.103-1.279h.085V57h.989v-6.578Zm2.588 1.776c0 .934.588 1.534 1.777 1.807l.976.224c.836.188 1.158.467 1.158.989 0 .63-.57 1.036-1.467 1.036-.849 0-1.431-.351-1.583-.958h-1.049c.116 1.128 1.104 1.825 2.595 1.825 1.558 0 2.571-.788 2.571-2 0-.952-.582-1.51-1.861-1.801l-.928-.212c-.825-.182-1.164-.467-1.164-.97 0-.6.54-.988 1.376-.988.77 0 1.322.351 1.443.927h.994c-.121-1.097-1.048-1.782-2.419-1.782-1.449 0-2.419.764-2.419 1.903Zm8.949-3.54v1.782h-1.752v.88h1.752v3.722c0 1.37.758 1.988 2.389 1.988.315 0 1.115-.03 1.279-.06v-.873c-.176.018-.837.036-1.207.036-.927 0-1.43-.388-1.43-1.103v-3.71h2.655v-.88h-2.668v-1.782h-1.018Zm8.797 8.463c1.74 0 2.849-1.134 2.849-2.91v-.994c0-1.776-1.109-2.91-2.849-2.91-1.74 0-2.85 1.133-2.85 2.91v.994c0 1.776 1.11 2.91 2.85 2.91Zm0-5.905c1.128 0 1.831.8 1.831 2.092v.806c0 1.298-.703 2.092-1.831 2.092-1.128 0-1.831-.794-1.831-2.092v-.806c0-1.292.703-2.092 1.831-2.092Zm10.846.94c0-1.219-.479-1.855-1.394-1.855-.661 0-1.189.4-1.358 1.03h-.109c-.14-.648-.576-1.03-1.195-1.03-.618 0-1.091.388-1.255 1.048h-.109v-.927h-.921V57h.927v-4.438c0-.818.364-1.322.946-1.322.558 0 .849.419.849 1.213V57h.921v-4.438c0-.818.352-1.322.928-1.322.552 0 .843.419.843 1.219V57h.927v-4.844ZM238.394 57h1.128l-2.819-8.748h-1.14L232.744 57h1.085l.764-2.51h3.043l.758 2.51Zm-2.292-7.463h.031l1.224 4.038h-2.485l1.23-4.038Zm10.398.885h-1.031v3.874c0 1.122-.727 1.88-1.812 1.88-1.025 0-1.51-.558-1.51-1.747v-4.007h-1.031v4.268c0 1.576.776 2.431 2.207 2.431 1.001 0 1.752-.46 2.104-1.279h.085V57h.988v-6.578Zm3.862-1.764v1.782h-1.752v.88h1.752v3.722c0 1.37.758 1.988 2.389 1.988.315 0 1.115-.03 1.279-.06v-.873a20.02 20.02 0 0 1-1.206.036c-.928 0-1.431-.388-1.431-1.103v-3.71h2.655v-.88h-2.667v-1.782h-1.019ZM256.461 57h1.031v-3.868c0-1.122.733-1.88 1.819-1.88 1.03 0 1.515.564 1.515 1.747V57h1.031v-4.262c0-1.57-.776-2.431-2.207-2.431-1.006 0-1.764.46-2.11 1.279h-.085v-3.747h-.994V57Zm10.289-4.802 1.139-3.947h-1.364l-.751 3.947h.976Z" fill="#499E52"/></g><defs><filter id="a" x="85.213" y="103.719" width="368.138" height="187.976" filterUnits="userSpaceOnUse" color-interpolation-filters="sRGB"><feFlood flood-opacity="0" result="BackgroundImageFix"/><feColorMatrix in="SourceAlpha" values="0 0 0 0 0 0 0 0 0 0 0 0 0 0 0 0 0 0 127 0" result="hardAlpha"/><feMorphology radius="4.811" in="SourceAlpha" result="effect1_dropShadow_312_3201"/><feOffset dy="3.207"/><feGaussianBlur stdDeviation="4.649"/><feColorMatrix values="0 0 0 0 0.141522 0 0 0 0 0.159783 0 0 0 0 0.21 0 0 0 0.2 0"/><feBlend in2="BackgroundImageFix" result="effect1_dropShadow_312_3201"/><feBlend in="SourceGraphic" in2="effect1_dropShadow_312_3201" result="shape"/></filter><filter id="b" x=".361" y="37.62" width="431.278" height="35.87" filterUnits="userSpaceOnUse" color-interpolation-filters="sRGB"><feFlood flood-opacity="0" result="BackgroundImageFix"/><feColorMatrix in="SourceAlpha" values="0 0 0 0 0 0 0 0 0 0 0 0 0 0 0 0 0 0 127 0" result="hardAlpha"/><feMorphology radius="4.139" in="SourceAlpha" result="effect1_dropShadow_312_3201"/><feOffset dy="2.759"/><feGaussianBlur stdDeviation="4.139"/><feColorMatrix values="0 0 0 0 0.141522 0 0 0 0 0.159783 0 0 0 0 0.21 0 0 0 0.2 0"/><feBlend in2="BackgroundImageFix" result="effect1_dropShadow_312_3201"/><feBlend in="SourceGraphic" in2="effect1_dropShadow_312_3201" result="shape"/></filter></defs></svg>