<svg width="456" height="304" viewBox="0 0 456 304" fill="none" xmlns="http://www.w3.org/2000/svg"><g opacity=".98"><path d="M7.868 28.314h1.03v-5.68h2.892v-.88H8.886v-.678c0-.661.485-1 1.4-1 .37 0 1.22.023 1.504.054v-.843c-.218-.03-1.133-.06-1.515-.06-1.62 0-2.407.594-2.407 1.867v.66H6.103v.88h1.765v5.68Zm11.337-6.578h-1.03v3.874c0 1.122-.728 1.88-1.813 1.88-1.025 0-1.51-.558-1.51-1.746v-4.008h-1.03v4.269c0 1.576.775 2.43 2.206 2.43 1 0 1.752-.46 2.104-1.278h.085v1.157h.988v-6.578Zm2.292 6.578h1.03V24.44c0-1.121.728-1.879 1.813-1.879 1.025 0 1.51.558 1.51 1.746v4.008h1.03v-4.269c0-1.576-.776-2.43-2.206-2.43-1 0-1.752.46-2.104 1.278h-.085v-1.158h-.988v6.578Zm13.107-4.528c-.17-1.352-1.164-2.177-2.619-2.177-1.788 0-2.831 1.097-2.831 2.983v.86c0 1.886 1.043 2.984 2.831 2.984 1.455 0 2.456-.819 2.62-2.159h-1.02c-.127.752-.77 1.231-1.618 1.231-1.146 0-1.782-.776-1.782-2.188v-.595c0-1.412.636-2.194 1.782-2.194.849 0 1.492.485 1.619 1.255h1.018Zm3.814-3.814v1.783h-1.752v.879h1.752v3.722c0 1.37.758 1.989 2.389 1.989.315 0 1.115-.03 1.279-.06v-.874a19.93 19.93 0 0 1-1.207.037c-.927 0-1.43-.389-1.43-1.104v-3.71h2.655v-.88h-2.668v-1.782h-1.018Zm8.912.152a.834.834 0 0 0 .855-.849.832.832 0 0 0-.855-.843.832.832 0 0 0-.855.843c0 .485.37.849.855.849Zm2.759 8.19v-.854h-2.177v-5.724h-3.256v.855h2.238v4.869h-2.256v.854h5.45Zm4.801.122c1.74 0 2.85-1.134 2.85-2.91v-.995c0-1.776-1.11-2.91-2.85-2.91s-2.85 1.134-2.85 2.91v.995c0 1.776 1.11 2.91 2.85 2.91Zm0-5.905c1.128 0 1.831.8 1.831 2.091v.807c0 1.297-.703 2.091-1.83 2.091-1.128 0-1.832-.794-1.832-2.091v-.807c0-1.291.704-2.091 1.831-2.091Zm4.984 5.784h1.03V24.44c0-1.121.728-1.879 1.813-1.879 1.025 0 1.51.558 1.51 1.746v4.008h1.03v-4.269c0-1.576-.776-2.43-2.206-2.43-1 0-1.752.46-2.104 1.278h-.085v-1.158h-.988v6.578Z" fill="#D767F8"/><path d="M168.7 23.937c0 2.061.618 3.844 1.825 5.214h1.024c-1.255-1.764-1.782-3.31-1.782-5.214 0-1.904.527-3.45 1.782-5.214h-1.024c-1.207 1.37-1.825 3.159-1.825 5.214Zm7.875-3.965v1.783h-1.752v.879h1.752v3.722c0 1.37.758 1.989 2.389 1.989.315 0 1.116-.03 1.279-.06v-.874a19.88 19.88 0 0 1-1.206.037c-.928 0-1.431-.389-1.431-1.104v-3.71h2.656v-.88h-2.668v-1.782h-1.019Zm8.798 8.464c1.74 0 2.849-1.134 2.849-2.91v-.995c0-1.776-1.109-2.91-2.849-2.91-1.74 0-2.85 1.134-2.85 2.91v.995c0 1.776 1.11 2.91 2.85 2.91Zm0-5.905c1.127 0 1.83.8 1.83 2.091v.807c0 1.297-.703 2.091-1.83 2.091-1.128 0-1.831-.794-1.831-2.091v-.807c0-1.291.703-2.091 1.831-2.091Zm6.578 2.158h-.079v-5.535h-1.031v9.16h1.031V25.92l.909-.873 2.243 3.267h1.225l-2.734-3.97 2.552-2.608h-1.249l-2.867 2.953Zm10.549 1.928c-.182.576-.794.927-1.625.927-1.122 0-1.837-.776-1.837-1.982v-.267h4.48v-.642c0-1.904-1.006-3.038-2.716-3.038-1.673 0-2.783 1.14-2.783 2.874v.988c0 1.873 1.049 2.959 2.856 2.959 1.382 0 2.425-.734 2.625-1.82h-1Zm-1.704-4.117c1.061 0 1.704.758 1.704 2.013h-3.462c0-1.26.661-2.013 1.758-2.013Zm4.911 5.814h1.031V24.44c0-1.121.727-1.879 1.812-1.879 1.025 0 1.51.558 1.51 1.746v4.008h1.031v-4.269c0-1.576-.776-2.43-2.207-2.43-1.001 0-1.752.46-2.104 1.278h-.085v-1.158h-.988v6.578Zm11.689-4.377c0-2.055-.619-3.844-1.825-5.214h-1.025c1.255 1.765 1.783 3.31 1.783 5.214 0 1.904-.528 3.45-1.783 5.214h1.025c1.206-1.37 1.825-3.152 1.825-5.214Zm8.718 5.208v-.83h-.661c-.909 0-1.085-.213-1.085-1.268V25.43c0-.85-.637-1.413-1.867-1.437v-.097c1.23-.03 1.867-.594 1.867-1.443v-1.619c0-1.055.176-1.267 1.085-1.267h.661v-.83h-.824c-1.474 0-1.941.466-1.941 1.964v1.358c0 .94-.545 1.48-1.964 1.334v1.097c1.419-.146 1.964.4 1.964 1.334v1.358c0 1.497.467 1.964 1.941 1.964h.824Z" fill="#ABB2BF"/><path d="M77.25 28.43c.958 0 1.673-.394 1.988-1.098h.103v.989h.983v-4.505c0-1.37-.886-2.158-2.432-2.158-1.346 0-2.364.721-2.485 1.776h1.012c.17-.564.703-.885 1.461-.885.916 0 1.419.455 1.419 1.28v.593l-1.807.091c-1.497.079-2.334.77-2.334 1.934 0 1.195.837 1.983 2.092 1.983Zm.297-.904c-.83 0-1.346-.424-1.346-1.115 0-.685.485-1.08 1.406-1.122l1.692-.079v.776c0 .88-.758 1.54-1.752 1.54Zm10.737-5.79h-1.03v3.874c0 1.122-.728 1.88-1.814 1.88-1.024 0-1.51-.558-1.51-1.746v-4.008H82.9v4.269c0 1.576.776 2.43 2.207 2.43 1 0 1.752-.46 2.104-1.278h.085v1.157h.988v-6.578Zm3.862-1.764v1.783h-1.752v.879h1.752v3.722c0 1.37.758 1.989 2.388 1.989.316 0 1.116-.03 1.28-.06v-.874a19.93 19.93 0 0 1-1.207.037c-.927 0-1.43-.389-1.43-1.104v-3.71h2.655v-.88h-2.668v-1.782h-1.018Zm6.099 8.342h1.03v-3.867c0-1.122.734-1.88 1.819-1.88 1.031 0 1.516.564 1.516 1.746v4.002h1.031v-4.263c0-1.57-.776-2.43-2.207-2.43-1.007 0-1.764.46-2.11 1.279h-.085v-3.747h-.994v9.16Zm12.15-1.697c-.182.576-.795.927-1.625.927-1.122 0-1.837-.776-1.837-1.982v-.267h4.48v-.642c0-1.904-1.006-3.038-2.716-3.038-1.673 0-2.783 1.14-2.783 2.874v.988c0 1.873 1.049 2.959 2.856 2.959 1.382 0 2.425-.734 2.625-1.82h-1Zm-1.704-4.117c1.061 0 1.704.758 1.704 2.013h-3.462c0-1.26.661-2.013 1.758-2.013Zm4.911 5.814h1.03V24.44c0-1.121.728-1.879 1.813-1.879 1.025 0 1.51.558 1.51 1.746v4.008h1.031v-4.269c0-1.576-.776-2.43-2.207-2.43-1.001 0-1.752.46-2.104 1.278h-.085v-1.158h-.988v6.578Zm9.245-8.342v1.783h-1.752v.879h1.752v3.722c0 1.37.758 1.989 2.389 1.989.315 0 1.116-.03 1.279-.06v-.874a19.88 19.88 0 0 1-1.206.037c-.928 0-1.431-.389-1.431-1.104v-3.71h2.656v-.88h-2.668v-1.782h-1.019Zm8.913.152a.834.834 0 0 0 .855-.849.833.833 0 0 0-.855-.843.833.833 0 0 0-.855.843c0 .485.37.849.855.849Zm2.758 8.19v-.854h-2.176v-5.724h-3.256v.855h2.237v4.869h-2.255v.854h5.45Zm7.542-4.528c-.169-1.352-1.164-2.177-2.619-2.177-1.788 0-2.831 1.097-2.831 2.983v.86c0 1.886 1.043 2.984 2.831 2.984 1.455 0 2.456-.819 2.619-2.159h-1.018c-.128.752-.77 1.231-1.619 1.231-1.146 0-1.782-.776-1.782-2.188v-.595c0-1.412.636-2.194 1.782-2.194.849 0 1.491.485 1.619 1.255h1.018Zm4.268 4.644c.958 0 1.674-.394 1.989-1.098h.103v.989h.982v-4.505c0-1.37-.885-2.158-2.431-2.158-1.346 0-2.364.721-2.486 1.776h1.013c.17-.564.703-.885 1.461-.885.915 0 1.419.455 1.419 1.28v.593l-1.807.091c-1.498.079-2.334.77-2.334 1.934 0 1.195.836 1.983 2.091 1.983Zm.298-.904c-.831 0-1.346-.424-1.346-1.115 0-.685.485-1.08 1.406-1.122l1.692-.079v.776c0 .88-.758 1.54-1.752 1.54Zm6.923-7.554v1.783h-1.752v.879h1.752v3.722c0 1.37.758 1.989 2.389 1.989.315 0 1.115-.03 1.279-.06v-.874c-.176.018-.836.037-1.206.037-.928 0-1.431-.389-1.431-1.104v-3.71h2.655v-.88h-2.667v-1.782h-1.019Zm10.574 6.645c-.182.576-.795.927-1.625.927-1.122 0-1.837-.776-1.837-1.982v-.267h4.48v-.642c0-1.904-1.006-3.038-2.716-3.038-1.673 0-2.783 1.14-2.783 2.874v.988c0 1.873 1.049 2.959 2.856 2.959 1.382 0 2.425-.734 2.625-1.82h-1Zm-1.704-4.117c1.061 0 1.704.758 1.704 2.013h-3.462c0-1.26.661-2.013 1.758-2.013Z" fill="#39A5FF"/></g><g filter="url(#a)"><rect x="89.701" y="105" width="359.162" height="179" rx="2.405" fill="#343A4C"/><rect x="90.701" y="106" width="357.162" height="177" rx="1.405" stroke="#343A4C" stroke-width="2"/></g><path d="M149.056 141.648v-9.027h3.073v-1.142h-7.385v1.142h3.072v9.027h1.24Zm8.302.141c2.022 0 3.312-1.318 3.312-3.382v-1.156c0-2.065-1.29-3.383-3.312-3.383-2.023 0-3.312 1.318-3.312 3.383v1.156c0 2.064 1.289 3.382 3.312 3.382Zm0-6.864c1.311 0 2.128.931 2.128 2.432v.937c0 1.508-.817 2.431-2.128 2.431-1.311 0-2.128-.923-2.128-2.431v-.937c0-1.501.817-2.432 2.128-2.432Zm8.921 1.353c.698 0 1.276-.592 1.276-1.303 0-.712-.578-1.304-1.276-1.304-.697 0-1.275.592-1.275 1.304 0 .711.578 1.303 1.275 1.303Zm0 5.412c.698 0 1.276-.584 1.276-1.303 0-.712-.578-1.297-1.276-1.297-.697 0-1.275.585-1.275 1.297 0 .719.578 1.303 1.275 1.303Zm15.06-5.623c0 1.085.683 1.783 2.064 2.1l1.135.261c.972.218 1.346.542 1.346 1.148 0 .733-.663 1.205-1.706 1.205-.986 0-1.663-.408-1.839-1.113h-1.219c.134 1.311 1.283 2.121 3.016 2.121 1.811 0 2.988-.916 2.988-2.325 0-1.107-.676-1.755-2.163-2.093l-1.078-.247c-.959-.211-1.353-.543-1.353-1.127 0-.698.627-1.149 1.599-1.149.895 0 1.536.409 1.677 1.078h1.156c-.141-1.275-1.219-2.072-2.812-2.072-1.684 0-2.811.888-2.811 2.213Zm13.769 3.608c-.211.67-.923 1.078-1.888 1.078-1.304 0-2.136-.902-2.136-2.304v-.31h5.208v-.747c0-2.213-1.17-3.531-3.157-3.531-1.945 0-3.234 1.325-3.234 3.341v1.148c0 2.178 1.219 3.439 3.319 3.439 1.606 0 2.818-.853 3.051-2.114h-1.163Zm-1.98-4.785c1.233 0 1.98.881 1.98 2.34h-4.024c0-1.466.769-2.34 2.044-2.34Zm12.022 1.494c-.197-1.571-1.353-2.53-3.044-2.53-2.079 0-3.291 1.276-3.291 3.467v1.001c0 2.192 1.212 3.467 3.291 3.467 1.691 0 2.854-.951 3.044-2.509h-1.184c-.148.874-.895 1.431-1.881 1.431-1.332 0-2.072-.902-2.072-2.544v-.691c0-1.642.74-2.551 2.072-2.551.986 0 1.733.564 1.881 1.459h1.184Zm8.865-2.382h-1.198v4.503c0 1.304-.845 2.185-2.107 2.185-1.191 0-1.754-.649-1.754-2.03v-4.658h-1.198v4.961c0 1.833.902 2.826 2.565 2.826 1.162 0 2.036-.535 2.445-1.487h.099v1.346h1.148v-7.646Zm5.49 4.221c0-1.945 1.001-3.114 2.692-3.114.416 0 .909.084 1.261.211v-1.346c-.254-.106-.669-.169-1.106-.169-1.473 0-2.424.733-2.706 2.149h-.155v-1.952h-2.854v.959h1.698v5.729h-1.543v.958h5.081v-.958h-2.368v-2.467Zm9.358-6.095a.97.97 0 0 0 .994-.987c0-.557-.43-.979-.994-.979-.564 0-.993.422-.993.979 0 .564.429.987.993.987Zm3.207 9.52v-.993h-2.53v-6.653h-3.785v.994h2.601v5.659h-2.622v.993h6.336Zm4.277-9.696v2.071h-2.037v1.022h2.037v4.327c0 1.593.881 2.311 2.777 2.311.366 0 1.296-.035 1.486-.07v-1.015c-.204.021-.972.042-1.402.042-1.078 0-1.663-.451-1.663-1.282v-4.313h3.087v-1.022h-3.101v-2.071h-1.184Zm8.083 12.416c1.416 0 2.058-.556 2.727-2.438l2.882-7.928h-1.275l-2.135 6.399h-.092l-2.142-6.399h-1.304l2.812 7.696-.134.415c-.317.888-.712 1.212-1.431 1.212a2.69 2.69 0 0 1-.423-.028v1.05c.106.014.339.021.515.021Zm11.275-1.325c.691 0 1.388-.112 1.727-.274v-.832c-.296.148-.966.254-1.6.254-2.142 0-3.122-1.41-3.122-4.531v-1.093c0-3.072.909-4.46 2.882-4.46 1.847 0 2.805 1.226 2.805 3.629v1.98c0 .705-.24.965-.888.965h-1.156v-2.924c0-.529-.267-.86-.676-.86-.416 0-.684.331-.684.86v2.882c0 .522.331.853.86.853h1.797c1.015 0 1.607-.67 1.607-1.804v-2.107c0-2.784-1.318-4.327-3.658-4.327-2.459 0-3.763 1.818-3.763 5.25v1.318c0 3.432 1.332 5.221 3.869 5.221Zm7.935-1.261c1.113 0 1.945-.458 2.311-1.275h.12v1.148h1.142v-5.236c0-1.592-1.029-2.508-2.826-2.508-1.565 0-2.748.838-2.889 2.064h1.176c.198-.655.818-1.028 1.699-1.028 1.064 0 1.649.528 1.649 1.486v.691l-2.1.106c-1.741.091-2.713.895-2.713 2.248 0 1.388.972 2.304 2.431 2.304Zm.345-1.05c-.965 0-1.564-.493-1.564-1.297 0-.796.564-1.254 1.635-1.303l1.966-.092v.902c0 1.022-.881 1.79-2.037 1.79Zm12.537-4.348c-.198-1.571-1.353-2.53-3.045-2.53-2.078 0-3.291 1.276-3.291 3.467v1.001c0 2.192 1.213 3.467 3.291 3.467 1.692 0 2.854-.951 3.045-2.509h-1.184c-.148.874-.895 1.431-1.882 1.431-1.332 0-2.072-.902-2.072-2.544v-.691c0-1.642.74-2.551 2.072-2.551.987 0 1.734.564 1.882 1.459h1.184Zm9.421-.366c0-1.417-.556-2.157-1.62-2.157-.768 0-1.382.465-1.579 1.198h-.127c-.162-.754-.669-1.198-1.388-1.198-.719 0-1.268.451-1.459 1.219h-.127v-1.078h-1.071v7.646h1.079v-5.158c0-.952.422-1.536 1.099-1.536.648 0 .986.486.986 1.409v5.285h1.072v-5.158c0-.952.408-1.536 1.078-1.536.641 0 .979.486.979 1.416v5.278h1.078v-5.63Zm7.301 3.657c-.211.67-.923 1.078-1.888 1.078-1.304 0-2.136-.902-2.136-2.304v-.31h5.208v-.747c0-2.213-1.17-3.531-3.157-3.531-1.945 0-3.235 1.325-3.235 3.341v1.148c0 2.178 1.22 3.439 3.32 3.439 1.606 0 2.818-.853 3.051-2.114h-1.163Zm-1.98-4.785c1.233 0 1.98.881 1.98 2.34h-4.024c0-1.466.768-2.34 2.044-2.34Zm12.022 1.494c-.197-1.571-1.353-2.53-3.044-2.53-2.079 0-3.291 1.276-3.291 3.467v1.001c0 2.192 1.212 3.467 3.291 3.467 1.691 0 2.854-.951 3.044-2.509h-1.184c-.148.874-.895 1.431-1.881 1.431-1.332 0-2.072-.902-2.072-2.544v-.691c0-1.642.74-2.551 2.072-2.551.986 0 1.733.564 1.881 1.459h1.184Zm5.736 5.405c2.023 0 3.312-1.318 3.312-3.382v-1.156c0-2.065-1.289-3.383-3.312-3.383-2.022 0-3.312 1.318-3.312 3.383v1.156c0 2.064 1.29 3.382 3.312 3.382Zm0-6.864c1.311 0 2.128.931 2.128 2.432v.937c0 1.508-.817 2.431-2.128 2.431-1.311 0-2.128-.923-2.128-2.431v-.937c0-1.501.817-2.432 2.128-2.432Zm8.619 3.298c0-1.945 1-3.114 2.692-3.114.415 0 .909.084 1.261.211v-1.346c-.254-.106-.669-.169-1.106-.169-1.473 0-2.425.733-2.706 2.149h-.155v-1.952h-2.854v.959h1.698v5.729h-1.543v.958h5.08v-.958h-2.367v-2.467Zm9.703-4.348c-1.092 0-1.888.451-2.29 1.297h-.127v-1.17h-1.184v10.225h1.219v-3.763h.134c.332.839 1.142 1.311 2.248 1.311 1.769 0 2.925-1.275 2.925-3.235v-1.423c0-1.966-1.156-3.242-2.925-3.242Zm-.345 1.1c1.261 0 2.065.902 2.065 2.311v1.099c0 1.41-.804 2.319-2.065 2.319s-2.065-.902-2.065-2.319v-1.099c0-1.409.804-2.311 2.065-2.311Zm8.788 6.715c.697 0 1.275-.584 1.275-1.303 0-.712-.578-1.297-1.275-1.297-.698 0-1.276.585-1.276 1.297 0 .719.578 1.303 1.276 1.303Zm12.106-5.306c-.197-1.571-1.353-2.53-3.044-2.53-2.079 0-3.291 1.276-3.291 3.467v1.001c0 2.192 1.212 3.467 3.291 3.467 1.691 0 2.854-.951 3.044-2.509h-1.184c-.148.874-.895 1.431-1.881 1.431-1.332 0-2.072-.902-2.072-2.544v-.691c0-1.642.74-2.551 2.072-2.551.986 0 1.733.564 1.881 1.459h1.184Zm5.736 5.405c2.023 0 3.312-1.318 3.312-3.382v-1.156c0-2.065-1.289-3.383-3.312-3.383-2.022 0-3.312 1.318-3.312 3.383v1.156c0 2.064 1.29 3.382 3.312 3.382Zm0-6.864c1.311 0 2.129.931 2.129 2.432v.937c0 1.508-.818 2.431-2.129 2.431-1.31 0-2.128-.923-2.128-2.431v-.937c0-1.501.818-2.432 2.128-2.432Zm-201.846 84.163v-12.154h4.255V204.4h-11.574v2.534h4.245v12.154h3.074Zm8.306.234c3.298 0 5.405-2.107 5.405-5.7 0-3.543-2.138-5.68-5.405-5.68-3.268 0-5.405 2.148-5.405 5.68 0 3.583 2.107 5.7 5.405 5.7Zm0-2.27c-1.466 0-2.392-1.232-2.392-3.42 0-2.168.946-3.42 2.392-3.42 1.445 0 2.382 1.252 2.382 3.42 0 2.188-.927 3.42-2.382 3.42Zm10.026-4.499h-.041V204.4h-2.972v14.688h2.972v-3.604l.774-.834 3.125 4.438h3.42l-4.367-6.23 4.163-4.682h-3.369l-3.705 4.377Zm14.851 3.196c-.275.835-1.109 1.374-2.199 1.374-1.516 0-2.504-1.068-2.504-2.626v-.183h7.523v-.906c0-3.318-2.006-5.466-5.181-5.466-3.227 0-5.263 2.26-5.263 5.741 0 3.491 2.016 5.639 5.375 5.639 2.697 0 4.651-1.435 4.977-3.573h-2.728Zm-2.331-5.608c1.323 0 2.229.956 2.29 2.351h-4.631c.102-1.364 1.038-2.351 2.341-2.351Zm6.688 8.947h2.972v-6.26c0-1.415.845-2.392 2.178-2.392 1.334 0 2.005.814 2.005 2.239v6.413h2.973v-7.034c0-2.555-1.364-4.082-3.787-4.082-1.679 0-2.83.794-3.41 2.148h-.061v-1.944h-2.87v10.912Zm16.143 0h2.973v-6.586c0-1.221.763-2.076 1.893-2.076 1.099 0 1.761.692 1.761 1.862v6.8h2.86v-6.627c0-1.211.743-2.035 1.873-2.035 1.15 0 1.781.692 1.781 1.954v6.708h2.973v-7.451c0-2.199-1.436-3.665-3.573-3.665-1.598 0-2.901.866-3.39 2.24h-.061c-.366-1.425-1.466-2.24-3.043-2.24-1.486 0-2.657.866-3.115 2.179h-.061v-1.975h-2.871v10.912Zm23.005.234c3.298 0 5.405-2.107 5.405-5.7 0-3.543-2.138-5.68-5.405-5.68-3.268 0-5.405 2.148-5.405 5.68 0 3.583 2.107 5.7 5.405 5.7Zm0-2.27c-1.466 0-2.392-1.232-2.392-3.42 0-2.168.946-3.42 2.392-3.42 1.445 0 2.382 1.252 2.382 3.42 0 2.188-.927 3.42-2.382 3.42Zm6.942 2.036h2.972v-6.26c0-1.415.845-2.392 2.178-2.392 1.334 0 2.006.814 2.006 2.239v6.413h2.972v-7.034c0-2.555-1.364-4.082-3.787-4.082-1.679 0-2.829.794-3.41 2.148h-.061v-1.944h-2.87v10.912Zm13.538-12.388c.865 0 1.547-.692 1.547-1.527a1.53 1.53 0 0 0-1.547-1.527 1.53 1.53 0 0 0-1.547 1.527c0 .835.682 1.527 1.547 1.527Zm-1.476 12.388h2.972v-10.912h-2.972v10.912Zm5.751-13.426v2.514h-1.537v2.239h1.537v5.731c0 2.128.998 2.983 3.563 2.983.6 0 1.109-.051 1.414-.123v-2.188c-.183.03-.458.051-.722.051-.876 0-1.283-.397-1.283-1.232v-5.222h2.016v-2.239h-2.016v-2.514h-2.972Zm11.461 13.66c3.298 0 5.405-2.107 5.405-5.7 0-3.543-2.137-5.68-5.405-5.68-3.267 0-5.405 2.148-5.405 5.68 0 3.583 2.107 5.7 5.405 5.7Zm0-2.27c-1.465 0-2.392-1.232-2.392-3.42 0-2.168.947-3.42 2.392-3.42 1.446 0 2.382 1.252 2.382 3.42 0 2.188-.926 3.42-2.382 3.42Zm6.942 2.036h2.973v-6.097c0-1.537.855-2.433 2.321-2.433.427 0 .834.071 1.078.173v-2.616a3.02 3.02 0 0 0-.844-.112c-1.283 0-2.209.753-2.596 2.138h-.061v-1.965h-2.871v10.912Zm-122.826 20v-9.027h3.206v-1.142h-7.681v1.142h3.206v9.027h1.269Zm4.418 0h1.226v-4.271c0-1.268.754-2.1 1.973-2.1 1.149 0 1.734.698 1.734 1.861v4.51h1.226v-4.736c0-1.635-.972-2.72-2.579-2.72-1.113 0-1.917.479-2.325 1.297h-.029v-4.01h-1.226v10.169Zm12.579-2.1c-.204.69-.888 1.163-1.818 1.163-1.318 0-2.142-.924-2.142-2.326v-.07h5.257v-.465c0-2.22-1.219-3.658-3.2-3.658-2.022 0-3.319 1.543-3.319 3.82 0 2.304 1.276 3.763 3.376 3.763 1.599 0 2.84-.945 3.051-2.227H165.8Zm-1.924-4.292c1.156 0 1.924.874 1.952 2.1h-3.981c.077-1.219.881-2.1 2.029-2.1Zm4.461 6.392h1.226v-4.567c0-1.035.62-1.719 1.572-1.719.295 0 .556.035.655.07v-1.191c-.099-.014-.282-.049-.493-.049-.86 0-1.537.515-1.776 1.325h-.028v-1.198h-1.156v7.329Zm8.964-2.1c-.205.69-.888 1.163-1.819 1.163-1.317 0-2.142-.924-2.142-2.326v-.07h5.257v-.465c0-2.22-1.219-3.658-3.199-3.658-2.023 0-3.319 1.543-3.319 3.82 0 2.304 1.275 3.763 3.375 3.763 1.6 0 2.84-.945 3.052-2.227h-1.205Zm-1.924-4.292c1.155 0 1.924.874 1.952 2.1h-3.982c.078-1.219.881-2.1 2.03-2.1Zm16.743-.937h-1.212l-1.466 5.962h-.028l-1.663-5.962h-1.184l-1.656 5.962h-.028l-1.466-5.962h-1.219l2.051 7.329h1.247l1.649-5.673h.028l1.656 5.673h1.248l2.043-7.329Zm3.009 7.456c.987 0 1.917-.55 2.354-1.389h.028v1.262h1.163v-5.067c0-1.459-1.085-2.389-2.805-2.389-1.733 0-2.818.973-2.903 2.241h1.184c.155-.719.747-1.163 1.691-1.163 1.015 0 1.607.536 1.607 1.431v.613l-2.1.12c-1.691.098-2.657.888-2.657 2.142 0 1.318.98 2.199 2.438 2.199Zm.275-1.043c-.881 0-1.466-.458-1.466-1.156 0-.691.564-1.127 1.551-1.191l1.959-.12v.599c0 1.057-.888 1.868-2.044 1.868Zm4.701-4.391c0 1.058.669 1.699 2.05 2.03l1.163.282c.839.204 1.127.507 1.127 1.036 0 .662-.613 1.085-1.606 1.085-.994 0-1.558-.402-1.706-1.24h-1.226c.141 1.374 1.212 2.241 2.932 2.241 1.635 0 2.84-.902 2.84-2.178 0-1.05-.536-1.628-2.016-1.987l-1.163-.282c-.817-.197-1.19-.543-1.19-1.05 0-.641.592-1.085 1.486-1.085.902 0 1.466.472 1.558 1.24h1.17c-.05-1.297-1.121-2.241-2.728-2.241-1.585 0-2.691.895-2.691 2.149Zm12.43 5.307h1.227v-10.169h-1.241l-2.706 1.945v1.276l2.692-1.875h.028v8.823Zm6.737 0h1.226v-4.313c0-1.24.754-2.058 1.91-2.058 1.128 0 1.684.649 1.684 1.833v4.538h1.227v-4.757c0-1.663-.931-2.699-2.537-2.699-1.135 0-1.917.508-2.326 1.297h-.028v-1.17h-1.156v7.329Zm12.473-2.1c-.204.69-.888 1.163-1.818 1.163-1.318 0-2.142-.924-2.142-2.326v-.07h5.257v-.465c0-2.22-1.219-3.658-3.199-3.658-2.023 0-3.319 1.543-3.319 3.82 0 2.304 1.275 3.763 3.375 3.763 1.6 0 2.84-.945 3.051-2.227h-1.205Zm-1.923-4.292c1.155 0 1.923.874 1.952 2.1h-3.982c.078-1.219.881-2.1 2.03-2.1Zm13.783-.937h-1.212l-1.465 5.962h-.029l-1.663-5.962h-1.184l-1.656 5.962h-.028l-1.466-5.962h-1.219l2.051 7.329h1.247l1.649-5.673h.028l1.656 5.673h1.248l2.043-7.329Zm3.841 2.022c0 1.058.669 1.699 2.051 2.03l1.162.282c.839.204 1.128.507 1.128 1.036 0 .662-.613 1.085-1.607 1.085-.993 0-1.557-.402-1.705-1.24h-1.226c.141 1.374 1.212 2.241 2.931 2.241 1.635 0 2.84-.902 2.84-2.178 0-1.05-.536-1.628-2.015-1.987l-1.163-.282c-.818-.197-1.191-.543-1.191-1.05 0-.641.592-1.085 1.487-1.085.902 0 1.466.472 1.557 1.24h1.17c-.049-1.297-1.12-2.241-2.727-2.241-1.586 0-2.692.895-2.692 2.149Zm11.712 3.207c-.204.69-.888 1.163-1.818 1.163-1.318 0-2.142-.924-2.142-2.326v-.07h5.257v-.465c0-2.22-1.22-3.658-3.2-3.658-2.022 0-3.319 1.543-3.319 3.82 0 2.304 1.276 3.763 3.376 3.763 1.599 0 2.84-.945 3.051-2.227h-1.205Zm-1.924-4.292c1.156 0 1.924.874 1.952 2.1h-3.981c.077-1.219.88-2.1 2.029-2.1Zm6.603 6.519c.987 0 1.917-.55 2.354-1.389h.028v1.262h1.163v-5.067c0-1.459-1.085-2.389-2.805-2.389-1.733 0-2.819.973-2.903 2.241h1.184c.155-.719.747-1.163 1.691-1.163 1.015 0 1.607.536 1.607 1.431v.613l-2.1.12c-1.692.098-2.657.888-2.657 2.142 0 1.318.979 2.199 2.438 2.199Zm.275-1.043c-.881 0-1.466-.458-1.466-1.156 0-.691.564-1.127 1.551-1.191l1.959-.12v.599c0 1.057-.888 1.868-2.044 1.868Zm4.827.916h1.226v-4.567c0-1.035.62-1.719 1.572-1.719.296 0 .556.035.655.07v-1.191c-.099-.014-.282-.049-.493-.049-.86 0-1.536.515-1.776 1.325h-.028v-1.198h-1.156v7.329Zm10.19-4.926c-.155-1.318-1.247-2.53-3.08-2.53-2.022 0-3.368 1.48-3.368 3.791 0 2.361 1.353 3.792 3.383 3.792 1.663 0 2.889-1.029 3.079-2.488h-1.205c-.211.881-.867 1.409-1.867 1.409-1.269 0-2.143-1.007-2.143-2.713 0-1.663.86-2.713 2.129-2.713 1.078 0 1.698.656 1.874 1.452h1.198Zm1.205 4.926h1.226v-4.271c0-1.268.754-2.1 1.973-2.1 1.149 0 1.734.698 1.734 1.861v4.51h1.226v-4.736c0-1.635-.972-2.72-2.579-2.72-1.114 0-1.917.479-2.326 1.297h-.028v-4.01h-1.226v10.169Zm10.676 0h1.226v-4.567c0-1.035.62-1.719 1.572-1.719.296 0 .557.035.655.07v-1.191c-.098-.014-.282-.049-.493-.049-.86 0-1.536.515-1.776 1.325h-.028v-1.198h-1.156v7.329Zm8.964-2.1c-.204.69-.888 1.163-1.818 1.163-1.318 0-2.142-.924-2.142-2.326v-.07h5.257v-.465c0-2.22-1.22-3.658-3.2-3.658-2.022 0-3.319 1.543-3.319 3.82 0 2.304 1.276 3.763 3.376 3.763 1.599 0 2.84-.945 3.051-2.227h-1.205Zm-1.924-4.292c1.156 0 1.924.874 1.952 2.1h-3.981c.077-1.219.88-2.1 2.029-2.1Zm4.334 1.085c0 1.058.669 1.699 2.051 2.03l1.162.282c.839.204 1.128.507 1.128 1.036 0 .662-.613 1.085-1.607 1.085-.993 0-1.557-.402-1.705-1.24h-1.226c.141 1.374 1.212 2.241 2.931 2.241 1.635 0 2.84-.902 2.84-2.178 0-1.05-.535-1.628-2.015-1.987l-1.163-.282c-.818-.197-1.191-.543-1.191-1.05 0-.641.592-1.085 1.487-1.085.902 0 1.466.472 1.557 1.24h1.17c-.049-1.297-1.12-2.241-2.727-2.241-1.586 0-2.692.895-2.692 2.149Zm12.868-2.022h-1.227v4.306c0 1.247-.718 2.064-1.909 2.064-1.135 0-1.692-.641-1.692-1.832v-4.538h-1.226v4.757c0 1.663.938 2.699 2.537 2.699 1.128 0 1.889-.472 2.326-1.318h.028v1.191h1.163v-7.329Zm1.656 7.329h1.226v-10.169h-1.226v10.169Zm3.277-9.098v1.769h-1.093v1.008h1.093v4.418c0 1.41.521 1.959 1.867 1.959.289 0 .627-.021.775-.056v-1.029a4.782 4.782 0 0 1-.507.035c-.627 0-.909-.303-.909-.972v-4.355h1.423v-1.008h-1.423v-1.769h-1.226Zm7.314 9.098h1.226v-6.321h1.494v-1.008h-1.501v-.81c0-.726.317-1.079.98-1.079.204 0 .409.022.557.043v-.994a5.277 5.277 0 0 0-.747-.056c-1.353 0-2.009.669-2.009 2.079v.817h-1.022v1.008h1.022v6.321Zm6.674.127c2.022 0 3.389-1.459 3.389-3.792 0-2.339-1.367-3.791-3.389-3.791-2.03 0-3.397 1.452-3.397 3.791 0 2.333 1.367 3.792 3.397 3.792Zm0-1.079c-1.297 0-2.15-.986-2.15-2.713 0-1.726.853-2.713 2.15-2.713 1.296 0 2.142.987 2.142 2.713 0 1.727-.846 2.713-2.142 2.713Zm4.63.952h1.226v-4.567c0-1.035.62-1.719 1.571-1.719.296 0 .557.035.656.07v-1.191c-.099-.014-.282-.049-.494-.049-.859 0-1.536.515-1.776 1.325h-.028v-1.198h-1.155v7.329Zm8.026 2.741c1.325 0 1.931-.514 2.558-2.227l2.882-7.843h-1.289l-2.03 6.103h-.021l-2.029-6.103h-1.311l2.706 7.336-.169.514c-.282.853-.663 1.184-1.346 1.184-.155 0-.346-.007-.479-.035v1.029c.133.028.38.042.528.042Zm9.232-2.614c2.022 0 3.389-1.459 3.389-3.792 0-2.339-1.367-3.791-3.389-3.791-2.03 0-3.397 1.452-3.397 3.791 0 2.333 1.367 3.792 3.397 3.792Zm0-1.079c-1.297 0-2.15-.986-2.15-2.713 0-1.726.853-2.713 2.15-2.713 1.296 0 2.142.987 2.142 2.713 0 1.727-.846 2.713-2.142 2.713Zm10.647-6.377h-1.226v4.306c0 1.247-.718 2.064-1.909 2.064-1.135 0-1.692-.641-1.692-1.832v-4.538h-1.226v4.757c0 1.663.937 2.699 2.537 2.699 1.128 0 1.889-.472 2.326-1.318h.028v1.191h1.162v-7.329Zm1.593 7.329h1.226v-4.567c0-1.035.62-1.719 1.572-1.719.296 0 .556.035.655.07v-1.191c-.099-.014-.282-.049-.493-.049-.86 0-1.536.515-1.776 1.325h-.028v-1.198h-1.156v7.329Zm10.176-7.456c-1.882 0-3.122 1.487-3.122 3.791 0 2.298 1.24 3.792 3.094 3.792 1.036 0 1.888-.515 2.346-1.353h.029v3.671h1.226v-9.774h-1.17v1.24h-.028c-.472-.845-1.311-1.367-2.375-1.367Zm.218 6.504c-1.282 0-2.086-1.042-2.086-2.713 0-1.677.804-2.713 2.086-2.713 1.255 0 2.129 1.079 2.129 2.713 0 1.635-.874 2.713-2.129 2.713Zm10.972-6.377h-1.226v4.306c0 1.247-.719 2.064-1.909 2.064-1.135 0-1.692-.641-1.692-1.832v-4.538h-1.226v4.757c0 1.663.937 2.699 2.537 2.699 1.128 0 1.889-.472 2.326-1.318h.028v1.191h1.162v-7.329Zm6.455 5.229c-.204.69-.887 1.163-1.818 1.163-1.317 0-2.142-.924-2.142-2.326v-.07h5.257v-.465c0-2.22-1.219-3.658-3.199-3.658-2.023 0-3.319 1.543-3.319 3.82 0 2.304 1.275 3.763 3.375 3.763 1.6 0 2.84-.945 3.051-2.227h-1.205Zm-1.923-4.292c1.155 0 1.923.874 1.952 2.1h-3.982c.078-1.219.881-2.1 2.03-2.1Zm4.46 6.392h1.227v-4.567c0-1.035.62-1.719 1.571-1.719.296 0 .557.035.655.07v-1.191c-.098-.014-.282-.049-.493-.049-.86 0-1.536.515-1.776 1.325h-.028v-1.198h-1.156v7.329Zm5.067 2.741c1.325 0 1.931-.514 2.558-2.227l2.882-7.843h-1.289l-2.03 6.103h-.021l-2.029-6.103h-1.311l2.706 7.336-.169.514c-.282.853-.663 1.184-1.346 1.184-.155 0-.346-.007-.479-.035v1.029c.133.028.38.042.528.042Z" fill="#DBE2F0"/><path stroke="#262B38" stroke-width="1.162" d="m129.957 183.664 318.48.001"/><path d="M144.884 165.319c.106 1.804 1.48 2.917 3.58 2.917 2.129 0 3.503-1.162 3.503-2.988 0-1.529-.832-2.389-2.805-2.875l-.888-.225c-1.325-.331-1.889-.839-1.889-1.72 0-1.036.783-1.656 2.086-1.656 1.198 0 1.974.62 2.1 1.67h1.212c-.084-1.691-1.402-2.797-3.319-2.797-2.029 0-3.333 1.12-3.333 2.854 0 1.473.853 2.368 2.741 2.847l.874.218c1.374.338 1.966.867 1.966 1.748 0 1.092-.888 1.797-2.241 1.797-1.353 0-2.248-.677-2.374-1.79h-1.213Zm15.532-4.94h-1.198v4.503c0 1.304-.846 2.185-2.107 2.185-1.191 0-1.755-.649-1.755-2.03v-4.658h-1.198v4.961c0 1.832.902 2.826 2.565 2.826 1.163 0 2.037-.536 2.446-1.487h.098v1.346h1.149v-7.646Zm6.272 7.773c1.769 0 2.924-1.276 2.924-3.242v-1.423c0-1.959-1.155-3.235-2.924-3.235-1.107 0-1.917.472-2.255 1.311h-.127v-4.186h-1.219v10.648h1.177v-1.17h.133c.395.846 1.198 1.297 2.291 1.297Zm-.353-1.093c-1.254 0-2.057-.902-2.057-2.318v-1.099c0-1.41.803-2.312 2.057-2.312 1.269 0 2.072.902 2.072 2.312v1.099c0 1.409-.803 2.318-2.072 2.318Zm9.803-8.555a.969.969 0 0 0 .993-.986c0-.557-.43-.98-.993-.98-.564 0-.994.423-.994.98 0 .564.43.986.994.986Zm.69 1.875h-4.672v.994h3.495v6.469c0 1.092-.429 1.43-1.853 1.43-.465 0-1.452-.021-1.818-.056v1.071c.507.042 1.325.056 1.853.056 2.129 0 2.995-.669 2.995-2.36v-7.604Zm9.288 5.673c-.211.669-.923 1.078-1.888 1.078-1.304 0-2.136-.902-2.136-2.304v-.31h5.208v-.747c0-2.213-1.17-3.531-3.157-3.531-1.945 0-3.235 1.325-3.235 3.34v1.149c0 2.177 1.22 3.439 3.32 3.439 1.606 0 2.818-.853 3.051-2.114h-1.163Zm-1.98-4.785c1.233 0 1.98.881 1.98 2.339h-4.024c0-1.465.768-2.339 2.044-2.339Zm12.022 1.494c-.197-1.572-1.353-2.53-3.044-2.53-2.079 0-3.291 1.275-3.291 3.467v1.001c0 2.191 1.212 3.467 3.291 3.467 1.691 0 2.854-.951 3.044-2.509h-1.184c-.148.874-.895 1.431-1.881 1.431-1.332 0-2.072-.902-2.072-2.544v-.691c0-1.642.74-2.551 2.072-2.551.986 0 1.733.564 1.881 1.459h1.184Zm4.433-4.433v2.072h-2.037v1.022h2.037v4.327c0 1.592.88 2.311 2.776 2.311.367 0 1.297-.035 1.487-.07v-1.015c-.204.021-.972.042-1.402.042-1.079 0-1.663-.451-1.663-1.282v-4.313h3.086V160.4h-3.1v-2.072h-1.184Zm10.225 4.327c.697 0 1.275-.592 1.275-1.304 0-.711-.578-1.303-1.275-1.303-.698 0-1.276.592-1.276 1.303 0 .712.578 1.304 1.276 1.304Zm0 5.412c.697 0 1.275-.585 1.275-1.304 0-.711-.578-1.296-1.275-1.296-.698 0-1.276.585-1.276 1.296 0 .719.578 1.304 1.276 1.304Zm18.463-.042v-9.027h3.072v-1.142h-7.385v1.142h3.072v9.027h1.241Zm8.301.141c2.023 0 3.312-1.318 3.312-3.383v-1.155c0-2.065-1.289-3.383-3.312-3.383-2.022 0-3.312 1.318-3.312 3.383v1.155c0 2.065 1.29 3.383 3.312 3.383Zm0-6.864c1.311 0 2.128.93 2.128 2.431v.938c0 1.508-.817 2.431-2.128 2.431-1.311 0-2.128-.923-2.128-2.431v-.938c0-1.501.817-2.431 2.128-2.431Zm7.646 2.509h-.092v-6.434h-1.198v10.648h1.198v-2.784l1.057-1.014 2.608 3.798h1.423l-3.178-4.616 2.967-3.03h-1.452l-3.333 3.432Zm12.262 2.241c-.212.669-.923 1.078-1.889 1.078-1.304 0-2.135-.902-2.135-2.304v-.31h5.208v-.747c0-2.213-1.17-3.531-3.157-3.531-1.945 0-3.235 1.325-3.235 3.34v1.149c0 2.177 1.219 3.439 3.319 3.439 1.607 0 2.819-.853 3.051-2.114h-1.162Zm-1.981-4.785c1.234 0 1.981.881 1.981 2.339h-4.024c0-1.465.768-2.339 2.043-2.339Zm5.709 6.758h1.197v-4.503c0-1.304.846-2.185 2.108-2.185 1.19 0 1.754.649 1.754 2.03v4.658h1.198v-4.961c0-1.832-.902-2.826-2.565-2.826-1.163 0-2.036.536-2.445 1.487h-.099v-1.346h-1.148v7.646Zm24.657-5.631c0-1.416-.557-2.156-1.621-2.156-.768 0-1.381.465-1.579 1.198h-.126c-.162-.754-.67-1.198-1.389-1.198-.718 0-1.268.451-1.458 1.219h-.127v-1.078h-1.071v7.646h1.078v-5.158c0-.952.423-1.537 1.099-1.537.649 0 .987.487.987 1.41v5.285h1.071v-5.158c0-.952.409-1.537 1.078-1.537.641 0 .98.487.98 1.417v5.278h1.078v-5.631Zm5.236 5.772c2.022 0 3.312-1.318 3.312-3.383v-1.155c0-2.065-1.29-3.383-3.312-3.383-2.023 0-3.312 1.318-3.312 3.383v1.155c0 2.065 1.289 3.383 3.312 3.383Zm0-6.864c1.31 0 2.128.93 2.128 2.431v.938c0 1.508-.818 2.431-2.128 2.431-1.311 0-2.129-.923-2.129-2.431v-.938c0-1.501.818-2.431 2.129-2.431Zm5.792 6.723h1.198v-4.503c0-1.304.846-2.185 2.107-2.185 1.191 0 1.755.649 1.755 2.03v4.658h1.198v-4.961c0-1.832-.902-2.826-2.565-2.826-1.163 0-2.037.536-2.445 1.487h-.099v-1.346h-1.149v7.646Zm12.184-9.521a.969.969 0 0 0 .994-.986c0-.557-.43-.98-.994-.98a.968.968 0 0 0-.993.98c0 .564.43.986.993.986Zm3.207 9.521v-.994h-2.53v-6.652h-3.784v.994h2.6v5.658h-2.621v.994h6.335Zm4.277-9.697v2.072h-2.036v1.022h2.036v4.327c0 1.592.881 2.311 2.777 2.311.366 0 1.296-.035 1.487-.07v-1.015c-.205.021-.973.042-1.403.042-1.078 0-1.663-.451-1.663-1.282v-4.313h3.087V160.4h-3.101v-2.072h-1.184Zm10.225 9.838c2.023 0 3.312-1.318 3.312-3.383v-1.155c0-2.065-1.289-3.383-3.312-3.383-2.022 0-3.312 1.318-3.312 3.383v1.155c0 2.065 1.29 3.383 3.312 3.383Zm0-6.864c1.311 0 2.129.93 2.129 2.431v.938c0 1.508-.818 2.431-2.129 2.431-1.31 0-2.128-.923-2.128-2.431v-.938c0-1.501.818-2.431 2.128-2.431Zm8.619 3.298c0-1.945 1-3.115 2.692-3.115.416 0 .909.085 1.261.212v-1.346c-.254-.106-.669-.169-1.106-.169-1.473 0-2.424.733-2.706 2.149h-.155v-1.952h-2.854v.958h1.698v5.73H332.7v.958h5.081v-.958h-2.368V164.6Z" fill="#DBE2F0"/><path d="m148.782 260.6 2.659-7.909h-1.804l-1.808 6.205h-.039l-1.808-6.205h-1.853l2.658 7.909h1.995Zm4.067-6.67a.827.827 0 0 0 .833-.822.823.823 0 0 0-.833-.822.823.823 0 0 0-.833.822c0 .449.367.822.833.822Zm-.794 6.67h1.6v-5.875h-1.6v5.875Zm6.56-1.797c-.148.449-.597.74-1.184.74-.816 0-1.348-.576-1.348-1.415v-.098h4.05v-.488c0-1.787-1.079-2.943-2.789-2.943-1.738 0-2.834 1.216-2.834 3.091 0 1.88 1.085 3.036 2.894 3.036 1.452 0 2.505-.772 2.68-1.923h-1.469Zm-1.255-3.02c.713 0 1.2.515 1.233 1.266h-2.494c.055-.735.56-1.266 1.261-1.266Zm11.812-1.058h-1.579l-.893 4.357h-.033l-1.047-4.357h-1.535l-1.041 4.357h-.033l-.888-4.357h-1.611l1.562 5.875h1.682l1.058-4.154h.033l1.063 4.154h1.705l1.557-5.875Zm8.188 2.187c-.071-1.332-1.08-2.313-2.669-2.313-1.76 0-2.883 1.173-2.883 3.058 0 1.918 1.123 3.069 2.894 3.069 1.545 0 2.581-.893 2.664-2.28h-1.491c-.099.642-.515 1.025-1.157 1.025-.794 0-1.288-.657-1.288-1.814 0-1.134.494-1.803 1.283-1.803.658 0 1.069.438 1.162 1.058h1.485Zm3.475 3.814c1.776 0 2.91-1.134 2.91-3.069 0-1.907-1.151-3.058-2.91-3.058-1.759 0-2.91 1.156-2.91 3.058 0 1.929 1.134 3.069 2.91 3.069Zm0-1.222c-.789 0-1.288-.663-1.288-1.841 0-1.168.51-1.842 1.288-1.842s1.283.674 1.283 1.842c0 1.178-.499 1.841-1.283 1.841Zm5.919 1.19c.866 0 1.546-.455 1.831-1.102h.028v1.008h1.578v-7.909h-1.6v3.042h-.033c-.285-.652-.943-1.101-1.793-1.101-1.474 0-2.406 1.156-2.406 3.02 0 1.88.927 3.042 2.395 3.042Zm.543-4.78c.795 0 1.305.68 1.305 1.749 0 1.074-.51 1.742-1.305 1.742-.806 0-1.299-.663-1.299-1.742 0-1.075.493-1.749 1.299-1.749Zm7.854 2.889c-.148.449-.597.74-1.184.74-.816 0-1.348-.576-1.348-1.415v-.098h4.051v-.488c0-1.787-1.08-2.943-2.79-2.943-1.738 0-2.834 1.216-2.834 3.091 0 1.88 1.085 3.036 2.894 3.036 1.452 0 2.505-.772 2.68-1.923h-1.469Zm-1.255-3.02c.713 0 1.2.515 1.233 1.266h-2.493c.054-.735.559-1.266 1.26-1.266Zm5.826 4.817h1.601v-3.546c0-.658.411-1.118 1.019-1.118.592 0 .949.373.949 1.003v3.661h1.54v-3.568c0-.652.4-1.096 1.008-1.096.62 0 .959.373.959 1.052v3.612h1.601v-4.012c0-1.184-.773-1.973-1.924-1.973-.861 0-1.562.466-1.825 1.206h-.033c-.197-.767-.789-1.206-1.639-1.206-.8 0-1.43.466-1.677 1.173h-.033v-1.063h-1.546v5.875Zm12.387.126c1.776 0 2.911-1.134 2.911-3.069 0-1.907-1.151-3.058-2.911-3.058-1.759 0-2.91 1.156-2.91 3.058 0 1.929 1.135 3.069 2.91 3.069Zm0-1.222c-.789 0-1.288-.663-1.288-1.841 0-1.168.51-1.842 1.288-1.842.779 0 1.283.674 1.283 1.842 0 1.178-.499 1.841-1.283 1.841Zm3.738 1.096h1.601v-3.37c0-.762.455-1.288 1.173-1.288s1.08.438 1.08 1.205v3.453h1.6v-3.787c0-1.376-.734-2.198-2.039-2.198-.904 0-1.524.428-1.836 1.157h-.033v-1.047h-1.546v5.875Zm7.29-6.67a.827.827 0 0 0 .833-.822.823.823 0 0 0-.833-.822.823.823 0 0 0-.833.822c0 .449.367.822.833.822Zm-.795 6.67h1.601v-5.875h-1.601v5.875Zm3.097-7.229v1.354h-.828v1.206h.828v3.085c0 1.146.537 1.606 1.918 1.606.324 0 .598-.027.762-.066v-1.178a2.51 2.51 0 0 1-.389.027c-.471 0-.69-.213-.69-.663v-2.811h1.085v-1.206h-1.085v-1.354h-1.601Zm6.172 7.355c1.775 0 2.91-1.134 2.91-3.069 0-1.907-1.151-3.058-2.91-3.058-1.76 0-2.911 1.156-2.911 3.058 0 1.929 1.135 3.069 2.911 3.069Zm0-1.222c-.79 0-1.288-.663-1.288-1.841 0-1.168.509-1.842 1.288-1.842.778 0 1.282.674 1.282 1.842 0 1.178-.499 1.841-1.282 1.841Zm3.738 1.096h1.6v-3.283c0-.827.461-1.31 1.25-1.31.23 0 .449.039.581.093v-1.408a1.632 1.632 0 0 0-.455-.06c-.691 0-1.19.405-1.398 1.151h-.033v-1.058h-1.545v5.875Zm6.314 0h1.6v-3.283c0-.827.461-1.31 1.25-1.31.23 0 .449.039.581.093v-1.408a1.632 1.632 0 0 0-.455-.06c-.691 0-1.189.405-1.398 1.151h-.033v-1.058h-1.545v5.875Zm7.783-1.797c-.148.449-.598.74-1.184.74-.817 0-1.349-.576-1.349-1.415v-.098h4.051v-.488c0-1.787-1.08-2.943-2.79-2.943-1.737 0-2.834 1.216-2.834 3.091 0 1.88 1.086 3.036 2.894 3.036 1.453 0 2.505-.772 2.681-1.923h-1.469Zm-1.255-3.02c.712 0 1.2.515 1.233 1.266h-2.494c.055-.735.559-1.266 1.261-1.266Zm3.502.668c0 .883.575 1.453 1.71 1.694l1.003.208c.575.132.778.307.778.619 0 .384-.372.631-.975.631-.636 0-1.003-.274-1.102-.789h-1.562c.104 1.156 1.041 1.912 2.664 1.912 1.512 0 2.57-.761 2.57-1.918 0-.86-.504-1.343-1.732-1.6l-1.003-.214c-.592-.126-.811-.329-.811-.63 0-.39.367-.642.921-.642.592 0 .948.324.997.801h1.475c-.033-1.151-.965-1.924-2.472-1.924-1.496 0-2.461.734-2.461 1.852Zm11.302-1.726h-1.601v3.365c0 .778-.444 1.288-1.156 1.288-.707 0-1.096-.416-1.096-1.2v-3.453h-1.601v3.787c0 1.37.844 2.198 2.116 2.198.888 0 1.469-.428 1.759-1.167h.033v1.057h1.546v-5.875Zm1.079 5.875h1.601v-7.909h-1.601v7.909Zm3.108-7.229v1.354h-.828v1.206h.828v3.085c0 1.146.537 1.606 1.918 1.606.324 0 .598-.027.762-.066v-1.178a2.51 2.51 0 0 1-.389.027c-.471 0-.69-.213-.69-.663v-2.811h1.085v-1.206h-1.085v-1.354h-1.601Zm3.464 3.08c0 .883.576 1.453 1.71 1.694l1.003.208c.576.132.778.307.778.619 0 .384-.372.631-.975.631-.636 0-1.003-.274-1.102-.789h-1.562c.104 1.156 1.041 1.912 2.664 1.912 1.513 0 2.57-.761 2.57-1.918 0-.86-.504-1.343-1.732-1.6l-1.003-.214c-.592-.126-.811-.329-.811-.63 0-.39.367-.642.921-.642.592 0 .948.324.998.801h1.474c-.033-1.151-.965-1.924-2.472-1.924-1.496 0-2.461.734-2.461 1.852Zm-126.67 6.205h132.025v1.041H143.976v-1.041Z" fill="#4393E7"/><path stroke="#262B38" stroke-width="1.162" d="M130.964 105v177.838"/><path d="m111.205 131.124-8.137-5.086v7.73h16.273v-7.73l-8.136 5.086Zm-8.137-7.527 8.137 5.086 8.136-5.086-8.136-5.085-8.137 5.085Zm18.307 0v10.171a2.04 2.04 0 0 1-2.034 2.034h-16.273a2.04 2.04 0 0 1-2.034-2.034v-10.171c0-.712.407-1.423 1.017-1.729l9.154-5.695 9.153 5.695c.61.306 1.017 1.017 1.017 1.729Z" fill="#DBE2F0"/><path d="M44.941 66c0 30.259 1.846 69.931 33 78" stroke="#374572" stroke-width="6"/><path d="M76.817 143.817 78.308 134l8.327 11.308-11.308 8.327 1.49-9.818Z" fill="#374572"/><g filter="url(#b)"><rect x="34.941" y="39" width="285" height="27.592" rx="2.069" fill="#1C792C"/><path d="M45.074 54.378h2.516v-1.504h-2.516v-2.528h-1.558v2.528h-2.517v1.504h2.517v2.528h1.558v-2.528Z" fill="#94D82D"/><path d="m56.231 50.654 2.407 6.578h1.134l2.4-6.578h-1.096l-1.825 5.475h-.08l-1.836-5.475H56.23Zm9.98 6.693c.958 0 1.673-.394 1.988-1.097h.103v.988h.982v-4.504c0-1.37-.885-2.159-2.43-2.159-1.347 0-2.365.722-2.486 1.777h1.012c.17-.564.703-.885 1.461-.885.916 0 1.419.454 1.419 1.279v.594l-1.807.09c-1.497.08-2.334.77-2.334 1.935 0 1.194.837 1.982 2.092 1.982Zm.297-.903c-.83 0-1.346-.424-1.346-1.116 0-.685.485-1.079 1.406-1.121l1.692-.079v.776c0 .88-.758 1.54-1.752 1.54Zm7.784-2.158c0-1.674.861-2.68 2.316-2.68.358 0 .782.073 1.085.182V50.63c-.218-.091-.575-.146-.951-.146-1.267 0-2.086.63-2.328 1.85h-.134v-1.68h-2.455v.825h1.46v4.929h-1.327v.824h4.371v-.824h-2.037v-2.122Z" fill="#ECABFF"/><path d="M88.782 48.89v1.782H87.03v.88h1.752v3.722c0 1.37.758 1.988 2.389 1.988.315 0 1.115-.03 1.28-.06v-.873c-.177.018-.837.036-1.207.036-.928 0-1.431-.388-1.431-1.103v-3.71h2.655v-.88h-2.667V48.89h-1.019Zm8.797 8.463c1.74 0 2.85-1.133 2.85-2.91v-.994c0-1.776-1.11-2.91-2.85-2.91s-2.85 1.134-2.85 2.91v.994c0 1.777 1.11 2.91 2.85 2.91Zm0-5.905c1.128 0 1.831.8 1.831 2.092v.806c0 1.298-.703 2.092-1.83 2.092-1.128 0-1.832-.794-1.832-2.092v-.806c0-1.291.704-2.092 1.831-2.092Zm6.578 2.159h-.078V48.07h-1.031v9.161h1.031v-2.395l.909-.873 2.243 3.268h1.225l-2.734-3.971 2.552-2.607h-1.249l-2.868 2.953Zm10.55 1.928c-.182.576-.795.927-1.625.927-1.122 0-1.837-.776-1.837-1.982v-.267h4.48v-.643c0-1.904-1.006-3.037-2.716-3.037-1.673 0-2.783 1.14-2.783 2.873v.989c0 1.873 1.049 2.958 2.856 2.958 1.382 0 2.425-.733 2.625-1.818h-1Zm-1.704-4.117c1.061 0 1.704.758 1.704 2.013h-3.462c0-1.261.661-2.013 1.758-2.013Zm4.911 5.814h1.03v-3.874c0-1.122.728-1.88 1.813-1.88 1.025 0 1.51.558 1.51 1.747v4.007h1.03v-4.268c0-1.576-.776-2.431-2.206-2.431-1.001 0-1.753.46-2.104 1.279h-.085v-1.158h-.988v6.578Zm21.25-4.76v-1h-6.415v1h6.415Zm0 2.765v-1h-6.415v1h6.415Zm13.404-6.753-1.079 3.946h1.255l.74-3.946h-.916Zm-2.34 0-1.079 3.946h1.255l.74-3.946h-.916Zm8.918 8.748c1.88 0 2.995-.91 2.995-2.443 0-1.17-.77-2.025-1.946-2.14v-.091c.879-.152 1.504-.946 1.504-1.91 0-1.358-.97-2.164-2.583-2.164h-2.831v8.748h2.861Zm-1.8-7.827h1.528c1.115 0 1.746.515 1.746 1.43 0 .922-.667 1.426-1.91 1.426h-1.364v-2.856Zm0 6.9v-3.153h1.534c1.418 0 2.152.533 2.152 1.564 0 1.043-.728 1.588-2.116 1.588h-1.57Zm11.089-.77c-.182.576-.795.927-1.625.927-1.122 0-1.837-.776-1.837-1.982v-.267h4.48v-.643c0-1.904-1.006-3.037-2.716-3.037-1.673 0-2.783 1.14-2.783 2.873v.989c0 1.873 1.049 2.958 2.856 2.958 1.382 0 2.425-.733 2.625-1.818h-1Zm-1.704-4.117c1.061 0 1.704.758 1.704 2.013h-3.462c0-1.261.661-2.013 1.758-2.013Zm6.936 5.93c.958 0 1.673-.395 1.988-1.098h.103v.988h.982v-4.504c0-1.37-.885-2.159-2.431-2.159-1.346 0-2.364.722-2.485 1.777h1.012c.17-.564.703-.885 1.461-.885.916 0 1.419.454 1.419 1.279v.594l-1.807.09c-1.497.08-2.334.77-2.334 1.935 0 1.194.837 1.982 2.092 1.982Zm.297-.904c-.831 0-1.346-.424-1.346-1.116 0-.685.485-1.079 1.406-1.121l1.692-.079v.776c0 .88-.758 1.54-1.752 1.54Zm7.784-2.158c0-1.674.861-2.68 2.316-2.68.358 0 .782.073 1.085.182V50.63c-.218-.091-.575-.146-.951-.146-1.267 0-2.086.63-2.328 1.85h-.134v-1.68h-2.455v.825h1.461v4.929h-1.328v.824h4.371v-.824h-2.037v-2.122Zm9.713 1.249c-.182.576-.794.927-1.625.927-1.122 0-1.837-.776-1.837-1.982v-.267h4.48v-.643c0-1.904-1.006-3.037-2.716-3.037-1.673 0-2.783 1.14-2.783 2.873v.989c0 1.873 1.049 2.958 2.856 2.958 1.382 0 2.425-.733 2.625-1.818h-1Zm-1.704-4.117c1.061 0 1.704.758 1.704 2.013h-3.462c0-1.261.661-2.013 1.758-2.013Zm7.342 2.868c0-1.674.861-2.68 2.316-2.68.358 0 .782.073 1.085.182V50.63c-.218-.091-.576-.146-.951-.146-1.268 0-2.086.63-2.329 1.85h-.133v-1.68h-2.455v.825h1.461v4.929h-1.328v.824h4.371v-.824h-2.037v-2.122Zm17.873 2.946h1.128l-2.819-8.748h-1.14l-2.819 8.748h1.085l.764-2.51h3.043l.758 2.51Zm-2.292-7.463h.031l1.224 4.038h-2.485l1.23-4.038Zm8.118 7.572c1.522 0 2.516-1.097 2.516-2.789v-1.224c0-1.686-.994-2.783-2.516-2.783-.951 0-1.649.406-1.94 1.128h-.109V48.07H217.7v9.161h1.013v-1.006h.115c.34.727 1.031 1.115 1.97 1.115Zm-.303-.94c-1.079 0-1.77-.776-1.77-1.994v-.946c0-1.212.691-1.989 1.77-1.989 1.092 0 1.783.776 1.783 1.99v.945c0 1.212-.691 1.995-1.783 1.995Zm7.767 0c-1.419 0-2.159-.951-2.159-2.764v-1.558c0-1.813.74-2.765 2.153-2.765 1.121 0 1.903.794 1.94 1.977h1.085c-.037-1.868-1.176-2.99-3.019-2.99-2.056 0-3.25 1.39-3.25 3.778v1.558c0 2.389 1.194 3.777 3.25 3.777 1.788 0 3.013-1.146 3.013-2.837h-1.079c-.031 1.127-.77 1.825-1.934 1.825Zm7.063.94c.939 0 1.631-.388 1.97-1.115h.115v1.006h1.013v-9.16h-1.049v3.6h-.109c-.285-.72-.988-1.127-1.94-1.127-1.522 0-2.516 1.097-2.516 2.783v1.224c0 1.692.994 2.79 2.516 2.79Zm.303-.94c-1.085 0-1.783-.782-1.783-1.994v-.946c0-1.212.698-1.989 1.783-1.989 1.079 0 1.776.776 1.776 1.99v.945c0 1.219-.697 1.995-1.776 1.995Zm10.507-.151h-4.093v-3.007h3.868v-.94h-3.868v-2.837h4.093v-.982h-5.166v8.748h5.166v-.982Zm3.983.982h1.03v-5.68h2.892v-.88h-2.904v-.679c0-.66.485-1 1.401-1 .37 0 1.218.024 1.503.054v-.842c-.218-.03-1.133-.06-1.515-.06-1.619 0-2.407.593-2.407 1.866v.661h-1.764v.88h1.764v5.68Zm11.949 0v-.94h-2.461v-7.808h-1.049l-2.607 1.691v1.14l2.504-1.619h.097v6.596h-2.583v.94h6.099Zm1.583-6.287v.036h1.03v-.036c0-1.03.667-1.704 1.674-1.704 1.018 0 1.679.619 1.679 1.559 0 .69-.267 1.158-1.376 2.4l-2.959 3.292v.74h5.536v-.97h-4.008v-.103l2.061-2.243c1.395-1.522 1.807-2.25 1.807-3.159 0-1.461-1.103-2.455-2.71-2.455-1.594 0-2.734 1.103-2.734 2.643Zm9.397 2.231h1c1.213 0 1.983.649 1.983 1.667 0 .989-.746 1.607-1.946 1.607-1.091 0-1.868-.606-1.965-1.54h-1.012c.079 1.51 1.279 2.504 3.007 2.504 1.746 0 2.995-1.061 2.995-2.546 0-1.195-.691-2.013-1.855-2.165v-.097c.94-.23 1.491-.982 1.491-2.037 0-1.328-1.115-2.267-2.679-2.267-1.619 0-2.686.94-2.789 2.455h1.024c.085-.94.74-1.516 1.722-1.516.988 0 1.643.589 1.643 1.48 0 .915-.685 1.558-1.667 1.558h-.952v.897Zm9.767 4.056h.976v-1.849h1.34v-.94h-1.334v-2.485h-.97v2.497h-2.867v-.078l2.928-5.893h-1.091l-2.971 6.032v.867h3.989v1.85Zm6.578.176c1.777 0 2.983-1.2 2.983-2.97 0-1.723-1.128-2.93-2.746-2.93-.77 0-1.395.274-1.825.795h-.097l.242-2.855h3.941v-.964h-4.783l-.443 4.94h1.012c.346-.618.995-.975 1.777-.975 1.121 0 1.879.812 1.879 2.012 0 1.189-.751 1.983-1.879 1.983-1.025 0-1.807-.63-1.904-1.546h-1.031c.091 1.503 1.243 2.51 2.874 2.51Zm10.749-2.983c0-1.594-1.151-2.777-2.71-2.777-.557 0-1.188.261-1.449.613l-.091-.049c.043-.097.019-.073.285-.449l2.389-3.28h-1.231c-.06.092-1.879 2.638-1.958 2.771-.837 1.219-1.182 2.147-1.182 3.171 0 1.74 1.243 2.989 2.965 2.989 1.734 0 2.982-1.255 2.982-2.989Zm-2.976 2.037c-1.098 0-1.934-.86-1.934-1.982 0-1.128.836-1.989 1.934-1.989 1.103 0 1.94.861 1.94 1.989 0 1.121-.837 1.982-1.94 1.982Zm6.341-4.147 1.073-3.947h-1.249l-.739 3.947h.915Zm2.34 0 1.074-3.947h-1.249l-.74 3.947h.915Z" fill="#D9DFE9"/></g><defs><filter id="a" x="85.213" y="103.719" width="368.138" height="187.976" filterUnits="userSpaceOnUse" color-interpolation-filters="sRGB"><feFlood flood-opacity="0" result="BackgroundImageFix"/><feColorMatrix in="SourceAlpha" values="0 0 0 0 0 0 0 0 0 0 0 0 0 0 0 0 0 0 127 0"/><feMorphology radius="4.811" in="SourceAlpha" result="effect1_dropShadow"/><feOffset dy="3.207"/><feGaussianBlur stdDeviation="4.649"/><feColorMatrix values="0 0 0 0 0.141522 0 0 0 0 0.159783 0 0 0 0 0.21 0 0 0 0.2 0"/><feBlend in2="BackgroundImageFix" result="effect1_dropShadow"/><feBlend in="SourceGraphic" in2="effect1_dropShadow" result="shape"/></filter><filter id="b" x="30.803" y="37.62" width="293.278" height="35.87" filterUnits="userSpaceOnUse" color-interpolation-filters="sRGB"><feFlood flood-opacity="0" result="BackgroundImageFix"/><feColorMatrix in="SourceAlpha" values="0 0 0 0 0 0 0 0 0 0 0 0 0 0 0 0 0 0 127 0"/><feMorphology radius="4.139" in="SourceAlpha" result="effect1_dropShadow"/><feOffset dy="2.759"/><feGaussianBlur stdDeviation="4.139"/><feColorMatrix values="0 0 0 0 0.141522 0 0 0 0 0.159783 0 0 0 0 0.21 0 0 0 0.92 0"/><feBlend in2="BackgroundImageFix" result="effect1_dropShadow"/><feBlend in="SourceGraphic" in2="effect1_dropShadow" result="shape"/></filter></defs></svg>