<svg width="456" height="304" viewBox="0 0 456 304" fill="none" xmlns="http://www.w3.org/2000/svg">
<g opacity="0.98">
<path d="M7.86767 28.3145H8.89834V22.6337H11.7903V21.7546H8.88621V21.0756C8.88621 20.4148 9.37123 20.0753 10.2867 20.0753C10.6565 20.0753 11.5053 20.0995 11.7903 20.1298V19.2871C11.572 19.2568 10.6565 19.2265 10.2746 19.2265C8.65583 19.2265 7.86767 19.8206 7.86767 21.0938V21.7546H6.10342V22.6337H7.86767V28.3145ZM19.205 21.7364H18.1743V25.6105C18.1743 26.7321 17.4468 27.49 16.3616 27.49C15.337 27.49 14.8519 26.9322 14.8519 25.7439V21.7364H13.8213V26.0046C13.8213 27.5809 14.5973 28.4358 16.0281 28.4358C17.0285 28.4358 17.7803 27.975 18.1319 27.1565H18.2168V28.3145H19.205V21.7364ZM21.4967 28.3145H22.5274V24.4404C22.5274 23.3188 23.2549 22.561 24.3401 22.561C25.3647 22.561 25.8498 23.1187 25.8498 24.307V28.3145H26.8804V24.0463C26.8804 22.47 26.1044 21.6152 24.6736 21.6152C23.6732 21.6152 22.9215 22.076 22.5698 22.8944H22.4849V21.7364H21.4967V28.3145ZM34.6043 23.7856C34.4346 22.4337 33.4403 21.6091 31.9852 21.6091C30.1967 21.6091 29.1539 22.7065 29.1539 24.592V25.4529C29.1539 27.3384 30.1967 28.4358 31.9852 28.4358C33.4403 28.4358 34.4407 27.6173 34.6043 26.2774H33.5858C33.4585 27.0292 32.8158 27.5082 31.9671 27.5082C30.8212 27.5082 30.1846 26.7321 30.1846 25.3195V24.7254C30.1846 23.3128 30.8212 22.5307 31.9671 22.5307C32.8158 22.5307 33.4585 23.0157 33.5858 23.7856H34.6043ZM38.4178 19.9722V21.7546H36.6657V22.6337H38.4178V26.3562C38.4178 27.7264 39.1757 28.3448 40.8065 28.3448C41.1218 28.3448 41.9221 28.3145 42.0858 28.2842V27.4112C41.9099 27.4294 41.2491 27.4475 40.8793 27.4475C39.9517 27.4475 39.4485 27.0595 39.4485 26.3441V22.6337H42.104V21.7546H39.4364V19.9722H38.4178ZM47.33 20.1238C47.8151 20.1238 48.1849 19.76 48.1849 19.275C48.1849 18.796 47.8151 18.4323 47.33 18.4323C46.845 18.4323 46.4752 18.796 46.4752 19.275C46.4752 19.76 46.845 20.1238 47.33 20.1238ZM50.0886 28.3145V27.4597H47.9121V21.7364H44.6564V22.5913H46.8935V27.4597H44.6382V28.3145H50.0886ZM54.8903 28.4358C56.6303 28.4358 57.7398 27.302 57.7398 25.5257V24.5314C57.7398 22.755 56.6303 21.6213 54.8903 21.6213C53.1503 21.6213 52.0408 22.755 52.0408 24.5314V25.5257C52.0408 27.302 53.1503 28.4358 54.8903 28.4358ZM54.8903 22.5307C56.0179 22.5307 56.7212 23.3309 56.7212 24.6223V25.4287C56.7212 26.7261 56.0179 27.5203 54.8903 27.5203C53.7626 27.5203 53.0593 26.7261 53.0593 25.4287V24.6223C53.0593 23.3309 53.7626 22.5307 54.8903 22.5307ZM59.8738 28.3145H60.9045V24.4404C60.9045 23.3188 61.632 22.561 62.7173 22.561C63.7419 22.561 64.2269 23.1187 64.2269 24.307V28.3145H65.2576V24.0463C65.2576 22.47 64.4815 21.6152 63.0507 21.6152C62.0504 21.6152 61.2986 22.076 60.9469 22.8944H60.8621V21.7364H59.8738V28.3145Z" fill="#D767F8"/>
<path d="M168.7 23.9372C168.7 25.9985 169.318 27.781 170.525 29.1512H171.549C170.294 27.3869 169.767 25.8409 169.767 23.9372C169.767 22.0335 170.294 20.4875 171.549 18.7233H170.525C169.318 20.0934 168.7 21.8819 168.7 23.9372ZM176.575 19.9722V21.7546H174.823V22.6337H176.575V26.3562C176.575 27.7264 177.333 28.3448 178.964 28.3448C179.279 28.3448 180.08 28.3145 180.243 28.2842V27.4112C180.068 27.4294 179.407 27.4475 179.037 27.4475C178.109 27.4475 177.606 27.0595 177.606 26.3441V22.6337H180.262V21.7546H177.594V19.9722H176.575ZM185.373 28.4358C187.113 28.4358 188.222 27.302 188.222 25.5257V24.5314C188.222 22.755 187.113 21.6213 185.373 21.6213C183.633 21.6213 182.523 22.755 182.523 24.5314V25.5257C182.523 27.302 183.633 28.4358 185.373 28.4358ZM185.373 22.5307C186.5 22.5307 187.203 23.3309 187.203 24.6223V25.4287C187.203 26.7261 186.5 27.5203 185.373 27.5203C184.245 27.5203 183.542 26.7261 183.542 25.4287V24.6223C183.542 23.3309 184.245 22.5307 185.373 22.5307ZM191.951 24.689H191.872V19.1537H190.841V28.3145H191.872V25.9197L192.781 25.0467L195.024 28.3145H196.249L193.515 24.3434L196.067 21.7364H194.818L191.951 24.689ZM202.5 26.6169C202.318 27.1929 201.706 27.5445 200.875 27.5445C199.753 27.5445 199.038 26.7685 199.038 25.562V25.2953H203.518V24.6526C203.518 22.7489 202.512 21.6152 200.802 21.6152C199.129 21.6152 198.019 22.755 198.019 24.4889V25.4772C198.019 27.3505 199.068 28.4358 200.875 28.4358C202.257 28.4358 203.3 27.7022 203.5 26.6169H202.5ZM200.796 22.5003C201.857 22.5003 202.5 23.2582 202.5 24.5132H199.038C199.038 23.2521 199.699 22.5003 200.796 22.5003ZM205.707 28.3145H206.738V24.4404C206.738 23.3188 207.465 22.561 208.55 22.561C209.575 22.561 210.06 23.1187 210.06 24.307V28.3145H211.091V24.0463C211.091 22.47 210.315 21.6152 208.884 21.6152C207.883 21.6152 207.132 22.076 206.78 22.8944H206.695V21.7364H205.707V28.3145ZM217.396 23.9372C217.396 21.8819 216.777 20.0934 215.571 18.7233H214.546C215.801 20.4875 216.329 22.0335 216.329 23.9372C216.329 25.8409 215.801 27.3869 214.546 29.1512H215.571C216.777 27.781 217.396 25.9985 217.396 23.9372ZM226.114 29.1451V28.3145H225.453C224.544 28.3145 224.368 28.1023 224.368 27.0474V25.4287C224.368 24.5799 223.731 24.016 222.501 23.9918V23.8948C223.731 23.8645 224.368 23.3006 224.368 22.4518V20.8331C224.368 19.7782 224.544 19.566 225.453 19.566H226.114V18.7354H225.29C223.816 18.7354 223.349 19.2022 223.349 20.6997V22.0578C223.349 22.9975 222.804 23.5371 221.385 23.3916V24.4889C222.804 24.3434 223.349 24.8891 223.349 25.8227V27.1808C223.349 28.6783 223.816 29.1451 225.29 29.1451H226.114Z" fill="#ABB2BF"/>
<path d="M77.2496 28.4297C78.2076 28.4297 78.923 28.0356 79.2382 27.3324H79.3413V28.3206H80.3235V23.816C80.3235 22.4458 79.4383 21.6576 77.8923 21.6576C76.5464 21.6576 75.5278 22.3791 75.4066 23.434H76.4191C76.5888 22.8702 77.1223 22.5489 77.8802 22.5489C78.7956 22.5489 79.2989 23.0036 79.2989 23.8281V24.4222L77.4922 24.5132C75.9947 24.592 75.158 25.2831 75.158 26.4472C75.158 27.6416 75.9947 28.4297 77.2496 28.4297ZM77.5467 27.5264C76.7161 27.5264 76.2008 27.102 76.2008 26.4108C76.2008 25.7257 76.6858 25.3316 77.6073 25.2892L79.2989 25.2104V25.9864C79.2989 26.8655 78.541 27.5264 77.5467 27.5264ZM88.2838 21.7364H87.2532V25.6105C87.2532 26.7321 86.5256 27.49 85.4404 27.49C84.4158 27.49 83.9308 26.9322 83.9308 25.7439V21.7364H82.9001V26.0046C82.9001 27.5809 83.6761 28.4358 85.107 28.4358C86.1073 28.4358 86.8591 27.975 87.2107 27.1565H87.2956V28.3145H88.2838V21.7364ZM92.1458 19.9722V21.7546H90.3937V22.6337H92.1458V26.3562C92.1458 27.7264 92.9036 28.3448 94.5345 28.3448C94.8498 28.3448 95.6501 28.3145 95.8138 28.2842V27.4112C95.6379 27.4294 94.9771 27.4475 94.6073 27.4475C93.6797 27.4475 93.1765 27.0595 93.1765 26.3441V22.6337H95.8319V21.7546H93.1643V19.9722H92.1458ZM98.2449 28.3145H99.2756V24.4465C99.2756 23.3249 100.009 22.567 101.094 22.567C102.125 22.567 102.61 23.1309 102.61 24.3131V28.3145H103.641V24.0524C103.641 22.4822 102.865 21.6213 101.434 21.6213C100.427 21.6213 99.6696 22.082 99.3241 22.9005H99.2392V19.1537H98.2449V28.3145ZM110.395 26.6169C110.213 27.1929 109.6 27.5445 108.77 27.5445C107.648 27.5445 106.933 26.7685 106.933 25.562V25.2953H111.413V24.6526C111.413 22.7489 110.407 21.6152 108.697 21.6152C107.024 21.6152 105.914 22.755 105.914 24.4889V25.4772C105.914 27.3505 106.963 28.4358 108.77 28.4358C110.152 28.4358 111.195 27.7022 111.395 26.6169H110.395ZM108.691 22.5003C109.752 22.5003 110.395 23.2582 110.395 24.5132H106.933C106.933 23.2521 107.594 22.5003 108.691 22.5003ZM113.602 28.3145H114.632V24.4404C114.632 23.3188 115.36 22.561 116.445 22.561C117.47 22.561 117.955 23.1187 117.955 24.307V28.3145H118.986V24.0463C118.986 22.47 118.21 21.6152 116.779 21.6152C115.778 21.6152 115.027 22.076 114.675 22.8944H114.59V21.7364H113.602V28.3145ZM122.847 19.9722V21.7546H121.095V22.6337H122.847V26.3562C122.847 27.7264 123.605 28.3448 125.236 28.3448C125.551 28.3448 126.352 28.3145 126.515 28.2842V27.4112C126.34 27.4294 125.679 27.4475 125.309 27.4475C124.381 27.4475 123.878 27.0595 123.878 26.3441V22.6337H126.534V21.7546H123.866V19.9722H122.847ZM131.76 20.1238C132.245 20.1238 132.615 19.76 132.615 19.275C132.615 18.796 132.245 18.4323 131.76 18.4323C131.275 18.4323 130.905 18.796 130.905 19.275C130.905 19.76 131.275 20.1238 131.76 20.1238ZM134.518 28.3145V27.4597H132.342V21.7364H129.086V22.5913H131.323V27.4597H129.068V28.3145H134.518ZM142.06 23.7856C141.891 22.4337 140.896 21.6091 139.441 21.6091C137.653 21.6091 136.61 22.7065 136.61 24.592V25.4529C136.61 27.3384 137.653 28.4358 139.441 28.4358C140.896 28.4358 141.897 27.6173 142.06 26.2774H141.042C140.914 27.0292 140.272 27.5082 139.423 27.5082C138.277 27.5082 137.641 26.7321 137.641 25.3195V24.7254C137.641 23.3128 138.277 22.5307 139.423 22.5307C140.272 22.5307 140.914 23.0157 141.042 23.7856H142.06ZM146.328 28.4297C147.286 28.4297 148.002 28.0356 148.317 27.3324H148.42V28.3206H149.402V23.816C149.402 22.4458 148.517 21.6576 146.971 21.6576C145.625 21.6576 144.607 22.3791 144.485 23.434H145.498C145.668 22.8702 146.201 22.5489 146.959 22.5489C147.874 22.5489 148.378 23.0036 148.378 23.8281V24.4222L146.571 24.5132C145.073 24.592 144.237 25.2831 144.237 26.4472C144.237 27.6416 145.073 28.4297 146.328 28.4297ZM146.626 27.5264C145.795 27.5264 145.28 27.102 145.28 26.4108C145.28 25.7257 145.765 25.3316 146.686 25.2892L148.378 25.2104V25.9864C148.378 26.8655 147.62 27.5264 146.626 27.5264ZM153.549 19.9722V21.7546H151.797V22.6337H153.549V26.3562C153.549 27.7264 154.307 28.3448 155.938 28.3448C156.253 28.3448 157.053 28.3145 157.217 28.2842V27.4112C157.041 27.4294 156.381 27.4475 156.011 27.4475C155.083 27.4475 154.58 27.0595 154.58 26.3441V22.6337H157.235V21.7546H154.568V19.9722H153.549ZM164.123 26.6169C163.941 27.1929 163.328 27.5445 162.498 27.5445C161.376 27.5445 160.661 26.7685 160.661 25.562V25.2953H165.141V24.6526C165.141 22.7489 164.135 21.6152 162.425 21.6152C160.752 21.6152 159.642 22.755 159.642 24.4889V25.4772C159.642 27.3505 160.691 28.4358 162.498 28.4358C163.88 28.4358 164.923 27.7022 165.123 26.6169H164.123ZM162.419 22.5003C163.48 22.5003 164.123 23.2582 164.123 24.5132H160.661C160.661 23.2521 161.322 22.5003 162.419 22.5003Z" fill="#39A5FF"/>
</g>
<g filter="url(#filter0_d)">
<rect x="89.7013" y="105" width="359.162" height="179" rx="2.40536" fill="#343A4C"/>
<rect x="90.7013" y="106" width="357.162" height="177" rx="1.40536" stroke="#343A4C" stroke-width="2"/>
</g>
<path d="M149.056 141.648V132.621H152.129V131.479H144.744V132.621H147.816V141.648H149.056ZM157.358 141.789C159.38 141.789 160.67 140.471 160.67 138.407V137.251C160.67 135.186 159.38 133.868 157.358 133.868C155.335 133.868 154.046 135.186 154.046 137.251V138.407C154.046 140.471 155.335 141.789 157.358 141.789ZM157.358 134.925C158.669 134.925 159.486 135.856 159.486 137.357V138.294C159.486 139.802 158.669 140.725 157.358 140.725C156.047 140.725 155.23 139.802 155.23 138.294V137.357C155.23 135.856 156.047 134.925 157.358 134.925ZM166.279 136.278C166.977 136.278 167.555 135.686 167.555 134.975C167.555 134.263 166.977 133.671 166.279 133.671C165.582 133.671 165.004 134.263 165.004 134.975C165.004 135.686 165.582 136.278 166.279 136.278ZM166.279 141.69C166.977 141.69 167.555 141.106 167.555 140.387C167.555 139.675 166.977 139.09 166.279 139.09C165.582 139.09 165.004 139.675 165.004 140.387C165.004 141.106 165.582 141.69 166.279 141.69ZM181.339 136.067C181.339 137.152 182.022 137.85 183.403 138.167L184.538 138.428C185.51 138.646 185.884 138.97 185.884 139.576C185.884 140.309 185.221 140.781 184.178 140.781C183.192 140.781 182.515 140.373 182.339 139.668H181.12C181.254 140.979 182.403 141.789 184.136 141.789C185.947 141.789 187.124 140.873 187.124 139.464C187.124 138.357 186.448 137.709 184.961 137.371L183.883 137.124C182.924 136.913 182.53 136.581 182.53 135.997C182.53 135.299 183.157 134.848 184.129 134.848C185.024 134.848 185.665 135.257 185.806 135.926H186.962C186.821 134.651 185.743 133.854 184.15 133.854C182.466 133.854 181.339 134.742 181.339 136.067ZM195.108 139.675C194.897 140.345 194.185 140.753 193.22 140.753C191.916 140.753 191.084 139.851 191.084 138.449V138.139H196.292V137.392C196.292 135.179 195.122 133.861 193.135 133.861C191.19 133.861 189.901 135.186 189.901 137.202V138.35C189.901 140.528 191.12 141.789 193.22 141.789C194.826 141.789 196.038 140.936 196.271 139.675H195.108ZM193.128 134.89C194.361 134.89 195.108 135.771 195.108 137.23H191.084C191.084 135.764 191.853 134.89 193.128 134.89ZM205.15 136.384C204.953 134.813 203.797 133.854 202.106 133.854C200.027 133.854 198.815 135.13 198.815 137.321V138.322C198.815 140.514 200.027 141.789 202.106 141.789C203.797 141.789 204.96 140.838 205.15 139.28H203.966C203.818 140.154 203.071 140.711 202.085 140.711C200.753 140.711 200.013 139.809 200.013 138.167V137.476C200.013 135.834 200.753 134.925 202.085 134.925C203.071 134.925 203.818 135.489 203.966 136.384H205.15ZM214.015 134.002H212.817V138.505C212.817 139.809 211.972 140.69 210.71 140.69C209.519 140.69 208.956 140.041 208.956 138.66V134.002H207.758V138.963C207.758 140.796 208.66 141.789 210.323 141.789C211.485 141.789 212.359 141.254 212.768 140.302H212.867V141.648H214.015V134.002ZM219.505 138.223C219.505 136.278 220.506 135.109 222.197 135.109C222.613 135.109 223.106 135.193 223.458 135.32V133.974C223.204 133.868 222.789 133.805 222.352 133.805C220.879 133.805 219.928 134.538 219.646 135.954H219.491V134.002H216.637V134.961H218.335V140.69H216.792V141.648H221.873V140.69H219.505V138.223ZM228.863 132.128C229.427 132.128 229.857 131.705 229.857 131.141C229.857 130.584 229.427 130.162 228.863 130.162C228.299 130.162 227.87 130.584 227.87 131.141C227.87 131.705 228.299 132.128 228.863 132.128ZM232.07 141.648V140.655H229.54V134.002H225.755V134.996H228.356V140.655H225.734V141.648H232.07ZM236.347 131.952V134.023H234.31V135.045H236.347V139.372C236.347 140.965 237.228 141.683 239.124 141.683C239.49 141.683 240.42 141.648 240.61 141.613V140.598C240.406 140.619 239.638 140.64 239.208 140.64C238.13 140.64 237.545 140.189 237.545 139.358V135.045H240.632V134.023H237.531V131.952H236.347ZM244.43 144.368C245.846 144.368 246.488 143.812 247.157 141.93L250.039 134.002H248.764L246.629 140.401H246.537L244.395 134.002H243.091L245.903 141.698L245.769 142.113C245.452 143.001 245.057 143.325 244.338 143.325C244.226 143.325 244.007 143.318 243.915 143.297V144.347C244.021 144.361 244.254 144.368 244.43 144.368ZM255.705 143.043C256.396 143.043 257.093 142.931 257.432 142.769V141.937C257.136 142.085 256.466 142.191 255.832 142.191C253.69 142.191 252.71 140.781 252.71 137.66V136.567C252.71 133.495 253.619 132.107 255.592 132.107C257.439 132.107 258.397 133.333 258.397 135.736V137.716C258.397 138.421 258.157 138.681 257.509 138.681H256.353V135.757C256.353 135.228 256.086 134.897 255.677 134.897C255.261 134.897 254.993 135.228 254.993 135.757V138.639C254.993 139.161 255.324 139.492 255.853 139.492H257.65C258.665 139.492 259.257 138.822 259.257 137.688V135.581C259.257 132.797 257.939 131.254 255.599 131.254C253.14 131.254 251.836 133.072 251.836 136.504V137.822C251.836 141.254 253.168 143.043 255.705 143.043ZM263.64 141.782C264.753 141.782 265.585 141.324 265.951 140.507H266.071V141.655H267.213V136.419C267.213 134.827 266.184 133.911 264.387 133.911C262.822 133.911 261.639 134.749 261.498 135.975H262.674C262.872 135.32 263.492 134.947 264.373 134.947C265.437 134.947 266.022 135.475 266.022 136.433V137.124L263.922 137.23C262.181 137.321 261.209 138.125 261.209 139.478C261.209 140.866 262.181 141.782 263.64 141.782ZM263.985 140.732C263.02 140.732 262.421 140.239 262.421 139.435C262.421 138.639 262.985 138.181 264.056 138.132L266.022 138.04V138.942C266.022 139.964 265.141 140.732 263.985 140.732ZM276.522 136.384C276.324 134.813 275.169 133.854 273.477 133.854C271.399 133.854 270.186 135.13 270.186 137.321V138.322C270.186 140.514 271.399 141.789 273.477 141.789C275.169 141.789 276.331 140.838 276.522 139.28H275.338C275.19 140.154 274.443 140.711 273.456 140.711C272.124 140.711 271.384 139.809 271.384 138.167V137.476C271.384 135.834 272.124 134.925 273.456 134.925C274.443 134.925 275.19 135.489 275.338 136.384H276.522ZM285.943 136.018C285.943 134.601 285.387 133.861 284.323 133.861C283.555 133.861 282.941 134.326 282.744 135.059H282.617C282.455 134.305 281.948 133.861 281.229 133.861C280.51 133.861 279.961 134.312 279.77 135.08H279.643V134.002H278.572V141.648H279.651V136.49C279.651 135.538 280.073 134.954 280.75 134.954C281.398 134.954 281.736 135.44 281.736 136.363V141.648H282.808V136.49C282.808 135.538 283.216 134.954 283.886 134.954C284.527 134.954 284.865 135.44 284.865 136.37V141.648H285.943V136.018ZM293.244 139.675C293.033 140.345 292.321 140.753 291.356 140.753C290.052 140.753 289.22 139.851 289.22 138.449V138.139H294.428V137.392C294.428 135.179 293.258 133.861 291.271 133.861C289.326 133.861 288.036 135.186 288.036 137.202V138.35C288.036 140.528 289.256 141.789 291.356 141.789C292.962 141.789 294.174 140.936 294.407 139.675H293.244ZM291.264 134.89C292.497 134.89 293.244 135.771 293.244 137.23H289.22C289.22 135.764 289.988 134.89 291.264 134.89ZM303.286 136.384C303.089 134.813 301.933 133.854 300.242 133.854C298.163 133.854 296.951 135.13 296.951 137.321V138.322C296.951 140.514 298.163 141.789 300.242 141.789C301.933 141.789 303.096 140.838 303.286 139.28H302.102C301.954 140.154 301.207 140.711 300.221 140.711C298.889 140.711 298.149 139.809 298.149 138.167V137.476C298.149 135.834 298.889 134.925 300.221 134.925C301.207 134.925 301.954 135.489 302.102 136.384H303.286ZM309.022 141.789C311.045 141.789 312.334 140.471 312.334 138.407V137.251C312.334 135.186 311.045 133.868 309.022 133.868C307 133.868 305.71 135.186 305.71 137.251V138.407C305.71 140.471 307 141.789 309.022 141.789ZM309.022 134.925C310.333 134.925 311.15 135.856 311.15 137.357V138.294C311.15 139.802 310.333 140.725 309.022 140.725C307.711 140.725 306.894 139.802 306.894 138.294V137.357C306.894 135.856 307.711 134.925 309.022 134.925ZM317.641 138.223C317.641 136.278 318.641 135.109 320.333 135.109C320.748 135.109 321.242 135.193 321.594 135.32V133.974C321.34 133.868 320.925 133.805 320.488 133.805C319.015 133.805 318.063 134.538 317.782 135.954H317.627V134.002H314.773V134.961H316.471V140.69H314.928V141.648H320.008V140.69H317.641V138.223ZM327.344 133.875C326.252 133.875 325.456 134.326 325.054 135.172H324.927V134.002H323.743V144.227H324.962V140.464H325.096C325.428 141.303 326.238 141.775 327.344 141.775C329.113 141.775 330.269 140.5 330.269 138.54V137.117C330.269 135.151 329.113 133.875 327.344 133.875ZM326.999 134.975C328.26 134.975 329.064 135.877 329.064 137.286V138.385C329.064 139.795 328.26 140.704 326.999 140.704C325.738 140.704 324.934 139.802 324.934 138.385V137.286C324.934 135.877 325.738 134.975 326.999 134.975ZM335.787 141.69C336.484 141.69 337.062 141.106 337.062 140.387C337.062 139.675 336.484 139.09 335.787 139.09C335.089 139.09 334.511 139.675 334.511 140.387C334.511 141.106 335.089 141.69 335.787 141.69ZM347.893 136.384C347.696 134.813 346.54 133.854 344.849 133.854C342.77 133.854 341.558 135.13 341.558 137.321V138.322C341.558 140.514 342.77 141.789 344.849 141.789C346.54 141.789 347.703 140.838 347.893 139.28H346.709C346.561 140.154 345.814 140.711 344.828 140.711C343.496 140.711 342.756 139.809 342.756 138.167V137.476C342.756 135.834 343.496 134.925 344.828 134.925C345.814 134.925 346.561 135.489 346.709 136.384H347.893ZM353.629 141.789C355.652 141.789 356.941 140.471 356.941 138.407V137.251C356.941 135.186 355.652 133.868 353.629 133.868C351.607 133.868 350.317 135.186 350.317 137.251V138.407C350.317 140.471 351.607 141.789 353.629 141.789ZM353.629 134.925C354.94 134.925 355.758 135.856 355.758 137.357V138.294C355.758 139.802 354.94 140.725 353.629 140.725C352.319 140.725 351.501 139.802 351.501 138.294V137.357C351.501 135.856 352.319 134.925 353.629 134.925Z" fill="#DBE2F0"/>
<path d="M151.783 219.088V206.934H156.038V204.4H144.464V206.934H148.709V219.088H151.783ZM160.089 219.322C163.387 219.322 165.494 217.215 165.494 213.622C165.494 210.079 163.356 207.942 160.089 207.942C156.821 207.942 154.684 210.09 154.684 213.622C154.684 217.205 156.791 219.322 160.089 219.322ZM160.089 217.052C158.623 217.052 157.697 215.82 157.697 213.632C157.697 211.464 158.643 210.212 160.089 210.212C161.534 210.212 162.471 211.464 162.471 213.632C162.471 215.82 161.544 217.052 160.089 217.052ZM170.115 212.553H170.074V204.4H167.102V219.088H170.074V215.484L170.848 214.65L173.973 219.088H177.393L173.026 212.858L177.189 208.176H173.82L170.115 212.553ZM184.966 215.749C184.691 216.584 183.857 217.123 182.767 217.123C181.251 217.123 180.263 216.055 180.263 214.497V214.314H187.786V213.408C187.786 210.09 185.78 207.942 182.605 207.942C179.378 207.942 177.342 210.202 177.342 213.683C177.342 217.174 179.358 219.322 182.717 219.322C185.414 219.322 187.368 217.887 187.694 215.749H184.966ZM182.635 210.141C183.958 210.141 184.864 211.097 184.925 212.492H180.294C180.396 211.128 181.332 210.141 182.635 210.141ZM189.323 219.088H192.295V212.828C192.295 211.413 193.14 210.436 194.473 210.436C195.807 210.436 196.478 211.25 196.478 212.675V219.088H199.451V212.054C199.451 209.499 198.087 207.972 195.664 207.972C193.985 207.972 192.834 208.766 192.254 210.12H192.193V208.176H189.323V219.088ZM205.466 219.088H208.439V212.502C208.439 211.281 209.202 210.426 210.332 210.426C211.431 210.426 212.093 211.118 212.093 212.288V219.088H214.953V212.461C214.953 211.25 215.696 210.426 216.826 210.426C217.976 210.426 218.607 211.118 218.607 212.38V219.088H221.58V211.637C221.58 209.438 220.144 207.972 218.007 207.972C216.409 207.972 215.106 208.838 214.617 210.212H214.556C214.19 208.787 213.09 207.972 211.513 207.972C210.027 207.972 208.856 208.838 208.398 210.151H208.337V208.176H205.466V219.088ZM228.471 219.322C231.769 219.322 233.876 217.215 233.876 213.622C233.876 210.079 231.738 207.942 228.471 207.942C225.203 207.942 223.066 210.09 223.066 213.622C223.066 217.205 225.173 219.322 228.471 219.322ZM228.471 217.052C227.005 217.052 226.079 215.82 226.079 213.632C226.079 211.464 227.025 210.212 228.471 210.212C229.916 210.212 230.853 211.464 230.853 213.632C230.853 215.82 229.926 217.052 228.471 217.052ZM235.413 219.088H238.385V212.828C238.385 211.413 239.23 210.436 240.563 210.436C241.897 210.436 242.569 211.25 242.569 212.675V219.088H245.541V212.054C245.541 209.499 244.177 207.972 241.754 207.972C240.075 207.972 238.925 208.766 238.344 210.12H238.283V208.176H235.413V219.088ZM248.951 206.7C249.816 206.7 250.498 206.008 250.498 205.173C250.498 204.328 249.816 203.646 248.951 203.646C248.086 203.646 247.404 204.328 247.404 205.173C247.404 206.008 248.086 206.7 248.951 206.7ZM247.475 219.088H250.447V208.176H247.475V219.088ZM253.226 205.662V208.176H251.689V210.415H253.226V216.146C253.226 218.274 254.224 219.129 256.789 219.129C257.389 219.129 257.898 219.078 258.203 219.006V216.818C258.02 216.848 257.745 216.869 257.481 216.869C256.605 216.869 256.198 216.472 256.198 215.637V210.415H258.214V208.176H256.198V205.662H253.226ZM264.687 219.322C267.985 219.322 270.092 217.215 270.092 213.622C270.092 210.079 267.955 207.942 264.687 207.942C261.42 207.942 259.282 210.09 259.282 213.622C259.282 217.205 261.389 219.322 264.687 219.322ZM264.687 217.052C263.222 217.052 262.295 215.82 262.295 213.632C262.295 211.464 263.242 210.212 264.687 210.212C266.133 210.212 267.069 211.464 267.069 213.632C267.069 215.82 266.143 217.052 264.687 217.052ZM271.629 219.088H274.602V212.991C274.602 211.454 275.457 210.558 276.923 210.558C277.35 210.558 277.757 210.629 278.001 210.731V208.115C277.798 208.054 277.503 208.003 277.157 208.003C275.874 208.003 274.948 208.756 274.561 210.141H274.5V208.176H271.629V219.088ZM148.803 239.088V230.061H152.009V228.919H144.328V230.061H147.534V239.088H148.803ZM153.221 239.088H154.447V234.817C154.447 233.549 155.201 232.717 156.42 232.717C157.569 232.717 158.154 233.415 158.154 234.578V239.088H159.38V234.352C159.38 232.717 158.408 231.632 156.801 231.632C155.688 231.632 154.884 232.111 154.476 232.929H154.447V228.919H153.221V239.088ZM165.8 236.988C165.596 237.678 164.912 238.151 163.982 238.151C162.664 238.151 161.84 237.227 161.84 235.825V235.755H167.097V235.29C167.097 233.07 165.878 231.632 163.897 231.632C161.875 231.632 160.578 233.175 160.578 235.452C160.578 237.756 161.854 239.215 163.954 239.215C165.553 239.215 166.794 238.27 167.005 236.988H165.8ZM163.876 232.696C165.032 232.696 165.8 233.57 165.828 234.796H161.847C161.924 233.577 162.728 232.696 163.876 232.696ZM168.337 239.088H169.563V234.521C169.563 233.486 170.183 232.802 171.135 232.802C171.43 232.802 171.691 232.837 171.79 232.872V231.681C171.691 231.667 171.508 231.632 171.297 231.632C170.437 231.632 169.76 232.147 169.521 232.957H169.493V231.759H168.337V239.088ZM177.301 236.988C177.096 237.678 176.413 238.151 175.482 238.151C174.165 238.151 173.34 237.227 173.34 235.825V235.755H178.597V235.29C178.597 233.07 177.378 231.632 175.398 231.632C173.375 231.632 172.079 233.175 172.079 235.452C172.079 237.756 173.354 239.215 175.454 239.215C177.054 239.215 178.294 238.27 178.506 236.988H177.301ZM175.377 232.696C176.532 232.696 177.301 233.57 177.329 234.796H173.347C173.425 233.577 174.228 232.696 175.377 232.696ZM192.12 231.759H190.908L189.442 237.721H189.414L187.751 231.759H186.567L184.911 237.721H184.883L183.417 231.759H182.198L184.249 239.088H185.496L187.145 233.415H187.173L188.829 239.088H190.077L192.12 231.759ZM195.129 239.215C196.116 239.215 197.046 238.665 197.483 237.826H197.511V239.088H198.674V234.021C198.674 232.562 197.589 231.632 195.869 231.632C194.136 231.632 193.051 232.605 192.966 233.873H194.15C194.305 233.154 194.897 232.71 195.841 232.71C196.856 232.71 197.448 233.246 197.448 234.141V234.754L195.348 234.874C193.657 234.972 192.691 235.762 192.691 237.016C192.691 238.334 193.671 239.215 195.129 239.215ZM195.404 238.172C194.523 238.172 193.938 237.714 193.938 237.016C193.938 236.325 194.502 235.889 195.489 235.825L197.448 235.705V236.304C197.448 237.361 196.56 238.172 195.404 238.172ZM200.105 233.781C200.105 234.839 200.774 235.48 202.155 235.811L203.318 236.093C204.157 236.297 204.445 236.6 204.445 237.129C204.445 237.791 203.832 238.214 202.839 238.214C201.845 238.214 201.281 237.812 201.133 236.974H199.907C200.048 238.348 201.119 239.215 202.839 239.215C204.474 239.215 205.679 238.313 205.679 237.037C205.679 235.987 205.143 235.409 203.663 235.05L202.5 234.768C201.683 234.571 201.31 234.225 201.31 233.718C201.31 233.077 201.902 232.633 202.796 232.633C203.698 232.633 204.262 233.105 204.354 233.873H205.524C205.474 232.576 204.403 231.632 202.796 231.632C201.211 231.632 200.105 232.527 200.105 233.781ZM212.535 239.088H213.762V228.919H212.521L209.815 230.864V232.14L212.507 230.265H212.535V239.088ZM219.272 239.088H220.498V234.775C220.498 233.535 221.252 232.717 222.408 232.717C223.536 232.717 224.092 233.366 224.092 234.55V239.088H225.319V234.331C225.319 232.668 224.388 231.632 222.782 231.632C221.647 231.632 220.865 232.14 220.456 232.929H220.428V231.759H219.272V239.088ZM231.745 236.988C231.541 237.678 230.857 238.151 229.927 238.151C228.609 238.151 227.785 237.227 227.785 235.825V235.755H233.042V235.29C233.042 233.07 231.823 231.632 229.843 231.632C227.82 231.632 226.524 233.175 226.524 235.452C226.524 237.756 227.799 239.215 229.899 239.215C231.499 239.215 232.739 238.27 232.95 236.988H231.745ZM229.822 232.696C230.977 232.696 231.745 233.57 231.774 234.796H227.792C227.87 233.577 228.673 232.696 229.822 232.696ZM243.605 231.759H242.393L240.928 237.721H240.899L239.236 231.759H238.052L236.396 237.721H236.368L234.902 231.759H233.683L235.734 239.088H236.981L238.63 233.415H238.658L240.314 239.088H241.562L243.605 231.759ZM247.446 233.781C247.446 234.839 248.115 235.48 249.497 235.811L250.659 236.093C251.498 236.297 251.787 236.6 251.787 237.129C251.787 237.791 251.174 238.214 250.18 238.214C249.187 238.214 248.623 237.812 248.475 236.974H247.249C247.39 238.348 248.461 239.215 250.18 239.215C251.815 239.215 253.02 238.313 253.02 237.037C253.02 235.987 252.484 235.409 251.005 235.05L249.842 234.768C249.024 234.571 248.651 234.225 248.651 233.718C248.651 233.077 249.243 232.633 250.138 232.633C251.04 232.633 251.604 233.105 251.695 233.873H252.865C252.816 232.576 251.745 231.632 250.138 231.632C248.552 231.632 247.446 232.527 247.446 233.781ZM259.158 236.988C258.954 237.678 258.27 238.151 257.34 238.151C256.022 238.151 255.198 237.227 255.198 235.825V235.755H260.455V235.29C260.455 233.07 259.235 231.632 257.255 231.632C255.233 231.632 253.936 233.175 253.936 235.452C253.936 237.756 255.212 239.215 257.312 239.215C258.911 239.215 260.152 238.27 260.363 236.988H259.158ZM257.234 232.696C258.39 232.696 259.158 233.57 259.186 234.796H255.205C255.282 233.577 256.085 232.696 257.234 232.696ZM263.837 239.215C264.824 239.215 265.754 238.665 266.191 237.826H266.219V239.088H267.382V234.021C267.382 232.562 266.297 231.632 264.577 231.632C262.844 231.632 261.758 232.605 261.674 233.873H262.858C263.013 233.154 263.605 232.71 264.549 232.71C265.564 232.71 266.156 233.246 266.156 234.141V234.754L264.056 234.874C262.364 234.972 261.399 235.762 261.399 237.016C261.399 238.334 262.378 239.215 263.837 239.215ZM264.112 238.172C263.231 238.172 262.646 237.714 262.646 237.016C262.646 236.325 263.21 235.889 264.197 235.825L266.156 235.705V236.304C266.156 237.361 265.268 238.172 264.112 238.172ZM268.939 239.088H270.165V234.521C270.165 233.486 270.785 232.802 271.737 232.802C272.033 232.802 272.293 232.837 272.392 232.872V231.681C272.293 231.667 272.11 231.632 271.899 231.632C271.039 231.632 270.363 232.147 270.123 232.957H270.095V231.759H268.939V239.088ZM279.129 234.162C278.974 232.844 277.882 231.632 276.049 231.632C274.027 231.632 272.681 233.112 272.681 235.423C272.681 237.784 274.034 239.215 276.064 239.215C277.727 239.215 278.953 238.186 279.143 236.727H277.938C277.727 237.608 277.071 238.136 276.071 238.136C274.802 238.136 273.928 237.129 273.928 235.423C273.928 233.76 274.788 232.71 276.057 232.71C277.135 232.71 277.755 233.366 277.931 234.162H279.129ZM280.334 239.088H281.56V234.817C281.56 233.549 282.314 232.717 283.533 232.717C284.682 232.717 285.267 233.415 285.267 234.578V239.088H286.493V234.352C286.493 232.717 285.521 231.632 283.914 231.632C282.8 231.632 281.997 232.111 281.588 232.929H281.56V228.919H280.334V239.088ZM291.01 239.088H292.236V234.521C292.236 233.486 292.856 232.802 293.808 232.802C294.104 232.802 294.365 232.837 294.463 232.872V231.681C294.365 231.667 294.181 231.632 293.97 231.632C293.11 231.632 292.434 232.147 292.194 232.957H292.166V231.759H291.01V239.088ZM299.974 236.988C299.77 237.678 299.086 238.151 298.156 238.151C296.838 238.151 296.014 237.227 296.014 235.825V235.755H301.271V235.29C301.271 233.07 300.051 231.632 298.071 231.632C296.049 231.632 294.752 233.175 294.752 235.452C294.752 237.756 296.028 239.215 298.128 239.215C299.727 239.215 300.968 238.27 301.179 236.988H299.974ZM298.05 232.696C299.206 232.696 299.974 233.57 300.002 234.796H296.021C296.098 233.577 296.901 232.696 298.05 232.696ZM302.384 233.781C302.384 234.839 303.053 235.48 304.435 235.811L305.597 236.093C306.436 236.297 306.725 236.6 306.725 237.129C306.725 237.791 306.112 238.214 305.118 238.214C304.125 238.214 303.561 237.812 303.413 236.974H302.187C302.328 238.348 303.399 239.215 305.118 239.215C306.753 239.215 307.958 238.313 307.958 237.037C307.958 235.987 307.423 235.409 305.943 235.05L304.78 234.768C303.962 234.571 303.589 234.225 303.589 233.718C303.589 233.077 304.181 232.633 305.076 232.633C305.978 232.633 306.542 233.105 306.633 233.873H307.803C307.754 232.576 306.683 231.632 305.076 231.632C303.49 231.632 302.384 232.527 302.384 233.781ZM315.252 231.759H314.025V236.065C314.025 237.312 313.307 238.129 312.116 238.129C310.981 238.129 310.424 237.488 310.424 236.297V231.759H309.198V236.516C309.198 238.179 310.136 239.215 311.735 239.215C312.863 239.215 313.624 238.743 314.061 237.897H314.089V239.088H315.252V231.759ZM316.908 239.088H318.134V228.919H316.908V239.088ZM320.185 229.99V231.759H319.092V232.767H320.185V237.185C320.185 238.595 320.706 239.144 322.052 239.144C322.341 239.144 322.679 239.123 322.827 239.088V238.059C322.743 238.073 322.461 238.094 322.32 238.094C321.693 238.094 321.411 237.791 321.411 237.122V232.767H322.834V231.759H321.411V229.99H320.185ZM327.499 239.088H328.725V232.767H330.219V231.759H328.718V230.949C328.718 230.223 329.035 229.87 329.698 229.87C329.902 229.87 330.107 229.892 330.255 229.913V228.919C330.078 228.891 329.782 228.863 329.508 228.863C328.155 228.863 327.499 229.532 327.499 230.942V231.759H326.477V232.767H327.499V239.088ZM334.173 239.215C336.195 239.215 337.562 237.756 337.562 235.423C337.562 233.084 336.195 231.632 334.173 231.632C332.143 231.632 330.776 233.084 330.776 235.423C330.776 237.756 332.143 239.215 334.173 239.215ZM334.173 238.136C332.876 238.136 332.023 237.15 332.023 235.423C332.023 233.697 332.876 232.71 334.173 232.71C335.469 232.71 336.315 233.697 336.315 235.423C336.315 237.15 335.469 238.136 334.173 238.136ZM338.803 239.088H340.029V234.521C340.029 233.486 340.649 232.802 341.6 232.802C341.896 232.802 342.157 232.837 342.256 232.872V231.681C342.157 231.667 341.974 231.632 341.762 231.632C340.903 231.632 340.226 232.147 339.986 232.957H339.958V231.759H338.803V239.088ZM346.829 241.829C348.154 241.829 348.76 241.315 349.387 239.602L352.269 231.759H350.98L348.95 237.862H348.929L346.9 231.759H345.589L348.295 239.095L348.126 239.609C347.844 240.462 347.463 240.793 346.78 240.793C346.625 240.793 346.434 240.786 346.301 240.758V241.787C346.434 241.815 346.681 241.829 346.829 241.829ZM356.061 239.215C358.083 239.215 359.45 237.756 359.45 235.423C359.45 233.084 358.083 231.632 356.061 231.632C354.031 231.632 352.664 233.084 352.664 235.423C352.664 237.756 354.031 239.215 356.061 239.215ZM356.061 238.136C354.764 238.136 353.911 237.15 353.911 235.423C353.911 233.697 354.764 232.71 356.061 232.71C357.357 232.71 358.203 233.697 358.203 235.423C358.203 237.15 357.357 238.136 356.061 238.136ZM366.708 231.759H365.482V236.065C365.482 237.312 364.764 238.129 363.573 238.129C362.438 238.129 361.881 237.488 361.881 236.297V231.759H360.655V236.516C360.655 238.179 361.592 239.215 363.192 239.215C364.32 239.215 365.081 238.743 365.518 237.897H365.546V239.088H366.708V231.759ZM368.301 239.088H369.527V234.521C369.527 233.486 370.147 232.802 371.099 232.802C371.395 232.802 371.655 232.837 371.754 232.872V231.681C371.655 231.667 371.472 231.632 371.261 231.632C370.401 231.632 369.725 232.147 369.485 232.957H369.457V231.759H368.301V239.088ZM378.477 231.632C376.595 231.632 375.355 233.119 375.355 235.423C375.355 237.721 376.595 239.215 378.449 239.215C379.485 239.215 380.337 238.7 380.795 237.862H380.824V241.533H382.05V231.759H380.88V232.999H380.852C380.38 232.154 379.541 231.632 378.477 231.632ZM378.695 238.136C377.413 238.136 376.609 237.094 376.609 235.423C376.609 233.746 377.413 232.71 378.695 232.71C379.95 232.71 380.824 233.789 380.824 235.423C380.824 237.058 379.95 238.136 378.695 238.136ZM389.667 231.759H388.441V236.065C388.441 237.312 387.722 238.129 386.532 238.129C385.397 238.129 384.84 237.488 384.84 236.297V231.759H383.614V236.516C383.614 238.179 384.551 239.215 386.151 239.215C387.279 239.215 388.04 238.743 388.477 237.897H388.505V239.088H389.667V231.759ZM396.122 236.988C395.918 237.678 395.235 238.151 394.304 238.151C392.987 238.151 392.162 237.227 392.162 235.825V235.755H397.419V235.29C397.419 233.07 396.2 231.632 394.22 231.632C392.197 231.632 390.901 233.175 390.901 235.452C390.901 237.756 392.176 239.215 394.276 239.215C395.876 239.215 397.116 238.27 397.327 236.988H396.122ZM394.199 232.696C395.354 232.696 396.122 233.57 396.151 234.796H392.169C392.247 233.577 393.05 232.696 394.199 232.696ZM398.659 239.088H399.886V234.521C399.886 233.486 400.506 232.802 401.457 232.802C401.753 232.802 402.014 232.837 402.112 232.872V231.681C402.014 231.667 401.83 231.632 401.619 231.632C400.759 231.632 400.083 232.147 399.843 232.957H399.815V231.759H398.659V239.088ZM403.726 241.829C405.051 241.829 405.657 241.315 406.284 239.602L409.166 231.759H407.877L405.847 237.862H405.826L403.797 231.759H402.486L405.192 239.095L405.023 239.609C404.741 240.462 404.36 240.793 403.677 240.793C403.522 240.793 403.331 240.786 403.198 240.758V241.787C403.331 241.815 403.578 241.829 403.726 241.829Z" fill="#DBE2F0"/>
<line x1="129.957" y1="183.664" x2="448.437" y2="183.665" stroke="#262B38" stroke-width="1.16234"/>
<path d="M144.884 165.319C144.99 167.123 146.364 168.236 148.464 168.236C150.593 168.236 151.967 167.074 151.967 165.248C151.967 163.719 151.135 162.859 149.162 162.373L148.274 162.148C146.949 161.817 146.385 161.309 146.385 160.428C146.385 159.392 147.168 158.772 148.471 158.772C149.669 158.772 150.445 159.392 150.571 160.442H151.783C151.699 158.751 150.381 157.645 148.464 157.645C146.435 157.645 145.131 158.765 145.131 160.499C145.131 161.972 145.984 162.867 147.872 163.346L148.746 163.564C150.12 163.902 150.712 164.431 150.712 165.312C150.712 166.404 149.824 167.109 148.471 167.109C147.118 167.109 146.223 166.432 146.097 165.319H144.884ZM160.416 160.379H159.218V164.882C159.218 166.186 158.372 167.067 157.111 167.067C155.92 167.067 155.356 166.418 155.356 165.037V160.379H154.158V165.34C154.158 167.172 155.06 168.166 156.723 168.166C157.886 168.166 158.76 167.63 159.169 166.679H159.267V168.025H160.416V160.379ZM166.688 168.152C168.457 168.152 169.612 166.876 169.612 164.91V163.487C169.612 161.528 168.457 160.252 166.688 160.252C165.581 160.252 164.771 160.724 164.433 161.563H164.306V157.377H163.087V168.025H164.264V166.855H164.397C164.792 167.701 165.595 168.152 166.688 168.152ZM166.335 167.059C165.081 167.059 164.278 166.157 164.278 164.741V163.642C164.278 162.232 165.081 161.33 166.335 161.33C167.604 161.33 168.407 162.232 168.407 163.642V164.741C168.407 166.15 167.604 167.059 166.335 167.059ZM176.138 158.504C176.701 158.504 177.131 158.082 177.131 157.518C177.131 156.961 176.701 156.538 176.138 156.538C175.574 156.538 175.144 156.961 175.144 157.518C175.144 158.082 175.574 158.504 176.138 158.504ZM176.828 160.379H172.156V161.373H175.651V167.842C175.651 168.934 175.222 169.272 173.798 169.272C173.333 169.272 172.346 169.251 171.98 169.216V170.287C172.487 170.329 173.305 170.343 173.833 170.343C175.962 170.343 176.828 169.674 176.828 167.983V160.379ZM186.116 166.052C185.905 166.721 185.193 167.13 184.228 167.13C182.924 167.13 182.092 166.228 182.092 164.826V164.516H187.3V163.769C187.3 161.556 186.13 160.238 184.143 160.238C182.198 160.238 180.908 161.563 180.908 163.578V164.727C180.908 166.904 182.128 168.166 184.228 168.166C185.834 168.166 187.046 167.313 187.279 166.052H186.116ZM184.136 161.267C185.369 161.267 186.116 162.148 186.116 163.606H182.092C182.092 162.141 182.86 161.267 184.136 161.267ZM196.158 162.761C195.961 161.189 194.805 160.231 193.114 160.231C191.035 160.231 189.823 161.506 189.823 163.698V164.699C189.823 166.89 191.035 168.166 193.114 168.166C194.805 168.166 195.968 167.215 196.158 165.657H194.974C194.826 166.531 194.079 167.088 193.093 167.088C191.761 167.088 191.021 166.186 191.021 164.544V163.853C191.021 162.211 191.761 161.302 193.093 161.302C194.079 161.302 194.826 161.866 194.974 162.761H196.158ZM200.591 158.328V160.4H198.554V161.422H200.591V165.749C200.591 167.341 201.471 168.06 203.367 168.06C203.734 168.06 204.664 168.025 204.854 167.99V166.975C204.65 166.996 203.882 167.017 203.452 167.017C202.373 167.017 201.789 166.566 201.789 165.735V161.422H204.875V160.4H201.775V158.328H200.591ZM210.816 162.655C211.513 162.655 212.091 162.063 212.091 161.351C212.091 160.64 211.513 160.048 210.816 160.048C210.118 160.048 209.54 160.64 209.54 161.351C209.54 162.063 210.118 162.655 210.816 162.655ZM210.816 168.067C211.513 168.067 212.091 167.482 212.091 166.763C212.091 166.052 211.513 165.467 210.816 165.467C210.118 165.467 209.54 166.052 209.54 166.763C209.54 167.482 210.118 168.067 210.816 168.067ZM229.279 168.025V158.998H232.351V157.856H224.966V158.998H228.038V168.025H229.279ZM237.58 168.166C239.603 168.166 240.892 166.848 240.892 164.783V163.628C240.892 161.563 239.603 160.245 237.58 160.245C235.558 160.245 234.268 161.563 234.268 163.628V164.783C234.268 166.848 235.558 168.166 237.58 168.166ZM237.58 161.302C238.891 161.302 239.708 162.232 239.708 163.733V164.671C239.708 166.179 238.891 167.102 237.58 167.102C236.269 167.102 235.452 166.179 235.452 164.671V163.733C235.452 162.232 236.269 161.302 237.58 161.302ZM245.226 163.811H245.134V157.377H243.936V168.025H245.134V165.241L246.191 164.227L248.799 168.025H250.222L247.044 163.409L250.011 160.379H248.559L245.226 163.811ZM257.488 166.052C257.276 166.721 256.565 167.13 255.599 167.13C254.295 167.13 253.464 166.228 253.464 164.826V164.516H258.672V163.769C258.672 161.556 257.502 160.238 255.515 160.238C253.57 160.238 252.28 161.563 252.28 163.578V164.727C252.28 166.904 253.499 168.166 255.599 168.166C257.206 168.166 258.418 167.313 258.65 166.052H257.488ZM255.507 161.267C256.741 161.267 257.488 162.148 257.488 163.606H253.464C253.464 162.141 254.232 161.267 255.507 161.267ZM261.216 168.025H262.413V163.522C262.413 162.218 263.259 161.337 264.521 161.337C265.711 161.337 266.275 161.986 266.275 163.367V168.025H267.473V163.064C267.473 161.232 266.571 160.238 264.908 160.238C263.745 160.238 262.872 160.774 262.463 161.725H262.364V160.379H261.216V168.025ZM285.873 162.394C285.873 160.978 285.316 160.238 284.252 160.238C283.484 160.238 282.871 160.703 282.673 161.436H282.547C282.385 160.682 281.877 160.238 281.158 160.238C280.44 160.238 279.89 160.689 279.7 161.457H279.573V160.379H278.502V168.025H279.58V162.867C279.58 161.915 280.003 161.33 280.679 161.33C281.328 161.33 281.666 161.817 281.666 162.74V168.025H282.737V162.867C282.737 161.915 283.146 161.33 283.815 161.33C284.456 161.33 284.795 161.817 284.795 162.747V168.025H285.873V162.394ZM291.109 168.166C293.131 168.166 294.421 166.848 294.421 164.783V163.628C294.421 161.563 293.131 160.245 291.109 160.245C289.086 160.245 287.797 161.563 287.797 163.628V164.783C287.797 166.848 289.086 168.166 291.109 168.166ZM291.109 161.302C292.419 161.302 293.237 162.232 293.237 163.733V164.671C293.237 166.179 292.419 167.102 291.109 167.102C289.798 167.102 288.98 166.179 288.98 164.671V163.733C288.98 162.232 289.798 161.302 291.109 161.302ZM296.901 168.025H298.099V163.522C298.099 162.218 298.945 161.337 300.206 161.337C301.397 161.337 301.961 161.986 301.961 163.367V168.025H303.159V163.064C303.159 161.232 302.257 160.238 300.594 160.238C299.431 160.238 298.557 160.774 298.149 161.725H298.05V160.379H296.901V168.025ZM309.085 158.504C309.649 158.504 310.079 158.082 310.079 157.518C310.079 156.961 309.649 156.538 309.085 156.538C308.522 156.538 308.092 156.961 308.092 157.518C308.092 158.082 308.522 158.504 309.085 158.504ZM312.292 168.025V167.031H309.762V160.379H305.978V161.373H308.578V167.031H305.957V168.025H312.292ZM316.569 158.328V160.4H314.533V161.422H316.569V165.749C316.569 167.341 317.45 168.06 319.346 168.06C319.712 168.06 320.642 168.025 320.833 167.99V166.975C320.628 166.996 319.86 167.017 319.43 167.017C318.352 167.017 317.767 166.566 317.767 165.735V161.422H320.854V160.4H317.753V158.328H316.569ZM326.794 168.166C328.817 168.166 330.106 166.848 330.106 164.783V163.628C330.106 161.563 328.817 160.245 326.794 160.245C324.772 160.245 323.482 161.563 323.482 163.628V164.783C323.482 166.848 324.772 168.166 326.794 168.166ZM326.794 161.302C328.105 161.302 328.923 162.232 328.923 163.733V164.671C328.923 166.179 328.105 167.102 326.794 167.102C325.484 167.102 324.666 166.179 324.666 164.671V163.733C324.666 162.232 325.484 161.302 326.794 161.302ZM335.413 164.6C335.413 162.655 336.413 161.485 338.105 161.485C338.521 161.485 339.014 161.57 339.366 161.697V160.351C339.112 160.245 338.697 160.182 338.26 160.182C336.787 160.182 335.836 160.915 335.554 162.331H335.399V160.379H332.545V161.337H334.243V167.067H332.7V168.025H337.781V167.067H335.413V164.6Z" fill="#DBE2F0"/>
<path d="M148.782 260.6L151.441 252.691H149.637L147.829 258.896H147.79L145.982 252.691H144.129L146.787 260.6H148.782ZM152.849 253.93C153.315 253.93 153.682 253.557 153.682 253.108C153.682 252.653 153.315 252.286 152.849 252.286C152.383 252.286 152.016 252.653 152.016 253.108C152.016 253.557 152.383 253.93 152.849 253.93ZM152.055 260.6H153.655V254.725H152.055V260.6ZM158.615 258.803C158.467 259.252 158.018 259.543 157.431 259.543C156.615 259.543 156.083 258.967 156.083 258.128V258.03H160.133V257.542C160.133 255.755 159.054 254.599 157.344 254.599C155.606 254.599 154.51 255.815 154.51 257.69C154.51 259.57 155.595 260.726 157.404 260.726C158.856 260.726 159.909 259.954 160.084 258.803H158.615ZM157.36 255.783C158.073 255.783 158.56 256.298 158.593 257.049H156.099C156.154 256.314 156.659 255.783 157.36 255.783ZM169.172 254.725H167.593L166.7 259.082H166.667L165.62 254.725H164.085L163.044 259.082H163.011L162.123 254.725H160.512L162.074 260.6H163.756L164.814 256.446H164.847L165.91 260.6H167.615L169.172 254.725ZM177.36 256.912C177.289 255.58 176.28 254.599 174.691 254.599C172.931 254.599 171.808 255.772 171.808 257.657C171.808 259.575 172.931 260.726 174.702 260.726C176.247 260.726 177.283 259.833 177.366 258.446H175.875C175.776 259.088 175.36 259.471 174.718 259.471C173.924 259.471 173.43 258.814 173.43 257.657C173.43 256.523 173.924 255.854 174.713 255.854C175.371 255.854 175.782 256.292 175.875 256.912H177.36ZM180.835 260.726C182.611 260.726 183.745 259.592 183.745 257.657C183.745 255.75 182.594 254.599 180.835 254.599C179.076 254.599 177.925 255.755 177.925 257.657C177.925 259.586 179.059 260.726 180.835 260.726ZM180.835 259.504C180.046 259.504 179.547 258.841 179.547 257.663C179.547 256.495 180.057 255.821 180.835 255.821C181.613 255.821 182.118 256.495 182.118 257.663C182.118 258.841 181.619 259.504 180.835 259.504ZM186.754 260.694C187.62 260.694 188.3 260.239 188.585 259.592H188.613V260.6H190.191V252.691H188.591V255.733H188.558C188.273 255.081 187.615 254.632 186.765 254.632C185.291 254.632 184.359 255.788 184.359 257.652C184.359 259.532 185.286 260.694 186.754 260.694ZM187.297 255.914C188.092 255.914 188.602 256.594 188.602 257.663C188.602 258.737 188.092 259.405 187.297 259.405C186.491 259.405 185.998 258.742 185.998 257.663C185.998 256.588 186.491 255.914 187.297 255.914ZM195.151 258.803C195.003 259.252 194.554 259.543 193.967 259.543C193.151 259.543 192.619 258.967 192.619 258.128V258.03H196.67V257.542C196.67 255.755 195.59 254.599 193.88 254.599C192.142 254.599 191.046 255.815 191.046 257.69C191.046 259.57 192.131 260.726 193.94 260.726C195.392 260.726 196.445 259.954 196.62 258.803H195.151ZM193.896 255.783C194.609 255.783 195.096 256.298 195.129 257.049H192.636C192.69 256.314 193.195 255.783 193.896 255.783ZM199.722 260.6H201.323V257.054C201.323 256.396 201.734 255.936 202.342 255.936C202.934 255.936 203.291 256.309 203.291 256.939V260.6H204.831V257.032C204.831 256.38 205.231 255.936 205.839 255.936C206.459 255.936 206.798 256.309 206.798 256.988V260.6H208.399V256.588C208.399 255.404 207.626 254.615 206.475 254.615C205.614 254.615 204.913 255.081 204.65 255.821H204.617C204.42 255.054 203.828 254.615 202.978 254.615C202.178 254.615 201.548 255.081 201.301 255.788H201.268V254.725H199.722V260.6ZM212.109 260.726C213.885 260.726 215.02 259.592 215.02 257.657C215.02 255.75 213.869 254.599 212.109 254.599C210.35 254.599 209.199 255.755 209.199 257.657C209.199 259.586 210.334 260.726 212.109 260.726ZM212.109 259.504C211.32 259.504 210.821 258.841 210.821 257.663C210.821 256.495 211.331 255.821 212.109 255.821C212.888 255.821 213.392 256.495 213.392 257.663C213.392 258.841 212.893 259.504 212.109 259.504ZM215.847 260.6H217.448V257.23C217.448 256.468 217.903 255.942 218.621 255.942C219.339 255.942 219.701 256.38 219.701 257.147V260.6H221.301V256.813C221.301 255.437 220.567 254.615 219.262 254.615C218.358 254.615 217.738 255.043 217.426 255.772H217.393V254.725H215.847V260.6ZM223.137 253.93C223.603 253.93 223.97 253.557 223.97 253.108C223.97 252.653 223.603 252.286 223.137 252.286C222.671 252.286 222.304 252.653 222.304 253.108C222.304 253.557 222.671 253.93 223.137 253.93ZM222.342 260.6H223.943V254.725H222.342V260.6ZM225.439 253.371V254.725H224.611V255.931H225.439V259.016C225.439 260.162 225.976 260.622 227.357 260.622C227.681 260.622 227.955 260.595 228.119 260.556V259.378C228.021 259.395 227.873 259.405 227.73 259.405C227.259 259.405 227.04 259.192 227.04 258.742V255.931H228.125V254.725H227.04V253.371H225.439ZM231.611 260.726C233.386 260.726 234.521 259.592 234.521 257.657C234.521 255.75 233.37 254.599 231.611 254.599C229.851 254.599 228.7 255.755 228.7 257.657C228.7 259.586 229.835 260.726 231.611 260.726ZM231.611 259.504C230.821 259.504 230.323 258.841 230.323 257.663C230.323 256.495 230.832 255.821 231.611 255.821C232.389 255.821 232.893 256.495 232.893 257.663C232.893 258.841 232.394 259.504 231.611 259.504ZM235.349 260.6H236.949V257.317C236.949 256.49 237.41 256.007 238.199 256.007C238.429 256.007 238.648 256.046 238.78 256.1V254.692C238.67 254.659 238.511 254.632 238.325 254.632C237.634 254.632 237.135 255.037 236.927 255.783H236.894V254.725H235.349V260.6ZM241.663 260.6H243.263V257.317C243.263 256.49 243.724 256.007 244.513 256.007C244.743 256.007 244.962 256.046 245.094 256.1V254.692C244.984 254.659 244.825 254.632 244.639 254.632C243.948 254.632 243.45 255.037 243.241 255.783H243.208V254.725H241.663V260.6ZM249.446 258.803C249.298 259.252 248.848 259.543 248.262 259.543C247.445 259.543 246.913 258.967 246.913 258.128V258.03H250.964V257.542C250.964 255.755 249.884 254.599 248.174 254.599C246.437 254.599 245.34 255.815 245.34 257.69C245.34 259.57 246.426 260.726 248.234 260.726C249.687 260.726 250.739 259.954 250.915 258.803H249.446ZM248.191 255.783C248.903 255.783 249.391 256.298 249.424 257.049H246.93C246.985 256.314 247.489 255.783 248.191 255.783ZM251.693 256.451C251.693 257.334 252.268 257.904 253.403 258.145L254.406 258.353C254.981 258.485 255.184 258.66 255.184 258.972C255.184 259.356 254.812 259.603 254.209 259.603C253.573 259.603 253.206 259.329 253.107 258.814H251.545C251.649 259.97 252.586 260.726 254.209 260.726C255.721 260.726 256.779 259.965 256.779 258.808C256.779 257.948 256.275 257.465 255.047 257.208L254.044 256.994C253.452 256.868 253.233 256.665 253.233 256.364C253.233 255.974 253.6 255.722 254.154 255.722C254.746 255.722 255.102 256.046 255.151 256.523H256.626C256.593 255.372 255.661 254.599 254.154 254.599C252.658 254.599 251.693 255.333 251.693 256.451ZM262.995 254.725H261.394V258.09C261.394 258.868 260.95 259.378 260.238 259.378C259.531 259.378 259.142 258.962 259.142 258.178V254.725H257.541V258.512C257.541 259.882 258.385 260.71 259.657 260.71C260.545 260.71 261.126 260.282 261.416 259.543H261.449V260.6H262.995V254.725ZM264.074 260.6H265.675V252.691H264.074V260.6ZM267.182 253.371V254.725H266.354V255.931H267.182V259.016C267.182 260.162 267.719 260.622 269.1 260.622C269.424 260.622 269.698 260.595 269.862 260.556V259.378C269.764 259.395 269.616 259.405 269.473 259.405C269.002 259.405 268.783 259.192 268.783 258.742V255.931H269.868V254.725H268.783V253.371H267.182ZM270.646 256.451C270.646 257.334 271.222 257.904 272.356 258.145L273.359 258.353C273.935 258.485 274.137 258.66 274.137 258.972C274.137 259.356 273.765 259.603 273.162 259.603C272.526 259.603 272.159 259.329 272.06 258.814H270.498C270.602 259.97 271.539 260.726 273.162 260.726C274.675 260.726 275.732 259.965 275.732 258.808C275.732 257.948 275.228 257.465 274 257.208L272.997 256.994C272.405 256.868 272.186 256.665 272.186 256.364C272.186 255.974 272.553 255.722 273.107 255.722C273.699 255.722 274.055 256.046 274.105 256.523H275.579C275.546 255.372 274.614 254.599 273.107 254.599C271.611 254.599 270.646 255.333 270.646 256.451Z" fill="#4393E7"/>
<path d="M143.976 262.656H276.001V263.697H143.976V262.656Z" fill="#4393E7"/>
<line x1="130.964" y1="105" x2="130.964" y2="282.838" stroke="#262B38" stroke-width="1.16234"/>
<path d="M111.205 131.124L103.068 126.038V133.768H119.341V126.038L111.205 131.124ZM103.068 123.597L111.205 128.683L119.341 123.597L111.205 118.512L103.068 123.597ZM121.375 123.597V133.768C121.375 134.887 120.46 135.802 119.341 135.802H103.068C101.949 135.802 101.034 134.887 101.034 133.768V123.597C101.034 122.885 101.441 122.174 102.051 121.868L111.205 116.173L120.358 121.868C120.968 122.174 121.375 122.885 121.375 123.597Z" fill="#DBE2F0"/>
<path d="M44.9414 66C44.9414 96.2586 46.7868 135.931 77.9414 144" stroke="#374572" stroke-width="6"/>
<path d="M76.8173 143.817L78.308 134L86.6347 145.308L75.3267 153.635L76.8173 143.817Z" fill="#374572"/>
<g filter="url(#filter1_d)">
<rect x="34.9414" y="39" width="285" height="27.5922" rx="2.06941" fill="#1C792C"/>
<path d="M45.0736 54.3779H47.5896V52.8744H45.0736V50.3462H43.5155V52.8744H40.9995V54.3779H43.5155V56.9061H45.0736V54.3779Z" fill="#94D82D"/>
<path d="M56.2314 50.654L58.6383 57.2321H59.7721L62.1729 50.654H61.0756L59.2507 56.1287H59.1719L57.3349 50.654H56.2314ZM66.2107 57.3473C67.1686 57.3473 67.884 56.9532 68.1993 56.25H68.3024V57.2382H69.2845V52.7336C69.2845 51.3634 68.3994 50.5752 66.8534 50.5752C65.5074 50.5752 64.4889 51.2967 64.3676 52.3516H65.3801C65.5499 51.7878 66.0834 51.4665 66.8412 51.4665C67.7567 51.4665 68.2599 51.9212 68.2599 52.7457V53.3398L66.4532 53.4308C64.9557 53.5096 64.1191 54.2007 64.1191 55.3648C64.1191 56.5592 64.9557 57.3473 66.2107 57.3473ZM66.5078 56.444C65.6772 56.444 65.1619 56.0196 65.1619 55.3284C65.1619 54.6433 65.6469 54.2492 66.5684 54.2068L68.2599 54.128V54.904C68.2599 55.7831 67.5021 56.444 66.5078 56.444ZM74.2923 54.2856C74.2923 52.6123 75.1532 51.6059 76.6083 51.6059C76.966 51.6059 77.3904 51.6786 77.6935 51.7878V50.6298C77.4753 50.5389 77.1176 50.4843 76.7417 50.4843C75.4746 50.4843 74.6561 51.1148 74.4136 52.3334H74.2802V50.654H71.8248V51.4786H73.2859V56.4076H71.9582V57.2321H76.3294V56.4076H74.2923V54.2856Z" fill="#ECABFF"/>
<path d="M88.7823 48.8898V50.6722H87.0302V51.5513H88.7823V55.2739C88.7823 56.644 89.5401 57.2624 91.171 57.2624C91.4863 57.2624 92.2865 57.2321 92.4502 57.2018V56.3288C92.2744 56.347 91.6136 56.3651 91.2438 56.3651C90.3162 56.3651 89.8129 55.9771 89.8129 55.2617V51.5513H92.4684V50.6722H89.8008V48.8898H88.7823ZM97.5793 57.3534C99.3193 57.3534 100.429 56.2196 100.429 54.4433V53.449C100.429 51.6726 99.3193 50.5389 97.5793 50.5389C95.8393 50.5389 94.7298 51.6726 94.7298 53.449V54.4433C94.7298 56.2196 95.8393 57.3534 97.5793 57.3534ZM97.5793 51.4483C98.707 51.4483 99.4103 52.2485 99.4103 53.5399V54.3463C99.4103 55.6437 98.707 56.4379 97.5793 56.4379C96.4516 56.4379 95.7484 55.6437 95.7484 54.3463V53.5399C95.7484 52.2485 96.4516 51.4483 97.5793 51.4483ZM104.157 53.6066H104.079V48.0713H103.048V57.2321H104.079V54.8373L104.988 53.9643L107.231 57.2321H108.456L105.722 53.261L108.274 50.654H107.025L104.157 53.6066ZM114.707 55.5346C114.525 56.1105 113.912 56.4621 113.082 56.4621C111.96 56.4621 111.245 55.6861 111.245 54.4796V54.2129H115.725V53.5702C115.725 51.6665 114.719 50.5328 113.009 50.5328C111.336 50.5328 110.226 51.6726 110.226 53.4065V54.3948C110.226 56.2681 111.275 57.3534 113.082 57.3534C114.464 57.3534 115.507 56.6198 115.707 55.5346H114.707ZM113.003 51.418C114.064 51.418 114.707 52.1758 114.707 53.4308H111.245C111.245 52.1697 111.906 51.418 113.003 51.418ZM117.914 57.2321H118.944V53.358C118.944 52.2364 119.672 51.4786 120.757 51.4786C121.782 51.4786 122.267 52.0364 122.267 53.2246V57.2321H123.297V52.9639C123.297 51.3876 122.521 50.5328 121.091 50.5328C120.09 50.5328 119.338 50.9936 118.987 51.812H118.902V50.654H117.914V57.2321ZM139.164 52.4729V51.4725H132.749V52.4729H139.164ZM139.164 55.2375V54.2371H132.749V55.2375H139.164ZM152.568 48.4836L151.489 52.4304H152.744L153.484 48.4836H152.568ZM150.228 48.4836L149.149 52.4304H150.404L151.144 48.4836H150.228ZM159.146 57.2321C161.026 57.2321 162.141 56.3227 162.141 54.7888C162.141 53.6187 161.371 52.7639 160.195 52.6487V52.5577C161.074 52.4062 161.699 51.612 161.699 50.648C161.699 49.2899 160.729 48.4836 159.116 48.4836H156.285V57.2321H159.146ZM157.346 49.4051H158.874C159.989 49.4051 160.62 49.9205 160.62 50.8359C160.62 51.7575 159.953 52.2607 158.71 52.2607H157.346V49.4051ZM157.346 56.3045V53.1519H158.88C160.298 53.1519 161.032 53.6854 161.032 54.7161C161.032 55.7589 160.304 56.3045 158.916 56.3045H157.346ZM168.435 55.5346C168.253 56.1105 167.64 56.4621 166.81 56.4621C165.688 56.4621 164.973 55.6861 164.973 54.4796V54.2129H169.453V53.5702C169.453 51.6665 168.447 50.5328 166.737 50.5328C165.064 50.5328 163.954 51.6726 163.954 53.4065V54.3948C163.954 56.2681 165.003 57.3534 166.81 57.3534C168.192 57.3534 169.235 56.6198 169.435 55.5346H168.435ZM166.731 51.418C167.792 51.418 168.435 52.1758 168.435 53.4308H164.973C164.973 52.1697 165.634 51.418 166.731 51.418ZM173.667 57.3473C174.625 57.3473 175.34 56.9532 175.655 56.25H175.758V57.2382H176.74V52.7336C176.74 51.3634 175.855 50.5752 174.309 50.5752C172.963 50.5752 171.945 51.2967 171.824 52.3516H172.836C173.006 51.7878 173.539 51.4665 174.297 51.4665C175.213 51.4665 175.716 51.9212 175.716 52.7457V53.3398L173.909 53.4308C172.412 53.5096 171.575 54.2007 171.575 55.3648C171.575 56.5592 172.412 57.3473 173.667 57.3473ZM173.964 56.444C173.133 56.444 172.618 56.0196 172.618 55.3284C172.618 54.6433 173.103 54.2492 174.024 54.2068L175.716 54.128V54.904C175.716 55.7831 174.958 56.444 173.964 56.444ZM181.748 54.2856C181.748 52.6123 182.609 51.6059 184.064 51.6059C184.422 51.6059 184.846 51.6786 185.149 51.7878V50.6298C184.931 50.5389 184.574 50.4843 184.198 50.4843C182.931 50.4843 182.112 51.1148 181.87 52.3334H181.736V50.654H179.281V51.4786H180.742V56.4076H179.414V57.2321H183.785V56.4076H181.748V54.2856ZM191.461 55.5346C191.279 56.1105 190.667 56.4621 189.836 56.4621C188.714 56.4621 187.999 55.6861 187.999 54.4796V54.2129H192.479V53.5702C192.479 51.6665 191.473 50.5328 189.763 50.5328C188.09 50.5328 186.98 51.6726 186.98 53.4065V54.3948C186.98 56.2681 188.029 57.3534 189.836 57.3534C191.218 57.3534 192.261 56.6198 192.461 55.5346H191.461ZM189.757 51.418C190.818 51.418 191.461 52.1758 191.461 53.4308H187.999C187.999 52.1697 188.66 51.418 189.757 51.418ZM197.099 54.2856C197.099 52.6123 197.96 51.6059 199.415 51.6059C199.773 51.6059 200.197 51.6786 200.5 51.7878V50.6298C200.282 50.5389 199.924 50.4843 199.549 50.4843C198.281 50.4843 197.463 51.1148 197.22 52.3334H197.087V50.654H194.632V51.4786H196.093V56.4076H194.765V57.2321H199.136V56.4076H197.099V54.2856ZM214.972 57.2321H216.1L213.281 48.4836H212.141L209.322 57.2321H210.407L211.171 54.7221H214.214L214.972 57.2321ZM212.68 49.7689H212.711L213.935 53.8067H211.45L212.68 49.7689ZM220.798 57.3412C222.32 57.3412 223.314 56.2439 223.314 54.5524V53.3277C223.314 51.6423 222.32 50.5449 220.798 50.5449C219.847 50.5449 219.149 50.9511 218.858 51.6726H218.749V48.0713H217.7V57.2321H218.713V56.2257H218.828C219.168 56.9532 219.859 57.3412 220.798 57.3412ZM220.495 56.4015C219.416 56.4015 218.725 55.6255 218.725 54.4069V53.4611C218.725 52.2485 219.416 51.4725 220.495 51.4725C221.587 51.4725 222.278 52.2485 222.278 53.4611V54.4069C222.278 55.6194 221.587 56.4015 220.495 56.4015ZM228.262 56.4015C226.843 56.4015 226.103 55.4497 226.103 53.6369V52.0788C226.103 50.266 226.843 49.3142 228.256 49.3142C229.377 49.3142 230.159 50.1084 230.196 51.2906H231.281C231.244 49.4233 230.105 48.3017 228.262 48.3017C226.206 48.3017 225.012 49.6901 225.012 52.0788V53.6369C225.012 56.0256 226.206 57.414 228.262 57.414C230.05 57.414 231.275 56.2681 231.275 54.5766H230.196C230.165 55.7043 229.426 56.4015 228.262 56.4015ZM235.325 57.3412C236.264 57.3412 236.956 56.9532 237.295 56.2257H237.41V57.2321H238.423V48.0713H237.374V51.6726H237.265C236.98 50.9511 236.277 50.5449 235.325 50.5449C233.803 50.5449 232.809 51.6423 232.809 53.3277V54.5524C232.809 56.2439 233.803 57.3412 235.325 57.3412ZM235.628 56.4015C234.543 56.4015 233.845 55.6194 233.845 54.4069V53.4611C233.845 52.2485 234.543 51.4725 235.628 51.4725C236.707 51.4725 237.404 52.2485 237.404 53.4611V54.4069C237.404 55.6255 236.707 56.4015 235.628 56.4015ZM246.135 56.25H242.042V53.2428H245.91V52.3031H242.042V49.4657H246.135V48.4836H240.969V57.2321H246.135V56.25ZM250.118 57.2321H251.148V51.5513H254.04V50.6722H251.136V49.9932C251.136 49.3324 251.621 48.9929 252.537 48.9929C252.907 48.9929 253.755 49.0171 254.04 49.0474V48.2047C253.822 48.1744 252.907 48.1441 252.525 48.1441C250.906 48.1441 250.118 48.7382 250.118 50.0114V50.6722H248.354V51.5513H250.118V57.2321ZM262.067 57.2321V56.2924H259.606V48.4836H258.557L255.95 50.1751V51.3149L258.454 49.6961H258.551V56.2924H255.968V57.2321H262.067ZM263.65 50.9451V50.9814H264.68V50.9451C264.68 49.9144 265.347 49.2414 266.354 49.2414C267.372 49.2414 268.033 49.8598 268.033 50.7996C268.033 51.4907 267.766 51.9575 266.657 53.2004L263.698 56.4925V57.2321H269.234V56.2621H265.226V56.159L267.287 53.9158C268.682 52.3941 269.094 51.6665 269.094 50.7571C269.094 49.296 267.991 48.3017 266.384 48.3017C264.79 48.3017 263.65 49.4051 263.65 50.9451ZM273.047 53.1761H274.047C275.26 53.1761 276.03 53.8249 276.03 54.8434C276.03 55.8316 275.284 56.45 274.084 56.45C272.993 56.45 272.216 55.8437 272.119 54.9101H271.107C271.186 56.4197 272.386 57.414 274.114 57.414C275.86 57.414 277.109 56.353 277.109 54.8676C277.109 53.6733 276.418 52.8548 275.254 52.7033V52.6062C276.194 52.3759 276.745 51.6241 276.745 50.5692C276.745 49.2414 275.63 48.3017 274.066 48.3017C272.447 48.3017 271.38 49.2414 271.277 50.7571H272.301C272.386 49.8174 273.041 49.2414 274.023 49.2414C275.011 49.2414 275.666 49.8295 275.666 50.7207C275.666 51.6362 274.981 52.2789 273.999 52.2789H273.047V53.1761ZM282.814 57.2321H283.79V55.383H285.13V54.4433H283.796V51.9575H282.826V54.4554H279.959V54.3766L282.887 48.4836H281.796L278.825 54.516V55.383H282.814V57.2321ZM289.392 57.4079C291.169 57.4079 292.375 56.2075 292.375 54.4372C292.375 52.7154 291.247 51.5089 289.629 51.5089C288.859 51.5089 288.234 51.7817 287.804 52.3031H287.707L287.949 49.4476H291.89V48.4836H287.107L286.664 53.4247H287.676C288.022 52.8063 288.671 52.4486 289.453 52.4486C290.574 52.4486 291.332 53.261 291.332 54.4614C291.332 55.6497 290.581 56.444 289.453 56.444C288.428 56.444 287.646 55.8134 287.549 54.898H286.518C286.609 56.4015 287.761 57.4079 289.392 57.4079ZM300.141 54.4251C300.141 52.8306 298.99 51.6483 297.431 51.6483C296.874 51.6483 296.243 51.909 295.982 52.2607L295.891 52.2122C295.934 52.1152 295.91 52.1394 296.176 51.7635L298.565 48.4836H297.334C297.274 48.5745 295.455 51.1209 295.376 51.2543C294.539 52.4729 294.194 53.4005 294.194 54.4251C294.194 56.1651 295.437 57.414 297.159 57.414C298.893 57.414 300.141 56.159 300.141 54.4251ZM297.165 56.4621C296.067 56.4621 295.231 55.6012 295.231 54.4796C295.231 53.352 296.067 52.4911 297.165 52.4911C298.268 52.4911 299.105 53.352 299.105 54.4796C299.105 55.6012 298.268 56.4621 297.165 56.4621ZM303.506 52.3152L304.579 48.3684H303.33L302.591 52.3152H303.506ZM305.846 52.3152L306.92 48.3684H305.671L304.931 52.3152H305.846Z" fill="#D9DFE9"/>
</g>
<defs>
<filter id="filter0_d" x="85.2133" y="103.719" width="368.138" height="187.976" filterUnits="userSpaceOnUse" color-interpolation-filters="sRGB">
<feFlood flood-opacity="0" result="BackgroundImageFix"/>
<feColorMatrix in="SourceAlpha" type="matrix" values="0 0 0 0 0 0 0 0 0 0 0 0 0 0 0 0 0 0 127 0"/>
<feMorphology radius="4.81072" operator="erode" in="SourceAlpha" result="effect1_dropShadow"/>
<feOffset dy="3.20714"/>
<feGaussianBlur stdDeviation="4.64935"/>
<feColorMatrix type="matrix" values="0 0 0 0 0.141522 0 0 0 0 0.159783 0 0 0 0 0.21 0 0 0 0.2 0"/>
<feBlend mode="normal" in2="BackgroundImageFix" result="effect1_dropShadow"/>
<feBlend mode="normal" in="SourceGraphic" in2="effect1_dropShadow" result="shape"/>
</filter>
<filter id="filter1_d" x="30.8026" y="37.6204" width="293.278" height="35.8698" filterUnits="userSpaceOnUse" color-interpolation-filters="sRGB">
<feFlood flood-opacity="0" result="BackgroundImageFix"/>
<feColorMatrix in="SourceAlpha" type="matrix" values="0 0 0 0 0 0 0 0 0 0 0 0 0 0 0 0 0 0 127 0"/>
<feMorphology radius="4.13883" operator="erode" in="SourceAlpha" result="effect1_dropShadow"/>
<feOffset dy="2.75922"/>
<feGaussianBlur stdDeviation="4.13883"/>
<feColorMatrix type="matrix" values="0 0 0 0 0.141522 0 0 0 0 0.159783 0 0 0 0 0.21 0 0 0 0.92 0"/>
<feBlend mode="normal" in2="BackgroundImageFix" result="effect1_dropShadow"/>
<feBlend mode="normal" in="SourceGraphic" in2="effect1_dropShadow" result="shape"/>
</filter>
</defs>
</svg>
