<svg width="457" height="304" viewBox="0 0 457 304" fill="none" xmlns="http://www.w3.org/2000/svg">
<rect x="1" width="456" height="304" fill="white"/>
<g opacity="0.5">
<path d="M9.4529 19.8092C9.93792 19.8092 10.3078 19.4455 10.3078 18.9605C10.3078 18.4815 9.93792 18.1177 9.4529 18.1177C8.96789 18.1177 8.59806 18.4815 8.59806 18.9605C8.59806 19.4455 8.96789 19.8092 9.4529 19.8092ZM12.2115 28V27.1452H10.0349V21.4219H6.77924V22.2768H9.01639V27.1452H6.76105V28H12.2115ZM20.184 23.1559C20.184 21.9373 19.705 21.3007 18.7895 21.3007C18.1287 21.3007 17.6012 21.7008 17.4315 22.3313H17.3223C17.1829 21.6826 16.7464 21.3007 16.128 21.3007C15.5096 21.3007 15.0367 21.6887 14.873 22.3495H14.7639V21.4219H13.8423V28H14.7699V23.5621C14.7699 22.7436 15.1337 22.2404 15.7157 22.2404C16.2735 22.2404 16.5645 22.6587 16.5645 23.4529V28H17.486V23.5621C17.486 22.7436 17.8377 22.2404 18.4136 22.2404C18.9653 22.2404 19.2564 22.6587 19.2564 23.459V28H20.184V23.1559ZM25.1008 21.3128C24.1611 21.3128 23.476 21.7008 23.1304 22.4283H23.0213V21.4219H22.0028V30.219H23.0516V26.9815H23.1668C23.4518 27.7029 24.149 28.1091 25.1008 28.1091C26.6226 28.1091 27.6169 27.0118 27.6169 25.3263V24.1017C27.6169 22.4102 26.6226 21.3128 25.1008 21.3128ZM24.8038 22.2586C25.889 22.2586 26.5801 23.0346 26.5801 24.2472V25.193C26.5801 26.4055 25.889 27.1876 24.8038 27.1876C23.7185 27.1876 23.0274 26.4116 23.0274 25.193V24.2472C23.0274 23.0346 23.7185 22.2586 24.8038 22.2586ZM32.364 28.1213C34.104 28.1213 35.2135 26.9875 35.2135 25.2111V24.2169C35.2135 22.4405 34.104 21.3067 32.364 21.3067C30.624 21.3067 29.5145 22.4405 29.5145 24.2169V25.2111C29.5145 26.9875 30.624 28.1213 32.364 28.1213ZM32.364 22.2161C33.4917 22.2161 34.1949 23.0164 34.1949 24.3078V25.1141C34.1949 26.4116 33.4917 27.2058 32.364 27.2058C31.2363 27.2058 30.533 26.4116 30.533 25.1141V24.3078C30.533 23.0164 31.2363 22.2161 32.364 22.2161ZM39.7787 25.0535C39.7787 23.3802 40.6396 22.3738 42.0947 22.3738C42.4524 22.3738 42.8768 22.4465 43.1799 22.5557V21.3977C42.9617 21.3067 42.604 21.2522 42.2281 21.2522C40.961 21.2522 40.1425 21.8827 39.9 23.1013H39.7666V21.4219H37.3112V22.2465H38.7723V27.1755H37.4446V28H41.8158V27.1755H39.7787V25.0535ZM46.5932 19.6577V21.4401H44.8411V22.3192H46.5932V26.0417C46.5932 27.4119 47.3511 28.0303 48.982 28.0303C49.2972 28.0303 50.0975 28 50.2612 27.9697V27.0967C50.0854 27.1148 49.4245 27.133 49.0547 27.133C48.1271 27.133 47.6239 26.745 47.6239 26.0296V22.3192H50.2794V21.4401H47.6118V19.6577H46.5932ZM146.525 28H147.556V22.3192H150.448V21.4401H147.544V20.7611C147.544 20.1003 148.029 19.7607 148.944 19.7607C149.314 19.7607 150.163 19.785 150.448 19.8153V18.9726C150.23 18.9423 149.314 18.912 148.932 18.912C147.313 18.912 146.525 19.5061 146.525 20.7793V21.4401H144.761V22.3192H146.525V28ZM154.91 25.0535C154.91 23.3802 155.771 22.3738 157.226 22.3738C157.584 22.3738 158.008 22.4465 158.311 22.5557V21.3977C158.093 21.3067 157.735 21.2522 157.359 21.2522C156.092 21.2522 155.274 21.8827 155.031 23.1013H154.898V21.4219H152.443V22.2465H153.904V27.1755H152.576V28H156.947V27.1755H154.91V25.0535ZM162.846 28.1213C164.586 28.1213 165.696 26.9875 165.696 25.2111V24.2169C165.696 22.4405 164.586 21.3067 162.846 21.3067C161.106 21.3067 159.997 22.4405 159.997 24.2169V25.2111C159.997 26.9875 161.106 28.1213 162.846 28.1213ZM162.846 22.2161C163.974 22.2161 164.677 23.0164 164.677 24.3078V25.1141C164.677 26.4116 163.974 27.2058 162.846 27.2058C161.719 27.2058 161.015 26.4116 161.015 25.1141V24.3078C161.015 23.0164 161.719 22.2161 162.846 22.2161ZM173.692 23.1559C173.692 21.9373 173.214 21.3007 172.298 21.3007C171.637 21.3007 171.11 21.7008 170.94 22.3313H170.831C170.691 21.6826 170.255 21.3007 169.636 21.3007C169.018 21.3007 168.545 21.6887 168.382 22.3495H168.272V21.4219H167.351V28H168.278V23.5621C168.278 22.7436 168.642 22.2404 169.224 22.2404C169.782 22.2404 170.073 22.6587 170.073 23.4529V28H170.995V23.5621C170.995 22.7436 171.346 22.2404 171.922 22.2404C172.474 22.2404 172.765 22.6587 172.765 23.459V28H173.692V23.1559Z" fill="#A626A4"/>
<path d="M65.8061 23.4711C65.6363 22.1191 64.642 21.2946 63.1869 21.2946C61.3984 21.2946 60.3557 22.392 60.3557 24.2775V25.1384C60.3557 27.0239 61.3984 28.1213 63.1869 28.1213C64.642 28.1213 65.6424 27.3028 65.8061 25.9629H64.7875C64.6602 26.7147 64.0175 27.1937 63.1688 27.1937C62.0229 27.1937 61.3863 26.4176 61.3863 25.005V24.4109C61.3863 22.9982 62.0229 22.2161 63.1688 22.2161C64.0175 22.2161 64.6602 22.7012 64.7875 23.4711H65.8061ZM73.6149 28V27.1452H71.4444V18.8392H68.1826V19.694H70.4137V27.1452H68.1645V28H73.6149ZM77.7496 28.1152C78.7076 28.1152 79.423 27.7211 79.7382 27.0178H79.8413V28.0061H80.8235V23.5014C80.8235 22.1313 79.9383 21.3431 78.3923 21.3431C77.0464 21.3431 76.0278 22.0646 75.9066 23.1195H76.9191C77.0888 22.5557 77.6223 22.2343 78.3802 22.2343C79.2956 22.2343 79.7989 22.689 79.7989 23.5136V24.1077L77.9922 24.1987C76.4947 24.2775 75.658 24.9686 75.658 26.1327C75.658 27.327 76.4947 28.1152 77.7496 28.1152ZM78.0467 27.2118C77.2161 27.2118 76.7008 26.7875 76.7008 26.0963C76.7008 25.4112 77.1858 25.0171 78.1073 24.9747L79.7989 24.8959V25.6719C79.7989 26.551 79.041 27.2118 78.0467 27.2118ZM83.6972 23.1983C83.6972 24.132 84.2853 24.7322 85.4736 25.005L86.4497 25.2293C87.2863 25.4173 87.6077 25.6962 87.6077 26.2176C87.6077 26.8481 87.0378 27.2543 86.1405 27.2543C85.2917 27.2543 84.7097 26.9026 84.5581 26.2964H83.5092C83.6244 27.424 84.6127 28.1213 86.1041 28.1213C87.6622 28.1213 88.6747 27.3331 88.6747 26.1206C88.6747 25.1687 88.0927 24.6109 86.8134 24.3199L85.8858 24.1077C85.0613 23.9258 84.7218 23.6409 84.7218 23.1377C84.7218 22.5375 85.2614 22.1495 86.098 22.1495C86.868 22.1495 87.4197 22.5011 87.541 23.0771H88.5353C88.414 21.9797 87.4864 21.2946 86.1162 21.2946C84.6672 21.2946 83.6972 22.0585 83.6972 23.1983ZM91.3726 23.1983C91.3726 24.132 91.9607 24.7322 93.149 25.005L94.1251 25.2293C94.9618 25.4173 95.2831 25.6962 95.2831 26.2176C95.2831 26.8481 94.7132 27.2543 93.8159 27.2543C92.9671 27.2543 92.3851 26.9026 92.2335 26.2964H91.1847C91.2999 27.424 92.2881 28.1213 93.7795 28.1213C95.3376 28.1213 96.3501 27.3331 96.3501 26.1206C96.3501 25.1687 95.7681 24.6109 94.4889 24.3199L93.5613 24.1077C92.7367 23.9258 92.3972 23.6409 92.3972 23.1377C92.3972 22.5375 92.9368 22.1495 93.7735 22.1495C94.5434 22.1495 95.0951 22.5011 95.2164 23.0771H96.2107C96.0894 21.9797 95.1618 21.2946 93.7917 21.2946C92.3427 21.2946 91.3726 22.0585 91.3726 23.1983ZM99.4967 28V21.1734H99.5816L103.34 28H104.353V19.2515H103.389V26.0599H103.304L99.5573 19.2515H98.5327V28H99.4967ZM108.451 28.1152C109.409 28.1152 110.125 27.7211 110.44 27.0178H110.543V28.0061H111.525V23.5014C111.525 22.1313 110.64 21.3431 109.094 21.3431C107.748 21.3431 106.73 22.0646 106.608 23.1195H107.621C107.791 22.5557 108.324 22.2343 109.082 22.2343C109.997 22.2343 110.501 22.689 110.501 23.5136V24.1077L108.694 24.1987C107.196 24.2775 106.36 24.9686 106.36 26.1327C106.36 27.327 107.196 28.1152 108.451 28.1152ZM108.748 27.2118C107.918 27.2118 107.402 26.7875 107.402 26.0963C107.402 25.4112 107.888 25.0171 108.809 24.9747L110.501 24.8959V25.6719C110.501 26.551 109.743 27.2118 108.748 27.2118ZM119.964 23.1559C119.964 21.9373 119.486 21.3007 118.57 21.3007C117.909 21.3007 117.382 21.7008 117.212 22.3313H117.103C116.963 21.6826 116.527 21.3007 115.909 21.3007C115.29 21.3007 114.817 21.6887 114.654 22.3495H114.544V21.4219H113.623V28H114.55V23.5621C114.55 22.7436 114.914 22.2404 115.496 22.2404C116.054 22.2404 116.345 22.6587 116.345 23.4529V28H117.267V23.5621C117.267 22.7436 117.618 22.2404 118.194 22.2404C118.746 22.2404 119.037 22.6587 119.037 23.459V28H119.964V23.1559ZM126.245 26.3024C126.064 26.8784 125.451 27.23 124.621 27.23C123.499 27.23 122.784 26.454 122.784 25.2475V24.9808H127.264V24.3381C127.264 22.4344 126.258 21.3007 124.548 21.3007C122.875 21.3007 121.765 22.4405 121.765 24.1744V25.1626C121.765 27.036 122.814 28.1213 124.621 28.1213C126.003 28.1213 127.046 27.3877 127.246 26.3024H126.245ZM124.542 22.1858C125.603 22.1858 126.245 22.9437 126.245 24.1987H122.784C122.784 22.9376 123.445 22.1858 124.542 22.1858ZM129.75 23.1983C129.75 24.132 130.338 24.7322 131.526 25.005L132.502 25.2293C133.339 25.4173 133.66 25.6962 133.66 26.2176C133.66 26.8481 133.09 27.2543 132.193 27.2543C131.344 27.2543 130.762 26.9026 130.611 26.2964H129.562C129.677 27.424 130.665 28.1213 132.157 28.1213C133.715 28.1213 134.727 27.3331 134.727 26.1206C134.727 25.1687 134.145 24.6109 132.866 24.3199L131.938 24.1077C131.114 23.9258 130.774 23.6409 130.774 23.1377C130.774 22.5375 131.314 22.1495 132.151 22.1495C132.921 22.1495 133.472 22.5011 133.594 23.0771H134.588C134.467 21.9797 133.539 21.2946 132.169 21.2946C130.72 21.2946 129.75 22.0585 129.75 23.1983Z" fill="#EB0055"/>
<path d="M185.957 19.2515L184.818 23.1983H186.182L186.933 19.2515H185.957ZM196.288 23.4711C196.119 22.1191 195.124 21.2946 193.669 21.2946C191.881 21.2946 190.838 22.392 190.838 24.2775V25.1384C190.838 27.0239 191.881 28.1213 193.669 28.1213C195.124 28.1213 196.125 27.3028 196.288 25.9629H195.27C195.142 26.7147 194.5 27.1937 193.651 27.1937C192.505 27.1937 191.869 26.4176 191.869 25.005V24.4109C191.869 22.9982 192.505 22.2161 193.651 22.2161C194.5 22.2161 195.142 22.7012 195.27 23.4711H196.288ZM204.097 28V27.1452H201.927V18.8392H198.665V19.694H200.896V27.1452H198.647V28H204.097ZM208.232 28.1152C209.19 28.1152 209.905 27.7211 210.22 27.0178H210.324V28.0061H211.306V23.5014C211.306 22.1313 210.421 21.3431 208.875 21.3431C207.529 21.3431 206.51 22.0646 206.389 23.1195H207.401C207.571 22.5557 208.105 22.2343 208.862 22.2343C209.778 22.2343 210.281 22.689 210.281 23.5136V24.1077L208.474 24.1987C206.977 24.2775 206.14 24.9686 206.14 26.1327C206.14 27.327 206.977 28.1152 208.232 28.1152ZM208.529 27.2118C207.698 27.2118 207.183 26.7875 207.183 26.0963C207.183 25.4112 207.668 25.0171 208.59 24.9747L210.281 24.8959V25.6719C210.281 26.551 209.523 27.2118 208.529 27.2118ZM214.179 23.1983C214.179 24.132 214.768 24.7322 215.956 25.005L216.932 25.2293C217.769 25.4173 218.09 25.6962 218.09 26.2176C218.09 26.8481 217.52 27.2543 216.623 27.2543C215.774 27.2543 215.192 26.9026 215.04 26.2964H213.991C214.107 27.424 215.095 28.1213 216.586 28.1213C218.144 28.1213 219.157 27.3331 219.157 26.1206C219.157 25.1687 218.575 24.6109 217.296 24.3199L216.368 24.1077C215.544 23.9258 215.204 23.6409 215.204 23.1377C215.204 22.5375 215.744 22.1495 216.58 22.1495C217.35 22.1495 217.902 22.5011 218.023 23.0771H219.017C218.896 21.9797 217.969 21.2946 216.598 21.2946C215.149 21.2946 214.179 22.0585 214.179 23.1983ZM221.855 23.1983C221.855 24.132 222.443 24.7322 223.631 25.005L224.607 25.2293C225.444 25.4173 225.765 25.6962 225.765 26.2176C225.765 26.8481 225.195 27.2543 224.298 27.2543C223.449 27.2543 222.867 26.9026 222.716 26.2964H221.667C221.782 27.424 222.77 28.1213 224.262 28.1213C225.82 28.1213 226.832 27.3331 226.832 26.1206C226.832 25.1687 226.25 24.6109 224.971 24.3199L224.044 24.1077C223.219 23.9258 222.879 23.6409 222.879 23.1377C222.879 22.5375 223.419 22.1495 224.256 22.1495C225.026 22.1495 225.577 22.5011 225.699 23.0771H226.693C226.572 21.9797 225.644 21.2946 224.274 21.2946C222.825 21.2946 221.855 22.0585 221.855 23.1983ZM229.233 28H230.264V24.1259C230.264 23.0043 230.991 22.2465 232.077 22.2465C233.101 22.2465 233.586 22.8042 233.586 23.9925V28H234.617V23.7318C234.617 22.1555 233.841 21.3007 232.41 21.3007C231.41 21.3007 230.658 21.7614 230.306 22.5799H230.221V21.4219H229.233V28ZM238.934 28.1152C239.892 28.1152 240.607 27.7211 240.922 27.0178H241.025V28.0061H242.007V23.5014C242.007 22.1313 241.122 21.3431 239.576 21.3431C238.23 21.3431 237.212 22.0646 237.091 23.1195H238.103C238.273 22.5557 238.806 22.2343 239.564 22.2343C240.48 22.2343 240.983 22.689 240.983 23.5136V24.1077L239.176 24.1987C237.679 24.2775 236.842 24.9686 236.842 26.1327C236.842 27.327 237.679 28.1152 238.934 28.1152ZM239.231 27.2118C238.4 27.2118 237.885 26.7875 237.885 26.0963C237.885 25.4112 238.37 25.0171 239.291 24.9747L240.983 24.8959V25.6719C240.983 26.551 240.225 27.2118 239.231 27.2118ZM250.447 23.1559C250.447 21.9373 249.968 21.3007 249.052 21.3007C248.391 21.3007 247.864 21.7008 247.694 22.3313H247.585C247.446 21.6826 247.009 21.3007 246.391 21.3007C245.772 21.3007 245.299 21.6887 245.136 22.3495H245.027V21.4219H244.105V28H245.033V23.5621C245.033 22.7436 245.396 22.2404 245.978 22.2404C246.536 22.2404 246.827 22.6587 246.827 23.4529V28H247.749V23.5621C247.749 22.7436 248.1 22.2404 248.676 22.2404C249.228 22.2404 249.519 22.6587 249.519 23.459V28H250.447V23.1559ZM256.728 26.3024C256.546 26.8784 255.934 27.23 255.103 27.23C253.981 27.23 253.266 26.454 253.266 25.2475V24.9808H257.746V24.3381C257.746 22.4344 256.74 21.3007 255.03 21.3007C253.357 21.3007 252.247 22.4405 252.247 24.1744V25.1626C252.247 27.036 253.296 28.1213 255.103 28.1213C256.485 28.1213 257.528 27.3877 257.728 26.3024H256.728ZM255.024 22.1858C256.085 22.1858 256.728 22.9437 256.728 24.1987H253.266C253.266 22.9376 253.927 22.1858 255.024 22.1858ZM260.232 23.1983C260.232 24.132 260.82 24.7322 262.008 25.005L262.984 25.2293C263.821 25.4173 264.142 25.6962 264.142 26.2176C264.142 26.8481 263.573 27.2543 262.675 27.2543C261.826 27.2543 261.244 26.9026 261.093 26.2964H260.044C260.159 27.424 261.147 28.1213 262.639 28.1213C264.197 28.1213 265.21 27.3331 265.21 26.1206C265.21 25.1687 264.627 24.6109 263.348 24.3199L262.421 24.1077C261.596 23.9258 261.257 23.6409 261.257 23.1377C261.257 22.5375 261.796 22.1495 262.633 22.1495C263.403 22.1495 263.955 22.5011 264.076 23.0771H265.07C264.949 21.9797 264.021 21.2946 262.651 21.2946C261.202 21.2946 260.232 22.0585 260.232 23.1983ZM270.217 23.1983L271.357 19.2515H269.993L269.241 23.1983H270.217Z" fill="#188C23"/>
</g>
<g filter="url(#filter0_d_312_3201)">
<rect x="89.7012" y="105" width="359.162" height="179" rx="2.40536" fill="white"/>
<rect x="90.7012" y="106" width="357.162" height="177" rx="1.40536" stroke="#DCE2EA" stroke-width="2"/>
</g>
<path d="M149.056 141.648V132.621H152.129V131.479H144.744V132.621H147.816V141.648H149.056ZM157.358 141.789C159.38 141.789 160.67 140.471 160.67 138.407V137.251C160.67 135.186 159.38 133.868 157.358 133.868C155.335 133.868 154.046 135.186 154.046 137.251V138.407C154.046 140.471 155.335 141.789 157.358 141.789ZM157.358 134.925C158.668 134.925 159.486 135.856 159.486 137.357V138.294C159.486 139.802 158.668 140.725 157.358 140.725C156.047 140.725 155.23 139.802 155.23 138.294V137.357C155.23 135.856 156.047 134.925 157.358 134.925ZM166.279 136.278C166.977 136.278 167.555 135.686 167.555 134.975C167.555 134.263 166.977 133.671 166.279 133.671C165.582 133.671 165.004 134.263 165.004 134.975C165.004 135.686 165.582 136.278 166.279 136.278ZM166.279 141.69C166.977 141.69 167.555 141.106 167.555 140.387C167.555 139.675 166.977 139.09 166.279 139.09C165.582 139.09 165.004 139.675 165.004 140.387C165.004 141.106 165.582 141.69 166.279 141.69ZM183.643 141.775C184.735 141.775 185.538 141.324 185.933 140.478H186.067V141.648H187.244V131H186.025V135.186H185.898C185.567 134.348 184.749 133.875 183.643 133.875C181.874 133.875 180.718 135.151 180.718 137.11V138.533C180.718 140.5 181.874 141.775 183.643 141.775ZM183.995 140.683C182.734 140.683 181.923 139.774 181.923 138.364V137.265C181.923 135.856 182.734 134.954 183.995 134.954C185.25 134.954 186.06 135.856 186.06 137.265V138.364C186.06 139.781 185.25 140.683 183.995 140.683ZM195.108 139.675C194.897 140.345 194.185 140.753 193.22 140.753C191.916 140.753 191.084 139.851 191.084 138.449V138.139H196.292V137.392C196.292 135.179 195.122 133.861 193.135 133.861C191.19 133.861 189.901 135.186 189.901 137.202V138.35C189.901 140.528 191.12 141.789 193.22 141.789C194.826 141.789 196.038 140.936 196.271 139.675H195.108ZM193.128 134.89C194.361 134.89 195.108 135.771 195.108 137.23H191.084C191.084 135.764 191.853 134.89 193.128 134.89ZM198.512 134.002L201.31 141.648H202.627L205.418 134.002H204.142L202.021 140.366H201.93L199.794 134.002H198.512ZM211.098 143.043C211.788 143.043 212.486 142.931 212.824 142.769V141.937C212.528 142.085 211.859 142.191 211.225 142.191C209.082 142.191 208.103 140.781 208.103 137.66V136.567C208.103 133.495 209.012 132.107 210.985 132.107C212.831 132.107 213.79 133.333 213.79 135.736V137.716C213.79 138.421 213.55 138.681 212.902 138.681H211.746V135.757C211.746 135.228 211.478 134.897 211.07 134.897C210.654 134.897 210.386 135.228 210.386 135.757V138.639C210.386 139.161 210.717 139.492 211.246 139.492H213.043C214.057 139.492 214.649 138.822 214.649 137.688V135.581C214.649 132.797 213.332 131.254 210.992 131.254C208.533 131.254 207.229 133.072 207.229 136.504V137.822C207.229 141.254 208.561 143.043 211.098 143.043ZM219.033 141.782C220.146 141.782 220.978 141.324 221.344 140.507H221.464V141.655H222.605V136.419C222.605 134.827 221.577 133.911 219.78 133.911C218.215 133.911 217.031 134.749 216.89 135.975H218.067C218.265 135.32 218.885 134.947 219.766 134.947C220.83 134.947 221.414 135.475 221.414 136.433V137.124L219.315 137.23C217.574 137.321 216.601 138.125 216.601 139.478C216.601 140.866 217.574 141.782 219.033 141.782ZM219.378 140.732C218.412 140.732 217.814 140.239 217.814 139.435C217.814 138.639 218.377 138.181 219.448 138.132L221.414 138.04V138.942C221.414 139.964 220.534 140.732 219.378 140.732ZM231.914 136.384C231.717 134.813 230.561 133.854 228.87 133.854C226.791 133.854 225.579 135.13 225.579 137.321V138.322C225.579 140.514 226.791 141.789 228.87 141.789C230.561 141.789 231.724 140.838 231.914 139.28H230.731C230.583 140.154 229.836 140.711 228.849 140.711C227.517 140.711 226.777 139.809 226.777 138.167V137.476C226.777 135.834 227.517 134.925 228.849 134.925C229.836 134.925 230.583 135.489 230.731 136.384H231.914ZM241.336 136.018C241.336 134.601 240.78 133.861 239.715 133.861C238.947 133.861 238.334 134.326 238.137 135.059H238.01C237.848 134.305 237.341 133.861 236.622 133.861C235.903 133.861 235.353 134.312 235.163 135.08H235.036V134.002H233.965V141.648H235.043V136.49C235.043 135.538 235.466 134.954 236.143 134.954C236.791 134.954 237.129 135.44 237.129 136.363V141.648H238.2V136.49C238.2 135.538 238.609 134.954 239.279 134.954C239.92 134.954 240.258 135.44 240.258 136.37V141.648H241.336V136.018ZM248.637 139.675C248.425 140.345 247.714 140.753 246.748 140.753C245.445 140.753 244.613 139.851 244.613 138.449V138.139H249.821V137.392C249.821 135.179 248.651 133.861 246.664 133.861C244.719 133.861 243.429 135.186 243.429 137.202V138.35C243.429 140.528 244.648 141.789 246.748 141.789C248.355 141.789 249.567 140.936 249.8 139.675H248.637ZM246.657 134.89C247.89 134.89 248.637 135.771 248.637 137.23H244.613C244.613 135.764 245.381 134.89 246.657 134.89ZM258.679 136.384C258.481 134.813 257.326 133.854 255.634 133.854C253.556 133.854 252.344 135.13 252.344 137.321V138.322C252.344 140.514 253.556 141.789 255.634 141.789C257.326 141.789 258.488 140.838 258.679 139.28H257.495C257.347 140.154 256.6 140.711 255.613 140.711C254.281 140.711 253.542 139.809 253.542 138.167V137.476C253.542 135.834 254.281 134.925 255.613 134.925C256.6 134.925 257.347 135.489 257.495 136.384H258.679ZM264.415 141.789C266.437 141.789 267.727 140.471 267.727 138.407V137.251C267.727 135.186 266.437 133.868 264.415 133.868C262.392 133.868 261.103 135.186 261.103 137.251V138.407C261.103 140.471 262.392 141.789 264.415 141.789ZM264.415 134.925C265.726 134.925 266.543 135.856 266.543 137.357V138.294C266.543 139.802 265.726 140.725 264.415 140.725C263.104 140.725 262.287 139.802 262.287 138.294V137.357C262.287 135.856 263.104 134.925 264.415 134.925ZM273.033 138.223C273.033 136.278 274.034 135.109 275.725 135.109C276.141 135.109 276.634 135.193 276.987 135.32V133.974C276.733 133.868 276.317 133.805 275.88 133.805C274.408 133.805 273.456 134.538 273.174 135.954H273.019V134.002H270.165V134.961H271.864V140.69H270.32V141.648H275.401V140.69H273.033V138.223ZM282.737 133.875C281.645 133.875 280.848 134.326 280.447 135.172H280.32V134.002H279.136V144.227H280.355V140.464H280.489C280.82 141.303 281.631 141.775 282.737 141.775C284.506 141.775 285.662 140.5 285.662 138.54V137.117C285.662 135.151 284.506 133.875 282.737 133.875ZM282.392 134.975C283.653 134.975 284.457 135.877 284.457 137.286V138.385C284.457 139.795 283.653 140.704 282.392 140.704C281.13 140.704 280.327 139.802 280.327 138.385V137.286C280.327 135.877 281.13 134.975 282.392 134.975ZM291.179 141.69C291.877 141.69 292.455 141.106 292.455 140.387C292.455 139.675 291.877 139.09 291.179 139.09C290.482 139.09 289.904 139.675 289.904 140.387C289.904 141.106 290.482 141.69 291.179 141.69ZM303.286 136.384C303.089 134.813 301.933 133.854 300.242 133.854C298.163 133.854 296.951 135.13 296.951 137.321V138.322C296.951 140.514 298.163 141.789 300.242 141.789C301.933 141.789 303.096 140.838 303.286 139.28H302.102C301.954 140.154 301.207 140.711 300.221 140.711C298.889 140.711 298.149 139.809 298.149 138.167V137.476C298.149 135.834 298.889 134.925 300.221 134.925C301.207 134.925 301.954 135.489 302.102 136.384H303.286ZM309.022 141.789C311.045 141.789 312.334 140.471 312.334 138.407V137.251C312.334 135.186 311.045 133.868 309.022 133.868C307 133.868 305.71 135.186 305.71 137.251V138.407C305.71 140.471 307 141.789 309.022 141.789ZM309.022 134.925C310.333 134.925 311.15 135.856 311.15 137.357V138.294C311.15 139.802 310.333 140.725 309.022 140.725C307.711 140.725 306.894 139.802 306.894 138.294V137.357C306.894 135.856 307.711 134.925 309.022 134.925Z" fill="black"/>
<path d="M147.796 204.312H144.721V213.809C144.721 217.046 147.114 219.244 150.88 219.244C154.636 219.244 157.028 217.046 157.028 213.809V204.312H153.954V213.503C153.954 215.386 152.844 216.618 150.88 216.618C148.905 216.618 147.796 215.386 147.796 213.503V204.312ZM159.043 211.295C159.043 212.933 160.112 213.992 162.219 214.44L164.082 214.827C165.151 215.071 165.527 215.397 165.527 215.977C165.527 216.689 164.835 217.147 163.715 217.147C162.535 217.147 161.853 216.638 161.669 215.682H158.768C158.962 217.829 160.702 219.234 163.715 219.234C166.525 219.234 168.489 217.819 168.489 215.671C168.489 214.073 167.553 213.178 165.273 212.699L163.41 212.302C162.311 212.068 161.903 211.692 161.903 211.132C161.903 210.409 162.585 209.941 163.614 209.941C164.713 209.941 165.375 210.541 165.466 211.427H168.204C168.143 209.289 166.413 207.854 163.614 207.854C160.835 207.854 159.043 209.218 159.043 211.295ZM177.182 215.661C176.907 216.496 176.073 217.035 174.983 217.035C173.467 217.035 172.479 215.967 172.479 214.409V214.226H180.002V213.32C180.002 210.002 177.996 207.854 174.821 207.854C171.594 207.854 169.558 210.114 169.558 213.595C169.558 217.086 171.573 219.234 174.933 219.234C177.63 219.234 179.584 217.799 179.91 215.661H177.182ZM174.851 210.053C176.174 210.053 177.08 211.01 177.141 212.404H172.51C172.612 211.04 173.548 210.053 174.851 210.053ZM190.679 219.234C193.977 219.234 196.084 217.127 196.084 213.534C196.084 209.992 193.947 207.854 190.679 207.854C187.412 207.854 185.274 210.002 185.274 213.534C185.274 217.117 187.381 219.234 190.679 219.234ZM190.679 216.964C189.214 216.964 188.287 215.733 188.287 213.544C188.287 211.376 189.234 210.124 190.679 210.124C192.125 210.124 193.061 211.376 193.061 213.544C193.061 215.733 192.135 216.964 190.679 216.964ZM198.415 219H201.388V210.328H203.484V208.139H201.316V207.416C201.316 206.643 201.744 206.215 202.721 206.215C203.016 206.215 203.311 206.236 203.525 206.276V204.312C203.179 204.241 202.558 204.179 202.008 204.179C199.423 204.179 198.415 205.177 198.415 207.315V208.139H196.929V210.328H198.415V219ZM213.236 219.173C214.844 219.173 216.106 218.328 216.636 217.127H216.686V219H219.618V204.312H216.646V209.961H216.585C216.055 208.75 214.834 207.915 213.256 207.915C210.518 207.915 208.788 210.063 208.788 213.524C208.788 217.015 210.508 219.173 213.236 219.173ZM214.244 210.297C215.719 210.297 216.666 211.559 216.666 213.544C216.666 215.539 215.719 216.781 214.244 216.781C212.747 216.781 211.831 215.549 211.831 213.544C211.831 211.549 212.747 210.297 214.244 210.297ZM228.83 215.661C228.555 216.496 227.72 217.035 226.631 217.035C225.115 217.035 224.127 215.967 224.127 214.409V214.226H231.649V213.32C231.649 210.002 229.644 207.854 226.468 207.854C223.242 207.854 221.206 210.114 221.206 213.595C221.206 217.086 223.221 219.234 226.58 219.234C229.278 219.234 231.232 217.799 231.558 215.661H228.83ZM226.499 210.053C227.822 210.053 228.728 211.01 228.789 212.404H224.158C224.26 211.04 225.196 210.053 226.499 210.053ZM239.559 207.915C237.981 207.915 236.769 208.709 236.179 209.992H236.118V208.088H233.187V222.563H236.159V217.168H236.22C236.8 218.399 238.022 219.173 239.609 219.173C242.337 219.173 244.027 217.056 244.027 213.544C244.027 210.022 242.327 207.915 239.559 207.915ZM238.561 216.781C237.105 216.781 236.149 215.519 236.149 213.544C236.149 211.59 237.105 210.297 238.561 210.297C240.047 210.297 240.984 211.569 240.984 213.544C240.984 215.529 240.047 216.781 238.561 216.781ZM245.564 219H248.536V212.903C248.536 211.366 249.391 210.47 250.857 210.47C251.285 210.47 251.692 210.541 251.936 210.643V208.027C251.733 207.966 251.437 207.915 251.091 207.915C249.809 207.915 248.882 208.668 248.496 210.053H248.435V208.088H245.564V219ZM260.018 215.661C259.743 216.496 258.909 217.035 257.82 217.035C256.303 217.035 255.315 215.967 255.315 214.409V214.226H262.838V213.32C262.838 210.002 260.832 207.854 257.657 207.854C254.43 207.854 252.394 210.114 252.394 213.595C252.394 217.086 254.41 219.234 257.769 219.234C260.466 219.234 262.42 217.799 262.746 215.661H260.018ZM257.687 210.053C259.01 210.053 259.916 211.01 259.977 212.404H255.346C255.448 211.04 256.384 210.053 257.687 210.053ZM274.289 212.15C274.157 209.676 272.284 207.854 269.332 207.854C266.064 207.854 263.978 210.032 263.978 213.534C263.978 217.097 266.064 219.234 269.352 219.234C272.223 219.234 274.147 217.575 274.299 215H271.531C271.347 216.191 270.574 216.903 269.383 216.903C267.907 216.903 266.991 215.682 266.991 213.534C266.991 211.427 267.907 210.185 269.373 210.185C270.594 210.185 271.357 210.999 271.531 212.15H274.289ZM278.971 219.173C280.335 219.173 281.689 218.491 282.3 217.331H282.361V219H285.231V211.498C285.231 209.299 283.409 207.854 280.61 207.854C277.719 207.854 275.918 209.31 275.806 211.427H278.523C278.666 210.623 279.368 210.073 280.478 210.073C281.597 210.073 282.31 210.663 282.31 211.681V212.404L279.562 212.567C276.844 212.73 275.317 213.88 275.317 215.865C275.317 217.829 276.895 219.173 278.971 219.173ZM279.948 217.025C278.941 217.025 278.269 216.516 278.269 215.702C278.269 214.928 278.9 214.43 280.01 214.348L282.31 214.206V215C282.31 216.18 281.241 217.025 279.948 217.025ZM287.949 205.574V208.088H286.412V210.328H287.949V216.058C287.949 218.186 288.947 219.041 291.512 219.041C292.112 219.041 292.621 218.99 292.927 218.919V216.73C292.743 216.761 292.469 216.781 292.204 216.781C291.329 216.781 290.921 216.384 290.921 215.549V210.328H292.937V208.088H290.921V205.574H287.949ZM301.63 215.661C301.355 216.496 300.52 217.035 299.431 217.035C297.914 217.035 296.927 215.967 296.927 214.409V214.226H304.449V213.32C304.449 210.002 302.444 207.854 299.268 207.854C296.041 207.854 294.006 210.114 294.006 213.595C294.006 217.086 296.021 219.234 299.38 219.234C302.077 219.234 304.032 217.799 304.358 215.661H301.63ZM299.299 210.053C300.622 210.053 301.528 211.01 301.589 212.404H296.957C297.059 211.04 297.996 210.053 299.299 210.053ZM310.037 219.173C311.646 219.173 312.908 218.328 313.437 217.127H313.488V219H316.42V204.312H313.447V209.961H313.386C312.857 208.75 311.635 207.915 310.058 207.915C307.32 207.915 305.589 210.063 305.589 213.524C305.589 217.015 307.309 219.173 310.037 219.173ZM311.045 210.297C312.521 210.297 313.468 211.559 313.468 213.544C313.468 215.539 312.521 216.781 311.045 216.781C309.549 216.781 308.633 215.549 308.633 213.544C308.633 211.549 309.549 210.297 311.045 210.297ZM322.537 219H325.509V212.414C325.509 211.193 326.273 210.338 327.403 210.338C328.502 210.338 329.164 211.03 329.164 212.2V219H332.024V212.374C332.024 211.162 332.767 210.338 333.897 210.338C335.047 210.338 335.678 211.03 335.678 212.292V219H338.65V211.549C338.65 209.35 337.215 207.885 335.078 207.885C333.479 207.885 332.177 208.75 331.688 210.124H331.627C331.26 208.699 330.161 207.885 328.583 207.885C327.097 207.885 325.927 208.75 325.469 210.063H325.408V208.088H322.537V219ZM347.761 215.661C347.486 216.496 346.651 217.035 345.562 217.035C344.045 217.035 343.058 215.967 343.058 214.409V214.226H350.58V213.32C350.58 210.002 348.575 207.854 345.399 207.854C342.172 207.854 340.136 210.114 340.136 213.595C340.136 217.086 342.152 219.234 345.511 219.234C348.208 219.234 350.163 217.799 350.488 215.661H347.761ZM345.43 210.053C346.753 210.053 347.659 211.01 347.72 212.404H343.088C343.19 211.04 344.127 210.053 345.43 210.053ZM352.911 205.574V208.088H351.374V210.328H352.911V216.058C352.911 218.186 353.909 219.041 356.474 219.041C357.074 219.041 357.583 218.99 357.889 218.919V216.73C357.705 216.761 357.43 216.781 357.166 216.781C356.29 216.781 355.883 216.384 355.883 215.549V210.328H357.899V208.088H355.883V205.574H352.911ZM359.599 219H362.571V212.77C362.571 211.335 363.395 210.348 364.8 210.348C366.154 210.348 366.846 211.203 366.846 212.608V219H369.818V211.977C369.818 209.452 368.434 207.885 366.011 207.885C364.352 207.885 363.161 208.658 362.581 210.032H362.52V204.312H359.599V219ZM376.73 219.234C380.028 219.234 382.135 217.127 382.135 213.534C382.135 209.992 379.997 207.854 376.73 207.854C373.462 207.854 371.325 210.002 371.325 213.534C371.325 217.117 373.432 219.234 376.73 219.234ZM376.73 216.964C375.264 216.964 374.338 215.733 374.338 213.544C374.338 211.376 375.284 210.124 376.73 210.124C378.175 210.124 379.112 211.376 379.112 213.544C379.112 215.733 378.185 216.964 376.73 216.964ZM387.723 219.173C389.331 219.173 390.593 218.328 391.123 217.127H391.174V219H394.105V204.312H391.133V209.961H391.072C390.543 208.75 389.321 207.915 387.743 207.915C385.005 207.915 383.275 210.063 383.275 213.524C383.275 217.015 384.995 219.173 387.723 219.173ZM388.731 210.297C390.207 210.297 391.153 211.559 391.153 213.544C391.153 215.539 390.207 216.781 388.731 216.781C387.234 216.781 386.318 215.549 386.318 213.544C386.318 211.549 387.234 210.297 388.731 210.297ZM148.778 228.662C145.896 228.662 144.092 230.692 144.092 233.919C144.092 237.147 145.896 239.169 148.778 239.169C151.66 239.169 153.464 237.147 153.464 233.919C153.464 230.692 151.66 228.662 148.778 228.662ZM148.778 229.832C150.857 229.832 152.161 231.41 152.161 233.919C152.161 236.421 150.857 237.999 148.778 237.999C146.699 237.999 145.396 236.421 145.396 233.919C145.396 231.41 146.699 229.832 148.778 229.832ZM154.853 239H156.079V234.687C156.079 233.447 156.833 232.63 157.989 232.63C159.116 232.63 159.673 233.278 159.673 234.462V239H160.899V234.243C160.899 232.58 159.969 231.544 158.362 231.544C157.227 231.544 156.445 232.052 156.037 232.841H156.008V231.671H154.853V239ZM167.326 236.9C167.121 237.591 166.438 238.063 165.508 238.063C164.19 238.063 163.365 237.14 163.365 235.737V235.667H168.622V235.202C168.622 232.982 167.403 231.544 165.423 231.544C163.401 231.544 162.104 233.088 162.104 235.364C162.104 237.668 163.379 239.127 165.479 239.127C167.079 239.127 168.319 238.183 168.531 236.9H167.326ZM165.402 232.608C166.558 232.608 167.326 233.482 167.354 234.708H163.372C163.45 233.489 164.253 232.608 165.402 232.608ZM172.822 239H174.049V234.687C174.049 233.447 174.803 232.63 175.958 232.63C177.086 232.63 177.642 233.278 177.642 234.462V239H178.869V234.243C178.869 232.58 177.938 231.544 176.332 231.544C175.197 231.544 174.415 232.052 174.006 232.841H173.978V231.671H172.822V239ZM185.295 236.9C185.091 237.591 184.408 238.063 183.477 238.063C182.16 238.063 181.335 237.14 181.335 235.737V235.667H186.592V235.202C186.592 232.982 185.373 231.544 183.393 231.544C181.37 231.544 180.074 233.088 180.074 235.364C180.074 237.668 181.349 239.127 183.449 239.127C185.049 239.127 186.289 238.183 186.5 236.9H185.295ZM183.372 232.608C184.527 232.608 185.295 233.482 185.324 234.708H181.342C181.42 233.489 182.223 232.608 183.372 232.608ZM197.155 231.671H195.943L194.478 237.633H194.449L192.786 231.671H191.602L189.946 237.633H189.918L188.452 231.671H187.233L189.284 239H190.531L192.18 233.327H192.209L193.865 239H195.112L197.155 231.671ZM200.996 233.694C200.996 234.751 201.666 235.392 203.047 235.723L204.209 236.005C205.048 236.209 205.337 236.512 205.337 237.041C205.337 237.703 204.724 238.126 203.73 238.126C202.737 238.126 202.173 237.725 202.025 236.886H200.799C200.94 238.26 202.011 239.127 203.73 239.127C205.365 239.127 206.57 238.225 206.57 236.949C206.57 235.899 206.035 235.321 204.555 234.962L203.392 234.68C202.575 234.483 202.201 234.138 202.201 233.63C202.201 232.989 202.793 232.545 203.688 232.545C204.59 232.545 205.154 233.017 205.245 233.785H206.415C206.366 232.489 205.295 231.544 203.688 231.544C202.102 231.544 200.996 232.439 200.996 233.694ZM212.708 236.9C212.504 237.591 211.82 238.063 210.89 238.063C209.572 238.063 208.748 237.14 208.748 235.737V235.667H214.005V235.202C214.005 232.982 212.786 231.544 210.805 231.544C208.783 231.544 207.486 233.088 207.486 235.364C207.486 237.668 208.762 239.127 210.862 239.127C212.461 239.127 213.702 238.183 213.913 236.9H212.708ZM210.784 232.608C211.94 232.608 212.708 233.482 212.736 234.708H208.755C208.832 233.489 209.636 232.608 210.784 232.608ZM217.387 239.127C218.374 239.127 219.304 238.577 219.741 237.739H219.769V239H220.932V233.933C220.932 232.475 219.847 231.544 218.127 231.544C216.394 231.544 215.308 232.517 215.224 233.785H216.408C216.563 233.066 217.155 232.623 218.099 232.623C219.114 232.623 219.706 233.158 219.706 234.053V234.666L217.606 234.786C215.914 234.885 214.949 235.674 214.949 236.928C214.949 238.246 215.929 239.127 217.387 239.127ZM217.662 238.084C216.781 238.084 216.196 237.626 216.196 236.928C216.196 236.238 216.76 235.801 217.747 235.737L219.706 235.617V236.216C219.706 237.273 218.818 238.084 217.662 238.084ZM222.489 239H223.715V234.434C223.715 233.398 224.336 232.714 225.287 232.714C225.583 232.714 225.844 232.749 225.942 232.785V231.594C225.844 231.58 225.66 231.544 225.449 231.544C224.589 231.544 223.913 232.059 223.673 232.869H223.645V231.671H222.489V239ZM232.679 234.074C232.524 232.756 231.432 231.544 229.6 231.544C227.577 231.544 226.231 233.024 226.231 235.336C226.231 237.696 227.584 239.127 229.614 239.127C231.277 239.127 232.503 238.098 232.693 236.639H231.488C231.277 237.52 230.621 238.049 229.621 238.049C228.352 238.049 227.478 237.041 227.478 235.336C227.478 233.673 228.338 232.623 229.607 232.623C230.685 232.623 231.305 233.278 231.481 234.074H232.679ZM233.884 239H235.11V234.73C235.11 233.461 235.864 232.63 237.083 232.63C238.232 232.63 238.817 233.327 238.817 234.49V239H240.043V234.264C240.043 232.63 239.071 231.544 237.464 231.544C236.351 231.544 235.547 232.024 235.139 232.841H235.11V228.831H233.884V239ZM244.56 239H245.786V234.434C245.786 233.398 246.407 232.714 247.358 232.714C247.654 232.714 247.915 232.749 248.013 232.785V231.594C247.915 231.58 247.731 231.544 247.52 231.544C246.66 231.544 245.984 232.059 245.744 232.869H245.716V231.671H244.56V239ZM253.524 236.9C253.32 237.591 252.636 238.063 251.706 238.063C250.388 238.063 249.564 237.14 249.564 235.737V235.667H254.821V235.202C254.821 232.982 253.602 231.544 251.621 231.544C249.599 231.544 248.302 233.088 248.302 235.364C248.302 237.668 249.578 239.127 251.678 239.127C253.277 239.127 254.518 238.183 254.729 236.9H253.524ZM251.6 232.608C252.756 232.608 253.524 233.482 253.552 234.708H249.571C249.648 233.489 250.452 232.608 251.6 232.608ZM255.934 233.694C255.934 234.751 256.604 235.392 257.985 235.723L259.147 236.005C259.986 236.209 260.275 236.512 260.275 237.041C260.275 237.703 259.662 238.126 258.668 238.126C257.675 238.126 257.111 237.725 256.963 236.886H255.737C255.878 238.26 256.949 239.127 258.668 239.127C260.303 239.127 261.508 238.225 261.508 236.949C261.508 235.899 260.973 235.321 259.493 234.962L258.33 234.68C257.513 234.483 257.139 234.138 257.139 233.63C257.139 232.989 257.731 232.545 258.626 232.545C259.528 232.545 260.092 233.017 260.183 233.785H261.353C261.304 232.489 260.233 231.544 258.626 231.544C257.04 231.544 255.934 232.439 255.934 233.694ZM268.802 231.671H267.576V235.977C267.576 237.224 266.857 238.042 265.666 238.042C264.531 238.042 263.975 237.4 263.975 236.209V231.671H262.748V236.428C262.748 238.091 263.686 239.127 265.285 239.127C266.413 239.127 267.174 238.655 267.611 237.809H267.639V239H268.802V231.671ZM270.458 239H271.684V228.831H270.458V239ZM273.735 229.902V231.671H272.642V232.679H273.735V237.097C273.735 238.507 274.256 239.056 275.602 239.056C275.891 239.056 276.229 239.035 276.377 239V237.971C276.293 237.985 276.011 238.006 275.87 238.006C275.243 238.006 274.961 237.703 274.961 237.034V232.679H276.384V231.671H274.961V229.902H273.735ZM281.049 239H282.276V232.679H283.77V231.671H282.269V230.861C282.269 230.135 282.586 229.783 283.248 229.783C283.452 229.783 283.657 229.804 283.805 229.825V228.831C283.629 228.803 283.333 228.775 283.058 228.775C281.705 228.775 281.049 229.444 281.049 230.854V231.671H280.028V232.679H281.049V239ZM287.723 239.127C289.745 239.127 291.112 237.668 291.112 235.336C291.112 232.996 289.745 231.544 287.723 231.544C285.693 231.544 284.326 232.996 284.326 235.336C284.326 237.668 285.693 239.127 287.723 239.127ZM287.723 238.049C286.426 238.049 285.574 237.062 285.574 235.336C285.574 233.609 286.426 232.623 287.723 232.623C289.019 232.623 289.865 233.609 289.865 235.336C289.865 237.062 289.019 238.049 287.723 238.049ZM292.353 239H293.579V234.434C293.579 233.398 294.199 232.714 295.15 232.714C295.446 232.714 295.707 232.749 295.806 232.785V231.594C295.707 231.58 295.524 231.544 295.312 231.544C294.453 231.544 293.776 232.059 293.537 232.869H293.508V231.671H292.353V239ZM300.379 241.741C301.704 241.741 302.31 241.227 302.937 239.514L305.819 231.671H304.53L302.5 237.774H302.479L300.45 231.671H299.139L301.845 239.007L301.676 239.521C301.394 240.374 301.013 240.705 300.33 240.705C300.175 240.705 299.985 240.698 299.851 240.67V241.699C299.985 241.727 300.231 241.741 300.379 241.741ZM309.611 239.127C311.633 239.127 313 237.668 313 235.336C313 232.996 311.633 231.544 309.611 231.544C307.581 231.544 306.214 232.996 306.214 235.336C306.214 237.668 307.581 239.127 309.611 239.127ZM309.611 238.049C308.314 238.049 307.461 237.062 307.461 235.336C307.461 233.609 308.314 232.623 309.611 232.623C310.907 232.623 311.753 233.609 311.753 235.336C311.753 237.062 310.907 238.049 309.611 238.049ZM320.259 231.671H319.032V235.977C319.032 237.224 318.314 238.042 317.123 238.042C315.988 238.042 315.431 237.4 315.431 236.209V231.671H314.205V236.428C314.205 238.091 315.143 239.127 316.742 239.127C317.87 239.127 318.631 238.655 319.068 237.809H319.096V239H320.259V231.671ZM321.851 239H323.077V234.434C323.077 233.398 323.698 232.714 324.649 232.714C324.945 232.714 325.206 232.749 325.304 232.785V231.594C325.206 231.58 325.022 231.544 324.811 231.544C323.951 231.544 323.275 232.059 323.035 232.869H323.007V231.671H321.851V239ZM332.027 231.544C330.145 231.544 328.905 233.031 328.905 235.336C328.905 237.633 330.145 239.127 331.999 239.127C333.035 239.127 333.887 238.612 334.345 237.774H334.374V241.445H335.6V231.671H334.43V232.911H334.402C333.93 232.066 333.091 231.544 332.027 231.544ZM332.245 238.049C330.963 238.049 330.16 237.006 330.16 235.336C330.16 233.658 330.963 232.623 332.245 232.623C333.5 232.623 334.374 233.701 334.374 235.336C334.374 236.97 333.5 238.049 332.245 238.049ZM343.218 231.671H341.991V235.977C341.991 237.224 341.273 238.042 340.082 238.042C338.947 238.042 338.39 237.4 338.39 236.209V231.671H337.164V236.428C337.164 238.091 338.101 239.127 339.701 239.127C340.829 239.127 341.59 238.655 342.027 237.809H342.055V239H343.218V231.671ZM349.673 236.9C349.468 237.591 348.785 238.063 347.854 238.063C346.537 238.063 345.712 237.14 345.712 235.737V235.667H350.969V235.202C350.969 232.982 349.75 231.544 347.77 231.544C345.747 231.544 344.451 233.088 344.451 235.364C344.451 237.668 345.726 239.127 347.826 239.127C349.426 239.127 350.666 238.183 350.878 236.9H349.673ZM347.749 232.608C348.904 232.608 349.673 233.482 349.701 234.708H345.719C345.797 233.489 346.6 232.608 347.749 232.608ZM352.209 239H353.436V234.434C353.436 233.398 354.056 232.714 355.007 232.714C355.303 232.714 355.564 232.749 355.662 232.785V231.594C355.564 231.58 355.381 231.544 355.169 231.544C354.309 231.544 353.633 232.059 353.393 232.869H353.365V231.671H352.209V239ZM357.276 241.741C358.601 241.741 359.207 241.227 359.834 239.514L362.716 231.671H361.427L359.397 237.774H359.376L357.347 231.671H356.036L358.742 239.007L358.573 239.521C358.291 240.374 357.91 240.705 357.227 240.705C357.072 240.705 356.882 240.698 356.748 240.67V241.699C356.882 241.727 357.128 241.741 357.276 241.741ZM363.661 239.07C364.112 239.07 364.464 238.718 364.464 238.267C364.464 237.816 364.112 237.464 363.661 237.464C363.21 237.464 362.857 237.816 362.857 238.267C362.857 238.718 363.21 239.07 363.661 239.07Z" fill="black"/>
<line x1="129.957" y1="183.664" x2="448.437" y2="183.664" stroke="#E6EBF2" stroke-width="1.16234"/>
<path d="M144.48 166.294C144.585 168.098 145.959 169.211 148.059 169.211C150.188 169.211 151.562 168.049 151.562 166.224C151.562 164.694 150.73 163.835 148.757 163.348L147.869 163.123C146.544 162.792 145.981 162.284 145.981 161.403C145.981 160.367 146.763 159.747 148.066 159.747C149.264 159.747 150.04 160.367 150.166 161.417H151.378C151.294 159.726 149.976 158.62 148.059 158.62C146.03 158.62 144.726 159.74 144.726 161.474C144.726 162.947 145.579 163.842 147.467 164.321L148.341 164.539C149.715 164.878 150.307 165.406 150.307 166.287C150.307 167.379 149.419 168.084 148.066 168.084C146.713 168.084 145.818 167.407 145.692 166.294H144.48ZM160.011 161.354H158.813V165.857C158.813 167.161 157.967 168.042 156.706 168.042C155.515 168.042 154.951 167.393 154.951 166.012V161.354H153.753V166.315C153.753 168.147 154.655 169.141 156.318 169.141C157.481 169.141 158.355 168.605 158.764 167.654H158.862V169H160.011V161.354ZM166.283 169.127C168.052 169.127 169.207 167.851 169.207 165.885V164.462C169.207 162.503 168.052 161.227 166.283 161.227C165.176 161.227 164.366 161.699 164.028 162.538H163.901V158.352H162.682V169H163.859V167.83H163.993C164.387 168.676 165.191 169.127 166.283 169.127ZM165.93 168.035C164.676 168.035 163.873 167.133 163.873 165.716V164.617C163.873 163.207 164.676 162.305 165.93 162.305C167.199 162.305 168.002 163.207 168.002 164.617V165.716C168.002 167.126 167.199 168.035 165.93 168.035ZM175.733 159.48C176.296 159.48 176.726 159.057 176.726 158.493C176.726 157.936 176.296 157.513 175.733 157.513C175.169 157.513 174.739 157.936 174.739 158.493C174.739 159.057 175.169 159.48 175.733 159.48ZM176.423 161.354H171.751V162.348H175.247V168.817C175.247 169.909 174.817 170.247 173.393 170.247C172.928 170.247 171.941 170.226 171.575 170.191V171.262C172.082 171.304 172.9 171.318 173.428 171.318C175.557 171.318 176.423 170.649 176.423 168.958V161.354ZM185.711 167.027C185.5 167.696 184.788 168.105 183.823 168.105C182.519 168.105 181.687 167.203 181.687 165.801V165.491H186.895V164.744C186.895 162.531 185.725 161.213 183.738 161.213C181.793 161.213 180.504 162.538 180.504 164.553V165.702C180.504 167.88 181.723 169.141 183.823 169.141C185.429 169.141 186.641 168.288 186.874 167.027H185.711ZM183.731 162.242C184.964 162.242 185.711 163.123 185.711 164.582H181.687C181.687 163.116 182.456 162.242 183.731 162.242ZM195.753 163.736C195.556 162.164 194.4 161.206 192.709 161.206C190.63 161.206 189.418 162.482 189.418 164.673V165.674C189.418 167.865 190.63 169.141 192.709 169.141C194.4 169.141 195.563 168.19 195.753 166.632H194.569C194.421 167.506 193.674 168.063 192.688 168.063C191.356 168.063 190.616 167.161 190.616 165.519V164.828C190.616 163.186 191.356 162.277 192.688 162.277C193.674 162.277 194.421 162.841 194.569 163.736H195.753ZM200.186 159.303V161.375H198.149V162.397H200.186V166.724C200.186 168.316 201.067 169.035 202.962 169.035C203.329 169.035 204.259 169 204.449 168.965V167.95C204.245 167.971 203.477 167.992 203.047 167.992C201.969 167.992 201.384 167.541 201.384 166.71V162.397H204.47V161.375H201.37V159.303H200.186ZM210.411 163.63C211.108 163.63 211.686 163.038 211.686 162.327C211.686 161.615 211.108 161.023 210.411 161.023C209.713 161.023 209.135 161.615 209.135 162.327C209.135 163.038 209.713 163.63 210.411 163.63ZM210.411 169.042C211.108 169.042 211.686 168.457 211.686 167.739C211.686 167.027 211.108 166.442 210.411 166.442C209.713 166.442 209.135 167.027 209.135 167.739C209.135 168.457 209.713 169.042 210.411 169.042ZM227.774 169.127C228.867 169.127 229.67 168.676 230.065 167.83H230.199V169H231.375V158.352H230.156V162.538H230.029C229.698 161.699 228.881 161.227 227.774 161.227C226.006 161.227 224.85 162.503 224.85 164.462V165.885C224.85 167.851 226.006 169.127 227.774 169.127ZM228.127 168.035C226.865 168.035 226.055 167.126 226.055 165.716V164.617C226.055 163.207 226.865 162.305 228.127 162.305C229.381 162.305 230.192 163.207 230.192 164.617V165.716C230.192 167.133 229.381 168.035 228.127 168.035ZM239.24 167.027C239.028 167.696 238.317 168.105 237.351 168.105C236.048 168.105 235.216 167.203 235.216 165.801V165.491H240.424V164.744C240.424 162.531 239.254 161.213 237.267 161.213C235.322 161.213 234.032 162.538 234.032 164.553V165.702C234.032 167.88 235.251 169.141 237.351 169.141C238.958 169.141 240.17 168.288 240.403 167.027H239.24ZM237.26 162.242C238.493 162.242 239.24 163.123 239.24 164.582H235.216C235.216 163.116 235.984 162.242 237.26 162.242ZM246.576 161.227C245.483 161.227 244.687 161.678 244.285 162.524H244.159V161.354H242.975V171.579H244.194V167.816H244.328C244.659 168.655 245.469 169.127 246.576 169.127C248.344 169.127 249.5 167.851 249.5 165.892V164.469C249.5 162.503 248.344 161.227 246.576 161.227ZM246.23 162.327C247.492 162.327 248.295 163.229 248.295 164.638V165.737C248.295 167.147 247.492 168.056 246.23 168.056C244.969 168.056 244.166 167.154 244.166 165.737V164.638C244.166 163.229 244.969 162.327 246.23 162.327ZM254.715 165.575C254.715 163.63 255.716 162.46 257.407 162.46C257.823 162.46 258.316 162.545 258.668 162.672V161.326C258.415 161.22 257.999 161.157 257.562 161.157C256.089 161.157 255.138 161.89 254.856 163.306H254.701V161.354H251.847V162.312H253.545V168.042H252.002V169H257.083V168.042H254.715V165.575ZM266.004 167.027C265.793 167.696 265.081 168.105 264.116 168.105C262.812 168.105 261.98 167.203 261.98 165.801V165.491H267.188V164.744C267.188 162.531 266.018 161.213 264.031 161.213C262.086 161.213 260.796 162.538 260.796 164.553V165.702C260.796 167.88 262.016 169.141 264.116 169.141C265.722 169.141 266.934 168.288 267.167 167.027H266.004ZM264.024 162.242C265.257 162.242 266.004 163.123 266.004 164.582H261.98C261.98 163.116 262.748 162.242 264.024 162.242ZM276.046 163.736C275.849 162.164 274.693 161.206 273.002 161.206C270.923 161.206 269.711 162.482 269.711 164.673V165.674C269.711 167.865 270.923 169.141 273.002 169.141C274.693 169.141 275.856 168.19 276.046 166.632H274.862C274.714 167.506 273.967 168.063 272.981 168.063C271.649 168.063 270.909 167.161 270.909 165.519V164.828C270.909 163.186 271.649 162.277 272.981 162.277C273.967 162.277 274.714 162.841 274.862 163.736H276.046ZM281.007 169.134C282.121 169.134 282.952 168.676 283.319 167.858H283.438V169.007H284.58V163.771C284.58 162.179 283.551 161.262 281.754 161.262C280.19 161.262 279.006 162.101 278.865 163.327H280.042C280.239 162.672 280.859 162.298 281.74 162.298C282.804 162.298 283.389 162.827 283.389 163.785V164.476L281.289 164.582C279.548 164.673 278.576 165.477 278.576 166.83C278.576 168.218 279.548 169.134 281.007 169.134ZM281.352 168.084C280.387 168.084 279.788 167.591 279.788 166.787C279.788 165.991 280.352 165.533 281.423 165.484L283.389 165.392V166.294C283.389 167.316 282.508 168.084 281.352 168.084ZM289.4 159.303V161.375H287.363V162.397H289.4V166.724C289.4 168.316 290.281 169.035 292.177 169.035C292.543 169.035 293.473 169 293.663 168.965V167.95C293.459 167.971 292.691 167.992 292.261 167.992C291.183 167.992 290.598 167.541 290.598 166.71V162.397H293.685V161.375H290.584V159.303H289.4ZM301.69 167.027C301.478 167.696 300.767 168.105 299.801 168.105C298.498 168.105 297.666 167.203 297.666 165.801V165.491H302.874V164.744C302.874 162.531 301.704 161.213 299.717 161.213C297.772 161.213 296.482 162.538 296.482 164.553V165.702C296.482 167.88 297.701 169.141 299.801 169.141C301.408 169.141 302.62 168.288 302.853 167.027H301.69ZM299.71 162.242C300.943 162.242 301.69 163.123 301.69 164.582H297.666C297.666 163.116 298.434 162.242 299.71 162.242ZM308.067 169.127C309.16 169.127 309.963 168.676 310.358 167.83H310.492V169H311.668V158.352H310.449V162.538H310.322C309.991 161.699 309.174 161.227 308.067 161.227C306.299 161.227 305.143 162.503 305.143 164.462V165.885C305.143 167.851 306.299 169.127 308.067 169.127ZM308.42 168.035C307.158 168.035 306.348 167.126 306.348 165.716V164.617C306.348 163.207 307.158 162.305 308.42 162.305C309.674 162.305 310.484 163.207 310.484 164.617V165.716C310.484 167.133 309.674 168.035 308.42 168.035ZM330.075 163.369C330.075 161.953 329.518 161.213 328.454 161.213C327.686 161.213 327.073 161.678 326.876 162.411H326.749C326.587 161.657 326.079 161.213 325.361 161.213C324.642 161.213 324.092 161.664 323.902 162.432H323.775V161.354H322.704V169H323.782V163.842C323.782 162.89 324.205 162.305 324.881 162.305C325.53 162.305 325.868 162.792 325.868 163.715V169H326.939V163.842C326.939 162.89 327.348 162.305 328.017 162.305C328.659 162.305 328.997 162.792 328.997 163.722V169H330.075V163.369ZM337.376 167.027C337.164 167.696 336.452 168.105 335.487 168.105C334.183 168.105 333.352 167.203 333.352 165.801V165.491H338.56V164.744C338.56 162.531 337.39 161.213 335.402 161.213C333.458 161.213 332.168 162.538 332.168 164.553V165.702C332.168 167.88 333.387 169.141 335.487 169.141C337.094 169.141 338.306 168.288 338.538 167.027H337.376ZM335.395 162.242C336.629 162.242 337.376 163.123 337.376 164.582H333.352C333.352 163.116 334.12 162.242 335.395 162.242ZM342.929 159.303V161.375H340.892V162.397H342.929V166.724C342.929 168.316 343.81 169.035 345.705 169.035C346.072 169.035 347.002 169 347.192 168.965V167.95C346.988 167.971 346.22 167.992 345.79 167.992C344.712 167.992 344.127 167.541 344.127 166.71V162.397H347.213V161.375H344.113V159.303H342.929ZM350.018 169H351.216V164.504C351.216 163.2 352.069 162.319 353.33 162.319C354.528 162.319 355.092 162.975 355.092 164.349V169H356.29V164.046C356.29 162.221 355.388 161.22 353.725 161.22C352.555 161.22 351.674 161.756 351.272 162.707H351.174V158.352H350.018V169ZM362.075 169.141C364.098 169.141 365.387 167.823 365.387 165.758V164.603C365.387 162.538 364.098 161.22 362.075 161.22C360.053 161.22 358.763 162.538 358.763 164.603V165.758C358.763 167.823 360.053 169.141 362.075 169.141ZM362.075 162.277C363.386 162.277 364.203 163.207 364.203 164.708V165.646C364.203 167.154 363.386 168.077 362.075 168.077C360.764 168.077 359.947 167.154 359.947 165.646V164.708C359.947 163.207 360.764 162.277 362.075 162.277ZM370.517 169.127C371.61 169.127 372.413 168.676 372.808 167.83H372.942V169H374.118V158.352H372.899V162.538H372.772C372.441 161.699 371.624 161.227 370.517 161.227C368.749 161.227 367.593 162.503 367.593 164.462V165.885C367.593 167.851 368.749 169.127 370.517 169.127ZM370.87 168.035C369.608 168.035 368.798 167.126 368.798 165.716V164.617C368.798 163.207 369.608 162.305 370.87 162.305C372.124 162.305 372.935 163.207 372.935 164.617V165.716C372.935 167.133 372.124 168.035 370.87 168.035Z" fill="black"/>
<path d="M148.782 260.6L151.441 252.691H149.637L147.829 258.896H147.79L145.982 252.691H144.129L146.787 260.6H148.782ZM152.849 253.93C153.315 253.93 153.682 253.557 153.682 253.108C153.682 252.653 153.315 252.286 152.849 252.286C152.383 252.286 152.016 252.653 152.016 253.108C152.016 253.557 152.383 253.93 152.849 253.93ZM152.055 260.6H153.655V254.725H152.055V260.6ZM158.615 258.803C158.467 259.252 158.018 259.543 157.431 259.543C156.615 259.543 156.083 258.967 156.083 258.128V258.03H160.133V257.542C160.133 255.755 159.054 254.599 157.344 254.599C155.606 254.599 154.51 255.815 154.51 257.69C154.51 259.57 155.595 260.726 157.404 260.726C158.856 260.726 159.909 259.954 160.084 258.803H158.615ZM157.36 255.783C158.073 255.783 158.56 256.298 158.593 257.049H156.099C156.154 256.314 156.659 255.783 157.36 255.783ZM169.172 254.725H167.593L166.7 259.082H166.667L165.62 254.725H164.085L163.044 259.082H163.011L162.123 254.725H160.512L162.074 260.6H163.756L164.814 256.446H164.847L165.91 260.6H167.615L169.172 254.725ZM177.36 256.912C177.289 255.58 176.28 254.599 174.691 254.599C172.931 254.599 171.808 255.772 171.808 257.657C171.808 259.575 172.931 260.726 174.702 260.726C176.247 260.726 177.283 259.833 177.366 258.446H175.875C175.776 259.088 175.36 259.471 174.718 259.471C173.924 259.471 173.43 258.814 173.43 257.657C173.43 256.523 173.924 255.854 174.713 255.854C175.371 255.854 175.782 256.292 175.875 256.912H177.36ZM180.835 260.726C182.611 260.726 183.745 259.592 183.745 257.657C183.745 255.75 182.594 254.599 180.835 254.599C179.076 254.599 177.925 255.755 177.925 257.657C177.925 259.586 179.059 260.726 180.835 260.726ZM180.835 259.504C180.046 259.504 179.547 258.841 179.547 257.663C179.547 256.495 180.057 255.821 180.835 255.821C181.613 255.821 182.118 256.495 182.118 257.663C182.118 258.841 181.619 259.504 180.835 259.504ZM186.754 260.694C187.62 260.694 188.3 260.239 188.585 259.592H188.613V260.6H190.191V252.691H188.591V255.733H188.558C188.273 255.081 187.615 254.632 186.765 254.632C185.291 254.632 184.359 255.788 184.359 257.652C184.359 259.532 185.286 260.694 186.754 260.694ZM187.297 255.914C188.092 255.914 188.602 256.594 188.602 257.663C188.602 258.737 188.092 259.405 187.297 259.405C186.491 259.405 185.998 258.742 185.998 257.663C185.998 256.588 186.491 255.914 187.297 255.914ZM195.151 258.803C195.003 259.252 194.554 259.543 193.967 259.543C193.151 259.543 192.619 258.967 192.619 258.128V258.03H196.67V257.542C196.67 255.755 195.59 254.599 193.88 254.599C192.142 254.599 191.046 255.815 191.046 257.69C191.046 259.57 192.131 260.726 193.94 260.726C195.392 260.726 196.445 259.954 196.62 258.803H195.151ZM193.896 255.783C194.609 255.783 195.096 256.298 195.129 257.049H192.636C192.69 256.314 193.195 255.783 193.896 255.783ZM199.722 260.6H201.323V257.054C201.323 256.396 201.734 255.936 202.342 255.936C202.934 255.936 203.291 256.309 203.291 256.939V260.6H204.831V257.032C204.831 256.38 205.231 255.936 205.839 255.936C206.459 255.936 206.798 256.309 206.798 256.988V260.6H208.399V256.588C208.399 255.404 207.626 254.615 206.475 254.615C205.614 254.615 204.913 255.081 204.65 255.821H204.617C204.42 255.054 203.828 254.615 202.978 254.615C202.178 254.615 201.548 255.081 201.301 255.788H201.268V254.725H199.722V260.6ZM212.109 260.726C213.885 260.726 215.02 259.592 215.02 257.657C215.02 255.75 213.869 254.599 212.109 254.599C210.35 254.599 209.199 255.755 209.199 257.657C209.199 259.586 210.334 260.726 212.109 260.726ZM212.109 259.504C211.32 259.504 210.821 258.841 210.821 257.663C210.821 256.495 211.331 255.821 212.109 255.821C212.888 255.821 213.392 256.495 213.392 257.663C213.392 258.841 212.893 259.504 212.109 259.504ZM215.847 260.6H217.448V257.23C217.448 256.468 217.903 255.942 218.621 255.942C219.339 255.942 219.701 256.38 219.701 257.147V260.6H221.301V256.813C221.301 255.437 220.567 254.615 219.262 254.615C218.358 254.615 217.738 255.043 217.426 255.772H217.393V254.725H215.847V260.6ZM223.137 253.93C223.603 253.93 223.97 253.557 223.97 253.108C223.97 252.653 223.603 252.286 223.137 252.286C222.671 252.286 222.304 252.653 222.304 253.108C222.304 253.557 222.671 253.93 223.137 253.93ZM222.342 260.6H223.943V254.725H222.342V260.6ZM225.439 253.371V254.725H224.611V255.931H225.439V259.016C225.439 260.162 225.976 260.622 227.357 260.622C227.681 260.622 227.955 260.595 228.119 260.556V259.378C228.021 259.395 227.873 259.405 227.73 259.405C227.259 259.405 227.04 259.192 227.04 258.742V255.931H228.125V254.725H227.04V253.371H225.439ZM231.611 260.726C233.386 260.726 234.521 259.592 234.521 257.657C234.521 255.75 233.37 254.599 231.611 254.599C229.851 254.599 228.7 255.755 228.7 257.657C228.7 259.586 229.835 260.726 231.611 260.726ZM231.611 259.504C230.821 259.504 230.323 258.841 230.323 257.663C230.323 256.495 230.832 255.821 231.611 255.821C232.389 255.821 232.893 256.495 232.893 257.663C232.893 258.841 232.394 259.504 231.611 259.504ZM235.349 260.6H236.949V257.317C236.949 256.49 237.41 256.007 238.199 256.007C238.429 256.007 238.648 256.046 238.78 256.1V254.692C238.67 254.659 238.511 254.632 238.325 254.632C237.634 254.632 237.135 255.037 236.927 255.783H236.894V254.725H235.349V260.6ZM241.663 260.6H243.263V257.317C243.263 256.49 243.724 256.007 244.513 256.007C244.743 256.007 244.962 256.046 245.094 256.1V254.692C244.984 254.659 244.825 254.632 244.639 254.632C243.948 254.632 243.45 255.037 243.241 255.783H243.208V254.725H241.663V260.6ZM249.446 258.803C249.298 259.252 248.848 259.543 248.262 259.543C247.445 259.543 246.913 258.967 246.913 258.128V258.03H250.964V257.542C250.964 255.755 249.884 254.599 248.174 254.599C246.437 254.599 245.34 255.815 245.34 257.69C245.34 259.57 246.426 260.726 248.234 260.726C249.687 260.726 250.739 259.954 250.915 258.803H249.446ZM248.191 255.783C248.903 255.783 249.391 256.298 249.424 257.049H246.93C246.985 256.314 247.489 255.783 248.191 255.783ZM251.693 256.451C251.693 257.334 252.268 257.904 253.403 258.145L254.406 258.353C254.981 258.485 255.184 258.66 255.184 258.972C255.184 259.356 254.812 259.603 254.209 259.603C253.573 259.603 253.206 259.329 253.107 258.814H251.545C251.649 259.97 252.586 260.726 254.209 260.726C255.721 260.726 256.779 259.965 256.779 258.808C256.779 257.948 256.275 257.465 255.047 257.208L254.044 256.994C253.452 256.868 253.233 256.665 253.233 256.364C253.233 255.974 253.6 255.722 254.154 255.722C254.746 255.722 255.102 256.046 255.151 256.523H256.626C256.593 255.372 255.661 254.599 254.154 254.599C252.658 254.599 251.693 255.333 251.693 256.451ZM262.995 254.725H261.394V258.09C261.394 258.868 260.95 259.378 260.238 259.378C259.531 259.378 259.142 258.962 259.142 258.178V254.725H257.541V258.512C257.541 259.882 258.385 260.71 259.657 260.71C260.545 260.71 261.126 260.282 261.416 259.543H261.449V260.6H262.995V254.725ZM264.074 260.6H265.675V252.691H264.074V260.6ZM267.182 253.371V254.725H266.354V255.931H267.182V259.016C267.182 260.162 267.719 260.622 269.1 260.622C269.424 260.622 269.698 260.595 269.862 260.556V259.378C269.764 259.395 269.616 259.405 269.473 259.405C269.002 259.405 268.783 259.192 268.783 258.742V255.931H269.868V254.725H268.783V253.371H267.182ZM270.646 256.451C270.646 257.334 271.222 257.904 272.356 258.145L273.359 258.353C273.935 258.485 274.137 258.66 274.137 258.972C274.137 259.356 273.765 259.603 273.162 259.603C272.526 259.603 272.159 259.329 272.06 258.814H270.498C270.602 259.97 271.539 260.726 273.162 260.726C274.675 260.726 275.732 259.965 275.732 258.808C275.732 257.948 275.228 257.465 274 257.208L272.997 256.994C272.405 256.868 272.186 256.665 272.186 256.364C272.186 255.974 272.553 255.722 273.107 255.722C273.699 255.722 274.055 256.046 274.105 256.523H275.579C275.546 255.372 274.614 254.599 273.107 254.599C271.611 254.599 270.646 255.333 270.646 256.451Z" fill="#0B70DB"/>
<path d="M143.976 262.656H276.001V263.697H143.976V262.656Z" fill="#0B70DB"/>
<line x1="130.964" y1="105" x2="130.964" y2="282.838" stroke="#E6EBF2" stroke-width="1.16234"/>
<path d="M111.205 131.123L103.068 126.038V133.768H119.341V126.038L111.205 131.123ZM103.068 123.597L111.205 128.683L119.341 123.597L111.205 118.512L103.068 123.597ZM121.375 123.597V133.768C121.375 134.886 120.46 135.802 119.341 135.802H103.068C101.949 135.802 101.034 134.886 101.034 133.768V123.597C101.034 122.885 101.441 122.173 102.051 121.868L111.205 116.173L120.358 121.868C120.968 122.173 121.375 122.885 121.375 123.597Z" fill="black"/>
<path d="M44.9414 66C44.9414 104 49 136 78 144" stroke="#CCD1E2" stroke-width="6"/>
<path d="M76.8173 143.817L78.308 134L86.6347 145.308L75.3267 153.635L76.8173 143.817Z" fill="#CCD1E2"/>
<g filter="url(#filter1_d_312_3201)">
<rect x="4.5" y="39" width="423" height="27.5922" rx="2.06941" fill="#E1FFDD"/>
<path d="M14.6322 54.3781H17.1482V52.8745H14.6322V50.3463H13.0741V52.8745H10.558V54.3781H13.0741V56.9062H14.6322V54.3781Z" fill="#6EAE50"/>
<path d="M29.0115 48.8092C29.4965 48.8092 29.8663 48.4455 29.8663 47.9605C29.8663 47.4815 29.4965 47.1177 29.0115 47.1177C28.5265 47.1177 28.1567 47.4815 28.1567 47.9605C28.1567 48.4455 28.5265 48.8092 29.0115 48.8092ZM31.77 57V56.1452H29.5935V50.4219H26.3378V51.2768H28.575V56.1452H26.3196V57H31.77ZM39.7425 52.1559C39.7425 50.9373 39.2636 50.3007 38.3481 50.3007C37.6873 50.3007 37.1598 50.7008 36.9901 51.3313H36.8809C36.7415 50.6826 36.305 50.3007 35.6866 50.3007C35.0682 50.3007 34.5953 50.6887 34.4316 51.3495H34.3225V50.4219H33.4009V57H34.3285V52.5621C34.3285 51.7436 34.6923 51.2404 35.2743 51.2404C35.8321 51.2404 36.1231 51.6587 36.1231 52.4529V57H37.0446V52.5621C37.0446 51.7436 37.3963 51.2404 37.9722 51.2404C38.5239 51.2404 38.8149 51.6587 38.8149 52.459V57H39.7425V52.1559ZM44.6594 50.3128C43.7197 50.3128 43.0346 50.7008 42.689 51.4283H42.5799V50.4219H41.5614V59.219H42.6102V55.9815H42.7254C43.0104 56.7029 43.7076 57.1091 44.6594 57.1091C46.1812 57.1091 47.1755 56.0118 47.1755 54.3263V53.1017C47.1755 51.4102 46.1812 50.3128 44.6594 50.3128ZM44.3624 51.2586C45.4476 51.2586 46.1387 52.0346 46.1387 53.2472V54.193C46.1387 55.4055 45.4476 56.1876 44.3624 56.1876C43.2771 56.1876 42.586 55.4116 42.586 54.193V53.2472C42.586 52.0346 43.2771 51.2586 44.3624 51.2586ZM51.9226 57.1213C53.6626 57.1213 54.7721 55.9875 54.7721 54.2111V53.2169C54.7721 51.4405 53.6626 50.3067 51.9226 50.3067C50.1826 50.3067 49.0731 51.4405 49.0731 53.2169V54.2111C49.0731 55.9875 50.1826 57.1213 51.9226 57.1213ZM51.9226 51.2161C53.0503 51.2161 53.7535 52.0164 53.7535 53.3078V54.1141C53.7535 55.4116 53.0503 56.2058 51.9226 56.2058C50.7949 56.2058 50.0916 55.4116 50.0916 54.1141V53.3078C50.0916 52.0164 50.7949 51.2161 51.9226 51.2161ZM59.3373 54.0535C59.3373 52.3802 60.1982 51.3738 61.6533 51.3738C62.011 51.3738 62.4354 51.4465 62.7385 51.5557V50.3977C62.5203 50.3067 62.1625 50.2522 61.7867 50.2522C60.5195 50.2522 59.7011 50.8827 59.4586 52.1013H59.3252V50.4219H56.8698V51.2465H58.3309V56.1755H57.0032V57H61.3744V56.1755H59.3373V54.0535ZM66.1518 48.6577V50.4401H64.3997V51.3192H66.1518V55.0417C66.1518 56.4119 66.9097 57.0303 68.5405 57.0303C68.8558 57.0303 69.6561 57 69.8198 56.9697V56.0967C69.644 56.1148 68.9831 56.133 68.6133 56.133C67.6857 56.133 67.1825 55.745 67.1825 55.0296V51.3192H69.838V50.4401H67.1704V48.6577H66.1518ZM143.058 57H144.088V51.3192H146.98V50.4401H144.076V49.7611C144.076 49.1003 144.561 48.7607 145.477 48.7607C145.847 48.7607 146.695 48.785 146.98 48.8153V47.9726C146.762 47.9423 145.847 47.912 145.465 47.912C143.846 47.912 143.058 48.5061 143.058 49.7793V50.4401H141.293V51.3192H143.058V57ZM151.442 54.0535C151.442 52.3802 152.303 51.3738 153.758 51.3738C154.116 51.3738 154.54 51.4465 154.844 51.5557V50.3977C154.625 50.3067 154.268 50.2522 153.892 50.2522C152.625 50.2522 151.806 50.8827 151.564 52.1013H151.43V50.4219H148.975V51.2465H150.436V56.1755H149.108V57H153.48V56.1755H151.442V54.0535ZM159.379 57.1213C161.119 57.1213 162.228 55.9875 162.228 54.2111V53.2169C162.228 51.4405 161.119 50.3067 159.379 50.3067C157.639 50.3067 156.529 51.4405 156.529 53.2169V54.2111C156.529 55.9875 157.639 57.1213 159.379 57.1213ZM159.379 51.2161C160.506 51.2161 161.209 52.0164 161.209 53.3078V54.1141C161.209 55.4116 160.506 56.2058 159.379 56.2058C158.251 56.2058 157.548 55.4116 157.548 54.1141V53.3078C157.548 52.0164 158.251 51.2161 159.379 51.2161ZM170.225 52.1559C170.225 50.9373 169.746 50.3007 168.83 50.3007C168.17 50.3007 167.642 50.7008 167.472 51.3313H167.363C167.224 50.6826 166.787 50.3007 166.169 50.3007C165.55 50.3007 165.078 50.6887 164.914 51.3495H164.805V50.4219H163.883V57H164.811V52.5621C164.811 51.7436 165.175 51.2404 165.757 51.2404C166.314 51.2404 166.605 51.6587 166.605 52.4529V57H167.527V52.5621C167.527 51.7436 167.879 51.2404 168.454 51.2404C169.006 51.2404 169.297 51.6587 169.297 52.459V57H170.225V52.1559Z" fill="#A626A4"/>
<path d="M84.8857 57H86.0134L83.1942 48.2515H82.0544L79.2352 57H80.3204L81.0844 54.49H84.1278L84.8857 57ZM82.594 49.5368H82.6243L83.849 53.5746H81.3632L82.594 49.5368ZM92.9916 50.4219H91.9609V54.296C91.9609 55.4176 91.2334 56.1755 90.1481 56.1755C89.1235 56.1755 88.6385 55.6177 88.6385 54.4294V50.4219H87.6079V54.6901C87.6079 56.2664 88.3839 57.1213 89.8147 57.1213C90.815 57.1213 91.5668 56.6605 91.9185 55.842H92.0033V57H92.9916V50.4219ZM96.8535 48.6577V50.4401H95.1014V51.3192H96.8535V55.0417C96.8535 56.4119 97.6114 57.0303 99.2423 57.0303C99.5575 57.0303 100.358 57 100.521 56.9697V56.0967C100.346 56.1148 99.6848 56.133 99.315 56.133C98.3874 56.133 97.8842 55.745 97.8842 55.0296V51.3192H100.54V50.4401H97.8721V48.6577H96.8535ZM102.953 57H103.983V53.132C103.983 52.0104 104.717 51.2525 105.802 51.2525C106.833 51.2525 107.318 51.8164 107.318 52.9986V57H108.348V52.7379C108.348 51.1676 107.572 50.3067 106.142 50.3067C105.135 50.3067 104.377 50.7675 104.032 51.586H103.947V47.8392H102.953V57ZM115.587 57H116.715L113.896 48.2515H112.756L109.937 57H111.022L111.786 54.49H114.83L115.587 57ZM113.296 49.5368H113.326L114.551 53.5746H112.065L113.296 49.5368ZM121.414 50.3128C120.474 50.3128 119.789 50.7008 119.443 51.4283H119.334V50.4219H118.316V59.219H119.364V55.9815H119.48C119.765 56.7029 120.462 57.1091 121.414 57.1091C122.935 57.1091 123.93 56.0118 123.93 54.3263V53.1017C123.93 51.4102 122.935 50.3128 121.414 50.3128ZM121.117 51.2586C122.202 51.2586 122.893 52.0346 122.893 53.2472V54.193C122.893 55.4055 122.202 56.1876 121.117 56.1876C120.031 56.1876 119.34 55.4116 119.34 54.193V53.2472C119.34 52.0346 120.031 51.2586 121.117 51.2586ZM128.792 48.8092C129.277 48.8092 129.647 48.4455 129.647 47.9605C129.647 47.4815 129.277 47.1177 128.792 47.1177C128.307 47.1177 127.937 47.4815 127.937 47.9605C127.937 48.4455 128.307 48.8092 128.792 48.8092ZM131.551 57V56.1452H129.374V50.4219H126.118V51.2768H128.356V56.1452H126.1V57H131.551Z" fill="#ED36D0"/>
<path d="M182.49 48.2515L181.35 52.1983H182.714L183.466 48.2515H182.49ZM190.28 56.1694C188.862 56.1694 188.122 55.2176 188.122 53.4048V51.8467C188.122 50.0339 188.862 49.0821 190.274 49.0821C191.396 49.0821 192.178 49.8763 192.214 51.0585H193.3C193.263 49.1912 192.123 48.0696 190.28 48.0696C188.225 48.0696 187.031 49.458 187.031 51.8467V53.4048C187.031 55.7935 188.225 57.1819 190.28 57.1819C192.069 57.1819 193.294 56.036 193.294 54.3445H192.214C192.184 55.4722 191.444 56.1694 190.28 56.1694ZM200.448 50.4219H199.417V54.296C199.417 55.4176 198.689 56.1755 197.604 56.1755C196.58 56.1755 196.094 55.6177 196.094 54.4294V50.4219H195.064V54.6901C195.064 56.2664 195.84 57.1213 197.271 57.1213C198.271 57.1213 199.023 56.6605 199.374 55.842H199.459V57H200.448V50.4219ZM203.036 52.1983C203.036 53.132 203.624 53.7322 204.813 54.005L205.789 54.2293C206.625 54.4173 206.947 54.6962 206.947 55.2176C206.947 55.8481 206.377 56.2543 205.48 56.2543C204.631 56.2543 204.049 55.9026 203.897 55.2964H202.848C202.964 56.424 203.952 57.1213 205.443 57.1213C207.001 57.1213 208.014 56.3331 208.014 55.1206C208.014 54.1687 207.432 53.6109 206.153 53.3199L205.225 53.1077C204.4 52.9258 204.061 52.6409 204.061 52.1377C204.061 51.5375 204.601 51.1495 205.437 51.1495C206.207 51.1495 206.759 51.5011 206.88 52.0771H207.874C207.753 50.9797 206.826 50.2946 205.455 50.2946C204.006 50.2946 203.036 51.0585 203.036 52.1983ZM211.985 48.6577V50.4401H210.233V51.3192H211.985V55.0417C211.985 56.4119 212.743 57.0303 214.374 57.0303C214.689 57.0303 215.489 57 215.653 56.9697V56.0967C215.477 56.1148 214.816 56.133 214.446 56.133C213.519 56.133 213.016 55.745 213.016 55.0296V51.3192H215.671V50.4401H213.003V48.6577H211.985ZM220.782 57.1213C222.522 57.1213 223.631 55.9875 223.631 54.2111V53.2169C223.631 51.4405 222.522 50.3067 220.782 50.3067C219.042 50.3067 217.932 51.4405 217.932 53.2169V54.2111C217.932 55.9875 219.042 57.1213 220.782 57.1213ZM220.782 51.2161C221.91 51.2161 222.613 52.0164 222.613 53.3078V54.1141C222.613 55.4116 221.91 56.2058 220.782 56.2058C219.654 56.2058 218.951 55.4116 218.951 54.1141V53.3078C218.951 52.0164 219.654 51.2161 220.782 51.2161ZM231.628 52.1559C231.628 50.9373 231.149 50.3007 230.234 50.3007C229.573 50.3007 229.045 50.7008 228.876 51.3313H228.767C228.627 50.6826 228.191 50.3007 227.572 50.3007C226.954 50.3007 226.481 50.6887 226.317 51.3495H226.208V50.4219H225.287V57H226.214V52.5621C226.214 51.7436 226.578 51.2404 227.16 51.2404C227.718 51.2404 228.009 51.6587 228.009 52.4529V57H228.93V52.5621C228.93 51.7436 229.282 51.2404 229.858 51.2404C230.41 51.2404 230.701 51.6587 230.701 52.459V57H231.628V52.1559ZM238.394 57H239.522L236.703 48.2515H235.563L232.744 57H233.829L234.593 54.49H237.636L238.394 57ZM236.102 49.5368H236.133L237.357 53.5746H234.872L236.102 49.5368ZM246.5 50.4219H245.469V54.296C245.469 55.4176 244.742 56.1755 243.657 56.1755C242.632 56.1755 242.147 55.6177 242.147 54.4294V50.4219H241.116V54.6901C241.116 56.2664 241.892 57.1213 243.323 57.1213C244.324 57.1213 245.075 56.6605 245.427 55.842H245.512V57H246.5V50.4219ZM250.362 48.6577V50.4401H248.61V51.3192H250.362V55.0417C250.362 56.4119 251.12 57.0303 252.751 57.0303C253.066 57.0303 253.866 57 254.03 56.9697V56.0967C253.854 56.1148 253.193 56.133 252.824 56.133C251.896 56.133 251.393 55.745 251.393 55.0296V51.3192H254.048V50.4401H251.381V48.6577H250.362ZM256.461 57H257.492V53.132C257.492 52.0104 258.225 51.2525 259.311 51.2525C260.341 51.2525 260.826 51.8164 260.826 52.9986V57H261.857V52.7379C261.857 51.1676 261.081 50.3067 259.65 50.3067C258.644 50.3067 257.886 50.7675 257.54 51.586H257.455V47.8392H256.461V57ZM266.75 52.1983L267.889 48.2515H266.525L265.774 52.1983H266.75Z" fill="#499E52"/>
</g>
<defs>
<filter id="filter0_d_312_3201" x="85.2132" y="103.719" width="368.138" height="187.976" filterUnits="userSpaceOnUse" color-interpolation-filters="sRGB">
<feFlood flood-opacity="0" result="BackgroundImageFix"/>
<feColorMatrix in="SourceAlpha" type="matrix" values="0 0 0 0 0 0 0 0 0 0 0 0 0 0 0 0 0 0 127 0" result="hardAlpha"/>
<feMorphology radius="4.81072" operator="erode" in="SourceAlpha" result="effect1_dropShadow_312_3201"/>
<feOffset dy="3.20714"/>
<feGaussianBlur stdDeviation="4.64935"/>
<feColorMatrix type="matrix" values="0 0 0 0 0.141522 0 0 0 0 0.159783 0 0 0 0 0.21 0 0 0 0.2 0"/>
<feBlend mode="normal" in2="BackgroundImageFix" result="effect1_dropShadow_312_3201"/>
<feBlend mode="normal" in="SourceGraphic" in2="effect1_dropShadow_312_3201" result="shape"/>
</filter>
<filter id="filter1_d_312_3201" x="0.361171" y="37.6204" width="431.278" height="35.8699" filterUnits="userSpaceOnUse" color-interpolation-filters="sRGB">
<feFlood flood-opacity="0" result="BackgroundImageFix"/>
<feColorMatrix in="SourceAlpha" type="matrix" values="0 0 0 0 0 0 0 0 0 0 0 0 0 0 0 0 0 0 127 0" result="hardAlpha"/>
<feMorphology radius="4.13883" operator="erode" in="SourceAlpha" result="effect1_dropShadow_312_3201"/>
<feOffset dy="2.75922"/>
<feGaussianBlur stdDeviation="4.13883"/>
<feColorMatrix type="matrix" values="0 0 0 0 0.141522 0 0 0 0 0.159783 0 0 0 0 0.21 0 0 0 0.2 0"/>
<feBlend mode="normal" in2="BackgroundImageFix" result="effect1_dropShadow_312_3201"/>
<feBlend mode="normal" in="SourceGraphic" in2="effect1_dropShadow_312_3201" result="shape"/>
</filter>
</defs>
</svg>
