<svg width="457" height="304" viewBox="0 0 457 304" fill="none" xmlns="http://www.w3.org/2000/svg">
<rect x="0.5" width="456" height="304" fill="white"/>
<g opacity="0.5">
<path d="M7.36767 28.3145H8.39834V22.6337H11.2903V21.7546H8.38621V21.0756C8.38621 20.4148 8.87123 20.0753 9.78671 20.0753C10.1565 20.0753 11.0053 20.0995 11.2903 20.1298V19.2871C11.072 19.2568 10.1565 19.2265 9.77458 19.2265C8.15583 19.2265 7.36767 19.8206 7.36767 21.0938V21.7546H5.60342V22.6337H7.36767V28.3145ZM18.705 21.7364H17.6743V25.6105C17.6743 26.7321 16.9468 27.49 15.8616 27.49C14.837 27.49 14.3519 26.9322 14.3519 25.7439V21.7364H13.3213V26.0046C13.3213 27.5809 14.0973 28.4358 15.5281 28.4358C16.5285 28.4358 17.2803 27.975 17.6319 27.1565H17.7168V28.3145H18.705V21.7364ZM20.9967 28.3145H22.0274V24.4404C22.0274 23.3188 22.7549 22.561 23.8401 22.561C24.8647 22.561 25.3498 23.1187 25.3498 24.307V28.3145H26.3804V24.0463C26.3804 22.47 25.6044 21.6152 24.1736 21.6152C23.1732 21.6152 22.4215 22.076 22.0698 22.8944H21.9849V21.7364H20.9967V28.3145ZM34.1043 23.7856C33.9346 22.4337 32.9403 21.6091 31.4852 21.6091C29.6967 21.6091 28.6539 22.7065 28.6539 24.592V25.4529C28.6539 27.3384 29.6967 28.4358 31.4852 28.4358C32.9403 28.4358 33.9407 27.6173 34.1043 26.2774H33.0858C32.9585 27.0292 32.3158 27.5082 31.4671 27.5082C30.3212 27.5082 29.6846 26.7321 29.6846 25.3195V24.7254C29.6846 23.3128 30.3212 22.5307 31.4671 22.5307C32.3158 22.5307 32.9585 23.0157 33.0858 23.7856H34.1043ZM37.9178 19.9722V21.7546H36.1657V22.6337H37.9178V26.3562C37.9178 27.7264 38.6757 28.3448 40.3065 28.3448C40.6218 28.3448 41.4221 28.3145 41.5858 28.2842V27.4112C41.4099 27.4294 40.7491 27.4475 40.3793 27.4475C39.4517 27.4475 38.9485 27.0595 38.9485 26.3441V22.6337H41.604V21.7546H38.9364V19.9722H37.9178ZM46.83 20.1238C47.3151 20.1238 47.6849 19.76 47.6849 19.275C47.6849 18.796 47.3151 18.4323 46.83 18.4323C46.345 18.4323 45.9752 18.796 45.9752 19.275C45.9752 19.76 46.345 20.1238 46.83 20.1238ZM49.5886 28.3145V27.4597H47.4121V21.7364H44.1564V22.5913H46.3935V27.4597H44.1382V28.3145H49.5886ZM54.3903 28.4358C56.1303 28.4358 57.2398 27.302 57.2398 25.5257V24.5314C57.2398 22.755 56.1303 21.6213 54.3903 21.6213C52.6503 21.6213 51.5408 22.755 51.5408 24.5314V25.5257C51.5408 27.302 52.6503 28.4358 54.3903 28.4358ZM54.3903 22.5307C55.5179 22.5307 56.2212 23.3309 56.2212 24.6223V25.4287C56.2212 26.7261 55.5179 27.5203 54.3903 27.5203C53.2626 27.5203 52.5593 26.7261 52.5593 25.4287V24.6223C52.5593 23.3309 53.2626 22.5307 54.3903 22.5307ZM59.3738 28.3145H60.4045V24.4404C60.4045 23.3188 61.132 22.561 62.2173 22.561C63.2419 22.561 63.7269 23.1187 63.7269 24.307V28.3145H64.7576V24.0463C64.7576 22.47 63.9815 21.6152 62.5507 21.6152C61.5504 21.6152 60.7986 22.076 60.4469 22.8944H60.3621V21.7364H59.3738V28.3145Z" fill="#A626A4"/>
<path d="M168.2 23.9372C168.2 25.9985 168.818 27.781 170.025 29.1512H171.049C169.794 27.3869 169.267 25.8409 169.267 23.9372C169.267 22.0335 169.794 20.4875 171.049 18.7233H170.025C168.818 20.0934 168.2 21.8819 168.2 23.9372ZM176.075 19.9722V21.7546H174.323V22.6337H176.075V26.3562C176.075 27.7264 176.833 28.3448 178.464 28.3448C178.779 28.3448 179.58 28.3145 179.743 28.2842V27.4112C179.568 27.4294 178.907 27.4475 178.537 27.4475C177.609 27.4475 177.106 27.0595 177.106 26.3441V22.6337H179.762V21.7546H177.094V19.9722H176.075ZM184.873 28.4358C186.613 28.4358 187.722 27.302 187.722 25.5257V24.5314C187.722 22.755 186.613 21.6213 184.873 21.6213C183.133 21.6213 182.023 22.755 182.023 24.5314V25.5257C182.023 27.302 183.133 28.4358 184.873 28.4358ZM184.873 22.5307C186 22.5307 186.703 23.3309 186.703 24.6223V25.4287C186.703 26.7261 186 27.5203 184.873 27.5203C183.745 27.5203 183.042 26.7261 183.042 25.4287V24.6223C183.042 23.3309 183.745 22.5307 184.873 22.5307ZM191.451 24.689H191.372V19.1537H190.341V28.3145H191.372V25.9197L192.281 25.0467L194.524 28.3145H195.749L193.015 24.3434L195.567 21.7364H194.318L191.451 24.689ZM202 26.6169C201.818 27.1929 201.206 27.5445 200.375 27.5445C199.253 27.5445 198.538 26.7685 198.538 25.562V25.2953H203.018V24.6526C203.018 22.7489 202.012 21.6152 200.302 21.6152C198.629 21.6152 197.519 22.755 197.519 24.4889V25.4772C197.519 27.3505 198.568 28.4358 200.375 28.4358C201.757 28.4358 202.8 27.7022 203 26.6169H202ZM200.296 22.5003C201.357 22.5003 202 23.2582 202 24.5132H198.538C198.538 23.2521 199.199 22.5003 200.296 22.5003ZM205.207 28.3145H206.238V24.4404C206.238 23.3188 206.965 22.561 208.05 22.561C209.075 22.561 209.56 23.1187 209.56 24.307V28.3145H210.591V24.0463C210.591 22.47 209.815 21.6152 208.384 21.6152C207.383 21.6152 206.632 22.076 206.28 22.8944H206.195V21.7364H205.207V28.3145ZM216.896 23.9372C216.896 21.8819 216.277 20.0934 215.071 18.7233H214.046C215.301 20.4875 215.829 22.0335 215.829 23.9372C215.829 25.8409 215.301 27.3869 214.046 29.1512H215.071C216.277 27.781 216.896 25.9985 216.896 23.9372ZM225.614 29.1451V28.3145H224.953C224.044 28.3145 223.868 28.1023 223.868 27.0474V25.4287C223.868 24.5799 223.231 24.016 222.001 23.9918V23.8948C223.231 23.8645 223.868 23.3006 223.868 22.4518V20.8331C223.868 19.7782 224.044 19.566 224.953 19.566H225.614V18.7354H224.79C223.316 18.7354 222.849 19.2022 222.849 20.6997V22.0578C222.849 22.9975 222.304 23.5371 220.885 23.3916V24.4889C222.304 24.3434 222.849 24.8891 222.849 25.8227V27.1808C222.849 28.6783 223.316 29.1451 224.79 29.1451H225.614Z" fill="#383A42"/>
<path d="M76.7496 28.4297C77.7076 28.4297 78.423 28.0356 78.7382 27.3324H78.8413V28.3206H79.8235V23.816C79.8235 22.4458 78.9383 21.6576 77.3923 21.6576C76.0464 21.6576 75.0278 22.3791 74.9066 23.434H75.9191C76.0888 22.8702 76.6223 22.5489 77.3802 22.5489C78.2956 22.5489 78.7989 23.0036 78.7989 23.8281V24.4222L76.9922 24.5132C75.4947 24.592 74.658 25.2831 74.658 26.4472C74.658 27.6416 75.4947 28.4297 76.7496 28.4297ZM77.0467 27.5264C76.2161 27.5264 75.7008 27.102 75.7008 26.4108C75.7008 25.7257 76.1858 25.3316 77.1073 25.2892L78.7989 25.2104V25.9864C78.7989 26.8655 78.041 27.5264 77.0467 27.5264ZM87.7838 21.7364H86.7532V25.6105C86.7532 26.7321 86.0256 27.49 84.9404 27.49C83.9158 27.49 83.4308 26.9322 83.4308 25.7439V21.7364H82.4001V26.0046C82.4001 27.5809 83.1761 28.4358 84.607 28.4358C85.6073 28.4358 86.3591 27.975 86.7107 27.1565H86.7956V28.3145H87.7838V21.7364ZM91.6458 19.9722V21.7546H89.8937V22.6337H91.6458V26.3562C91.6458 27.7264 92.4036 28.3448 94.0345 28.3448C94.3498 28.3448 95.1501 28.3145 95.3138 28.2842V27.4112C95.1379 27.4294 94.4771 27.4475 94.1073 27.4475C93.1797 27.4475 92.6765 27.0595 92.6765 26.3441V22.6337H95.3319V21.7546H92.6643V19.9722H91.6458ZM97.7449 28.3145H98.7756V24.4465C98.7756 23.3249 99.5092 22.567 100.594 22.567C101.625 22.567 102.11 23.1309 102.11 24.3131V28.3145H103.141V24.0524C103.141 22.4822 102.365 21.6213 100.934 21.6213C99.9275 21.6213 99.1696 22.082 98.8241 22.9005H98.7392V19.1537H97.7449V28.3145ZM109.895 26.6169C109.713 27.1929 109.1 27.5445 108.27 27.5445C107.148 27.5445 106.433 26.7685 106.433 25.562V25.2953H110.913V24.6526C110.913 22.7489 109.907 21.6152 108.197 21.6152C106.524 21.6152 105.414 22.755 105.414 24.4889V25.4772C105.414 27.3505 106.463 28.4358 108.27 28.4358C109.652 28.4358 110.695 27.7022 110.895 26.6169H109.895ZM108.191 22.5003C109.252 22.5003 109.895 23.2582 109.895 24.5132H106.433C106.433 23.2521 107.094 22.5003 108.191 22.5003ZM113.102 28.3145H114.132V24.4404C114.132 23.3188 114.86 22.561 115.945 22.561C116.97 22.561 117.455 23.1187 117.455 24.307V28.3145H118.486V24.0463C118.486 22.47 117.71 21.6152 116.279 21.6152C115.278 21.6152 114.527 22.076 114.175 22.8944H114.09V21.7364H113.102V28.3145ZM122.347 19.9722V21.7546H120.595V22.6337H122.347V26.3562C122.347 27.7264 123.105 28.3448 124.736 28.3448C125.051 28.3448 125.852 28.3145 126.015 28.2842V27.4112C125.84 27.4294 125.179 27.4475 124.809 27.4475C123.881 27.4475 123.378 27.0595 123.378 26.3441V22.6337H126.034V21.7546H123.366V19.9722H122.347ZM131.26 20.1238C131.745 20.1238 132.115 19.76 132.115 19.275C132.115 18.796 131.745 18.4323 131.26 18.4323C130.775 18.4323 130.405 18.796 130.405 19.275C130.405 19.76 130.775 20.1238 131.26 20.1238ZM134.018 28.3145V27.4597H131.842V21.7364H128.586V22.5913H130.823V27.4597H128.568V28.3145H134.018ZM141.56 23.7856C141.391 22.4337 140.396 21.6091 138.941 21.6091C137.153 21.6091 136.11 22.7065 136.11 24.592V25.4529C136.11 27.3384 137.153 28.4358 138.941 28.4358C140.396 28.4358 141.397 27.6173 141.56 26.2774H140.542C140.414 27.0292 139.772 27.5082 138.923 27.5082C137.777 27.5082 137.141 26.7321 137.141 25.3195V24.7254C137.141 23.3128 137.777 22.5307 138.923 22.5307C139.772 22.5307 140.414 23.0157 140.542 23.7856H141.56ZM145.828 28.4297C146.786 28.4297 147.502 28.0356 147.817 27.3324H147.92V28.3206H148.902V23.816C148.902 22.4458 148.017 21.6576 146.471 21.6576C145.125 21.6576 144.107 22.3791 143.985 23.434H144.998C145.168 22.8702 145.701 22.5489 146.459 22.5489C147.374 22.5489 147.878 23.0036 147.878 23.8281V24.4222L146.071 24.5132C144.573 24.592 143.737 25.2831 143.737 26.4472C143.737 27.6416 144.573 28.4297 145.828 28.4297ZM146.126 27.5264C145.295 27.5264 144.78 27.102 144.78 26.4108C144.78 25.7257 145.265 25.3316 146.186 25.2892L147.878 25.2104V25.9864C147.878 26.8655 147.12 27.5264 146.126 27.5264ZM153.049 19.9722V21.7546H151.297V22.6337H153.049V26.3562C153.049 27.7264 153.807 28.3448 155.438 28.3448C155.753 28.3448 156.553 28.3145 156.717 28.2842V27.4112C156.541 27.4294 155.881 27.4475 155.511 27.4475C154.583 27.4475 154.08 27.0595 154.08 26.3441V22.6337H156.735V21.7546H154.068V19.9722H153.049ZM163.623 26.6169C163.441 27.1929 162.828 27.5445 161.998 27.5445C160.876 27.5445 160.161 26.7685 160.161 25.562V25.2953H164.641V24.6526C164.641 22.7489 163.635 21.6152 161.925 21.6152C160.252 21.6152 159.142 22.755 159.142 24.4889V25.4772C159.142 27.3505 160.191 28.4358 161.998 28.4358C163.38 28.4358 164.423 27.7022 164.623 26.6169H163.623ZM161.919 22.5003C162.98 22.5003 163.623 23.2582 163.623 24.5132H160.161C160.161 23.2521 160.822 22.5003 161.919 22.5003Z" fill="#4078F2"/>
</g>
<g filter="url(#filter0_d)">
<rect x="89.2013" y="105" width="359.162" height="179" rx="2.40536" fill="white"/>
<rect x="90.2013" y="106" width="357.162" height="177" rx="1.40536" stroke="#DCE2EA" stroke-width="2"/>
</g>
<path d="M148.556 141.648V132.621H151.629V131.479H144.244V132.621H147.316V141.648H148.556ZM156.858 141.789C158.88 141.789 160.17 140.471 160.17 138.407V137.251C160.17 135.186 158.88 133.868 156.858 133.868C154.835 133.868 153.546 135.186 153.546 137.251V138.407C153.546 140.471 154.835 141.789 156.858 141.789ZM156.858 134.925C158.169 134.925 158.986 135.856 158.986 137.357V138.294C158.986 139.802 158.169 140.725 156.858 140.725C155.547 140.725 154.73 139.802 154.73 138.294V137.357C154.73 135.856 155.547 134.925 156.858 134.925ZM165.779 136.278C166.477 136.278 167.055 135.686 167.055 134.975C167.055 134.263 166.477 133.671 165.779 133.671C165.082 133.671 164.504 134.263 164.504 134.975C164.504 135.686 165.082 136.278 165.779 136.278ZM165.779 141.69C166.477 141.69 167.055 141.106 167.055 140.387C167.055 139.675 166.477 139.09 165.779 139.09C165.082 139.09 164.504 139.675 164.504 140.387C164.504 141.106 165.082 141.69 165.779 141.69ZM180.839 136.067C180.839 137.152 181.522 137.85 182.903 138.167L184.038 138.428C185.01 138.646 185.384 138.97 185.384 139.576C185.384 140.309 184.721 140.781 183.678 140.781C182.692 140.781 182.015 140.373 181.839 139.668H180.62C180.754 140.979 181.903 141.789 183.636 141.789C185.447 141.789 186.624 140.873 186.624 139.464C186.624 138.357 185.948 137.709 184.461 137.371L183.383 137.124C182.424 136.913 182.03 136.581 182.03 135.997C182.03 135.299 182.657 134.848 183.629 134.848C184.524 134.848 185.165 135.257 185.306 135.926H186.462C186.321 134.651 185.243 133.854 183.65 133.854C181.966 133.854 180.839 134.742 180.839 136.067ZM194.608 139.675C194.397 140.345 193.685 140.753 192.72 140.753C191.416 140.753 190.584 139.851 190.584 138.449V138.139H195.792V137.392C195.792 135.179 194.622 133.861 192.635 133.861C190.69 133.861 189.401 135.186 189.401 137.202V138.35C189.401 140.528 190.62 141.789 192.72 141.789C194.326 141.789 195.538 140.936 195.771 139.675H194.608ZM192.628 134.89C193.861 134.89 194.608 135.771 194.608 137.23H190.584C190.584 135.764 191.353 134.89 192.628 134.89ZM204.65 136.384C204.453 134.813 203.297 133.854 201.606 133.854C199.527 133.854 198.315 135.13 198.315 137.321V138.322C198.315 140.514 199.527 141.789 201.606 141.789C203.297 141.789 204.46 140.838 204.65 139.28H203.466C203.318 140.154 202.571 140.711 201.585 140.711C200.253 140.711 199.513 139.809 199.513 138.167V137.476C199.513 135.834 200.253 134.925 201.585 134.925C202.571 134.925 203.318 135.489 203.466 136.384H204.65ZM213.515 134.002H212.317V138.505C212.317 139.809 211.472 140.69 210.21 140.69C209.019 140.69 208.456 140.041 208.456 138.66V134.002H207.258V138.963C207.258 140.796 208.16 141.789 209.823 141.789C210.985 141.789 211.859 141.254 212.268 140.302H212.367V141.648H213.515V134.002ZM219.005 138.223C219.005 136.278 220.006 135.109 221.697 135.109C222.113 135.109 222.606 135.193 222.958 135.32V133.974C222.704 133.868 222.289 133.805 221.852 133.805C220.379 133.805 219.428 134.538 219.146 135.954H218.991V134.002H216.137V134.961H217.835V140.69H216.292V141.648H221.373V140.69H219.005V138.223ZM228.363 132.128C228.927 132.128 229.357 131.705 229.357 131.141C229.357 130.584 228.927 130.162 228.363 130.162C227.799 130.162 227.37 130.584 227.37 131.141C227.37 131.705 227.799 132.128 228.363 132.128ZM231.57 141.648V140.655H229.04V134.002H225.255V134.996H227.856V140.655H225.234V141.648H231.57ZM235.847 131.952V134.023H233.81V135.045H235.847V139.372C235.847 140.965 236.728 141.683 238.624 141.683C238.99 141.683 239.92 141.648 240.11 141.613V140.598C239.906 140.619 239.138 140.64 238.708 140.64C237.63 140.64 237.045 140.189 237.045 139.358V135.045H240.132V134.023H237.031V131.952H235.847ZM243.93 144.368C245.346 144.368 245.988 143.812 246.657 141.93L249.539 134.002H248.264L246.129 140.401H246.037L243.895 134.002H242.591L245.403 141.698L245.269 142.113C244.952 143.001 244.557 143.325 243.838 143.325C243.726 143.325 243.507 143.318 243.415 143.297V144.347C243.521 144.361 243.754 144.368 243.93 144.368ZM255.205 143.043C255.896 143.043 256.593 142.931 256.932 142.769V141.937C256.636 142.085 255.966 142.191 255.332 142.191C253.19 142.191 252.21 140.781 252.21 137.66V136.567C252.21 133.495 253.119 132.107 255.092 132.107C256.939 132.107 257.897 133.333 257.897 135.736V137.716C257.897 138.421 257.657 138.681 257.009 138.681H255.853V135.757C255.853 135.228 255.586 134.897 255.177 134.897C254.761 134.897 254.493 135.228 254.493 135.757V138.639C254.493 139.161 254.824 139.492 255.353 139.492H257.15C258.165 139.492 258.757 138.822 258.757 137.688V135.581C258.757 132.797 257.439 131.254 255.099 131.254C252.64 131.254 251.336 133.072 251.336 136.504V137.822C251.336 141.254 252.668 143.043 255.205 143.043ZM263.14 141.782C264.253 141.782 265.085 141.324 265.451 140.507H265.571V141.655H266.713V136.419C266.713 134.827 265.684 133.911 263.887 133.911C262.322 133.911 261.139 134.749 260.998 135.975H262.174C262.372 135.32 262.992 134.947 263.873 134.947C264.937 134.947 265.522 135.475 265.522 136.433V137.124L263.422 137.23C261.681 137.321 260.709 138.125 260.709 139.478C260.709 140.866 261.681 141.782 263.14 141.782ZM263.485 140.732C262.52 140.732 261.921 140.239 261.921 139.435C261.921 138.639 262.485 138.181 263.556 138.132L265.522 138.04V138.942C265.522 139.964 264.641 140.732 263.485 140.732ZM276.022 136.384C275.824 134.813 274.669 133.854 272.977 133.854C270.899 133.854 269.686 135.13 269.686 137.321V138.322C269.686 140.514 270.899 141.789 272.977 141.789C274.669 141.789 275.831 140.838 276.022 139.28H274.838C274.69 140.154 273.943 140.711 272.956 140.711C271.624 140.711 270.884 139.809 270.884 138.167V137.476C270.884 135.834 271.624 134.925 272.956 134.925C273.943 134.925 274.69 135.489 274.838 136.384H276.022ZM285.443 136.018C285.443 134.601 284.887 133.861 283.823 133.861C283.055 133.861 282.441 134.326 282.244 135.059H282.117C281.955 134.305 281.448 133.861 280.729 133.861C280.01 133.861 279.461 134.312 279.27 135.08H279.143V134.002H278.072V141.648H279.151V136.49C279.151 135.538 279.573 134.954 280.25 134.954C280.898 134.954 281.236 135.44 281.236 136.363V141.648H282.308V136.49C282.308 135.538 282.716 134.954 283.386 134.954C284.027 134.954 284.365 135.44 284.365 136.37V141.648H285.443V136.018ZM292.744 139.675C292.533 140.345 291.821 140.753 290.856 140.753C289.552 140.753 288.72 139.851 288.72 138.449V138.139H293.928V137.392C293.928 135.179 292.758 133.861 290.771 133.861C288.826 133.861 287.536 135.186 287.536 137.202V138.35C287.536 140.528 288.756 141.789 290.856 141.789C292.462 141.789 293.674 140.936 293.907 139.675H292.744ZM290.764 134.89C291.997 134.89 292.744 135.771 292.744 137.23H288.72C288.72 135.764 289.488 134.89 290.764 134.89ZM302.786 136.384C302.589 134.813 301.433 133.854 299.742 133.854C297.663 133.854 296.451 135.13 296.451 137.321V138.322C296.451 140.514 297.663 141.789 299.742 141.789C301.433 141.789 302.596 140.838 302.786 139.28H301.602C301.454 140.154 300.707 140.711 299.721 140.711C298.389 140.711 297.649 139.809 297.649 138.167V137.476C297.649 135.834 298.389 134.925 299.721 134.925C300.707 134.925 301.454 135.489 301.602 136.384H302.786ZM308.522 141.789C310.545 141.789 311.834 140.471 311.834 138.407V137.251C311.834 135.186 310.545 133.868 308.522 133.868C306.5 133.868 305.21 135.186 305.21 137.251V138.407C305.21 140.471 306.5 141.789 308.522 141.789ZM308.522 134.925C309.833 134.925 310.65 135.856 310.65 137.357V138.294C310.65 139.802 309.833 140.725 308.522 140.725C307.211 140.725 306.394 139.802 306.394 138.294V137.357C306.394 135.856 307.211 134.925 308.522 134.925ZM317.141 138.223C317.141 136.278 318.141 135.109 319.833 135.109C320.248 135.109 320.742 135.193 321.094 135.32V133.974C320.84 133.868 320.425 133.805 319.988 133.805C318.515 133.805 317.563 134.538 317.282 135.954H317.127V134.002H314.273V134.961H315.971V140.69H314.428V141.648H319.508V140.69H317.141V138.223ZM326.844 133.875C325.752 133.875 324.956 134.326 324.554 135.172H324.427V134.002H323.243V144.227H324.462V140.464H324.596C324.928 141.303 325.738 141.775 326.844 141.775C328.613 141.775 329.769 140.5 329.769 138.54V137.117C329.769 135.151 328.613 133.875 326.844 133.875ZM326.499 134.975C327.76 134.975 328.564 135.877 328.564 137.286V138.385C328.564 139.795 327.76 140.704 326.499 140.704C325.238 140.704 324.434 139.802 324.434 138.385V137.286C324.434 135.877 325.238 134.975 326.499 134.975ZM335.287 141.69C335.984 141.69 336.562 141.106 336.562 140.387C336.562 139.675 335.984 139.09 335.287 139.09C334.589 139.09 334.011 139.675 334.011 140.387C334.011 141.106 334.589 141.69 335.287 141.69ZM347.393 136.384C347.196 134.813 346.04 133.854 344.349 133.854C342.27 133.854 341.058 135.13 341.058 137.321V138.322C341.058 140.514 342.27 141.789 344.349 141.789C346.04 141.789 347.203 140.838 347.393 139.28H346.209C346.061 140.154 345.314 140.711 344.328 140.711C342.996 140.711 342.256 139.809 342.256 138.167V137.476C342.256 135.834 342.996 134.925 344.328 134.925C345.314 134.925 346.061 135.489 346.209 136.384H347.393ZM353.129 141.789C355.152 141.789 356.441 140.471 356.441 138.407V137.251C356.441 135.186 355.152 133.868 353.129 133.868C351.107 133.868 349.817 135.186 349.817 137.251V138.407C349.817 140.471 351.107 141.789 353.129 141.789ZM353.129 134.925C354.44 134.925 355.258 135.856 355.258 137.357V138.294C355.258 139.802 354.44 140.725 353.129 140.725C351.819 140.725 351.001 139.802 351.001 138.294V137.357C351.001 135.856 351.819 134.925 353.129 134.925Z" fill="black"/>
<path d="M151.283 219.088V206.934H155.538V204.4H143.964V206.934H148.209V219.088H151.283ZM159.589 219.322C162.887 219.322 164.994 217.215 164.994 213.622C164.994 210.079 162.856 207.942 159.589 207.942C156.321 207.942 154.184 210.09 154.184 213.622C154.184 217.205 156.291 219.322 159.589 219.322ZM159.589 217.052C158.123 217.052 157.197 215.82 157.197 213.632C157.197 211.464 158.143 210.212 159.589 210.212C161.034 210.212 161.971 211.464 161.971 213.632C161.971 215.82 161.044 217.052 159.589 217.052ZM169.615 212.553H169.574V204.4H166.602V219.088H169.574V215.484L170.348 214.65L173.473 219.088H176.893L172.526 212.858L176.689 208.176H173.32L169.615 212.553ZM184.466 215.749C184.191 216.584 183.357 217.123 182.267 217.123C180.751 217.123 179.763 216.055 179.763 214.497V214.314H187.286V213.408C187.286 210.09 185.28 207.942 182.105 207.942C178.878 207.942 176.842 210.202 176.842 213.683C176.842 217.174 178.858 219.322 182.217 219.322C184.914 219.322 186.868 217.887 187.194 215.749H184.466ZM182.135 210.141C183.458 210.141 184.364 211.097 184.425 212.492H179.794C179.896 211.128 180.832 210.141 182.135 210.141ZM188.823 219.088H191.795V212.828C191.795 211.413 192.64 210.436 193.973 210.436C195.307 210.436 195.978 211.25 195.978 212.675V219.088H198.951V212.054C198.951 209.499 197.587 207.972 195.164 207.972C193.485 207.972 192.334 208.766 191.754 210.12H191.693V208.176H188.823V219.088ZM204.966 219.088H207.939V212.502C207.939 211.281 208.702 210.426 209.832 210.426C210.931 210.426 211.593 211.118 211.593 212.288V219.088H214.453V212.461C214.453 211.25 215.196 210.426 216.326 210.426C217.476 210.426 218.107 211.118 218.107 212.38V219.088H221.08V211.637C221.08 209.438 219.644 207.972 217.507 207.972C215.909 207.972 214.606 208.838 214.117 210.212H214.056C213.69 208.787 212.59 207.972 211.013 207.972C209.527 207.972 208.356 208.838 207.898 210.151H207.837V208.176H204.966V219.088ZM227.971 219.322C231.269 219.322 233.376 217.215 233.376 213.622C233.376 210.079 231.238 207.942 227.971 207.942C224.703 207.942 222.566 210.09 222.566 213.622C222.566 217.205 224.673 219.322 227.971 219.322ZM227.971 217.052C226.505 217.052 225.579 215.82 225.579 213.632C225.579 211.464 226.525 210.212 227.971 210.212C229.416 210.212 230.353 211.464 230.353 213.632C230.353 215.82 229.426 217.052 227.971 217.052ZM234.913 219.088H237.885V212.828C237.885 211.413 238.73 210.436 240.063 210.436C241.397 210.436 242.069 211.25 242.069 212.675V219.088H245.041V212.054C245.041 209.499 243.677 207.972 241.254 207.972C239.575 207.972 238.425 208.766 237.844 210.12H237.783V208.176H234.913V219.088ZM248.451 206.7C249.316 206.7 249.998 206.008 249.998 205.173C249.998 204.328 249.316 203.646 248.451 203.646C247.586 203.646 246.904 204.328 246.904 205.173C246.904 206.008 247.586 206.7 248.451 206.7ZM246.975 219.088H249.947V208.176H246.975V219.088ZM252.726 205.662V208.176H251.189V210.415H252.726V216.146C252.726 218.274 253.724 219.129 256.289 219.129C256.889 219.129 257.398 219.078 257.703 219.006V216.818C257.52 216.848 257.245 216.869 256.981 216.869C256.105 216.869 255.698 216.472 255.698 215.637V210.415H257.714V208.176H255.698V205.662H252.726ZM264.187 219.322C267.485 219.322 269.592 217.215 269.592 213.622C269.592 210.079 267.455 207.942 264.187 207.942C260.92 207.942 258.782 210.09 258.782 213.622C258.782 217.205 260.889 219.322 264.187 219.322ZM264.187 217.052C262.722 217.052 261.795 215.82 261.795 213.632C261.795 211.464 262.742 210.212 264.187 210.212C265.633 210.212 266.569 211.464 266.569 213.632C266.569 215.82 265.643 217.052 264.187 217.052ZM271.129 219.088H274.102V212.991C274.102 211.454 274.957 210.558 276.423 210.558C276.85 210.558 277.257 210.629 277.501 210.731V208.115C277.298 208.054 277.003 208.003 276.657 208.003C275.374 208.003 274.448 208.756 274.061 210.141H274V208.176H271.129V219.088ZM148.303 239.088V230.061H151.509V228.919H143.828V230.061H147.034V239.088H148.303ZM152.721 239.088H153.947V234.817C153.947 233.549 154.701 232.717 155.92 232.717C157.069 232.717 157.654 233.415 157.654 234.578V239.088H158.88V234.352C158.88 232.717 157.908 231.632 156.301 231.632C155.188 231.632 154.384 232.111 153.976 232.929H153.947V228.919H152.721V239.088ZM165.3 236.988C165.096 237.678 164.412 238.151 163.482 238.151C162.164 238.151 161.34 237.227 161.34 235.825V235.755H166.597V235.29C166.597 233.07 165.378 231.632 163.397 231.632C161.375 231.632 160.078 233.175 160.078 235.452C160.078 237.756 161.354 239.215 163.454 239.215C165.053 239.215 166.294 238.27 166.505 236.988H165.3ZM163.376 232.696C164.532 232.696 165.3 233.57 165.328 234.796H161.347C161.424 233.577 162.228 232.696 163.376 232.696ZM167.837 239.088H169.063V234.521C169.063 233.486 169.683 232.802 170.635 232.802C170.93 232.802 171.191 232.837 171.29 232.872V231.681C171.191 231.667 171.008 231.632 170.797 231.632C169.937 231.632 169.26 232.147 169.021 232.957H168.993V231.759H167.837V239.088ZM176.801 236.988C176.596 237.678 175.913 238.151 174.982 238.151C173.665 238.151 172.84 237.227 172.84 235.825V235.755H178.097V235.29C178.097 233.07 176.878 231.632 174.898 231.632C172.875 231.632 171.579 233.175 171.579 235.452C171.579 237.756 172.854 239.215 174.954 239.215C176.554 239.215 177.794 238.27 178.006 236.988H176.801ZM174.877 232.696C176.032 232.696 176.801 233.57 176.829 234.796H172.847C172.925 233.577 173.728 232.696 174.877 232.696ZM191.62 231.759H190.408L188.942 237.721H188.914L187.251 231.759H186.067L184.411 237.721H184.383L182.917 231.759H181.698L183.749 239.088H184.996L186.645 233.415H186.673L188.329 239.088H189.577L191.62 231.759ZM194.629 239.215C195.616 239.215 196.546 238.665 196.983 237.826H197.011V239.088H198.174V234.021C198.174 232.562 197.089 231.632 195.369 231.632C193.636 231.632 192.551 232.605 192.466 233.873H193.65C193.805 233.154 194.397 232.71 195.341 232.71C196.356 232.71 196.948 233.246 196.948 234.141V234.754L194.848 234.874C193.157 234.972 192.191 235.762 192.191 237.016C192.191 238.334 193.171 239.215 194.629 239.215ZM194.904 238.172C194.023 238.172 193.438 237.714 193.438 237.016C193.438 236.325 194.002 235.889 194.989 235.825L196.948 235.705V236.304C196.948 237.361 196.06 238.172 194.904 238.172ZM199.605 233.781C199.605 234.839 200.274 235.48 201.655 235.811L202.818 236.093C203.657 236.297 203.945 236.6 203.945 237.129C203.945 237.791 203.332 238.214 202.339 238.214C201.345 238.214 200.781 237.812 200.633 236.974H199.407C199.548 238.348 200.619 239.215 202.339 239.215C203.974 239.215 205.179 238.313 205.179 237.037C205.179 235.987 204.643 235.409 203.163 235.05L202 234.768C201.183 234.571 200.81 234.225 200.81 233.718C200.81 233.077 201.402 232.633 202.296 232.633C203.198 232.633 203.762 233.105 203.854 233.873H205.024C204.974 232.576 203.903 231.632 202.296 231.632C200.711 231.632 199.605 232.527 199.605 233.781ZM212.035 239.088H213.262V228.919H212.021L209.315 230.864V232.14L212.007 230.265H212.035V239.088ZM218.772 239.088H219.998V234.775C219.998 233.535 220.752 232.717 221.908 232.717C223.036 232.717 223.592 233.366 223.592 234.55V239.088H224.819V234.331C224.819 232.668 223.888 231.632 222.282 231.632C221.147 231.632 220.365 232.14 219.956 232.929H219.928V231.759H218.772V239.088ZM231.245 236.988C231.041 237.678 230.357 238.151 229.427 238.151C228.109 238.151 227.285 237.227 227.285 235.825V235.755H232.542V235.29C232.542 233.07 231.323 231.632 229.343 231.632C227.32 231.632 226.024 233.175 226.024 235.452C226.024 237.756 227.299 239.215 229.399 239.215C230.999 239.215 232.239 238.27 232.45 236.988H231.245ZM229.322 232.696C230.477 232.696 231.245 233.57 231.274 234.796H227.292C227.37 233.577 228.173 232.696 229.322 232.696ZM243.105 231.759H241.893L240.428 237.721H240.399L238.736 231.759H237.552L235.896 237.721H235.868L234.402 231.759H233.183L235.234 239.088H236.481L238.13 233.415H238.158L239.814 239.088H241.062L243.105 231.759ZM246.946 233.781C246.946 234.839 247.615 235.48 248.997 235.811L250.159 236.093C250.998 236.297 251.287 236.6 251.287 237.129C251.287 237.791 250.674 238.214 249.68 238.214C248.687 238.214 248.123 237.812 247.975 236.974H246.749C246.89 238.348 247.961 239.215 249.68 239.215C251.315 239.215 252.52 238.313 252.52 237.037C252.52 235.987 251.984 235.409 250.505 235.05L249.342 234.768C248.524 234.571 248.151 234.225 248.151 233.718C248.151 233.077 248.743 232.633 249.638 232.633C250.54 232.633 251.104 233.105 251.195 233.873H252.365C252.316 232.576 251.245 231.632 249.638 231.632C248.052 231.632 246.946 232.527 246.946 233.781ZM258.658 236.988C258.454 237.678 257.77 238.151 256.84 238.151C255.522 238.151 254.698 237.227 254.698 235.825V235.755H259.955V235.29C259.955 233.07 258.735 231.632 256.755 231.632C254.733 231.632 253.436 233.175 253.436 235.452C253.436 237.756 254.712 239.215 256.812 239.215C258.411 239.215 259.652 238.27 259.863 236.988H258.658ZM256.734 232.696C257.89 232.696 258.658 233.57 258.686 234.796H254.705C254.782 233.577 255.585 232.696 256.734 232.696ZM263.337 239.215C264.324 239.215 265.254 238.665 265.691 237.826H265.719V239.088H266.882V234.021C266.882 232.562 265.797 231.632 264.077 231.632C262.344 231.632 261.258 232.605 261.174 233.873H262.358C262.513 233.154 263.105 232.71 264.049 232.71C265.064 232.71 265.656 233.246 265.656 234.141V234.754L263.556 234.874C261.864 234.972 260.899 235.762 260.899 237.016C260.899 238.334 261.878 239.215 263.337 239.215ZM263.612 238.172C262.731 238.172 262.146 237.714 262.146 237.016C262.146 236.325 262.71 235.889 263.697 235.825L265.656 235.705V236.304C265.656 237.361 264.768 238.172 263.612 238.172ZM268.439 239.088H269.665V234.521C269.665 233.486 270.285 232.802 271.237 232.802C271.533 232.802 271.793 232.837 271.892 232.872V231.681C271.793 231.667 271.61 231.632 271.399 231.632C270.539 231.632 269.863 232.147 269.623 232.957H269.595V231.759H268.439V239.088ZM278.629 234.162C278.474 232.844 277.382 231.632 275.549 231.632C273.527 231.632 272.181 233.112 272.181 235.423C272.181 237.784 273.534 239.215 275.564 239.215C277.227 239.215 278.453 238.186 278.643 236.727H277.438C277.227 237.608 276.571 238.136 275.571 238.136C274.302 238.136 273.428 237.129 273.428 235.423C273.428 233.76 274.288 232.71 275.557 232.71C276.635 232.71 277.255 233.366 277.431 234.162H278.629ZM279.834 239.088H281.06V234.817C281.06 233.549 281.814 232.717 283.033 232.717C284.182 232.717 284.767 233.415 284.767 234.578V239.088H285.993V234.352C285.993 232.717 285.021 231.632 283.414 231.632C282.3 231.632 281.497 232.111 281.088 232.929H281.06V228.919H279.834V239.088ZM290.51 239.088H291.736V234.521C291.736 233.486 292.356 232.802 293.308 232.802C293.604 232.802 293.865 232.837 293.963 232.872V231.681C293.865 231.667 293.681 231.632 293.47 231.632C292.61 231.632 291.934 232.147 291.694 232.957H291.666V231.759H290.51V239.088ZM299.474 236.988C299.27 237.678 298.586 238.151 297.656 238.151C296.338 238.151 295.514 237.227 295.514 235.825V235.755H300.771V235.29C300.771 233.07 299.551 231.632 297.571 231.632C295.549 231.632 294.252 233.175 294.252 235.452C294.252 237.756 295.528 239.215 297.628 239.215C299.227 239.215 300.468 238.27 300.679 236.988H299.474ZM297.55 232.696C298.706 232.696 299.474 233.57 299.502 234.796H295.521C295.598 233.577 296.401 232.696 297.55 232.696ZM301.884 233.781C301.884 234.839 302.553 235.48 303.935 235.811L305.097 236.093C305.936 236.297 306.225 236.6 306.225 237.129C306.225 237.791 305.612 238.214 304.618 238.214C303.625 238.214 303.061 237.812 302.913 236.974H301.687C301.828 238.348 302.899 239.215 304.618 239.215C306.253 239.215 307.458 238.313 307.458 237.037C307.458 235.987 306.923 235.409 305.443 235.05L304.28 234.768C303.462 234.571 303.089 234.225 303.089 233.718C303.089 233.077 303.681 232.633 304.576 232.633C305.478 232.633 306.042 233.105 306.133 233.873H307.303C307.254 232.576 306.183 231.632 304.576 231.632C302.99 231.632 301.884 232.527 301.884 233.781ZM314.752 231.759H313.525V236.065C313.525 237.312 312.807 238.129 311.616 238.129C310.481 238.129 309.924 237.488 309.924 236.297V231.759H308.698V236.516C308.698 238.179 309.636 239.215 311.235 239.215C312.363 239.215 313.124 238.743 313.561 237.897H313.589V239.088H314.752V231.759ZM316.408 239.088H317.634V228.919H316.408V239.088ZM319.685 229.99V231.759H318.592V232.767H319.685V237.185C319.685 238.595 320.206 239.144 321.552 239.144C321.841 239.144 322.179 239.123 322.327 239.088V238.059C322.243 238.073 321.961 238.094 321.82 238.094C321.193 238.094 320.911 237.791 320.911 237.122V232.767H322.334V231.759H320.911V229.99H319.685ZM326.999 239.088H328.225V232.767H329.719V231.759H328.218V230.949C328.218 230.223 328.535 229.87 329.198 229.87C329.402 229.87 329.607 229.892 329.755 229.913V228.919C329.578 228.891 329.282 228.863 329.008 228.863C327.655 228.863 326.999 229.532 326.999 230.942V231.759H325.977V232.767H326.999V239.088ZM333.673 239.215C335.695 239.215 337.062 237.756 337.062 235.423C337.062 233.084 335.695 231.632 333.673 231.632C331.643 231.632 330.276 233.084 330.276 235.423C330.276 237.756 331.643 239.215 333.673 239.215ZM333.673 238.136C332.376 238.136 331.523 237.15 331.523 235.423C331.523 233.697 332.376 232.71 333.673 232.71C334.969 232.71 335.815 233.697 335.815 235.423C335.815 237.15 334.969 238.136 333.673 238.136ZM338.303 239.088H339.529V234.521C339.529 233.486 340.149 232.802 341.1 232.802C341.396 232.802 341.657 232.837 341.756 232.872V231.681C341.657 231.667 341.474 231.632 341.262 231.632C340.403 231.632 339.726 232.147 339.486 232.957H339.458V231.759H338.303V239.088ZM346.329 241.829C347.654 241.829 348.26 241.315 348.887 239.602L351.769 231.759H350.48L348.45 237.862H348.429L346.4 231.759H345.089L347.795 239.095L347.626 239.609C347.344 240.462 346.963 240.793 346.28 240.793C346.125 240.793 345.934 240.786 345.801 240.758V241.787C345.934 241.815 346.181 241.829 346.329 241.829ZM355.561 239.215C357.583 239.215 358.95 237.756 358.95 235.423C358.95 233.084 357.583 231.632 355.561 231.632C353.531 231.632 352.164 233.084 352.164 235.423C352.164 237.756 353.531 239.215 355.561 239.215ZM355.561 238.136C354.264 238.136 353.411 237.15 353.411 235.423C353.411 233.697 354.264 232.71 355.561 232.71C356.857 232.71 357.703 233.697 357.703 235.423C357.703 237.15 356.857 238.136 355.561 238.136ZM366.208 231.759H364.982V236.065C364.982 237.312 364.264 238.129 363.073 238.129C361.938 238.129 361.381 237.488 361.381 236.297V231.759H360.155V236.516C360.155 238.179 361.092 239.215 362.692 239.215C363.82 239.215 364.581 238.743 365.018 237.897H365.046V239.088H366.208V231.759ZM367.801 239.088H369.027V234.521C369.027 233.486 369.647 232.802 370.599 232.802C370.895 232.802 371.155 232.837 371.254 232.872V231.681C371.155 231.667 370.972 231.632 370.761 231.632C369.901 231.632 369.225 232.147 368.985 232.957H368.957V231.759H367.801V239.088ZM377.977 231.632C376.095 231.632 374.855 233.119 374.855 235.423C374.855 237.721 376.095 239.215 377.949 239.215C378.985 239.215 379.837 238.7 380.295 237.862H380.324V241.533H381.55V231.759H380.38V232.999H380.352C379.88 232.154 379.041 231.632 377.977 231.632ZM378.195 238.136C376.913 238.136 376.109 237.094 376.109 235.423C376.109 233.746 376.913 232.71 378.195 232.71C379.45 232.71 380.324 233.789 380.324 235.423C380.324 237.058 379.45 238.136 378.195 238.136ZM389.167 231.759H387.941V236.065C387.941 237.312 387.222 238.129 386.032 238.129C384.897 238.129 384.34 237.488 384.34 236.297V231.759H383.114V236.516C383.114 238.179 384.051 239.215 385.651 239.215C386.779 239.215 387.54 238.743 387.977 237.897H388.005V239.088H389.167V231.759ZM395.622 236.988C395.418 237.678 394.735 238.151 393.804 238.151C392.487 238.151 391.662 237.227 391.662 235.825V235.755H396.919V235.29C396.919 233.07 395.7 231.632 393.72 231.632C391.697 231.632 390.401 233.175 390.401 235.452C390.401 237.756 391.676 239.215 393.776 239.215C395.376 239.215 396.616 238.27 396.827 236.988H395.622ZM393.699 232.696C394.854 232.696 395.622 233.57 395.651 234.796H391.669C391.747 233.577 392.55 232.696 393.699 232.696ZM398.159 239.088H399.386V234.521C399.386 233.486 400.006 232.802 400.957 232.802C401.253 232.802 401.514 232.837 401.612 232.872V231.681C401.514 231.667 401.33 231.632 401.119 231.632C400.259 231.632 399.583 232.147 399.343 232.957H399.315V231.759H398.159V239.088ZM403.226 241.829C404.551 241.829 405.157 241.315 405.784 239.602L408.666 231.759H407.377L405.347 237.862H405.326L403.297 231.759H401.986L404.692 239.095L404.523 239.609C404.241 240.462 403.86 240.793 403.177 240.793C403.022 240.793 402.831 240.786 402.698 240.758V241.787C402.831 241.815 403.078 241.829 403.226 241.829Z" fill="black"/>
<line x1="129.457" y1="183.664" x2="447.937" y2="183.665" stroke="#E6EBF2" stroke-width="1.16234"/>
<path d="M144.384 165.319C144.49 167.123 145.864 168.236 147.964 168.236C150.093 168.236 151.467 167.074 151.467 165.248C151.467 163.719 150.635 162.859 148.662 162.373L147.774 162.148C146.449 161.817 145.885 161.309 145.885 160.428C145.885 159.392 146.668 158.772 147.971 158.772C149.169 158.772 149.945 159.392 150.071 160.442H151.283C151.199 158.751 149.881 157.645 147.964 157.645C145.935 157.645 144.631 158.765 144.631 160.499C144.631 161.972 145.484 162.867 147.372 163.346L148.246 163.564C149.62 163.902 150.212 164.431 150.212 165.312C150.212 166.404 149.324 167.109 147.971 167.109C146.618 167.109 145.723 166.432 145.597 165.319H144.384ZM159.916 160.379H158.718V164.882C158.718 166.186 157.872 167.067 156.611 167.067C155.42 167.067 154.856 166.418 154.856 165.037V160.379H153.658V165.34C153.658 167.172 154.56 168.166 156.223 168.166C157.386 168.166 158.26 167.63 158.669 166.679H158.767V168.025H159.916V160.379ZM166.188 168.152C167.957 168.152 169.112 166.876 169.112 164.91V163.487C169.112 161.528 167.957 160.252 166.188 160.252C165.081 160.252 164.271 160.724 163.933 161.563H163.806V157.377H162.587V168.025H163.764V166.855H163.897C164.292 167.701 165.095 168.152 166.188 168.152ZM165.835 167.059C164.581 167.059 163.778 166.157 163.778 164.741V163.642C163.778 162.232 164.581 161.33 165.835 161.33C167.104 161.33 167.907 162.232 167.907 163.642V164.741C167.907 166.15 167.104 167.059 165.835 167.059ZM175.638 158.504C176.201 158.504 176.631 158.082 176.631 157.518C176.631 156.961 176.201 156.538 175.638 156.538C175.074 156.538 174.644 156.961 174.644 157.518C174.644 158.082 175.074 158.504 175.638 158.504ZM176.328 160.379H171.656V161.373H175.151V167.842C175.151 168.934 174.722 169.272 173.298 169.272C172.833 169.272 171.846 169.251 171.48 169.216V170.287C171.987 170.329 172.805 170.343 173.333 170.343C175.462 170.343 176.328 169.674 176.328 167.983V160.379ZM185.616 166.052C185.405 166.721 184.693 167.13 183.728 167.13C182.424 167.13 181.592 166.228 181.592 164.826V164.516H186.8V163.769C186.8 161.556 185.63 160.238 183.643 160.238C181.698 160.238 180.408 161.563 180.408 163.578V164.727C180.408 166.904 181.628 168.166 183.728 168.166C185.334 168.166 186.546 167.313 186.779 166.052H185.616ZM183.636 161.267C184.869 161.267 185.616 162.148 185.616 163.606H181.592C181.592 162.141 182.36 161.267 183.636 161.267ZM195.658 162.761C195.461 161.189 194.305 160.231 192.614 160.231C190.535 160.231 189.323 161.506 189.323 163.698V164.699C189.323 166.89 190.535 168.166 192.614 168.166C194.305 168.166 195.468 167.215 195.658 165.657H194.474C194.326 166.531 193.579 167.088 192.593 167.088C191.261 167.088 190.521 166.186 190.521 164.544V163.853C190.521 162.211 191.261 161.302 192.593 161.302C193.579 161.302 194.326 161.866 194.474 162.761H195.658ZM200.091 158.328V160.4H198.054V161.422H200.091V165.749C200.091 167.341 200.971 168.06 202.867 168.06C203.234 168.06 204.164 168.025 204.354 167.99V166.975C204.15 166.996 203.382 167.017 202.952 167.017C201.873 167.017 201.289 166.566 201.289 165.735V161.422H204.375V160.4H201.275V158.328H200.091ZM210.316 162.655C211.013 162.655 211.591 162.063 211.591 161.351C211.591 160.64 211.013 160.048 210.316 160.048C209.618 160.048 209.04 160.64 209.04 161.351C209.04 162.063 209.618 162.655 210.316 162.655ZM210.316 168.067C211.013 168.067 211.591 167.482 211.591 166.763C211.591 166.052 211.013 165.467 210.316 165.467C209.618 165.467 209.04 166.052 209.04 166.763C209.04 167.482 209.618 168.067 210.316 168.067ZM228.779 168.025V158.998H231.851V157.856H224.466V158.998H227.538V168.025H228.779ZM237.08 168.166C239.103 168.166 240.392 166.848 240.392 164.783V163.628C240.392 161.563 239.103 160.245 237.08 160.245C235.058 160.245 233.768 161.563 233.768 163.628V164.783C233.768 166.848 235.058 168.166 237.08 168.166ZM237.08 161.302C238.391 161.302 239.208 162.232 239.208 163.733V164.671C239.208 166.179 238.391 167.102 237.08 167.102C235.769 167.102 234.952 166.179 234.952 164.671V163.733C234.952 162.232 235.769 161.302 237.08 161.302ZM244.726 163.811H244.634V157.377H243.436V168.025H244.634V165.241L245.691 164.227L248.299 168.025H249.722L246.544 163.409L249.511 160.379H248.059L244.726 163.811ZM256.988 166.052C256.776 166.721 256.065 167.13 255.099 167.13C253.795 167.13 252.964 166.228 252.964 164.826V164.516H258.172V163.769C258.172 161.556 257.002 160.238 255.015 160.238C253.07 160.238 251.78 161.563 251.78 163.578V164.727C251.78 166.904 252.999 168.166 255.099 168.166C256.706 168.166 257.918 167.313 258.15 166.052H256.988ZM255.007 161.267C256.241 161.267 256.988 162.148 256.988 163.606H252.964C252.964 162.141 253.732 161.267 255.007 161.267ZM260.716 168.025H261.913V163.522C261.913 162.218 262.759 161.337 264.021 161.337C265.211 161.337 265.775 161.986 265.775 163.367V168.025H266.973V163.064C266.973 161.232 266.071 160.238 264.408 160.238C263.245 160.238 262.372 160.774 261.963 161.725H261.864V160.379H260.716V168.025ZM285.373 162.394C285.373 160.978 284.816 160.238 283.752 160.238C282.984 160.238 282.371 160.703 282.173 161.436H282.047C281.885 160.682 281.377 160.238 280.658 160.238C279.94 160.238 279.39 160.689 279.2 161.457H279.073V160.379H278.002V168.025H279.08V162.867C279.08 161.915 279.503 161.33 280.179 161.33C280.828 161.33 281.166 161.817 281.166 162.74V168.025H282.237V162.867C282.237 161.915 282.646 161.33 283.315 161.33C283.956 161.33 284.295 161.817 284.295 162.747V168.025H285.373V162.394ZM290.609 168.166C292.631 168.166 293.921 166.848 293.921 164.783V163.628C293.921 161.563 292.631 160.245 290.609 160.245C288.586 160.245 287.297 161.563 287.297 163.628V164.783C287.297 166.848 288.586 168.166 290.609 168.166ZM290.609 161.302C291.919 161.302 292.737 162.232 292.737 163.733V164.671C292.737 166.179 291.919 167.102 290.609 167.102C289.298 167.102 288.48 166.179 288.48 164.671V163.733C288.48 162.232 289.298 161.302 290.609 161.302ZM296.401 168.025H297.599V163.522C297.599 162.218 298.445 161.337 299.706 161.337C300.897 161.337 301.461 161.986 301.461 163.367V168.025H302.659V163.064C302.659 161.232 301.757 160.238 300.094 160.238C298.931 160.238 298.057 160.774 297.649 161.725H297.55V160.379H296.401V168.025ZM308.585 158.504C309.149 158.504 309.579 158.082 309.579 157.518C309.579 156.961 309.149 156.538 308.585 156.538C308.022 156.538 307.592 156.961 307.592 157.518C307.592 158.082 308.022 158.504 308.585 158.504ZM311.792 168.025V167.031H309.262V160.379H305.478V161.373H308.078V167.031H305.457V168.025H311.792ZM316.069 158.328V160.4H314.033V161.422H316.069V165.749C316.069 167.341 316.95 168.06 318.846 168.06C319.212 168.06 320.142 168.025 320.333 167.99V166.975C320.128 166.996 319.36 167.017 318.93 167.017C317.852 167.017 317.267 166.566 317.267 165.735V161.422H320.354V160.4H317.253V158.328H316.069ZM326.294 168.166C328.317 168.166 329.606 166.848 329.606 164.783V163.628C329.606 161.563 328.317 160.245 326.294 160.245C324.272 160.245 322.982 161.563 322.982 163.628V164.783C322.982 166.848 324.272 168.166 326.294 168.166ZM326.294 161.302C327.605 161.302 328.423 162.232 328.423 163.733V164.671C328.423 166.179 327.605 167.102 326.294 167.102C324.984 167.102 324.166 166.179 324.166 164.671V163.733C324.166 162.232 324.984 161.302 326.294 161.302ZM334.913 164.6C334.913 162.655 335.913 161.485 337.605 161.485C338.021 161.485 338.514 161.57 338.866 161.697V160.351C338.612 160.245 338.197 160.182 337.76 160.182C336.287 160.182 335.336 160.915 335.054 162.331H334.899V160.379H332.045V161.337H333.743V167.067H332.2V168.025H337.281V167.067H334.913V164.6Z" fill="black"/>
<path d="M148.282 260.6L150.941 252.691H149.137L147.329 258.896H147.29L145.482 252.691H143.629L146.287 260.6H148.282ZM152.349 253.93C152.815 253.93 153.182 253.557 153.182 253.108C153.182 252.653 152.815 252.286 152.349 252.286C151.883 252.286 151.516 252.653 151.516 253.108C151.516 253.557 151.883 253.93 152.349 253.93ZM151.555 260.6H153.155V254.725H151.555V260.6ZM158.115 258.803C157.967 259.252 157.518 259.543 156.931 259.543C156.115 259.543 155.583 258.967 155.583 258.128V258.03H159.633V257.542C159.633 255.755 158.554 254.599 156.844 254.599C155.106 254.599 154.01 255.815 154.01 257.69C154.01 259.57 155.095 260.726 156.904 260.726C158.356 260.726 159.409 259.954 159.584 258.803H158.115ZM156.86 255.783C157.573 255.783 158.06 256.298 158.093 257.049H155.599C155.654 256.314 156.159 255.783 156.86 255.783ZM168.672 254.725H167.093L166.2 259.082H166.167L165.12 254.725H163.585L162.544 259.082H162.511L161.623 254.725H160.012L161.574 260.6H163.256L164.314 256.446H164.347L165.41 260.6H167.115L168.672 254.725ZM176.86 256.912C176.789 255.58 175.78 254.599 174.191 254.599C172.431 254.599 171.308 255.772 171.308 257.657C171.308 259.575 172.431 260.726 174.202 260.726C175.747 260.726 176.783 259.833 176.866 258.446H175.375C175.276 259.088 174.86 259.471 174.218 259.471C173.424 259.471 172.93 258.814 172.93 257.657C172.93 256.523 173.424 255.854 174.213 255.854C174.871 255.854 175.282 256.292 175.375 256.912H176.86ZM180.335 260.726C182.111 260.726 183.245 259.592 183.245 257.657C183.245 255.75 182.094 254.599 180.335 254.599C178.576 254.599 177.425 255.755 177.425 257.657C177.425 259.586 178.559 260.726 180.335 260.726ZM180.335 259.504C179.546 259.504 179.047 258.841 179.047 257.663C179.047 256.495 179.557 255.821 180.335 255.821C181.113 255.821 181.618 256.495 181.618 257.663C181.618 258.841 181.119 259.504 180.335 259.504ZM186.254 260.694C187.12 260.694 187.8 260.239 188.085 259.592H188.113V260.6H189.691V252.691H188.091V255.733H188.058C187.773 255.081 187.115 254.632 186.265 254.632C184.791 254.632 183.859 255.788 183.859 257.652C183.859 259.532 184.786 260.694 186.254 260.694ZM186.797 255.914C187.592 255.914 188.102 256.594 188.102 257.663C188.102 258.737 187.592 259.405 186.797 259.405C185.991 259.405 185.498 258.742 185.498 257.663C185.498 256.588 185.991 255.914 186.797 255.914ZM194.651 258.803C194.503 259.252 194.054 259.543 193.467 259.543C192.651 259.543 192.119 258.967 192.119 258.128V258.03H196.17V257.542C196.17 255.755 195.09 254.599 193.38 254.599C191.642 254.599 190.546 255.815 190.546 257.69C190.546 259.57 191.631 260.726 193.44 260.726C194.892 260.726 195.945 259.954 196.12 258.803H194.651ZM193.396 255.783C194.109 255.783 194.596 256.298 194.629 257.049H192.136C192.19 256.314 192.695 255.783 193.396 255.783ZM199.222 260.6H200.823V257.054C200.823 256.396 201.234 255.936 201.842 255.936C202.434 255.936 202.791 256.309 202.791 256.939V260.6H204.331V257.032C204.331 256.38 204.731 255.936 205.339 255.936C205.959 255.936 206.298 256.309 206.298 256.988V260.6H207.899V256.588C207.899 255.404 207.126 254.615 205.975 254.615C205.114 254.615 204.413 255.081 204.15 255.821H204.117C203.92 255.054 203.328 254.615 202.478 254.615C201.678 254.615 201.048 255.081 200.801 255.788H200.768V254.725H199.222V260.6ZM211.609 260.726C213.385 260.726 214.52 259.592 214.52 257.657C214.52 255.75 213.369 254.599 211.609 254.599C209.85 254.599 208.699 255.755 208.699 257.657C208.699 259.586 209.834 260.726 211.609 260.726ZM211.609 259.504C210.82 259.504 210.321 258.841 210.321 257.663C210.321 256.495 210.831 255.821 211.609 255.821C212.388 255.821 212.892 256.495 212.892 257.663C212.892 258.841 212.393 259.504 211.609 259.504ZM215.347 260.6H216.948V257.23C216.948 256.468 217.403 255.942 218.121 255.942C218.839 255.942 219.201 256.38 219.201 257.147V260.6H220.801V256.813C220.801 255.437 220.067 254.615 218.762 254.615C217.858 254.615 217.238 255.043 216.926 255.772H216.893V254.725H215.347V260.6ZM222.637 253.93C223.103 253.93 223.47 253.557 223.47 253.108C223.47 252.653 223.103 252.286 222.637 252.286C222.171 252.286 221.804 252.653 221.804 253.108C221.804 253.557 222.171 253.93 222.637 253.93ZM221.842 260.6H223.443V254.725H221.842V260.6ZM224.939 253.371V254.725H224.111V255.931H224.939V259.016C224.939 260.162 225.476 260.622 226.857 260.622C227.181 260.622 227.455 260.595 227.619 260.556V259.378C227.521 259.395 227.373 259.405 227.23 259.405C226.759 259.405 226.54 259.192 226.54 258.742V255.931H227.625V254.725H226.54V253.371H224.939ZM231.111 260.726C232.886 260.726 234.021 259.592 234.021 257.657C234.021 255.75 232.87 254.599 231.111 254.599C229.351 254.599 228.2 255.755 228.2 257.657C228.2 259.586 229.335 260.726 231.111 260.726ZM231.111 259.504C230.321 259.504 229.823 258.841 229.823 257.663C229.823 256.495 230.332 255.821 231.111 255.821C231.889 255.821 232.393 256.495 232.393 257.663C232.393 258.841 231.894 259.504 231.111 259.504ZM234.849 260.6H236.449V257.317C236.449 256.49 236.91 256.007 237.699 256.007C237.929 256.007 238.148 256.046 238.28 256.1V254.692C238.17 254.659 238.011 254.632 237.825 254.632C237.134 254.632 236.635 255.037 236.427 255.783H236.394V254.725H234.849V260.6ZM241.163 260.6H242.763V257.317C242.763 256.49 243.224 256.007 244.013 256.007C244.243 256.007 244.462 256.046 244.594 256.1V254.692C244.484 254.659 244.325 254.632 244.139 254.632C243.448 254.632 242.95 255.037 242.741 255.783H242.708V254.725H241.163V260.6ZM248.946 258.803C248.798 259.252 248.348 259.543 247.762 259.543C246.945 259.543 246.413 258.967 246.413 258.128V258.03H250.464V257.542C250.464 255.755 249.384 254.599 247.674 254.599C245.937 254.599 244.84 255.815 244.84 257.69C244.84 259.57 245.926 260.726 247.734 260.726C249.187 260.726 250.239 259.954 250.415 258.803H248.946ZM247.691 255.783C248.403 255.783 248.891 256.298 248.924 257.049H246.43C246.485 256.314 246.989 255.783 247.691 255.783ZM251.193 256.451C251.193 257.334 251.768 257.904 252.903 258.145L253.906 258.353C254.481 258.485 254.684 258.66 254.684 258.972C254.684 259.356 254.312 259.603 253.709 259.603C253.073 259.603 252.706 259.329 252.607 258.814H251.045C251.149 259.97 252.086 260.726 253.709 260.726C255.221 260.726 256.279 259.965 256.279 258.808C256.279 257.948 255.775 257.465 254.547 257.208L253.544 256.994C252.952 256.868 252.733 256.665 252.733 256.364C252.733 255.974 253.1 255.722 253.654 255.722C254.246 255.722 254.602 256.046 254.651 256.523H256.126C256.093 255.372 255.161 254.599 253.654 254.599C252.158 254.599 251.193 255.333 251.193 256.451ZM262.495 254.725H260.894V258.09C260.894 258.868 260.45 259.378 259.738 259.378C259.031 259.378 258.642 258.962 258.642 258.178V254.725H257.041V258.512C257.041 259.882 257.885 260.71 259.157 260.71C260.045 260.71 260.626 260.282 260.916 259.543H260.949V260.6H262.495V254.725ZM263.574 260.6H265.175V252.691H263.574V260.6ZM266.682 253.371V254.725H265.854V255.931H266.682V259.016C266.682 260.162 267.219 260.622 268.6 260.622C268.924 260.622 269.198 260.595 269.362 260.556V259.378C269.264 259.395 269.116 259.405 268.973 259.405C268.502 259.405 268.283 259.192 268.283 258.742V255.931H269.368V254.725H268.283V253.371H266.682ZM270.146 256.451C270.146 257.334 270.722 257.904 271.856 258.145L272.859 258.353C273.435 258.485 273.637 258.66 273.637 258.972C273.637 259.356 273.265 259.603 272.662 259.603C272.026 259.603 271.659 259.329 271.56 258.814H269.998C270.102 259.97 271.039 260.726 272.662 260.726C274.175 260.726 275.232 259.965 275.232 258.808C275.232 257.948 274.728 257.465 273.5 257.208L272.497 256.994C271.905 256.868 271.686 256.665 271.686 256.364C271.686 255.974 272.053 255.722 272.607 255.722C273.199 255.722 273.555 256.046 273.605 256.523H275.079C275.046 255.372 274.114 254.599 272.607 254.599C271.111 254.599 270.146 255.333 270.146 256.451Z" fill="#0B70DB"/>
<path d="M143.476 262.656H275.501V263.697H143.476V262.656Z" fill="#0B70DB"/>
<line x1="130.464" y1="105" x2="130.464" y2="282.838" stroke="#E6EBF2" stroke-width="1.16234"/>
<path d="M110.705 131.124L102.568 126.038V133.768H118.841V126.038L110.705 131.124ZM102.568 123.597L110.705 128.683L118.841 123.597L110.705 118.512L102.568 123.597ZM120.875 123.597V133.768C120.875 134.887 119.96 135.802 118.841 135.802H102.568C101.449 135.802 100.534 134.887 100.534 133.768V123.597C100.534 122.885 100.941 122.174 101.551 121.868L110.705 116.173L119.858 121.868C120.468 122.174 120.875 122.885 120.875 123.597Z" fill="black"/>
<path d="M44.4414 66C44.4414 96.2586 46.2868 135.931 77.4414 144" stroke="#CCD1E2" stroke-width="6"/>
<path d="M76.3173 143.817L77.808 134L86.1347 145.308L74.8267 153.635L76.3173 143.817Z" fill="#CCD1E2"/>
<g filter="url(#filter1_d)">
<rect x="34.4414" y="39" width="285" height="27.5922" rx="2.06941" fill="#E1FFDD"/>
<path d="M44.5736 54.3779H47.0896V52.8744H44.5736V50.3462H43.0155V52.8744H40.4994V54.3779H43.0155V56.9061H44.5736V54.3779Z" fill="#6EAE50"/>
<path d="M55.7314 50.654L58.1383 57.2321H59.2721L61.6729 50.654H60.5755L58.7507 56.1287H58.6718L56.8348 50.654H55.7314ZM65.7107 57.3473C66.6686 57.3473 67.384 56.9532 67.6993 56.25H67.8023V57.2382H68.7845V52.7336C68.7845 51.3634 67.8993 50.5752 66.3533 50.5752C65.0074 50.5752 63.9889 51.2967 63.8676 52.3516H64.8801C65.0498 51.7878 65.5834 51.4665 66.3412 51.4665C67.2567 51.4665 67.7599 51.9212 67.7599 52.7457V53.3398L65.9532 53.4308C64.4557 53.5096 63.619 54.2007 63.619 55.3648C63.619 56.5592 64.4557 57.3473 65.7107 57.3473ZM66.0078 56.444C65.1772 56.444 64.6618 56.0196 64.6618 55.3284C64.6618 54.6433 65.1468 54.2492 66.0684 54.2068L67.7599 54.128V54.904C67.7599 55.7831 67.002 56.444 66.0078 56.444ZM73.7923 54.2856C73.7923 52.6123 74.6532 51.6059 76.1083 51.6059C76.466 51.6059 76.8904 51.6786 77.1935 51.7878V50.6298C76.9752 50.5389 76.6175 50.4843 76.2417 50.4843C74.9745 50.4843 74.1561 51.1148 73.9136 52.3334H73.7802V50.654H71.3248V51.4786H72.7859V56.4076H71.4582V57.2321H75.8294V56.4076H73.7923V54.2856Z" fill="#A626A4"/>
<path d="M88.2823 48.8898V50.6722H86.5301V51.5513H88.2823V55.2739C88.2823 56.644 89.0401 57.2624 90.671 57.2624C90.9862 57.2624 91.7865 57.2321 91.9502 57.2018V56.3288C91.7744 56.347 91.1135 56.3651 90.7437 56.3651C89.8161 56.3651 89.3129 55.9771 89.3129 55.2617V51.5513H91.9684V50.6722H89.3008V48.8898H88.2823ZM97.0793 57.3534C98.8193 57.3534 99.9288 56.2196 99.9288 54.4433V53.449C99.9288 51.6726 98.8193 50.5389 97.0793 50.5389C95.3393 50.5389 94.2298 51.6726 94.2298 53.449V54.4433C94.2298 56.2196 95.3393 57.3534 97.0793 57.3534ZM97.0793 51.4483C98.207 51.4483 98.9102 52.2485 98.9102 53.5399V54.3463C98.9102 55.6437 98.207 56.4379 97.0793 56.4379C95.9516 56.4379 95.2483 55.6437 95.2483 54.3463V53.5399C95.2483 52.2485 95.9516 51.4483 97.0793 51.4483ZM103.657 53.6066H103.579V48.0713H102.548V57.2321H103.579V54.8373L104.488 53.9643L106.731 57.2321H107.956L105.222 53.261L107.774 50.654H106.525L103.657 53.6066ZM114.207 55.5346C114.025 56.1105 113.412 56.4621 112.582 56.4621C111.46 56.4621 110.745 55.6861 110.745 54.4796V54.2129H115.225V53.5702C115.225 51.6665 114.219 50.5328 112.509 50.5328C110.836 50.5328 109.726 51.6726 109.726 53.4065V54.3948C109.726 56.2681 110.775 57.3534 112.582 57.3534C113.964 57.3534 115.007 56.6198 115.207 55.5346H114.207ZM112.503 51.418C113.564 51.418 114.207 52.1758 114.207 53.4308H110.745C110.745 52.1697 111.406 51.418 112.503 51.418ZM117.414 57.2321H118.444V53.358C118.444 52.2364 119.172 51.4786 120.257 51.4786C121.282 51.4786 121.767 52.0364 121.767 53.2246V57.2321H122.797V52.9639C122.797 51.3876 122.021 50.5328 120.591 50.5328C119.59 50.5328 118.838 50.9936 118.487 51.812H118.402V50.654H117.414V57.2321ZM138.664 52.4729V51.4725H132.249V52.4729H138.664ZM138.664 55.2375V54.2371H132.249V55.2375H138.664ZM152.068 48.4836L150.989 52.4304H152.244L152.984 48.4836H152.068ZM149.728 48.4836L148.649 52.4304H149.904L150.644 48.4836H149.728ZM158.646 57.2321C160.526 57.2321 161.641 56.3227 161.641 54.7888C161.641 53.6187 160.871 52.7639 159.695 52.6487V52.5577C160.574 52.4062 161.199 51.612 161.199 50.648C161.199 49.2899 160.229 48.4836 158.616 48.4836H155.785V57.2321H158.646ZM156.846 49.4051H158.374C159.489 49.4051 160.12 49.9205 160.12 50.8359C160.12 51.7575 159.453 52.2607 158.21 52.2607H156.846V49.4051ZM156.846 56.3045V53.1519H158.38C159.798 53.1519 160.532 53.6854 160.532 54.7161C160.532 55.7589 159.804 56.3045 158.416 56.3045H156.846ZM167.934 55.5346C167.753 56.1105 167.14 56.4621 166.31 56.4621C165.188 56.4621 164.473 55.6861 164.473 54.4796V54.2129H168.953V53.5702C168.953 51.6665 167.947 50.5328 166.237 50.5328C164.564 50.5328 163.454 51.6726 163.454 53.4065V54.3948C163.454 56.2681 164.503 57.3534 166.31 57.3534C167.692 57.3534 168.735 56.6198 168.935 55.5346H167.934ZM166.231 51.418C167.292 51.418 167.934 52.1758 167.934 53.4308H164.473C164.473 52.1697 165.134 51.418 166.231 51.418ZM173.167 57.3473C174.125 57.3473 174.84 56.9532 175.155 56.25H175.258V57.2382H176.24V52.7336C176.24 51.3634 175.355 50.5752 173.809 50.5752C172.463 50.5752 171.445 51.2967 171.324 52.3516H172.336C172.506 51.7878 173.039 51.4665 173.797 51.4665C174.713 51.4665 175.216 51.9212 175.216 52.7457V53.3398L173.409 53.4308C171.912 53.5096 171.075 54.2007 171.075 55.3648C171.075 56.5592 171.912 57.3473 173.167 57.3473ZM173.464 56.444C172.633 56.444 172.118 56.0196 172.118 55.3284C172.118 54.6433 172.603 54.2492 173.524 54.2068L175.216 54.128V54.904C175.216 55.7831 174.458 56.444 173.464 56.444ZM181.248 54.2856C181.248 52.6123 182.109 51.6059 183.564 51.6059C183.922 51.6059 184.346 51.6786 184.649 51.7878V50.6298C184.431 50.5389 184.074 50.4843 183.698 50.4843C182.431 50.4843 181.612 51.1148 181.37 52.3334H181.236V50.654H178.781V51.4786H180.242V56.4076H178.914V57.2321H183.285V56.4076H181.248V54.2856ZM190.961 55.5346C190.779 56.1105 190.167 56.4621 189.336 56.4621C188.214 56.4621 187.499 55.6861 187.499 54.4796V54.2129H191.979V53.5702C191.979 51.6665 190.973 50.5328 189.263 50.5328C187.59 50.5328 186.48 51.6726 186.48 53.4065V54.3948C186.48 56.2681 187.529 57.3534 189.336 57.3534C190.718 57.3534 191.761 56.6198 191.961 55.5346H190.961ZM189.257 51.418C190.318 51.418 190.961 52.1758 190.961 53.4308H187.499C187.499 52.1697 188.16 51.418 189.257 51.418ZM196.599 54.2856C196.599 52.6123 197.46 51.6059 198.915 51.6059C199.273 51.6059 199.697 51.6786 200 51.7878V50.6298C199.782 50.5389 199.424 50.4843 199.048 50.4843C197.781 50.4843 196.963 51.1148 196.72 52.3334H196.587V50.654H194.132V51.4786H195.593V56.4076H194.265V57.2321H198.636V56.4076H196.599V54.2856ZM214.472 57.2321H215.6L212.781 48.4836H211.641L208.822 57.2321H209.907L210.671 54.7221H213.714L214.472 57.2321ZM212.18 49.7689H212.211L213.435 53.8067H210.95L212.18 49.7689ZM220.298 57.3412C221.82 57.3412 222.814 56.2439 222.814 54.5524V53.3277C222.814 51.6423 221.82 50.5449 220.298 50.5449C219.347 50.5449 218.649 50.9511 218.358 51.6726H218.249V48.0713H217.2V57.2321H218.213V56.2257H218.328C218.667 56.9532 219.359 57.3412 220.298 57.3412ZM219.995 56.4015C218.916 56.4015 218.225 55.6255 218.225 54.4069V53.4611C218.225 52.2485 218.916 51.4725 219.995 51.4725C221.087 51.4725 221.778 52.2485 221.778 53.4611V54.4069C221.778 55.6194 221.087 56.4015 219.995 56.4015ZM227.762 56.4015C226.343 56.4015 225.603 55.4497 225.603 53.6369V52.0788C225.603 50.266 226.343 49.3142 227.756 49.3142C228.877 49.3142 229.659 50.1084 229.696 51.2906H230.781C230.744 49.4233 229.605 48.3017 227.762 48.3017C225.706 48.3017 224.512 49.6901 224.512 52.0788V53.6369C224.512 56.0256 225.706 57.414 227.762 57.414C229.55 57.414 230.775 56.2681 230.775 54.5766H229.696C229.665 55.7043 228.926 56.4015 227.762 56.4015ZM234.825 57.3412C235.764 57.3412 236.456 56.9532 236.795 56.2257H236.91V57.2321H237.923V48.0713H236.874V51.6726H236.765C236.48 50.9511 235.777 50.5449 234.825 50.5449C233.303 50.5449 232.309 51.6423 232.309 53.3277V54.5524C232.309 56.2439 233.303 57.3412 234.825 57.3412ZM235.128 56.4015C234.043 56.4015 233.345 55.6194 233.345 54.4069V53.4611C233.345 52.2485 234.043 51.4725 235.128 51.4725C236.207 51.4725 236.904 52.2485 236.904 53.4611V54.4069C236.904 55.6255 236.207 56.4015 235.128 56.4015ZM245.635 56.25H241.542V53.2428H245.41V52.3031H241.542V49.4657H245.635V48.4836H240.469V57.2321H245.635V56.25ZM249.618 57.2321H250.648V51.5513H253.54V50.6722H250.636V49.9932C250.636 49.3324 251.121 48.9929 252.037 48.9929C252.407 48.9929 253.255 49.0171 253.54 49.0474V48.2047C253.322 48.1744 252.407 48.1441 252.025 48.1441C250.406 48.1441 249.618 48.7382 249.618 50.0114V50.6722H247.854V51.5513H249.618V57.2321ZM261.567 57.2321V56.2924H259.106V48.4836H258.057L255.45 50.1751V51.3149L257.954 49.6961H258.051V56.2924H255.468V57.2321H261.567ZM263.15 50.9451V50.9814H264.18V50.9451C264.18 49.9144 264.847 49.2414 265.854 49.2414C266.872 49.2414 267.533 49.8598 267.533 50.7996C267.533 51.4907 267.266 51.9575 266.157 53.2004L263.198 56.4925V57.2321H268.734V56.2621H264.726V56.159L266.787 53.9158C268.182 52.3941 268.594 51.6665 268.594 50.7571C268.594 49.296 267.491 48.3017 265.884 48.3017C264.29 48.3017 263.15 49.4051 263.15 50.9451ZM272.547 53.1761H273.547C274.76 53.1761 275.53 53.8249 275.53 54.8434C275.53 55.8316 274.784 56.45 273.584 56.45C272.492 56.45 271.716 55.8437 271.619 54.9101H270.607C270.686 56.4197 271.886 57.414 273.614 57.414C275.36 57.414 276.609 56.353 276.609 54.8676C276.609 53.6733 275.918 52.8548 274.754 52.7033V52.6062C275.694 52.3759 276.245 51.6241 276.245 50.5692C276.245 49.2414 275.13 48.3017 273.566 48.3017C271.947 48.3017 270.88 49.2414 270.777 50.7571H271.801C271.886 49.8174 272.541 49.2414 273.523 49.2414C274.511 49.2414 275.166 49.8295 275.166 50.7207C275.166 51.6362 274.481 52.2789 273.499 52.2789H272.547V53.1761ZM282.314 57.2321H283.29V55.383H284.63V54.4433H283.296V51.9575H282.326V54.4554H279.459V54.3766L282.387 48.4836H281.296L278.325 54.516V55.383H282.314V57.2321ZM288.892 57.4079C290.669 57.4079 291.875 56.2075 291.875 54.4372C291.875 52.7154 290.747 51.5089 289.129 51.5089C288.359 51.5089 287.734 51.7817 287.304 52.3031H287.207L287.449 49.4476H291.39V48.4836H286.607L286.164 53.4247H287.176C287.522 52.8063 288.171 52.4486 288.953 52.4486C290.074 52.4486 290.832 53.261 290.832 54.4614C290.832 55.6497 290.08 56.444 288.953 56.444C287.928 56.444 287.146 55.8134 287.049 54.898H286.018C286.109 56.4015 287.261 57.4079 288.892 57.4079ZM299.641 54.4251C299.641 52.8306 298.489 51.6483 296.931 51.6483C296.374 51.6483 295.743 51.909 295.482 52.2607L295.391 52.2122C295.434 52.1152 295.41 52.1394 295.676 51.7635L298.065 48.4836H296.834C296.774 48.5745 294.955 51.1209 294.876 51.2543C294.039 52.4729 293.694 53.4005 293.694 54.4251C293.694 56.1651 294.937 57.414 296.659 57.414C298.392 57.414 299.641 56.159 299.641 54.4251ZM296.665 56.4621C295.567 56.4621 294.731 55.6012 294.731 54.4796C294.731 53.352 295.567 52.4911 296.665 52.4911C297.768 52.4911 298.605 53.352 298.605 54.4796C298.605 55.6012 297.768 56.4621 296.665 56.4621ZM303.006 52.3152L304.079 48.3684H302.83L302.091 52.3152H303.006ZM305.346 52.3152L306.42 48.3684H305.171L304.431 52.3152H305.346Z" fill="#383A42"/>
</g>
<defs>
<filter id="filter0_d" x="84.7133" y="103.719" width="368.138" height="187.976" filterUnits="userSpaceOnUse" color-interpolation-filters="sRGB">
<feFlood flood-opacity="0" result="BackgroundImageFix"/>
<feColorMatrix in="SourceAlpha" type="matrix" values="0 0 0 0 0 0 0 0 0 0 0 0 0 0 0 0 0 0 127 0"/>
<feMorphology radius="4.81072" operator="erode" in="SourceAlpha" result="effect1_dropShadow"/>
<feOffset dy="3.20714"/>
<feGaussianBlur stdDeviation="4.64935"/>
<feColorMatrix type="matrix" values="0 0 0 0 0.141522 0 0 0 0 0.159783 0 0 0 0 0.21 0 0 0 0.2 0"/>
<feBlend mode="normal" in2="BackgroundImageFix" result="effect1_dropShadow"/>
<feBlend mode="normal" in="SourceGraphic" in2="effect1_dropShadow" result="shape"/>
</filter>
<filter id="filter1_d" x="30.3026" y="37.6204" width="293.278" height="35.8698" filterUnits="userSpaceOnUse" color-interpolation-filters="sRGB">
<feFlood flood-opacity="0" result="BackgroundImageFix"/>
<feColorMatrix in="SourceAlpha" type="matrix" values="0 0 0 0 0 0 0 0 0 0 0 0 0 0 0 0 0 0 127 0"/>
<feMorphology radius="4.13883" operator="erode" in="SourceAlpha" result="effect1_dropShadow"/>
<feOffset dy="2.75922"/>
<feGaussianBlur stdDeviation="4.13883"/>
<feColorMatrix type="matrix" values="0 0 0 0 0.141522 0 0 0 0 0.159783 0 0 0 0 0.21 0 0 0 0.2 0"/>
<feBlend mode="normal" in2="BackgroundImageFix" result="effect1_dropShadow"/>
<feBlend mode="normal" in="SourceGraphic" in2="effect1_dropShadow" result="shape"/>
</filter>
</defs>
</svg>
