<svg width="348" height="90" viewBox="0 0 348 90" fill="none" xmlns="http://www.w3.org/2000/svg"><path d="M117.457 28.063a.877.877 0 0 1-.882-.883c0-.477.391-.882.882-.882.478 0 .883.39.883.882a.896.896 0 0 1-.883.883Zm0-1.592a.71.71 0 0 0 0 1.418.71.71 0 0 0 0-1.418Zm.449 1.172h-.203l-.173-.333h-.232v.333h-.188v-.97h.463c.203 0 .333.131.333.32a.3.3 0 0 1-.203.288l.203.362Zm-.347-.506c.072 0 .144-.044.144-.145 0-.116-.058-.145-.144-.145h-.29v.29h.29Zm-92.028-.927h2.257v6.148h3.92v1.968H25.53V26.21Zm8.505 4.08v-.03c0-2.328 1.881-4.223 4.383-4.223 2.503 0 4.354 1.866 4.354 4.195v.028c0 2.33-1.88 4.224-4.383 4.224-2.502 0-4.354-1.866-4.354-4.195Zm6.452 0v-.03c0-1.171-.839-2.184-2.083-2.184-1.23 0-2.054.998-2.054 2.17v.029c0 1.172.839 2.184 2.068 2.184 1.244 0 2.069-.998 2.069-2.17Zm5.048.477v-4.556h2.286v4.513c0 1.171.593 1.721 1.49 1.721s1.49-.535 1.49-1.663V26.21h2.285v4.498c0 2.619-1.49 3.761-3.804 3.761-2.3 0-3.747-1.157-3.747-3.703ZM56.53 26.21h3.124c2.893 0 4.586 1.664 4.586 4.008v.029c0 2.343-1.707 4.079-4.63 4.079h-3.08V26.21Zm3.167 6.12c1.346 0 2.242-.738 2.242-2.054v-.03c0-1.301-.896-2.053-2.242-2.053h-.91v4.122h.91v.015Zm7.811-6.12h6.495v1.968h-4.252v1.389h3.847v1.866h-3.847v2.893h-2.243V26.21Zm9.62 0h2.243v6.148h3.934v1.968h-6.177V26.21Zm12.05-.056h2.17l3.457 8.172h-2.416l-.593-1.446h-3.124l-.579 1.446h-2.358l3.443-8.172Zm1.982 4.976-.897-2.3-.911 2.3h1.808Zm6.538-4.92h3.833c1.244 0 2.097.319 2.647.883.477.463.723 1.085.723 1.895v.029c0 1.244-.665 2.069-1.663 2.488l1.938 2.835h-2.604l-1.634-2.459h-.984v2.46h-2.256v-8.13Zm3.732 3.892c.766 0 1.2-.376 1.2-.955v-.029c0-.636-.463-.954-1.215-.954H99.94v1.938h1.49Zm6.711-3.892h6.524v1.91h-4.296v1.23h3.891v1.779h-3.891v1.287h4.354v1.91h-6.582V26.21Zm-87.528 5.035c-.318.71-.984 1.216-1.852 1.216-1.23 0-2.068-1.027-2.068-2.185v-.029c0-1.171.824-2.17 2.054-2.17.926 0 1.634.565 1.924 1.346h2.372c-.376-1.938-2.083-3.37-4.282-3.37-2.502 0-4.383 1.895-4.383 4.223v.03c0 2.328 1.852 4.194 4.354 4.194 2.141 0 3.82-1.389 4.253-3.24l-2.372-.015Z" fill="#989898"/><path d="m112.004 13.264-6.206-3.558-1.07-.463-25.387.174v12.888h32.663v-9.04Z" fill="#fff"/><path d="M100.706 21.12c.304-1.042.189-1.997-.318-2.706-.463-.65-1.244-1.027-2.184-1.07l-17.807-.232a.33.33 0 0 1-.274-.144.399.399 0 0 1-.044-.319.488.488 0 0 1 .42-.318l17.965-.231c2.127-.102 4.441-1.823 5.251-3.935l1.027-2.676a.57.57 0 0 0 .029-.347A11.683 11.683 0 0 0 93.358 0c-5.15 0-9.518 3.327-11.08 7.941a5.314 5.314 0 0 0-3.689-1.027 5.268 5.268 0 0 0-4.7 4.702 5.526 5.526 0 0 0 .13 1.837 7.473 7.473 0 0 0-7.262 7.478c0 .362.029.723.072 1.085a.356.356 0 0 0 .347.304h32.865c.188 0 .362-.13.42-.319l.245-.882Zm5.671-11.443c-.159 0-.333 0-.492.015-.116 0-.217.087-.26.202l-.695 2.416c-.304 1.041-.188 1.996.318 2.705.463.65 1.244 1.027 2.185 1.07l3.79.232c.115 0 .217.058.274.145a.407.407 0 0 1 .044.318.49.49 0 0 1-.42.318l-3.949.231c-2.141.102-4.44 1.823-5.251 3.935l-.289.738c-.058.144.044.289.203.289h13.568a.355.355 0 0 0 .347-.26 9.865 9.865 0 0 0 .362-2.633c0-5.352-4.369-9.72-9.735-9.72Z" fill="#989898"/><path fill-rule="evenodd" clip-rule="evenodd" d="M186.285 70.998c-.628-.527-1.701-.79-3.219-.79h-3.423v10.551h2.56v-3.307h1.146c1.392 0 2.412-.305 3.062-.917.731-.685 1.099-1.597 1.099-2.736 0-1.181-.408-2.115-1.225-2.8Zm-2.999 4.066h-1.083v-2.469h.973c1.183 0 1.775.414 1.775 1.242 0 .818-.556 1.227-1.665 1.227Zm8.604-4.857h-2.669v10.552h5.762V78.37h-3.093v-8.163Zm8.322 0-4.192 10.552h2.873l.55-1.534h3.643l.502 1.534h2.906l-4.163-10.552h-2.119Zm-.031 6.881 1.1-3.606 1.082 3.606h-2.183.001Z" fill="#989898"/><mask id="a" mask-type="alpha" maskUnits="userSpaceOnUse" x="146" y="61" width="76" height="29"><path d="M146.889 89.509h74.929v-28.16h-74.929v28.16Z" fill="#fff"/></mask><g mask="url(#a)"><path fill-rule="evenodd" clip-rule="evenodd" d="M207.827 80.758h2.67V70.207h-2.67v10.552Zm13.034-8.573a4.399 4.399 0 0 0-1.273-1.218c-.806-.507-1.905-.76-3.298-.76h-3.516V80.76h4.114c1.486 0 2.679-.485 3.579-1.456.901-.97 1.35-2.257 1.35-3.86 0-1.275-.319-2.362-.957-3.258h.001Zm-4.272 6.185h-1.146v-5.774h1.162c.817 0 1.444.255 1.884.763.44.508.66 1.23.66 2.163 0 1.899-.853 2.848-2.56 2.848Zm-58.617-17.022-8.651 2.26-2.384 8.678 2.982 3.054-3.03 3.003 2.243 8.716 8.614 2.4 3.03-3.004 2.982 3.054 8.651-2.26 2.383-8.679-2.981-3.052 3.03-3.004-2.244-8.716-8.614-2.4-3.03 3.003-2.981-3.053Zm-5.309 3.93 4.557-1.192 1.993 2.04-2.906 2.881-3.644-3.73Zm10.004.876 2.025-2.007 4.537 1.265-3.703 3.67-2.859-2.928Zm-13 5.42 1.255-4.571 3.643 3.73-2.906 2.88-1.992-2.04Zm17.571-.738 3.703-3.671 1.181 4.591-2.024 2.008-2.86-2.928Zm-9.219-.075 2.906-2.88 2.859 2.927-2.906 2.88-2.859-2.927Zm-4.647 4.606 2.906-2.88 2.86 2.927-2.906 2.88-2.86-2.927Zm9.22.075 2.905-2.88 2.86 2.928-2.907 2.88-2.858-2.928Zm-12.986 3.659 2.026-2.008 2.858 2.928-3.701 3.67-1.183-4.59Zm8.338.947 2.907-2.88 2.859 2.928-2.906 2.88-2.86-2.928Zm9.219.076 2.906-2.88 1.993 2.04-1.255 4.57-3.644-3.73Zm-14.662 5.321 3.702-3.671 2.86 2.928-2.025 2.008-4.537-1.265Zm10.016-.715 2.905-2.88 3.643 3.73-4.556 1.19-1.992-2.04Z" fill="#989898"/></g><path d="M325.915 22.108c-2.457 0-4.479 1.955-4.479 4.357 0 2.457 1.954 4.48 4.411 4.48s4.479-1.955 4.479-4.412c.068-2.402-1.954-4.425-4.411-4.425Zm-9.922-9.623c-2.389-.068-4.479 1.778-4.533 4.235v.122c-.068 2.457 1.832 4.534 4.289 4.601 2.456.068 4.533-1.832 4.601-4.289.068-2.456-1.832-4.533-4.289-4.601-.014-.068-.014-.068-.068-.068Zm-.122 9.623c-2.389 0-4.411 1.955-4.411 4.357v.123c0 2.456 2.022 4.41 4.479 4.41 2.456-.067 4.411-2.021 4.411-4.478s-2.036-4.412-4.479-4.412Zm20.102-.8c2.456 0 4.411-2.023 4.357-4.48-.068-2.456-2.023-4.41-4.48-4.356-2.388 0-4.357 1.954-4.357 4.357v.122c.068 2.47 2.023 4.425 4.48 4.357Zm-10.112-9.556a4.373 4.373 0 0 0 4.479-4.235v-.122a4.356 4.356 0 0 0-4.357-4.479 4.355 4.355 0 0 0-4.479 4.357c-.055 2.403 1.9 4.425 4.357 4.48Zm10.112 0c2.456 0 4.411-1.954 4.411-4.357v-.068a4.386 4.386 0 0 0-4.411-4.41 4.406 4.406 0 0 0-4.412 4.424c-.068 2.389 1.955 4.411 4.412 4.411Zm-20.102-8.877a4.385 4.385 0 0 0-4.411 4.412c-.068 2.389 1.9 4.41 4.289 4.41h.122a4.355 4.355 0 0 0 4.479-4.356v-.054c-.014-2.457-2.036-4.412-4.479-4.412Zm.054 7.588a3.189 3.189 0 0 1-3.19-3.068v-.108a3.17 3.17 0 0 1 3.19-3.19 3.17 3.17 0 0 1 3.19 3.19 3.2 3.2 0 0 1-3.19 3.176Zm19.98 11.713a4.386 4.386 0 0 0-4.412 4.412c-.067 2.389 1.901 4.41 4.29 4.41h.122a4.356 4.356 0 0 0 4.479-4.356v-.068c0-2.443-2.023-4.466-4.479-4.398Zm0 7.588a3.188 3.188 0 0 1-3.19-3.068v-.122a3.17 3.17 0 0 1 3.19-3.19 3.168 3.168 0 0 1 3.189 3.19c.055 1.724-1.357 3.135-3.189 3.19Zm-56.193-11.877c-3.556-.068-6.501 2.7-6.555 6.243v.312c-.123 3.61 2.701 6.556 6.243 6.624h.312c3.611 0 6.556-2.945 6.556-6.556 0-3.624-2.945-6.623-6.556-6.623Zm0 10.356c-1.954 0-3.434-1.656-3.434-3.733 0-2.076 1.466-3.732 3.434-3.732 1.968 0 3.489 1.588 3.489 3.732 0 2.131-1.466 3.733-3.489 3.733Zm9.624-15.324c-.611 0-.978.312-.978.8v17.035h1.589a1.216 1.216 0 0 0 1.343-1.222V23.03h5.524a1.216 1.216 0 0 0 1.344-1.22v-1.59h-6.868v-4.479h7.045a.965.965 0 0 0 .977-.977v-1.846h-9.976Zm13.301 5.456c-.556 0-.977.367-1.045.923v11.456h1.955c.556 0 1.045-.434 1.045-.977V18.375h-1.955Zm.489-5.823c-1.045 0-1.832.856-1.832 1.9 0 1.046.855 1.833 1.9 1.833a1.833 1.833 0 0 0 1.832-1.832c0-1.045-.868-1.9-1.9-1.9Zm27.024 3.068a4.308 4.308 0 0 0-1.778-2.335c-.122-.068-.244-.19-.367-.244-.067-.068-.122-.068-.19-.122a2.713 2.713 0 0 0-.434-.19c-.312-.122-.556-.19-.855-.19-.611-.068-1.222-.068-1.778.122-.312.068-.557.19-.801.312-.679.367-1.289.855-1.71 1.534-.068.068-.068.122-.122.19-.435.679-.611 1.466-.679 2.267-.068 2.389 1.9 4.41 4.289 4.41h.122c2.457 0 4.479-1.954 4.479-4.356v-.068c.068-.475 0-.91-.176-1.33Zm-4.289 4.411c-1.71.068-3.068-1.29-3.122-3v-.122c0-1.71 1.412-3.067 3.068-3.067 1.71-.068 3.121 1.221 3.244 2.945.122 1.71-1.222 3.122-2.946 3.244h-.244Zm-60.604 0c-1.289-.488-2.579-1.1-2.579-2.456 0-.557.19-1.046.557-1.412.556-.489 1.221-.733 1.954-.679 2.756.068 2.579 2.878 2.579 2.878h2.022c.557 0 .978-.367 1.046-.923 0-.313-.068-.611-.19-.923-.068-.122-.978-3.733-5.511-3.855-1.588-.068-3.122.556-4.289 1.656-.855.8-1.29 1.954-1.29 3.19 0 3.61 2.878 4.6 5.945 5.632 1.168.435 2.756.923 2.756 2.634 0 .61-.19 1.167-.611 1.588-.557.556-1.344.855-2.145.855-2.022 0-3.311-1.344-3.311-3.434v-.122h-3.244v.122c0 .312 0 .61.067.855v.068c0 .19.068.366.123.556v.068c.067.19.122.367.122.557.122.366.312.678.488 1.045.068.19.19.312.313.488.067.19.122.313.244.435l.366.366c.122.122.245.245.367.312l.434.313c.312.19.611.366.923.488.244.122.367.245.557.245l.488.122h.068c.19.067.312.067.489.122h.068c.19 0 .366.068.488.068h.557c1.778.067 3.488-.557 4.777-1.778a5.157 5.157 0 0 0 1.412-3.733c0-3.312-3.366-4.533-6.121-5.456l.081.108Zm-111.535 2.776a5.889 5.889 0 0 0 1.207 1.979 5.204 5.204 0 0 0 1.828 1.257 5.96 5.96 0 0 0 2.298.436c.805 0 1.559-.15 2.264-.452a5.565 5.565 0 0 0 1.844-1.275 5.776 5.776 0 0 0 1.225-1.962c.29-.76.436-1.61.436-2.549V5.752h3.521V29.23h-3.488v-2.18a8.081 8.081 0 0 1-2.767 1.911c-1.062.447-2.208.671-3.438.671-1.252 0-2.42-.218-3.505-.654a8.212 8.212 0 0 1-2.817-1.861c-.794-.805-1.42-1.772-1.878-2.902-.458-1.129-.688-2.386-.688-3.773V5.752h3.522v14.49c0 .938.145 1.793.436 2.565Zm20.694-17.055v8.552a8.97 8.97 0 0 1 2.716-1.861c1.029-.459 2.147-.688 3.354-.688 1.252 0 2.426.235 3.522.704a8.992 8.992 0 0 1 2.85 1.912 8.99 8.99 0 0 1 1.912 2.851 8.755 8.755 0 0 1 .705 3.488 8.63 8.63 0 0 1-.705 3.471 9.037 9.037 0 0 1-1.912 2.834 8.989 8.989 0 0 1-2.85 1.912 8.85 8.85 0 0 1-3.522.705 8.265 8.265 0 0 1-3.371-.688 8.92 8.92 0 0 1-2.733-1.861v2.146h-3.354V5.752h3.388Zm.385 17.272a5.832 5.832 0 0 0 1.258 1.879 6.079 6.079 0 0 0 1.878 1.274c.716.313 1.487.47 2.314.47.805 0 1.566-.157 2.281-.47a5.864 5.864 0 0 0 1.861-1.274 6.21 6.21 0 0 0 1.258-1.879 5.71 5.71 0 0 0 .47-2.314 5.83 5.83 0 0 0-.47-2.33 6.154 6.154 0 0 0-1.258-1.896 5.637 5.637 0 0 0-1.861-1.257 5.811 5.811 0 0 0-2.281-.453 5.8 5.8 0 0 0-2.28.453 5.841 5.841 0 0 0-1.879 1.257 6.024 6.024 0 0 0-1.274 1.895 5.83 5.83 0 0 0-.47 2.331c0 .828.151 1.599.453 2.314Zm16.585-5.768a9.113 9.113 0 0 1 1.845-2.834 8.558 8.558 0 0 1 2.784-1.928c1.073-.47 2.236-.704 3.488-.704 1.229 0 2.37.223 3.421.67a8.107 8.107 0 0 1 2.716 1.862 8.502 8.502 0 0 1 1.778 2.817c.425 1.085.637 2.264.637 3.538v1.107h-13.919c.112.694.336 1.336.671 1.929a5.748 5.748 0 0 0 2.968 2.566 5.593 5.593 0 0 0 2.03.369c2.034 0 3.678-.839 4.93-2.516l2.448 1.811a9.102 9.102 0 0 1-3.152 2.683c-1.253.649-2.661.973-4.226.973a9.447 9.447 0 0 1-3.572-.671 8.707 8.707 0 0 1-2.885-1.878 8.902 8.902 0 0 1-1.928-2.834c-.47-1.085-.704-2.264-.704-3.539a8.79 8.79 0 0 1 .67-3.42Zm4.713-1.324c-.951.793-1.582 1.85-1.895 3.169h10.43c-.29-1.32-.911-2.376-1.861-3.17-.95-.793-2.063-1.19-3.337-1.19-1.275 0-2.387.397-3.337 1.19Zm18.295.384c-.716.782-1.074 1.844-1.074 3.186v9.726h-3.387V12.123h3.354v2.113a4.76 4.76 0 0 1 1.66-1.643c.682-.403 1.492-.604 2.431-.604h1.174v3.153h-1.408c-1.118 0-2.035.391-2.75 1.174ZM14.083 67.764 7.04 72.262l7.042 4.498-7.042 4.498L0 76.736l7.041-4.498L0 67.764l7.041-4.499 7.042 4.499ZM7.005 82.705l7.041-4.498 7.041 4.498-7.04 4.499-7.042-4.499Zm7.078-5.97 7.04-4.497-7.04-4.474 7.004-4.499 7.042 4.499-7.042 4.498 7.042 4.498-7.042 4.498-7.004-4.522Zm19.569-8.972h5.694c3.63 0 6.629 2.103 6.629 6.905v1.01c0 4.838-2.805 7.014-6.52 7.014h-5.803v-14.93Zm3.18 2.71v9.496h2.441c2.064 0 3.448-1.35 3.448-4.353v-.79c0-3.003-1.457-4.352-3.557-4.352h-2.331Zm10.83.147h2.55l.412 2.808c.486-1.909 1.724-2.93 3.97-2.93h.79v3.222h-1.312c-2.586 0-3.217.9-3.217 3.453v5.556H47.71v-12.11h-.05Zm8.352 6.297v-.34c0-4.049 2.586-6.261 6.107-6.261 3.593 0 6.106 2.212 6.106 6.26v.341c0 3.976-2.44 6.115-6.106 6.115-3.897-.036-6.107-2.127-6.107-6.115Zm8.996-.036v-.304c0-2.25-1.129-3.599-2.926-3.599-1.76 0-2.925 1.24-2.925 3.599v.304c0 2.176 1.129 3.416 2.925 3.416 1.797-.036 2.926-1.24 2.926-3.416Zm4.868-6.261h2.623l.303 2.285c.631-1.532 1.979-2.59 3.97-2.59 3.071 0 5.099 2.213 5.099 6.31v.34c0 3.976-2.246 6.08-5.099 6.08-1.906 0-3.217-.864-3.86-2.25v6.116h-3.072l.036-16.291Zm8.802 6.26v-.267c0-2.407-1.238-3.598-2.89-3.598-1.76 0-2.925 1.35-2.925 3.598v.231c0 2.14 1.129 3.49 2.89 3.49 1.808-.037 2.925-1.192 2.925-3.453Zm7.842 3.612-.267 2.212H83.56V66.571h3.072v6.188c.68-1.58 2.027-2.443 3.933-2.443 2.89.036 5.026 2.03 5.026 6.042v.377c0 4.012-2.027 6.31-5.099 6.31-2.027-.049-3.338-.985-3.97-2.553Zm5.84-3.757v-.304c0-2.213-1.202-3.453-2.89-3.453-1.723 0-2.925 1.386-2.925 3.49v.267c0 2.25 1.165 3.562 2.89 3.562 1.844 0 2.925-1.155 2.925-3.562Zm4.577.182v-.34c0-4.049 2.586-6.261 6.106-6.261 3.594 0 6.107 2.212 6.107 6.26v.341c0 3.976-2.477 6.115-6.107 6.115-3.897-.036-6.106-2.127-6.106-6.115Zm9.02-.036v-.304c0-2.25-1.129-3.599-2.926-3.599-1.76 0-2.926 1.24-2.926 3.599v.304c0 2.176 1.129 3.416 2.926 3.416 1.809-.036 2.926-1.24 2.926-3.416Zm7.308-.45-4.237-5.811h3.63l2.44 3.635 2.477-3.635h3.593l-4.297 5.774 4.528 6.31h-3.557l-2.768-4.012-2.695 4.012h-3.715l4.601-6.273Z" fill="#989898"/><path fill-rule="evenodd" clip-rule="evenodd" d="M286.507 85.474c-2.644 0-4.075-1.347-4.075-3.86v-7.371h-.923a1.674 1.674 0 0 1-1.171-.499 1.609 1.609 0 0 1-.466-1.166c.021-.875.747-1.575 1.637-1.58h.923v-2.196a1.9 1.9 0 0 1 1.902-1.734c.997 0 1.829.753 1.903 1.734v2.195h1.484a1.642 1.642 0 0 1 1.596 1.623 1.642 1.642 0 0 1-1.596 1.623h-1.484v6.374c0 1.113.716 1.548 1.309 1.548h.329c1.071 0 1.669.7 1.669 1.612 0 .912-.567 1.697-3.037 1.697Z" fill="#989898"/><path d="M298.408 85.474c-4.728 0-7.585-3.394-7.585-7.43 0-4.003 2.862-7.396 7.585-7.396 4.759 0 7.616 3.393 7.616 7.397a7.212 7.212 0 0 1-7.616 7.429Zm0-11.523c-2.354 0-3.658 1.899-3.658 4.094 0 2.195 1.31 4.13 3.658 4.13s3.689-1.898 3.689-4.13c0-2.195-1.341-4.094-3.689-4.094ZM319.375 85.3h-.296c-.297 0-1.638-.233-1.638-1.639-.981 1.14-2.672 1.814-4.548 1.814-2.29 0-4.998-1.522-4.998-4.682 0-3.304 2.708-4.56 4.998-4.56 1.908 0 3.599.614 4.548 1.723V76.05c0-1.432-1.251-2.37-3.154-2.37a5.722 5.722 0 0 0-3.212.907 1.432 1.432 0 0 1-.684.206 1.442 1.442 0 0 1-1.431-1.431c.005-.258.076-.51.207-.732.891-1.405 4.103-1.989 5.767-1.989 3.27 0 6.275 1.289 6.275 5.35v7.462a1.841 1.841 0 0 1-1.844 1.84l.01.005Zm-1.934-5.324c-.626-.817-1.813-1.23-3.032-1.23-1.489 0-2.708.753-2.708 2.137 0 1.315 1.219 2.078 2.708 2.078 1.219 0 2.406-.408 3.032-1.23v-1.755Z" fill="#989898"/><path fill-rule="evenodd" clip-rule="evenodd" d="M330.145 85.474c-1.871 0-4.876-.615-5.767-1.877a1.259 1.259 0 0 1-.265-.79 1.59 1.59 0 0 1 1.574-1.549c.276 0 .541.074.774.218 1.129.641 2.619 1.14 3.864 1.14 1.638 0 2.412-.642 2.412-1.522 0-2.339-8.539-.44-8.539-5.997 0-2.37 2.115-4.444 5.889-4.444 1.871 0 4.431.588 5.236 1.723.154.21.238.462.239.721a1.467 1.467 0 0 1-1.484 1.406 1.54 1.54 0 0 1-.716-.175 6.674 6.674 0 0 0-3.249-.849c-1.367 0-2.258.615-2.258 1.405 0 2.106 8.507.35 8.507 6.05 0 2.578-2.231 4.535-6.217 4.535v.005Zm13.828 0c-2.645 0-4.076-1.347-4.076-3.86v-7.371h-.922a1.674 1.674 0 0 1-1.171-.499 1.61 1.61 0 0 1-.467-1.166c.022-.875.748-1.575 1.638-1.58h.922v-2.196a1.908 1.908 0 0 1 1.903-1.734c.997 0 1.829.753 1.903 1.734v2.195h1.489a1.642 1.642 0 0 1 1.596 1.623 1.642 1.642 0 0 1-1.596 1.623h-1.489v6.374c0 1.113.715 1.548 1.309 1.548h.329c1.07 0 1.664.7 1.664 1.612 0 .912-.562 1.697-3.037 1.697h.005Z" fill="#989898"/><path d="M277.45 79.662a40.647 40.647 0 0 0-.207-4.682c-.116-1.05-.471-2.397-1.611-2.672a.793.793 0 0 0 .445-.016c1.32-.69 1.219-2.392.753-3.622-.615-1.612-2.072-2.757-3.519-3.516a17.965 17.965 0 0 0-17.157.61c-1.309.806-2.815 2.381-2.152 4.136.18.437.444.834.779 1.167l.498.52c-.673.912-1.166 1.739-1.484 2.847-.954 3.34-.795 5.488-.535 8.171.164 1.66.71 4.131 2.623 4.407 1.559.217 3.25-.297 4.808-.483 1.717-.201 3.45-.52 5.189-.471 2.448.063 4.876.641 7.33.668 1.293.01 3.445.138 3.832-1.57.366-1.623.382-3.309.382-4.963.021-.175.021-.356.021-.525l.005-.006Zm-2.798 2.806c-.61 1.373-2.332 1.22-3.536 1.118l-5.379-.641c-1.601-.048-3.186.254-4.744.599-1.166.255-2.793.928-3.848.032-1.171-.992-1.378-2.683-1.394-4.11.022-1.288.15-2.572.382-3.839a10.99 10.99 0 0 1 .683-2.28c.419-1.06 1.039-1.702 1.071-1.67-.313-.324-.689-.499-.901-.939-.8-1.67 1.198-3.086 2.29-3.569 3.821-1.707 9.164-1.537 12.773.653 1.124.684 3.308 3.033 1.267 4.205 1.256.594 1.579 2.386 1.717 3.658a22.207 22.207 0 0 1-.191 6.136c-.037.223-.103.44-.196.647h.006Z" fill="#989898"/></svg>