<svg width="348" height="90" viewBox="0 0 348 90" fill="none" xmlns="http://www.w3.org/2000/svg">
<path d="M117.457 28.0625C116.966 28.0625 116.575 27.672 116.575 27.1802C116.575 26.7028 116.966 26.2978 117.457 26.2978C117.935 26.2978 118.34 26.6883 118.34 27.1802C118.34 27.6575 117.935 28.0625 117.457 28.0625ZM117.457 26.4714C117.067 26.4714 116.749 26.7896 116.749 27.1802C116.749 27.5707 117.067 27.889 117.457 27.889C117.848 27.889 118.166 27.5707 118.166 27.1802C118.166 26.7896 117.848 26.4714 117.457 26.4714ZM117.906 27.643H117.703L117.53 27.3103H117.298V27.643H117.11V26.6739H117.573C117.776 26.6739 117.906 26.8041 117.906 26.9921C117.906 27.1368 117.819 27.238 117.703 27.2814L117.906 27.643ZM117.559 27.1368C117.631 27.1368 117.703 27.0934 117.703 26.9921C117.703 26.8764 117.645 26.8475 117.559 26.8475H117.269V27.1368H117.559Z" fill="#989898"/>
<path d="M25.5311 26.2108H27.7877V32.3584H31.7077V34.3257H25.5311V26.2108Z" fill="#989898"/>
<path d="M34.0365 30.2894V30.2604C34.0365 27.9316 35.917 26.0366 38.4194 26.0366C40.9219 26.0366 42.7734 27.9026 42.7734 30.2315V30.2604C42.7734 32.5893 40.893 34.4842 38.3905 34.4842C35.888 34.4842 34.0365 32.6182 34.0365 30.2894ZM40.4879 30.2894V30.2604C40.4879 29.0888 39.649 28.0762 38.405 28.0762C37.1754 28.0762 36.3509 29.0743 36.3509 30.246V30.2749C36.3509 31.4466 37.1899 32.4591 38.4194 32.4591C39.6634 32.4591 40.4879 31.461 40.4879 30.2894Z" fill="#989898"/>
<path d="M45.5365 30.7673V26.2108H47.822V30.7239C47.822 31.8955 48.4151 32.4452 49.3119 32.4452C50.2087 32.4452 50.8018 31.91 50.8018 30.7817V26.2108H53.0873V30.7094C53.0873 33.3276 51.5974 34.4703 49.283 34.4703C46.983 34.4703 45.5365 33.3131 45.5365 30.7673Z" fill="#989898"/>
<path d="M56.5295 26.2108H59.654C62.547 26.2108 64.2395 27.8742 64.2395 30.2176V30.2465C64.2395 32.5899 62.5326 34.3257 59.6106 34.3257H56.5295V26.2108ZM59.6974 32.3295C61.0427 32.3295 61.9395 31.5918 61.9395 30.2755V30.2465C61.9395 28.9447 61.0427 28.1925 59.6974 28.1925H58.7861V32.315H59.6974V32.3295Z" fill="#989898"/>
<path d="M67.5085 26.2108H74.0034V28.178H69.7506V29.5667H73.5984V31.4327H69.7506V34.3257H67.5085V26.2108Z" fill="#989898"/>
<path d="M77.1284 26.2108H79.3705V32.3584H83.305V34.3257H77.1284V26.2108Z" fill="#989898"/>
<path d="M89.178 26.1536H91.3478L94.805 34.3264H92.3893L91.7962 32.8799H88.6718L88.0932 34.3264H85.7354L89.178 26.1536ZM91.1598 31.1296L90.2629 28.8297L89.3516 31.1296H91.1598Z" fill="#989898"/>
<path d="M97.6978 26.2108H101.531C102.775 26.2108 103.628 26.529 104.178 27.0931C104.655 27.556 104.901 28.178 104.901 28.9881V29.017C104.901 30.261 104.236 31.0855 103.238 31.505L105.176 34.3401H102.572L100.938 31.8811H99.9543V34.3401H97.6978V26.2108ZM101.43 30.1019C102.196 30.1019 102.63 29.7258 102.63 29.1472V29.1182C102.63 28.4818 102.167 28.1635 101.415 28.1635H99.9398V30.1019H101.43Z" fill="#989898"/>
<path d="M108.141 26.2108H114.665V28.1201H110.369V29.3497H114.26V31.1289H110.369V32.4163H114.723V34.3257H108.141V26.2108Z" fill="#989898"/>
<path d="M20.6129 31.2455C20.2947 31.9543 19.6293 32.4606 18.7613 32.4606C17.5318 32.4606 16.6928 31.4336 16.6928 30.2764V30.2474C16.6928 29.0758 17.5173 28.0777 18.7469 28.0777C19.6727 28.0777 20.3814 28.6418 20.6707 29.4229H23.043C22.6669 27.4846 20.96 26.0526 18.7613 26.0526C16.2589 26.0526 14.3784 27.9475 14.3784 30.2764V30.3053C14.3784 32.6342 16.23 34.5002 18.7324 34.5002C20.8733 34.5002 22.5512 33.1115 22.9852 31.26L20.6129 31.2455Z" fill="#989898"/>
<path d="M112.004 13.2643L105.798 9.70593L104.728 9.24304L79.3413 9.41662V22.305H112.004V13.2643Z" fill="white"/>
<path d="M100.706 21.1191C101.01 20.0776 100.895 19.1229 100.388 18.4141C99.9253 17.7632 99.1442 17.3871 98.204 17.3437L80.3974 17.1122C80.2817 17.1122 80.1805 17.0544 80.1226 16.9676C80.0647 16.8808 80.0503 16.7651 80.0792 16.6493C80.1371 16.4758 80.3106 16.3456 80.4987 16.3311L98.4644 16.0997C100.591 15.9984 102.905 14.2771 103.715 12.1652L104.742 9.48912C104.786 9.3734 104.8 9.25768 104.771 9.14195C103.614 3.90558 98.9417 0 93.3582 0C88.2086 0 83.8401 3.32698 82.2779 7.94135C81.2654 7.18916 79.978 6.78414 78.5893 6.91433C76.1158 7.16023 74.134 9.14195 73.8881 11.6155C73.8303 12.252 73.8737 12.874 74.0183 13.4526C69.9826 13.5683 66.7568 16.8663 66.7568 20.931C66.7568 21.2927 66.7858 21.6543 66.8292 22.0159C66.8581 22.1895 67.0027 22.3197 67.1763 22.3197H100.041C100.229 22.3197 100.403 22.1895 100.461 22.0014L100.706 21.1191Z" fill="#989898"/>
<path d="M106.377 9.67737C106.218 9.67737 106.044 9.67737 105.885 9.69183C105.769 9.69183 105.668 9.77862 105.625 9.89434L104.93 12.31C104.626 13.3515 104.742 14.3062 105.248 15.015C105.711 15.6659 106.492 16.042 107.433 16.0854L111.223 16.3169C111.338 16.3169 111.44 16.3747 111.497 16.4615C111.555 16.5483 111.57 16.6785 111.541 16.7797C111.483 16.9533 111.309 17.0835 111.121 17.098L107.172 17.3294C105.031 17.4307 102.732 19.152 101.921 21.2639L101.632 22.0016C101.574 22.1463 101.676 22.2909 101.835 22.2909H115.403C115.562 22.2909 115.707 22.1897 115.75 22.0306C115.982 21.1916 116.112 20.3092 116.112 19.3979C116.112 14.0458 111.743 9.67737 106.377 9.67737Z" fill="#989898"/>
<path fill-rule="evenodd" clip-rule="evenodd" d="M186.285 70.9982C185.657 70.4708 184.584 70.2074 183.066 70.2074H179.643V80.7591H182.203V77.4521H183.349C184.741 77.4521 185.761 77.1466 186.411 76.535C187.142 75.8499 187.51 74.9375 187.51 73.7986C187.51 72.6176 187.102 71.6839 186.285 70.9982ZM183.286 75.0645H182.203V72.595H183.176C184.359 72.595 184.951 73.0091 184.951 73.8372C184.951 74.6546 184.395 75.0639 183.286 75.0639V75.0645ZM191.89 70.2068H189.221V80.7585H194.983V78.3703H191.89V70.2068ZM200.212 70.2068L196.02 80.7585H198.893L199.443 79.2245H203.086L203.588 80.7585H206.494L202.331 70.2068H200.212ZM200.181 77.0884L201.281 73.4819L202.363 77.0884H200.18H200.181Z" fill="#989898"/>
<mask id="mask0" mask-type="alpha" maskUnits="userSpaceOnUse" x="146" y="61" width="76" height="29">
<path d="M146.889 89.5086H221.818V61.3481H146.889V89.5086Z" fill="white"/>
</mask>
<g mask="url(#mask0)">
<path fill-rule="evenodd" clip-rule="evenodd" d="M207.827 80.7585H210.497V70.2068H207.827V80.7585ZM220.861 72.1845C220.523 71.6968 220.09 71.2825 219.588 70.9667C218.782 70.4601 217.683 70.2074 216.29 70.2074H212.774V80.7585H216.888C218.374 80.7585 219.567 80.2738 220.467 79.3034C221.368 78.3335 221.817 77.0463 221.817 75.4429C221.817 74.1675 221.498 73.0814 220.86 72.1845H220.861ZM216.589 78.3697H215.443V72.5956H216.605C217.422 72.5956 218.049 72.8506 218.489 73.359C218.929 73.8674 219.149 74.5887 219.149 75.5224C219.149 77.4206 218.296 78.3697 216.589 78.3697ZM157.972 61.3481L149.321 63.6081L146.937 72.2859L149.919 75.3397L146.889 78.343L149.132 87.0587L157.746 89.4594L160.776 86.4555L163.758 89.5086L172.409 87.2486L174.792 78.5702L171.811 75.5176L174.841 72.5143L172.597 63.798L163.983 61.3973L160.953 64.4006L157.972 61.3481ZM152.663 65.2774L157.22 64.0863L159.213 66.1268L156.307 69.0074L152.663 65.2774ZM162.667 66.1541L164.692 64.1473L169.229 65.412L165.526 69.0821L162.667 66.1541ZM149.667 71.5735L150.922 67.003L154.565 70.7329L151.659 73.6135L149.667 71.5729V71.5735ZM167.238 70.8362L170.941 67.1649L172.122 71.7562L170.098 73.7636L167.238 70.8362ZM158.019 70.7608L160.925 67.8803L163.784 70.8083L160.878 73.6888L158.019 70.7608ZM153.372 75.367L156.278 72.4864L159.138 75.4144L156.232 78.2949L153.372 75.367ZM162.592 75.4423L165.497 72.5618L168.357 75.4897L165.45 78.3703L162.592 75.4423ZM149.606 79.1005L151.632 77.0925L154.49 80.0211L150.789 83.6906L149.606 79.1005ZM157.944 80.0484L160.851 77.1679L163.71 80.0959L160.804 82.9764L157.944 80.0484ZM167.163 80.1243L170.069 77.2438L172.062 79.2838L170.807 83.8543L167.163 80.1243ZM152.501 85.4453L156.203 81.774L159.063 84.702L157.038 86.7099L152.501 85.4447V85.4453ZM162.517 84.7299L165.422 81.8493L169.065 85.5799L164.509 86.7704L162.517 84.7299Z" fill="#989898"/>
</g>
<path d="M325.915 22.1085C323.458 22.1085 321.436 24.063 321.436 26.4655C321.436 28.9222 323.39 30.9446 325.847 30.9446C328.304 30.9446 330.326 28.9901 330.326 26.5333C330.394 24.1309 328.372 22.1085 325.915 22.1085ZM315.993 12.4852C313.604 12.4173 311.514 14.2633 311.46 16.72V16.8421C311.392 19.2989 313.292 21.3756 315.749 21.4434C318.205 21.5113 320.282 19.6111 320.35 17.1543C320.418 14.6976 318.518 12.6209 316.061 12.553C316.047 12.4852 316.047 12.4852 315.993 12.4852ZM315.871 22.1085C313.482 22.1085 311.46 24.063 311.46 26.4655V26.5876C311.46 29.0444 313.482 30.9989 315.939 30.9989C318.395 30.931 320.35 28.9765 320.35 26.5198C320.35 24.063 318.314 22.1085 315.871 22.1085ZM335.973 21.3077C338.429 21.3077 340.384 19.2853 340.33 16.8286C340.262 14.3718 338.307 12.4173 335.85 12.4716C333.462 12.4716 331.493 14.4261 331.493 16.8286V16.9507C331.561 19.421 333.516 21.3756 335.973 21.3077ZM325.861 11.7522C328.249 11.8201 330.272 9.91986 330.34 7.51743V7.39527C330.408 4.93854 328.439 2.91615 325.983 2.91615C323.526 2.84828 321.504 4.81638 321.504 7.27311C321.449 9.67555 323.404 11.6979 325.861 11.7522ZM335.973 11.7522C338.429 11.7522 340.384 9.79771 340.384 7.39527V7.3274C340.384 4.87067 338.429 2.91615 335.973 2.91615C333.516 2.91615 331.561 4.89782 331.561 7.34098C331.493 9.72984 333.516 11.7522 335.973 11.7522ZM315.871 2.87543C313.414 2.87543 311.46 4.82995 311.46 7.28668C311.392 9.67555 313.36 11.6979 315.749 11.6979H315.871C318.328 11.7658 320.35 9.79771 320.35 7.34098V7.28668C320.336 4.82995 318.314 2.87543 315.871 2.87543ZM315.925 10.4628C314.215 10.4628 312.803 9.11905 312.735 7.39527V7.28668C312.735 5.50861 314.147 4.09701 315.925 4.09701C317.703 4.09701 319.115 5.50861 319.115 7.28668C319.115 8.99689 317.703 10.4628 315.925 10.4628ZM335.905 22.1764C333.448 22.1764 331.493 24.1309 331.493 26.5876C331.426 28.9765 333.394 30.9989 335.783 30.9989H335.905C338.361 31.0668 340.384 29.0987 340.384 26.6419V26.5741C340.384 24.1309 338.361 22.1085 335.905 22.1764ZM335.905 29.7637C334.194 29.7637 332.783 28.42 332.715 26.6962V26.5741C332.715 24.796 334.127 23.3844 335.905 23.3844C337.683 23.3844 339.094 24.796 339.094 26.5741C339.149 28.2978 337.737 29.7094 335.905 29.7637Z" fill="#989898"/>
<path d="M279.712 17.8866C276.156 17.8188 273.211 20.5877 273.157 24.1303V24.4424C273.034 28.0529 275.858 30.9982 279.4 31.0661H279.712C283.323 31.0661 286.268 28.1207 286.268 24.5103C286.268 20.8863 283.323 17.8866 279.712 17.8866ZM279.712 28.2429C277.758 28.2429 276.278 26.587 276.278 24.5103C276.278 22.4336 277.744 20.7777 279.712 20.7777C281.68 20.7777 283.201 22.3658 283.201 24.5103C283.201 26.6413 281.735 28.2429 279.712 28.2429ZM289.336 12.9189C288.725 12.9189 288.358 13.2311 288.358 13.7197V30.7539H289.947C290.679 30.8218 291.29 30.2653 291.29 29.5324V29.4102V23.0308H296.814C297.547 23.0987 298.158 22.5422 298.158 21.8093V21.6871V20.2212H291.29V15.7421H298.335C298.891 15.7421 299.312 15.3077 299.312 14.7648V14.697V12.9189H299.19H289.336ZM302.637 18.3753C302.081 18.3753 301.66 18.7417 301.592 19.2982V19.4204V30.7539H303.547C304.103 30.7539 304.592 30.3196 304.592 29.7767V29.7088V18.3753H302.637ZM303.126 12.5524C302.081 12.5524 301.294 13.4075 301.294 14.4526C301.294 15.4978 302.149 16.285 303.194 16.285C304.239 16.285 305.026 15.4299 305.026 14.4526C305.026 13.4075 304.158 12.5524 303.126 12.5524ZM330.15 15.6199C329.838 14.6427 329.227 13.8419 328.372 13.2854C328.25 13.2175 328.128 13.0953 328.005 13.041C327.938 12.9732 327.883 12.9732 327.815 12.9189C327.693 12.851 327.571 12.7967 327.381 12.7289C327.069 12.6067 326.825 12.5388 326.526 12.5388C325.915 12.471 325.304 12.471 324.748 12.661C324.436 12.7289 324.191 12.851 323.947 12.9732C323.268 13.3396 322.658 13.8283 322.237 14.5069C322.169 14.5748 322.169 14.6291 322.115 14.697C321.68 15.3756 321.504 16.1628 321.436 16.9637C321.368 19.3525 323.336 21.3749 325.725 21.3749H325.847C328.304 21.3749 330.326 19.4204 330.326 17.018C330.326 17.018 330.326 17.018 330.326 16.9501C330.394 16.475 330.326 16.0407 330.15 15.6199ZM325.861 20.0312C324.151 20.099 322.793 18.7417 322.739 17.0315V16.9094C322.739 15.1992 324.151 13.8418 325.807 13.8418C327.517 13.774 328.928 15.0634 329.051 16.7872C329.173 18.4974 327.829 19.909 326.105 20.0312H325.861ZM265.257 20.0312C263.968 19.5426 262.678 18.9318 262.678 17.5745C262.678 17.018 262.868 16.5293 263.235 16.1628C263.791 15.6742 264.456 15.4299 265.189 15.4842C267.945 15.5521 267.768 18.3617 267.768 18.3617H269.79C270.347 18.3617 270.768 17.9952 270.836 17.4387C270.836 17.1265 270.768 16.8279 270.646 16.5158C270.578 16.3936 269.668 12.7832 265.135 12.661C263.547 12.5931 262.013 13.2175 260.846 14.3169C259.991 15.1177 259.556 16.2714 259.556 17.5066C259.556 21.117 262.434 22.1079 265.501 23.1394C266.669 23.5738 268.257 24.0624 268.257 25.7726C268.257 26.3834 268.067 26.9399 267.646 27.3607C267.089 27.9172 266.302 28.2158 265.501 28.2158C263.479 28.2158 262.19 26.872 262.19 24.7818V24.6596H258.946V24.7818C258.946 25.0939 258.946 25.3926 259.013 25.6369V25.7047C259.013 25.8948 259.081 26.0712 259.136 26.2612V26.3291C259.203 26.5191 259.258 26.6956 259.258 26.8856C259.38 27.2521 259.57 27.5643 259.746 27.9307C259.814 28.1208 259.936 28.2429 260.059 28.4194C260.126 28.6094 260.181 28.7315 260.303 28.8537C260.425 28.9759 260.547 29.098 260.669 29.2202C260.791 29.3423 260.914 29.4645 261.036 29.5324L261.47 29.8445C261.782 30.0346 262.081 30.211 262.393 30.3332C262.637 30.4553 262.76 30.5775 262.95 30.5775L263.438 30.6996H263.506C263.696 30.7675 263.818 30.7675 263.995 30.8218H264.063C264.253 30.8218 264.429 30.8897 264.551 30.8897H265.108C266.886 30.9575 268.596 30.3332 269.885 29.1116C270.863 28.0665 271.351 26.7227 271.297 25.379C271.297 22.0671 267.931 20.8456 265.176 19.9226L265.257 20.0312Z" fill="#989898"/>
<path d="M153.722 22.8068C154.013 23.5783 154.415 24.2379 154.929 24.7856C155.444 25.3335 156.053 25.7527 156.757 26.0434C157.462 26.3341 158.227 26.4794 159.055 26.4794C159.86 26.4794 160.614 26.3285 161.319 26.0266C162.023 25.7247 162.638 25.2999 163.163 24.7521C163.689 24.2043 164.097 23.5503 164.388 22.7901C164.678 22.0298 164.824 21.1803 164.824 20.2411V5.75214H168.345V29.2296H164.857V27.0495C164.075 27.8767 163.152 28.514 162.09 28.9613C161.028 29.4084 159.882 29.632 158.652 29.632C157.4 29.632 156.232 29.414 155.147 28.978C154.063 28.542 153.124 27.9216 152.33 27.1166C151.536 26.3116 150.91 25.3447 150.452 24.2155C149.994 23.0863 149.764 21.8286 149.764 20.4423V5.75214H153.286V20.2411C153.286 21.1803 153.431 22.0354 153.722 22.8068Z" fill="#989898"/>
<path d="M174.416 5.75177V14.3042C175.198 13.5217 176.104 12.9013 177.132 12.4428C178.161 11.9844 179.279 11.7553 180.486 11.7553C181.738 11.7553 182.912 11.99 184.008 12.4595C185.103 12.9291 186.054 13.5664 186.858 14.3713C187.663 15.1763 188.301 16.1265 188.77 17.2221C189.24 18.3178 189.475 19.4805 189.475 20.7103C189.475 21.94 189.24 23.0971 188.77 24.1815C188.301 25.266 187.663 26.2107 186.858 27.0155C186.054 27.8205 185.103 28.4578 184.008 28.9273C182.912 29.3968 181.738 29.6316 180.486 29.6316C179.279 29.6316 178.155 29.4024 177.115 28.944C176.076 28.4857 175.165 27.8652 174.382 27.0826V29.2291H171.028V5.75177H174.416ZM174.801 23.0244C175.103 23.74 175.522 24.3661 176.059 24.9027C176.596 25.4393 177.222 25.8642 177.937 26.1772C178.653 26.4902 179.424 26.6468 180.251 26.6468C181.056 26.6468 181.817 26.4902 182.532 26.1772C183.247 25.8642 183.868 25.4394 184.393 24.9027C184.919 24.3661 185.338 23.74 185.651 23.0244C185.964 22.309 186.121 21.5376 186.121 20.7103C186.121 19.883 185.964 19.1059 185.651 18.3793C185.338 17.6526 184.919 17.0209 184.393 16.4843C183.868 15.9478 183.248 15.5285 182.532 15.2266C181.816 14.9248 181.056 14.7738 180.251 14.7738C179.446 14.7738 178.686 14.9247 177.971 15.2266C177.255 15.5285 176.629 15.9478 176.092 16.4843C175.556 17.0209 175.131 17.6526 174.818 18.3793C174.505 19.1059 174.348 19.883 174.348 20.7103C174.348 21.5376 174.499 22.309 174.801 23.0244Z" fill="#989898"/>
<path d="M191.386 17.2564C191.833 16.1831 192.448 15.2385 193.231 14.4224C194.013 13.6063 194.941 12.9634 196.015 12.4939C197.088 12.0243 198.251 11.7896 199.503 11.7896C200.732 11.7896 201.873 12.0132 202.924 12.4603C203.975 12.9075 204.88 13.528 205.64 14.3218C206.401 15.1155 206.993 16.0547 207.418 17.1391C207.843 18.2235 208.055 19.403 208.055 20.6775V21.7843H194.136C194.248 22.4775 194.472 23.1203 194.807 23.7127C195.143 24.3053 195.562 24.8196 196.065 25.2555C196.568 25.6916 197.138 26.0326 197.775 26.2785C198.413 26.5244 199.089 26.6475 199.805 26.6475C201.839 26.6475 203.483 25.809 204.735 24.132L207.183 25.9431C206.334 27.0834 205.283 27.9778 204.031 28.6262C202.778 29.2746 201.37 29.5988 199.805 29.5988C198.53 29.5988 197.34 29.3752 196.233 28.928C195.126 28.4809 194.165 27.8548 193.348 27.0498C192.532 26.2448 191.889 25.3002 191.42 24.2158C190.95 23.1314 190.716 21.9518 190.716 20.6774C190.715 19.47 190.939 18.3297 191.386 17.2564ZM196.099 15.9316C195.148 16.7253 194.517 17.7818 194.204 19.101H204.634C204.344 17.7818 203.723 16.7253 202.773 15.9316C201.823 15.1379 200.71 14.741 199.436 14.741C198.161 14.741 197.049 15.1379 196.099 15.9316Z" fill="#989898"/>
<path d="M214.394 16.3156C213.678 17.0982 213.32 18.1602 213.32 19.5018V29.2283H209.933V12.1233H213.287V14.2362C213.711 13.5431 214.265 12.9953 214.947 12.5928C215.629 12.1903 216.439 11.989 217.378 11.989H218.552V15.1417H217.144C216.026 15.1418 215.109 15.533 214.394 16.3156Z" fill="#989898"/>
<path d="M14.0826 67.7636L7.04128 72.2619L14.0826 76.7602L7.04128 81.2585L0 76.7359L7.04128 72.2376L0 67.7636L7.04128 63.2653L14.0826 67.7636ZM7.00486 82.7052L14.0461 78.2069L21.0874 82.7052L14.0461 87.2035L7.00486 82.7052ZM14.0826 76.7359L21.1238 72.2376L14.0826 67.7636L21.0874 63.2653L28.1287 67.7636L21.0874 72.2619L28.1287 76.7602L21.0874 81.2585L14.0826 76.7359Z" fill="#989898"/>
<path d="M33.6522 67.7626H39.3459C42.9758 67.7626 45.9745 69.8659 45.9745 74.6681V75.6772C45.9745 80.5159 43.1701 82.6921 39.4552 82.6921H33.6522V67.7626ZM36.8329 70.4738V79.9688H39.2731C41.3369 79.9688 42.7209 78.6193 42.7209 75.6164V74.8262C42.7209 71.8232 41.2641 70.4738 39.1638 70.4738H36.8329ZM47.6619 70.6196H50.2114L50.6241 73.428C51.1097 71.5193 52.348 70.4981 54.5939 70.4981H55.3831V73.7198H54.0719C51.4861 73.7198 50.8548 74.6195 50.8548 77.1726V82.7286H47.7105V70.6196H47.6619ZM56.0143 76.9173V76.5769C56.0143 72.5284 58.6002 70.3157 62.1208 70.3157C65.7143 70.3157 68.2273 72.5284 68.2273 76.5769V76.9173C68.2273 80.8928 65.7871 83.0325 62.1208 83.0325C58.2238 82.9961 56.0143 80.905 56.0143 76.9173ZM65.0102 76.8808V76.5769C65.0102 74.3277 63.8811 72.9782 62.0844 72.9782C60.3241 72.9782 59.1586 74.2183 59.1586 76.5769V76.8808C59.1586 79.057 60.2877 80.2971 62.0844 80.2971C63.8811 80.2606 65.0102 79.057 65.0102 76.8808ZM69.8784 70.6196H72.5006L72.8041 72.9053C73.4354 71.3734 74.783 70.3157 76.774 70.3157C79.8454 70.3157 81.8728 72.5284 81.8728 76.6255V76.9659C81.8728 80.9414 79.6269 83.0447 76.774 83.0447C74.868 83.0447 73.5568 82.1815 72.9134 80.7955V86.9108H69.8419L69.8784 70.6196ZM78.68 76.8808V76.6133C78.68 74.2061 77.4417 73.0147 75.7906 73.0147C74.0303 73.0147 72.8648 74.3642 72.8648 76.6133V76.8443C72.8648 78.9841 73.9939 80.3336 75.7542 80.3336C77.5631 80.2971 78.68 79.1421 78.68 76.8808ZM86.5225 80.4916L86.2554 82.7043H83.5603V66.5712H86.6317V72.7594C87.3116 71.1789 88.6592 70.3157 90.5652 70.3157C93.4545 70.3522 95.5912 72.346 95.5912 76.358V76.7349C95.5912 80.7469 93.5638 83.0447 90.4923 83.0447C88.4649 82.9961 87.1538 82.0599 86.5225 80.4916ZM92.3619 76.7349V76.431C92.3619 74.2183 91.16 72.9782 89.4725 72.9782C87.7486 72.9782 86.5468 74.3642 86.5468 76.4674V76.7349C86.5468 78.9841 87.7122 80.2971 89.4361 80.2971C91.2814 80.2971 92.3619 79.1421 92.3619 76.7349ZM96.9387 76.9173V76.5769C96.9387 72.5284 99.5246 70.3157 103.045 70.3157C106.639 70.3157 109.152 72.5284 109.152 76.5769V76.9173C109.152 80.8928 106.675 83.0325 103.045 83.0325C99.1482 82.9961 96.9387 80.905 96.9387 76.9173ZM105.959 76.8808V76.5769C105.959 74.3277 104.83 72.9782 103.033 72.9782C101.273 72.9782 100.107 74.2183 100.107 76.5769V76.8808C100.107 79.057 101.236 80.2971 103.033 80.2971C104.842 80.2606 105.959 79.057 105.959 76.8808ZM113.267 76.431L109.03 70.6196H112.66L115.1 74.2548L117.577 70.6196H121.17L116.873 76.3945L121.401 82.7043H117.844L115.076 78.6923L112.381 82.7043H108.666L113.267 76.431Z" fill="#989898"/>
<path fill-rule="evenodd" clip-rule="evenodd" d="M286.507 85.4738C283.863 85.4738 282.432 84.1269 282.432 81.6135V74.2428H281.509C281.069 74.2375 280.645 74.0572 280.338 73.7443C280.031 73.4314 279.861 73.0125 279.872 72.5777C279.893 71.7028 280.619 71.0028 281.509 70.9975H282.432V68.8022C282.511 67.8265 283.338 67.0682 284.334 67.0682C285.331 67.0682 286.163 67.8212 286.237 68.8022V70.9975H287.721C288.145 71.0098 288.548 71.1855 288.845 71.4879C289.142 71.7903 289.311 72.196 289.317 72.6201C289.311 73.0443 289.142 73.45 288.845 73.7524C288.548 74.0548 288.145 74.2305 287.721 74.2428H286.237V80.6166C286.237 81.7301 286.953 82.165 287.546 82.165H287.875C288.946 82.165 289.544 82.8649 289.544 83.777C289.544 84.689 288.977 85.4738 286.507 85.4738Z" fill="#989898"/>
<path d="M298.408 85.4739C293.68 85.4739 290.823 82.0801 290.823 78.0448C290.823 74.0413 293.685 70.6476 298.408 70.6476C303.167 70.6476 306.024 74.0413 306.024 78.0448C306.056 79.0453 305.879 80.0416 305.505 80.97C305.131 81.8985 304.568 82.7389 303.851 83.4377C303.135 84.1365 302.281 84.6784 301.344 85.029C300.406 85.3795 299.407 85.531 298.408 85.4739ZM298.408 73.9511C296.054 73.9511 294.75 75.8495 294.75 78.0448C294.75 80.2401 296.06 82.1756 298.408 82.1756C300.756 82.1756 302.097 80.2772 302.097 78.0448C302.097 75.8495 300.756 73.9511 298.408 73.9511ZM319.375 85.2989H319.079C318.782 85.2989 317.441 85.0656 317.441 83.6603C316.46 84.8004 314.769 85.4739 312.893 85.4739C310.603 85.4739 307.895 83.952 307.895 80.7916C307.895 77.488 310.603 76.2313 312.893 76.2313C314.801 76.2313 316.492 76.8464 317.441 77.9547V76.051C317.441 74.6193 316.19 73.6807 314.287 73.6807C313.15 73.6571 312.032 73.9727 311.075 74.5875C310.868 74.7131 310.633 74.7843 310.391 74.7943C309.596 74.7837 308.96 74.142 308.96 73.3625C308.965 73.1048 309.036 72.8526 309.167 72.6308C310.058 71.2256 313.27 70.6423 314.934 70.6423C318.204 70.6423 321.209 71.9308 321.209 75.9927V83.4535C321.215 84.461 320.393 85.2883 319.365 85.2936L319.375 85.2989ZM317.441 79.975C316.815 79.1584 315.628 78.7448 314.409 78.7448C312.92 78.7448 311.701 79.4977 311.701 80.8817C311.701 82.1968 312.92 82.9604 314.409 82.9604C315.628 82.9604 316.815 82.5521 317.441 81.7302V79.975Z" fill="#989898"/>
<path fill-rule="evenodd" clip-rule="evenodd" d="M330.145 85.4738C328.274 85.4738 325.269 84.8587 324.378 83.5967C324.203 83.3687 324.108 83.0929 324.113 82.8066C324.124 82.3948 324.294 82.0033 324.588 81.7146C324.882 81.4258 325.276 81.2622 325.687 81.2582C325.963 81.2582 326.228 81.3324 326.461 81.4756C327.59 82.1172 329.08 82.6157 330.325 82.6157C331.963 82.6157 332.737 81.9741 332.737 81.0938C332.737 78.7553 324.198 80.6537 324.198 75.0965C324.198 72.7262 326.313 70.6528 330.087 70.6528C331.958 70.6528 334.518 71.2414 335.323 72.3762C335.477 72.5851 335.561 72.8377 335.562 73.0974C335.535 73.8822 334.878 74.5079 334.078 74.5026C333.829 74.5031 333.583 74.4431 333.362 74.3276C332.369 73.7726 331.251 73.4805 330.113 73.4792C328.746 73.4792 327.855 74.0943 327.855 74.8844C327.855 76.9895 336.362 75.2344 336.362 80.9347C336.362 83.5118 334.131 85.4685 330.145 85.4685V85.4738ZM343.973 85.4738C341.328 85.4738 339.897 84.1269 339.897 81.6135V74.2428H338.975C338.535 74.2375 338.111 74.0572 337.804 73.7443C337.496 73.4315 337.327 73.0125 337.337 72.5777C337.359 71.7028 338.085 71.0028 338.975 70.9975H339.897V68.8022C339.941 68.3278 340.16 67.8868 340.513 67.5659C340.865 67.2451 341.324 67.0676 341.8 67.0682C342.797 67.0682 343.629 67.8212 343.703 68.8022V70.9975H345.192C345.616 71.0098 346.019 71.1855 346.316 71.4879C346.613 71.7903 346.782 72.196 346.788 72.6201C346.782 73.0443 346.613 73.45 346.316 73.7524C346.019 74.0548 345.616 74.2305 345.192 74.2428H343.703V80.6166C343.703 81.7301 344.418 82.165 345.012 82.165H345.341C346.411 82.165 347.005 82.8649 347.005 83.777C347.005 84.689 346.443 85.4738 343.968 85.4738H343.973Z" fill="#989898"/>
<path d="M277.45 79.6625C277.471 78.0982 277.402 76.5339 277.243 74.9802C277.127 73.9303 276.772 72.5834 275.632 72.3076C275.779 72.3449 275.934 72.3394 276.077 72.2917C277.397 71.6024 277.296 69.9002 276.83 68.67C276.215 67.058 274.758 65.9126 273.311 65.1543C270.627 63.8156 267.651 63.1701 264.655 63.2766C261.658 63.3831 258.736 64.2383 256.154 65.7641C254.845 66.5701 253.339 68.145 254.002 69.9002C254.182 70.337 254.446 70.7336 254.781 71.0668L255.279 71.5865C254.606 72.4985 254.113 73.3258 253.795 74.434C252.841 77.7747 253 79.9223 253.26 82.6054C253.424 84.2652 253.97 86.7362 255.883 87.012C257.442 87.2294 259.133 86.715 260.691 86.5294C262.408 86.3279 264.141 86.0098 265.88 86.0575C268.328 86.1211 270.756 86.6991 273.21 86.7256C274.503 86.7362 276.655 86.8635 277.042 85.156C277.408 83.5334 277.424 81.8472 277.424 80.1927C277.445 80.0177 277.445 79.8374 277.445 79.6678L277.45 79.6625ZM274.652 82.4676C274.042 83.841 272.32 83.6872 271.116 83.5864L265.737 82.9448C264.136 82.8971 262.551 83.1993 260.993 83.544C259.827 83.7985 258.2 84.472 257.145 83.5758C255.974 82.5842 255.767 80.8927 255.751 79.4663C255.773 78.1783 255.901 76.8942 256.133 75.6271C256.276 74.8423 256.509 74.0787 256.816 73.347C257.235 72.2864 257.855 71.6448 257.887 71.6766C257.574 71.3532 257.198 71.1782 256.986 70.738C256.186 69.0677 258.184 67.6519 259.276 67.1693C263.097 65.4619 268.44 65.6316 272.049 67.8216C273.173 68.5056 275.357 70.8547 273.316 72.0266C274.572 72.6205 274.895 74.4128 275.033 75.6854C275.254 77.7295 275.189 79.7943 274.842 81.8206C274.805 82.0438 274.739 82.2612 274.646 82.4676H274.652Z" fill="#989898"/>
</svg>
