<svg width="76" height="73" viewBox="0 0 76 73" xmlns="http://www.w3.org/2000/svg"><defs><linearGradient x1="-7.304%" y1="124.019%" x2="149.588%" y2="50.467%" id="a"><stop stop-color="#1C23D7" offset="0%"/><stop stop-color="#8E35F4" offset="100%"/></linearGradient></defs><g fill="none"><rect width="75.305" height="73" rx="7.684" fill="url(#a)" transform="translate(.5)"/><path d="M62.226 19.62C54.506 13.838 47.11 14 47.11 14l-.755.864c9.177 2.755 13.442 6.807 13.442 6.807-13.13-7.234-29.855-7.182-43.512 0 0 0 4.427-4.268 14.144-7.023L29.89 14s-7.342-.161-15.115 5.618c0 0-7.774 13.992-7.774 31.225 0 0 4.535 7.779 16.466 8.157 0 0 1.997-2.377 3.616-4.43-6.855-2.052-9.447-6.32-9.447-6.32 4.307 2.697 8.663 4.385 14.09 5.456 8.83 1.819 19.815-.051 28.019-5.456 0 0-2.7 4.376-9.772 6.374a421.281 421.281 0 0 0 3.563 4.322C65.465 58.568 70 50.79 70 50.843c0-17.233-7.774-31.224-7.774-31.224ZM28.5 46c-3.02 0-5.5-2.68-5.5-6.016.22-7.99 10.834-7.966 11 0C34 43.32 31.573 46 28.5 46Zm20 0c-3.02 0-5.5-2.68-5.5-6.017.242-7.976 10.723-7.979 11 0C54 43.319 51.574 46 48.5 46Z" fill="#FFF"/></g></svg>