<?xml version="1.0" encoding="UTF-8"?>
<svg width="478px" height="49px" viewBox="0 0 478 49" version="1.1" xmlns="http://www.w3.org/2000/svg" xmlns:xlink="http://www.w3.org/1999/xlink">
    <!-- Generator: Sketch 51.3 (57544) - http://www.bohemiancoding.com/sketch -->
    <title>Group</title>
    <desc>Created with Sketch.</desc>
    <defs></defs>
    <g id="Page-1" stroke="none" stroke-width="1" fill="none" fill-rule="evenodd">
        <g id="Desktop-HD-HomePage" transform="translate(-95.000000, -230.000000)" fill="#FFFFFF">
            <g id="Hero-Section" transform="translate(-2.000000, -1.000000)">
                <g id="Copy" transform="translate(95.007930, 200.589844)">
                    <g id="Group" transform="translate(2.000000, 30.000000)">
                        <path d="M18.9936416,1.29296875 C30.2524307,1.29296875 37.3452041,8.86035156 37.3452041,20.9892578 C37.3452041,33.0917969 30.2524307,40.6591797 18.9936416,40.6591797 C7.70848537,40.6591797 0.642079119,33.0917969 0.642079119,20.9892578 C0.642079119,8.86035156 7.70848537,1.29296875 18.9936416,1.29296875 Z M18.9936416,7.9375 C12.7709854,7.9375 8.76317287,13 8.76317287,20.9892578 C8.76317287,28.9521484 12.7446182,33.9882812 18.9936416,33.9882812 C25.2162979,33.9882812 29.1977432,28.9521484 29.1977432,20.9892578 C29.1977432,13 25.2162979,7.9375 18.9936416,7.9375 Z M58.3071182,11.3916016 C65.4789932,11.3916016 69.8823135,16.8496094 69.8823135,25.8671875 C69.8823135,34.8583984 65.5053604,40.3427734 58.4389541,40.3427734 C54.3256729,40.3427734 51.1879776,38.4443359 49.6586807,35.2539062 L49.5004776,35.2539062 L49.5004776,49.2285156 L41.8012588,49.2285156 L41.8012588,11.734375 L49.3950088,11.734375 L49.3950088,16.5859375 L49.5532119,16.5859375 C51.0561416,13.3691406 54.3256729,11.3916016 58.3071182,11.3916016 Z M55.7231338,34.1464844 C59.5200088,34.1464844 61.9985244,30.9033203 61.9985244,25.8671875 C61.9985244,20.8574219 59.5200088,17.5878906 55.7231338,17.5878906 C51.9789932,17.5878906 49.4741104,20.9101562 49.4741104,25.8671875 C49.4741104,30.8769531 51.952626,34.1464844 55.7231338,34.1464844 Z M86.5200088,16.9287109 C83.171376,16.9287109 80.7192276,19.3808594 80.4555557,22.9140625 L92.452626,22.9140625 C92.2944229,19.3017578 89.921376,16.9287109 86.5200088,16.9287109 Z M92.5580947,31.3515625 L99.624501,31.3515625 C98.780751,36.8623047 93.6655166,40.5009766 86.7309463,40.5009766 C78.0825088,40.5009766 72.8090713,34.9902344 72.8090713,25.9990234 C72.8090713,16.9814453 78.108876,11.2333984 86.4409072,11.2333984 C94.6411026,11.2333984 99.8618057,16.6914062 99.8618057,25.2871094 L99.8618057,27.6337891 L80.3764541,27.6337891 L80.3764541,28.1083984 C80.3764541,32.0898438 82.9868057,34.8056641 86.8627822,34.8056641 C89.6313369,34.8056641 91.8461807,33.4873047 92.5580947,31.3515625 Z M103.816884,40 L103.816884,11.734375 L111.252431,11.734375 L111.252431,16.8232422 L111.410634,16.8232422 C113.019032,13.2109375 115.893056,11.3125 120.243642,11.3125 C126.519032,11.3125 130.052235,15.2675781 130.052235,21.8857422 L130.052235,40 L122.353017,40 L122.353017,23.4941406 C122.353017,19.8027344 120.639149,17.6933594 117.132313,17.6933594 C113.651845,17.6933594 111.516103,20.2246094 111.516103,23.9160156 L111.516103,40 L103.816884,40 Z M139.939931,40.3164062 C137.566884,40.3164062 135.694813,38.4179688 135.694813,36.0712891 C135.694813,33.6982422 137.566884,31.8261719 139.939931,31.8261719 C142.28661,31.8261719 144.185048,33.6982422 144.185048,36.0712891 C144.185048,38.4179688 142.28661,40.3164062 139.939931,40.3164062 Z M166.069813,40 L158.106923,40 L158.106923,1.95214844 L183.023915,1.95214844 L183.023915,8.51757812 L166.069813,8.51757812 L166.069813,18.7216797 L181.547353,18.7216797 L181.547353,25.0234375 L166.069813,25.0234375 L166.069813,40 Z M199.503407,40.5009766 C190.881337,40.5009766 185.502431,35.0166016 185.502431,25.8408203 C185.502431,16.796875 190.960438,11.2333984 199.503407,11.2333984 C208.046376,11.2333984 213.504384,16.7705078 213.504384,25.8408203 C213.504384,35.0429688 208.125478,40.5009766 199.503407,40.5009766 Z M199.503407,34.6210938 C203.353017,34.6210938 205.673329,31.4306641 205.673329,25.8671875 C205.673329,20.3564453 203.353017,17.1132812 199.503407,17.1132812 C195.653798,17.1132812 193.307118,20.3828125 193.307118,25.8671875 C193.307118,31.4306641 195.627431,34.6210938 199.503407,34.6210938 Z M217.459462,40 L217.459462,11.734375 L224.895009,11.734375 L224.895009,16.8232422 L225.053212,16.8232422 C226.028798,13.3164062 228.454579,11.3916016 231.776845,11.3916016 C232.673329,11.3916016 233.41161,11.4970703 233.965321,11.6816406 L233.965321,18.4580078 C233.332509,18.1943359 232.277821,18.0097656 231.170399,18.0097656 C227.373524,18.0097656 225.158681,20.3300781 225.158681,24.3115234 L225.158681,40 L217.459462,40 Z M264.577626,40.3427734 C260.437978,40.3427734 257.273915,38.4443359 255.718251,35.1484375 L255.560048,35.1484375 L255.560048,40 L247.966298,40 L247.966298,1.95214844 L255.665517,1.95214844 L255.665517,16.5859375 L255.82372,16.5859375 C257.379384,13.2900391 260.517079,11.3916016 264.551259,11.3916016 C271.670399,11.3916016 276.047353,16.8496094 276.047353,25.8671875 C276.047353,34.8583984 271.696767,40.3427734 264.577626,40.3427734 Z M261.91454,17.5878906 C258.144032,17.5878906 255.639149,20.9101562 255.639149,25.8671875 C255.639149,30.8769531 258.144032,34.1464844 261.91454,34.1464844 C265.711415,34.1464844 268.163563,30.9033203 268.163563,25.8671875 C268.163563,20.8310547 265.685048,17.5878906 261.91454,17.5878906 Z M306.132313,11.734375 L306.132313,40 L298.696767,40 L298.696767,34.8583984 L298.538563,34.8583984 C297.114735,38.4179688 294.346181,40.421875 290.074696,40.421875 C283.957509,40.421875 279.896962,36.4404297 279.896962,29.8486328 L279.896962,11.734375 L287.596181,11.734375 L287.596181,28.2402344 C287.596181,32.0107422 289.468251,34.0146484 292.869618,34.0146484 C296.297353,34.0146484 298.433095,31.5625 298.433095,27.8183594 L298.433095,11.734375 L306.132313,11.734375 Z M310.66747,20.0927734 C310.66747,14.7402344 315.334462,11.2333984 322.585438,11.2333984 C329.651845,11.2333984 334.318837,14.7929688 334.397938,20.2509766 L327.305165,20.2509766 C327.173329,18.0361328 325.327626,16.6386719 322.47997,16.6386719 C319.843251,16.6386719 318.076649,17.8251953 318.076649,19.6181641 C318.076649,20.9892578 319.28954,21.9121094 321.768056,22.4921875 L327.173329,23.6523438 C332.842274,24.9179688 335.13622,27.1328125 335.13622,31.3251953 C335.13622,36.8623047 330.020985,40.5009766 322.559071,40.5009766 C315.018056,40.5009766 310.351063,36.8886719 309.955556,31.4042969 L317.470204,31.4042969 C317.812978,33.7509766 319.711415,35.0957031 322.770009,35.0957031 C325.670399,35.0957031 327.463368,33.9619141 327.463368,32.1425781 C327.463368,30.7451172 326.514149,29.9804688 323.982899,29.3740234 L318.762196,28.2138672 C313.409657,27.0009766 310.66747,24.2324219 310.66747,20.0927734 Z M339.091298,40 L339.091298,11.734375 L346.790517,11.734375 L346.790517,40 L339.091298,40 Z M342.940907,8.62304688 C340.620595,8.62304688 338.827626,6.85644531 338.827626,4.64160156 C338.827626,2.40039062 340.620595,0.66015625 342.940907,0.66015625 C345.26122,0.66015625 347.054188,2.40039062 347.054188,4.64160156 C347.054188,6.85644531 345.26122,8.62304688 342.940907,8.62304688 Z M351.905751,40 L351.905751,11.734375 L359.341298,11.734375 L359.341298,16.8232422 L359.499501,16.8232422 C361.107899,13.2109375 363.981923,11.3125 368.332509,11.3125 C374.607899,11.3125 378.141103,15.2675781 378.141103,21.8857422 L378.141103,40 L370.441884,40 L370.441884,23.4941406 C370.441884,19.8027344 368.728017,17.6933594 365.221181,17.6933594 C361.740712,17.6933594 359.60497,20.2246094 359.60497,23.9160156 L359.60497,40 L351.905751,40 Z M395.701649,16.9287109 C392.353017,16.9287109 389.900868,19.3808594 389.637196,22.9140625 L401.634267,22.9140625 C401.476063,19.3017578 399.103017,16.9287109 395.701649,16.9287109 Z M401.739735,31.3515625 L408.806142,31.3515625 C407.962392,36.8623047 402.847157,40.5009766 395.912587,40.5009766 C387.264149,40.5009766 381.990712,34.9902344 381.990712,25.9990234 C381.990712,16.9814453 387.290517,11.2333984 395.622548,11.2333984 C403.822743,11.2333984 409.043446,16.6914062 409.043446,25.2871094 L409.043446,27.6337891 L389.558095,27.6337891 L389.558095,28.1083984 C389.558095,32.0898438 392.168446,34.8056641 396.044423,34.8056641 C398.812978,34.8056641 401.027821,33.4873047 401.739735,31.3515625 Z M412.523915,20.0927734 C412.523915,14.7402344 417.190907,11.2333984 424.441884,11.2333984 C431.50829,11.2333984 436.175282,14.7929688 436.254384,20.2509766 L429.16161,20.2509766 C429.029774,18.0361328 427.184071,16.6386719 424.336415,16.6386719 C421.699696,16.6386719 419.933095,17.8251953 419.933095,19.6181641 C419.933095,20.9892578 421.145985,21.9121094 423.624501,22.4921875 L429.029774,23.6523438 C434.69872,24.9179688 436.992665,27.1328125 436.992665,31.3251953 C436.992665,36.8623047 431.877431,40.5009766 424.415517,40.5009766 C416.874501,40.5009766 412.207509,36.8886719 411.812001,31.4042969 L419.326649,31.4042969 C419.669423,33.7509766 421.56786,35.0957031 424.626454,35.0957031 C427.526845,35.0957031 429.319813,33.9619141 429.319813,32.1425781 C429.319813,30.7451172 428.370595,29.9804688 425.839345,29.3740234 L420.618642,28.2138672 C415.266103,27.0009766 412.523915,24.2324219 412.523915,20.0927734 Z M440.341298,20.0927734 C440.341298,14.7402344 445.00829,11.2333984 452.259267,11.2333984 C459.325673,11.2333984 463.992665,14.7929688 464.071767,20.2509766 L456.978993,20.2509766 C456.847157,18.0361328 455.001454,16.6386719 452.153798,16.6386719 C449.517079,16.6386719 447.750478,17.8251953 447.750478,19.6181641 C447.750478,20.9892578 448.963368,21.9121094 451.441884,22.4921875 L456.847157,23.6523438 C462.516103,24.9179688 464.810048,27.1328125 464.810048,31.3251953 C464.810048,36.8623047 459.694813,40.5009766 452.232899,40.5009766 C444.691884,40.5009766 440.024892,36.8886719 439.629384,31.4042969 L447.144032,31.4042969 C447.486806,33.7509766 449.385243,35.0957031 452.443837,35.0957031 C455.344228,35.0957031 457.137196,33.9619141 457.137196,32.1425781 C457.137196,30.7451172 456.187978,29.9804688 453.656728,29.3740234 L448.436024,28.2138672 C443.083485,27.0009766 440.341298,24.2324219 440.341298,20.0927734 Z M473.643056,40.3164062 C471.270009,40.3164062 469.397938,38.4179688 469.397938,36.0712891 C469.397938,33.6982422 471.270009,31.8261719 473.643056,31.8261719 C475.989735,31.8261719 477.888173,33.6982422 477.888173,36.0712891 C477.888173,38.4179688 475.989735,40.3164062 473.643056,40.3164062 Z" id="Open.-For-business."></path>
                    </g>
                </g>
            </g>
        </g>
    </g>
</svg>