<svg width="32" height="32" viewBox="0 0 32 32" xmlns="http://www.w3.org/2000/svg" xmlns:xlink="http://www.w3.org/1999/xlink"><use xlink:href="#a" transform="translate(.3 .31)" fill="#FFF"/><use xlink:href="#b" transform="translate(10.2 10.19)" fill="url(#c)"/><use xlink:href="#d" transform="translate(2.7)" fill="url(#e)"/><use xlink:href="#f" transform="translate(0 7.04)" fill="url(#g)"/><use xlink:href="#h" transform="translate(14.7 8.9)" fill="url(#i)"/><use xlink:href="#j" transform="translate(2.7 6.61)" fill="url(#k)"/><use xlink:href="#l" transform="translate(14.5 20.5)" fill="url(#m)"/><use xlink:href="#n" transform="translate(15.9 8.9)" fill="url(#o)"/><defs><path id="a" d="M15.755 31.499c8.701 0 15.755-7.051 15.755-15.75C31.51 7.051 24.456 0 15.755 0S0 7.051 0 15.75c0 8.698 7.054 15.749 15.755 15.749Z"/><path id="b" d="M5.872 11.74a5.871 5.871 0 1 0 0-11.74 5.871 5.871 0 1 0 0 11.74Z"/><path id="d" d="M27.642 8.902C23.7.972 14.072-2.262 6.138 1.68A16.037 16.037 0 0 0 0 7.041l6.445 11.168a7.159 7.159 0 0 1 6.732-9.307"/><path id="f" d="M2.718 0C-2.214 7.356-.248 17.317 7.111 22.249a16.044 16.044 0 0 0 7.638 2.664l6.732-11.454a7.163 7.163 0 0 1-12.317-2.29"/><path id="h" d="M0 23.051c8.834.668 16.537-5.95 17.205-14.78A16.029 16.029 0 0 0 15.611 0H1.146A7.16 7.16 0 0 1 6.73 11.598"/><path id="j" d="m0 .43 6.445 11.168a7.156 7.156 0 0 1 .287-4.869L.286 0"/><path id="l" d="M.287 11.454 7.018 0a7.164 7.164 0 0 1-4.153 2.434L0 11.454"/><path id="n" d="M14.466 0H0a7.162 7.162 0 0 1 5.586 2.72L14.752.43"/><linearGradient id="c" x1="0" y1="0" x2="1" y2="0" gradientUnits="userSpaceOnUse" gradientTransform="matrix(0 11.7272 11.7312 0 .005 .02)"><stop offset="0" stop-color="#81B4E0"/><stop offset="1" stop-color="#0C5A94"/></linearGradient><linearGradient id="e" x1="0" y1="0" x2="1" y2="0" gradientUnits="userSpaceOnUse" gradientTransform="matrix(0 13.0294 13.0339 0 7.305 .025)"><stop offset="0" stop-color="#F06B59"/><stop offset="1" stop-color="#DF2227"/></linearGradient><linearGradient id="g" x1="0" y1="0" x2="1" y2="0" gradientUnits="userSpaceOnUse" gradientTransform="matrix(6.58831 -10.8812 -10.885 -6.58602 9.346 23.711)"><stop offset="0" stop-color="#388B41"/><stop offset="1" stop-color="#4CB749"/></linearGradient><linearGradient id="i" x1="0" y1="0" x2="1" y2="0" gradientUnits="userSpaceOnUse" gradientTransform="matrix(-7.01806 -16.8947 -16.9006 7.01563 19.675 16.206)"><stop offset="0" stop-color="#E4B022"/><stop offset=".3" stop-color="#FCD209"/></linearGradient><linearGradient id="k" x1="0" y1="0" x2="1" y2="0" gradientUnits="userSpaceOnUse" gradientTransform="matrix(0 -11.454 -11.458 0 9.095 11.168)"><stop offset="0" stop-opacity=".15"/><stop offset=".3" stop-opacity=".06"/><stop offset="1" stop-opacity=".03"/></linearGradient><linearGradient id="m" x1="0" y1="0" x2="1" y2="0" gradientUnits="userSpaceOnUse" gradientTransform="matrix(-7.8772 8.01768 8.02046 7.87447 3.427 -2.959)"><stop offset="0" stop-opacity=".15"/><stop offset=".3" stop-opacity=".06"/><stop offset="1" stop-opacity=".03"/></linearGradient><linearGradient id="o" x1="0" y1="0" x2="1" y2="0" gradientUnits="userSpaceOnUse" gradientTransform="matrix(1.14583 -11.3104 -11.3143 -1.14544 11.548 15.455)"><stop offset="0" stop-opacity=".15"/><stop offset=".3" stop-opacity=".06"/><stop offset="1" stop-opacity=".03"/></linearGradient></defs></svg>