<svg xmlns="http://www.w3.org/2000/svg" xmlns:xlink="http://www.w3.org/1999/xlink" width="32" height="32" version="1.1" viewBox="0 0 32 32"><title>Group</title><desc>Created using Figma</desc><g id="Canvas" transform="translate(-11888 -3796)"><g id="Group"><g id="Vector"><use fill="#FFF" transform="translate(11888.3 3796.31)" xlink:href="#path0_fill"/></g><g id="Vector"><use fill="url(#paint1_linear)" transform="translate(11898.2 3806.19)" xlink:href="#path1_fill"/></g><g id="Vector"><use fill="url(#paint2_linear)" transform="translate(11890.7 3796)" xlink:href="#path2_fill"/></g><g id="Vector"><use fill="url(#paint3_linear)" transform="translate(11888 3803.04)" xlink:href="#path3_fill"/></g><g id="Vector"><use fill="url(#paint4_linear)" transform="translate(11902.7 3804.9)" xlink:href="#path4_fill"/></g><g id="Vector"><use fill="url(#paint5_linear)" transform="translate(11890.7 3802.61)" xlink:href="#path5_fill"/></g><g id="Vector"><use fill="url(#paint6_linear)" transform="translate(11902.5 3816.5)" xlink:href="#path6_fill"/></g><g id="Vector"><use fill="url(#paint7_linear)" transform="translate(11903.9 3804.9)" xlink:href="#path7_fill"/></g></g></g><defs><linearGradient id="paint1_linear" x1="0" x2="1" y1="0" y2="0" gradientTransform="matrix(0 11.7272 11.7312 0 0.00512286 0.0195312)" gradientUnits="userSpaceOnUse"><stop offset="0" stop-color="#81B4E0"/><stop offset="1" stop-color="#0C5A94"/></linearGradient><linearGradient id="paint2_linear" x1="0" x2="1" y1="0" y2="0" gradientTransform="matrix(0 13.0294 13.0339 0 7.30487 0.0248684)" gradientUnits="userSpaceOnUse"><stop offset="0" stop-color="#F06B59"/><stop offset="1" stop-color="#DF2227"/></linearGradient><linearGradient id="paint3_linear" x1="0" x2="1" y1="0" y2="0" gradientTransform="matrix(6.58831 -10.8812 -10.885 -6.58602 9.346 23.7113)" gradientUnits="userSpaceOnUse"><stop offset="0" stop-color="#388B41"/><stop offset="1" stop-color="#4CB749"/></linearGradient><linearGradient id="paint4_linear" x1="0" x2="1" y1="0" y2="0" gradientTransform="matrix(-7.01806 -16.8947 -16.9006 7.01563 19.6751 16.2065)" gradientUnits="userSpaceOnUse"><stop offset="0" stop-color="#E4B022"/><stop offset=".3" stop-color="#FCD209"/></linearGradient><linearGradient id="paint5_linear" x1="0" x2="1" y1="0" y2="0" gradientTransform="matrix(-0 -11.454 -11.458 -0 9.09525 11.1679)" gradientUnits="userSpaceOnUse"><stop offset="0" stop-color="#000" stop-opacity=".15"/><stop offset=".3" stop-color="#000" stop-opacity=".06"/><stop offset="1" stop-color="#000" stop-opacity=".03"/></linearGradient><linearGradient id="paint6_linear" x1="0" x2="1" y1="0" y2="0" gradientTransform="matrix(-7.8772 8.01768 8.02046 7.87447 3.42712 -2.95905)" gradientUnits="userSpaceOnUse"><stop offset="0" stop-color="#000" stop-opacity=".15"/><stop offset=".3" stop-color="#000" stop-opacity=".06"/><stop offset="1" stop-color="#000" stop-opacity=".03"/></linearGradient><linearGradient id="paint7_linear" x1="0" x2="1" y1="0" y2="0" gradientTransform="matrix(1.14583 -11.3104 -11.3143 -1.14544 11.5479 15.4552)" gradientUnits="userSpaceOnUse"><stop offset="0" stop-color="#000" stop-opacity=".15"/><stop offset=".3" stop-color="#000" stop-opacity=".06"/><stop offset="1" stop-color="#000" stop-opacity=".03"/></linearGradient><path id="path0_fill" d="M 15.7549 31.4989C 24.4561 31.4989 31.5098 24.4476 31.5098 15.7494C 31.5098 7.05126 24.4561 0 15.7549 0C 7.05371 0 0 7.05126 0 15.7494C 0 24.4476 7.05371 31.4989 15.7549 31.4989Z"/><path id="path1_fill" d="M 5.87217 11.7403C 9.11528 11.7403 11.7443 9.11212 11.7443 5.87014C 11.7443 2.62815 9.11528 0 5.87217 0C 2.62906 0 0 2.62815 0 5.87014C 0 9.11212 2.62906 11.7403 5.87217 11.7403Z"/><path id="path2_fill" d="M 27.6425 8.90206C 23.6993 0.971401 14.0716 -2.26228 6.13804 1.67934C 3.66429 2.90829 1.55 4.75505 6.19932e-08 7.04079L 6.44522 18.2087C 5.2584 14.4373 7.35456 10.4179 11.1272 9.23132C 11.7908 9.02274 12.4812 8.91182 13.1768 8.90206"/><path id="path3_fill" d="M 2.71848 3.4232e-07C -2.21446 7.3565 -0.248073 17.3173 7.11059 22.2489C 9.38735 23.7747 12.0173 24.6919 14.7494 24.9128L 21.4812 13.4589C 18.964 16.5088 14.4508 16.9411 11.4 14.425C 10.3638 13.5706 9.5888 12.442 9.16365 11.1682"/><path id="path4_fill" d="M -5.43178e-07 23.0514C 8.83404 23.719 16.5369 17.1012 17.2051 8.27022C 17.4206 5.42077 16.8704 2.56553 15.6114 1.06237e-07L 1.1458 1.06237e-07C 5.10044 0.0182279 8.29224 3.23803 8.274 7.19187C 8.26655 8.79143 7.72354 10.3424 6.7315 11.5975"/><path id="path5_fill" d="M 6.19931e-08 0.429636L 6.44522 11.5975C 5.96779 9.99137 6.06912 8.26862 6.73155 6.72941L 0.286329 2.65593e-07"/><path id="path6_fill" d="M 0.286522 11.4539L 7.01841 6.61031e-07C 5.95619 1.26604 4.4887 2.12594 2.86465 2.43388L 3.89671e-07 11.4539"/><path id="path7_fill" d="M 14.4658 -1.82964e-07L -4.25096e-07 -1.82964e-07C 2.17896 0.0101533 4.23477 1.01138 5.5857 2.72044L 14.7521 0.429781"/></defs></svg>