<svg width="174" height="148" viewBox="0 0 174 148" fill="none" xmlns="http://www.w3.org/2000/svg"><g filter="url(#a)"><g clip-path="url(#b)"><path d="M13.28 24.28h146.44V117a5.72 5.72 0 0 1-5.72 5.72H13.28V24.28Z" fill="#fff"/><rect x="20.441" y="42.517" width="130.322" height="5.034" rx="1.678" fill="#EFF2F5"/><rect x="20.441" y="52.025" width="111.864" height="5.034" rx="1.678" fill="#EFF2F5"/><rect x="20.441" y="61.534" width="18.458" height="5.034" rx="1.678" fill="#EFF2F5"/><rect x="43.373" y="61.534" width="49.22" height="5.034" rx="1.678" fill="#EFF2F5"/><rect x="21.559" y="79.992" width="49.22" height="5.034" rx="1.678" fill="#EFF2F5"/><rect x="21.559" y="90.059" width="107.949" height="5.034" rx="1.678" fill="#EFF2F5"/><rect x="21.559" y="100.127" width="107.949" height="5.034" rx="1.678" fill="#EFF2F5"/><g filter="url(#c)"><rect x="74.136" y="54.263" width="75.678" height="55.492" rx="1.678" fill="#fff"/><g clip-path="url(#d)"><path d="M82.499 64.93c.04.24.123.463.24.666h-2.603a.664.664 0 0 1-.667-.667v-5.333a.667.667 0 0 1 .667-.667h4a.667.667 0 0 1 .666.667v3.03a2.17 2.17 0 0 0-.333-.03 2.17 2.17 0 0 0-.333.03v-3.03h-1.667v2.667l-.833-.75-.834.75v-2.667h-.666v5.333h2.363Zm2.303-.667v-1h-.666v1h-1v.666h1v1h.666v-1h1v-.666h-1Z" fill="#000"/></g><path d="M89.362 64.263v-3.056h.043l2.139 3.056h.478v-3.941h-.487v3.067h-.043l-2.139-3.067h-.478v3.94h.487Zm4.814.052c.839 0 1.358-.58 1.358-1.524 0-.948-.52-1.524-1.358-1.524-.838 0-1.357.576-1.357 1.524 0 .945.519 1.524 1.357 1.524Zm0-.424c-.557 0-.87-.404-.87-1.1 0-.7.313-1.101.87-1.101.558 0 .872.402.872 1.1 0 .697-.314 1.101-.872 1.101Zm2.292-3.334v.762h-.475v.393h.475v1.786c0 .563.243.786.85.786.092 0 .182-.01.275-.027v-.396a1.983 1.983 0 0 1-.219.011c-.305 0-.436-.147-.436-.494v-1.666h.655v-.393h-.656v-.762h-.47Zm3.741 2.944c-.123.26-.38.399-.759.399-.5 0-.825-.37-.85-.95v-.023h2.117v-.18c0-.915-.483-1.48-1.278-1.48-.808 0-1.327.6-1.327 1.526 0 .932.51 1.522 1.327 1.522.645 0 1.104-.312 1.24-.814h-.47Zm-.775-1.82c.467 0 .778.345.789.867h-1.622c.035-.522.363-.866.833-.866Zm3.454-.414c-.401 0-.753.204-.942.543h-.043v-.491h-.448v3.927h.469V63.82h.044c.161.312.5.495.92.495.749 0 1.238-.604 1.238-1.524 0-.926-.486-1.524-1.238-1.524Zm-.111 2.624c-.53 0-.866-.426-.866-1.1 0-.678.336-1.101.868-1.101.538 0 .861.412.861 1.1 0 .689-.323 1.101-.863 1.101Zm2.905.424c.394 0 .716-.172.907-.486h.044v.434h.448v-2.016c0-.612-.402-.98-1.12-.98-.628 0-1.092.311-1.155.783h.475c.065-.232.311-.365.664-.365.439 0 .666.199.666.562v.268l-.849.052c-.686.04-1.074.344-1.074.87 0 .539.424.878.994.878Zm.088-.413c-.342 0-.596-.175-.596-.475 0-.295.197-.45.645-.48l.792-.053v.27c0 .421-.358.738-.841.738Zm3.269.413c.407 0 .756-.194.942-.522h.044v.47h.448V60.15h-.47v1.633h-.041c-.167-.322-.513-.516-.923-.516-.748 0-1.237.6-1.237 1.524 0 .926.483 1.524 1.237 1.524Zm.109-2.625c.533 0 .866.426.866 1.1 0 .68-.331 1.101-.866 1.101-.538 0-.86-.412-.86-1.1 0-.686.325-1.101.86-1.101Z" fill="#343A4D"/><rect x="78.136" y="70.263" width="67.678" height="7.831" rx="1.678" fill="#E6EBF2"/><rect x="78.136" y="81.449" width="67.678" height="7.831" rx="1.678" fill="#E6EBF2"/><rect x="78.136" y="93.28" width="67.678" height="12.475" rx="1.678" fill="#0B70DB"/><path d="M82.462 101.61c.839 0 1.461-.467 1.592-1.191h-.5c-.125.456-.543.737-1.092.737-.76 0-1.234-.619-1.234-1.608 0-.989.475-1.612 1.231-1.612.544 0 .965.32 1.096.828h.5c-.118-.76-.765-1.28-1.596-1.28-1.07 0-1.737.791-1.737 2.064 0 1.27.67 2.062 1.74 2.062Zm2.357-.093h.47v-1.824c0-.415.325-.716.773-.716.093 0 .262.016.3.027v-.47a2.04 2.04 0 0 0-.235-.013c-.39 0-.729.202-.816.489h-.044v-.437h-.448v2.944Zm3.998-.762c-.123.259-.38.399-.759.399-.5 0-.825-.369-.85-.951v-.022h2.117v-.18c0-.915-.483-1.48-1.278-1.48-.808 0-1.327.6-1.327 1.527 0 .931.51 1.521 1.327 1.521.645 0 1.103-.311 1.24-.814h-.47Zm-.775-1.819c.467 0 .778.344.789.866h-1.622c.035-.522.363-.866.833-.866Zm2.84 2.633c.393 0 .716-.172.907-.486h.043v.434h.448v-2.016c0-.611-.401-.98-1.12-.98-.628 0-1.092.311-1.155.784h.476c.065-.232.31-.366.663-.366.44 0 .667.2.667.562v.268l-.85.052c-.685.04-1.073.344-1.073.871 0 .538.423.877.994.877Zm.087-.413c-.341 0-.595-.174-.595-.475 0-.295.197-.45.645-.48l.792-.052v.27c0 .421-.358.737-.842.737Zm2.376-3.345v.762h-.475v.393h.475v1.786c0 .563.243.787.85.787.093 0 .183-.011.276-.027v-.396a2.04 2.04 0 0 1-.219.01c-.306 0-.437-.147-.437-.494v-1.666h.656v-.393h-.656v-.762h-.47Zm3.742 2.944c-.123.259-.38.399-.76.399-.499 0-.824-.369-.849-.951v-.022h2.117v-.18c0-.915-.483-1.48-1.278-1.48-.809 0-1.327.6-1.327 1.527 0 .931.51 1.521 1.327 1.521.644 0 1.103-.311 1.24-.814h-.47Zm-.776-1.819c.467 0 .779.344.79.866h-1.623c.036-.522.364-.866.833-.866Z" fill="#fff"/><rect x="74.415" y="54.542" width="75.119" height="54.932" rx="1.398" stroke="#E6EBF2" stroke-width=".559"/></g><path d="M13.28 24.28h146.44V117a5.72 5.72 0 0 1-5.72 5.72H13.28V24.28Z" stroke="#E6EBF2" stroke-width=".559"/></g></g><defs><clipPath id="b"><path d="M13.5 25h146v92a6 6 0 0 1-6 6h-140V25Z" fill="#fff"/></clipPath><clipPath id="d"><path fill="#fff" transform="translate(78.136 58.263)" d="M0 0h8v8H0z"/></clipPath><filter id="a" x="7.5" y="19" width="166" height="118" filterUnits="userSpaceOnUse" color-interpolation-filters="sRGB"><feFlood flood-opacity="0" result="BackgroundImageFix"/><feColorMatrix in="SourceAlpha" values="0 0 0 0 0 0 0 0 0 0 0 0 0 0 0 0 0 0 127 0" result="hardAlpha"/><feOffset dx="4" dy="4"/><feGaussianBlur stdDeviation="5"/><feComposite in2="hardAlpha" operator="out"/><feColorMatrix values="0 0 0 0 0 0 0 0 0 0 0 0 0 0 0 0 0 0 0.1 0"/><feBlend in2="BackgroundImageFix" result="effect1_dropShadow_2195_13074"/><feBlend in="SourceGraphic" in2="effect1_dropShadow_2195_13074" result="shape"/></filter><filter id="c" x="68.542" y="50.907" width="86.864" height="66.678" filterUnits="userSpaceOnUse" color-interpolation-filters="sRGB"><feFlood flood-opacity="0" result="BackgroundImageFix"/><feColorMatrix in="SourceAlpha" values="0 0 0 0 0 0 0 0 0 0 0 0 0 0 0 0 0 0 127 0" result="hardAlpha"/><feMorphology radius="3.356" in="SourceAlpha" result="effect1_dropShadow_2195_13074"/><feOffset dy="2.237"/><feGaussianBlur stdDeviation="4.475"/><feColorMatrix values="0 0 0 0 0.141522 0 0 0 0 0.159783 0 0 0 0 0.21 0 0 0 0.2 0"/><feBlend in2="BackgroundImageFix" result="effect1_dropShadow_2195_13074"/><feBlend in="SourceGraphic" in2="effect1_dropShadow_2195_13074" result="shape"/></filter></defs></svg>