<svg width="262" height="262" viewBox="0 0 262 262" xmlns="http://www.w3.org/2000/svg" xmlns:xlink="http://www.w3.org/1999/xlink">
  <title>
    world-illo
  </title>
  <defs>
    <circle id="a" cx="128" cy="128" r="128"/>
  </defs>
  <g transform="translate(3 3)" fill="none" fill-rule="evenodd" opacity=".458">
    <mask id="b" fill="#fff">
      <use xlink:href="#a"/>
    </mask>
    <use stroke="#D5E5F2" stroke-width="5" xlink:href="#a"/>
    <path d="M172.378 258.2c30.384 0 55.015-60.098 55.015-134.234 0-74.136-24.63-134.235-55.015-134.235-30.383 0-55.014 60.1-55.014 134.24s24.63 134.23 55.014 134.23z" stroke="#D5E5F2" stroke-width="3" mask="url(#b)"/>
    <path d="M169.077 258.2c43.55 0 78.854-60.098 78.854-134.234 0-74.136-35.3-134.235-78.85-134.235s-78.85 60.1-78.85 134.24 35.305 134.23 78.85 134.23z" stroke="#D5E5F2" stroke-width="3" mask="url(#b)"/>
    <path d="M131.3 258.2c64.414 0 116.63-29.146 116.63-65.1 0-35.954-52.216-65.1-116.63-65.1-64.412 0-116.63 29.146-116.63 65.1 0 35.954 52.218 65.1 116.63 65.1z" stroke="#D5E5F2" stroke-width="3" mask="url(#b)"/>
    <path d="M188.928 242.445c76.132-43.955 117.96-114.036 93.426-156.532-24.535-42.495-106.14-41.31-182.273 2.644-76.13 43.955-117.96 114.036-93.42 156.53 24.54 42.496 106.14 41.313 182.28-2.642z" stroke="#D5E5F2" stroke-width="3" mask="url(#b)"/>
    <path d="M122.865 82.888c3.04 0 5.502-2.463 5.502-5.5 0-3.04-2.463-5.503-5.502-5.503-3.038 0-5.5 2.463-5.5 5.502 0 3.038 2.462 5.5 5.5 5.5zm-5.135 49.146c2.23 0 4.035-1.806 4.035-4.034 0-2.228-1.806-4.034-4.034-4.034-2.22 0-4.03 1.806-4.03 4.034 0 2.228 1.81 4.034 4.04 4.034zm108.562 27.14c2.228 0 4.035-1.805 4.035-4.034 0-2.228-1.807-4.034-4.035-4.034s-4.034 1.806-4.034 4.034c0 2.23 1.806 4.035 4.034 4.035zm-6.968-97.558c3.646 0 6.602-2.956 6.602-6.602 0-3.646-2.956-6.6-6.602-6.6-3.646 0-6.602 2.954-6.602 6.6 0 3.646 2.956 6.602 6.602 6.602zM93.158 99.76c3.646 0 6.6-2.956 6.6-6.602 0-3.646-2.954-6.602-6.6-6.602-3.646 0-6.602 2.956-6.602 6.602 0 3.646 2.956 6.6 6.602 6.6zm148.538 76.286c2.228 0 4.035-1.806 4.035-4.035 0-2.22-1.8-4.03-4.03-4.03-2.23 0-4.03 1.81-4.03 4.04s1.808 4.037 4.036 4.037z" stroke="#D5E5F2" fill="#D5E5F2" mask="url(#b)"/>
  </g>
</svg>
