<?xml version="1.0" encoding="UTF-8" standalone="no"?>
<svg
   xmlns:dc="http://purl.org/dc/elements/1.1/"
   xmlns:cc="http://creativecommons.org/ns#"
   xmlns:rdf="http://www.w3.org/1999/02/22-rdf-syntax-ns#"
   xmlns:svg="http://www.w3.org/2000/svg"
   xmlns="http://www.w3.org/2000/svg"
   xmlns:xlink="http://www.w3.org/1999/xlink"
   xmlns:sodipodi="http://sodipodi.sourceforge.net/DTD/sodipodi-0.dtd"
   xmlns:inkscape="http://www.inkscape.org/namespaces/inkscape"
   width="96"
   height="96"
   viewBox="0 0 96 96"
   version="1.1"
   id="svg2"
   inkscape:version="0.91 r13725"
   sodipodi:docname="circle-archive.svg">
  <metadata
     id="metadata20">
    <rdf:RDF>
      <cc:Work
         rdf:about="">
        <dc:format>image/svg+xml</dc:format>
        <dc:type
           rdf:resource="http://purl.org/dc/dcmitype/StillImage" />
        <dc:title>Canvas</dc:title>
      </cc:Work>
    </rdf:RDF>
  </metadata>
  <sodipodi:namedview
     pagecolor="#ffffff"
     bordercolor="#666666"
     borderopacity="1"
     objecttolerance="10"
     gridtolerance="10"
     guidetolerance="10"
     inkscape:pageopacity="0"
     inkscape:pageshadow="2"
     inkscape:window-width="1361"
     inkscape:window-height="754"
     id="namedview18"
     showgrid="false"
     inkscape:zoom="4.9166667"
     inkscape:cx="42.508475"
     inkscape:cy="48"
     inkscape:window-x="20"
     inkscape:window-y="43"
     inkscape:window-maximized="0"
     inkscape:current-layer="svg2" />
  <title
     id="title4">Canvas</title>
  <defs
     id="defs13">
    <path
       id="path0_fill"
       d="M 96 48C 96 74.5097 74.5097 96 48 96C 21.4903 96 0 74.5097 0 48C 0 21.4903 21.4903 0 48 0C 74.5097 0 96 21.4903 96 48Z" />
    <path
       d="M4.109 10.891q0 0.414-0.293 0.707t-0.707 0.293q-0.406 0-0.703-0.297t-0.297-0.703q0-0.414 0.293-0.707t0.707-0.293 0.707 0.293 0.293 0.707zM8 12.5q0 0.414-0.293 0.707t-0.707 0.293-0.707-0.293-0.293-0.707 0.293-0.707 0.707-0.293 0.707 0.293 0.293 0.707zM2.5 7q0 0.414-0.293 0.707t-0.707 0.293-0.707-0.293-0.293-0.707 0.293-0.707 0.707-0.293 0.707 0.293 0.293 0.707zM11.891 10.891q0 0.406-0.297 0.703t-0.703 0.297q-0.414 0-0.707-0.293t-0.293-0.707 0.293-0.707 0.707-0.293 0.707 0.293 0.293 0.707zM4.359 3.109q0 0.516-0.367 0.883t-0.883 0.367-0.883-0.367-0.367-0.883 0.367-0.883 0.883-0.367 0.883 0.367 0.367 0.883zM13.5 7q0 0.414-0.293 0.707t-0.707 0.293-0.707-0.293-0.293-0.707 0.293-0.707 0.707-0.293 0.707 0.293 0.293 0.707zM8.5 1.5q0 0.625-0.438 1.062t-1.062 0.438-1.062-0.438-0.438-1.062 0.438-1.062 1.062-0.438 1.062 0.438 0.438 1.062zM12.641 3.109q0 0.727-0.516 1.238t-1.234 0.512q-0.727 0-1.238-0.512t-0.512-1.238q0-0.719 0.512-1.234t1.238-0.516q0.719 0 1.234 0.516t0.516 1.234z"
       id="path16" />
  </defs>
  <g
     id="Canvas"
     transform="translate(-23328 -17168)">
    <g
       id="Ellipse 3">
      <use
         xlink:href="#path0_fill"
         transform="translate(23328 17168)"
         fill="#233043"
         id="use8" />
    </g>
    <g
       id="Vector">
      <use
         xlink:href="#path1_fill"
         transform="translate(23354 17194)"
         fill="#93A9C8"
         id="use11" />
    </g>
  </g>
  <path
     id="path6558"
     d="m 44.133158,31.957245 0,-4.009684 -4.009684,0 0,4.009684 4.009684,0 z m 4.009683,4.009683 0,-4.009683 -4.009683,0 0,4.009683 4.009683,0 z m -4.009683,4.009684 0,-4.009684 -4.009684,0 0,4.009684 4.009684,0 z m 4.009683,4.009704 0,-4.009704 -4.009683,0 0,4.009704 4.009683,0 z M 70.0718,31.832945 q 0.878121,0.87812 1.503631,2.381751 0.62551,1.503631 0.62551,2.758663 l 0,36.087175 q 0,1.251022 -0.87812,2.129142 -0.878121,0.878121 -2.129142,0.878121 l -42.101678,0 q -1.251021,0 -2.129142,-0.878121 -0.87812,-0.87812 -0.87812,-2.129142 l 0,-50.121068 q 0,-1.251021 0.87812,-2.129142 0.878121,-0.878121 2.129142,-0.878121 l 28.067787,0 q 1.251021,0 2.758663,0.625511 1.50764,0.625511 2.381752,1.503631 z m -13.909592,-7.646467 0,11.776441 11.77644,0 Q 67.625892,35.052721 67.248982,34.67982 l -9.803675,-9.803677 q -0.37691,-0.37691 -1.283099,-0.689665 z m 12.02905,47.867626 0,-32.077492 -13.03147,0 q -1.251022,0 -2.129143,-0.878121 -0.87812,-0.87812 -0.87812,-2.129142 l 0,-13.031472 -4.009684,0 0,4.009684 -4.009683,0 0,-4.009684 -16.038736,0 0,48.116227 40.096836,0 z m -19.639429,-22.58655 3.352096,10.934408 q 0.2486,0.846044 0.2486,1.627932 0,2.598275 -2.269481,4.306401 -2.269481,1.708125 -5.749886,1.708125 -3.480406,0 -5.749887,-1.708125 -2.269481,-1.708126 -2.269481,-4.306401 0,-0.781888 0.2486,-1.627932 0.657589,-1.972765 3.757074,-12.405962 l 0,-4.009684 4.009683,0 0,4.009684 2.473976,0 q 0.689666,0 1.222953,0.408987 0.533288,0.408988 0.721743,1.066576 z m -4.418671,14.567182 q 1.660009,0 2.834846,-0.593433 1.174837,-0.593434 1.174837,-1.411409 0,-0.817976 -1.174837,-1.411408 -1.174837,-0.593434 -2.834846,-0.593434 -1.66001,0 -2.834847,0.593434 -1.174837,0.593432 -1.174837,1.411408 0,0.817975 1.174837,1.411409 1.174837,0.593433 2.834847,0.593433 z"
     inkscape:connector-curvature="0"
     style="stroke:none;stroke-opacity:1;fill:#93a9c8;fill-opacity:1" />
</svg>
