<?xml version="1.0" encoding="UTF-8" standalone="no"?>
<svg
   xmlns:dc="http://purl.org/dc/elements/1.1/"
   xmlns:cc="http://creativecommons.org/ns#"
   xmlns:rdf="http://www.w3.org/1999/02/22-rdf-syntax-ns#"
   xmlns:svg="http://www.w3.org/2000/svg"
   xmlns="http://www.w3.org/2000/svg"
   xmlns:xlink="http://www.w3.org/1999/xlink"
   xmlns:sodipodi="http://sodipodi.sourceforge.net/DTD/sodipodi-0.dtd"
   xmlns:inkscape="http://www.inkscape.org/namespaces/inkscape"
   width="96"
   height="96"
   viewBox="0 0 96 96"
   version="1.1"
   id="svg2"
   inkscape:version="0.91 r13725"
   sodipodi:docname="circle-loading.svg">
  <metadata
     id="metadata20">
    <rdf:RDF>
      <cc:Work
         rdf:about="">
        <dc:format>image/svg+xml</dc:format>
        <dc:type
           rdf:resource="http://purl.org/dc/dcmitype/StillImage" />
      </cc:Work>
    </rdf:RDF>
  </metadata>
  <sodipodi:namedview
     pagecolor="#ffffff"
     bordercolor="#666666"
     borderopacity="1"
     objecttolerance="10"
     gridtolerance="10"
     guidetolerance="10"
     inkscape:pageopacity="0"
     inkscape:pageshadow="2"
     inkscape:window-width="1361"
     inkscape:window-height="754"
     id="namedview18"
     showgrid="false"
     inkscape:zoom="4.9166667"
     inkscape:cx="74.847458"
     inkscape:cy="48"
     inkscape:window-x="0"
     inkscape:window-y="0"
     inkscape:window-maximized="0"
     inkscape:current-layer="svg2" />
  <title
     id="title4">Canvas</title>
  <defs
     id="defs13">
    <path
       id="path0_fill"
       d="M 96 48C 96 74.5097 74.5097 96 48 96C 21.4903 96 0 74.5097 0 48C 0 21.4903 21.4903 0 48 0C 74.5097 0 96 21.4903 96 48Z" />
    <path
       d="M4.109 10.891q0 0.414-0.293 0.707t-0.707 0.293q-0.406 0-0.703-0.297t-0.297-0.703q0-0.414 0.293-0.707t0.707-0.293 0.707 0.293 0.293 0.707zM8 12.5q0 0.414-0.293 0.707t-0.707 0.293-0.707-0.293-0.293-0.707 0.293-0.707 0.707-0.293 0.707 0.293 0.293 0.707zM2.5 7q0 0.414-0.293 0.707t-0.707 0.293-0.707-0.293-0.293-0.707 0.293-0.707 0.707-0.293 0.707 0.293 0.293 0.707zM11.891 10.891q0 0.406-0.297 0.703t-0.703 0.297q-0.414 0-0.707-0.293t-0.293-0.707 0.293-0.707 0.707-0.293 0.707 0.293 0.293 0.707zM4.359 3.109q0 0.516-0.367 0.883t-0.883 0.367-0.883-0.367-0.367-0.883 0.367-0.883 0.883-0.367 0.883 0.367 0.367 0.883zM13.5 7q0 0.414-0.293 0.707t-0.707 0.293-0.707-0.293-0.293-0.707 0.293-0.707 0.707-0.293 0.707 0.293 0.293 0.707zM8.5 1.5q0 0.625-0.438 1.062t-1.062 0.438-1.062-0.438-0.438-1.062 0.438-1.062 1.062-0.438 1.062 0.438 0.438 1.062zM12.641 3.109q0 0.727-0.516 1.238t-1.234 0.512q-0.727 0-1.238-0.512t-0.512-1.238q0-0.719 0.512-1.234t1.238-0.516q0.719 0 1.234 0.516t0.516 1.234z"
       id="path16" />
  </defs>
  <g
     id="Canvas"
     transform="translate(-23328 -17168)">
    <g
       id="Ellipse 3">
      <use
         xlink:href="#path0_fill"
         transform="translate(23328 17168)"
         fill="#233043"
         id="use8" />
    </g>
    <g
       id="Vector">
      <use
         xlink:href="#path1_fill"
         transform="translate(23354 17194)"
         fill="#93A9C8"
         id="use11" />
    </g>
  </g>
  <path
     id="path8112"
     d="m 35.516307,65.219075 q 0,1.721491 -1.265209,2.939842 -1.26521,1.21835 -3.052913,1.21835 -1.753157,0 -3.03564,-1.234983 -1.282482,-1.234983 -1.282482,-2.923209 0,-1.72149 1.26521,-2.939842 1.26521,-1.21835 3.052912,-1.21835 1.787703,0 3.052913,1.21835 1.265209,1.218352 1.265209,2.939842 z m 16.801815,6.69053 q 0,1.721491 -1.26521,2.939841 -1.26521,1.21835 -3.052911,1.21835 -1.787703,0 -3.052913,-1.21835 -1.26521,-1.21835 -1.26521,-2.939841 0,-1.721492 1.26521,-2.939842 1.26521,-1.218349 3.052913,-1.218349 1.787701,0 3.052911,1.218349 1.26521,1.21835 1.26521,2.939842 z M 28.568449,49.039553 q 0,1.721491 -1.26521,2.939841 -1.26521,1.21835 -3.052913,1.21835 -1.787702,0 -3.052912,-1.21835 -1.265211,-1.21835 -1.265211,-2.939841 0,-1.721492 1.265211,-2.939841 1.26521,-1.218351 3.052912,-1.218351 1.787703,0 3.052913,1.218351 1.26521,1.218349 1.26521,2.939841 z m 40.551489,16.179522 q 0,1.688226 -1.282483,2.923209 -1.282482,1.234983 -3.03564,1.234983 -1.787703,0 -3.052912,-1.21835 -1.265209,-1.218351 -1.265209,-2.939842 0,-1.72149 1.265209,-2.939842 1.265209,-1.21835 3.052912,-1.21835 1.787703,0 3.052913,1.21835 1.26521,1.218352 1.26521,2.939842 z M 36.595838,32.86003 q 0,2.145626 -1.584751,3.671683 -1.584751,1.526056 -3.812902,1.526056 -2.22815,0 -3.812901,-1.526056 -1.584751,-1.526057 -1.584751,-3.671683 0,-2.145627 1.584751,-3.671683 1.584751,-1.526056 3.812901,-1.526056 2.228151,0 3.812902,1.526056 1.584751,1.526056 1.584751,3.671683 z m 39.471958,16.179523 q 0,1.721491 -1.26521,2.939841 -1.26521,1.21835 -3.052911,1.21835 -1.787704,0 -3.052914,-1.21835 -1.26521,-1.21835 -1.26521,-2.939841 0,-1.721492 1.26521,-2.939841 1.26521,-1.218351 3.052914,-1.218351 1.787701,0 3.052911,1.218351 1.26521,1.218349 1.26521,2.939841 z M 54.477184,26.169499 q 0,2.59887 -1.891339,4.416 -1.891337,1.817129 -4.585844,1.821288 -2.694509,0.0041 -4.585847,-1.821288 -1.891338,-1.825447 -1.891338,-4.416 0,-2.590553 1.891338,-4.415999 1.891338,-1.825445 4.585847,-1.821287 2.694507,0.0042 4.585844,1.821287 1.891339,1.817131 1.891339,4.415999 z m 17.881345,6.690531 q 0,3.023005 -2.228151,5.14784 -2.228151,2.124836 -5.328563,2.128994 -3.139275,0 -5.345836,-2.128994 -2.206561,-2.128994 -2.210879,-5.14784 0,-2.989739 2.210879,-5.131209 2.210879,-2.141469 5.345836,-2.145626 3.10473,0 5.328563,2.145626 2.223833,2.145627 2.228151,5.131209 z"
     inkscape:connector-curvature="0"
     style="fill:#93a9c8" />
</svg>
