<?xml version="1.0" encoding="UTF-8" standalone="no"?>
<!-- Created with Inkscape (http://www.inkscape.org/) -->

<svg
   xmlns:dc="http://purl.org/dc/elements/1.1/"
   xmlns:cc="http://creativecommons.org/ns#"
   xmlns:rdf="http://www.w3.org/1999/02/22-rdf-syntax-ns#"
   xmlns:svg="http://www.w3.org/2000/svg"
   xmlns="http://www.w3.org/2000/svg"
   version="1.2"
   width="100%"
   height="100%"
   viewBox="0 0 289.27057 289.3975"
   id="Layer_1"
   xml:space="preserve"><metadata
     id="metadata3125"><rdf:RDF><cc:Work
         rdf:about=""><dc:format>image/svg+xml</dc:format><dc:type
           rdf:resource="http://purl.org/dc/dcmitype/StillImage" /><dc:title></dc:title></cc:Work></rdf:RDF></metadata><defs
     id="defs3123" /><path
     d="m 295.82706,198.92778 c -1.23628,2.3389 6.286,14.73969 4.84504,16.95836 -1.44096,2.21867 -15.82906,0.38931 -17.4631,2.46989 -1.63404,2.08057 3.55311,15.62522 1.73915,17.55095 -1.81396,1.92572 -15.64421,-2.44333 -17.62348,-0.68797 -1.97928,1.75537 0.70602,16.00856 -1.42264,17.57944 -2.12867,1.57088 -14.95653,-5.19745 -17.21743,-3.8237 -2.26091,1.37374 -2.16376,15.87736 -4.53871,17.0429 -2.37494,1.16555 -13.78812,-7.78451 -16.25799,-6.83654 -2.46986,0.94797 -4.964,15.23585 -7.50889,15.9586 -2.5449,0.72276 -12.17657,-10.12137 -14.776,-9.62965 -2.59944,0.49172 -7.6047,14.10464 -10.23775,14.36137 -2.63305,0.25673 -10.17364,-12.13293 -12.8191,-12.11325 -2.64547,0.0197 -10.00097,12.5201 -12.63754,12.30256 -2.63658,-0.21755 -7.84373,-13.75452 -10.4502,-14.20753 -2.60646,-0.45301 -12.07579,10.53316 -14.63115,9.84833 -2.55536,-0.68483 -5.26172,-14.93403 -7.7454,-15.84516 -2.48369,-0.91113 -13.76251,8.20767 -16.15452,7.07757 -2.39202,-1.1301 -2.51058,-15.63355 -4.79167,-16.97352 -2.28108,-1.33997 -15.00686,5.61838 -17.158652,4.07933 -2.151788,-1.53905 0.321244,-15.83059 -1.683922,-17.55633 -2.005166,-1.72574 -15.768903,2.84851 -17.611303,0.94998 -1.8424,-1.89853 3.142744,-15.51883 1.477944,-17.57487 -1.6648,-2.05604 -16.024112,-0.0129 -17.497908,-2.20991 -1.473795,-2.19699 5.863233,-14.70828 4.592308,-17.02854 -1.270926,-2.32026 -15.764293,-2.87392 -16.822115,-5.29876 -1.057823,-2.42485 8.395272,-13.42499 7.55907,-15.9349 -0.836203,-2.5099 -14.997796,-5.64256 -15.605646,-8.21731 -0.60785,-2.57476 10.657482,-11.71022 10.282878,-14.3291 -0.374604,-2.61888 -13.749257,-8.22984 -13.887598,-10.87175 -0.138341,-2.64192 12.577151,-9.61906 12.676186,-12.26274 0.09904,-2.64368 -12.058807,-10.55261 -11.723192,-13.17677 0.335614,-2.62416 14.09258,-7.21874 14.662071,-9.80225 0.569492,-2.58351 -9.980776,-12.536204 -9.181993,-15.058267 0.798783,-2.522064 15.155062,-4.586403 16.176705,-7.026711 1.021644,-2.440308 -7.581955,-14.116879 -6.345676,-16.455784 1.236278,-2.338905 15.730447,-1.806656 17.171406,-4.025326 1.440959,-2.21867 -4.939444,-15.243826 -3.305405,-17.324398 1.634038,-2.080572 15.800243,1.031158 17.614205,-0.894564 1.813961,-1.925722 -2.138175,-15.880823 -0.158896,-17.636191 1.979279,-1.755367 15.362203,3.835829 17.490863,2.26495 2.12867,-1.57088 0.73182,-16.007398 2.99273,-17.381142 2.2609,-1.373743 14.43041,6.517214 16.80536,5.351666 2.37494,-1.165548 3.57828,-15.6194809 6.04815,-16.5674481 2.46986,-0.9479672 13.03482,8.9891291 15.57971,8.2663751 2.54489,-0.722754 6.30975,-14.72954156 8.90919,-15.22126362 2.59943,-0.49172208 11.22027,11.17212762 13.85332,10.91539652 2.63305,-0.2567309 8.83841,-13.3661826 11.48387,-13.3858552 2.64546,-0.019673 9.0451,12.9960439 11.68168,13.213588 2.63657,0.217544 11.08299,-11.5732235 13.68946,-11.1202144 2.60646,0.45300921 6.5792,14.4022567 9.13457,15.0870837 2.55536,0.684827 12.97136,-9.4082912 15.45505,-8.4971603 2.48369,0.9111308 3.90186,15.3455693 6.29387,16.4756683 2.39202,1.130099 14.44283,-6.940969 16.72391,-5.601001 2.28109,1.339968 1.0991,15.795663 3.25088,17.334712 2.15179,1.539048 15.45009,-4.250559 17.45525,-2.524821 2.00517,1.725737 -1.73899,15.738071 0.10341,17.636603 1.8424,1.898532 15.96076,-1.423532 17.62556,0.632509 1.6648,2.05604 -4.52119,15.174644 -3.04739,17.371639 1.47379,2.196995 15.95844,1.449249 17.22937,3.76951 1.27092,2.32026 -7.15807,14.123492 -6.10025,16.548336 1.05782,2.424845 15.44321,4.27545 16.27942,6.785356 0.8362,2.509905 -9.56489,12.618394 -8.95704,15.193154 0.60785,2.57476 14.43163,6.96424 14.80623,9.58312 0.37461,2.61888 -11.66427,10.70774 -11.52593,13.34965 0.13834,2.64192 12.95619,9.42919 12.85715,12.07287 -0.099,2.64368 -13.38876,8.45292 -13.72437,11.07708 -0.33562,2.62417 11.06433,11.59107 10.49484,14.17459 -0.56949,2.58351 -14.68293,5.92642 -15.48172,8.44849 -0.79878,2.52206 8.81686,13.38041 7.79522,15.82071 -1.02164,2.44031 -15.50517,3.20945 -16.74145,5.54836 z"
     transform="matrix(0.98768834,0.15643447,-0.15643447,0.98768834,-13.233681,-20.456675)"
     id="path3133"
     style="fill:#ff6600;fill-opacity:1;stroke:#ffffff;stroke-width:2;stroke-miterlimit:4;stroke-opacity:1;stroke-dasharray:none" /><g
     transform="matrix(2.3650563,0.37458813,-0.3333991,2.104999,-315.90104,-285.7368)"
     id="flowRoot3903"
     style="font-size:40px;font-style:normal;font-weight:normal;line-height:125%;letter-spacing:0px;word-spacing:0px;fill:#ffffff;fill-opacity:1;stroke:none;font-family:Sans"><path
       d="m 185.10243,156.13576 2.80864,0.89055 c -0.4306,1.5658 -1.14826,2.73035 -2.15297,3.49368 -0.9982,0.7568 -2.26715,1.1352 -3.80684,1.1352 -1.90505,0 -3.47084,-0.64915 -4.69738,-1.94746 -1.22654,-1.30482 -1.83981,-3.08591 -1.83981,-5.34327 0,-2.38783 0.61653,-4.24069 1.8496,-5.55858 1.23306,-1.32438 2.8543,-1.98658 4.86375,-1.9866 1.75498,2e-5 3.18051,0.51868 4.27657,1.55601 0.65241,0.61328 1.14172,1.49404 1.46794,2.64228 l -2.86736,0.68503 c -0.16964,-0.74374 -0.52521,-1.33091 -1.0667,-1.76151 -0.53499,-0.43059 -1.18741,-0.64588 -1.95725,-0.6459 -1.06344,2e-5 -1.92789,0.38168 -2.59334,1.14499 -0.65895,0.76334 -0.98842,1.99966 -0.98841,3.70898 -10e-6,1.81372 0.3262,3.1055 0.97862,3.87534 0.65241,0.76985 1.50055,1.15478 2.54442,1.15478 0.76984,0 1.43204,-0.24466 1.9866,-0.73397 0.55454,-0.48931 0.95251,-1.25916 1.19392,-2.30955"
       id="path3971"
       style="font-size:20.0421772px;font-variant:normal;font-weight:bold;font-stretch:normal;text-align:center;line-height:125%;writing-mode:lr-tb;text-anchor:middle;fill:#ffffff;font-family:Arial;-inkscape-font-specification:Arial Bold" /><path
       d="m 190.38699,161.41053 0,-14.34659 2.74992,0 0,14.34659 -2.74992,0"
       id="path3973"
       style="font-size:20.0421772px;font-variant:normal;font-weight:bold;font-stretch:normal;text-align:center;line-height:125%;writing-mode:lr-tb;text-anchor:middle;fill:#ffffff;font-family:Arial;-inkscape-font-specification:Arial Bold" /><path
       d="m 195.94556,149.60835 0,-2.54441 2.74993,0 0,2.54441 -2.74993,0 m 0,11.80218 0,-10.39296 2.74993,0 0,10.39296 -2.74993,0"
       id="path3975"
       style="font-size:20.0421772px;font-variant:normal;font-weight:bold;font-stretch:normal;text-align:center;line-height:125%;writing-mode:lr-tb;text-anchor:middle;fill:#ffffff;font-family:Arial;-inkscape-font-specification:Arial Bold" /><path
       d="m 210.56617,154.09044 -2.71078,0.48931 c -0.0914,-0.54149 -0.30012,-0.94925 -0.62632,-1.22327 -0.31969,-0.27401 -0.73724,-0.41102 -1.25264,-0.41103 -0.68504,1e-5 -1.23306,0.23814 -1.64408,0.7144 -0.4045,0.46974 -0.60675,1.25917 -0.60675,2.36826 0,1.23307 0.20551,2.10404 0.61653,2.61292 0.41755,0.50889 0.97536,0.76333 1.67345,0.76333 0.52192,0 0.94925,-0.14679 1.28199,-0.44038 0.33273,-0.30011 0.5676,-0.81225 0.70461,-1.53644 l 2.701,0.45996 c -0.28055,1.23959 -0.81879,2.1758 -1.61473,2.80864 -0.79595,0.63284 -1.86265,0.94926 -3.20009,0.94926 -1.52013,0 -2.73362,-0.47952 -3.64048,-1.43857 -0.90033,-0.95905 -1.3505,-2.28671 -1.35049,-3.98299 -1e-5,-1.71585 0.45342,-3.05003 1.36028,-4.00257 0.90685,-0.95904 2.13339,-1.43856 3.67962,-1.43857 1.26568,1e-5 2.27039,0.27402 3.01415,0.82204 0.75027,0.54152 1.28851,1.37008 1.61473,2.4857"
       id="path3977"
       style="font-size:20.0421772px;font-variant:normal;font-weight:bold;font-stretch:normal;text-align:center;line-height:125%;writing-mode:lr-tb;text-anchor:middle;fill:#ffffff;font-family:Arial;-inkscape-font-specification:Arial Bold" /><path
       d="m 212.56256,161.41053 0,-14.34659 2.74993,0 0,7.61368 3.21966,-3.66005 3.38604,0 -3.5524,3.79705 3.80684,6.59591 -2.96523,0 -2.61292,-4.66802 -1.28199,1.34071 0,3.32731 -2.74993,0"
       id="path3979"
       style="font-size:20.0421772px;font-variant:normal;font-weight:bold;font-stretch:normal;text-align:center;line-height:125%;writing-mode:lr-tb;text-anchor:middle;fill:#ffffff;font-family:Arial;-inkscape-font-specification:Arial Bold" /><path
       d="m 231.43039,154.1883 -2.49549,-0.45016 c 0.28054,-1.00471 0.76333,-1.74846 1.44836,-2.23126 0.68504,-0.48278 1.7028,-0.72417 3.0533,-0.72418 1.22654,1e-5 2.13992,0.1468 2.74014,0.44038 0.60022,0.28707 1.02102,0.65569 1.26243,1.10584 0.2479,0.44365 0.37186,1.26243 0.37187,2.45634 l -0.0294,3.20988 c -1e-5,0.91339 0.0424,1.58864 0.12723,2.02575 0.0913,0.4306 0.25769,0.89381 0.49909,1.38964 l -2.72057,0 c -0.0718,-0.18267 -0.15985,-0.45342 -0.26422,-0.81225 -0.0457,-0.1631 -0.0783,-0.27075 -0.0979,-0.32295 -0.46974,0.45669 -0.9721,0.79921 -1.50707,1.02756 -0.53499,0.22834 -1.10585,0.34251 -1.71259,0.34251 -1.06997,0 -1.91484,-0.29032 -2.53463,-0.87097 -0.61327,-0.58065 -0.91991,-1.31461 -0.91991,-2.2019 0,-0.58717 0.14027,-1.1091 0.42081,-1.56579 0.28054,-0.46321 0.67198,-0.81552 1.17435,-1.05692 0.50888,-0.24791 1.23958,-0.4632 2.19211,-0.64589 1.28525,-0.24138 2.1758,-0.46647 2.67164,-0.67525 l 0,-0.27401 c -1e-5,-0.52845 -0.13049,-0.90359 -0.39145,-1.12542 -0.26097,-0.22833 -0.75355,-0.3425 -1.47772,-0.34251 -0.48932,1e-5 -0.87098,0.0979 -1.14499,0.29358 -0.27402,0.18921 -0.49584,0.52521 -0.66546,1.00798 m 3.67962,2.23126 c -0.35231,0.11744 -0.91013,0.25771 -1.67345,0.42081 -0.76333,0.16311 -1.26242,0.32295 -1.49729,0.47952 -0.35883,0.25445 -0.53824,0.5774 -0.53824,0.96884 0,0.38493 0.14353,0.71766 0.43059,0.99819 0.28706,0.28054 0.65241,0.42081 1.09606,0.42081 0.49583,0 0.96883,-0.1631 1.419,-0.48931 0.33273,-0.24791 0.55129,-0.55129 0.65568,-0.91012 0.0718,-0.23486 0.10764,-0.68177 0.10765,-1.34071 l 0,-0.54803"
       id="path3981"
       style="font-size:20.0421772px;font-variant:normal;font-weight:bold;font-stretch:normal;text-align:center;line-height:125%;writing-mode:lr-tb;text-anchor:middle;fill:#ffffff;font-family:Arial;-inkscape-font-specification:Arial Bold" /><path
       d="m 249.98506,161.41053 -2.74993,0 0,-5.30413 c -1e-5,-1.12214 -0.0587,-1.84632 -0.17615,-2.17254 -0.11744,-0.33272 -0.30991,-0.59042 -0.57739,-0.77311 -0.26097,-0.18267 -0.57739,-0.274 -0.94926,-0.27401 -0.47627,1e-5 -0.9036,0.13049 -1.282,0.39145 -0.3784,0.26097 -0.63937,0.60675 -0.78289,1.03734 -0.13702,0.4306 -0.20552,1.22654 -0.20551,2.38783 l 0,4.70717 -2.74993,0 0,-10.39296 2.5542,0 0,1.52665 c 0.90685,-1.17434 2.04858,-1.76151 3.42518,-1.76152 0.60674,1e-5 1.16129,0.11092 1.66366,0.33273 0.50235,0.21531 0.88075,0.49258 1.1352,0.83183 0.26095,0.33926 0.44037,0.72419 0.53824,1.15477 0.10437,0.43061 0.15657,1.04714 0.15658,1.8496 l 0,6.4589"
       id="path3983"
       style="font-size:20.0421772px;font-variant:normal;font-weight:bold;font-stretch:normal;text-align:center;line-height:125%;writing-mode:lr-tb;text-anchor:middle;fill:#ffffff;font-family:Arial;-inkscape-font-specification:Arial Bold" /><path
       d="m 262.3157,161.41053 -2.55421,0 0,-1.52665 c -0.42407,0.5937 -0.92643,1.03734 -1.50707,1.33093 -0.57413,0.28706 -1.15478,0.43059 -1.74195,0.43059 -1.19392,0 -2.21821,-0.47952 -3.07287,-1.43857 -0.84814,-0.96557 -1.27221,-2.30954 -1.27221,-4.03192 0,-1.76152 0.41428,-3.09896 1.24285,-4.01235 0.82856,-0.9199 1.87569,-1.37985 3.14137,-1.37986 1.1613,1e-5 2.16601,0.4828 3.01416,1.44836 l 0,-5.16712 2.74993,0 0,14.34659 m -7.33967,-5.42156 c 0,1.10911 0.15332,1.91158 0.45996,2.40741 0.44363,0.71766 1.06343,1.07648 1.85938,1.07648 0.63283,0 1.17107,-0.26748 1.61472,-0.80247 0.44364,-0.5415 0.66546,-1.34723 0.66547,-2.41719 -10e-6,-1.19392 -0.21531,-2.05184 -0.64589,-2.57378 -0.4306,-0.52845 -0.98189,-0.79267 -1.65387,-0.79268 -0.65242,1e-5 -1.20045,0.26097 -1.64409,0.78289 -0.43712,0.51542 -0.65568,1.28853 -0.65568,2.31934"
       id="path3985"
       style="font-size:20.0421772px;font-variant:normal;font-weight:bold;font-stretch:normal;text-align:center;line-height:125%;writing-mode:lr-tb;text-anchor:middle;fill:#ffffff;font-family:Arial;-inkscape-font-specification:Arial Bold" /><path
       d="m 172.15526,183.49803 2.75971,-0.42081 c 0.11743,0.53498 0.35557,0.94274 0.7144,1.22328 0.35882,0.27401 0.86118,0.41102 1.50708,0.41102 0.71112,0 1.2461,-0.13048 1.60493,-0.39145 0.24139,-0.18267 0.36209,-0.42733 0.3621,-0.73397 -1e-5,-0.20876 -0.0652,-0.38165 -0.19573,-0.51866 -0.13701,-0.13048 -0.44365,-0.25118 -0.9199,-0.36209 -2.21822,-0.48931 -3.62417,-0.93622 -4.21786,-1.34072 -0.82205,-0.56107 -1.23307,-1.3407 -1.23307,-2.3389 0,-0.90033 0.35557,-1.65713 1.0667,-2.27041 0.71113,-0.61326 1.81371,-0.91989 3.30774,-0.9199 1.42226,1e-5 2.47917,0.23162 3.17074,0.69482 0.69155,0.46322 1.16781,1.14826 1.42879,2.05511 l -2.59335,0.47952 c -0.11092,-0.40449 -0.32296,-0.71438 -0.63611,-0.92969 -0.30664,-0.21529 -0.74702,-0.32294 -1.32114,-0.32294 -0.72418,0 -1.24285,0.10113 -1.55601,0.30337 -0.20877,0.14354 -0.31316,0.32948 -0.31315,0.55781 -1e-5,0.19573 0.0913,0.3621 0.27401,0.4991 0.24791,0.18268 1.10258,0.44039 2.56399,0.77311 1.46792,0.33274 2.49221,0.7405 3.07287,1.22328 0.57412,0.48931 0.86118,1.17109 0.86119,2.04532 -1e-5,0.95253 -0.39798,1.77131 -1.19392,2.45634 -0.79595,0.68504 -1.97356,1.02755 -3.53282,1.02755 -1.41575,0 -2.5379,-0.28706 -3.36646,-0.86118 -0.82205,-0.57413 -1.36029,-1.35376 -1.61473,-2.33891"
       id="path3987"
       style="font-size:20.0421772px;font-variant:normal;font-weight:bold;font-stretch:normal;text-align:center;line-height:125%;writing-mode:lr-tb;text-anchor:middle;fill:#ffffff;font-family:Arial;-inkscape-font-specification:Arial Bold" /><path
       d="m 193.34242,179.14316 -2.71078,0.48931 c -0.0913,-0.54149 -0.30012,-0.94925 -0.62632,-1.22328 -0.31969,-0.274 -0.73723,-0.41101 -1.25263,-0.41102 -0.68504,1e-5 -1.23307,0.23814 -1.64409,0.7144 -0.4045,0.46974 -0.60675,1.25916 -0.60674,2.36826 -1e-5,1.23307 0.2055,2.10404 0.61653,2.61292 0.41754,0.50889 0.97535,0.76333 1.67344,0.76333 0.52193,0 0.94926,-0.14679 1.282,-0.44038 0.33272,-0.30011 0.56759,-0.81225 0.7046,-1.53644 l 2.701,0.45995 c -0.28055,1.23959 -0.81879,2.17581 -1.61472,2.80865 -0.79596,0.63284 -1.86266,0.94926 -3.2001,0.94926 -1.52013,0 -2.73362,-0.47952 -3.64047,-1.43857 -0.90034,-0.95905 -1.3505,-2.28671 -1.3505,-3.98299 0,-1.71585 0.45343,-3.05003 1.36028,-4.00257 0.90686,-0.95904 2.1334,-1.43856 3.67962,-1.43857 1.26568,1e-5 2.2704,0.27402 3.01416,0.82204 0.75027,0.54151 1.28851,1.37008 1.61472,2.4857"
       id="path3989"
       style="font-size:20.0421772px;font-variant:normal;font-weight:bold;font-stretch:normal;text-align:center;line-height:125%;writing-mode:lr-tb;text-anchor:middle;fill:#ffffff;font-family:Arial;-inkscape-font-specification:Arial Bold" /><path
       d="m 198.06917,186.46325 -2.74993,0 0,-10.39296 2.5542,0 0,1.47772 c 0.43712,-0.69808 0.82857,-1.15803 1.17435,-1.37986 0.3523,-0.22181 0.75027,-0.33272 1.19392,-0.33273 0.62631,1e-5 1.22979,0.1729 1.81045,0.51867 l -0.8514,2.39762 c -0.46322,-0.3001 -0.89382,-0.45016 -1.29178,-0.45016 -0.38493,0 -0.71114,0.10765 -0.97862,0.32294 -0.2675,0.20878 -0.47953,0.59044 -0.63611,1.14499 -0.15006,0.55456 -0.22509,1.71585 -0.22508,3.48389 l 0,3.20988"
       id="path3991"
       style="font-size:20.0421772px;font-variant:normal;font-weight:bold;font-stretch:normal;text-align:center;line-height:125%;writing-mode:lr-tb;text-anchor:middle;fill:#ffffff;font-family:Arial;-inkscape-font-specification:Arial Bold" /><path
       d="m 202.5904,181.11998 c 0,-0.91338 0.22508,-1.7974 0.67525,-2.65207 0.45017,-0.85465 1.08627,-1.50707 1.90831,-1.95724 0.82857,-0.45016 1.75173,-0.67524 2.7695,-0.67525 1.57232,1e-5 2.86083,0.51215 3.86556,1.53644 1.00471,1.01777 1.50707,2.30629 1.50708,3.86555 -1e-5,1.57233 -0.5089,2.87715 -1.52665,3.91449 -1.01125,1.03082 -2.28672,1.54622 -3.82641,1.54622 -0.95253,0 -1.86265,-0.21529 -2.73036,-0.64589 -0.86119,-0.43059 -1.51686,-1.06017 -1.96703,-1.88874 -0.45017,-0.83509 -0.67525,-1.84959 -0.67525,-3.04351 m 2.81843,0.14679 c 0,1.03082 0.24465,1.82024 0.73397,2.36827 0.48931,0.54803 1.09279,0.82204 1.81045,0.82204 0.71765,0 1.31787,-0.27401 1.80066,-0.82204 0.48931,-0.54803 0.73396,-1.34397 0.73397,-2.38784 -1e-5,-1.01776 -0.24466,-1.80066 -0.73397,-2.34869 -0.48279,-0.54802 -1.08301,-0.82204 -1.80066,-0.82205 -0.71766,1e-5 -1.32114,0.27403 -1.81045,0.82205 -0.48932,0.54803 -0.73397,1.33745 -0.73397,2.36826"
       id="path3993"
       style="font-size:20.0421772px;font-variant:normal;font-weight:bold;font-stretch:normal;text-align:center;line-height:125%;writing-mode:lr-tb;text-anchor:middle;fill:#ffffff;font-family:Arial;-inkscape-font-specification:Arial Bold" /><path
       d="m 215.47885,186.46325 0,-14.34659 2.74993,0 0,14.34659 -2.74993,0"
       id="path3995"
       style="font-size:20.0421772px;font-variant:normal;font-weight:bold;font-stretch:normal;text-align:center;line-height:125%;writing-mode:lr-tb;text-anchor:middle;fill:#ffffff;font-family:Arial;-inkscape-font-specification:Arial Bold" /><path
       d="m 221.03743,186.46325 0,-14.34659 2.74992,0 0,14.34659 -2.74992,0"
       id="path3997"
       style="font-size:20.0421772px;font-variant:normal;font-weight:bold;font-stretch:normal;text-align:center;line-height:125%;writing-mode:lr-tb;text-anchor:middle;fill:#ffffff;font-family:Arial;-inkscape-font-specification:Arial Bold" /><path
       d="m 231.94906,176.07029 2.53463,0 0,1.419 c 0.90685,-1.10257 1.9866,-1.65386 3.23924,-1.65387 0.66545,1e-5 1.24284,0.13702 1.73216,0.41102 0.4893,0.27402 0.89054,0.68831 1.20371,1.24285 0.45668,-0.55454 0.94925,-0.96883 1.47771,-1.24285 0.52845,-0.274 1.09279,-0.41101 1.69302,-0.41102 0.76331,1e-5 1.4092,0.15659 1.93767,0.46974 0.52844,0.30664 0.92315,0.76007 1.18413,1.36028 0.18919,0.44365 0.28379,1.16131 0.2838,2.15297 l 0,6.64484 -2.74992,0 0,-5.94023 c -2e-5,-1.03081 -0.0946,-1.69627 -0.2838,-1.99639 -0.25446,-0.39144 -0.64591,-0.58717 -1.17435,-0.58717 -0.38494,0 -0.74703,0.11744 -1.08627,0.3523 -0.33927,0.23488 -0.58392,0.58066 -0.73397,1.03734 -0.15006,0.45017 -0.22509,1.16457 -0.22508,2.14318 l 0,4.99097 -2.74993,0 0,-5.69558 c 0,-1.01123 -0.0489,-1.66365 -0.14679,-1.95724 -0.0979,-0.29358 -0.25119,-0.51214 -0.45995,-0.65568 -0.20226,-0.14352 -0.47953,-0.21529 -0.83183,-0.21529 -0.42408,0 -0.80574,0.11418 -1.14499,0.34251 -0.33926,0.22836 -0.58391,0.55783 -0.73397,0.98841 -0.14353,0.4306 -0.2153,1.145 -0.21529,2.14318 l 0,5.04969 -2.74993,0 0,-10.39296"
       id="path3999"
       style="font-size:20.0421772px;font-variant:normal;font-weight:bold;font-stretch:normal;text-align:center;line-height:125%;writing-mode:lr-tb;text-anchor:middle;fill:#ffffff;font-family:Arial;-inkscape-font-specification:Arial Bold" /><path
       d="m 255.98401,183.15551 2.74014,0.45995 c -0.35231,1.00472 -0.91012,1.77131 -1.67344,2.29977 -0.75681,0.52193 -1.70607,0.78289 -2.84779,0.78289 -1.80719,0 -3.14464,-0.59043 -4.01235,-1.7713 -0.68504,-0.946 -1.02755,-2.13992 -1.02755,-3.58176 0,-1.72237 0.45016,-3.0696 1.3505,-4.04171 0.90033,-0.97861 2.03879,-1.46792 3.41539,-1.46793 1.54621,1e-5 2.76623,0.51215 3.66004,1.53644 0.8938,1.01777 1.32113,2.5803 1.282,4.68759 l -6.8895,0 c 0.0196,0.81553 0.24139,1.45163 0.66546,1.90832 0.42407,0.45017 0.95252,0.67525 1.58537,0.67525 0.43059,0 0.79268,-0.11744 1.08627,-0.35231 0.29358,-0.23486 0.5154,-0.61326 0.66546,-1.1352 m 0.15658,-2.77929 c -0.0196,-0.79593 -0.22509,-1.39942 -0.61653,-1.81045 -0.39146,-0.41753 -0.86772,-0.62631 -1.42879,-0.62631 -0.60022,0 -1.09606,0.21856 -1.4875,0.65567 -0.39146,0.43713 -0.58392,1.03082 -0.57739,1.78109 l 4.11021,0"
       id="path4001"
       style="font-size:20.0421772px;font-variant:normal;font-weight:bold;font-stretch:normal;text-align:center;line-height:125%;writing-mode:lr-tb;text-anchor:middle;fill:#ffffff;font-family:Arial;-inkscape-font-specification:Arial Bold" /><path
       d="m 262.19827,182.76406 -0.7144,-7.28094 0,-3.36646 2.97501,0 0,3.36646 -0.7046,7.28094 -1.55601,0 m -0.59696,3.69919 0,-2.74992 2.74993,0 0,2.74992 -2.74993,0"
       id="path4003"
       style="font-size:20.0421772px;font-variant:normal;font-weight:bold;font-stretch:normal;text-align:center;line-height:125%;writing-mode:lr-tb;text-anchor:middle;fill:#ffffff;font-family:Arial;-inkscape-font-specification:Arial Bold" /></g><flowRoot
     transform="translate(-69.387485,-54.27431)"
     id="flowRoot3911"
     xml:space="preserve"
     style="font-size:40px;font-style:normal;font-weight:normal;line-height:125%;letter-spacing:0px;word-spacing:0px;fill:#000000;fill-opacity:1;stroke:none;font-family:Sans"><flowRegion
       id="flowRegion3913"><rect
         width="102.22578"
         height="40.352283"
         x="139.88791"
         y="141.23299"
         id="rect3915" /></flowRegion><flowPara
       id="flowPara3917"></flowPara></flowRoot></svg>