<?xml version="1.0" encoding="UTF-8" standalone="no"?>
<!-- Created with Inkscape (http://www.inkscape.org/) -->

<svg
   xmlns:dc="http://purl.org/dc/elements/1.1/"
   xmlns:cc="http://creativecommons.org/ns#"
   xmlns:rdf="http://www.w3.org/1999/02/22-rdf-syntax-ns#"
   xmlns:svg="http://www.w3.org/2000/svg"
   xmlns="http://www.w3.org/2000/svg"
   version="1.1"
   width="100%"
   height="100%"
   viewBox="0 0 780.9 93.9"
   id="Layer_1"
   xml:space="preserve"><metadata
     id="metadata3035"><rdf:RDF><cc:Work
         rdf:about=""><dc:format>image/svg+xml</dc:format><dc:type
           rdf:resource="http://purl.org/dc/dcmitype/StillImage" /><dc:title></dc:title></cc:Work></rdf:RDF></metadata><defs
     id="defs3033" /><g
     transform="translate(-100.4,-202.2)"
     id="g3005"
     style="fill:#ffffff"><path
       d="m 245.6,239.9 c 15.9,3.5 23.3,9.3 23.3,20.3 0,12.4 -10.2,20.3 -24.4,20.3 -11.3,0 -20.6,-3.8 -29.2,-11.4 l 5,-5.9 c 7.5,6.7 14.6,10.1 24.5,10.1 9.6,0 15.9,-5 15.9,-12.3 0,-6.7 -3.6,-10.5 -18.6,-13.7 -16.5,-3.6 -24,-8.9 -24,-20.7 0,-11.4 9.9,-19.6 23.5,-19.6 10.4,0 17.9,3 25.1,8.8 L 262,222 c -6.6,-5.4 -13.3,-7.8 -20.6,-7.8 -9.3,0 -15.2,5.1 -15.2,11.7 0,6.8 3.7,10.6 19.4,14 z"
       id="path3007"
       style="fill:#ffffff" /><path
       d="m 310.7,280.8 c -15.8,0 -27.4,-12.5 -27.4,-27.5 0,-15 11.7,-27.7 27.6,-27.7 15.8,0 27.5,12.5 27.5,27.5 0,15 -11.7,27.7 -27.7,27.7 z m 0,-48.3 c -11.4,0 -19.3,9.1 -19.3,20.5 0,11.4 8.4,20.6 19.5,20.6 11.4,0 19.4,-9.1 19.4,-20.4 0.1,-11.5 -8.4,-20.7 -19.6,-20.7 z"
       id="path3009"
       style="fill:#ffffff" /><path
       d="m 392.7,226.7 h 7.8 v 52.8 h -7.8 v -9.2 c -3.6,5.7 -9,10.3 -18.1,10.3 -12.8,0 -20.2,-8.6 -20.2,-21.2 v -32.8 h 7.9 v 30.9 c 0,9.8 5.3,15.9 14.6,15.9 9,0 15.8,-6.6 15.8,-16.6 v -30.1 z"
       id="path3011"
       style="fill:#ffffff" /><path
       d="m 428.6,279.6 h -7.9 v -52.8 h 7.9 v 13.8 c 3.9,-8.8 11.5,-15.1 21.6,-14.7 v 8.5 h -0.6 c -11.5,0 -21,8.3 -21,24.2 v 21 z"
       id="path3013"
       style="fill:#ffffff" /><path
       d="m 488.5,280.8 c -15.4,0 -27.1,-12.6 -27.1,-27.5 0,-15 11.7,-27.7 27.1,-27.7 10,0 16.2,4.2 21.2,9.4 l -5.2,5.5 c -4.2,-4.4 -8.9,-8 -16,-8 -10.7,0 -18.9,9.1 -18.9,20.5 0,11.5 8.4,20.6 19.4,20.6 6.7,0 12,-3.4 16.1,-7.9 l 5,4.7 c -5.4,6.1 -11.7,10.4 -21.6,10.4 z"
       id="path3015"
       style="fill:#ffffff" /><path
       d="m 548.9,273.9 c 7.3,0 12.4,-3 16.7,-7.5 l 4.9,4.4 c -5.3,5.9 -11.8,9.9 -21.8,9.9 -14.5,0 -26.4,-11.1 -26.4,-27.6 0,-15.3 10.7,-27.6 25.3,-27.6 15.6,0 24.6,12.5 24.6,28 0,0.7 0,1.5 -0.1,2.5 h -41.9 c 1.2,11.5 9.4,17.9 18.7,17.9 z m 15.4,-23.7 c -0.8,-9.6 -6.3,-18 -16.9,-18 -9.2,0 -16.1,7.7 -17.2,18 h 34.1 z"
       id="path3017"
       style="fill:#ffffff" /><path
       d="m 612,296.1 c -8.8,0 -17,-2.5 -24,-7.4 l 3.6,-6.1 c 6,4.4 12.8,6.7 20.3,6.7 11.7,0 19.2,-6.4 19.2,-18.8 v -6.2 c -4.6,6.1 -11,11.1 -20.7,11.1 -12.7,0 -24.8,-9.4 -24.8,-24.8 0,-15.5 12.3,-25 24.8,-25 9.9,0 16.4,4.9 20.6,10.6 v -9.5 h 7.9 v 43.6 c 0,17.1 -10.6,25.8 -26.9,25.8 z m -0.1,-63.6 c -10,0 -18.3,6.8 -18.3,17.9 0,10.8 8.5,18.1 18.3,18.1 10,0 19.4,-7.2 19.4,-18 0.1,-10.9 -9.3,-18 -19.4,-18 z"
       id="path3019"
       style="fill:#ffffff" /><path
       d="M 666.9,279.6 H 659 v -52.8 h 7.9 v 13.8 c 3.9,-8.8 11.5,-15.1 21.6,-14.7 v 8.5 h -0.6 c -11.5,0 -21,8.3 -21,24.2 v 21 z"
       id="path3021"
       style="fill:#ffffff" /><path
       d="m 706.1,236.8 -2.4,-6.4 c 5.8,-2.7 11.5,-4.4 19.2,-4.4 14.4,0 22.5,7.4 22.5,21.3 v 32.3 h -7.6 v -8 c -3.7,4.8 -9.8,9.1 -19.1,9.1 -9.8,0 -19.7,-5.5 -19.7,-16.6 0,-11.2 9.2,-17.2 22.6,-17.2 6.7,0 11.5,0.9 16.2,2.2 v -1.8 c 0,-9.5 -5.8,-14.4 -15.7,-14.4 -6.2,0.1 -11.1,1.7 -16,3.9 z m 0.9,27 c 0,6.7 6.1,10.6 13.3,10.6 9.7,0 17.7,-5.9 17.7,-14.3 V 255 c -3.9,-1.1 -9.1,-2.2 -15.5,-2.2 -10,0 -15.5,4.3 -15.5,11 z"
       id="path3023"
       style="fill:#ffffff" /><path
       d="m 792.8,280.7 c -9.8,0 -16.1,-5.3 -20.2,-11.2 V 296 h -7.9 v -69.2 h 7.9 v 10.6 c 4.3,-6.3 10.5,-11.8 20.2,-11.8 12.7,0 25.2,10 25.2,27.5 0.1,17.4 -12.4,27.6 -25.2,27.6 z m -1.4,-48.1 c -9.8,0 -19.1,8.2 -19.1,20.4 0,12.4 9.3,20.5 19.1,20.5 10.2,0 18.6,-7.6 18.6,-20.4 0,-12.5 -8.6,-20.5 -18.6,-20.5 z"
       id="path3025"
       style="fill:#ffffff" /><path
       d="m 843,279.6 h -7.9 V 205 h 7.9 v 31 c 3.5,-5.7 9,-10.3 18.1,-10.3 12.8,0 20.2,8.6 20.2,21.2 v 32.8 h -7.9 v -30.9 c 0,-9.8 -5.3,-15.9 -14.6,-15.9 -9.1,0 -15.8,6.6 -15.8,16.6 v 30.1 z"
       id="path3027"
       style="fill:#ffffff" /></g><polygon
     points="109,276.1 135.8,260.7 135.8,291.6 153,291.6 153,260.7 179.8,276.1 188.4,261.2 161.6,245.8 188.4,230.2 179.8,215.4 153,230.8 153,202.2 135.8,202.2 135.8,230.8 109,215.4 100.4,230.2 127.2,245.8 100.4,261.2 "
     transform="translate(-100.4,-202.2)"
     id="polygon3029"
     style="fill:#ffffff" /></svg>