<?xml version="1.0" encoding="utf-8"?>
<!-- Generator: Adobe Illustrator 19.1.0, SVG Export Plug-In . SVG Version: 6.00 Build 0)  -->
<svg version="1.1" id="Layer_1" xmlns="http://www.w3.org/2000/svg" xmlns:xlink="http://www.w3.org/1999/xlink" x="0px" y="0px"
	 viewBox="0 0 86 86" enable-background="new 0 0 86 86" xml:space="preserve">
<g>
	<g>
		<path fill="#FFFFFF" d="M31.813,22.765l11.843,43.359c0.796,2.914,3.799,4.63,6.707,3.832c2.908-0.798,4.62-3.807,3.824-6.721
			L42.343,19.876c-0.796-2.914-3.799-4.63-6.707-3.832C32.729,16.841,31.017,19.851,31.813,22.765z"/>
	</g>
	<g>
		<path fill="#FFFFFF" d="M53.743,22.601L24.086,56.141c-2,2.261-1.791,5.719,0.465,7.723c2.256,2.004,5.706,1.795,7.706-0.466
			l29.657-33.539c2-2.261,1.791-5.719-0.465-7.723C59.192,20.131,55.742,20.34,53.743,22.601z"/>
	</g>
	<g>
		<path fill="#FFFFFF" d="M20.14,41.187l42.293,14.014c2.862,0.948,5.95-0.608,6.897-3.477c0.946-2.869-0.607-5.963-3.469-6.912
			L23.567,30.798c-2.862-0.948-5.95,0.608-6.897,3.477C15.724,37.144,17.278,40.239,20.14,41.187z"/>
	</g>
</g>
</svg>
