<?xml version="1.0" encoding="utf-8"?>
<!-- Generator: Adobe Illustrator 19.1.0, SVG Export Plug-In . SVG Version: 6.00 Build 0)  -->
<svg version="1.1" id="Layer_1" xmlns="http://www.w3.org/2000/svg" xmlns:xlink="http://www.w3.org/1999/xlink" x="0px" y="0px"
	 viewBox="0 0 452.965 95.441" enable-background="new 0 0 452.965 95.441" xml:space="preserve">
<g>
	<g>
		<g>
			<path fill="#282828" d="M103.34,52.172c0.078,1.142,0.55,2.165,1.416,3.069c0.865,0.906,2.164,1.357,3.896,1.357
				c1.299,0,2.263-0.285,2.893-0.856c0.629-0.57,0.944-1.249,0.944-2.036c0-0.669-0.236-1.249-0.708-1.741
				c-0.473-0.492-1.279-0.856-2.42-1.092l-3.837-0.885c-2.833-0.629-4.899-1.721-6.198-3.276c-1.298-1.554-1.947-3.354-1.947-5.401
				c0-1.299,0.274-2.528,0.826-3.689c0.551-1.161,1.308-2.164,2.272-3.011c0.964-0.846,2.104-1.524,3.424-2.036
				c1.317-0.511,2.764-0.768,4.338-0.768c2.046,0,3.778,0.286,5.194,0.856c1.417,0.571,2.567,1.29,3.453,2.155
				c0.886,0.866,1.544,1.781,1.978,2.745c0.433,0.964,0.688,1.84,0.768,2.626l-6.552,1.476c-0.08-0.433-0.207-0.875-0.384-1.328
				c-0.178-0.452-0.463-0.875-0.856-1.269c-0.394-0.393-0.876-0.708-1.446-0.944c-0.57-0.236-1.269-0.354-2.095-0.354
				c-1.024,0-1.899,0.276-2.627,0.826c-0.729,0.552-1.092,1.24-1.092,2.066c0,0.708,0.245,1.279,0.737,1.712
				c0.492,0.434,1.131,0.729,1.919,0.885l4.132,0.885c2.872,0.59,5.026,1.692,6.463,3.306c1.437,1.614,2.154,3.482,2.154,5.607
				c0,1.181-0.227,2.342-0.679,3.482c-0.453,1.142-1.15,2.165-2.096,3.069c-0.944,0.906-2.124,1.633-3.541,2.184
				s-3.069,0.826-4.958,0.826c-2.204,0-4.054-0.315-5.549-0.944c-1.496-0.629-2.715-1.396-3.659-2.302
				c-0.944-0.905-1.644-1.879-2.096-2.922c-0.453-1.042-0.719-1.978-0.797-2.804L103.34,52.172z"/>
			<path fill="#282828" d="M138.046,31.808c2.164,0,4.181,0.384,6.051,1.151c1.868,0.767,3.482,1.83,4.84,3.187
				c1.357,1.358,2.42,2.981,3.188,4.87c0.768,1.889,1.151,3.955,1.151,6.198c0,2.243-0.384,4.3-1.151,6.168
				c-0.768,1.869-1.83,3.493-3.188,4.87c-1.357,1.378-2.972,2.45-4.84,3.217c-1.87,0.768-3.887,1.151-6.051,1.151
				s-4.182-0.383-6.05-1.151c-1.869-0.767-3.482-1.839-4.84-3.217c-1.357-1.377-2.42-3-3.188-4.87
				c-0.768-1.869-1.151-3.925-1.151-6.168c0-2.243,0.384-4.309,1.151-6.198c0.768-1.889,1.83-3.512,3.188-4.87
				c1.357-1.357,2.971-2.42,4.84-3.187C133.864,32.192,135.882,31.808,138.046,31.808z M138.046,55.477
				c0.945,0,1.869-0.177,2.774-0.531c0.905-0.354,1.691-0.875,2.361-1.564c0.669-0.688,1.21-1.544,1.623-2.568
				c0.413-1.022,0.62-2.223,0.62-3.601c0-1.377-0.207-2.577-0.62-3.601c-0.413-1.022-0.954-1.878-1.623-2.567
				c-0.67-0.688-1.456-1.21-2.361-1.564c-0.905-0.354-1.829-0.531-2.774-0.531c-0.944,0-1.869,0.177-2.773,0.531
				c-0.906,0.354-1.692,0.876-2.361,1.564c-0.67,0.689-1.21,1.545-1.623,2.567c-0.413,1.024-0.62,2.224-0.62,3.601
				c0,1.378,0.207,2.578,0.62,3.601c0.413,1.024,0.953,1.88,1.623,2.568c0.669,0.689,1.455,1.21,2.361,1.564
				C136.177,55.301,137.102,55.477,138.046,55.477z"/>
			<path fill="#282828" d="M177.182,61.734c-0.08-0.314-0.139-0.768-0.178-1.357c-0.039-0.59-0.059-1.181-0.059-1.771
				c-0.788,1.378-1.938,2.371-3.453,2.981c-1.516,0.609-3.04,0.915-4.574,0.915c-1.771,0-3.335-0.306-4.692-0.915
				c-1.358-0.61-2.509-1.426-3.453-2.45c-0.944-1.023-1.663-2.233-2.155-3.63c-0.492-1.396-0.737-2.882-0.737-4.457V32.694h7.851
				v16.763c0,1.653,0.422,3.04,1.269,4.161c0.846,1.122,2.193,1.683,4.044,1.683c1.771,0,3.128-0.531,4.072-1.594
				s1.417-2.439,1.417-4.132V32.694h7.851v23.787c0,1.142,0.029,2.175,0.088,3.099c0.06,0.925,0.128,1.644,0.207,2.154H177.182z"/>
			<path fill="#282828" d="M209.291,40.485c-0.788-0.157-1.574-0.236-2.361-0.236c-1.023,0-1.987,0.138-2.892,0.413
				c-0.906,0.276-1.692,0.729-2.361,1.357c-0.67,0.63-1.21,1.467-1.623,2.509c-0.413,1.043-0.62,2.352-0.62,3.925v13.281h-7.851
				V32.694h7.614v4.309c0.433-0.944,0.993-1.721,1.683-2.332c0.688-0.609,1.416-1.071,2.184-1.387
				c0.768-0.315,1.535-0.531,2.302-0.649c0.768-0.118,1.466-0.177,2.096-0.177c0.314,0,0.62,0.01,0.915,0.03
				c0.295,0.02,0.6,0.05,0.915,0.088V40.485z"/>
			<path fill="#282828" d="M226.407,39.068c-1.023,0-1.977,0.177-2.862,0.531c-0.886,0.354-1.663,0.876-2.332,1.564
				c-0.669,0.689-1.2,1.544-1.593,2.567c-0.395,1.024-0.591,2.184-0.591,3.482c0,1.299,0.196,2.46,0.591,3.483
				c0.393,1.023,0.934,1.889,1.623,2.597c0.688,0.708,1.476,1.24,2.36,1.594c0.886,0.354,1.84,0.531,2.863,0.531
				c0.983,0,1.859-0.147,2.627-0.442c0.767-0.295,1.426-0.679,1.977-1.151c0.551-0.472,0.994-1.003,1.328-1.593
				c0.334-0.59,0.58-1.161,0.738-1.712l6.906,2.302c-0.315,1.22-0.837,2.411-1.564,3.571c-0.729,1.161-1.663,2.204-2.804,3.128
				c-1.142,0.925-2.479,1.673-4.014,2.243c-1.535,0.57-3.267,0.856-5.194,0.856c-2.125,0-4.123-0.383-5.991-1.151
				c-1.869-0.767-3.493-1.839-4.87-3.217c-1.377-1.377-2.459-3-3.246-4.87c-0.787-1.869-1.181-3.925-1.181-6.168
				c0-2.243,0.384-4.309,1.151-6.198c0.768-1.889,1.83-3.512,3.188-4.87c1.357-1.357,2.951-2.42,4.781-3.187
				c1.829-0.768,3.807-1.151,5.932-1.151c1.968,0,3.728,0.286,5.283,0.856c1.554,0.571,2.901,1.309,4.043,2.213
				c1.141,0.906,2.065,1.948,2.774,3.128c0.708,1.181,1.22,2.381,1.534,3.601l-7.023,2.361c-0.354-1.219-1.033-2.341-2.037-3.365
				C229.802,39.58,228.335,39.068,226.407,39.068z"/>
			<path fill="#282828" d="M270.382,53.411c-0.354,1.26-0.914,2.45-1.682,3.571s-1.702,2.095-2.804,2.922
				c-1.103,0.826-2.391,1.485-3.866,1.977s-3.099,0.738-4.87,0.738c-2.007,0-3.916-0.345-5.726-1.033s-3.403-1.702-4.78-3.04
				c-1.378-1.337-2.47-2.971-3.276-4.899c-0.807-1.928-1.21-4.112-1.21-6.552c0-2.322,0.393-4.427,1.181-6.316
				c0.786-1.889,1.839-3.492,3.158-4.811c1.317-1.318,2.842-2.341,4.574-3.069c1.731-0.728,3.521-1.092,5.371-1.092
				c4.524,0,8.047,1.338,10.565,4.014c2.519,2.676,3.778,6.355,3.778,11.038c0,0.552-0.021,1.073-0.06,1.564
				c-0.039,0.493-0.059,0.778-0.059,0.856H249.9c0.039,0.944,0.266,1.821,0.679,2.627c0.413,0.807,0.944,1.505,1.594,2.095
				s1.406,1.053,2.272,1.387c0.865,0.335,1.79,0.501,2.774,0.501c1.849,0,3.295-0.413,4.338-1.239
				c1.043-0.827,1.801-1.889,2.272-3.188L270.382,53.411z M263.064,43.908c-0.04-0.708-0.188-1.407-0.443-2.096
				c-0.256-0.688-0.649-1.298-1.181-1.83s-1.2-0.964-2.007-1.298c-0.807-0.334-1.761-0.502-2.862-0.502
				c-1.023,0-1.929,0.177-2.715,0.531c-0.788,0.354-1.457,0.807-2.007,1.357c-0.552,0.552-0.975,1.161-1.27,1.83
				c-0.295,0.669-0.463,1.338-0.502,2.007H263.064z"/>
			<path fill="#282828" d="M280.829,61.439c0.274,1.613,1.004,2.931,2.184,3.955c1.181,1.023,2.716,1.535,4.604,1.535
				c2.479,0,4.387-0.64,5.726-1.918c1.337-1.279,2.007-3.335,2.007-6.168v-2.125c-0.591,0.944-1.555,1.8-2.893,2.567
				c-1.338,0.768-3.069,1.151-5.194,1.151c-1.929,0-3.719-0.354-5.371-1.062c-1.652-0.708-3.079-1.691-4.279-2.952
				c-1.201-1.259-2.146-2.745-2.833-4.456c-0.689-1.712-1.033-3.591-1.033-5.637c0-1.928,0.334-3.748,1.003-5.46
				c0.669-1.711,1.594-3.217,2.774-4.515c1.181-1.299,2.598-2.322,4.25-3.069c1.652-0.747,3.482-1.122,5.489-1.122
				c2.321,0,4.151,0.413,5.489,1.239c1.338,0.827,2.263,1.732,2.774,2.715v-3.423h7.556v25.912c0,2.007-0.286,3.925-0.856,5.755
				c-0.57,1.83-1.466,3.443-2.686,4.84c-1.22,1.396-2.794,2.518-4.722,3.364c-1.929,0.846-4.25,1.269-6.965,1.269
				c-2.007,0-3.828-0.286-5.46-0.855c-1.634-0.571-3.061-1.338-4.279-2.302c-1.221-0.965-2.204-2.086-2.951-3.364
				c-0.748-1.279-1.221-2.607-1.417-3.984L280.829,61.439z M288.62,53.707c2.007,0,3.649-0.669,4.929-2.007
				c1.278-1.337,1.919-3.128,1.919-5.372s-0.67-4.023-2.007-5.342c-1.339-1.318-2.951-1.978-4.841-1.978
				c-0.983,0-1.898,0.168-2.744,0.502c-0.847,0.335-1.585,0.826-2.214,1.476c-0.63,0.649-1.121,1.427-1.476,2.332
				c-0.354,0.906-0.531,1.909-0.531,3.01c0,2.283,0.649,4.083,1.948,5.401C284.902,53.048,286.574,53.707,288.62,53.707z"/>
			<path fill="#282828" d="M327.576,40.485c-0.787-0.157-1.574-0.236-2.361-0.236c-1.023,0-1.987,0.138-2.892,0.413
				c-0.906,0.276-1.692,0.729-2.361,1.357c-0.67,0.63-1.21,1.467-1.623,2.509c-0.413,1.043-0.62,2.352-0.62,3.925v13.281h-7.851
				V32.694h7.614v4.309c0.433-0.944,0.994-1.721,1.683-2.332c0.688-0.609,1.417-1.071,2.184-1.387
				c0.768-0.315,1.535-0.531,2.303-0.649c0.767-0.118,1.465-0.177,2.095-0.177c0.314,0,0.62,0.01,0.915,0.03
				c0.295,0.02,0.6,0.05,0.915,0.088V40.485z"/>
			<path fill="#282828" d="M330.349,53.824c0-1.298,0.227-2.449,0.679-3.453s1.072-1.879,1.859-2.627
				c0.787-0.747,1.702-1.337,2.745-1.771c1.042-0.433,2.174-0.747,3.394-0.944l7.143-1.062c0.826-0.118,1.396-0.364,1.712-0.738
				c0.314-0.374,0.472-0.816,0.472-1.328c0-1.023-0.404-1.908-1.21-2.656c-0.807-0.747-2.036-1.122-3.689-1.122
				c-1.731,0-3.06,0.472-3.984,1.417s-1.445,2.047-1.563,3.306l-6.965-1.476c0.117-1.141,0.472-2.282,1.062-3.424
				c0.59-1.141,1.396-2.164,2.42-3.069c1.022-0.905,2.281-1.643,3.777-2.213c1.495-0.57,3.227-0.856,5.194-0.856
				c2.281,0,4.229,0.306,5.844,0.915c1.612,0.611,2.922,1.417,3.925,2.42c1.004,1.003,1.731,2.175,2.184,3.512
				c0.452,1.338,0.68,2.735,0.68,4.191V57.13c0,0.788,0.038,1.623,0.117,2.509c0.079,0.885,0.157,1.584,0.236,2.095h-7.201
				c-0.079-0.393-0.147-0.934-0.206-1.623c-0.06-0.688-0.089-1.308-0.089-1.859c-0.748,1.142-1.82,2.145-3.217,3.01
				c-1.397,0.865-3.179,1.298-5.342,1.298c-1.535,0-2.922-0.246-4.161-0.738c-1.24-0.491-2.293-1.141-3.158-1.948
				c-0.866-0.806-1.525-1.731-1.978-2.774C330.575,56.058,330.349,54.967,330.349,53.824z M341.977,56.717
				c0.826,0,1.623-0.108,2.391-0.325c0.768-0.216,1.446-0.59,2.036-1.122c0.591-0.531,1.062-1.219,1.417-2.066
				c0.354-0.846,0.531-1.918,0.531-3.217v-1.299l-6.552,1.004c-1.023,0.157-1.88,0.522-2.567,1.092
				c-0.689,0.571-1.033,1.427-1.033,2.567c0,0.866,0.314,1.644,0.944,2.332C339.773,56.373,340.717,56.717,341.977,56.717z"/>
			<path fill="#282828" d="M362.753,72.949V32.694h7.614v3.542c0.669-1.141,1.771-2.125,3.306-2.951
				c1.535-0.827,3.403-1.24,5.607-1.24c2.125,0,4.014,0.384,5.667,1.151c1.652,0.768,3.059,1.83,4.22,3.188
				c1.16,1.357,2.037,2.951,2.627,4.781c0.59,1.83,0.886,3.827,0.886,5.991c0,2.205-0.325,4.241-0.975,6.109
				c-0.648,1.87-1.574,3.482-2.773,4.84c-1.201,1.357-2.647,2.42-4.339,3.187c-1.692,0.768-3.562,1.151-5.607,1.151
				c-2.007,0-3.729-0.345-5.165-1.033s-2.508-1.524-3.217-2.508v14.048H362.753z M384.947,47.214c0-2.597-0.699-4.604-2.096-6.021
				c-1.397-1.417-3.099-2.125-5.105-2.125c-1.024,0-1.969,0.188-2.833,0.561c-0.866,0.375-1.634,0.905-2.303,1.594
				c-0.669,0.689-1.19,1.535-1.563,2.538c-0.375,1.003-0.562,2.154-0.562,3.453c0,1.299,0.187,2.45,0.562,3.453
				c0.373,1.003,0.895,1.859,1.563,2.568c0.669,0.708,1.437,1.25,2.303,1.623c0.864,0.375,1.809,0.561,2.833,0.561
				c2.007,0,3.708-0.717,5.105-2.154C384.248,51.828,384.947,49.811,384.947,47.214z"/>
			<path fill="#282828" d="M405.547,61.734h-7.851V18.999h7.851v16.114c0.944-1.141,2.145-1.957,3.601-2.45
				c1.456-0.491,2.872-0.738,4.25-0.738c1.85,0,3.453,0.305,4.811,0.915c1.357,0.61,2.479,1.427,3.364,2.45
				c0.886,1.023,1.544,2.243,1.978,3.659c0.433,1.417,0.649,2.913,0.649,4.486v18.298h-7.851v-16.94c0-1.653-0.423-3.03-1.269-4.132
				c-0.847-1.101-2.214-1.653-4.103-1.653c-1.652,0-2.951,0.542-3.896,1.624c-0.944,1.083-1.456,2.43-1.535,4.043V61.734z"/>
		</g>
		<g>
			<g>
				<path fill="#F26222" d="M40.026,25.955L51.87,69.314c0.796,2.914,3.799,4.63,6.707,3.832c2.908-0.798,4.62-3.807,3.824-6.721
					L50.557,23.066c-0.796-2.914-3.799-4.63-6.707-3.832C40.942,20.031,39.23,23.041,40.026,25.955z"/>
			</g>
			<g>
				<path fill="#8A51A0" d="M61.956,25.791L32.299,59.33c-2,2.261-1.791,5.719,0.465,7.723c2.256,2.004,5.706,1.795,7.706-0.466
					l29.657-33.539c2-2.261,1.791-5.719-0.465-7.723C67.406,23.321,63.956,23.53,61.956,25.791z"/>
			</g>
			<g>
				<path fill="#2FB4E8" d="M28.353,44.377l42.293,14.014c2.862,0.948,5.95-0.608,6.897-3.477c0.946-2.869-0.607-5.963-3.469-6.912
					L31.781,33.988c-2.862-0.948-5.95,0.608-6.897,3.477C23.938,40.334,25.491,43.428,28.353,44.377z"/>
			</g>
		</g>
	</g>
	<g opacity="0.9">
		<path fill="#F26222" d="M100.053,74.693v7.273h-1.464v-7.273h-2.807v-1.379h7.09v1.379H100.053z"/>
		<path fill="#F26222" d="M109.595,81.966v-3.697h-4.063v3.697h-1.464v-8.652h1.464v3.576h4.063v-3.576h1.477v8.652H109.595z"/>
		<path fill="#F26222" d="M113.146,81.966v-8.652h5.345v1.367h-3.88v2.294h3.515v1.33h-3.515v2.294h3.88v1.367H113.146z"/>
		<path fill="#F26222" d="M123.274,81.966v-8.652h5.381v1.379h-3.917v2.429h3.515v1.354h-3.515v3.49H123.274z"/>
		<path fill="#F26222" d="M133.157,82.149c-0.455,0-0.878-0.069-1.269-0.208s-0.73-0.342-1.02-0.61
			c-0.288-0.268-0.517-0.602-0.683-1c-0.167-0.398-0.251-0.858-0.251-1.379v-5.638h1.452v5.552c0,0.61,0.157,1.078,0.47,1.403
			c0.313,0.326,0.747,0.488,1.3,0.488c0.562,0,0.997-0.163,1.306-0.488c0.31-0.325,0.464-0.793,0.464-1.403v-5.552h1.465v5.638
			c0,0.521-0.084,0.98-0.251,1.379c-0.166,0.399-0.395,0.732-0.683,1c-0.289,0.269-0.631,0.472-1.025,0.61
			S133.613,82.149,133.157,82.149z"/>
		<path fill="#F26222" d="M141.785,74.693v7.273h-1.465v-7.273h-2.807v-1.379h7.09v1.379H141.785z"/>
		<path fill="#F26222" d="M148.947,82.149c-0.455,0-0.878-0.069-1.269-0.208s-0.73-0.342-1.02-0.61
			c-0.288-0.268-0.517-0.602-0.683-1c-0.167-0.398-0.251-0.858-0.251-1.379v-5.638h1.452v5.552c0,0.61,0.157,1.078,0.47,1.403
			c0.313,0.326,0.747,0.488,1.3,0.488c0.562,0,0.997-0.163,1.306-0.488c0.31-0.325,0.464-0.793,0.464-1.403v-5.552h1.465v5.638
			c0,0.521-0.084,0.98-0.251,1.379c-0.166,0.399-0.395,0.732-0.683,1c-0.289,0.269-0.631,0.472-1.025,0.61
			S149.403,82.149,148.947,82.149z"/>
		<path fill="#F26222" d="M156.708,78.549h-1.073v3.417h-1.477v-8.652h3.319c0.414,0,0.791,0.067,1.128,0.202
			c0.338,0.134,0.623,0.321,0.854,0.561c0.232,0.24,0.411,0.519,0.537,0.836s0.189,0.659,0.189,1.025
			c0,0.619-0.173,1.147-0.519,1.586c-0.347,0.439-0.824,0.732-1.435,0.879l1.953,3.563h-1.66L156.708,78.549z M157.209,77.255
			c0.455,0,0.817-0.12,1.086-0.36c0.269-0.24,0.402-0.559,0.402-0.958c0-0.406-0.134-0.73-0.402-0.97
			c-0.269-0.24-0.631-0.36-1.086-0.36h-1.574v2.648H157.209z"/>
		<path fill="#F26222" d="M161.748,81.966v-8.652h5.345v1.367h-3.881v2.294h3.515v1.33h-3.515v2.294h3.881v1.367H161.748z"/>
		<path fill="#F26222" d="M176.244,75.755c-0.024-0.13-0.071-0.275-0.141-0.434c-0.069-0.158-0.171-0.303-0.305-0.433
			c-0.135-0.13-0.304-0.24-0.507-0.33c-0.203-0.089-0.451-0.134-0.744-0.134c-0.22,0-0.421,0.035-0.604,0.104
			c-0.183,0.069-0.34,0.161-0.47,0.274c-0.13,0.114-0.231,0.246-0.305,0.396c-0.073,0.151-0.11,0.308-0.11,0.47
			c0,0.276,0.084,0.512,0.251,0.708c0.166,0.195,0.421,0.33,0.763,0.403l1.244,0.256c0.765,0.154,1.347,0.456,1.745,0.903
			s0.598,0.976,0.598,1.586c0,0.333-0.066,0.659-0.201,0.976c-0.134,0.317-0.331,0.598-0.592,0.842
			c-0.261,0.244-0.58,0.439-0.958,0.586s-0.815,0.22-1.312,0.22c-0.554,0-1.031-0.08-1.434-0.238
			c-0.403-0.159-0.74-0.366-1.013-0.623c-0.273-0.256-0.482-0.543-0.629-0.86s-0.236-0.63-0.269-0.939l1.367-0.391
			c0.024,0.228,0.081,0.445,0.171,0.653c0.089,0.208,0.217,0.391,0.384,0.549s0.368,0.287,0.604,0.384
			c0.235,0.098,0.508,0.146,0.817,0.146c0.521,0,0.913-0.114,1.178-0.342c0.264-0.228,0.396-0.513,0.396-0.854
			c0-0.285-0.1-0.531-0.299-0.738c-0.2-0.208-0.486-0.352-0.86-0.433l-1.221-0.256c-0.659-0.138-1.189-0.415-1.593-0.83
			c-0.402-0.415-0.604-0.947-0.604-1.598c0-0.366,0.077-0.71,0.231-1.031c0.155-0.321,0.366-0.602,0.635-0.842
			c0.269-0.24,0.58-0.429,0.934-0.567c0.354-0.138,0.734-0.207,1.141-0.207c0.513,0,0.948,0.069,1.306,0.207
			c0.358,0.139,0.657,0.315,0.897,0.531c0.239,0.216,0.425,0.454,0.555,0.714c0.131,0.261,0.22,0.513,0.269,0.757L176.244,75.755z"
			/>
		<path fill="#F26222" d="M178.624,77.634c0-0.708,0.122-1.34,0.365-1.897c0.244-0.557,0.569-1.029,0.977-1.416
			c0.407-0.386,0.874-0.681,1.403-0.885c0.528-0.203,1.078-0.305,1.647-0.305s1.118,0.102,1.647,0.305
			c0.528,0.204,0.996,0.499,1.403,0.885c0.406,0.387,0.734,0.858,0.982,1.416s0.372,1.19,0.372,1.897
			c0,0.708-0.124,1.342-0.372,1.904c-0.248,0.561-0.576,1.035-0.982,1.421c-0.407,0.387-0.875,0.682-1.403,0.885
			c-0.529,0.203-1.078,0.305-1.647,0.305s-1.119-0.102-1.647-0.305c-0.529-0.203-0.996-0.498-1.403-0.885
			c-0.407-0.386-0.732-0.86-0.977-1.421C178.746,78.976,178.624,78.342,178.624,77.634z M180.125,77.634
			c0,0.521,0.083,0.976,0.25,1.367c0.166,0.391,0.384,0.716,0.652,0.976c0.269,0.261,0.575,0.456,0.922,0.586
			c0.346,0.13,0.701,0.195,1.067,0.195s0.724-0.065,1.074-0.195c0.35-0.13,0.658-0.325,0.927-0.586
			c0.269-0.26,0.486-0.585,0.653-0.976c0.166-0.391,0.25-0.846,0.25-1.367c0-0.521-0.084-0.976-0.25-1.367
			c-0.167-0.391-0.385-0.716-0.653-0.976s-0.577-0.456-0.927-0.586c-0.351-0.13-0.708-0.195-1.074-0.195s-0.722,0.065-1.067,0.195
			c-0.347,0.13-0.653,0.326-0.922,0.586s-0.486,0.585-0.652,0.976C180.208,76.658,180.125,77.113,180.125,77.634z"/>
		<path fill="#F26222" d="M188.447,77.634c0-0.708,0.122-1.34,0.365-1.897c0.244-0.557,0.569-1.029,0.977-1.416
			c0.407-0.386,0.874-0.681,1.403-0.885c0.528-0.203,1.078-0.305,1.647-0.305s1.118,0.102,1.647,0.305
			c0.528,0.204,0.996,0.499,1.403,0.885c0.406,0.387,0.734,0.858,0.982,1.416s0.372,1.19,0.372,1.897
			c0,0.708-0.124,1.342-0.372,1.904c-0.248,0.561-0.576,1.035-0.982,1.421c-0.407,0.387-0.875,0.682-1.403,0.885
			c-0.529,0.203-1.078,0.305-1.647,0.305s-1.119-0.102-1.647-0.305c-0.529-0.203-0.996-0.498-1.403-0.885
			c-0.407-0.386-0.732-0.86-0.977-1.421C188.569,78.976,188.447,78.342,188.447,77.634z M189.948,77.634
			c0,0.521,0.083,0.976,0.25,1.367c0.166,0.391,0.384,0.716,0.652,0.976c0.269,0.261,0.575,0.456,0.922,0.586
			c0.346,0.13,0.701,0.195,1.067,0.195s0.724-0.065,1.074-0.195c0.35-0.13,0.658-0.325,0.927-0.586
			c0.269-0.26,0.486-0.585,0.653-0.976c0.166-0.391,0.25-0.846,0.25-1.367c0-0.521-0.084-0.976-0.25-1.367
			c-0.167-0.391-0.385-0.716-0.653-0.976s-0.577-0.456-0.927-0.586c-0.351-0.13-0.708-0.195-1.074-0.195s-0.722,0.065-1.067,0.195
			c-0.347,0.13-0.653,0.326-0.922,0.586s-0.486,0.585-0.652,0.976C190.031,76.658,189.948,77.113,189.948,77.634z"/>
		<path fill="#F26222" d="M204.53,81.966l-4.271-6.553v6.553h-1.464v-8.652h1.867l3.929,6.138v-6.138h1.465v8.652H204.53z"/>
		<path fill="#F26222" d="M208.13,81.966v-8.652h5.345v1.367h-3.881v2.294h3.515v1.33h-3.515v2.294h3.881v1.367H208.13z"/>
		<path fill="#F26222" d="M217.781,78.549h-1.073v3.417h-1.477v-8.652h3.319c0.414,0,0.791,0.067,1.128,0.202
			c0.338,0.134,0.623,0.321,0.854,0.561c0.232,0.24,0.411,0.519,0.537,0.836s0.189,0.659,0.189,1.025
			c0,0.619-0.173,1.147-0.519,1.586c-0.347,0.439-0.824,0.732-1.435,0.879l1.953,3.563h-1.66L217.781,78.549z M218.282,77.255
			c0.455,0,0.817-0.12,1.086-0.36c0.269-0.24,0.402-0.559,0.402-0.958c0-0.406-0.134-0.73-0.402-0.97
			c-0.269-0.24-0.631-0.36-1.086-0.36h-1.574v2.648H218.282z"/>
	</g>
</g>
</svg>
