<svg xmlns="http://www.w3.org/2000/svg" viewBox="0 0 452.965 95.441">
  <path fill="#282828" d="M103.34 52.172c.078 1.142.55 2.165 1.416 3.07.865.905 2.164 1.356 3.896 1.356 1.3 0 2.263-.285 2.893-.856.63-.57.944-1.25.944-2.036 0-.67-.24-1.25-.71-1.74-.48-.493-1.28-.857-2.42-1.093l-3.84-.885c-2.84-.63-4.9-1.72-6.2-3.276-1.3-1.554-1.95-3.354-1.95-5.4 0-1.3.27-2.53.82-3.69.55-1.16 1.31-2.164 2.27-3.01.96-.847 2.1-1.525 3.42-2.037 1.31-.51 2.76-.768 4.34-.768 2.04 0 3.77.286 5.19.856 1.41.57 2.56 1.29 3.45 2.155.88.866 1.54 1.78 1.98 2.745.43.964.69 1.84.77 2.626l-6.55 1.47c-.08-.44-.21-.88-.39-1.33-.18-.45-.47-.88-.86-1.27-.4-.39-.88-.71-1.45-.95s-1.27-.36-2.1-.36c-1.03 0-1.9.27-2.63.82-.73.55-1.1 1.24-1.1 2.06 0 .71.24 1.28.73 1.71.49.43 1.13.73 1.92.88l4.13.88c2.87.59 5.02 1.69 6.46 3.3 1.44 1.61 2.16 3.48 2.16 5.61 0 1.18-.23 2.34-.68 3.48-.45 1.14-1.15 2.16-2.09 3.07-.95.9-2.13 1.63-3.54 2.18s-3.07.82-4.96.82c-2.21 0-4.06-.32-5.55-.95-1.5-.63-2.72-1.4-3.66-2.3-.94-.91-1.64-1.88-2.1-2.93-.45-1.04-.72-1.98-.8-2.81l6.73-1.48zm34.706-20.364c2.164 0 4.18.384 6.05 1.15 1.87.768 3.483 1.83 4.84 3.188 1.358 1.358 2.42 2.98 3.19 4.87.767 1.89 1.15 3.955 1.15 6.198 0 2.243-.384 4.3-1.15 6.168-.77 1.87-1.83 3.493-3.19 4.87-1.356 1.378-2.97 2.45-4.84 3.217-1.87.76-3.886 1.15-6.05 1.15s-4.182-.39-6.05-1.15c-1.87-.77-3.482-1.84-4.84-3.22-1.357-1.38-2.42-3-3.188-4.87-.768-1.87-1.15-3.93-1.15-6.17s.383-4.31 1.15-6.2c.768-1.89 1.83-3.51 3.188-4.87 1.357-1.36 2.97-2.42 4.84-3.19 1.868-.77 3.886-1.15 6.05-1.15zm0 23.67c.945 0 1.87-.178 2.774-.532.905-.354 1.69-.875 2.36-1.564.67-.688 1.21-1.544 1.624-2.568.413-1.022.62-2.223.62-3.6 0-1.378-.207-2.578-.62-3.602-.413-1.022-.954-1.878-1.623-2.567-.67-.688-1.45-1.21-2.36-1.564-.9-.35-1.83-.53-2.77-.53s-1.87.18-2.77.53c-.9.36-1.69.88-2.36 1.57-.67.69-1.21 1.55-1.62 2.57-.41 1.03-.62 2.23-.62 3.6 0 1.38.21 2.58.62 3.6.42 1.03.96 1.88 1.63 2.57s1.46 1.21 2.36 1.57c.91.36 1.83.53 2.78.53zm39.136 6.256c-.08-.314-.14-.768-.178-1.357-.04-.59-.06-1.18-.06-1.77-.787 1.377-1.937 2.37-3.452 2.98-1.516.61-3.04.915-4.574.915-1.77 0-3.335-.306-4.692-.915-1.358-.61-2.51-1.426-3.453-2.45-.944-1.023-1.663-2.233-2.155-3.63-.492-1.396-.737-2.882-.737-4.457V32.694h7.86v16.763c0 1.653.42 3.04 1.27 4.16.85 1.123 2.19 1.684 4.05 1.684 1.77 0 3.13-.53 4.07-1.59s1.42-2.44 1.42-4.13V32.7h7.85v23.78c0 1.143.03 2.176.09 3.1.06.925.13 1.644.21 2.154h-7.5zm32.108-21.25c-.787-.156-1.573-.235-2.36-.235-1.023 0-1.987.13-2.892.41-.906.27-1.692.73-2.36 1.35-.67.63-1.21 1.46-1.624 2.51-.413 1.04-.62 2.35-.62 3.92v13.28h-7.85V32.69h7.613V37c.433-.943.993-1.72 1.683-2.33.688-.61 1.416-1.07 2.184-1.387.768-.315 1.535-.53 2.302-.65.768-.117 1.466-.176 2.096-.176.314 0 .62.01.915.03.295.02.6.05.915.088v7.91zm17.117-1.416c-1.023 0-1.977.177-2.862.53-.886.355-1.663.877-2.332 1.565-.67.69-1.2 1.544-1.593 2.567-.395 1.024-.59 2.184-.59 3.482 0 1.3.195 2.46.59 3.483.393 1.023.934 1.89 1.623 2.597.688.708 1.476 1.24 2.36 1.594.886.354 1.84.53 2.863.53.983 0 1.86-.146 2.627-.44.767-.296 1.426-.68 1.977-1.152.55-.472.994-1.003 1.328-1.593.334-.59.58-1.16.738-1.71l6.906 2.3c-.315 1.22-.837 2.42-1.564 3.58-.73 1.16-1.663 2.21-2.804 3.13-1.142.93-2.48 1.68-4.014 2.25-1.535.57-3.267.86-5.194.86-2.125 0-4.123-.38-5.99-1.15-1.87-.76-3.494-1.84-4.87-3.21-1.378-1.37-2.46-3-3.247-4.87-.79-1.86-1.19-3.92-1.19-6.16s.38-4.31 1.15-6.19c.77-1.89 1.83-3.51 3.19-4.87 1.35-1.36 2.95-2.42 4.78-3.19s3.8-1.15 5.93-1.15c1.96 0 3.72.29 5.28.86 1.55.57 2.9 1.31 4.04 2.21 1.14.91 2.06 1.95 2.77 3.13.7 1.18 1.22 2.38 1.53 3.6L232.81 44c-.36-1.22-1.04-2.34-2.04-3.366-1-1.02-2.47-1.53-4.4-1.53zm43.975 14.342c-.354 1.26-.914 2.45-1.682 3.572s-1.702 2.095-2.804 2.922c-1.103.826-2.39 1.485-3.866 1.977s-3.1.74-4.87.74c-2.007 0-3.916-.34-5.726-1.03s-3.403-1.7-4.78-3.04c-1.378-1.33-2.47-2.97-3.276-4.9-.807-1.92-1.21-4.11-1.21-6.55 0-2.32.393-4.43 1.18-6.31.787-1.89 1.84-3.49 3.16-4.81 1.316-1.32 2.84-2.34 4.573-3.07 1.74-.73 3.53-1.09 5.38-1.09 4.53 0 8.05 1.34 10.57 4.01 2.52 2.68 3.78 6.36 3.78 11.04 0 .55-.02 1.08-.06 1.57-.04.5-.06.78-.06.86H249.9c.04.94.266 1.82.68 2.63.412.81.943 1.51 1.593 2.1s1.406 1.06 2.272 1.39c.865.34 1.79.5 2.774.5 1.84 0 3.29-.41 4.33-1.24 1.04-.82 1.8-1.89 2.27-3.18l6.55 1.95zm-7.318-9.502c-.04-.708-.188-1.407-.443-2.096-.25-.688-.64-1.298-1.18-1.83s-1.2-.964-2-1.298c-.8-.334-1.76-.502-2.86-.502-1.02 0-1.93.177-2.71.53-.79.355-1.45.808-2 1.358-.55.552-.97 1.16-1.27 1.83-.29.67-.46 1.338-.5 2.007h12.99zM280.83 61.44c.273 1.612 1.003 2.93 2.183 3.954 1.18 1.023 2.716 1.535 4.604 1.535 2.48 0 4.387-.64 5.726-1.92 1.337-1.28 2.007-3.34 2.007-6.17v-2.13c-.59.94-1.555 1.8-2.893 2.56-1.338.77-3.07 1.15-5.194 1.15-1.93 0-3.72-.36-5.37-1.06-1.653-.71-3.08-1.69-4.28-2.96-1.2-1.26-2.146-2.75-2.833-4.46-.69-1.71-1.033-3.59-1.033-5.64 0-1.93.334-3.75 1.003-5.46.67-1.71 1.594-3.22 2.774-4.52 1.18-1.3 2.598-2.32 4.25-3.07 1.652-.75 3.482-1.12 5.49-1.12 2.32 0 4.15.41 5.488 1.24 1.338.82 2.263 1.73 2.774 2.71v-3.42h7.556V58.6c0 2.008-.286 3.926-.856 5.756-.57 1.83-1.466 3.442-2.686 4.84-1.22 1.395-2.794 2.52-4.722 3.363-1.93.85-4.25 1.27-6.965 1.27-2.007 0-3.828-.29-5.46-.86-1.634-.57-3.06-1.34-4.28-2.31-1.22-.97-2.203-2.09-2.95-3.37-.748-1.28-1.22-2.61-1.417-3.99l7.083-1.89zm7.79-7.733c2.007 0 3.65-.67 4.93-2.007 1.277-1.337 1.918-3.128 1.918-5.372s-.67-4.023-2.007-5.342c-1.33-1.318-2.95-1.978-4.84-1.978-.98 0-1.89.168-2.74.502-.84.335-1.58.826-2.21 1.476-.63.65-1.12 1.427-1.47 2.332-.35.906-.53 1.91-.53 3.01 0 2.283.65 4.083 1.95 5.4 1.3 1.32 2.97 1.98 5.02 1.98zm38.956-13.222c-.787-.157-1.574-.236-2.36-.236-1.024 0-1.988.13-2.893.41-.906.27-1.692.73-2.36 1.35-.67.63-1.21 1.46-1.624 2.51-.42 1.04-.62 2.35-.62 3.92v13.28h-7.86V32.69h7.61V37c.43-.943.99-1.72 1.68-2.33.69-.61 1.41-1.07 2.18-1.387.76-.315 1.53-.53 2.3-.65.76-.117 1.46-.176 2.09-.176.31 0 .62.01.91.03.29.02.6.05.91.088v7.91zm2.774 13.34c0-1.3.226-2.45.678-3.454s1.072-1.87 1.86-2.62c.786-.74 1.7-1.33 2.744-1.77 1.042-.43 2.174-.75 3.394-.94l7.143-1.06c.82-.11 1.39-.36 1.71-.73.31-.37.47-.82.47-1.33 0-1.02-.41-1.91-1.21-2.65-.81-.74-2.04-1.12-3.69-1.12-1.73 0-3.06.48-3.99 1.42s-1.45 2.05-1.57 3.31l-6.97-1.48c.11-1.14.47-2.28 1.06-3.42.59-1.14 1.39-2.16 2.42-3.07 1.02-.9 2.28-1.64 3.77-2.21 1.49-.57 3.22-.85 5.19-.85 2.28 0 4.23.31 5.84.92 1.61.61 2.92 1.42 3.92 2.42s1.73 2.17 2.18 3.51c.45 1.34.68 2.74.68 4.19v14.28c0 .79.04 1.62.12 2.51.08.89.15 1.58.23 2.1h-7.2c-.08-.39-.15-.93-.21-1.62-.06-.68-.09-1.3-.09-1.85-.75 1.14-1.82 2.15-3.22 3.01-1.4.87-3.18 1.3-5.35 1.3-1.54 0-2.92-.25-4.16-.74-1.24-.49-2.3-1.14-3.16-1.95-.87-.81-1.53-1.73-1.98-2.77-.46-1.04-.68-2.13-.68-3.27zm11.627 2.892c.826 0 1.623-.108 2.39-.325.77-.216 1.447-.59 2.037-1.122.59-.53 1.062-1.22 1.417-2.066.36-.846.54-1.918.54-3.217v-1.3l-6.55 1.005c-1.02.157-1.88.522-2.56 1.092-.69.57-1.03 1.427-1.03 2.567 0 .87.32 1.65.95 2.34.63.69 1.58 1.04 2.84 1.04zm20.776 16.233V32.693h7.614v3.542c.67-1.14 1.77-2.125 3.306-2.95 1.535-.828 3.403-1.24 5.607-1.24 2.125 0 4.014.383 5.667 1.15 1.652.768 3.06 1.83 4.22 3.188 1.16 1.357 2.037 2.95 2.627 4.78.59 1.83.886 3.828.886 5.992 0 2.205-.325 4.24-.975 6.11-.648 1.87-1.574 3.48-2.773 4.84-1.2 1.356-2.647 2.42-4.34 3.186-1.69.77-3.56 1.15-5.606 1.15-2.007 0-3.73-.34-5.165-1.03s-2.5-1.52-3.21-2.51v14.05h-7.85zm22.194-25.736c0-2.597-.7-4.604-2.096-6.02-1.39-1.418-3.09-2.126-5.1-2.126-1.02 0-1.97.188-2.83.56-.86.376-1.63.906-2.3 1.595-.67.69-1.19 1.535-1.56 2.538-.37 1.01-.56 2.16-.56 3.46 0 1.3.19 2.45.56 3.46.38 1.01.9 1.86 1.57 2.57.67.71 1.44 1.25 2.31 1.63.87.38 1.81.56 2.84.56 2.01 0 3.71-.71 5.11-2.15 1.4-1.43 2.1-3.45 2.1-6.05zm20.6 14.52h-7.85V19h7.85v16.113c.944-1.14 2.145-1.957 3.6-2.45 1.457-.49 2.873-.738 4.25-.738 1.85 0 3.454.305 4.812.915 1.35.61 2.47 1.427 3.36 2.45.88 1.023 1.54 2.243 1.98 3.66.43 1.416.65 2.912.65 4.485v18.298h-7.85v-16.94c0-1.653-.43-3.03-1.27-4.132-.85-1.1-2.22-1.65-4.11-1.65-1.65 0-2.95.54-3.9 1.63-.95 1.09-1.46 2.43-1.54 4.05v17.06z"/>
  <path fill="#F26222" d="M40.026 25.955l11.844 43.36c.796 2.913 3.8 4.63 6.707 3.83 2.908-.797 4.62-3.806 3.824-6.72l-11.84-43.36c-.79-2.913-3.8-4.63-6.7-3.83-2.9.796-4.62 3.806-3.82 6.72z"/>
  <path fill="#8A51A0" d="M61.956 25.79L32.3 59.33c-2 2.26-1.792 5.72.464 7.723 2.256 2.004 5.706 1.795 7.706-.466l29.657-33.54c2-2.26 1.79-5.718-.465-7.722-2.256-2.004-5.706-1.795-7.706.466z"/>
  <path fill="#2FB4E8" d="M28.353 44.377L70.646 58.39c2.862.95 5.95-.607 6.897-3.476.946-2.87-.607-5.963-3.47-6.912l-42.29-14.014c-2.86-.948-5.95.608-6.897 3.477-.946 2.87.607 5.963 3.47 6.912z"/>
  <path fill="#F26222" d="M100.053 74.693v7.273H98.59v-7.273h-2.81v-1.38h7.09v1.38h-2.82zm9.542 7.273V78.27h-4.063v3.696h-1.464v-8.652h1.464v3.576h4.063v-3.576h1.477v8.652h-1.477zm3.55 0v-8.652h5.346v1.367h-3.88v2.3h3.52v1.33h-3.51v2.29h3.88v1.37h-5.34zm10.13 0v-8.652h5.38v1.38h-3.917v2.428h3.515v1.354h-3.515v3.49h-1.464zm9.882.184c-.455 0-.878-.07-1.27-.21s-.73-.34-1.02-.61c-.287-.267-.516-.6-.682-1-.167-.397-.25-.857-.25-1.378v-5.638h1.45v5.552c0 .61.158 1.078.47 1.403.314.32.748.48 1.3.48.563 0 .998-.17 1.307-.49.31-.33.464-.8.464-1.41V73.3h1.465v5.64c0 .52-.08.98-.25 1.38-.16.397-.39.73-.68 1-.29.267-.63.47-1.02.61s-.82.206-1.27.206zm8.628-7.457v7.273h-1.465v-7.273h-2.807v-1.38h7.09v1.38h-2.818zm7.162 7.457c-.455 0-.878-.07-1.27-.21s-.73-.34-1.02-.61c-.287-.267-.516-.6-.682-1-.167-.397-.25-.857-.25-1.378v-5.638h1.45v5.552c0 .61.158 1.078.47 1.403.314.32.748.48 1.3.48.563 0 .998-.17 1.307-.49.31-.33.464-.8.464-1.41V73.3h1.465v5.64c0 .52-.08.98-.25 1.38-.16.397-.39.73-.68 1-.29.267-.63.47-1.02.61s-.82.206-1.27.206zm7.76-3.6h-1.072v3.416h-1.477v-8.652h3.32c.413 0 .79.067 1.127.202.338.134.623.32.854.56.23.24.41.52.53.837s.19.66.19 1.025c0 .62-.18 1.147-.52 1.586-.35.44-.83.732-1.44.88l1.95 3.562h-1.66l-1.81-3.416zm.5-1.295c.457 0 .82-.12 1.088-.36.27-.24.402-.56.402-.958 0-.406-.134-.73-.402-.97-.27-.24-.63-.36-1.086-.36h-1.58v2.648h1.57zm4.54 4.71v-8.65h5.346v1.366h-3.88v2.3h3.514v1.33h-3.515v2.29h3.88v1.37h-5.344zm14.497-6.21c-.024-.13-.07-.275-.14-.434-.07-.15-.172-.3-.306-.43-.135-.13-.304-.24-.507-.33-.2-.09-.45-.13-.74-.13-.22 0-.42.04-.6.11s-.34.16-.47.28c-.13.12-.23.25-.3.4-.07.15-.11.31-.11.47 0 .28.09.51.25.71.17.2.42.33.77.41l1.25.25c.77.16 1.35.46 1.75.91s.6.98.6 1.59c0 .34-.07.66-.2.98-.13.32-.33.6-.59.84-.26.25-.58.44-.96.59s-.81.22-1.31.22c-.55 0-1.03-.08-1.43-.24-.4-.16-.74-.37-1.01-.63s-.48-.54-.63-.86-.23-.63-.27-.94l1.37-.39c.03.23.08.45.17.65.09.21.22.39.39.55s.37.29.61.38c.23.1.51.15.82.15.52 0 .92-.11 1.18-.34.26-.22.4-.51.4-.85 0-.28-.1-.53-.3-.73-.2-.21-.49-.353-.86-.44l-1.22-.25c-.66-.14-1.19-.417-1.59-.83-.402-.417-.61-.95-.61-1.6 0-.366.08-.71.23-1.03.16-.32.37-.6.64-.84s.58-.43.93-.57c.358-.134.738-.203 1.14-.203.517 0 .95.07 1.31.21.36.14.657.32.897.53.24.22.425.46.555.72.13.26.22.51.27.753l-1.315.41zm2.38 1.88c0-.71.122-1.34.365-1.898.24-.557.56-1.03.97-1.416.4-.38.87-.68 1.4-.88.52-.2 1.07-.3 1.64-.3s1.12.11 1.64.31c.53.21.99.5 1.4.89.41.39.73.86.98 1.42s.37 1.19.37 1.9-.13 1.34-.38 1.91c-.25.56-.58 1.04-.98 1.42-.41.39-.88.68-1.4.89-.53.21-1.08.31-1.65.31s-1.12-.1-1.65-.31c-.53-.2-1-.49-1.4-.88-.41-.38-.73-.86-.98-1.42-.25-.56-.37-1.19-.37-1.9zm1.5 0c0 .52.084.975.25 1.366.167.4.385.72.653.98.27.26.575.46.922.59.34.13.7.2 1.06.2s.72-.06 1.07-.19.65-.32.92-.58c.27-.26.48-.58.65-.97.16-.39.25-.84.25-1.36 0-.52-.09-.97-.25-1.36-.17-.39-.39-.72-.66-.98s-.58-.45-.93-.58c-.35-.13-.71-.19-1.08-.19s-.72.07-1.07.2c-.35.13-.66.33-.92.59s-.49.59-.65.98c-.17.39-.25.85-.25 1.37zm8.323 0c0-.71.122-1.34.365-1.898.244-.557.57-1.03.977-1.416.4-.38.87-.68 1.4-.88.53-.2 1.08-.3 1.64-.3s1.11.11 1.64.31c.53.21.99.5 1.4.89.4.39.73.86.98 1.42s.37 1.19.37 1.9-.13 1.34-.38 1.91c-.25.56-.58 1.04-.98 1.42-.41.39-.88.68-1.4.89-.53.21-1.08.31-1.65.31s-1.12-.1-1.65-.31c-.53-.2-1-.49-1.41-.88-.41-.38-.73-.86-.98-1.42-.24-.56-.36-1.19-.36-1.9zm1.5 0c0 .52.084.975.25 1.366.167.4.385.72.653.98.27.26.575.46.922.59.346.13.7.2 1.067.2s.72-.06 1.07-.19.66-.32.92-.58c.27-.26.48-.58.65-.97.16-.39.25-.84.25-1.36 0-.52-.09-.97-.25-1.36-.17-.39-.39-.72-.66-.98s-.58-.45-.93-.58c-.35-.13-.71-.19-1.08-.19s-.73.07-1.07.2c-.35.13-.66.33-.93.59s-.49.59-.65.98c-.17.39-.25.85-.25 1.37zm14.583 4.33l-4.27-6.552v6.553h-1.465v-8.652h1.867l3.93 6.138v-6.138h1.464v8.652h-1.526zm3.6 0v-8.65h5.345v1.366h-3.88v2.3h3.514v1.33h-3.52v2.29h3.88v1.37h-5.35zm9.65-3.415h-1.072v3.416h-1.477v-8.652h3.32c.42 0 .79.067 1.13.202.34.134.63.32.86.56.23.24.41.52.54.837s.19.66.19 1.025c0 .62-.17 1.147-.52 1.586-.34.44-.82.732-1.43.88l1.96 3.562h-1.66l-1.82-3.416zm.502-1.295c.455 0 .817-.12 1.086-.36.27-.24.402-.56.402-.958 0-.406-.134-.73-.402-.97-.27-.24-.63-.36-1.086-.36h-1.574v2.648h1.574z" opacity=".9"/>
</svg>
