<svg xmlns="http://www.w3.org/2000/svg" viewBox="0 0 86 86">
  <path fill="#F26222" d="M31.813 22.765l11.843 43.36c.796 2.913 3.8 4.63 6.707 3.83 2.908-.797 4.62-3.806 3.824-6.72l-11.844-43.36c-.796-2.913-3.8-4.63-6.707-3.83-2.907.796-4.62 3.806-3.823 6.72z"/>
  <path fill="#8A51A0" d="M53.743 22.6L24.086 56.14c-2 2.262-1.79 5.72.465 7.724 2.26 2.004 5.71 1.795 7.71-.466l29.657-33.54c2-2.26 1.79-5.718-.465-7.722-2.257-2.005-5.707-1.796-7.706.465z"/>
  <path fill="#2FB4E8" d="M20.14 41.187L62.433 55.2c2.862.95 5.95-.607 6.897-3.476s-.607-5.963-3.47-6.912L23.568 30.798c-2.862-.948-5.95.608-6.897 3.477-.943 2.87.61 5.964 3.47 6.912z"/>
</svg>
