<?xml version="1.0" encoding="UTF-8" standalone="no"?>
<!-- Created with Inkscape (http://www.inkscape.org/) -->

<svg
   xmlns:dc="http://purl.org/dc/elements/1.1/"
   xmlns:cc="http://creativecommons.org/ns#"
   xmlns:rdf="http://www.w3.org/1999/02/22-rdf-syntax-ns#"
   xmlns:svg="http://www.w3.org/2000/svg"
   xmlns="http://www.w3.org/2000/svg"
   version="1.1"
   width="19"
   height="19"
   id="svg2">
  <defs
     id="defs4" />
  <metadata
     id="metadata7">
    <rdf:RDF>
      <cc:Work
         rdf:about="">
        <dc:format>image/svg+xml</dc:format>
        <dc:type
           rdf:resource="http://purl.org/dc/dcmitype/StillImage" />
        <dc:title></dc:title>
      </cc:Work>
    </rdf:RDF>
  </metadata>
  <g
     transform="translate(0,-1033.3622)"
     id="layer1">
    <path
       d="M 9.5,0 C 4.2626331,0 0,4.2627 0,9.5 0,14.7374 4.2626331,19 9.5,19 c 4.719805,0 8.645809,-3.452563 9.375,-7.96875 l -2.34375,0 C 15.839249,14.286784 12.973667,16.71875 9.5,16.71875 5.5026397,16.71875 2.28125,13.4974 2.28125,9.5 2.28125,5.5027 5.5026397,2.28125 9.5,2.28125 c 3.48712,0 6.384766,2.4702138 7.0625,5.75 l 2.3125,0 C 18.163948,3.4897657 14.234863,0 9.5,0 z"
       transform="translate(0,1033.3622)"
       id="path2985"
       style="font-size:medium;font-style:normal;font-variant:normal;font-weight:normal;font-stretch:normal;text-indent:0;text-align:start;text-decoration:none;line-height:normal;letter-spacing:normal;word-spacing:normal;text-transform:none;direction:ltr;block-progression:tb;writing-mode:lr-tb;text-anchor:start;baseline-shift:baseline;color:#000000;fill:#ffffff;fill-opacity:1;stroke:none;stroke-width:2.68128538;marker:none;visibility:visible;display:inline;overflow:visible;enable-background:accumulate;font-family:Sans;-inkscape-font-specification:Sans" />
  </g>
</svg>
