<svg width="349" height="349" xmlns="http://www.w3.org/2000/svg" xmlns:xlink="http://www.w3.org/1999/xlink"><defs><circle id="a" cx="174.5" cy="174.5" r="174.5"/></defs><g fill="none" fill-rule="evenodd" opacity=".183"><mask id="b" fill="#fff"><use xlink:href="#a"/></mask><use fill="#FFF" opacity=".4" xlink:href="#a"/><path d="M235 352c41.42 0 75-81.932 75-183S276.42-14 235-14s-75 81.932-75 183 33.58 183 75 183z" stroke-opacity=".287" stroke="#FFF" stroke-width="3" mask="url(#b)"/><path d="M230.5 352c59.37 0 107.5-81.932 107.5-183S289.87-14 230.5-14 123 67.932 123 169s48.13 183 107.5 183z" stroke-opacity=".287" stroke="#FFF" stroke-width="3" mask="url(#b)"/><path d="M179 352c87.813 0 159-39.735 159-88.75s-71.187-88.75-159-88.75-159 39.735-159 88.75S91.187 352 179 352z" stroke-opacity=".287" stroke="#FFF" stroke-width="3" mask="url(#b)"/><path d="M257.562 330.52c103.79-59.922 160.813-155.463 127.366-213.396-33.448-57.933-144.7-56.32-248.49 3.604C32.648 180.65-24.375 276.19 9.072 334.124c33.448 57.933 144.7 56.32 248.49-3.603z" stroke-opacity=".287" stroke="#FFF" stroke-width="3" mask="url(#b)"/><path d="M167.5 113c4.142 0 7.5-3.358 7.5-7.5 0-4.142-3.358-7.5-7.5-7.5-4.142 0-7.5 3.358-7.5 7.5 0 4.142 3.358 7.5 7.5 7.5zm-7 67c3.038 0 5.5-2.462 5.5-5.5s-2.462-5.5-5.5-5.5-5.5 2.462-5.5 5.5 2.462 5.5 5.5 5.5zm148 37c3.038 0 5.5-2.462 5.5-5.5s-2.462-5.5-5.5-5.5-5.5 2.462-5.5 5.5 2.462 5.5 5.5 5.5zM299 84c4.97 0 9-4.03 9-9s-4.03-9-9-9-9 4.03-9 9 4.03 9 9 9zm-172 52c4.97 0 9-4.03 9-9s-4.03-9-9-9-9 4.03-9 9 4.03 9 9 9zm202.5 104c3.038 0 5.5-2.462 5.5-5.5s-2.462-5.5-5.5-5.5-5.5 2.462-5.5 5.5 2.462 5.5 5.5 5.5z" fill="#FFF" mask="url(#b)"/></g></svg>