<svg xmlns="http://www.w3.org/2000/svg" xmlns:xlink="http://www.w3.org/1999/xlink" width="48" height="48" version="1.1" viewBox="0 0 48 48"><title>Group</title><desc>Created using Figma</desc><g id="Canvas" transform="translate(-16691 265)"><g id="Group"><g id="Vector"><use fill="#FFF" transform="translate(16691.4 -264.533)" xlink:href="#path0_fill"/></g><g id="Vector"><use fill="url(#paint1_linear)" transform="translate(16706.2 -249.714)" xlink:href="#path1_fill"/></g><g id="Vector"><use fill="url(#paint2_linear)" transform="translate(16695.1 -265)" xlink:href="#path2_fill"/></g><g id="Vector"><use fill="url(#paint3_linear)" transform="translate(16691 -254.439)" xlink:href="#path3_fill"/></g><g id="Vector"><use fill="url(#paint4_linear)" transform="translate(16713.1 -251.647)" xlink:href="#path4_fill"/></g><g id="Vector"><use fill="url(#paint5_linear)" transform="translate(16695.1 -255.083)" xlink:href="#path5_fill"/></g><g id="Vector"><use fill="url(#paint6_linear)" transform="translate(16712.7 -234.25)" xlink:href="#path6_fill"/></g><g id="Vector"><use fill="url(#paint7_linear)" transform="translate(16714.8 -251.647)" xlink:href="#path7_fill"/></g></g></g><defs><linearGradient id="paint1_linear" x1="0" x2="1" y1="0" y2="0" gradientTransform="matrix(0 17.5907 17.5907 0 0.00768163 0.0292969)" gradientUnits="userSpaceOnUse"><stop offset="0" stop-color="#81B4E0"/><stop offset="1" stop-color="#0C5A94"/></linearGradient><linearGradient id="paint2_linear" x1="0" x2="1" y1="0" y2="0" gradientTransform="matrix(0 19.5441 19.5441 0 10.9535 0.0373025)" gradientUnits="userSpaceOnUse"><stop offset="0" stop-color="#F06B59"/><stop offset="1" stop-color="#DF2227"/></linearGradient><linearGradient id="paint3_linear" x1="0" x2="1" y1="0" y2="0" gradientTransform="matrix(9.87903 -16.3218 -16.3218 -9.87903 14.0141 35.5669)" gradientUnits="userSpaceOnUse"><stop offset="0" stop-color="#388B41"/><stop offset="1" stop-color="#4CB749"/></linearGradient><linearGradient id="paint4_linear" x1="0" x2="1" y1="0" y2="0" gradientTransform="matrix(-10.5234 -25.3421 -25.3421 10.5234 29.5024 24.3098)" gradientUnits="userSpaceOnUse"><stop offset="0" stop-color="#E4B022"/><stop offset=".3" stop-color="#FCD209"/></linearGradient><linearGradient id="paint5_linear" x1="0" x2="1" y1="0" y2="0" gradientTransform="matrix(-0 -17.181 -17.181 -0 13.6381 16.7518)" gradientUnits="userSpaceOnUse"><stop offset="0" stop-color="#000" stop-opacity=".15"/><stop offset=".3" stop-color="#000" stop-opacity=".06"/><stop offset="1" stop-color="#000" stop-opacity=".03"/></linearGradient><linearGradient id="paint6_linear" x1="0" x2="1" y1="0" y2="0" gradientTransform="matrix(-11.8117 12.0265 12.0265 11.8117 5.13889 -4.43857)" gradientUnits="userSpaceOnUse"><stop offset="0" stop-color="#000" stop-opacity=".15"/><stop offset=".3" stop-color="#000" stop-opacity=".06"/><stop offset="1" stop-color="#000" stop-opacity=".03"/></linearGradient><linearGradient id="paint7_linear" x1="0" x2="1" y1="0" y2="0" gradientTransform="matrix(1.71815 -16.9656 -16.9656 -1.71815 17.3158 23.1828)" gradientUnits="userSpaceOnUse"><stop offset="0" stop-color="#000" stop-opacity=".15"/><stop offset=".3" stop-color="#000" stop-opacity=".06"/><stop offset="1" stop-color="#000" stop-opacity=".03"/></linearGradient><path id="path0_fill" d="M 23.6241 47.2483C 36.6714 47.2483 47.2483 36.6714 47.2483 23.6241C 47.2483 10.5769 36.6714 0 23.6241 0C 10.5769 0 0 10.5769 0 23.6241C 0 36.6714 10.5769 47.2483 23.6241 47.2483Z"/><path id="path1_fill" d="M 8.8052 17.6104C 13.6682 17.6104 17.6104 13.6682 17.6104 8.8052C 17.6104 3.94222 13.6682 0 8.8052 0C 3.94222 0 0 3.94222 0 8.8052C 0 13.6682 3.94222 17.6104 8.8052 17.6104Z"/><path id="path2_fill" d="M 41.4494 13.3531C 35.5366 1.4571 21.1001 -3.39341 9.20387 2.519C 5.49453 4.36243 2.32419 7.13258 9.29574e-08 10.5612L 9.66447 27.313C 7.88487 21.656 11.028 15.6269 16.6851 13.847C 17.6801 13.5341 18.7153 13.3677 19.7583 13.3531"/><path id="path3_fill" d="M 4.07631 5.13479e-07C -3.32054 11.0347 -0.37198 25.976 10.6622 33.3734C 14.0761 35.662 18.0197 37.0378 22.1163 37.3692L 32.2107 20.1884C 28.4361 24.7632 21.6687 25.4116 17.0941 21.6375C 15.5403 20.3558 14.3782 18.663 13.7407 16.7523"/><path id="path4_fill" d="M -8.14484e-07 34.5771C 13.2465 35.5784 24.7968 25.6518 25.7986 12.4053C 26.1219 8.13116 25.2968 3.8483 23.409 1.59356e-07L 1.7181 1.59356e-07C 7.648 0.0273419 12.434 4.85704 12.4067 10.7878C 12.3955 13.1871 11.5813 15.5136 10.0937 17.3962"/><path id="path5_fill" d="M 9.29574e-08 0.644453L 9.66447 17.3963C 8.94858 14.987 9.10052 12.4029 10.0938 10.0941L 0.429345 3.98389e-07"/><path id="path6_fill" d="M 0.429634 17.1808L 10.524 9.91546e-07C 8.93117 1.89906 6.73071 3.1889 4.29548 3.65081L 5.84304e-07 17.1808"/><path id="path7_fill" d="M 21.6912 -2.74446e-07L -6.37422e-07 -2.74446e-07C 3.2673 0.0152299 6.34996 1.51707 8.37564 4.08066L 22.1205 0.644671"/></defs></svg>