<svg xmlns="http://www.w3.org/2000/svg" xmlns:xlink="http://www.w3.org/1999/xlink" width="47" height="48" version="1.1" viewBox="0 0 47 48"><title>firefox-quantum-seeklogo.com</title><desc>Created using Figma</desc><g id="Canvas" transform="translate(-17712 252)"><g id="firefox-quantum-seeklogo.com"><g id="Group"><g id="Vector"><use fill="url(#paint0_radial)" transform="translate(17748.8 -247.534)" xlink:href="#path0_fill"/></g><g id="&lt;Path&gt;"><use fill="url(#paint1_radial)" transform="translate(17713.7 -247.972)" xlink:href="#path1_fill"/></g><g id="Vector"><use fill="url(#paint2_linear)" transform="translate(17714.3 -250.016)" xlink:href="#path2_fill"/></g><g id="Vector"><use fill="url(#paint3_radial)" transform="translate(17745.9 -218.991)" xlink:href="#path3_fill"/></g><g id="Vector"><use fill="url(#paint4_radial)" transform="translate(17753 -230.715)" xlink:href="#path4_fill"/></g><g id="Vector"><use fill="url(#paint5_radial)" transform="translate(17736.3 -211.559)" xlink:href="#path5_fill"/></g><g id="Vector"><use fill="url(#paint6_radial)" transform="translate(17712 -251.317)" xlink:href="#path6_fill"/></g><g id="Vector"><use fill="url(#paint7_radial)" transform="translate(17739.8 -252)" xlink:href="#path7_fill"/></g><g id="Vector"><use fill="url(#paint8_linear)" transform="translate(17728.9 -239.514)" xlink:href="#path8_fill"/></g><g id="Vector"><use fill="url(#paint9_linear)" transform="translate(17716 -246.809)" xlink:href="#path9_fill"/></g><g id="Vector"><use fill="url(#paint10_linear)" transform="translate(17722 -230.04)" xlink:href="#path10_fill"/></g><g id="Vector"><use fill="url(#paint11_linear)" transform="translate(17723.6 -224.491)" xlink:href="#path11_fill"/></g><g id="Vector"><use fill="url(#paint12_linear)" transform="translate(17741.5 -250.863)" xlink:href="#path12_fill"/></g><g id="Vector"><use fill="url(#paint13_linear)" transform="translate(17727.9 -232.878)" xlink:href="#path13_fill"/></g></g></g></g><defs><radialGradient id="paint0_radial" cx=".5" cy=".5" r=".5" gradientTransform="matrix(33.875 1.49559 -2.22277 49.2663 -7.82457 -17.8376)" gradientUnits="userSpaceOnUse"><stop offset=".045" stop-color="#FFEA00"/><stop offset=".12" stop-color="#FFDE00"/><stop offset=".254" stop-color="#FFBF00"/><stop offset=".429" stop-color="#FF8E00"/><stop offset=".769" stop-color="#FF272D"/><stop offset=".872" stop-color="#E0255A"/><stop offset=".953" stop-color="#CC2477"/><stop offset="1" stop-color="#C42482"/></radialGradient><radialGradient id="paint1_radial" cx=".5" cy=".5" r=".5" gradientTransform="matrix(95.5667 0 0 94.5615 -16.8004 -41.8881)" gradientUnits="userSpaceOnUse"><stop offset="0" stop-color="#00CCDA"/><stop offset=".22" stop-color="#0083FF"/><stop offset=".261" stop-color="#007AF9"/><stop offset=".33" stop-color="#0060E8"/><stop offset=".333" stop-color="#005FE7"/><stop offset=".438" stop-color="#2639AD"/><stop offset=".522" stop-color="#401E84"/><stop offset=".566" stop-color="#4A1475"/></radialGradient><linearGradient id="paint2_linear" x1="0" x2="1" y1="0" y2="0" gradientTransform="matrix(-9.4377 -30.5477 30.8724 -9.33844 8.94723 38.2555)" gradientUnits="userSpaceOnUse"><stop offset="0" stop-color="#000F43" stop-opacity=".4"/><stop offset=".485" stop-color="#001962" stop-opacity=".173"/><stop offset="1" stop-color="#002079" stop-opacity="0"/></linearGradient><radialGradient id="paint3_radial" cx=".5" cy=".5" r=".5" gradientTransform="matrix(32.0773 3.20263 -3.23668 31.7399 0.590805 -19.4824)" gradientUnits="userSpaceOnUse"><stop offset=".003" stop-color="#FFEA00"/><stop offset=".497" stop-color="#FF272D"/><stop offset="1" stop-color="#C42482"/></radialGradient><radialGradient id="paint4_radial" cx=".5" cy=".5" r=".5" gradientTransform="matrix(53.5665 5.34813 -5.40499 53.0031 -16.0164 -34.8253)" gradientUnits="userSpaceOnUse"><stop offset=".003" stop-color="#FFE900"/><stop offset=".157" stop-color="#FFAF0E"/><stop offset=".316" stop-color="#FF7A1B"/><stop offset=".472" stop-color="#FF4E26"/><stop offset=".621" stop-color="#FF2C2E"/><stop offset=".762" stop-color="#FF1434"/><stop offset=".892" stop-color="#FF0538"/><stop offset="1" stop-color="#FF0039"/></radialGradient><radialGradient id="paint5_radial" cx=".5" cy=".5" r=".5" gradientTransform="matrix(49.1531 4.90749 -4.95966 48.6361 3.88963 -26.6329)" gradientUnits="userSpaceOnUse"><stop offset=".003" stop-color="#FF272D"/><stop offset=".497" stop-color="#C42482"/><stop offset=".986" stop-color="#620700"/></radialGradient><radialGradient id="paint6_radial" cx=".5" cy=".5" r=".5" gradientTransform="matrix(77.1214 0 0 76.3102 -3.30259 -19.6165)" gradientUnits="userSpaceOnUse"><stop offset=".156" stop-color="#FFEA00"/><stop offset=".231" stop-color="#FFDE00"/><stop offset=".365" stop-color="#FFBF00"/><stop offset=".541" stop-color="#FF8E00"/><stop offset=".763" stop-color="#FF272D"/><stop offset=".796" stop-color="#F92433"/><stop offset=".841" stop-color="#E91C45"/><stop offset=".893" stop-color="#CF0E62"/><stop offset=".935" stop-color="#B5007F"/></radialGradient><radialGradient id="paint7_radial" cx=".5" cy=".5" r=".5" gradientTransform="matrix(91.0666 0 0 90.1088 -40.9851 -44.9915)" gradientUnits="userSpaceOnUse"><stop offset=".279" stop-color="#FFEA00"/><stop offset=".402" stop-color="#FD0"/><stop offset=".63" stop-color="#FFBA00"/><stop offset=".856" stop-color="#FF9100"/><stop offset=".933" stop-color="#FF6711"/><stop offset=".994" stop-color="#FF4A1D"/></radialGradient><linearGradient id="paint8_linear" x1="0" x2="1" y1="0" y2="0" gradientTransform="matrix(17.5283 -2.60398 2.63166 17.344 -9.39135 -3.84752)" gradientUnits="userSpaceOnUse"><stop offset="0" stop-color="#C42482" stop-opacity=".5"/><stop offset=".474" stop-color="#FF272D" stop-opacity=".5"/><stop offset=".486" stop-color="#FF2C2C" stop-opacity=".513"/><stop offset=".675" stop-color="#FF7A1A" stop-opacity=".72"/><stop offset=".829" stop-color="#FFB20D" stop-opacity=".871"/><stop offset=".942" stop-color="#FFD605" stop-opacity=".964"/><stop offset="1" stop-color="#FFE302"/></linearGradient><linearGradient id="paint9_linear" x1="0" x2="1" y1="0" y2="0" gradientTransform="matrix(-1.98746 -7.0539 7.12888 -1.96656 -0.530286 8.46931)" gradientUnits="userSpaceOnUse"><stop offset="0" stop-color="#891551" stop-opacity=".6"/><stop offset="1" stop-color="#C42482" stop-opacity="0"/></linearGradient><linearGradient id="paint10_linear" x1="0" x2="1" y1="0" y2="0" gradientTransform="matrix(4.08929 5.64699 -5.70702 4.04628 3.678 -1.10667)" gradientUnits="userSpaceOnUse"><stop offset=".005" stop-color="#891551" stop-opacity=".5"/><stop offset=".484" stop-color="#FF272D" stop-opacity=".5"/><stop offset="1" stop-color="#FF272D" stop-opacity="0"/></linearGradient><linearGradient id="paint11_linear" x1="0" x2="1" y1="0" y2="0" gradientTransform="matrix(0.371949 -3.62929 3.66787 0.368037 5.23558 5.06985)" gradientUnits="userSpaceOnUse"><stop offset="0" stop-color="#C42482"/><stop offset=".083" stop-color="#C42482" stop-opacity=".81"/><stop offset=".206" stop-color="#C42482" stop-opacity=".565"/><stop offset=".328" stop-color="#C42482" stop-opacity=".362"/><stop offset=".447" stop-color="#C42482" stop-opacity=".204"/><stop offset=".562" stop-color="#C42482" stop-opacity=".091"/><stop offset=".673" stop-color="#C42482" stop-opacity=".023"/><stop offset=".773" stop-color="#C42482" stop-opacity="0"/></linearGradient><linearGradient id="paint12_linear" x1="0" x2="1" y1="0" y2="0" gradientTransform="matrix(15.0685 33.3412 -33.6956 14.91 17.9574 -6.82966)" gradientUnits="userSpaceOnUse"><stop offset="0" stop-color="#FFF14F"/><stop offset=".268" stop-color="#FFEE4C"/><stop offset=".452" stop-color="#FFE643"/><stop offset=".612" stop-color="#FFD834"/><stop offset=".757" stop-color="#FFC41E"/><stop offset=".892" stop-color="#FFAB02"/><stop offset=".902" stop-color="#FFA900"/><stop offset=".949" stop-color="#FFA000"/><stop offset="1" stop-color="#FF9100"/></linearGradient><linearGradient id="paint13_linear" x1="0" x2="1" y1="0" y2="0" gradientTransform="matrix(-7.13786 18.9634 -19.165 -7.06278 27.2259 5.34651)" gradientUnits="userSpaceOnUse"><stop offset="0" stop-color="#FF8E00"/><stop offset=".04" stop-color="#FF8E00" stop-opacity=".858"/><stop offset=".084" stop-color="#FF8E00" stop-opacity=".729"/><stop offset=".13" stop-color="#FF8E00" stop-opacity=".628"/><stop offset=".178" stop-color="#FF8E00" stop-opacity=".557"/><stop offset=".227" stop-color="#FF8E00" stop-opacity=".514"/><stop offset=".282" stop-color="#FF8E00" stop-opacity=".5"/><stop offset=".389" stop-color="#FF8E00" stop-opacity=".478"/><stop offset=".524" stop-color="#FF8E00" stop-opacity=".416"/><stop offset=".676" stop-color="#FF8E00" stop-opacity=".314"/><stop offset=".838" stop-color="#FF8E00" stop-opacity=".172"/><stop offset="1" stop-color="#FF8E00" stop-opacity="0"/></linearGradient><path id="path0_fill" d="M 1.203 -6.55011e-08C 0.0224396 1.36019 -0.527392 4.42141 0.669687 7.52468C 1.86677 10.6279 3.70158 9.95395 4.84531 13.1185C 6.355 17.2941 5.65229 22.9033 5.65229 22.9033C 5.65229 22.9033 7.46719 28.1037 8.7319 22.5797C 11.5312 12.204 1.203 2.55507 1.203 -6.55011e-08Z"/><path id="path1_fill" d="M 21.8603 43.5149C 33.9502 43.5149 43.7441 33.7715 43.7441 21.7574C 43.7441 9.74331 33.9502 8.93197e-09 21.872 8.93197e-09C 9.79388 8.93197e-09 4.19308e-05 9.74336 4.19308e-05 21.7574C -0.0233751 33.7831 9.7821 43.5149 21.8603 43.5149Z"/><path id="path2_fill" d="M 37.6945 37.2178C 37.2214 37.5481 36.7251 37.8445 36.2094 38.1048C 36.8926 37.1144 37.5228 36.0892 38.0976 35.0336C 38.564 34.5228 38.9912 34.0263 39.3393 33.4895C 39.5088 33.2257 39.6999 32.9003 39.9021 32.5227C 41.1307 30.3325 42.4854 26.7879 42.5238 23.1471L 42.5238 23.1383C 42.5247 23.0487 42.5252 22.9591 42.5245 22.8693C 42.5308 21.9554 42.4364 21.0435 42.2429 20.1499C 42.2528 20.2197 42.2614 20.2895 42.2703 20.3592C 42.2594 20.3056 42.2502 20.2513 42.2386 20.1976C 42.2566 20.2968 42.2711 20.3927 42.2867 20.4894C 42.5378 22.5976 42.3589 24.6539 41.4643 26.1699C 41.4502 26.192 41.4357 26.2128 41.4214 26.2344C 41.8853 23.9303 42.0405 21.3863 41.5244 18.8393C 41.5244 18.8393 41.3179 17.6011 39.7804 13.8422C 38.8953 11.6786 37.3236 9.90483 35.935 8.61258C 34.7178 7.12253 33.6124 6.12258 33.003 5.48771C 31.73 4.16141 31.1965 3.16727 30.9774 2.51858C 30.7875 2.42434 28.3579 0.0889755 28.1649 -8.93197e-08C 27.1045 1.62693 23.7693 6.71585 25.3558 11.4705C 26.0748 13.6253 27.8931 15.8616 29.796 17.1162C 29.8796 17.2106 30.9284 18.3378 31.4271 20.8799C 31.9421 23.5064 31.6714 25.5558 30.6114 28.5864C 29.3649 31.2452 26.1712 33.8736 23.1809 34.1425C 16.788 34.7172 14.4476 30.9665 14.4476 30.9665C 16.7319 31.8702 19.2576 31.6812 20.7936 30.7443C 22.3416 29.7967 23.278 29.0942 24.038 29.3712C 24.7873 29.647 25.3838 28.8465 24.8485 28.0167C 24.4352 27.3867 23.8437 26.8909 23.1477 26.5911C 22.4517 26.2912 21.6819 26.2005 20.9342 26.3302C 19.3846 26.5795 17.9651 27.7941 15.9347 26.6177C 15.8033 26.5423 15.6761 26.4599 15.5536 26.3708C 15.4198 26.2837 15.9888 26.5034 15.856 26.4044C 15.4609 26.192 14.7616 25.7292 14.5801 25.5645C 14.5499 25.5371 14.8867 25.6708 14.8565 25.6434C 12.958 24.0964 13.1951 23.0515 13.2548 22.396C 13.3025 21.8717 13.6474 21.1998 14.2285 20.9273C 14.5091 21.0788 14.684 21.1945 14.684 21.1945C 14.684 21.1945 14.5643 20.9525 14.4996 20.825C 14.5223 20.8152 14.5439 20.8178 14.5665 20.8083C 14.7965 20.9181 15.3049 21.2034 15.5726 21.3774C 15.9212 21.6207 16.0323 21.8377 16.0323 21.8377C 16.0323 21.8377 16.1241 21.7877 16.0562 21.5755C 16.0316 21.4885 15.9258 21.2119 15.5804 20.9329L 15.602 20.9353C 15.8087 21.0518 16.0045 21.1863 16.187 21.3373C 16.2844 20.987 16.4595 20.6212 16.421 19.9669C 16.3975 19.5069 16.4083 19.3877 16.3264 19.2101C 16.253 19.0575 16.3675 18.998 16.4949 19.1564C 16.4731 19.0323 16.4366 18.9111 16.3861 18.7955L 16.3871 18.7836C 16.5461 18.2355 19.7517 16.8098 19.985 16.6432C 20.3684 16.3748 20.6899 16.029 20.9282 15.6286C 21.1065 15.3475 21.2406 14.9531 21.2733 14.3548C 21.2908 13.9234 21.088 13.6361 17.8467 13.3003C 16.9602 13.2139 16.4401 12.5783 16.1446 11.9918C 16.0907 11.8655 16.0357 11.751 15.9807 11.6366C 15.9282 11.5029 15.886 11.3654 15.8546 11.2254C 16.3845 9.71936 17.2749 8.446 18.5841 7.4839C 18.6554 7.41961 18.2991 7.50039 18.3703 7.4361C 18.4535 7.36107 18.9967 7.14453 19.0993 7.09575C 19.2246 7.03722 18.5629 6.75917 17.9787 6.82688C 17.3837 6.89322 17.2573 6.96346 16.9398 7.09668C 17.0716 6.96688 17.4906 6.79673 17.3923 6.79785C 16.7509 6.89517 15.9539 7.2641 15.2725 7.68195C 15.2712 7.60919 15.2852 7.53695 15.3137 7.46985C 14.9961 7.60312 14.2163 8.14244 13.9892 8.59873C 13.999 8.51127 14.0034 8.4233 14.0023 8.33532C 13.7605 8.53494 13.5422 8.76106 13.3518 9.00936L 13.34 9.02005C 11.4983 8.2859 9.87755 8.23839 8.50605 8.56756C 8.20602 8.26941 8.05945 8.48736 7.37676 7.00322C 7.33037 6.91385 7.41235 7.09146 7.37676 7.00322C 7.26446 6.71541 7.44524 7.38722 7.37676 7.00322C 6.22888 7.89941 4.71856 8.91507 3.99357 9.632C 3.98459 9.66058 4.83934 9.39297 3.99357 9.632C 3.69738 9.71571 3.71749 9.88961 3.67248 11.4613C 3.66163 11.5804 3.67125 11.7139 3.66149 11.8212C 3.08232 12.5513 2.68788 13.1696 2.5387 13.49C 1.7897 14.7671 0.964782 16.7579 0.165152 19.9071C 0.517855 19.0535 0.943087 18.231 1.43628 17.4485C 0.771332 19.1201 0.128523 21.745 9.32782e-08 25.7873C 0.160854 24.9532 0.367109 24.1282 0.617864 23.3161C 0.460884 26.6697 1.04536 30.0169 2.33051 33.1239C 2.79042 34.2372 3.55116 35.9266 4.84619 37.7776C 8.91499 42.0136 14.654 44.6508 21.009 44.6508C 27.6432 44.6508 33.6007 41.7787 37.6945 37.2178Z"/><path id="path3_fill" d="M 1.12775 9.26958C 9.15708 8.34958 12.7115 0.162262 8.14699 0.00128593C 4.02397 -0.129104 -2.67548 9.70372 1.12775 9.26958Z"/><path id="path4_fill" d="M 1.67762 10.0527C 7.20187 6.87151 5.7615 -2.85823e-07 5.7615 -2.85823e-07C 5.7615 -2.85823e-07 3.62951 2.45063 2.18116 6.35707C 0.750451 10.2253 -1.64366 11.974 1.67762 10.0527Z"/><path id="path5_fill" d="M 0.77932 5.90325C 8.48116 8.33501 15.1007 2.33154 11.0204 0.326666C 7.31055 -1.48143 -2.8762 4.7534 0.77932 5.90325Z"/><path id="path6_fill" d="M 43.2278 33.5724C 43.4151 33.3108 43.6685 32.4731 43.8923 32.0987C 45.2521 29.9268 45.2617 28.1951 45.2617 28.1555C 46.083 24.096 46.0085 22.4384 45.5033 19.3729C 45.0965 16.9046 43.3183 13.3684 41.7778 11.6656C 40.1903 9.91117 41.3087 10.4828 39.7717 9.20127C 38.4245 7.72356 37.1183 6.26024 36.4069 5.67175C 31.2662 1.41922 31.3823 0.515951 31.4813 0.361951C 31.4646 0.380049 31.4401 0.406927 31.4087 0.442097C 31.3479 0.201951 31.3049 0 31.3049 0C 31.3049 0 28.4948 2.78049 27.9032 7.41463C 27.517 10.44 28.6616 13.5939 30.3189 15.6098C 31.1819 16.6544 32.1572 17.6031 33.2275 18.439L 33.2275 18.4378C 34.4797 20.2171 35.1689 22.4128 35.1689 24.7748C 35.1689 30.6891 30.3208 35.4836 24.3403 35.4836C 23.5252 35.484 22.7127 35.3937 21.918 35.2144C 19.0964 34.6823 17.4669 33.2738 16.6543 32.3177C 16.1886 31.7697 15.9905 31.3702 15.9905 31.3702C 18.5187 32.2664 21.3141 32.0789 23.0141 31.1498C 24.7272 30.2101 25.7637 29.5135 26.6049 29.7881C 27.4341 30.0616 28.0942 29.2678 27.5021 28.4449C 26.9218 27.6232 25.4118 26.4464 23.1698 26.7724C 21.4547 27.0196 19.8837 28.2241 17.6365 27.0576C 17.4918 26.9831 17.351 26.9014 17.2148 26.8127C 17.0666 26.7263 17.6963 26.9441 17.5494 26.8459C 17.1121 26.6353 16.3379 26.1763 16.1373 26.0131C 16.1038 25.9859 16.4766 26.1185 16.4429 26.0911C 14.3418 24.557 14.6041 23.5207 14.6702 22.8707C 14.7231 22.3507 15.1047 21.6844 15.7478 21.4141C 16.0584 21.5644 16.252 21.6792 16.252 21.6792C 16.252 21.6792 16.1194 21.4392 16.0478 21.3127C 16.0729 21.3032 16.0968 21.3056 16.1218 21.2961C 16.3762 21.405 16.9389 21.6878 17.2352 21.8605C 17.6211 22.1018 17.7441 22.317 17.7441 22.317C 17.7441 22.317 17.8457 22.2675 17.7705 22.057C 17.7431 21.9707 17.6261 21.6965 17.2439 21.4197L 17.2678 21.4221C 17.4947 21.5365 17.7113 21.6699 17.9153 21.8208C 18.0231 21.4734 18.2169 21.1107 18.1743 20.4618C 18.1482 20.0056 18.1603 19.8874 18.0696 19.7113C 17.9884 19.56 18.1151 19.5009 18.256 19.6582C 18.2316 19.5342 18.1911 19.4138 18.1355 19.3L 18.1368 19.2882C 18.3128 18.7446 21.8606 17.3309 22.1188 17.1656C 22.5349 16.9072 22.8907 16.5641 23.1627 16.1593C 23.3599 15.8805 23.5085 15.4894 23.5447 14.8961C 23.5568 14.6288 23.4736 14.4172 22.534 14.2149C 21.9701 14.0934 21.0977 13.9752 19.7519 13.8503C 18.7709 13.7646 18.1952 13.1344 17.8681 12.5527C 17.8084 12.4274 17.7476 12.3137 17.6867 12.2004C 17.6288 12.0686 17.5822 11.9322 17.5471 11.7926C 18.1342 10.2719 19.1914 8.97345 20.5681 8.08224C 20.647 8.01844 20.2526 8.09858 20.3315 8.03483C 20.4236 7.96044 21.0248 7.74571 21.1384 7.69732C 21.2771 7.63946 20.5446 7.36366 19.8981 7.43068C 19.2396 7.49649 19.0997 7.5661 18.7483 7.69829C 18.8941 7.56956 19.3579 7.40073 19.2492 7.40195C 18.5393 7.49844 17.6568 7.86434 16.9026 8.27868C 16.9012 8.20603 16.9168 8.13405 16.9481 8.06834C 16.5967 8.20049 15.7335 8.73536 15.4823 9.18785C 15.4931 9.10122 15.4979 9.01396 15.4968 8.92668C 15.2321 9.12185 14.9906 9.34604 14.777 9.59497L 14.7638 9.60561C 12.7255 8.87756 10.9317 8.83044 9.41379 9.15683C 9.08172 8.86117 8.54781 8.4141 7.79225 6.94219C 7.74093 6.85356 7.71337 7.12536 7.67393 7.03785C 7.38036 6.36405 7.20298 5.2601 7.23212 4.49902C 7.23212 4.49902 6.62485 4.77288 6.12225 5.91658C 6.02892 6.12219 5.96908 6.23561 5.90928 6.34902C 5.88177 6.3821 5.97164 5.97341 5.95729 5.99566C 5.86993 6.142 5.64395 6.34649 5.54461 6.61117C 5.47638 6.80732 5.38069 6.91717 5.31961 7.1618L 5.30526 7.18424C 5.30033 7.11214 5.32336 6.88761 5.3066 6.93366C 5.07101 7.40461 4.86828 7.89097 4.69982 8.38932C 4.42922 9.26961 4.1142 10.4679 4.06426 12.0266C 4.05223 12.1448 4.06293 12.2772 4.05208 12.3836C 3.4112 13.1077 2.97451 13.7208 2.8094 14.0386C 1.98083 15.3055 1.06782 17.2798 0.182751 20.4029C 0.576527 19.5498 1.04741 18.7336 1.58965 17.9644C 0.853662 19.6221 0.142228 22.2253 0 26.2341C 0.178651 25.4045 0.407013 24.5862 0.683876 23.7834C 0.556783 26.4566 0.871459 29.7707 2.57937 33.5099C 3.59345 35.7093 5.92781 40.1757 11.6317 43.6611L 11.6312 43.6615C 11.6312 43.6615 13.5716 45.0907 16.907 46.1619C 17.1535 46.2504 17.4032 46.3375 17.658 46.422C 17.5781 46.3901 17.5007 46.3565 17.4256 46.3219C 19.6457 46.9801 21.9507 47.3153 24.2683 47.3171C 32.9045 47.3243 35.4516 43.8927 35.4516 43.8927C 35.4516 43.8927 35.4426 43.8994 35.4263 43.9111C 35.5481 43.7975 35.6655 43.6795 35.7784 43.5571C 34.4158 44.8302 31.3063 44.9147 30.1435 44.8229C 32.1265 44.2466 33.4313 43.7592 35.9694 42.7975C 36.2665 42.6886 36.5702 42.5644 36.8806 42.4249C 36.9142 42.4102 36.948 42.3944 36.9818 42.3792C 37.0433 42.3508 37.1043 42.324 37.1665 42.2941C 38.4031 41.7175 39.5659 40.9972 40.6303 40.1484C 43.1791 38.1338 43.7336 36.17 44.0235 34.8753C 43.9831 34.9994 43.8571 35.2887 43.7686 35.476C 43.1122 36.8654 41.6566 37.7179 40.0758 38.4491C 40.828 37.4725 41.5256 36.4558 42.1654 35.4036C 42.6815 34.8971 42.8425 34.1048 43.2278 33.5724Z"/><path id="path7_fill" d="M 12.3168 39.0723C 13.3561 37.9386 14.2893 36.6418 14.9962 35.1714C 16.8153 31.3869 19.6279 25.0943 17.4127 18.5223C 15.662 13.328 13.2582 10.4878 10.2062 7.71327C 5.24944 3.20761 3.86507 1.19615 3.86507 0C 3.86507 0 -1.858 6.31263 0.624056 12.8966C 3.10611 19.4806 8.18948 19.2393 11.5526 26.11C 15.5101 34.1951 8.35069 43.018 2.43013 45.4874C 2.79262 45.4078 15.5915 42.5419 16.2641 35.2981C 16.2489 35.4313 15.9605 37.4348 12.3168 39.0723Z"/><path id="path8_fill" d="M 6.6399 3.09288C 6.65927 2.66507 6.43501 2.37776 2.85955 2.0459C 1.38852 1.91151 0.825227 0.566195 0.653519 -2.85823e-07C 0.130456 1.34463 -0.0855219 2.75561 0.0305773 4.46229C 0.109949 5.58034 0.869104 6.78039 1.23199 7.48497C 1.23199 7.48497 1.31265 7.38127 1.34987 7.34293C 2.0332 6.63897 4.89624 5.56639 5.16522 5.4141C 5.4617 5.22878 6.59011 4.41297 6.6399 3.09288Z"/><path id="path9_fill" d="M 3.75829 2.442C 3.70696 2.35332 3.67941 2.62512 3.63997 2.53766C 3.34639 1.86385 3.16778 0.771805 3.21008 1.78639e-07C 3.21008 1.78639e-07 2.60282 0.273854 2.10021 1.41756C 2.00689 1.62317 1.94704 1.73659 1.88724 1.85C 1.85973 1.88307 1.9496 1.47439 1.93526 1.49663C 1.84795 1.64298 1.62196 1.84746 1.52381 2.10029C 1.44241 2.30707 1.35871 2.4181 1.29639 2.67454C 1.27721 2.74424 1.31572 2.3661 1.29895 2.41215C 0.130026 4.64751 -0.0931012 8.02746 0.030097 7.88453C 2.51861 5.25527 5.37041 4.63171 5.37041 4.63171C 5.06698 4.41054 4.4077 3.77195 3.75833 2.442L 3.75829 2.442Z"/><path id="path10_fill" d="M 7.20171 13.1669C 3.76438 11.7148 -0.143452 9.66667 0.00405113 5.01384C 0.204945 -1.11392 5.77919 0.0972051 5.77919 0.0972051C 5.56883 0.147888 5.00642 0.544132 4.80711 0.966473C 4.59645 1.49462 4.21212 2.68725 5.37656 3.9372C 7.20501 5.89779 1.61997 8.58872 10.2405 13.6722C 10.458 13.7893 8.21973 13.6024 7.20181 13.1669L 7.20171 13.1669Z"/><path id="path11_fill" d="M 4.40702 4.56449C 6.84446 5.40385 9.68399 5.25663 11.384 4.32751C 12.522 3.70063 13.982 2.69658 14.8804 2.94444C 14.1026 2.64024 13.5135 2.4981 12.8049 2.46337C 12.6842 2.46337 12.5395 2.46083 12.4081 2.44776C 12.1486 2.44692 11.8892 2.46098 11.6313 2.48985C 11.1925 2.52975 10.7062 2.80366 10.264 2.75971C 10.2401 2.75732 10.6929 2.57561 10.6561 2.58385C 10.4218 2.63219 10.1673 2.64263 9.89834 2.67561C 9.72742 2.69444 9.58041 2.71561 9.41072 2.72259C 4.33381 3.14859 0.0430727 -1.04802e-06 0.0430727 -1.04802e-06C -0.322134 1.21707 1.67813 3.62439 4.40707 4.56449L 4.40702 4.56449Z"/><path id="path12_fill" d="M 10.6345 37.9681C 15.7696 32.9793 18.3677 26.9152 17.2693 20.1135C 17.2693 20.1135 17.7081 23.6013 16.0443 27.1685C 16.8436 23.6859 16.9367 19.3581 14.8131 14.8764C 11.9788 8.89444 7.31729 5.74678 5.53764 4.43361C 2.84123 2.4439 1.72347 0.418049 1.70331 -3.72165e-08C 0.897815 1.63302 -1.53889 7.22927 1.44153 12.0488C 4.23383 16.5641 8.63253 17.9043 11.7119 22.0462C 17.385 29.6764 10.6345 37.9681 10.6345 37.9681Z"/><path id="path13_fill" d="M 23.4572 7.00249C 21.6626 3.33415 19.4227 1.73415 17.304 0C 17.5504 0.341463 17.6112 0.462097 17.7476 0.682927C 19.6125 2.64956 22.3624 7.44663 20.3659 13.4686C 16.6079 24.804 1.57594 19.4662 0 17.9668C 0.637535 24.5272 11.7349 27.6665 18.9604 23.4121C 23.0719 19.561 26.398 13.014 23.4572 7.00249Z"/></defs></svg>