<svg xmlns="http://www.w3.org/2000/svg" xmlns:xlink="http://www.w3.org/1999/xlink" width="50" height="51" version="1.1" viewBox="0 0 50 51"><title>safari-seeklogo.com</title><desc>Created using Figma</desc><g id="Canvas" transform="translate(-17620 259)"><g id="safari-seeklogo.com"><g id="Group"><g id="Group"><g id="Vector" filter="url(#filter0_d)"><use fill="url(#paint0_linear)" transform="translate(17621 -258)" xlink:href="#path0_fill"/></g><g id="Vector"><use fill="url(#paint1_radial)" transform="translate(17622.8 -256.2)" xlink:href="#path1_fill"/></g><g id="Group"><g id="Vector"><use fill="#F3F3F3" transform="translate(17644.8 -255.244)" xlink:href="#path2_fill"/></g><g id="Vector"><use fill="#FFF" transform="translate(17644.7 -255.262)" xlink:href="#path3_fill"/></g><g id="Vector"><use fill="#F3F3F3" transform="translate(17646.7 -255.171)" xlink:href="#path4_fill"/></g><g id="Vector"><use fill="#FFF" transform="translate(17646.6 -255.189)" xlink:href="#path5_fill"/></g><g id="Vector"><use fill="#F3F3F3" transform="translate(17648.1 -254.84)" xlink:href="#path6_fill"/></g><g id="Vector"><use fill="#FFF" transform="translate(17648.1 -254.857)" xlink:href="#path7_fill"/></g><g id="Vector"><use fill="#F3F3F3" transform="translate(17650.4 -254.372)" xlink:href="#path8_fill"/></g><g id="Vector"><use fill="#FFF" transform="translate(17650.3 -254.39)" xlink:href="#path9_fill"/></g><g id="Vector"><use fill="#F3F3F3" transform="translate(17651.3 -253.642)" xlink:href="#path10_fill"/></g><g id="Vector"><use fill="#FFF" transform="translate(17651.3 -253.653)" xlink:href="#path11_fill"/></g><g id="Vector"><use fill="#F3F3F3" transform="translate(17653.9 -252.765)" xlink:href="#path12_fill"/></g><g id="Vector"><use fill="#FFF" transform="translate(17653.9 -252.802)" xlink:href="#path13_fill"/></g><g id="Vector"><use fill="#F3F3F3" transform="translate(17654.3 -251.669)" xlink:href="#path14_fill"/></g><g id="Vector"><use fill="#FFF" transform="translate(17654.3 -251.696)" xlink:href="#path15_fill"/></g><g id="Vector"><use fill="#F3F3F3" transform="translate(17657 -250.466)" xlink:href="#path16_fill"/></g><g id="Vector"><use fill="#FFF" transform="translate(17657 -250.499)" xlink:href="#path17_fill"/></g><g id="Vector"><use fill="#F3F3F3" transform="translate(17656.9 -249.021)" xlink:href="#path18_fill"/></g><g id="Vector"><use fill="#FFF" transform="translate(17656.8 -249.047)" xlink:href="#path19_fill"/></g><g id="Vector"><use fill="#F3F3F3" transform="translate(17659.7 -247.523)" xlink:href="#path20_fill"/></g><g id="Vector"><use fill="#FFF" transform="translate(17659.7 -247.555)" xlink:href="#path21_fill"/></g><g id="Vector"><use fill="#F3F3F3" transform="translate(17659 -245.852)" xlink:href="#path22_fill"/></g><g id="Vector"><use fill="#FFF" transform="translate(17658.9 -245.901)" xlink:href="#path23_fill"/></g><g id="Vector"><use fill="#F3F3F3" transform="translate(17661.8 -244.14)" xlink:href="#path24_fill"/></g><g id="Vector"><use fill="#FFF" transform="translate(17661.7 -244.14)" xlink:href="#path25_fill"/></g><g id="Vector"><use fill="#F3F3F3" transform="translate(17660.5 -242.25)" xlink:href="#path26_fill"/></g><g id="Vector"><use fill="#FFF" transform="translate(17660.5 -242.269)" xlink:href="#path27_fill"/></g><g id="Vector"><use fill="#F3F3F3" transform="translate(17663.2 -240.354)" xlink:href="#path28_fill"/></g><g id="Vector"><use fill="#FFF" transform="translate(17663.2 -240.354)" xlink:href="#path29_fill"/></g><g id="Vector"><use fill="#F3F3F3" transform="translate(17661.5 -238.282)" xlink:href="#path30_fill"/></g><g id="Vector"><use fill="#FFF" transform="translate(17661.5 -238.32)" xlink:href="#path31_fill"/></g><g id="Vector"><use fill="#F3F3F3" transform="translate(17663.9 -236.271)" xlink:href="#path32_fill"/></g><g id="Vector"><use fill="#FFF" transform="translate(17663.9 -236.308)" xlink:href="#path33_fill"/></g><g id="Vector"><use fill="#F3F3F3" transform="translate(17661.8 -234.225)" xlink:href="#path34_fill"/></g><g id="Vector"><use fill="#FFF" transform="translate(17661.8 -234.244)" xlink:href="#path35_fill"/></g><g id="Vector"><use fill="#F3F3F3" transform="translate(17663.9 -232.312)" xlink:href="#path36_fill"/></g><g id="Vector"><use fill="#FFF" transform="translate(17663.9 -232.331)" xlink:href="#path37_fill"/></g><g id="Vector"><use fill="#F3F3F3" transform="translate(17661.5 -230.909)" xlink:href="#path38_fill"/></g><g id="Vector"><use fill="#FFF" transform="translate(17661.4 -230.927)" xlink:href="#path39_fill"/></g><g id="Vector"><use fill="#F3F3F3" transform="translate(17663.1 -228.646)" xlink:href="#path40_fill"/></g><g id="Vector"><use fill="#FFF" transform="translate(17663.1 -228.652)" xlink:href="#path41_fill"/></g><g id="Vector"><use fill="#F3F3F3" transform="translate(17660.5 -227.703)" xlink:href="#path42_fill"/></g><g id="Vector"><use fill="#FFF" transform="translate(17660.5 -227.737)" xlink:href="#path43_fill"/></g><g id="Vector"><use fill="#F3F3F3" transform="translate(17661.7 -225.153)" xlink:href="#path44_fill"/></g><g id="Vector"><use fill="#FFF" transform="translate(17661.7 -225.183)" xlink:href="#path45_fill"/></g><g id="Vector"><use fill="#F3F3F3" transform="translate(17658.9 -224.771)" xlink:href="#path46_fill"/></g><g id="Vector"><use fill="#FFF" transform="translate(17658.9 -224.794)" xlink:href="#path47_fill"/></g><g id="Vector"><use fill="#F3F3F3" transform="translate(17659.6 -222.034)" xlink:href="#path48_fill"/></g><g id="Vector"><use fill="#FFF" transform="translate(17659.6 -222.059)" xlink:href="#path49_fill"/></g><g id="Vector"><use fill="#F3F3F3" transform="translate(17656.8 -222.197)" xlink:href="#path50_fill"/></g><g id="Vector"><use fill="#FFF" transform="translate(17656.8 -222.216)" xlink:href="#path51_fill"/></g><g id="Vector"><use fill="#F3F3F3" transform="translate(17656.9 -219.387)" xlink:href="#path52_fill"/></g><g id="Vector"><use fill="#FFF" transform="translate(17656.9 -219.394)" xlink:href="#path53_fill"/></g><g id="Vector"><use fill="#F3F3F3" transform="translate(17654.2 -220.083)" xlink:href="#path54_fill"/></g><g id="Vector"><use fill="#FFF" transform="translate(17654.2 -220.102)" xlink:href="#path55_fill"/></g><g id="Vector"><use fill="#F3F3F3" transform="translate(17653.8 -217.294)" xlink:href="#path56_fill"/></g><g id="Vector"><use fill="#FFF" transform="translate(17653.8 -217.313)" xlink:href="#path57_fill"/></g><g id="Vector"><use fill="#F3F3F3" transform="translate(17651.3 -218.515)" xlink:href="#path58_fill"/></g><g id="Vector"><use fill="#FFF" transform="translate(17651.3 -218.534)" xlink:href="#path59_fill"/></g><g id="Vector"><use fill="#F3F3F3" transform="translate(17650.3 -215.85)" xlink:href="#path60_fill"/></g><g id="Vector"><use fill="#FFF" transform="translate(17650.3 -215.869)" xlink:href="#path61_fill"/></g><g id="Vector"><use fill="#F3F3F3" transform="translate(17648.1 -217.546)" xlink:href="#path62_fill"/></g><g id="Vector"><use fill="#FFF" transform="translate(17648.1 -217.564)" xlink:href="#path63_fill"/></g><g id="Vector"><use fill="#F3F3F3" transform="translate(17646.6 -215.102)" xlink:href="#path64_fill"/></g><g id="Vector"><use fill="#FFF" transform="translate(17646.6 -215.121)" xlink:href="#path65_fill"/></g><g id="Vector"><use fill="#F3F3F3" transform="translate(17644.7 -217.2)" xlink:href="#path66_fill"/></g><g id="Vector"><use fill="#FFF" transform="translate(17644.7 -217.219)" xlink:href="#path67_fill"/></g><g id="Vector"><use fill="#F3F3F3" transform="translate(17642.7 -215.102)" xlink:href="#path68_fill"/></g><g id="Vector"><use fill="#FFF" transform="translate(17642.6 -215.121)" xlink:href="#path69_fill"/></g><g id="Vector"><use fill="#F3F3F3" transform="translate(17640.6 -217.54)" xlink:href="#path70_fill"/></g><g id="Vector"><use fill="#FFF" transform="translate(17640.6 -217.559)" xlink:href="#path71_fill"/></g><g id="Vector"><use fill="#F3F3F3" transform="translate(17638.6 -215.86)" xlink:href="#path72_fill"/></g><g id="Vector"><use fill="#FFF" transform="translate(17638.6 -215.877)" xlink:href="#path73_fill"/></g><g id="Vector"><use fill="#F3F3F3" transform="translate(17636.6 -218.524)" xlink:href="#path74_fill"/></g><g id="Vector"><use fill="#FFF" transform="translate(17636.6 -218.542)" xlink:href="#path75_fill"/></g><g id="Vector"><use fill="#F3F3F3" transform="translate(17634.8 -217.327)" xlink:href="#path76_fill"/></g><g id="Vector"><use fill="#FFF" transform="translate(17634.8 -217.346)" xlink:href="#path77_fill"/></g><g id="Vector"><use fill="#F3F3F3" transform="translate(17633 -220.121)" xlink:href="#path78_fill"/></g><g id="Vector"><use fill="#FFF" transform="translate(17633 -220.14)" xlink:href="#path79_fill"/></g><g id="Vector"><use fill="#F3F3F3" transform="translate(17631.4 -219.435)" xlink:href="#path80_fill"/></g><g id="Vector"><use fill="#FFF" transform="translate(17631.3 -219.468)" xlink:href="#path81_fill"/></g><g id="Vector"><use fill="#F3F3F3" transform="translate(17629.8 -222.272)" xlink:href="#path82_fill"/></g><g id="Vector"><use fill="#FFF" transform="translate(17629.8 -222.291)" xlink:href="#path83_fill"/></g><g id="Vector"><use fill="#F3F3F3" transform="translate(17628.5 -222.135)" xlink:href="#path84_fill"/></g><g id="Vector"><use fill="#FFF" transform="translate(17628.4 -222.168)" xlink:href="#path85_fill"/></g><g id="Vector"><use fill="#F3F3F3" transform="translate(17627.2 -224.852)" xlink:href="#path86_fill"/></g><g id="Vector"><use fill="#FFF" transform="translate(17627.2 -224.882)" xlink:href="#path87_fill"/></g><g id="Vector"><use fill="#F3F3F3" transform="translate(17626.2 -225.277)" xlink:href="#path88_fill"/></g><g id="Vector"><use fill="#FFF" transform="translate(17626.2 -225.296)" xlink:href="#path89_fill"/></g><g id="Vector"><use fill="#F3F3F3" transform="translate(17625.3 -227.796)" xlink:href="#path90_fill"/></g><g id="Vector"><use fill="#FFF" transform="translate(17625.3 -227.831)" xlink:href="#path91_fill"/></g><g id="Vector"><use fill="#F3F3F3" transform="translate(17624.6 -228.75)" xlink:href="#path92_fill"/></g><g id="Vector"><use fill="#FFF" transform="translate(17624.6 -228.778)" xlink:href="#path93_fill"/></g><g id="Vector"><use fill="#F3F3F3" transform="translate(17624.1 -231.021)" xlink:href="#path94_fill"/></g><g id="Vector"><use fill="#FFF" transform="translate(17624.1 -231.045)" xlink:href="#path95_fill"/></g><g id="Vector"><use fill="#F3F3F3" transform="translate(17623.8 -232.483)" xlink:href="#path96_fill"/></g><g id="Vector"><use fill="#FFF" transform="translate(17623.8 -232.502)" xlink:href="#path97_fill"/></g><g id="Vector"><use fill="#F3F3F3" transform="translate(17623.8 -234.337)" xlink:href="#path98_fill"/></g><g id="Vector"><use fill="#FFF" transform="translate(17623.7 -234.356)" xlink:href="#path99_fill"/></g><g id="Vector"><use fill="#E2E2E2" transform="translate(17623.8 -236.381)" xlink:href="#path100_fill"/></g><g id="Vector"><use fill="#FFF" transform="translate(17623.8 -236.4)" xlink:href="#path101_fill"/></g><g id="Vector"><use fill="#F3F3F3" transform="translate(17624.2 -238.427)" xlink:href="#path102_fill"/></g><g id="Vector"><use fill="#FFF" transform="translate(17624.1 -238.446)" xlink:href="#path103_fill"/></g><g id="Vector"><use fill="#F3F3F3" transform="translate(17624.6 -240.383)" xlink:href="#path104_fill"/></g><g id="Vector"><use fill="#FFF" transform="translate(17624.6 -240.408)" xlink:href="#path105_fill"/></g><g id="Vector"><use fill="#F3F3F3" transform="translate(17625.3 -242.346)" xlink:href="#path106_fill"/></g><g id="Vector"><use fill="#FFF" transform="translate(17625.3 -242.362)" xlink:href="#path107_fill"/></g><g id="Vector"><use fill="#F3F3F3" transform="translate(17626.2 -244.184)" xlink:href="#path108_fill"/></g><g id="Vector"><use fill="#FFF" transform="translate(17626.2 -244.196)" xlink:href="#path109_fill"/></g><g id="Vector"><use fill="#F3F3F3" transform="translate(17627.3 -245.94)" xlink:href="#path110_fill"/></g><g id="Vector"><use fill="#FFF" transform="translate(17627.3 -245.963)" xlink:href="#path111_fill"/></g><g id="Vector"><use fill="#F3F3F3" transform="translate(17628.5 -247.572)" xlink:href="#path112_fill"/></g><g id="Vector"><use fill="#FFF" transform="translate(17628.5 -247.596)" xlink:href="#path113_fill"/></g><g id="Vector"><use fill="#F3F3F3" transform="translate(17629.9 -249.103)" xlink:href="#path114_fill"/></g><g id="Vector"><use fill="#FFF" transform="translate(17629.9 -249.122)" xlink:href="#path115_fill"/></g><g id="Vector"><use fill="#F3F3F3" transform="translate(17631.4 -250.456)" xlink:href="#path116_fill"/></g><g id="Vector"><use fill="#FFF" transform="translate(17631.4 -250.501)" xlink:href="#path117_fill"/></g><g id="Vector"><use fill="#F3F3F3" transform="translate(17633.1 -251.715)" xlink:href="#path118_fill"/></g><g id="Vector"><use fill="#FFF" transform="translate(17633 -251.733)" xlink:href="#path119_fill"/></g><g id="Vector"><use fill="#F3F3F3" transform="translate(17634.8 -252.769)" xlink:href="#path120_fill"/></g><g id="Vector"><use fill="#FFF" transform="translate(17634.8 -252.769)" xlink:href="#path121_fill"/></g><g id="Vector"><use fill="#F3F3F3" transform="translate(17636.7 -253.634)" xlink:href="#path122_fill"/></g><g id="Vector"><use fill="#FFF" transform="translate(17636.6 -253.653)" xlink:href="#path123_fill"/></g><g id="Vector"><use fill="#F3F3F3" transform="translate(17638.6 -254.336)" xlink:href="#path124_fill"/></g><g id="Vector"><use fill="#FFF" transform="translate(17638.6 -254.362)" xlink:href="#path125_fill"/></g><g id="Vector"><use fill="#F3F3F3" transform="translate(17640.6 -254.84)" xlink:href="#path126_fill"/></g><g id="Vector"><use fill="#FFF" transform="translate(17640.5 -254.857)" xlink:href="#path127_fill"/></g><g id="Vector"><use fill="#F3F3F3" transform="translate(17642.6 -255.152)" xlink:href="#path128_fill"/></g><g id="Vector"><use fill="#FFF" transform="translate(17642.5 -255.171)" xlink:href="#path129_fill"/></g><g id="Vector"><use fill="url(#paint130_linear)" fill-opacity=".2" transform="translate(17622.9 -256.219)" xlink:href="#path130_fill"/></g></g><g id="Vector" filter="url(#filter1_d)"><use fill="#000" fill-opacity=".05" transform="translate(17631.4 -248.1)" xlink:href="#path131_fill"/></g><g id="Vector"><use fill="#CD151E" transform="translate(17642.5 -249.169)" xlink:href="#path132_fill"/></g><g id="Vector"><use fill="#FA5153" transform="translate(17642.5 -249.169)" xlink:href="#path133_fill"/></g><g id="Vector"><use fill="#ACACAC" transform="translate(17630 -236.625)" xlink:href="#path134_fill"/></g><g id="Vector"><use fill="#EEE" transform="translate(17630 -236.625)" xlink:href="#path135_fill"/></g></g></g></g></g><defs><filter id="filter0_d" width="50" height="51" x="17620" y="-259" color-interpolation-filters="sRGB" filterUnits="userSpaceOnUse"><feFlood flood-opacity="0" result="BackgroundImageFix"/><feColorMatrix in="SourceAlpha" type="matrix" values="0 0 0 0 0 0 0 0 0 0 0 0 0 0 0 0 0 0 255 0"/><feOffset dx="0" dy=".387"/><feGaussianBlur stdDeviation=".387"/><feColorMatrix type="matrix" values="0 0 0 0 0 0 0 0 0 0 0 0 0 0 0 0 0 0 0.266007 0"/><feBlend in2="BackgroundImageFix" mode="normal" result="effect1_dropShadow"/><feBlend in="SourceGraphic" in2="effect1_dropShadow" mode="normal" result="shape"/></filter><filter id="filter1_d" width="32" height="32" x="17630" y="-249" color-interpolation-filters="sRGB" filterUnits="userSpaceOnUse"><feFlood flood-opacity="0" result="BackgroundImageFix"/><feColorMatrix in="SourceAlpha" type="matrix" values="0 0 0 0 0 0 0 0 0 0 0 0 0 0 0 0 0 0 255 0"/><feOffset dx="0" dy=".194"/><feGaussianBlur stdDeviation=".387"/><feColorMatrix type="matrix" values="0 0 0 0 0 0 0 0 0 0 0 0 0 0 0 0 0 0 1 0"/><feBlend in2="BackgroundImageFix" mode="normal" result="effect1_dropShadow"/><feBlend in="SourceGraphic" in2="effect1_dropShadow" mode="normal" result="shape"/></filter><linearGradient id="paint0_linear" x1="0" x2="1" y1="0" y2="0" gradientTransform="matrix(0 -48 48 0 8.52651e-14 48)" gradientUnits="userSpaceOnUse"><stop offset=".25" stop-color="#DBDBDA"/><stop offset="1" stop-color="#FFF"/></linearGradient><radialGradient id="paint1_radial" cx=".5" cy=".5" r=".5" gradientTransform="matrix(54.196 0 0 54.196 -1.77873 -9.77458)" gradientUnits="userSpaceOnUse"><stop offset="0" stop-color="#2ABCE1"/><stop offset=".114" stop-color="#2ABBE1"/><stop offset="1" stop-color="#3375F8"/></radialGradient><linearGradient id="paint130_linear" x1="0" x2="1" y1="0" y2="0" gradientTransform="matrix(-10.3618 18.5896 -18.5896 -10.3618 31.0731 21.0332)" gradientUnits="userSpaceOnUse"><stop offset="0" stop-color="#000" stop-opacity="0"/><stop offset="1"/></linearGradient><path id="path0_fill" d="M 24 48C 37.2548 48 48 37.2548 48 24C 48 10.7452 37.2548 0 24 0C 10.7452 0 0 10.7452 0 24C 0 37.2548 10.7452 48 24 48Z"/><path id="path1_fill" d="M 22.2 44.4C 34.4607 44.4 44.4 34.4607 44.4 22.2C 44.4 9.93928 34.4607 0 22.2 0C 9.93928 0 0 9.93928 0 22.2C 0 34.4607 9.93928 44.4 22.2 44.4Z"/><path id="path2_fill" d="M 0.28125 4.44375C 0.13125 4.44375 -2.95331e-07 4.33125 -2.95331e-07 4.18125L -2.95331e-07 0.2625C -2.95331e-07 0.1125 0.13125 -1.84582e-08 0.28125 -1.84582e-08C 0.43125 -1.84582e-08 0.5625 0.1125 0.5625 0.2625L 0.5625 4.18125C 0.54375 4.33125 0.43125 4.44375 0.28125 4.44375Z"/><path id="path3_fill" d="M 0.3 4.48125C 0.13125 4.48125 5.90663e-07 4.35 5.90663e-07 4.2L 5.90663e-07 0.28125C 5.90663e-07 0.13125 0.13125 3.69164e-08 0.3 3.69164e-08C 0.46875 3.69164e-08 0.6 0.13125 0.6 0.28125L 0.6 4.2C 0.6 4.35 0.45 4.48125 0.3 4.48125ZM 0.3 0.0375C 0.16875 0.0375 0.0375003 0.15 0.0375003 0.28125L 0.0375003 4.2C 0.0375003 4.33125 0.15 4.44375 0.3 4.44375C 0.43125 4.44375 0.562501 4.33125 0.562501 4.2L 0.562501 0.28125C 0.543751 0.15 0.43125 0.0375 0.3 0.0375Z"/><path id="path4_fill" d="M 0.2625 2.27079C 0.1125 2.25204 2.95331e-07 2.13954 2.95331e-07 1.98954L 0.13125 0.245794C 0.15 0.0957944 0.281251 -0.0167055 0.431251 0.00204451C 0.581251 0.0207945 0.69375 0.133295 0.69375 0.283294L 0.5625 2.02704C 0.54375 2.17704 0.4125 2.28954 0.2625 2.27079Z"/><path id="path5_fill" d="M 0.28125 2.30804C 0.1125 2.28929 -2.95331e-07 2.15804 -2.95331e-07 2.00804L 0.131249 0.264291C 0.149999 0.114291 0.281251 -0.0169588 0.450001 0.00179125C 0.618751 0.0205412 0.731251 0.151791 0.731251 0.301791L 0.599999 2.04554C 0.581249 2.21429 0.45 2.32679 0.28125 2.30804ZM 0.450001 0.0392912C 0.318751 0.0392912 0.1875 0.133041 0.1875 0.264291L 0.05625 2.00804C 0.05625 2.13929 0.15 2.25179 0.3 2.27054C 0.43125 2.27054 0.5625 2.17679 0.5625 2.04554L 0.693749 0.301791C 0.693749 0.170541 0.581251 0.0580412 0.450001 0.0392912Z"/><path id="path6_fill" d="M 0.227379 4.37702C 0.0773786 4.33952 -0.0163726 4.20827 0.00237736 4.05827L 0.771128 0.214519C 0.808628 0.064519 0.939876 -0.0292311 1.08988 0.00826893C 1.23988 0.0457689 1.33363 0.177019 1.31488 0.327019L 0.546127 4.17077C 0.527377 4.30202 0.377379 4.39577 0.227379 4.37702Z"/><path id="path7_fill" d="M 0.246117 4.41352C 0.0773671 4.37602 -0.0163847 4.22602 0.00236533 4.07602L 0.771116 0.232268C 0.808616 0.0822681 0.958615 -0.0302319 1.12737 0.00726807C 1.29612 0.0447681 1.38987 0.194768 1.37112 0.344768L 0.602367 4.18852C 0.564867 4.33852 0.414867 4.43227 0.246117 4.41352ZM 1.12737 0.0447681C 0.996115 0.0260181 0.864865 0.101018 0.827365 0.232268L 0.0586171 4.07602C 0.0398671 4.20727 0.114865 4.33852 0.264865 4.37602C 0.396115 4.39477 0.527365 4.31977 0.564865 4.18852L 1.33362 0.344768C 1.35237 0.194768 1.25862 0.0822681 1.12737 0.0447681Z"/><path id="path8_fill" d="M 0.21452 2.22206C 0.0645202 2.18456 -0.0292304 2.03456 0.00826956 1.88456L 0.47702 0.197056C 0.51452 0.0470562 0.664518 -0.0279438 0.814518 0.00955624C 0.964518 0.0470562 1.05827 0.197056 1.02077 0.347056L 0.552019 2.03456C 0.514519 2.18456 0.36452 2.25956 0.21452 2.22206Z"/><path id="path9_fill" d="M 0.220989 2.25827C 0.0709895 2.22077 -0.0415111 2.05202 0.0147389 1.90202L 0.483489 0.214519C 0.520989 0.0645189 0.689738 -0.0292311 0.839738 0.0082689C 0.989738 0.0457689 1.10224 0.214519 1.04599 0.364519L 0.577239 2.05202C 0.539739 2.20202 0.389739 2.29577 0.220989 2.25827ZM 0.839738 0.064519C 0.708488 0.027019 0.558487 0.102019 0.520987 0.233269L 0.0522371 1.92077C 0.0147371 2.05202 0.0897371 2.18327 0.239737 2.22077C 0.370987 2.25827 0.520988 2.18327 0.558488 2.05202L 1.02724 0.364519C 1.04599 0.233269 0.970988 0.102019 0.839738 0.064519Z"/><path id="path10_fill" d="M 0.171397 4.13604C 0.0213969 4.07979 -0.0348549 3.91104 0.0213951 3.77979L 1.5214 0.161045C 1.57765 0.0297945 1.7464 -0.0452056 1.87765 0.0297944C 2.02765 0.0860444 2.0839 0.254794 2.02765 0.386044L 0.527646 4.00479C 0.471396 4.13604 0.302647 4.21104 0.171397 4.13604Z"/><path id="path11_fill" d="M 0.187426 4.16515C 0.0374265 4.1089 -0.0375729 3.94015 0.0186771 3.79015L 1.51868 0.171396C 1.57493 0.0213963 1.74367 -0.0348538 1.91242 0.0213962C 2.06242 0.0776462 2.13743 0.246396 2.08118 0.396396L 0.581177 4.01515C 0.506177 4.16515 0.337426 4.24015 0.187426 4.16515ZM 1.89368 0.0588963C 1.76243 0.00264627 1.61243 0.0588964 1.55618 0.190146L 0.0561753 3.8089C -7.47038e-05 3.94015 0.0749271 4.0714 0.206177 4.12765C 0.337427 4.1839 0.487426 4.12765 0.543676 3.9964L 2.04368 0.377646C 2.08118 0.265146 2.02493 0.115146 1.89368 0.0588963Z"/><path id="path12_fill" d="M 0.15297 2.05859C 0.0217203 1.98359 -0.0345309 1.83359 0.0217191 1.70234L 0.80922 0.146093C 0.88422 0.0148426 1.03422 -0.0414076 1.18422 0.0335924C 1.31547 0.108592 1.37172 0.258593 1.31547 0.389843L 0.52797 1.94609C 0.45297 2.07734 0.30297 2.13359 0.15297 2.05859Z"/><path id="path13_fill" d="M 0.164326 2.11433C 0.0143265 2.03933 -0.0419247 1.87058 0.0330753 1.72058L 0.820576 0.164326C 0.895576 0.0143257 1.06433 -0.041924 1.21433 0.033076C 1.36433 0.108076 1.42058 0.276826 1.34558 0.426826L 0.558077 1.98308C 0.483077 2.13308 0.314326 2.18933 0.164326 2.11433ZM 1.19558 0.0705757C 1.06433 0.0143257 0.914325 0.0518259 0.858075 0.183076L 0.0705765 1.73933C 0.0143265 1.85183 0.0705771 2.00183 0.183077 2.07683C 0.314327 2.13308 0.464326 2.09558 0.520576 1.96433L 1.30808 0.408076C 1.36433 0.295576 1.30808 0.145576 1.19558 0.0705757Z"/><path id="path14_fill" d="M 0.127078 3.73762C -0.00417202 3.64387 -0.0416714 3.47512 0.0520786 3.36262L 2.22708 0.118867C 2.30208 -0.0123831 2.47083 -0.0311333 2.60208 0.0438667C 2.73333 0.137617 2.77083 0.306367 2.67708 0.418867L 0.502078 3.66262C 0.427078 3.79387 0.258328 3.83137 0.127078 3.73762Z"/><path id="path15_fill" d="M 0.131976 3.78333C 0.000725685 3.68958 -0.0367743 3.50208 0.0382257 3.37083L 2.21323 0.127077C 2.30698 -0.00417269 2.47572 -0.0416725 2.62572 0.0520775C 2.75697 0.145828 2.79447 0.333327 2.71947 0.464577L 0.544474 3.70833C 0.450724 3.83958 0.263226 3.87708 0.131976 3.78333ZM 2.60697 0.0895772C 2.49447 0.0145772 2.32572 0.0333275 2.25072 0.145828L 0.0757239 3.38958C 0.00072392 3.50208 0.0382263 3.65208 0.150726 3.72708C 0.263226 3.80208 0.431976 3.78333 0.506976 3.67083L 2.68198 0.445827C 2.75698 0.333327 2.71947 0.164577 2.60697 0.0895772Z"/><path id="path16_fill" d="M 0.109386 1.84128C -0.00311397 1.74753 -0.0406157 1.57878 0.0531343 1.46628L 1.14064 0.0975261C 1.23439 -0.0149739 1.40314 -0.0337239 1.51564 0.0600261C 1.62814 0.153776 1.66563 0.322526 1.57188 0.435026L 0.484386 1.80378C 0.390636 1.91628 0.221886 1.93503 0.109386 1.84128Z"/><path id="path17_fill" d="M 0.114844 1.89262C -0.0164057 1.79887 -0.0351574 1.61137 0.0585926 1.48012L 1.14609 0.111369C 1.23984 -0.0198805 1.42734 -0.0386302 1.55859 0.0738698C 1.68984 0.16762 1.70859 0.355119 1.61484 0.486369L 0.527343 1.85512C 0.433593 1.98637 0.246094 2.00512 0.114844 1.89262ZM 1.52109 0.111369C 1.40859 0.0176195 1.25859 0.0363695 1.16484 0.14887L 0.0773432 1.51762C 0.00234316 1.63012 0.0210949 1.78012 0.133595 1.87387C 0.246095 1.96762 0.396094 1.94887 0.489844 1.83637L 1.57734 0.46762C 1.65234 0.35512 1.63359 0.186369 1.52109 0.111369Z"/><path id="path18_fill" d="M 0.0843762 3.20875C -0.0281238 3.09625 -0.0281238 2.9275 0.0843762 2.83375L 2.85937 0.0775032C 2.97187 -0.0349968 3.14062 -0.0162468 3.23437 0.0775032C 3.32812 0.171253 3.34687 0.358753 3.23437 0.452503L 0.478124 3.20875C 0.365624 3.32125 0.196876 3.32125 0.0843762 3.20875Z"/><path id="path19_fill" d="M 0.0843756 3.25312C -0.0281244 3.14062 -0.0281244 2.95313 0.0843756 2.84063L 2.85937 0.0843747C 2.97187 -0.0281253 3.15938 -0.0281253 3.27188 0.0843747C 3.38438 0.196875 3.38438 0.384375 3.27188 0.496875L 0.496874 3.25312C 0.384374 3.36562 0.196876 3.36562 0.0843756 3.25312ZM 3.25312 0.103125C 3.15937 0.0093753 2.99063 0.0093753 2.89688 0.103125L 0.121874 2.85937C 0.0281238 2.95312 0.0281238 3.12188 0.121874 3.21563C 0.215624 3.30938 0.384376 3.30938 0.478126 3.21563L 3.25312 0.459375C 3.34687 0.365625 3.34687 0.215625 3.25312 0.103125Z"/><path id="path20_fill" d="M 0.06813 1.56003C -0.02562 1.44753 -0.0256224 1.27878 0.0868776 1.18503L 1.41813 0.0600258C 1.53063 -0.0337242 1.69938 -0.0149738 1.79313 0.0975262C 1.88688 0.210026 1.88688 0.378776 1.77438 0.472526L 0.44313 1.59753C 0.33063 1.69128 0.16188 1.67253 0.06813 1.56003Z"/><path id="path21_fill" d="M 0.0755838 1.61137C -0.0369162 1.48012 -0.0181656 1.29262 0.0943344 1.19887L 1.42558 0.0738695C 1.53808 -0.0386305 1.72558 -0.0198801 1.83808 0.11137C 1.95058 0.24262 1.93183 0.43012 1.81933 0.52387L 0.488082 1.64887C 0.375582 1.76137 0.188084 1.74262 0.0755838 1.61137ZM 1.80058 0.13012C 1.70683 0.0176198 1.55683 0.0176193 1.44433 0.0926193L 0.113082 1.21762C 0.0193321 1.31137 0.000584433 1.46137 0.0943344 1.57387C 0.188084 1.68637 0.338084 1.68637 0.450584 1.61137L 1.78183 0.48637C 1.89433 0.39262 1.89433 0.24262 1.80058 0.13012Z"/><path id="path22_fill" d="M 0.0520786 2.58902C -0.0416714 2.45777 -0.00417202 2.28902 0.127078 2.21402L 3.38958 0.0390194C 3.52083 -0.0359806 3.68958 0.00151958 3.76458 0.11402C 3.85833 0.24527 3.82083 0.41402 3.68958 0.48902L 0.427079 2.66402C 0.314579 2.73902 0.145829 2.70152 0.0520786 2.58902Z"/><path id="path23_fill" d="M 0.052078 2.63861C -0.041672 2.50736 -0.00417261 2.31986 0.127077 2.22611L 3.38958 0.0511121C 3.52083 -0.0426379 3.70833 -0.00513789 3.80208 0.144862C 3.89583 0.276112 3.85833 0.463612 3.72708 0.557362L 0.464576 2.73236C 0.333326 2.82611 0.145828 2.78861 0.052078 2.63861ZM 3.76458 0.182362C 3.68958 0.0698618 3.53958 0.0323617 3.42708 0.107362L 0.164579 2.28236C 0.0520786 2.35736 0.0145768 2.50736 0.108327 2.63861C 0.183327 2.75111 0.333329 2.78861 0.445829 2.71361L 3.70833 0.538612C 3.82083 0.444862 3.83958 0.294862 3.76458 0.182362Z"/><path id="path24_fill" d="M 0.0382257 1.27109C -0.0367743 1.13984 0.000725685 0.971092 0.131976 0.896092L 1.65073 0.0335924C 1.78198 -0.0414076 1.95073 0.0148423 2.02573 0.146092C 2.10073 0.277342 2.06323 0.446092 1.93198 0.521092L 0.413226 1.38359C 0.281976 1.45859 0.113226 1.40234 0.0382257 1.27109Z"/><path id="path25_fill" d="M 0.0382251 1.28984C -0.0367749 1.13984 0.000725096 0.971092 0.131975 0.896092L 1.65073 0.0335924C 1.78198 -0.0414076 1.96948 0.0148423 2.04448 0.146092C 2.11948 0.296092 2.08198 0.464843 1.95073 0.539843L 0.431976 1.40234C 0.300726 1.47734 0.113225 1.42109 0.0382251 1.28984ZM 2.02573 0.164843C 1.95073 0.0335929 1.80072 -0.00390715 1.68822 0.0710928L 0.169476 0.933592C 0.0569763 1.00859 0.0194763 1.15859 0.0757263 1.27109C 0.150726 1.40234 0.300725 1.43984 0.413225 1.36484L 1.93198 0.502343C 2.04448 0.446093 2.08198 0.296093 2.02573 0.164843Z"/><path id="path26_fill" d="M 0.0213957 1.87515C -0.0348543 1.72515 0.0213975 1.57515 0.171397 1.5189L 3.79015 0.0188964C 3.9214 -0.0373536 4.09015 0.0376452 4.1464 0.168895C 4.20265 0.318895 4.1464 0.468896 3.9964 0.525146L 0.377645 2.02515C 0.246395 2.0814 0.0776457 2.02515 0.0213957 1.87515Z"/><path id="path27_fill" d="M 0.0213951 1.91243C -0.0348549 1.76243 0.0213969 1.59368 0.171397 1.51868L 3.79015 0.0186759C 3.94015 -0.0375741 4.1089 0.0374253 4.16515 0.187425C 4.2214 0.337425 4.16515 0.506176 4.01515 0.581176L 0.396395 2.08118C 0.246395 2.13743 0.0776451 2.06243 0.0213951 1.91243ZM 4.12765 0.206176C 4.0714 0.0749259 3.9214 0.0186756 3.8089 0.0561756L 0.190147 1.55618C 0.0588975 1.61243 0.00264627 1.76243 0.0588963 1.89368C 0.115146 2.02493 0.265147 2.08118 0.377647 2.04368L 3.9964 0.543676C 4.12765 0.487426 4.1839 0.337426 4.12765 0.206176Z"/><path id="path28_fill" d="M 0.0186759 0.916653C -0.0375741 0.766653 0.0374253 0.616654 0.187425 0.560404L 1.83743 0.016653C 1.96868 -0.039597 2.13743 0.0541539 2.17493 0.185404C 2.23118 0.335404 2.15618 0.485403 2.00618 0.541653L 0.356175 1.0854C 0.224925 1.14165 0.0749259 1.06665 0.0186759 0.916653Z"/><path id="path29_fill" d="M 0.0184668 0.935251C -0.0377832 0.785251 0.0372168 0.616501 0.205967 0.560251L 1.85597 0.0164997C 2.00597 -0.0397503 2.17472 0.0539997 2.23097 0.204C 2.28722 0.354 2.21222 0.52275 2.04347 0.579L 0.393467 1.12275C 0.243467 1.16025 0.0747168 1.08525 0.0184668 0.935251ZM 2.19347 0.22275C 2.15597 0.0915003 2.00597 0.0164994 1.87472 0.0539994L 0.224717 0.59775C 0.0934674 0.63525 0.0372186 0.78525 0.0747186 0.9165C 0.112219 1.04775 0.262217 1.12275 0.393467 1.08525L 2.04347 0.5415C 2.17472 0.48525 2.23097 0.354 2.19347 0.22275Z"/><path id="path30_fill" d="M 0.00826897 1.07602C -0.029231 0.926017 0.0645196 0.776018 0.21452 0.757268L 4.05827 0.00726776C 4.20827 -0.0302322 4.33952 0.0822675 4.37702 0.232267C 4.41452 0.382267 4.32077 0.532269 4.17077 0.551019L 0.32702 1.30102C 0.17702 1.31977 0.027019 1.22602 0.00826897 1.07602Z"/><path id="path31_fill" d="M 0.00726687 1.11348C -0.0302331 0.944725 0.0822681 0.794726 0.232268 0.757226L 4.07602 0.00722601C 4.22602 -0.030274 4.37602 0.0822263 4.41352 0.250976C 4.45102 0.419726 4.33852 0.569726 4.18852 0.607226L 0.344769 1.35723C 0.194769 1.39473 0.0447669 1.28223 0.00726687 1.11348ZM 4.37602 0.269725C 4.35727 0.138475 4.22602 0.0447263 4.09477 0.0634763L 0.251019 0.813476C 0.119769 0.832226 0.0260186 0.982225 0.0635186 1.11348C 0.0822686 1.24473 0.213519 1.33848 0.344769 1.31973L 4.18852 0.569726C 4.31977 0.532226 4.41352 0.400975 4.37602 0.269725Z"/><path id="path32_fill" d="M 0.00237618 0.508295C -0.0163738 0.358295 0.0773774 0.227044 0.227377 0.208294L 1.95238 0.00204388C 2.10238 -0.0167061 2.23363 0.0957942 2.25238 0.245794C 2.27113 0.395794 2.17738 0.527045 2.02738 0.545795L 0.302377 0.752044C 0.171127 0.770794 0.0211262 0.658295 0.00237618 0.508295Z"/><path id="path33_fill" d="M 0.00204565 0.545788C -0.0167043 0.377038 0.0957945 0.227037 0.245794 0.208287L 1.9708 0.00203684C 2.1208 -0.0167132 2.27079 0.0957877 2.28954 0.264538C 2.30829 0.433288 2.1958 0.583287 2.0458 0.602037L 0.320794 0.808287C 0.170794 0.827037 0.0207957 0.714538 0.00204565 0.545788ZM 2.27079 0.283287C 2.25204 0.152037 2.12079 0.0395371 1.98954 0.0582871L 0.264545 0.264538C 0.133295 0.283288 0.0395445 0.414538 0.0582945 0.545788C 0.0770445 0.677038 0.208294 0.789537 0.339544 0.770787L 2.06455 0.564537C 2.1958 0.545787 2.28954 0.414537 2.27079 0.283287Z"/><path id="path34_fill" d="M 5.90663e-07 0.28125C 5.90663e-07 0.13125 0.1125 2.95331e-07 0.2625 2.95331e-07L 4.18125 2.95331e-07C 4.33125 2.95331e-07 4.44375 0.13125 4.44375 0.28125C 4.44375 0.43125 4.33125 0.5625 4.18125 0.5625L 0.2625 0.5625C 0.1125 0.5625 5.90663e-07 0.43125 5.90663e-07 0.28125Z"/><path id="path35_fill" d="M 0 0.3C 0 0.13125 0.13125 -2.95331e-07 0.28125 -2.95331e-07L 4.2 -2.95331e-07C 4.35 -2.95331e-07 4.48125 0.13125 4.48125 0.3C 4.48125 0.46875 4.35 0.599999 4.2 0.599999L 0.28125 0.599999C 0.13125 0.599999 0 0.46875 0 0.3ZM 4.44375 0.318749C 4.44375 0.187499 4.33125 0.05625 4.2 0.05625L 0.28125 0.05625C 0.15 0.05625 0.0375012 0.168749 0.0375012 0.318749C 0.0375012 0.449999 0.15 0.58125 0.28125 0.58125L 4.2 0.58125C 4.33125 0.5625 4.44375 0.449999 4.44375 0.318749Z"/><path id="path36_fill" d="M 1.18133e-06 0.262499C 0.0187512 0.112499 0.131251 0 0.281251 0L 2.025 0.13125C 2.175 0.15 2.2875 0.28125 2.26875 0.43125C 2.25 0.58125 2.1375 0.69375 1.9875 0.69375L 0.24375 0.5625C 0.1125 0.54375 1.18133e-06 0.412499 1.18133e-06 0.262499Z"/><path id="path37_fill" d="M 5.90663e-07 0.281249C 0.0187506 0.112499 0.150001 -5.90663e-07 0.300001 -5.90663e-07L 2.04375 0.131251C 2.19375 0.150001 2.325 0.28125 2.30625 0.45C 2.2875 0.61875 2.15625 0.73125 2.00625 0.73125L 0.2625 0.600001C 0.1125 0.581251 5.90663e-07 0.431249 5.90663e-07 0.281249ZM 2.2875 0.45C 2.30625 0.31875 2.19375 0.187499 2.0625 0.187499L 0.318749 0.0562497C 0.187499 0.0562497 0.0749994 0.15 0.0562494 0.3C 0.0374994 0.43125 0.150001 0.562499 0.281251 0.562499L 2.025 0.693751C 2.15625 0.693751 2.26875 0.58125 2.2875 0.45Z"/><path id="path38_fill" d="M 0.00238789 0.227379C 0.0398879 0.0773786 0.171139 -0.0163726 0.321139 0.00237736L 4.16489 0.771128C 4.31489 0.808628 4.40864 0.939876 4.37114 1.08988C 4.33364 1.23988 4.20239 1.33363 4.05239 1.31488L 0.208638 0.546127C 0.0773885 0.527377 -0.0163621 0.377379 0.00238789 0.227379Z"/><path id="path39_fill" d="M 0.00237855 0.246117C 0.0398785 0.0773671 0.189877 -0.0163847 0.339877 0.00236533L 4.18363 0.771116C 4.33363 0.808616 4.44613 0.958615 4.40863 1.12737C 4.37113 1.29612 4.22113 1.38987 4.07113 1.37112L 0.227377 0.602367C 0.0773768 0.564867 -0.0163715 0.414867 0.00237855 0.246117ZM 4.37113 1.12737C 4.38988 0.996115 4.31488 0.864865 4.18363 0.827365L 0.339877 0.0586171C 0.208627 0.0398671 0.0773768 0.114865 0.0398768 0.264865C 0.0211268 0.396115 0.0961268 0.527365 0.227377 0.564865L 4.07113 1.33362C 4.22113 1.35237 4.33363 1.25862 4.37113 1.12737Z"/><path id="path40_fill" d="M 0.00955509 0.21452C 0.0470551 0.0645202 0.197057 -0.0292304 0.347057 0.00826956L 2.03456 0.47702C 2.18456 0.51452 2.25956 0.664518 2.22206 0.814518C 2.18456 0.964518 2.03456 1.05827 1.88456 1.02077L 0.197055 0.552019C 0.0470551 0.514519 -0.0279449 0.36452 0.00955509 0.21452Z"/><path id="path41_fill" d="M 0.00827015 0.220989C 0.0457701 0.0709895 0.21452 -0.0415111 0.36452 0.0147389L 2.05202 0.483489C 2.20202 0.520989 2.29577 0.689738 2.25827 0.839738C 2.22077 0.989738 2.05202 1.10224 1.90202 1.04599L 0.214518 0.577239C 0.0645178 0.539739 -0.0292298 0.389739 0.00827015 0.220989ZM 2.20202 0.839738C 2.23952 0.708488 2.16452 0.558487 2.03327 0.520987L 0.345769 0.0522371C 0.214519 0.0147371 0.0832684 0.0897371 0.0457684 0.239737C 0.00826838 0.370987 0.0832678 0.520988 0.214518 0.558488L 1.90202 1.02724C 2.03327 1.04599 2.16452 0.970988 2.20202 0.839738Z"/><path id="path42_fill" d="M 0.0213975 0.171396C 0.0776475 0.0213963 0.246397 -0.0348525 0.377647 0.0213975L 3.9964 1.5214C 4.12765 1.57765 4.20265 1.7464 4.1464 1.87765C 4.09015 2.02765 3.9214 2.0839 3.79015 2.02765L 0.171396 0.527646C 0.0213963 0.471396 -0.0348525 0.302646 0.0213975 0.171396Z"/><path id="path43_fill" d="M 0.0213969 0.187425C 0.0776469 0.0374253 0.246397 -0.0375741 0.396397 0.0186759L 4.01515 1.51868C 4.16515 1.57493 4.2214 1.74368 4.16515 1.91243C 4.1089 2.06243 3.94015 2.13743 3.79015 2.08118L 0.171396 0.581176C 0.0213957 0.506176 -0.0348531 0.337425 0.0213969 0.187425ZM 4.12765 1.89368C 4.1839 1.76243 4.12764 1.61243 3.99639 1.55618L 0.377646 0.0561771C 0.246396 -7.2933e-05 0.115145 0.0749259 0.0588951 0.206176C 0.00264509 0.337426 0.0588963 0.487425 0.190146 0.543675L 3.80889 2.04367C 3.94014 2.08117 4.09015 2.02493 4.12765 1.89368Z"/><path id="path44_fill" d="M 0.0335937 0.15297C 0.108594 0.0217197 0.258593 -0.0345315 0.389843 0.0217185L 1.94609 0.80922C 2.07734 0.86547 2.13359 1.03422 2.05859 1.18422C 1.98359 1.31547 1.83359 1.37172 1.70234 1.31547L 0.146091 0.52797C 0.0148414 0.45297 -0.0414063 0.28422 0.0335937 0.15297Z"/><path id="path45_fill" d="M 0.0330765 0.164325C 0.108076 0.0143253 0.276827 -0.0419229 0.426827 0.0330771L 1.98308 0.820575C 2.13308 0.895575 2.18933 1.06433 2.11433 1.21433C 2.03933 1.36433 1.87058 1.42058 1.72058 1.34558L 0.164325 0.558076C 0.0143247 0.501826 -0.0419235 0.314325 0.0330765 0.164325ZM 2.05808 1.19558C 2.11433 1.06433 2.07682 0.914326 1.94557 0.858076L 0.389326 0.0705753C 0.276826 0.0143253 0.126827 0.0705759 0.0518271 0.183076C -0.00442294 0.314326 0.0330747 0.464325 0.164325 0.520575L 1.72058 1.30808C 1.85183 1.36433 2.00183 1.32683 2.05808 1.19558Z"/><path id="path46_fill" d="M 0.0520774 0.127077C 0.145827 -0.00417321 0.295827 -0.0416726 0.427077 0.0520774L 3.68958 2.22708C 3.82083 2.30208 3.83958 2.47083 3.76458 2.60208C 3.67083 2.73333 3.52083 2.77083 3.38958 2.67708L 0.127077 0.502077C -0.00417321 0.408327 -0.0416726 0.239577 0.0520774 0.127077Z"/><path id="path47_fill" d="M 0.0573029 0.131974C 0.151053 0.000723908 0.338554 -0.0367761 0.469804 0.0382239L 3.7323 2.21322C 3.86355 2.30697 3.90105 2.47573 3.8073 2.62573C 3.71355 2.75698 3.52605 2.79448 3.3948 2.71948L 0.132302 0.544475C -0.0176977 0.450725 -0.0364471 0.263224 0.0573029 0.131974ZM 3.75105 2.60698C 3.82605 2.49448 3.8073 2.32573 3.6948 2.25073L 0.432303 0.0757251C 0.319803 0.000725102 0.169804 0.0382245 0.0948041 0.150725C 0.0198041 0.263225 0.0385529 0.431974 0.151053 0.506974L 3.41355 2.68197C 3.52605 2.75697 3.67605 2.71948 3.75105 2.60698Z"/><path id="path48_fill" d="M 0.0600273 0.109384C 0.153777 -0.00311575 0.322527 -0.0406146 0.435027 0.0531354L 1.80378 1.12188C 1.91628 1.21563 1.93503 1.38438 1.84128 1.49688C 1.74753 1.60938 1.57878 1.64689 1.46628 1.55314L 0.0975255 0.484384C -0.0149745 0.390634 -0.0337227 0.221884 0.0600273 0.109384Z"/><path id="path49_fill" d="M 0.0585943 0.114843C 0.152344 -0.0164074 0.339843 -0.0351562 0.471093 0.0585937L 1.83984 1.12734C 1.97109 1.22109 1.98984 1.40859 1.89609 1.53984C 1.80234 1.67109 1.61484 1.68984 1.48359 1.59609L 0.114843 0.527344C -0.0164068 0.433594 -0.0351557 0.246093 0.0585943 0.114843ZM 1.85859 1.52109C 1.95234 1.40859 1.93359 1.25859 1.82109 1.16484L 0.452345 0.0960949C 0.339845 0.0210949 0.189843 0.0398437 0.0960926 0.152344C 0.00234257 0.264844 0.0210937 0.414843 0.133594 0.508593L 1.50234 1.57734C 1.61484 1.65234 1.76484 1.63359 1.85859 1.52109Z"/><path id="path50_fill" d="M 0.0703113 0.0843744C 0.182811 -0.0281256 0.351561 -0.0281256 0.445311 0.0843744L 3.22031 2.84063C 3.33281 2.95313 3.31406 3.12188 3.22031 3.21563C 3.10781 3.32813 2.93906 3.32813 2.84531 3.21563L 0.0703113 0.459374C -0.0234387 0.365624 -0.0234387 0.178124 0.0703113 0.0843744Z"/><path id="path51_fill" d="M 0.0984363 0.0843738C 0.210936 -0.0281262 0.398438 -0.0281262 0.510938 0.0843738L 3.28594 2.84062C 3.39844 2.95312 3.39844 3.14063 3.28594 3.25313C 3.17344 3.36563 2.98594 3.36563 2.87344 3.25313L 0.0984363 0.496875C -0.0328137 0.384375 -0.0328137 0.196874 0.0984363 0.0843738ZM 3.24844 3.21563C 3.34219 3.12188 3.34219 2.95313 3.24844 2.85938L 0.473436 0.103124C 0.379686 0.00937441 0.210937 0.00937441 0.117187 0.103124C 0.0234369 0.196874 0.0234369 0.365624 0.117187 0.459374L 2.89219 3.21563C 2.98594 3.32813 3.13594 3.32813 3.24844 3.21563Z"/><path id="path52_fill" d="M 0.0975273 0.0681276C 0.210027 -0.0256224 0.378777 -0.0256218 0.472527 0.0868782L 1.61627 1.39938C 1.71002 1.51188 1.69128 1.68063 1.57878 1.77438C 1.46628 1.86813 1.29753 1.86813 1.20378 1.75563L 0.0600261 0.443128C -0.0337239 0.349378 -0.0149727 0.180628 0.0975273 0.0681276Z"/><path id="path53_fill" d="M 0.103714 0.0755821C 0.234964 -0.0369179 0.403712 -0.0181673 0.516212 0.0943327L 1.65996 1.40683C 1.77246 1.51933 1.75371 1.70683 1.62246 1.81933C 1.49121 1.93183 1.32246 1.91308 1.20996 1.80058L 0.0662131 0.488083C -0.0275369 0.356833 -0.0275357 0.169332 0.103714 0.0755821ZM 1.60371 1.78183C 1.71621 1.68808 1.71621 1.53808 1.64121 1.42558L 0.497465 0.113083C 0.403715 0.0193332 0.253712 0.000582662 0.141212 0.0943327C 0.0287125 0.188083 0.0287143 0.338082 0.103714 0.450582L 1.24746 1.76308C 1.34121 1.87558 1.49121 1.87558 1.60371 1.78183Z"/><path id="path54_fill" d="M 0.114018 0.0520774C 0.245268 -0.0416726 0.414018 -0.00417321 0.489018 0.127077L 2.66402 3.37083C 2.73902 3.50208 2.70152 3.67083 2.58902 3.74583C 2.45777 3.83958 2.28902 3.80208 2.21402 3.67083L 0.0390188 0.427077C -0.0359812 0.295827 0.00151826 0.127077 0.114018 0.0520774Z"/><path id="path55_fill" d="M 0.144861 0.0520768C 0.276111 -0.0416732 0.463612 -0.00417379 0.557362 0.127076L 2.73236 3.37083C 2.82611 3.50208 2.78861 3.68958 2.63861 3.78333C 2.50736 3.87708 2.31986 3.83958 2.22611 3.70833L 0.0511106 0.464578C -0.0426394 0.314578 -0.00513937 0.145827 0.144861 0.0520768ZM 2.61986 3.74583C 2.73236 3.67083 2.76986 3.52083 2.69486 3.40833L 0.519861 0.164577C 0.444861 0.0520774 0.294861 0.0333286 0.163611 0.108329C 0.0511112 0.183329 0.0136118 0.333327 0.0886118 0.445827L 2.26361 3.68958C 2.33861 3.78333 2.50736 3.82083 2.61986 3.74583Z"/><path id="path56_fill" d="M 0.137814 0.0382239C 0.269064 -0.0367761 0.437814 0.000723908 0.512814 0.131974L 1.37531 1.65072C 1.45031 1.78197 1.39406 1.95072 1.26281 2.02572C 1.13156 2.10072 0.962814 2.06322 0.887814 1.93197L 0.0253131 0.413224C -0.0309369 0.281974 0.00656367 0.113224 0.137814 0.0382239Z"/><path id="path57_fill" d="M 0.150001 0.0382263C 0.300001 -0.0367737 0.468749 0.000726273 0.543749 0.131976L 1.40625 1.65072C 1.48125 1.78197 1.44375 1.96947 1.29375 2.04447C 1.14375 2.11947 0.975001 2.08197 0.900001 1.95072L 0.0375006 0.431974C -0.0374994 0.300724 1.18825e-06 0.131976 0.150001 0.0382263ZM 1.275 2.02572C 1.3875 1.95072 1.44375 1.80072 1.36875 1.68822L 0.506251 0.169474C 0.431251 0.0569745 0.281249 0.0194745 0.168749 0.0757245C 0.0562488 0.150725 -1.17671e-06 0.300726 0.0749988 0.413226L 0.937499 1.93197C 0.993749 2.04447 1.1625 2.10072 1.275 2.02572Z"/><path id="path58_fill" d="M 0.168895 0.0217209C 0.318895 -0.0345291 0.468895 0.0217191 0.525145 0.152969L 2.0439 3.77172C 2.10015 3.90297 2.02515 4.07172 1.8939 4.12797C 1.76265 4.18422 1.5939 4.12797 1.53765 3.99672L 0.0188964 0.37797C -0.0373536 0.24672 0.0376452 0.0779709 0.168895 0.0217209Z"/><path id="path59_fill" d="M 0.187425 0.0213969C 0.337425 -0.0348531 0.506176 0.0213957 0.581176 0.171396L 2.09993 3.79015C 2.15618 3.94015 2.08118 4.1089 1.93118 4.16515C 1.78118 4.2214 1.61243 4.16515 1.53743 4.01515L 0.0186759 0.396397C -0.0375741 0.265147 0.0374253 0.0963969 0.187425 0.0213969ZM 1.89368 4.12765C 2.02493 4.0714 2.08118 3.92139 2.02493 3.80889L 0.506176 0.190146C 0.449926 0.0588963 0.299925 0.00264509 0.168675 0.0588951C 0.0374247 0.115145 -0.0188235 0.265146 0.0374265 0.377646L 1.55618 3.99639C 1.63118 4.12764 1.76243 4.1839 1.89368 4.12765Z"/><path id="path60_fill" d="M 0.187426 0.0186753C 0.337426 -0.0375747 0.487425 0.0374247 0.543675 0.187425L 1.08742 1.83743C 1.14367 1.96868 1.04993 2.13743 0.918675 2.17493C 0.768675 2.23118 0.618676 2.15618 0.562426 2.00618L 0.0186765 0.356177C -0.0375735 0.224927 0.0374259 0.0749253 0.187426 0.0186753Z"/><path id="path61_fill" d="M 0.197056 0.0186747C 0.347056 -0.0375753 0.515806 0.0374271 0.572056 0.187427L 1.11581 1.83743C 1.17206 1.98743 1.07831 2.15618 0.928305 2.21243C 0.778305 2.26868 0.609555 2.19368 0.553305 2.04368L 0.00955568 0.393675C -0.0279443 0.243675 0.0470557 0.0749247 0.197056 0.0186747ZM 0.928305 2.17492C 1.05956 2.13742 1.13456 1.98743 1.09706 1.85618L 0.553305 0.206175C 0.515805 0.0749247 0.365807 0.0186759 0.234557 0.0561759C 0.103307 0.0936759 0.0283075 0.243677 0.0658075 0.374927L 0.609557 2.02493C 0.647057 2.15618 0.797055 2.23117 0.928305 2.17492Z"/><path id="path62_fill" d="M 0.227379 0.00826779C 0.377379 -0.0292322 0.527377 0.0645184 0.546127 0.214518L 1.33363 4.05827C 1.37113 4.20827 1.25863 4.33952 1.10863 4.37702C 0.958627 4.41452 0.808629 4.32077 0.789879 4.17077L 0.00237736 0.327019C -0.0163726 0.195769 0.0773786 0.0457678 0.227379 0.00826779Z"/><path id="path63_fill" d="M 0.233209 0.00726924C 0.401959 -0.0302308 0.551958 0.0822675 0.589458 0.232267L 1.37696 4.07602C 1.41446 4.22602 1.30196 4.39477 1.15196 4.41352C 0.983208 4.45102 0.833209 4.33852 0.795709 4.18852L 0.00820774 0.344768C -0.0292923 0.194768 0.0644589 0.0447692 0.233209 0.00726924ZM 1.11446 4.37602C 1.24571 4.35727 1.33946 4.22602 1.32071 4.07602L 0.533207 0.232267C 0.514457 0.101017 0.364459 0.00726747 0.233209 0.0447675C 0.101959 0.0635175 0.00820833 0.194768 0.0269583 0.344768L 0.814457 4.18852C 0.851957 4.31977 0.983207 4.39477 1.11446 4.37602Z"/><path id="path64_fill" d="M 0.245795 0.00237618C 0.395795 -0.0163738 0.527045 0.0773774 0.564545 0.227377L 0.789545 1.95238C 0.808295 2.10238 0.695794 2.23363 0.545794 2.25238C 0.395794 2.27113 0.264544 2.17738 0.227044 2.02738L 0.00204477 0.302377C -0.0167052 0.152377 0.0957951 0.0211262 0.245795 0.00237618Z"/><path id="path65_fill" d="M 0.264538 0.00204565C 0.433288 -0.0167043 0.583287 0.0957945 0.602037 0.245794L 0.827038 1.9708C 0.845788 2.1208 0.733287 2.27079 0.564537 2.28954C 0.395787 2.30829 0.245787 2.1958 0.227037 2.0458L 0.00203684 0.320794C -0.0167132 0.170794 0.0957877 0.0207957 0.264538 0.00204565ZM 0.545788 2.25205C 0.677038 2.2333 0.789537 2.10205 0.770787 1.9708L 0.545788 0.245794C 0.527038 0.114544 0.395788 0.0207939 0.264538 0.0395439C 0.133288 0.0582939 0.0207865 0.189544 0.0395365 0.320794L 0.264538 2.0458C 0.283288 2.17705 0.414538 2.2708 0.545788 2.25205Z"/><path id="path66_fill" d="M 0.28125 5.90663e-07C 0.43125 5.90663e-07 0.5625 0.1125 0.5625 0.2625L 0.5625 4.18125C 0.5625 4.33125 0.43125 4.44375 0.28125 4.44375C 0.13125 4.44375 2.95331e-07 4.33125 2.95331e-07 4.18125L 2.95331e-07 0.2625C 0.0187503 0.1125 0.13125 5.90663e-07 0.28125 5.90663e-07Z"/><path id="path67_fill" d="M 0.3 0C 0.46875 0 0.599999 0.13125 0.599999 0.28125L 0.599999 4.2C 0.599999 4.35 0.46875 4.48125 0.3 4.48125C 0.13125 4.48125 -2.95331e-07 4.35 -2.95331e-07 4.2L -2.95331e-07 0.28125C -2.95331e-07 0.13125 0.15 0 0.3 0ZM 0.3 4.44375C 0.43125 4.44375 0.5625 4.33125 0.5625 4.2L 0.5625 0.28125C 0.5625 0.15 0.45 0.0375012 0.3 0.0375012C 0.16875 0.0375012 0.0374994 0.15 0.0374994 0.28125L 0.0374994 4.2C 0.0562494 4.33125 0.16875 4.44375 0.3 4.44375Z"/><path id="path68_fill" d="M 0.43125 0.00204329C 0.58125 0.0207933 0.69375 0.133293 0.69375 0.283293L 0.5625 2.02705C 0.54375 2.17705 0.412499 2.28954 0.262499 2.27079C 0.112499 2.25204 0 2.13954 0 1.98954L 0.13125 0.245795C 0.15 0.0957951 0.28125 -0.0167067 0.43125 0.00204329Z"/><path id="path69_fill" d="M 0.45 0.00203831C 0.61875 0.0207883 0.73125 0.152036 0.73125 0.302036L 0.600001 2.04579C 0.581251 2.19579 0.449999 2.32704 0.281249 2.30829C 0.112499 2.28954 -5.90663e-07 2.15829 -5.90663e-07 2.00829L 0.131251 0.264538C 0.150001 0.0957877 0.28125 -0.0167117 0.45 0.00203831ZM 0.281249 2.27079C 0.412499 2.27079 0.54375 2.17704 0.54375 2.04579L 0.675 0.302036C 0.675 0.170786 0.58125 0.0582865 0.43125 0.0395365C 0.3 0.0395365 0.16875 0.133288 0.16875 0.264538L 0.0375006 2.00829C 0.0375006 2.13954 0.149999 2.25204 0.281249 2.27079Z"/><path id="path70_fill" d="M 1.08988 0.00238789C 1.23988 0.0398879 1.33363 0.171139 1.31488 0.321139L 0.546127 4.16489C 0.508627 4.31489 0.377377 4.40864 0.227377 4.37114C 0.0773771 4.33364 -0.0163726 4.20239 0.00237736 4.05239L 0.771128 0.208638C 0.789878 0.0773885 0.939878 -0.0163621 1.08988 0.00238789Z"/><path id="path71_fill" d="M 1.12737 0.00237855C 1.29612 0.0398785 1.38987 0.189877 1.37112 0.339877L 0.602366 4.18363C 0.564866 4.33363 0.414866 4.44613 0.246116 4.40863C 0.0773665 4.37113 -0.0163838 4.22113 0.00236621 4.07113L 0.771115 0.227377C 0.808615 0.0773768 0.958616 -0.0163715 1.12737 0.00237855ZM 0.246116 4.37113C 0.377367 4.38988 0.508616 4.31488 0.546116 4.18363L 1.31487 0.339877C 1.33362 0.208627 1.25862 0.0773768 1.10862 0.0398768C 0.977366 0.0211268 0.846117 0.0961268 0.808617 0.227377L 0.0398659 4.07113C 0.0211159 4.22113 0.114866 4.33363 0.246116 4.37113Z"/><path id="path72_fill" d="M 0.814519 0.00955509C 0.964519 0.0470551 1.05827 0.197057 1.02077 0.347057L 0.552018 2.03456C 0.514518 2.18456 0.36452 2.25956 0.21452 2.22206C 0.0645196 2.18456 -0.029231 2.03456 0.00826897 1.88456L 0.477019 0.197055C 0.514519 0.0470551 0.664519 -0.0279449 0.814519 0.00955509Z"/><path id="path73_fill" d="M 0.839739 0.00827015C 0.989739 0.0457701 1.10224 0.21452 1.04599 0.36452L 0.577238 2.05202C 0.539738 2.20202 0.370988 2.29577 0.220988 2.25827C 0.0709883 2.22077 -0.0415123 2.05202 0.0147377 1.90202L 0.483488 0.214518C 0.520988 0.0645178 0.670989 -0.0292298 0.839739 0.00827015ZM 0.220988 2.20202C 0.352238 2.23952 0.502238 2.16452 0.539738 2.03327L 1.00849 0.345769C 1.04599 0.214519 0.970988 0.0832684 0.820988 0.0457684C 0.689738 0.00826838 0.539738 0.0832678 0.502238 0.214518L 0.0334883 1.90202C 0.0147383 2.03327 0.0897383 2.16452 0.220988 2.20202Z"/><path id="path74_fill" d="M 1.87515 0.0297957C 2.02515 0.0860457 2.0814 0.254795 2.02515 0.386045L 0.525146 4.00479C 0.468896 4.13604 0.300146 4.21104 0.168896 4.13604C 0.0376461 4.06104 -0.0373542 3.91105 0.0188958 3.7798L 1.5189 0.161044C 1.57515 0.0297939 1.7439 -0.0452043 1.87515 0.0297957Z"/><path id="path75_fill" d="M 1.91243 0.0294235C 2.06243 0.0856735 2.13743 0.254423 2.08118 0.404423L 0.581176 4.02317C 0.524926 4.17317 0.356176 4.22942 0.187426 4.17317C 0.0374256 4.11692 -0.0375738 3.94817 0.0186762 3.79817L 1.51868 0.179422C 1.59368 0.0294223 1.76243 -0.0455765 1.91243 0.0294235ZM 0.206176 4.13567C 0.337426 4.19192 0.487426 4.13567 0.543676 4.00442L 2.04368 0.385673C 2.09993 0.254423 2.02493 0.123172 1.89368 0.0669217C 1.76243 0.0106717 1.61243 0.0669229 1.55618 0.198173L 0.0561759 3.81692C 0.0186759 3.92942 0.0749262 4.07942 0.206176 4.13567Z"/><path id="path76_fill" d="M 1.18422 0.0335931C 1.31547 0.108593 1.37172 0.258593 1.31547 0.389843L 0.527969 1.94609C 0.452969 2.07734 0.30297 2.13359 0.15297 2.05859C 0.0217198 1.98359 -0.0345306 1.83359 0.0217194 1.70234L 0.809219 0.146094C 0.884219 0.0148437 1.03422 -0.0414068 1.18422 0.0335931Z"/><path id="path77_fill" d="M 1.21433 0.0330759C 1.36433 0.108076 1.42058 0.276826 1.34558 0.426826L 0.558075 1.98308C 0.483075 2.13308 0.314326 2.18933 0.164326 2.11433C 0.0143262 2.03933 -0.0419243 1.87058 0.0330757 1.72058L 0.820576 0.164327C 0.895576 0.0143271 1.06433 -0.0419241 1.21433 0.0330759ZM 0.183076 2.07683C 0.314326 2.13308 0.464326 2.09557 0.520576 1.96432L 1.30808 0.408076C 1.36433 0.295576 1.30808 0.145577 1.19558 0.0705771C 1.06433 0.0143271 0.914326 0.0518247 0.858076 0.183075L 0.0705762 1.73933C 0.0143262 1.85183 0.070576 2.00183 0.183076 2.07683Z"/><path id="path78_fill" d="M 2.60208 0.0520762C 2.73333 0.145826 2.77083 0.314576 2.67708 0.427076L 0.502077 3.67083C 0.427077 3.80208 0.258327 3.82083 0.127077 3.74583C -0.00417291 3.65208 -0.0416723 3.48333 0.0520777 3.37083L 2.22708 0.127079C 2.30208 -0.00417143 2.47083 -0.0416738 2.60208 0.0520762Z"/><path id="path79_fill" d="M 2.62572 0.0520786C 2.75697 0.145829 2.79447 0.333327 2.71947 0.464577L 0.544475 3.70833C 0.450725 3.83958 0.281975 3.87708 0.131975 3.78333C 0.000724946 3.68958 -0.036775 3.50208 0.038225 3.37083L 2.21322 0.127078C 2.30697 -0.00417202 2.49447 -0.0416714 2.62572 0.0520786ZM 0.150725 3.74583C 0.263225 3.82083 0.431975 3.80208 0.506975 3.68958L 2.68197 0.445826C 2.75697 0.333326 2.71948 0.183327 2.60698 0.108327C 2.49448 0.0333274 2.32573 0.0520762 2.25073 0.164576L 0.0757254 3.38958C 0.000725396 3.50208 0.0382248 3.67083 0.150725 3.74583Z"/><path id="path80_fill" d="M 1.51564 0.0600261C 1.62814 0.153776 1.66563 0.322526 1.57188 0.435026L 0.484385 1.80377C 0.390635 1.91627 0.221885 1.93503 0.109385 1.84128C -0.00311486 1.74753 -0.0406152 1.57878 0.0531348 1.46628L 1.14064 0.0975273C 1.23439 -0.0149727 1.40314 -0.0337239 1.51564 0.0600261Z"/><path id="path81_fill" d="M 1.55859 0.073869C 1.68984 0.167619 1.70859 0.35512 1.61484 0.48637L 0.527344 1.85512C 0.433594 1.98637 0.246093 2.00512 0.114843 1.89262C -0.0164065 1.79887 -0.0351561 1.61137 0.0585939 1.48012L 1.14609 0.11137C 1.23984 -0.0198798 1.42734 -0.038631 1.55859 0.073869ZM 0.152344 1.85512C 0.264844 1.94887 0.414844 1.93012 0.508594 1.81762L 1.59609 0.448869C 1.67109 0.336369 1.65234 0.18637 1.53984 0.0926196C 1.42734 -0.00113038 1.27734 0.0176208 1.18359 0.130121L 0.0960936 1.49887C 0.0210936 1.61137 0.0398439 1.78012 0.152344 1.85512Z"/><path id="path82_fill" d="M 3.2275 0.084375C 3.34 0.196875 3.34 0.365625 3.2275 0.459375L 0.452503 3.21563C 0.340003 3.32813 0.171253 3.30938 0.0775029 3.21563C -0.0162471 3.12188 -0.0349971 2.93438 0.0775029 2.84063L 2.83375 0.084375C 2.94625 -0.028125 3.115 -0.028125 3.2275 0.084375Z"/><path id="path83_fill" d="M 3.27187 0.0843744C 3.38437 0.196874 3.38437 0.384376 3.27187 0.496876L 0.496875 3.25312C 0.384375 3.36562 0.196875 3.36562 0.0843751 3.25312C -0.0281249 3.14062 -0.0281249 2.95313 0.0843751 2.84063L 2.85937 0.0843744C 2.97187 -0.0281256 3.15937 -0.0281256 3.27187 0.0843744ZM 0.103125 3.23438C 0.196875 3.32813 0.365625 3.32813 0.459375 3.23438L 3.23437 0.478125C 3.32812 0.384375 3.32812 0.215626 3.23437 0.121876C 3.14062 0.0281256 2.97188 0.0281256 2.87813 0.121876L 0.103125 2.87812C 0.009375 2.97187 0.009375 3.12188 0.103125 3.23438Z"/><path id="path84_fill" d="M 1.79313 0.0975249C 1.88688 0.210025 1.88688 0.378775 1.77438 0.472525L 0.443129 1.59752C 0.330629 1.69127 0.161879 1.67253 0.0681286 1.56003C -0.0256214 1.44753 -0.0256212 1.27878 0.0868788 1.18503L 1.41813 0.0600267C 1.53063 -0.0337233 1.69938 -0.0149751 1.79313 0.0975249Z"/><path id="path85_fill" d="M 1.83808 0.111371C 1.95058 0.242621 1.93183 0.430119 1.81933 0.523869L 0.488083 1.64887C 0.375583 1.76137 0.188083 1.74262 0.0755833 1.61137C -0.0369167 1.48012 -0.0181669 1.29262 0.0943331 1.19887L 1.42558 0.0738696C 1.53808 -0.0386304 1.72558 -0.0198792 1.83808 0.111371ZM 0.113083 1.59262C 0.206833 1.70512 0.356833 1.70512 0.469333 1.63012L 1.80058 0.505118C 1.89433 0.411368 1.91308 0.261369 1.81933 0.148869C 1.72558 0.036369 1.57558 0.0363708 1.46308 0.111371L 0.131833 1.23637C 0.0193332 1.33012 0.0193333 1.48012 0.113083 1.59262Z"/><path id="path86_fill" d="M 3.76458 0.114019C 3.85833 0.245269 3.82083 0.414019 3.68958 0.489019L 0.427077 2.66402C 0.295827 2.73902 0.127077 2.70152 0.0520774 2.58902C -0.0416726 2.45777 -0.00417247 2.28902 0.127078 2.21402L 3.38958 0.0390194C 3.50208 -0.0359806 3.67083 0.00151885 3.76458 0.114019Z"/><path id="path87_fill" d="M 3.80208 0.144861C 3.89583 0.276111 3.85833 0.463612 3.72708 0.557362L 0.464577 2.73236C 0.333327 2.82611 0.145828 2.78861 0.0520775 2.63861C -0.0416725 2.50736 -0.00417269 2.31986 0.127077 2.22611L 3.38958 0.0511112C 3.52083 -0.0426388 3.70833 -0.00513878 3.80208 0.144861ZM 0.0895772 2.60111C 0.164577 2.71361 0.314578 2.75111 0.427078 2.67611L 3.68958 0.501111C 3.80208 0.426111 3.83958 0.276111 3.74583 0.144861C 3.67083 0.0323612 3.52083 -0.00513819 3.40833 0.0698618L 0.145828 2.24486C 0.0333275 2.33861 0.0145772 2.48861 0.0895772 2.60111Z"/><path id="path88_fill" d="M 2.02573 0.146091C 2.10073 0.277341 2.06323 0.446091 1.93198 0.521091L 0.413225 1.38359C 0.281975 1.45859 0.113225 1.40234 0.038225 1.27109C -0.036775 1.13984 0.000725016 0.971091 0.131975 0.896091L 1.65073 0.0335937C 1.78198 -0.0414063 1.95073 0.0148414 2.02573 0.146091Z"/><path id="path89_fill" d="M 2.04448 0.146094C 2.11948 0.296094 2.08198 0.464841 1.95073 0.539841L 0.431975 1.40234C 0.300725 1.47734 0.113225 1.42109 0.038225 1.28984C -0.036775 1.13984 0.000725015 0.971094 0.131975 0.896094L 1.65073 0.0335931C 1.78198 -0.0414068 1.96948 0.0148437 2.04448 0.146094ZM 0.0569752 1.27109C 0.131975 1.40234 0.281975 1.43984 0.394475 1.36484L 1.91323 0.502343C 2.02573 0.427343 2.06323 0.277341 2.00698 0.164841C 1.93198 0.0335914 1.78198 -0.00390862 1.66948 0.0710914L 0.150725 0.933592C 0.0382252 0.989842 0.000725246 1.13984 0.0569752 1.27109Z"/><path id="path90_fill" d="M 4.1464 0.171396C 4.20265 0.321396 4.1464 0.471396 3.9964 0.527646L 0.377646 2.02765C 0.246396 2.0839 0.0776463 2.0089 0.0213963 1.87765C -0.0348537 1.72765 0.0213962 1.57765 0.171396 1.5214L 3.79015 0.0213975C 3.9214 -0.0348525 4.09015 0.0213963 4.1464 0.171396Z"/><path id="path91_fill" d="M 4.16515 0.187425C 4.2214 0.337425 4.16515 0.506176 4.01515 0.581176L 0.396396 2.08118C 0.246396 2.13743 0.0776463 2.06243 0.0213963 1.91243C -0.0348537 1.76243 0.0213962 1.59368 0.171396 1.51868L 3.79015 0.0186759C 3.94015 -0.0375741 4.1089 0.0374253 4.16515 0.187425ZM 0.0588962 1.89368C 0.115146 2.02493 0.265146 2.08117 0.377646 2.04367L 3.9964 0.543675C 4.12765 0.487425 4.1839 0.337426 4.12765 0.206176C 4.0714 0.0749259 3.9214 0.0186771 3.8089 0.0561771L 0.190146 1.55618C 0.0588963 1.61243 0.0026462 1.76243 0.0588962 1.89368Z"/><path id="path92_fill" d="M 2.17493 0.187426C 2.23118 0.337426 2.15618 0.487425 2.00618 0.543675L 0.356176 1.08742C 0.224926 1.14367 0.0561759 1.04993 0.0186759 0.918675C -0.0375741 0.768675 0.0374258 0.618676 0.187426 0.562426L 1.83743 0.0186765C 1.96868 -0.0375735 2.11868 0.0374259 2.17493 0.187426Z"/><path id="path93_fill" d="M 2.23097 0.197056C 2.28722 0.347056 2.21222 0.515806 2.04347 0.572056L 0.393467 1.11581C 0.243467 1.17206 0.0747173 1.07831 0.0184673 0.928305C -0.0377827 0.778305 0.0372173 0.609555 0.205967 0.553305L 1.85597 0.00955568C 2.00597 -0.0279443 2.17472 0.0470557 2.23097 0.197056ZM 0.0559674 0.909558C 0.0934674 1.04081 0.243467 1.11581 0.374717 1.07831L 2.02472 0.534557C 2.15597 0.497057 2.21222 0.347056 2.17472 0.215806C 2.13722 0.0845563 1.98722 0.00955687 1.85597 0.0470569L 0.205967 0.590806C 0.0747173 0.647056 0.0184674 0.778308 0.0559674 0.909558Z"/><path id="path94_fill" d="M 4.37702 0.227378C 4.41452 0.377378 4.32077 0.527376 4.17077 0.546126L 0.327019 1.29613C 0.177019 1.33363 0.045769 1.22113 0.00826895 1.07113C -0.029231 0.921128 0.064519 0.771127 0.214519 0.752377L 4.05827 0.00237677C 4.20827 -0.0163732 4.35827 0.077378 4.37702 0.227378Z"/><path id="path95_fill" d="M 4.41352 0.250977C 4.45102 0.419727 4.33852 0.569726 4.18852 0.607226L 0.344768 1.35723C 0.194768 1.39473 0.044768 1.28223 0.00726804 1.11348C -0.030232 0.944727 0.082268 0.794725 0.232268 0.757225L 4.07602 0.00722483C 4.22602 -0.0302752 4.37602 0.0822266 4.41352 0.250977ZM 0.044768 1.09473C 0.063518 1.22598 0.194768 1.31973 0.326018 1.30098L 4.16977 0.550977C 4.30102 0.532227 4.39477 0.382227 4.35727 0.250977C 4.33852 0.119727 4.20727 0.025976 4.07602 0.044726L 0.232268 0.794726C 0.101018 0.832226 0.00726802 0.963477 0.044768 1.09473Z"/><path id="path96_fill" d="M 2.25238 0.245794C 2.27113 0.395794 2.17738 0.527044 2.02738 0.545794L 0.302377 0.752045C 0.152377 0.770795 0.0211273 0.658295 0.00237735 0.508295C -0.0163727 0.358295 0.0773773 0.227044 0.227377 0.208294L 1.95238 0.00204506C 2.08363 -0.0167049 2.23363 0.0957939 2.25238 0.245794Z"/><path id="path97_fill" d="M 2.28954 0.264537C 2.30829 0.433287 2.19579 0.583287 2.04579 0.602037L 0.320794 0.808287C 0.170794 0.827037 0.0207945 0.714537 0.00204451 0.545787C -0.0167055 0.377037 0.0957944 0.227038 0.245794 0.208288L 1.97079 0.00203713C 2.12079 -0.0167129 2.27079 0.0957866 2.28954 0.264537ZM 0.0207945 0.527037C 0.0395445 0.658287 0.170794 0.770787 0.302044 0.752037L 2.02704 0.545787C 2.15829 0.527037 2.25204 0.395787 2.23329 0.264537C 2.21454 0.133287 2.08329 0.0207868 1.95204 0.0395368L 0.227044 0.245787C 0.0957945 0.264537 0.00204445 0.395787 0.0207945 0.527037Z"/><path id="path98_fill" d="M 4.44375 0.28125C 4.44375 0.43125 4.33125 0.5625 4.18125 0.5625L 0.2625 0.5625C 0.1125 0.5625 -1.84582e-08 0.43125 -1.84582e-08 0.28125C -1.84582e-08 0.13125 0.1125 -2.95331e-07 0.2625 -2.95331e-07L 4.18125 -2.95331e-07C 4.33125 -2.95331e-07 4.44375 0.13125 4.44375 0.28125Z"/><path id="path99_fill" d="M 4.48125 0.3C 4.48125 0.46875 4.35 0.6 4.2 0.6L 0.28125 0.6C 0.13125 0.6 3.69164e-08 0.46875 3.69164e-08 0.3C 3.69164e-08 0.13125 0.13125 5.90663e-07 0.28125 5.90663e-07L 4.2 5.90663e-07C 4.35 5.90663e-07 4.48125 0.13125 4.48125 0.3ZM 0.0375 0.281251C 0.0375 0.412501 0.15 0.54375 0.28125 0.54375L 4.2 0.54375C 4.33125 0.54375 4.44375 0.431251 4.44375 0.281251C 4.44375 0.150001 4.33125 0.0187497 4.2 0.0187497L 0.28125 0.0187497C 0.15 0.0374997 0.0375 0.150001 0.0375 0.281251Z"/><path id="path100_fill" d="M 2.27079 0.431251C 2.25204 0.581251 2.13954 0.69375 1.98954 0.69375L 0.245794 0.5625C 0.0957945 0.54375 -0.0167055 0.4125 0.00204445 0.2625C 0.0207945 0.1125 0.133294 2.95331e-07 0.283294 2.95331e-07L 2.02704 0.13125C 2.15829 0.15 2.27079 0.281251 2.27079 0.431251Z"/><path id="path101_fill" d="M 2.30804 0.450001C 2.28929 0.618751 2.15804 0.731251 2.00804 0.731251L 0.264291 0.599999C 0.114291 0.581249 -0.0169587 0.45 0.00179128 0.28125C 0.0205413 0.1125 0.151791 -2.95331e-07 0.301791 -2.95331e-07L 2.04554 0.131249C 2.19554 0.149999 2.30804 0.300001 2.30804 0.450001ZM 0.0205412 0.28125C 0.00179123 0.4125 0.114291 0.543751 0.245541 0.543751L 1.98929 0.675C 2.12054 0.675 2.23304 0.58125 2.25179 0.43125C 2.27054 0.3 2.15804 0.168751 2.02679 0.168751L 0.283041 0.0374994C 0.151791 0.0374994 0.0392912 0.15 0.0205412 0.28125Z"/><path id="path102_fill" d="M 4.37702 1.10863C 4.33952 1.25863 4.20827 1.35238 4.05827 1.33363L 0.214519 0.546128C 0.064519 0.508628 -0.0292311 0.377378 0.00826893 0.227378C 0.0457689 0.077378 0.177019 -0.0163732 0.327019 0.00237677L 4.17077 0.771127C 4.30202 0.808627 4.39577 0.958628 4.37702 1.10863Z"/><path id="path103_fill" d="M 4.41352 1.12737C 4.37602 1.29612 4.22602 1.38987 4.07602 1.37112L 0.232268 0.602366C 0.0822681 0.564866 -0.0302319 0.414866 0.00726807 0.246116C 0.0447681 0.0773665 0.194768 -0.0163838 0.344768 0.00236621L 4.18852 0.771115C 4.33852 0.808615 4.43227 0.958616 4.41352 1.12737ZM 0.0447681 0.246116C 0.0260181 0.377367 0.101018 0.508616 0.232268 0.546116L 4.07602 1.31487C 4.20727 1.33362 4.33852 1.25862 4.37602 1.10862C 4.39477 0.977366 4.31977 0.846117 4.18852 0.808617L 0.344768 0.0398659C 0.194768 0.0211159 0.0822681 0.114866 0.0447681 0.246116Z"/><path id="path104_fill" d="M 2.22206 0.814519C 2.18456 0.964519 2.03456 1.05827 1.88456 1.02077L 0.197056 0.552018C 0.0470562 0.514518 -0.0279438 0.36452 0.00955624 0.21452C 0.0470562 0.0645196 0.197056 -0.029231 0.347056 0.00826897L 2.03456 0.477019C 2.18456 0.514519 2.25956 0.664519 2.22206 0.814519Z"/><path id="path105_fill" d="M 2.25827 0.839739C 2.22077 0.989739 2.05202 1.10224 1.90202 1.04599L 0.214519 0.577238C 0.0645189 0.539738 -0.0292311 0.370988 0.0082689 0.220988C 0.0457689 0.0709883 0.214519 -0.0415123 0.364519 0.0147377L 2.05202 0.483488C 2.20202 0.520988 2.29577 0.670989 2.25827 0.839739ZM 0.064519 0.220988C 0.027019 0.352238 0.102019 0.502238 0.233269 0.539738L 1.92077 1.00849C 2.05202 1.04599 2.18327 0.970988 2.22077 0.820988C 2.25827 0.689738 2.18327 0.539738 2.05202 0.502238L 0.364519 0.0334883C 0.233269 0.0147383 0.102019 0.0897383 0.064519 0.220988Z"/><path id="path106_fill" d="M 4.1439 1.87765C 4.08765 2.02765 3.9189 2.0839 3.78765 2.02765L 0.168896 0.527647C 0.0376458 0.471397 -0.0373543 0.302646 0.0188957 0.171396C 0.0751457 0.0213957 0.243896 -0.0348531 0.375146 0.0213969L 3.9939 1.5214C 4.1439 1.57765 4.20015 1.7464 4.1439 1.87765Z"/><path id="path107_fill" d="M 4.16515 1.91243C 4.1089 2.06243 3.94015 2.13743 3.79015 2.08118L 0.171396 0.581176C 0.0213963 0.524926 -0.0348538 0.356175 0.0213962 0.187425C 0.0776462 0.0374253 0.246396 -0.0375741 0.396396 0.0186759L 4.01515 1.51868C 4.16515 1.59368 4.2214 1.76243 4.16515 1.91243ZM 0.0588963 0.206176C 0.00264627 0.337426 0.0588963 0.487426 0.190146 0.543676L 3.8089 2.04368C 3.94015 2.09993 4.0714 2.02493 4.12765 1.89368C 4.1839 1.76243 4.12765 1.61243 3.9964 1.55618L 0.377646 0.0561756C 0.246396 0.0186756 0.0963963 0.0749259 0.0588963 0.206176Z"/><path id="path108_fill" d="M 2.05859 1.18422C 1.98359 1.31547 1.83359 1.37172 1.70234 1.31547L 0.146092 0.52797C 0.0148424 0.47172 -0.0414074 0.30297 0.0335926 0.15297C 0.108593 0.0217197 0.258593 -0.03453 0.389843 0.02172L 1.94609 0.80922C 2.07734 0.88422 2.13359 1.05297 2.05859 1.18422Z"/><path id="path109_fill" d="M 2.11433 1.21433C 2.03933 1.36433 1.87058 1.42058 1.72058 1.34558L 0.164326 0.558076C 0.0143259 0.483076 -0.0419242 0.314326 0.0330758 0.164326C 0.108076 0.0143259 0.276826 -0.0419238 0.426826 0.0330762L 1.98308 0.820576C 2.13308 0.876826 2.18933 1.06433 2.11433 1.21433ZM 0.0893257 0.183076C 0.0330757 0.314326 0.0705759 0.464325 0.201826 0.520575L 1.75808 1.30808C 1.87058 1.36433 2.02058 1.30808 2.09558 1.19558C 2.15183 1.06433 2.11433 0.914326 1.98308 0.858076L 0.408076 0.0705759C 0.295576 0.0143259 0.145576 0.0518257 0.0893257 0.183076Z"/><path id="path110_fill" d="M 3.73762 2.58333C 3.64387 2.71458 3.49387 2.75208 3.36262 2.65833L 0.118867 0.502077C -0.0123832 0.427077 -0.0311333 0.258327 0.0438667 0.127077C 0.118867 -0.00417261 0.287617 -0.0416728 0.418867 0.0520772L 3.68137 2.22708C 3.79387 2.30208 3.83137 2.47083 3.73762 2.58333Z"/><path id="path111_fill" d="M 3.78333 2.62572C 3.68958 2.75697 3.50208 2.79447 3.37083 2.71947L 0.127077 0.544475C -0.00417276 0.450725 -0.0416725 0.281975 0.0520775 0.131975C 0.145827 0.000725246 0.333328 -0.0367748 0.464578 0.0382252L 3.70833 2.21323C 3.85833 2.30698 3.87708 2.49447 3.78333 2.62572ZM 0.0895775 0.150725C 0.0145775 0.263225 0.0333275 0.431975 0.145827 0.506975L 3.40833 2.68198C 3.52083 2.75698 3.67083 2.71948 3.74583 2.60698C 3.82083 2.49448 3.80208 2.32572 3.68958 2.25072L 0.427077 0.075725C 0.314577 0.000724952 0.164578 0.0382251 0.0895775 0.150725Z"/><path id="path112_fill" d="M 1.84128 1.49688C 1.74753 1.60938 1.57878 1.64688 1.46628 1.55313L 0.0975261 0.484385C -0.0149739 0.390635 -0.033724 0.221885 0.060026 0.109385C 0.153776 -0.00311545 0.322526 -0.040615 0.435026 0.053135L 1.80378 1.12188C 1.91628 1.21563 1.93503 1.38438 1.84128 1.49688Z"/><path id="path113_fill" d="M 1.89609 1.53984C 1.80234 1.67109 1.61484 1.68984 1.48359 1.59609L 0.114844 0.527344C -0.0164061 0.433594 -0.0351564 0.246094 0.0585936 0.114844C 0.152344 -0.0164064 0.339844 -0.035156 0.471094 0.058594L 1.83984 1.12734C 1.97109 1.22109 1.98984 1.40859 1.89609 1.53984ZM 0.0960937 0.133593C 0.00234367 0.246093 0.0210937 0.396094 0.133594 0.489844L 1.50234 1.55859C 1.61484 1.63359 1.76484 1.61484 1.85859 1.50234C 1.95234 1.38984 1.93359 1.23984 1.82109 1.14609L 0.452344 0.0773439C 0.339844 0.0023439 0.189844 0.0210935 0.0960937 0.133593Z"/><path id="path114_fill" d="M 3.24625 3.21562C 3.13375 3.32812 2.965 3.32812 2.87125 3.21562L 0.0775032 0.459375C -0.0349968 0.346875 -0.0162468 0.178125 0.0775032 0.0843752C 0.190003 -0.0281249 0.358753 -0.0281249 0.452503 0.0843752L 3.2275 2.84062C 3.34 2.93437 3.34 3.12187 3.24625 3.21562Z"/><path id="path115_fill" d="M 3.27187 3.25312C 3.15937 3.36562 2.97188 3.36562 2.85938 3.25312L 0.0843747 0.496875C -0.0281253 0.384375 -0.0281253 0.196875 0.0843747 0.0843753C 0.196875 -0.0281247 0.384375 -0.0281247 0.496875 0.0843753L 3.27187 2.84062C 3.40312 2.95312 3.40312 3.14062 3.27187 3.25312ZM 0.121875 0.121875C 0.0281251 0.215625 0.0281251 0.384375 0.121875 0.478125L 2.89687 3.23437C 2.99062 3.32812 3.15937 3.32812 3.25312 3.23437C 3.34687 3.14062 3.34687 2.97187 3.25312 2.87812L 0.478125 0.103125C 0.384375 0.00937515 0.234375 0.009375 0.121875 0.121875Z"/><path id="path116_fill" d="M 1.57878 1.77438C 1.46628 1.86813 1.29753 1.86813 1.20378 1.75563L 0.0600258 0.443129C -0.0337242 0.330629 -0.0149738 0.161879 0.0975262 0.0681286C 0.210026 -0.0256214 0.378776 -0.0256212 0.472526 0.0868788L 1.61628 1.39938C 1.71003 1.49313 1.69128 1.66188 1.57878 1.77438Z"/><path id="path117_fill" d="M 1.63012 1.81933C 1.49887 1.93183 1.33012 1.91308 1.21762 1.80058L 0.0738695 0.488083C -0.0386305 0.375583 -0.0198801 0.188083 0.11137 0.0755834C 0.24262 -0.0369166 0.41137 -0.0181668 0.52387 0.0943333L 1.66762 1.40683C 1.76137 1.53808 1.76137 1.72558 1.63012 1.81933ZM 0.13012 0.113083C 0.0176198 0.206833 0.0176193 0.356833 0.0926193 0.469333L 1.23637 1.78183C 1.33012 1.87558 1.48012 1.89433 1.59262 1.80058C 1.70512 1.70683 1.70512 1.55683 1.63012 1.44433L 0.48637 0.131833C 0.39262 0.0193333 0.24262 0.0193331 0.13012 0.113083Z"/><path id="path118_fill" d="M 2.60777 3.74583C 2.47652 3.83958 2.30777 3.80208 2.23277 3.67083L 0.0390194 0.427077C -0.0359806 0.295827 0.00151958 0.127077 0.11402 0.0520773C 0.24527 -0.0416727 0.41402 -0.00417254 0.48902 0.127077L 2.66402 3.37083C 2.75777 3.50208 2.72027 3.67083 2.60777 3.74583Z"/><path id="path119_fill" d="M 2.63861 3.78333C 2.50736 3.87708 2.31986 3.83958 2.22611 3.70833L 0.051112 0.464578C -0.042638 0.333328 -0.00513804 0.145827 0.144862 0.0520775C 0.276112 -0.0416725 0.463612 -0.00417276 0.557362 0.127077L 2.73236 3.37083C 2.82611 3.52083 2.78861 3.68958 2.63861 3.78333ZM 0.163612 0.0895775C 0.0511118 0.164578 0.0136117 0.314577 0.0886117 0.427077L 2.26361 3.67083C 2.33861 3.78333 2.48861 3.80208 2.61986 3.72708C 2.73236 3.65208 2.76986 3.50208 2.69486 3.38958L 0.519862 0.164577C 0.444862 0.0520773 0.276112 0.0145775 0.163612 0.0895775Z"/><path id="path120_fill" d="M 1.27109 2.02573C 1.13984 2.10073 0.971093 2.06323 0.896093 1.93198L 0.0335923 0.413225C -0.0414077 0.281975 0.0148428 0.113225 0.146093 0.038225C 0.277343 -0.036775 0.446093 0.000724946 0.521093 0.131975L 1.38359 1.65073C 1.43984 1.78198 1.40234 1.95073 1.27109 2.02573Z"/><path id="path121_fill" d="M 1.29375 2.04447C 1.14375 2.11947 0.975 2.08197 0.9 1.95072L 0.0374999 0.431975C -0.0375001 0.300725 -2.8841e-07 0.113225 0.15 0.0382249C 0.3 -0.036775 0.46875 0.000724946 0.54375 0.131975L 1.40625 1.65073C 1.48125 1.78198 1.44375 1.95072 1.29375 2.04447ZM 0.16875 0.0569752C 0.0562503 0.131975 2.99946e-07 0.281975 0.0750003 0.394475L 0.937499 1.91322C 1.0125 2.02572 1.1625 2.06322 1.275 2.00697C 1.3875 1.93197 1.44375 1.78197 1.36875 1.66947L 0.506251 0.150725C 0.450001 0.0382252 0.28125 -0.0180248 0.16875 0.0569752Z"/><path id="path122_fill" d="M 1.8939 4.12797C 1.7439 4.18422 1.5939 4.12797 1.53765 3.99672L 0.0188964 0.37797C -0.0373536 0.24672 0.0376452 0.0779697 0.168895 0.0217197C 0.318895 -0.0345303 0.468896 0.0217197 0.525146 0.15297L 2.0439 3.77172C 2.10015 3.90297 2.02515 4.07172 1.8939 4.12797Z"/><path id="path123_fill" d="M 1.93118 4.16515C 1.78118 4.2214 1.61243 4.16515 1.53743 4.01515L 0.0186753 0.396396C -0.0375747 0.246396 0.0374262 0.0776462 0.187426 0.0213962C 0.337426 -0.0348538 0.506175 0.0213963 0.581175 0.171396L 2.09993 3.79015C 2.15618 3.9214 2.08118 4.09015 1.93118 4.16515ZM 0.224926 0.0588963C 0.0936759 0.115146 0.0374262 0.265146 0.0936762 0.377646L 1.61243 3.9964C 1.66868 4.12765 1.81868 4.1839 1.94993 4.12765C 2.08118 4.0714 2.13743 3.9214 2.08118 3.8089L 0.562426 0.190146C 0.487426 0.0588963 0.356176 0.00264627 0.224926 0.0588963Z"/><path id="path124_fill" d="M 0.916653 2.1675C 0.766653 2.22375 0.616654 2.14875 0.560404 1.99875L 0.016653 0.34875C -0.039597 0.2175 0.0541539 0.04875 0.185404 0.01125C 0.316654 -0.02625 0.485403 0.03 0.541653 0.18L 1.0854 1.83C 1.14165 1.96125 1.06665 2.11125 0.916653 2.1675Z"/><path id="path125_fill" d="M 0.935251 2.21243C 0.785251 2.26868 0.616501 2.19368 0.560251 2.04368L 0.0164997 0.393676C -0.0397503 0.243676 0.0539997 0.0749259 0.204 0.0186759C 0.354 -0.0375741 0.52275 0.0374258 0.579 0.187426L 1.12275 1.83743C 1.16025 1.98743 1.08525 2.15618 0.935251 2.21243ZM 0.204 0.056176C 0.0727497 0.093676 -0.0022497 0.243676 0.0352503 0.374926L 0.579 2.02493C 0.6165 2.15618 0.766499 2.21243 0.897749 2.17493C 1.029 2.13743 1.104 1.98743 1.0665 1.85618L 0.522749 0.206176C 0.485249 0.0749259 0.33525 -7.40405e-05 0.204 0.056176Z"/><path id="path126_fill" d="M 1.11352 4.37702C 0.963518 4.41452 0.813519 4.32077 0.794769 4.17077L 0.00726746 0.327019C -0.0302325 0.177019 0.0822686 0.0457689 0.232269 0.00826893C 0.382269 -0.0292311 0.532268 0.064519 0.551018 0.214519L 1.33852 4.05827C 1.35727 4.18952 1.26352 4.33952 1.11352 4.37702Z"/><path id="path127_fill" d="M 1.15102 4.41352C 0.982268 4.45102 0.832267 4.33852 0.794767 4.18852L 0.00726776 0.344768C -0.0302322 0.194768 0.0822675 0.0260181 0.232267 0.00726807C 0.401017 -0.0302319 0.551018 0.0822681 0.588518 0.232268L 1.37602 4.07602C 1.41352 4.22602 1.31977 4.37602 1.15102 4.41352ZM 0.269769 0.0447681C 0.138519 0.0635181 0.0447681 0.194768 0.0635181 0.344768L 0.851018 4.18852C 0.869768 4.31977 1.01977 4.41352 1.15102 4.37602C 1.28227 4.35727 1.37602 4.22602 1.35727 4.07602L 0.569768 0.232268C 0.532268 0.101018 0.401019 0.0260181 0.269769 0.0447681Z"/><path id="path128_fill" d="M 0.545794 2.25238C 0.395794 2.27113 0.264544 2.17738 0.227044 2.02738L 0.00204447 0.302377C -0.0167055 0.152377 0.0957948 0.0211273 0.245795 0.00237735C 0.395795 -0.0163727 0.527044 0.0773773 0.564544 0.227377L 0.789544 1.95238C 0.808294 2.10238 0.695794 2.23363 0.545794 2.25238Z"/><path id="path129_fill" d="M 0.564537 2.28954C 0.395787 2.30829 0.245788 2.19579 0.227038 2.04579L 0.00203654 0.320794C -0.0167135 0.170794 0.0957874 0.0207945 0.264537 0.00204451C 0.433287 -0.0167055 0.583288 0.0957944 0.602038 0.245794L 0.827037 1.97079C 0.845787 2.12079 0.733287 2.27079 0.564537 2.28954ZM 0.283287 0.0395445C 0.152037 0.0582945 0.0395368 0.189544 0.0582868 0.320794L 0.283287 2.04579C 0.302037 2.17704 0.433287 2.27079 0.564537 2.25204C 0.695787 2.23329 0.808288 2.10204 0.789538 1.97079L 0.564537 0.245794C 0.545787 0.114544 0.414537 0.0207945 0.283287 0.0395445Z"/><path id="path130_fill" d="M 22.2 44.4C 34.4607 44.4 44.4 34.4607 44.4 22.2C 44.4 9.93928 34.4607 0 22.2 0C 9.93928 0 0 9.93928 0 22.2C 0 34.4607 9.93928 44.4 22.2 44.4Z"/><path id="path131_fill" d="M 29.1188 2.95331e-07L 11.2125 11.475L 11.1938 11.475L 11.1938 11.4937L 11.175 11.5125L 1.47666e-07 29.9438L 16.425 16.725L 16.4438 16.7062L 16.4438 16.6875L 29.1188 2.95331e-07Z"/><path id="path132_fill" d="M 17.7 -1.47666e-07L 0 12.5812L 5.25 17.7937L 17.7 -1.47666e-07Z"/><path id="path133_fill" d="M 5.90663e-07 12.5437L 2.64375 15.15L 17.6812 -1.47666e-07L 5.90663e-07 12.5437Z"/><path id="path134_fill" d="M 12.45 0L 17.7 5.2125L -2.95331e-07 17.7937L 12.45 0Z"/><path id="path135_fill" d="M -2.95331e-07 17.7937L 15.0938 2.60625L 12.45 0L -2.95331e-07 17.7937Z"/></defs></svg>