<svg width="464" height="128" viewBox="0 0 464 128" version="1.1" xmlns="http://www.w3.org/2000/svg" xmlns:xlink="http://www.w3.org/1999/xlink">
<title>sg+gh</title>
<desc>Created using Figma</desc>
<g id="Canvas" transform="translate(-4143 -11972)">
<g id="sg+gh">
<g id="LogoMark">
<g id="Shape">
<use xlink:href="#path0_fill" transform="translate(4178.88 11972)" fill="#F96216"/>
</g>
<g id="Shape">
<use xlink:href="#path1_fill" transform="translate(4157.9 11983.6)" fill="#B200F8"/>
</g>
<g id="Shape">
<use xlink:href="#path2_fill" transform="translate(4143 12006.6)" fill="#00B4F2"/>
</g>
</g>
<g id="icon/add">
<g id="Vector">
<use xlink:href="#path3_fill" transform="translate(4345.01 12016)" fill="#212529"/>
</g>
</g>
<g id="Group">
<g id="Group">
<g id="Group">
<g id="Vector">
<use xlink:href="#path4_fill" transform="translate(4522.73 12086)" fill="#9EDCF2"/>
</g>
<g id="Vector">
<use xlink:href="#path5_fill" transform="translate(4493.65 12071.4)" fill="#9EDCF2"/>
</g>
<g id="Vector">
<use xlink:href="#path6_fill" transform="translate(4542.3 12086)" fill="#9EDCF2"/>
</g>
<g id="Vector">
<use xlink:href="#path7_fill" transform="translate(4544.98 12085.2)" fill="#7DBCE7"/>
</g>
<g id="Vector">
<use xlink:href="#path8_fill" transform="translate(4535.07 12083.4)" fill="#7DBCE7"/>
</g>
<g id="Vector">
<use xlink:href="#path9_fill" transform="translate(4511.09 12081.1)" fill="#7DBCE7"/>
</g>
<g id="Vector">
<use xlink:href="#path10_fill" transform="translate(4544.49 12081.1)" fill="#7DBCE7"/>
</g>
<g id="Vector">
<use xlink:href="#path11_fill" transform="translate(4522.32 12085.2)" fill="#7DBCE7"/>
</g>
<g id="Vector">
<use xlink:href="#path12_fill" transform="translate(4522.26 12083.3)" fill="#7DBCE7"/>
</g>
</g>
<g id="Vector">
<use xlink:href="#path13_fill" transform="translate(4486.55 12043.6)" fill="#9EDCF2"/>
</g>
<g id="Vector">
<use xlink:href="#path14_fill" transform="translate(4461 11972)" fill="#010101"/>
</g>
<g id="Vector">
<use xlink:href="#path15_fill" transform="translate(4500.96 12005)" fill="#F5CCB3"/>
</g>
<g id="Vector">
<use xlink:href="#path16_fill" transform="translate(4509.24 12010.7)" fill="#FFFFFF"/>
</g>
<g id="Vector">
<use xlink:href="#path17_fill" transform="translate(4511.44 12014.2)" fill="#AF5C51"/>
</g>
<g id="Vector">
<use xlink:href="#path18_fill" transform="translate(4545.55 12010.7)" fill="#FFFFFF"/>
</g>
<g id="Vector">
<use xlink:href="#path19_fill" transform="translate(4547.74 12014.2)" fill="#AF5C51"/>
</g>
<g id="Vector">
<use xlink:href="#path20_fill" transform="translate(4531.9 12027.5)" fill="#AF5C51"/>
</g>
<g id="Vector">
<use xlink:href="#path21_fill" transform="translate(4529.69 12032.7)" fill="#AF5C51"/>
</g>
<g id="Vector">
<use xlink:href="#path22_fill" transform="translate(4489.67 12040.4)" fill="#C4E5D9"/>
</g>
<g id="Vector">
<use xlink:href="#path23_fill" transform="translate(4492.92 12042.2)" fill="#C4E5D9"/>
</g>
<g id="Vector">
<use xlink:href="#path24_fill" transform="translate(4494.95 12044.6)" fill="#C4E5D9"/>
</g>
<g id="Vector">
<use xlink:href="#path25_fill" transform="translate(4496.74 12047.3)" fill="#C4E5D9"/>
</g>
<g id="Vector">
<use xlink:href="#path26_fill" transform="translate(4498.77 12049.8)" fill="#C4E5D9"/>
</g>
<g id="Vector">
<use xlink:href="#path27_fill" transform="translate(4501.53 12052)" fill="#C4E5D9"/>
</g>
<g id="Vector">
<use xlink:href="#path28_fill" transform="translate(4505.35 12053.5)" fill="#C4E5D9"/>
</g>
<g id="Vector">
<use xlink:href="#path29_fill" transform="translate(4509.08 12053.5)" fill="#C4E5D9"/>
</g>
<g id="Vector">
<use xlink:href="#path30_fill" transform="translate(4512.98 12052.8)" fill="#C4E5D9"/>
</g>
</g>
</g>
</g>
</g>
<defs>
<path id="path0_fill" fill-rule="evenodd" d="M 0.46094 16.3046L 28.3739 118.505C 30.2534 125.371 37.33 129.416 44.1857 127.542C 51.0414 125.657 55.0751 118.564 53.201 111.698L 25.2826 9.49193C 23.4031 2.62544 16.3266 -1.41906 9.47086 0.46047C 2.62052 2.34 -1.41859 9.43269 0.46094 16.3046"/>
<path id="path1_fill" fill-rule="evenodd" d="M 73.1403 4.34334L 3.23668 83.3969C -1.47562 88.7285 -0.985544 96.8822 4.33532 101.605C 9.65618 106.328 17.7883 105.833 22.5006 100.501L 92.4042 21.4476C 97.1165 16.116 96.6264 7.96778 91.3055 3.24471C 85.9847 -1.47837 77.858 -0.988287 73.1403 4.34334"/>
<path id="path2_fill" fill-rule="evenodd" d="M 8.83101 25.1463L 108.522 58.1701C 115.27 60.4105 122.546 56.7376 124.781 49.9788C 127.015 43.2146 123.348 35.9226 116.605 33.6931L 16.9092 0.653099C 10.1612 -1.57649 2.88543 2.08564 0.655841 8.84981C -1.57914 15.614 2.083 22.9059 8.83101 25.1463"/>
<path id="path3_fill" d="M 38 22L 22 22L 22 38C 22 39.1046 21.1046 40 20 40C 18.8954 40 18 39.1046 18 38L 18 22L 2 22C 0.89544 22 0 21.1046 0 20C 0 18.8954 0.89544 18 2 18L 18 18L 18 2C 18 0.89544 18.8954 1.26953e-07 20 1.26953e-07C 21.1046 1.26953e-07 22 0.89544 22 2L 22 18L 38 18C 39.1046 18 40 18.8954 40 20C 40 21.1046 39.1046 22 38 22Z"/>
<path id="path4_fill" d="M 1.23929e-06 2.47859e-06C 0.406093 0.893404 0.649744 2.03045 0.649744 3.32994L 0.649744 13.5635C 1.38071 13.6447 2.11168 13.7259 2.84264 13.7259L 2.84264 7.14721C 2.84264 7.14721 2.6802 2.03046 1.23929e-06 2.47859e-06Z"/>
<path id="path5_fill" d="M 81.7056 14.2944C 81.7056 6.41624 63.4315 1.23929e-06 40.8528 1.23929e-06C 18.2741 1.23929e-06 -1.23929e-06 6.41624 -1.23929e-06 14.2944C -1.23929e-06 19.8985 9.3401 24.7716 22.9036 27.1269L 22.9036 18.0305C 22.9036 18.0305 22.5787 13.6447 18.5178 12.1827C 18.5178 12.1827 16.1624 10.5584 18.6802 9.66498C 18.6802 9.66498 25.9899 9.09645 28.7513 13.7259C 28.5076 12.8325 28.4264 11.4518 31.1878 12.0203C 31.1878 12.0203 38.8223 13.0761 39.1472 22.0102L 39.2284 28.5076C 39.797 28.5076 40.2843 28.5076 40.8528 28.5076C 41.0152 28.5076 41.1777 28.5076 41.3401 28.5076L 41.4213 22.0102C 41.7462 13.0761 49.3807 12.0203 49.3807 12.0203C 52.1421 11.3706 52.1421 12.8325 51.8173 13.7259C 54.5787 9.01523 61.8883 9.66498 61.8883 9.66498C 64.4061 10.5584 62.0508 12.1827 62.0508 12.1827C 58.0711 13.6447 57.665 18.0305 57.665 18.0305L 57.665 27.2893C 71.8782 25.0964 81.7056 20.0609 81.7056 14.2944Z"/>
<path id="path6_fill" d="M 0 7.14721L 0 13.8071C 0.730964 13.7259 1.46193 13.7259 2.19289 13.6447L 2.19289 3.32994C 2.19289 2.03045 2.43655 0.893404 2.84264 2.47859e-06C 0.162437 2.03046 0 7.14721 0 7.14721Z"/>
<path id="path7_fill" d="M 0.162437 0.649744C 0.162437 0.649744 0.324876 0.324868 0.406094 -4.95717e-06C 0.243657 0.24365 0.162439 0.487312 2.47859e-06 0.730967C 0.162439 0.730967 0.162437 0.649744 0.162437 0.649744Z"/>
<path id="path8_fill" d="M 7.22843 9.71696C 7.22843 9.71696 7.39086 4.6002 10.0711 2.56975C 10.1523 2.32609 10.3147 2.08243 10.4772 1.83878C 10.7208 0.945374 10.802 -0.435329 8.04061 0.133199C 8.04061 0.133199 0.406089 1.18904 0.0812158 10.1231L -1.23929e-06 16.6205C 2.51777 16.6205 4.95431 16.5393 7.30964 16.3769L 7.30964 9.71696L 7.22843 9.71696Z"/>
<path id="path9_fill" d="M 12.2896 8.1522C 12.2896 6.85271 12.046 5.71566 11.6399 4.82226L 11.5587 4.74103C 11.5587 4.74103 11.3962 4.41616 11.2338 4.09128C 8.47238 -0.619376 1.16273 0.0303703 1.16273 0.0303703C -1.35504 0.923771 1.00029 2.54814 1.00029 2.54814C 4.97999 4.01007 5.38608 8.39586 5.38608 8.39586L 5.38608 17.4923C 7.57897 17.8984 9.85308 18.1421 12.2896 18.3857L 12.2896 8.1522Z"/>
<path id="path10_fill" d="M 11.2081 2.53987C 11.2081 2.53987 13.5635 0.915501 11.0457 0.0221001C 11.0457 0.0221001 3.73604 -0.546428 0.974621 4.08301C 0.893402 4.48911 0.730963 4.73276 0.730963 4.73276L 0.649746 4.81399C 0.243655 5.70739 -2.47859e-06 6.84444 -2.47859e-06 8.14393L -2.47859e-06 18.4587C 2.35533 18.215 4.71066 17.9713 6.90355 17.6465L 6.90355 8.38759C 6.82233 8.30637 7.22843 4.0018 11.2081 2.53987Z"/>
<path id="path11_fill" d="M 0.406093 0.730967C 0.324874 0.487312 0.162438 0.24365 1.23929e-06 -4.95717e-06C 0.0812195 0.406086 0.324876 0.649744 0.324876 0.649744C 0.324876 0.649744 0.406093 0.730967 0.406093 0.730967Z"/>
<path id="path12_fill" d="M 3.31227 9.75148L 3.31227 16.3302C 5.6676 16.4926 8.10415 16.655 10.6219 16.655L 10.5407 10.1576C 10.2158 1.22356 2.5813 0.167717 2.5813 0.167717C -0.180121 -0.482029 -0.180121 0.898674 0.144752 1.87329C 0.307189 2.11695 0.388407 2.36061 0.550844 2.60427C 3.14983 4.63472 3.31227 9.75148 3.31227 9.75148Z"/>
<path id="path13_fill" d="M 1.25154 -2.47859e-06L 0.0332667 4.14213C 0.0332667 4.14213 -0.291606 5.60406 1.08911 5.92893C 2.55103 5.92893 2.46982 4.54822 2.30738 4.06091L 1.25154 -2.47859e-06Z"/>
<path id="path14_fill" d="M 145.624 54.4162L 145.706 53.8477C 133.685 51.4112 121.421 51.4112 113.949 51.736C 115.168 47.3502 115.574 42.2335 115.574 36.6294C 115.574 28.5076 112.487 22.0101 107.614 17.0558C 108.508 14.2944 109.645 8.0406 106.477 0.162423C 106.477 0.162423 100.873 -1.62438 88.203 6.82232C 83.2487 5.60405 77.9695 4.9543 72.6904 4.9543C 66.8426 4.9543 60.9949 5.68527 55.5533 7.22841C 42.3959 -1.7056 36.6294 0.162423 36.6294 0.162423C 32.8934 9.58374 35.1675 16.5685 35.8985 18.2741C 31.5127 23.066 28.7513 29.1573 28.7513 36.6294C 28.7513 42.2335 29.401 47.3502 30.9442 51.736C 23.4721 51.4924 11.6142 51.5736 -1.21025e-09 53.8477L 0.162437 54.4162C 11.7767 52.0609 23.7157 51.9797 31.1878 52.3046C 31.5127 53.198 31.9188 54.0914 32.3249 54.9848C 24.934 55.2284 12.3452 56.203 0.243655 59.533L 0.406091 60.0203C 12.5888 56.6091 25.2589 55.6345 32.5685 55.4721C 37.0355 63.6751 45.8071 68.9543 61.2386 70.6599C 59.0457 72.1218 56.7716 74.6396 55.8782 78.8629C 52.8731 80.3249 43.4518 83.8172 37.7665 73.9898C 37.7665 73.9898 34.599 68.1421 28.5076 67.736C 28.5076 67.736 22.5787 67.6548 28.1015 71.3909C 28.1015 71.3909 32.0812 73.2589 34.7614 80.2436C 34.7614 80.2436 38.335 92.1827 55.4721 88.3655L 55.4721 100.711C 55.4721 100.711 55.1472 105.096 51.0863 106.558C 51.0863 106.558 48.731 108.183 51.2487 109.076C 51.2487 109.076 62.2944 109.97 62.2944 100.873L 62.2944 87.3909C 62.2944 87.3909 61.8883 82.0305 64.4873 80.2436L 64.4873 102.335C 64.4873 102.335 64.3249 107.614 61.5634 109.563C 61.5634 109.563 59.7767 112.812 63.7563 111.919C 63.7563 111.919 71.3909 110.863 71.7157 101.929L 71.8782 79.5939L 73.7462 79.5939L 73.9086 101.929C 74.2335 110.863 81.868 111.919 81.868 111.919C 85.8477 112.812 84.0609 109.563 84.0609 109.563C 81.2995 107.533 81.1371 102.335 81.1371 102.335L 81.1371 80.4061C 83.736 82.4365 83.3299 87.3909 83.3299 87.3909L 83.3299 100.873C 83.3299 109.97 94.3756 109.076 94.3756 109.076C 96.8934 108.183 94.5381 106.558 94.5381 106.558C 90.5584 105.096 90.1523 100.711 90.1523 100.711L 90.1523 83.0863C 90.1523 76.1827 87.2284 72.6091 84.467 70.6599C 100.954 69.0355 108.914 63.6751 112.487 55.3909C 119.716 55.5533 132.711 56.4467 145.137 59.9391L 145.3 59.4518C 132.954 55.9594 120.041 55.066 112.731 54.8223C 113.056 54.0101 113.381 53.1167 113.624 52.2233C 121.259 51.9797 133.604 51.9797 145.624 54.4162Z"/>
<path id="path15_fill" d="M 59.533 3.20082C 63.1066 6.44955 65.1371 10.2668 65.1371 14.4902C 65.1371 34.0638 50.599 34.5511 32.5685 34.5511C 14.6193 34.5511 -1.23929e-06 31.8709 -1.23929e-06 14.4902C -1.23929e-06 10.348 2.03046 6.44956 5.52284 3.28204C 11.3706 -2.07836 21.2792 0.764275 32.4873 0.764275C 43.7767 0.764275 53.6041 -2.07836 59.533 3.20082Z"/>
<path id="path16_fill" d="M 13.4822 9.74619C 13.4822 15.1066 10.4772 19.4924 6.74112 19.4924C 3.00508 19.4924 -6.19646e-07 15.1066 -6.19646e-07 9.74619C -6.19646e-07 4.38579 3.00508 6.19646e-07 6.74112 6.19646e-07C 10.3959 6.19646e-07 13.4822 4.38579 13.4822 9.74619Z"/>
<path id="path17_fill" d="M 9.09644 6.49746C 9.09644 10.0711 7.06599 12.9949 4.54822 12.9949C 2.03046 12.9949 -5.77091e-15 10.0711 -5.77091e-15 6.49746C -5.77091e-15 2.92386 2.03046 1.23929e-06 4.54822 1.23929e-06C 7.06599 1.23929e-06 9.09644 2.92386 9.09644 6.49746Z"/>
<path id="path18_fill" d="M 13.4822 9.74619C 13.4822 15.1066 10.4772 19.4924 6.74112 19.4924C 3.00508 19.4924 0 15.1066 0 9.74619C 0 4.38579 3.00508 6.19646e-07 6.74112 6.19646e-07C 10.4772 6.19646e-07 13.4822 4.38579 13.4822 9.74619Z"/>
<path id="path19_fill" d="M 9.09645 6.49746C 9.09645 10.0711 7.06599 12.9949 4.54823 12.9949C 2.03046 12.9949 -2.47859e-06 10.0711 -2.47859e-06 6.49746C -2.47859e-06 2.92386 2.03046 1.23929e-06 4.54823 1.23929e-06C 7.06599 1.23929e-06 9.09645 2.92386 9.09645 6.49746Z"/>
<path id="path20_fill" d="M 3.41117 1.70559C 3.41117 2.6802 2.68021 3.41117 1.70559 3.41117C 0.730967 3.41117 -2.47859e-06 2.6802 -2.47859e-06 1.70559C -2.47859e-06 0.730966 0.730967 2.47859e-06 1.70559 2.47859e-06C 2.68021 2.47859e-06 3.41117 0.812184 3.41117 1.70559Z"/>
<path id="path21_fill" d="M 0.0211273 0.752089C -0.060091 0.508434 0.102347 0.183566 0.346002 0.0211298C 0.589656 -0.0600885 0.914531 0.102343 1.07697 0.345998C 1.48306 1.56427 2.70133 2.37645 4.00082 2.37645C 5.30032 2.37645 6.43737 1.56427 6.92468 0.345998C 7.0059 0.102343 7.33077 -0.0600885 7.65565 0.0211298C 7.8993 0.102348 8.06174 0.427216 7.98052 0.752089C 7.41199 2.37645 5.78763 3.51351 4.08204 3.51351C 2.1328 3.51351 0.589655 2.37645 0.0211273 0.752089Z"/>
<path id="path22_fill" d="M 2.43655 0.81218C 2.43655 1.29949 1.86802 1.62436 1.21827 1.62436C 0.568529 1.62436 6.19646e-07 1.29949 6.19646e-07 0.81218C 6.19646e-07 0.324871 0.568529 -2.47859e-06 1.21827 -2.47859e-06C 1.94924 -2.47859e-06 2.43655 0.406089 2.43655 0.81218Z"/>
<path id="path23_fill" d="M 2.43655 0.812184C 2.43655 1.29949 1.86802 1.62437 1.21827 1.62437C 0.568529 1.62437 6.19646e-07 1.21828 6.19646e-07 0.812184C 6.19646e-07 0.324874 0.568529 1.23929e-06 1.21827 1.23929e-06C 1.86802 1.23929e-06 2.43655 0.406093 2.43655 0.812184Z"/>
<path id="path24_fill" d="M 2.43655 0.812184C 2.43655 1.29949 1.86802 1.62437 1.21827 1.62437C 0.568529 1.62437 6.19646e-07 1.21828 6.19646e-07 0.812184C 6.19646e-07 0.324874 0.568529 1.23929e-06 1.21827 1.23929e-06C 1.94924 1.23929e-06 2.43655 0.324874 2.43655 0.812184Z"/>
<path id="path25_fill" d="M 2.43655 0.81218C 2.43655 1.29949 1.86802 1.62436 1.21828 1.62436C 0.568529 1.62436 1.23929e-06 1.21827 1.23929e-06 0.81218C 1.23929e-06 0.406089 0.568529 -2.47859e-06 1.21828 -2.47859e-06C 1.94924 -2.47859e-06 2.43655 0.406089 2.43655 0.81218Z"/>
<path id="path26_fill" d="M 2.43655 0.812185C 2.43655 1.29949 1.86802 1.62437 1.21828 1.62437C 0.568529 1.62437 1.23929e-06 1.21828 1.23929e-06 0.812185C 1.23929e-06 0.324876 0.568529 2.47859e-06 1.21828 2.47859e-06C 1.94924 2.47859e-06 2.43655 0.406094 2.43655 0.812185Z"/>
<path id="path27_fill" d="M 2.43655 0.812183C 2.43655 1.29949 1.86802 1.62437 1.21827 1.62437C 0.568527 1.62437 -6.19646e-07 1.21827 -6.19646e-07 0.812183C -6.19646e-07 0.324873 0.568527 0 1.21827 0C 1.86802 0 2.43655 0.406091 2.43655 0.812183Z"/>
<path id="path28_fill" d="M 2.43655 0.812185C 2.43655 1.29949 1.86802 1.62437 1.21827 1.62437C 0.568528 1.62437 0 1.21828 0 0.812185C 0 0.324876 0.568528 2.47859e-06 1.21827 2.47859e-06C 1.86802 2.47859e-06 2.43655 0.406094 2.43655 0.812185Z"/>
<path id="path29_fill" d="M 2.43655 0.812185C 2.43655 1.29949 1.86802 1.62437 1.21827 1.62437C 0.568527 1.62437 -1.23929e-06 1.21828 -1.23929e-06 0.812185C -1.23929e-06 0.324876 0.568527 2.47859e-06 1.21827 2.47859e-06C 1.94924 2.47859e-06 2.43655 0.406094 2.43655 0.812185Z"/>
<path id="path30_fill" d="M 2.43655 0.812183C 2.43655 1.29949 1.86802 1.62437 1.21828 1.62437C 0.568529 1.62437 1.23929e-06 1.21827 1.23929e-06 0.812183C 1.23929e-06 0.324873 0.568529 0 1.21828 0C 1.86802 0 2.43655 0.406091 2.43655 0.812183Z"/>
</defs>
</svg>
