<svg width="48" height="48" viewBox="0 0 48 48" fill="none" xmlns="http://www.w3.org/2000/svg">
<rect width="48" height="48" fill="white"/>
<path d="M8.60185 18.0884V18.0667C8.60185 17.6302 8.25566 17.396 7.61879 17.396H6.19922V18.7704H7.56328C8.2218 18.7704 8.60185 18.5465 8.60185 18.0884Z" fill="#0E121B"/>
<path d="M7.85303 20.291H6.19922V21.7322H7.87561C8.54635 21.7322 8.91512 21.4754 8.91512 21.0172V20.9947C8.91512 20.5704 8.58022 20.291 7.85303 20.291Z" fill="#0E121B"/>
<path d="M15.0305 17.518H13.5996V19.407H15.0408C15.768 19.407 16.2036 19.0495 16.2036 18.4794V18.4569C16.2036 17.8313 15.7454 17.518 15.0305 17.518Z" fill="#0E121B"/>
<path d="M21.0996 20.3796H22.8541L21.983 18.167L21.0996 20.3796Z" fill="#0E121B"/>
<path d="M0 0V48H48V0H0ZM16.8975 6H23.7488V7.90028H21.4017V13.8241H19.2333V7.90028H16.8975V6ZM10.1072 6.00094H16.3998V7.83349H12.2531V9.0301H16.0085V10.7394H12.2531V11.9802H16.4553V13.8241H10.1072V6.00094ZM5.3349 11.3208C5.71496 11.7789 6.07244 12.047 6.56444 12.047C7.10066 12.047 7.44685 11.6783 7.44685 10.952V6.00094H9.60395V10.9633C9.60395 11.9464 9.35842 12.6397 8.83349 13.1646C8.31891 13.6792 7.58137 13.9586 6.68768 13.9586C5.32361 13.9586 4.49671 13.3885 3.93791 12.6397L5.3349 11.3208ZM4.13923 15.6519H8.15146C9.13453 15.6519 9.82785 15.8984 10.286 16.3452C10.5992 16.6698 10.7893 17.0828 10.7893 17.619V17.6416C10.7893 18.5466 10.2747 19.0837 9.58137 19.3857C10.5315 19.698 11.1355 20.2342 11.1355 21.2963V21.3189C11.1355 22.6595 10.0405 23.476 8.17404 23.476H4.13923V15.6519ZM22.1402 42H4.14017V39H22.1402V42ZM24.032 23.476L23.4732 22.0677H20.445L19.8862 23.476H18.6566H16.1646L14.5889 21.1063H13.6275V23.476H11.4591V15.6519H15.159C16.3547 15.6519 17.1816 15.9652 17.7065 16.4901C18.1646 16.9483 18.3998 17.5409 18.3998 18.3123V18.3349C18.3998 19.5419 17.7629 20.3349 16.7902 20.7488L18.0132 22.5353L20.937 15.5964H23.0263L26.3575 23.476H24.032ZM28.7817 23.476H26.6134V15.6529H28.7817V23.476ZM36.7056 23.476H34.8166L31.4638 19.1844V23.476H29.318V15.6529H31.3405L34.5597 19.7883V15.6529H36.7056V23.476ZM43.6707 21.0611C43.6707 22.6595 42.4073 23.6096 40.508 23.6096C39.1223 23.6096 37.8147 23.174 36.842 22.3133L38.0489 20.8711C38.8316 21.4864 39.6811 21.81 40.5861 21.81C41.1778 21.81 41.4911 21.6096 41.4911 21.2738V21.2512C41.4911 20.9163 41.2342 20.7488 40.1609 20.4911C38.4958 20.1119 37.2107 19.6425 37.2107 18.0442V18.0216C37.2107 16.5691 38.3622 15.5183 40.2399 15.5183C41.5691 15.5183 42.6087 15.8758 43.4581 16.5579L42.3744 18.0884C41.6585 17.5748 40.8768 17.318 40.1834 17.318C39.6585 17.318 39.4017 17.5296 39.4017 17.8203V17.8429C39.4017 18.2004 39.6698 18.3565 40.7648 18.603C42.5532 18.9944 43.6707 19.5748 43.6707 21.0395V21.0611Z" fill="#0E121B"/>
</svg>
