<svg width="64" height="64" viewBox="0 0 64 64" fill="none" xmlns="http://www.w3.org/2000/svg">
    <path d="M64.0001 24.9L19.1001 0L49.2001 44.6L55.3001 40.6L64.0001 24.9Z" fill="url(#paint0_linear)"/>
    <path d="M64.0001 24.8999L51.2001 25.5999L49.1001 44.4999L55.3001 40.5999L64.0001 24.8999Z"
          fill="url(#paint1_linear)"/>
    <path d="M40.5 1L28 13.2L33.1 57.7L45.2 64L64 53L40.5 1Z" fill="url(#paint2_linear)"/>
    <path d="M44.5 14.0999L33.4 7.8999L28 13.1999L36.8 26.1999L48.1 25.6999L44.5 14.0999Z" fill="url(#paint3_linear)"/>
    <path d="M33.1 57.7L54.9 47.5L64 53L54.9 47.5L40.5 1L28 13.2L33.1 57.7Z" fill="url(#paint4_linear)"/>
    <path d="M48.1001 25.7002L29.6001 26.6002L30.0001 30.7002L49.1001 44.5002L53.1001 41.9002L48.1001 25.7002Z"
          fill="url(#paint5_linear)"/>
    <path d="M40.5 1L54.9 47.5L64 53L40.5 1Z" fill="url(#paint6_linear)"/>
    <path d="M53.0999 41.9001L55.2999 40.6001L56.9999 37.6001L51.5999 25.6001H51.1999L50.3999 33.0001L53.0999 41.9001Z"
          fill="url(#paint7_linear)"/>
    <path d="M54.9001 47.5L33.1001 57.7L45.2001 64L64.0001 53L54.9001 47.5Z" fill="url(#paint8_linear)"/>
    <path d="M33.1001 57.6998L45.2001 63.9998L41.4001 53.7998L33.1001 57.6998Z" fill="url(#paint9_linear)"/>
    <path d="M19.1 0L0 12.9L7.1 56.8L25.5 63.9L49.2 44.6L19.1 0Z" fill="url(#paint10_linear)"/>
    <path d="M19.1 0L0 12.9L13.1 14.7L19.1 0Z" fill="url(#paint11_linear)"/>
    <path d="M19.1 0L0 12.9L13.1 14.7L19.1 0Z" fill="url(#paint12_linear)"/>
    <path d="M17.5 26.5999L0 12.8999L13.1 14.6999L17.5 26.5999Z" fill="url(#paint13_linear)"/>
    <path d="M24.7001 45.4001L7.1001 56.8001L25.5001 63.9001L49.2001 44.6001L24.7001 45.4001Z"
          fill="url(#paint14_linear)"/>
    <path d="M24.7001 45.4L13.1001 14.7L19.1001 0L49.2001 44.6L24.7001 45.4Z" fill="url(#paint15_linear)"/>
    <path d="M19.5001 24L19.1001 0L27.9001 13.2L19.5001 24Z" fill="url(#paint16_linear)"/>
    <path d="M33.1 57.7002L49.2001 44.6002L28 13.2002L6.80005 34.7002L33.1 57.7002Z" fill="url(#paint17_linear)"/>
    <path d="M21.6001 47.6001L7.1001 56.8001L25.5001 63.9001L33.1001 57.7001L21.6001 47.6001Z"
          fill="url(#paint18_linear)"/>
    <path d="M52 12H12V52H52V12Z" fill="url(#paint19_linear)"/>
    <g opacity="0.3">
        <path opacity="0.3" d="M49.2001 44.6L52 42.7V18.2L40.9 12H27.3L49.2001 44.6Z" fill="url(#paint20_linear)"/>
        <path opacity="0.3" d="M12 52H40L49.2 44.6L27.3 12H12V52Z" fill="url(#paint21_linear)"/>
        <path opacity="0.3" d="M21.6001 47.5L14.6001 52H26.7001L21.6001 47.5Z" fill="url(#paint22_linear)"/>
        <path opacity="0.3" d="M12 39.1L26.7 52H52V26.4L45.5 12H29.2L28 13.2L12 29.3V39.1Z"
              fill="url(#paint23_linear)"/>
        <path opacity="0.3" d="M43.8999 12L51.9999 38.2V26.4L45.4999 12H43.8999Z" fill="url(#paint24_linear)"/>
    </g>
    <path d="M32 44.4502H17V46.9502H32V44.4502Z" fill="white"/>
    <path
        d="M17 16.8999H24.0371C25.9748 16.8999 27.5046 17.4098 28.5245 18.4297C29.3404 19.2456 29.8503 20.4694 29.8503 21.8973C29.8503 24.3449 28.5245 25.9767 26.5868 26.6906L30.2583 32.2999H26.2808L23.0172 27.4045H20.3656V32.2999H17V16.8999ZM23.7311 24.4469C25.3629 24.4469 26.2808 23.529 26.2808 22.3052C26.2808 20.8774 25.2609 20.1635 23.6291 20.1635H20.3656V24.4469H23.7311Z"
        fill="white"/>
    <path
        d="M32.604 16.8999H38.6212C43.4146 16.8999 46.7802 20.1635 46.7802 24.5489C46.7802 28.8324 43.4146 32.1979 38.6212 32.1979H32.604V16.8999V16.8999ZM35.9696 19.9595V29.2403H38.6212C41.3749 29.2403 43.2106 27.4045 43.2106 24.6509C43.2106 21.8973 41.3749 20.0615 38.6212 20.0615H35.9696V19.9595Z"
        fill="white"/>
    <defs>
        <linearGradient id="paint0_linear" x1="59.8856" y1="36.6638" x2="10.5529" y2="8.3536"
                        gradientUnits="userSpaceOnUse">
            <stop offset="0" stop-color="#DD1265"/>
            <stop offset="0.4834" stop-color="#DD1265"/>
            <stop offset="0.9424" stop-color="#FDB60D"/>
        </linearGradient>
        <linearGradient id="paint1_linear" x1="58.5642" y1="35.8393" x2="48.0076" y2="29.7812"
                        gradientUnits="userSpaceOnUse">
            <stop offset="0" stop-color="#DD1265"/>
            <stop offset="0.9424" stop-color="#A7004D"/>
        </linearGradient>
        <linearGradient id="paint2_linear" x1="30.5515" y1="5.5884" x2="50.107" y2="59.5884"
                        gradientUnits="userSpaceOnUse">
            <stop offset="0.1392" stop-color="#087CFA"/>
            <stop offset="0.4757" stop-color="#DD1265"/>
            <stop offset="0.9581" stop-color="#0855FA"/>
        </linearGradient>
        <linearGradient id="paint3_linear" x1="46.4384" y1="8.7502" x2="39.6274" y2="17.4682"
                        gradientUnits="userSpaceOnUse">
            <stop offset="0.2971" stop-color="#DD1265" stop-opacity="0.96"/>
            <stop offset="1" stop-color="#FF318C" stop-opacity="0"/>
        </linearGradient>
        <linearGradient id="paint4_linear" x1="55.6575" y1="25.0572" x2="46.7578" y2="30.1427"
                        gradientUnits="userSpaceOnUse">
            <stop offset="0.0490531" stop-color="#46DBFF" stop-opacity="0.96"/>
            <stop offset="0.2971" stop-color="#008DFF" stop-opacity="0.96"/>
            <stop offset="0.603" stop-color="#447DFF" stop-opacity="0.2533"/>
            <stop offset="0.7127" stop-color="#5D77FF" stop-opacity="0"/>
        </linearGradient>
        <linearGradient id="paint5_linear" x1="48.4277" y1="18.5106" x2="41.5941" y2="33.7249"
                        gradientUnits="userSpaceOnUse">
            <stop offset="0" stop-color="#0855FA"/>
            <stop offset="0.9424" stop-color="#DD1265" stop-opacity="0"/>
        </linearGradient>
        <linearGradient id="paint6_linear" x1="41.7629" y1="1.4649" x2="60.057" y2="51.9816"
                        gradientUnits="userSpaceOnUse">
            <stop offset="0.00724206" stop-color="#0861FA"/>
            <stop offset="0.3721" stop-color="#5E51BE"/>
            <stop offset="1" stop-color="#B72580"/>
        </linearGradient>
        <linearGradient id="paint7_linear" x1="60.7009" y1="36.0368" x2="46.9048" y2="32.2977"
                        gradientUnits="userSpaceOnUse">
            <stop offset="0" stop-color="#DD1265"/>
            <stop offset="0.9424" stop-color="#A7004D" stop-opacity="0"/>
        </linearGradient>
        <linearGradient id="paint8_linear" x1="31.9022" y1="48.6847" x2="59.4184" y2="59.4461"
                        gradientUnits="userSpaceOnUse">
            <stop offset="0.3285" stop-color="#083DFA"/>
            <stop offset="0.8559" stop-color="#0062FC"/>
        </linearGradient>
        <linearGradient id="paint9_linear" x1="45.5635" y1="55.7278" x2="33.6856" y2="65.1898"
                        gradientUnits="userSpaceOnUse">
            <stop offset="0.2194" stop-color="#0855FA"/>
            <stop offset="1" stop-color="#07A3F4"/>
        </linearGradient>
        <linearGradient id="paint10_linear" x1="-6.7057" y1="10.2399" x2="26.1231" y2="40.3443"
                        gradientUnits="userSpaceOnUse">
            <stop offset="0.2775" stop-color="#DD1265"/>
            <stop offset="0.9684" stop-color="#FDB60D"/>
        </linearGradient>
        <linearGradient id="paint11_linear" x1="8.3517" y1="1.9332" x2="13.05" y2="19.3842"
                        gradientUnits="userSpaceOnUse">
            <stop offset="0.2301" stop-color="#DD1265"/>
            <stop offset="0.8122" stop-color="#F3802A"/>
        </linearGradient>
        <linearGradient id="paint12_linear" x1="8.1864" y1="22.0424" x2="9.9572" y2="2.0182"
                        gradientUnits="userSpaceOnUse">
            <stop offset="0.2973" stop-color="#FFA149" stop-opacity="0.96"/>
            <stop offset="0.5961" stop-color="#EF5D56" stop-opacity="0.4888"/>
            <stop offset="0.906" stop-color="#DD1265" stop-opacity="0"/>
        </linearGradient>
        <linearGradient id="paint13_linear" x1="27.0933" y1="15.3026" x2="-3.2835" y2="22.6585"
                        gradientUnits="userSpaceOnUse">
            <stop offset="0.2535" stop-color="#F3A309"/>
            <stop offset="0.8544" stop-color="#DD1265"/>
        </linearGradient>
        <linearGradient id="paint14_linear" x1="25.6051" y1="41.729" x2="31.2757" y2="61.8815"
                        gradientUnits="userSpaceOnUse">
            <stop offset="0" stop-color="#DD1265"/>
            <stop offset="0.7086" stop-color="#FDB60D"/>
            <stop offset="0.9966" stop-color="#FDD800"/>
        </linearGradient>
        <linearGradient id="paint15_linear" x1="10.4053" y1="17.5968" x2="49.9088" y2="35.169"
                        gradientUnits="userSpaceOnUse">
            <stop offset="0.2775" stop-color="#DD1265"/>
            <stop offset="0.9684" stop-color="#FDB60D"/>
        </linearGradient>
        <linearGradient id="paint16_linear" x1="14.4814" y1="9.8606" x2="26.0886" y2="15.0237"
                        gradientUnits="userSpaceOnUse">
            <stop offset="0.00397648" stop-color="#FC4B57"/>
            <stop offset="0.9603" stop-color="#FC801D" stop-opacity="0"/>
        </linearGradient>
        <linearGradient id="paint17_linear" x1="32.8826" y1="8.5566" x2="26.4804" y2="49.1498"
                        gradientUnits="userSpaceOnUse">
            <stop offset="0.0257838" stop-color="#6B57FF" stop-opacity="0.6"/>
            <stop offset="0.3698" stop-color="#DD1265"/>
            <stop offset="0.9603" stop-color="#DD1265" stop-opacity="0"/>
        </linearGradient>
        <linearGradient id="paint18_linear" x1="37.9245" y1="58.6575" x2="18.8706" y2="54.8117"
                        gradientUnits="userSpaceOnUse">
            <stop offset="0.00397648" stop-color="#F26522"/>
            <stop offset="0.9603" stop-color="#FF45ED" stop-opacity="0"/>
        </linearGradient>
        <linearGradient id="paint19_linear" x1="11.3452" y1="11.3452" x2="49.0608" y2="49.0608"
                        gradientUnits="userSpaceOnUse">
            <stop offset="0.0284813" stop-color="#5A1F3A"/>
            <stop offset="0.0797561" stop-color="#4E1B32"/>
            <stop offset="0.2774" stop-color="#260D18"/>
            <stop offset="0.3795" stop-color="#16080E"/>
            <stop offset="0.3907" stop-color="#15080E"/>
            <stop offset="0.6833" stop-color="#060204"/>
            <stop offset="0.9138"/>
        </linearGradient>
        <linearGradient id="paint20_linear" x1="57.7697" y1="35.4803" x2="22.6574" y2="15.3306"
                        gradientUnits="userSpaceOnUse">
            <stop offset="0" stop-color="#DD1265"/>
            <stop offset="0.4834" stop-color="#DD1265"/>
            <stop offset="0.9424" stop-color="#FDB60D"/>
        </linearGradient>
        <linearGradient id="paint21_linear" x1="31.0275" y1="51.9688" x2="25.6275" y2="6.8832"
                        gradientUnits="userSpaceOnUse">
            <stop offset="0.2775" stop-color="#79123A"/>
            <stop offset="1" stop-color="#FA4D6C"/>
        </linearGradient>
        <linearGradient id="paint22_linear" x1="16.0271" y1="47.1839" x2="24.2557" y2="55.7554"
                        gradientUnits="userSpaceOnUse">
            <stop offset="0.2775" stop-color="#DD1265"/>
            <stop offset="0.9684" stop-color="#FDB60D"/>
        </linearGradient>
        <linearGradient id="paint23_linear" x1="26.8685" y1="15.9593" x2="35.6114" y2="44.5881"
                        gradientUnits="userSpaceOnUse">
            <stop offset="0.1368" stop-color="#00AAFF"/>
            <stop offset="0.3491" stop-color="#0778BB"/>
            <stop offset="0.7127" stop-color="#141E3E"/>
        </linearGradient>
        <linearGradient id="paint24_linear" x1="44.7101" y1="12.1496" x2="53.5036" y2="36.4318"
                        gradientUnits="userSpaceOnUse">
            <stop offset="0.00724206" stop-color="#08396C"/>
            <stop offset="1" stop-color="#B72580"/>
        </linearGradient>
    </defs>
</svg>
