<svg width="24" height="24" viewBox="0 0 24 24" xmlns="http://www.w3.org/2000/svg"><path d="M9.382 17.996h1.868V10.5c0-.414.336-.75.75-.75s.75.336.75.75v7.496h1.873c.213.004.382.18.378.392 0 .078-.025.153-.07.216l-2.62 3.74c-.118.17-.35.213-.52.096-.037-.026-.07-.058-.095-.095l-2.62-3.74c-.124-.174-.083-.414.09-.538.064-.045.14-.07.217-.07M17.25 16.5H15c-.414 0-.75-.336-.75-.75s.336-.75.75-.75h2.215c1.655.008 3.008-1.318 3.035-2.973.014-2.016-1.55-2.71-2.47-3.024-.28-.095-.477-.345-.504-.64l-.04-.404c-.167-1.925-1.754-3.414-3.685-3.46-1.75-.02-2.668 1.004-3.264 1.757-.178.222-.47.324-.747.26-.322-.09-.655-.14-.99-.14-1.192.04-2.145 1.007-2.17 2.2l-.013.49c-.006.3-.19.567-.47.677-.972.38-2.208.998-2.145 2.76.063 1.4 1.22 2.502 2.623 2.496H9c.414 0 .75.336.75.75s-.336.75-.75.75H6.375c-2.277 0-4.124-1.844-4.125-4.12 0-1.703 1.044-3.23 2.63-3.846.047-2.067 1.76-3.705 3.827-3.658.237.005.474.033.706.083 1.815-2.26 5.117-2.618 7.376-.802 1.103.887 1.802 2.184 1.935 3.594 2.347.814 3.59 3.376 2.777 5.723-.628 1.81-2.334 3.026-4.252 3.025" fill="#FFF"/></svg>