<svg width="211" height="56" viewBox="0 0 211 56" xmlns="http://www.w3.org/2000/svg"><title>Group</title><g fill="none" fill-rule="evenodd"><path d="M-4 60h64V-4H-4"/><path d="M55.893 12c-2.053.933-4.266 1.547-6.56 1.84 2.347-1.413 4.16-3.653 5.014-6.347-2.214 1.334-4.667 2.267-7.254 2.8C44.987 8 42.027 6.667 38.667 6.667c-6.267 0-11.387 5.12-11.387 11.44 0 .906.107 1.786.293 2.613C18.08 20.24 9.627 15.68 4 8.773c-.987 1.68-1.547 3.654-1.547 5.734 0 3.973 2 7.493 5.094 9.493-1.894 0-3.654-.533-5.2-1.333v.08c0 5.546 3.946 10.186 9.173 11.226-.96.267-1.973.4-3.013.4-.72 0-1.44-.08-2.134-.213 1.44 4.507 5.627 7.867 10.667 7.947-3.893 3.093-8.827 4.906-14.213 4.906-.907 0-1.814-.053-2.72-.16C5.173 50.107 11.2 52 17.653 52c21.014 0 32.56-17.44 32.56-32.56 0-.507 0-.987-.026-1.493 2.24-1.6 4.16-3.627 5.706-5.947M117 29h-8v8c0 .552-.448 1-1 1s-1-.448-1-1v-8h-8c-.552 0-1-.448-1-1s.448-1 1-1h8v-8c0-.552.448-1 1-1s1 .448 1 1v8h8c.552 0 1 .448 1 1s-.448 1-1 1" fill="#0FB6F2"/><g fill="#0FB6F2"><path d="M171.748 7.336l12.093 44.28c.816 2.975 3.882 4.727 6.852 3.915 2.97-.816 4.718-3.89 3.906-6.864L182.502 4.384c-.814-2.975-3.88-4.727-6.85-3.913-2.97.816-4.72 3.89-3.904 6.866"/><path d="M194.143 7.168l-30.287 34.25c-2.04 2.31-1.83 5.844.476 7.89 2.306 2.046 5.83 1.832 7.87-.478l30.287-34.25c2.04-2.31 1.83-5.842-.477-7.888-2.305-2.046-5.826-1.834-7.87.476"/><path d="M159.827 26.15l43.192 14.308c2.923.97 6.075-.62 7.043-3.55.97-2.93-.62-6.09-3.542-7.055l-43.193-14.315c-2.924-.966-6.076.62-7.042 3.55-.97 2.932.618 6.09 3.542 7.062"/></g></g></svg>