<svg width="24" height="24" viewBox="0 0 24 24" fill="none" xmlns="http://www.w3.org/2000/svg">
    <g id=".Icon / Symbols" clip-path="url(#clip0_4465_142348)">
        <path id="Vector" d="M1.75 0.75H8.75C8.75 0.75 9.75 0.75 9.75 1.75V8.75C9.75 8.75 9.75 9.75 8.75 9.75H1.75C1.75 9.75 0.75 9.75 0.75 8.75V1.75C0.75 1.75 0.75 0.75 1.75 0.75Z" stroke="var(--icon-color)" stroke-width="1.5" stroke-linecap="round" stroke-linejoin="round" fill="none"/>
        <path id="Vector_2" d="M14.25 5.25C14.25 5.84095 14.3664 6.42611 14.5925 6.97208C14.8187 7.51804 15.1502 8.01412 15.568 8.43198C15.9859 8.84984 16.482 9.18131 17.0279 9.40746C17.5739 9.6336 18.1591 9.75 18.75 9.75C19.3409 9.75 19.9261 9.6336 20.4721 9.40746C21.018 9.18131 21.5141 8.84984 21.932 8.43198C22.3498 8.01412 22.6813 7.51804 22.9075 6.97208C23.1336 6.42611 23.25 5.84095 23.25 5.25C23.25 4.65905 23.1336 4.07389 22.9075 3.52792C22.6813 2.98196 22.3498 2.48588 21.932 2.06802C21.5141 1.65016 21.018 1.31869 20.4721 1.09254C19.9261 0.866396 19.3409 0.75 18.75 0.75C18.1591 0.75 17.5739 0.866396 17.0279 1.09254C16.482 1.31869 15.9859 1.65016 15.568 2.06802C15.1502 2.48588 14.8187 2.98196 14.5925 3.52792C14.3664 4.07389 14.25 4.65905 14.25 5.25Z" stroke="var(--icon-color)" stroke-width="1.5" stroke-linecap="round" stroke-linejoin="round" fill="none"/>
        <path id="Vector_3" d="M18.7859 13.9771C18.7111 13.8333 18.5982 13.7127 18.4596 13.6286C18.321 13.5445 18.162 13.5 17.9999 13.5C17.8378 13.5 17.6787 13.5445 17.5401 13.6286C17.4016 13.7127 17.2887 13.8333 17.2139 13.9771L12.8769 21.7841C12.7948 21.9334 12.7512 22.1008 12.75 22.2712C12.7488 22.4416 12.79 22.6096 12.8699 22.7601C12.9452 22.906 13.0587 23.0287 13.1984 23.1151C13.3381 23.2014 13.4987 23.2481 13.6629 23.2501H22.3369C22.5011 23.2481 22.6616 23.2014 22.8013 23.1151C22.941 23.0287 23.0546 22.906 23.1299 22.7601C23.2098 22.6096 23.251 22.4416 23.2497 22.2712C23.2485 22.1008 23.2049 21.9334 23.1229 21.7841L18.7859 13.9771Z" stroke="var(--icon-color)" stroke-width="1.5" stroke-linecap="round" stroke-linejoin="round" fill="none"/>
        <path id="Vector_4" d="M5.85108 13.0347C5.77808 12.9463 5.68644 12.8751 5.58272 12.8262C5.47899 12.7773 5.36574 12.752 5.25108 12.752C5.13641 12.752 5.02316 12.7773 4.91944 12.8262C4.81571 12.8751 4.72407 12.9463 4.65108 13.0347L0.941077 17.4717C0.817448 17.6203 0.749756 17.8074 0.749756 18.0007C0.749756 18.194 0.817448 18.3811 0.941077 18.5297L4.64908 22.9667C4.72207 23.0551 4.81371 23.1263 4.91744 23.1752C5.02116 23.2241 5.13441 23.2494 5.24908 23.2494C5.36374 23.2494 5.47699 23.2241 5.58072 23.1752C5.68444 23.1263 5.77608 23.0551 5.84908 22.9667L9.55708 18.5297C9.68071 18.3811 9.7484 18.194 9.7484 18.0007C9.7484 17.8074 9.68071 17.6203 9.55708 17.4717L5.85108 13.0347Z" stroke="var(--icon-color)" stroke-width="1.5" stroke-linecap="round" stroke-linejoin="round" fill="none"/>
    </g>
    <defs>
        <clipPath id="clip0_4465_142348">
            <rect width="24" height="24" fill="white"/>
        </clipPath>
    </defs>
</svg>
