<svg width="330" height="330" xmlns="http://www.w3.org/2000/svg"><g fill="none" fill-rule="evenodd" opacity=".07"><path d="M156.526 48c3.2 0 5.793-2.605 5.793-5.82 0-3.213-2.6-5.82-5.8-5.82-3.2 0-5.8 2.607-5.8 5.82 0 3.215 2.59 5.82 5.79 5.82zm21.393-30c.83.416 1.78.65 2.78.65 3.47 0 6.29-2.83 6.29-6.325C187 8.832 184.18 6 180.7 6c-3.33 0-6.06 2.6-6.28 5.888l-43.393 7.927c-.997-2.18-3.188-3.695-5.73-3.695-3.48 0-6.298 2.832-6.298 6.326 0 3.493 2.82 6.325 6.29 6.325s6.29-2.83 6.29-6.32v-.16l43.16-7.88c.26.76.66 1.45 1.17 2.05l-17.4 20.93-.81.97 1.93 1.63.81-.97L177.91 18zm-21.4 27.47c-1.81 0-3.28-1.473-3.28-3.29 0-1.816 1.46-3.288 3.27-3.288s3.27 1.472 3.27 3.29c0 1.815-1.47 3.288-3.28 3.288zm24.18-29.35c-2.09 0-3.78-1.7-3.78-3.795 0-2.096 1.69-3.795 3.78-3.795s3.78 1.7 3.78 3.795c0 2.096-1.69 3.795-3.78 3.795zm-55.41 10.12c-2.09 0-3.78-1.698-3.78-3.794s1.69-3.795 3.77-3.795 3.78 1.7 3.78 3.8-1.69 3.8-3.78 3.8zm81.18 30.607c-1.74-.465-3.55.58-4.01 2.314l-8.19 30.56c-.16.58.19 1.18.77 1.34l44.26 11.86c.58.16 1.18-.19 1.34-.77l8.19-30.56c.46-1.73-.58-3.54-2.32-4.01l-40.04-10.73zm-.57 2.108l40.04 10.73c.6.16.93.734.77 1.335l-1.13 4.215-42.15-11.294 1.13-4.21c.16-.6.73-.93 1.33-.77zm1.16 2.004c-.58-.16-1.18.18-1.34.77-.16.58.19 1.18.77 1.33.58.15 1.18-.19 1.33-.77.15-.59-.19-1.18-.77-1.34zm3.69.98c-.58-.16-1.18.19-1.34.77-.16.58.19 1.18.77 1.33.58.15 1.18-.19 1.34-.77.15-.59-.19-1.18-.77-1.34zm3.69.99c-.58-.16-1.18.19-1.34.77-.16.58.19 1.18.77 1.34.58.15 1.18-.19 1.33-.77.15-.58-.19-1.18-.77-1.34zm-11.57 3.11l42.15 11.29-6.21 23.18-42.15-11.3 6.21-23.19zm23.4 9.07c-.4-.05-.79.12-1.02.45L214.7 89.68c-.457.47-.39 1.24.13 1.63.53.392 1.28.234 1.604-.338L227 76.87c.51-.663.113-1.63-.715-1.744zm-11.21-.18c-.17-.03-.34-.01-.51.04l-9.84 3.01c-.78.23-1.04 1.2-.48 1.79l7.02 7.52c.99 1.05 2.58-.43 1.6-1.5l-5.83-6.24 8.17-2.51c1.15-.31 1.05-1.97-.14-2.14zm14.8 3.96c-1.07-.26-1.8 1.04-1.04 1.82l5.82 6.25-8.17 2.48c-1.39.43-.75 2.51.64 2.09l9.84-3.01c.78-.23 1.04-1.2.48-1.8l-7.02-7.53c-.15-.17-.35-.28-.56-.33zm8.03 109.91l-35.58-9.53c-.58-.16-1.17.18-1.33.75l-7.73 28.85c-.15.56.19 1.15.77 1.31l35.58 9.53c.58.15 1.17-.18 1.32-.75l7.73-28.85c.15-.57-.19-1.16-.77-1.31zm-35.09-7.19l29.3 7.85-.55 2.06-29.3-7.85.55-2.06zm26.3 35.76l-33.49-8.97 6.07-22.67 33.48 8.97-6.08 22.66zm6.62-24.73l-2.09-.56.55-2.06 2.09.56-.55 2.06zm-34.32 3.73c.14.25.39.43.65.5.27.07.56.04.82-.11l3.97-2.25c.51-.29.69-.95.39-1.46l-2.31-3.93c-.3-.51-.97-.69-1.48-.4-.52.29-.7.94-.39 1.45l1.76 3.01-3.04 1.72c-.52.29-.69.94-.39 1.46zm5.33 3.96l4.18 1.12c.58.15 1.17-.18 1.32-.75.15-.57-.2-1.16-.77-1.31l-4.19-1.12c-.58-.16-1.17.18-1.32.75-.16.57.19 1.15.77 1.31zm-32.48-95.1l-48.37 12.96c-.51.13-.82.66-.68 1.17l4.94 18.44c.14.51.66.81 1.18.67l48.36-12.96c.51-.14.82-.66.68-1.17l-4.94-18.44c-.14-.51-.67-.81-1.18-.68zm4.01 18.69l-46.5 12.46-4.45-16.6 46.5-12.46 4.44 16.59zm-47.18-1.2l33.48-8.97c.51-.14.82-.66.68-1.17-.13-.51-.66-.81-1.18-.67l-33.49 8.97c-.52.14-.82.66-.69 1.17.132.51.66.81 1.18.67zm.98 3.68l1.86-.5c.51-.14.82-.66.68-1.17-.14-.51-.67-.81-1.18-.68l-1.86.5c-.52.14-.82.66-.68 1.17.13.51.66.81 1.17.67zm30.44-9.15c-.14-.51-.67-.81-1.18-.68l-24.18 6.48c-.52.14-.82.66-.69 1.17.14.51.66.81 1.18.67l24.18-6.48c.51-.14.82-.66.68-1.17zm2.54-1.67c-.51.13-.82.66-.68 1.17l.74 2.76-.93.25c-.52.14-.82.66-.68 1.17.13.51.66.81 1.17.67l1.86-.5c.51-.14.82-.67.68-1.18l-.99-3.69c-.14-.51-.67-.82-1.18-.68zm-32 14.5l5.58-1.5c.51-.14.82-.66.68-1.17-.14-.51-.67-.82-1.18-.68l-5.58 1.5c-.52.13-.82.66-.68 1.17.14.51.66.81 1.18.67zm27.41-9.32l-18.6 4.98c-.52.13-.82.66-.69 1.17.14.51.66.81 1.18.67l18.6-4.99c.52-.14.82-.66.69-1.17-.14-.51-.66-.81-1.18-.67zm-26.42 13.01l3.72-1c.51-.14.82-.66.68-1.17-.13-.51-.66-.81-1.17-.67l-3.72.99c-.52.14-.82.66-.69 1.17.13.51.66.81 1.17.67zm23.69-8.33l-14.88 3.99c-.52.14-.82.66-.69 1.17.13.51.66.81 1.17.67l14.88-3.99c.51-.14.82-.66.68-1.17-.13-.51-.66-.82-1.17-.68zm9.3-2.49l-3.72 1c-.52.13-.82.66-.69 1.17.14.51.66.81 1.18.67l3.72-1c.51-.14.82-.66.68-1.17-.14-.51-.66-.82-1.18-.68zm1.25-10.22l3.72-1c.51-.14.82-.67.68-1.18-.14-.51-.67-.81-1.18-.67l-3.72 1c-.52.14-.82.66-.68 1.17.13.51.66.81 1.17.67zm.99 3.68l3.72-1c.51-.14.82-.66.68-1.17-.13-.51-.66-.82-1.18-.68l-3.72 1c-.51.13-.82.66-.68 1.17.14.51.66.81 1.18.67zm1.97 7.37l3.72-1c.52-.14.82-.66.68-1.17-.14-.51-.66-.81-1.18-.68l-.93.25-.25-.93c-.14-.51-.66-.81-1.18-.67s-.82.66-.68 1.17l.24.92-.93.25c-.52.133-.82.66-.688 1.17.135.51.66.81 1.18.67zM113.75 57c.337-1.26-.413-2.555-1.675-2.893L65.45 41.612c-1.262-.338-2.56.41-2.896 1.668l-2.837 10.585c-.13.49-.093.987.084 1.44-.37.302-.66.715-.79 1.214L56.17 67.1c-.132.493-.094.99.082 1.442-.38.304-.66.716-.794 1.216l-2.836 10.585c-.335 1.248.416 2.544 1.677 2.882l.56.15c-.57 2.09.68 4.237 2.77 4.8 2.09.56 4.24-.677 4.8-2.768l30.34 8.13c-.56 2.09.68 4.234 2.77 4.796 2.09.56 4.24-.676 4.8-2.767l.56.15c1.26.34 2.56-.41 2.89-1.667l2.83-10.58c.13-.5.09-1-.08-1.45.37-.31.66-.72.79-1.22l2.84-10.58c.13-.5.09-1-.08-1.45.37-.31.66-.72.79-1.22l2.83-10.58zm-4.7 2.38c-.34 1.26-2.235.75-1.897-.51.34-1.26 2.23-.754 1.89.51zm-3.79-1.018c-.34 1.26-2.24.752-1.9-.51.336-1.26 2.235-.752 1.9.51zm.88 4.29c-.34 1.26-2.234.753-1.896-.507.34-1.262 2.23-.754 1.9.508zm-3.795-1.016c-.34 1.26-2.23.753-1.89-.508.34-1.26 2.237-.753 1.9.508zm-.88-4.29c-.33 1.26-2.23.752-1.89-.51.34-1.26 2.237-.752 1.9.51zm-2.91 3.274c-.33 1.26-2.23.753-1.89-.508.33-1.26 2.23-.753 1.89.508zm-.88-4.29c-.34 1.26-2.23.752-1.892-.51.34-1.26 2.24-.752 1.9.51zm-2.91 3.27c-.332 1.26-2.23.753-1.89-.508.338-1.26 2.234-.753 1.896.508zm-.88-4.29c-.34 1.26-2.23.752-1.892-.51.34-1.26 2.24-.752 1.9.51zm-2.91 3.274c-.34 1.26-2.23.753-1.89-.508.336-1.26 2.232-.753 1.894.508zM64.45 43.786c.06-.22.275-.343.494-.285L111.577 56c.21.055.334.27.275.49l-2.836 10.584c-.056.207-.275.343-.494.284L61.9 54.865c-.217-.072-.342-.288-.284-.503l2.833-10.574zm41.05 28.83c-.34 1.26-2.234.753-1.896-.508.337-1.26 2.233-.753 1.895.508zm-3.79-1.016c-.34 1.26-2.24.752-1.9-.51.337-1.26 2.236-.75 1.9.51zm.88 4.29c-.338 1.262-2.233.754-1.896-.507.338-1.26 2.234-.753 1.896.508zm-3.795-1.016c-.337 1.26-2.233.753-1.895-.508.33-1.26 2.23-.753 1.89.508zm-.88-4.29c-.34 1.26-2.235.752-1.897-.51.338-1.26 2.233-.75 1.896.51zm-2.91 3.274c-.34 1.26-2.235.753-1.897-.508.338-1.26 2.234-.753 1.896.508zm-.883-4.29c-.33 1.26-2.23.752-1.89-.51.34-1.26 2.237-.75 1.9.51zm-2.9 3.274c-.34 1.26-2.234.754-1.896-.508.338-1.26 2.234-.753 1.896.508zm-.882-4.29c-.337 1.26-2.233.752-1.896-.51.338-1.26 2.234-.75 1.897.51zm-2.91 3.274c-.337 1.26-2.233.754-1.895-.508.338-1.26 2.234-.753 1.896.508zm20.886-2.1l-2.837 10.586c-.06.207-.28.342-.5.284l-46.63-12.49c-.22-.07-.34-.286-.29-.505l2.83-10.57c.06-.21.27-.34.49-.28l46.63 12.49c.2.06.33.28.27.49zM58.15 86.284c-1.045-.28-1.67-1.36-1.39-2.4l3.79 1.016c-.28 1.04-1.36 1.663-2.4 1.384zm37.92 10.16c-1.044-.28-1.67-1.36-1.39-2.4l3.79 1.017c-.28 1.04-1.36 1.67-2.402 1.39zm5.884-10.585c-.337 1.26-2.233.75-1.895-.51.34-1.27 2.23-.76 1.89.51zm-3.79-1.02c-.34 1.26-2.237.75-1.9-.51.34-1.27 2.238-.76 1.9.51zm.88 4.29c-.336 1.26-2.232.75-1.894-.51.337-1.26 2.233-.76 1.895.51zm-3.794-1.02c-.334 1.26-2.23.75-1.89-.51.337-1.26 2.233-.76 1.895.5zm-.88-4.29c-.34 1.26-2.23.75-1.893-.51.337-1.27 2.233-.76 1.894.5zm-2.91 3.28c-.338 1.26-2.234.75-1.896-.51.337-1.26 2.233-.75 1.895.51zm-.883-4.29c-.337 1.26-2.233.75-1.895-.51.34-1.27 2.235-.76 1.896.51zm-2.91 3.27c-.337 1.26-2.232.75-1.894-.51.337-1.26 2.232-.75 1.894.51zm-.88-4.29c-.338 1.26-2.235.75-1.897-.51.34-1.27 2.234-.76 1.895.51zm-2.91 3.27c-.338 1.26-2.234.75-1.896-.51.34-1.26 2.24-.75 1.9.51zm18.05 8.47c-.055.2-.274.34-.493.28L54.806 81.33c-.22-.06-.344-.275-.286-.493l2.83-10.57c.06-.22.276-.344.495-.285L104.48 82.48c.21.056.344.275.286.493l-2.834 10.574-.01-.002zM65.11 67.87c2.095.566 4.245-.67 4.805-2.762.56-2.09-.682-4.234-2.778-4.8-2.096-.56-4.245.68-4.805 2.77-.56 2.09.682 4.238 2.778 4.8zm1.52-5.67c1.043.28 1.668 1.36 1.39 2.4-.28 1.04-1.36 1.66-2.403 1.38s-1.668-1.36-1.39-2.4c.28-1.04 1.36-1.66 2.403-1.38zm-3.04 11.35c-2.096-.56-4.246.678-4.806 2.77-.56 2.09.683 4.236 2.778 4.8 2.096.56 4.245-.68 4.806-2.77.56-2.09-.683-4.237-2.78-4.8zm-1.522 5.68c-1.042-.28-1.667-1.36-1.388-2.4.278-1.04 1.36-1.663 2.402-1.384 1.042.28 1.667 1.36 1.39 2.4-.28 1.04-1.36 1.662-2.404 1.383zm6.59-24.594c2.096.56 4.245-.676 4.806-2.767.56-2.09-.683-4.24-2.78-4.8-2.094-.56-4.244.67-4.804 2.76-.56 2.09.683 4.23 2.778 4.8zm1.52-5.675c1.043.28 1.668 1.36 1.39 2.4-.28 1.04-1.36 1.67-2.403 1.39-1.042-.28-1.668-1.36-1.39-2.4.28-1.04 1.36-1.66 2.403-1.38z" fill="#000"/><path d="M7 93.957s7.915-5.62 16.613 10.374 6.19 29.79 27.387 26.06" stroke="#000" stroke-width="3" stroke-linecap="round"/><path stroke="#000" stroke-width="2.5" stroke-linecap="round" stroke-linejoin="round" d="M222.176 14L217 31.496 231 36zm93 233L310 264.496 321 273zM97 293l-14 15.42L97 313zm57-222l-14 8.553L154 84z"/><path d="M79.92 248.515c0 .396-.124.735-.373 1.018-.25.283-.595.43-1.037.44l-1.468.027h-.127c-.827 0-1.594-.215-2.3-.644-.705-.43-1.262-1.004-1.67-1.726-.41-.72-.615-1.497-.615-2.327v-6.55c0-.34-.082-.645-.247-.92-.165-.272-.383-.487-.656-.643-.273-.155-.58-.233-.917-.233-.48 0-.852-.144-1.115-.43-.263-.29-.395-.626-.395-1.013 0-.396.132-.738.395-1.025.263-.29.635-.44 1.115-.44.338 0 .646-.08.924-.25.277-.17.496-.39.656-.65.16-.27.24-.58.24-.93v-6.52c0-.85.207-1.64.62-2.36.415-.72.98-1.3 1.694-1.72.715-.43 1.505-.64 2.37-.64h1.468c.45 0 .804.14 1.058.42s.38.62.38 1.02c0 .39-.126.73-.38 1.01s-.607.42-1.058.42h-1.468c-.508 0-.933.17-1.277.53-.343.35-.515.77-.515 1.26v6.55c0 1.24-.446 2.33-1.34 3.25.894.94 1.34 2.03 1.34 3.27v6.52c0 .5.172.93.515 1.29.344.36.755.54 1.235.54h.042l1.44-.03h.028c.45 0 .804.14 1.058.42s.38.62.38 1.02zm33.16 0c0 .396.124.735.373 1.018.25.283.595.43 1.037.44l1.468.027h.127c.827 0 1.594-.215 2.3-.644.705-.43 1.262-1.004 1.67-1.726.41-.72.615-1.497.615-2.327v-6.55c0-.34.082-.645.247-.92.165-.272.383-.487.656-.643.273-.155.58-.233.917-.233.48 0 .852-.144 1.115-.43.263-.29.395-.626.395-1.013 0-.396-.132-.738-.395-1.025-.263-.29-.635-.44-1.115-.44-.338 0-.646-.08-.924-.25-.277-.17-.496-.39-.656-.65-.16-.27-.24-.58-.24-.93v-6.52c0-.85-.207-1.64-.62-2.36-.415-.72-.98-1.3-1.694-1.72-.715-.43-1.505-.64-2.37-.64h-1.468c-.45 0-.804.14-1.058.42s-.38.62-.38 1.02c0 .39.126.73.38 1.01s.607.42 1.058.42h1.468c.508 0 .933.17 1.277.53.343.35.515.77.515 1.26v6.55c0 1.24.446 2.33 1.34 3.25-.894.94-1.34 2.03-1.34 3.27v6.52c0 .5-.172.93-.515 1.29-.344.36-.755.54-1.235.54h-.042l-1.44-.03h-.028c-.45 0-.804.14-1.058.42s-.38.62-.38 1.02zM87.4 239.84c1.353 0 2.45-1.098 2.45-2.454s-1.097-2.455-2.45-2.455c-1.352 0-2.448 1.1-2.448 2.46 0 1.36 1.096 2.46 2.448 2.46zm9.796 0c1.352 0 2.45-1.098 2.45-2.454s-1.098-2.455-2.45-2.455c-1.353 0-2.45 1.1-2.45 2.46 0 1.36 1.097 2.46 2.45 2.46zm9.795 0c1.36 0 2.45-1.098 2.45-2.454s-1.09-2.455-2.45-2.455c-1.35 0-2.44 1.1-2.44 2.46 0 1.36 1.1 2.46 2.45 2.46zm52.82-20.324c-.18.286-.31.63-.34 1.028-.05.598.15 1.223.56 1.713.42.49 1 .793 1.6.846.35.03.72-.037 1.03-.163l.23.273c.14.164.33.23.54.25.21.016.41-.015.57-.154.33-.28.37-.73.1-1.05l-.23-.28c.53-.81.47-1.93-.22-2.69-.41-.49-.99-.8-1.6-.85-.35-.03-.71.03-1.07.15l-5.73-6.85c-.27-.33-.72-.37-1.05-.09-.33.27-.37.72-.09 1.05l5.73 6.8zm.54 15.267c2.67.233 5.25-.297 7.52-1.36l5.14 6.095c.51.598 1.19.91 1.89.972.71.06 1.48-.123 2.03-.628l.17-.14c1.2-1 1.36-2.752.35-3.95l-4.95-5.926c1.92-2.2 3.17-4.964 3.44-8.065.69-7.85-5.19-14.76-13.03-15.45-7.84-.68-14.88 5.15-15.57 12.96-.68 7.8 5.19 14.82 13.03 15.51zm15.94 1.948c.23.28.36.59.33.94-.03.35-.21.64-.48.87l-.16.14c-.54.46-1.4.38-1.81-.16l-4.85-5.87.55-.45c.54-.4 1.09-.81 1.58-1.27l4.86 5.82zm-13.84-16.58c.28.33.23.88-.1 1.2-.38.32-.88.28-1.21-.1-.13-.16-.22-.37-.2-.62.03-.25.14-.44.31-.58.17-.13.38-.22.63-.19.25.02.45.14.59.3zm-1.74 10.64c5.68.5 10.71-3.7 11.2-9.35.5-5.65-3.72-10.66-9.41-11.15-1.35-.12-2.63.02-3.93.41-.41.12-.6.56-.49.97.12.42.56.61.97.49 1.09-.31 2.22-.46 3.38-.36 4.83.42 8.45 4.72 8.03 9.53-.42 4.8-4.73 8.41-9.56 7.98-4.82-.42-8.45-4.72-8.03-9.52.1-1.15.4-2.28.95-3.29.19-.39.07-.8-.31-1.03-.39-.19-.8-.07-1.04.31-.61 1.21-.98 2.49-1.09 3.84-.55 5.7 3.67 10.7 9.35 11.2zm2.01-22.96c7.04.62 12.27 6.82 11.66 13.83-.27 3.1-1.62 5.81-3.62 7.85l-1.86 1.55c-2.37 1.61-5.28 2.47-8.39 2.19-7.04-.61-12.27-6.82-11.66-13.82.62-7 6.85-12.2 13.88-11.59zM302.7 181.3l-23.518 7.19c-2.218.677-3.64 3.296-2.97 5.483l1.393 4.562-7.696 2.353c-2.9.885-4.51 3.976-3.61 6.91l8.4 27.492c.89 2.935 3.96 4.595 6.85 3.71l12.31-3.764c2.09-.64 3.54-2.517 3.78-4.573l18.41-5.63c2.21-.676 3.64-3.296 2.97-5.482l-10.81-35.36c-.67-2.18-3.32-3.56-5.53-2.88zm-32.216 21.463l12.316-3.765c1.847-.565 3.864.527 4.437 2.4l.286.938-19.087 5.836-.285-.938c-.57-1.874.49-3.906 2.34-4.47zm-1.474 7.283l19.086-5.835 6.496 21.25-19.087 5.84-6.494-21.24zm24.29 23.314l-12.313 3.766c-1.847.565-3.864-.527-4.437-2.4l-.478-1.563 19.087-5.835.47 1.562c.57 1.874-.49 3.907-2.34 4.47zm23.89-13.245c.364 1.187-.463 2.668-1.695 3.045l-17.916 5.477-.1-.312-8.41-27.49c-.9-2.936-3.97-4.596-6.86-3.71l-2.77.846-1.4-4.56c-.37-1.18.46-2.67 1.69-3.04l23.58-7.21c1.23-.37 2.75.39 3.11 1.58l10.81 35.37-.06.02zm-12.902 2.507c.74 2.418-2.83 3.51-3.568 1.09-.738-2.413 2.83-3.504 3.568-1.09zm-15.977 9.397c.74 2.41-2.83 3.5-3.56 1.09-.74-2.42 2.83-3.51 3.57-1.09z" fill="#000"/><ellipse stroke="#000" stroke-width="2.5" cx="214.5" cy="247.5" rx="7.5" ry="7.5"/><ellipse stroke="#000" stroke-width="2.5" cx="293" cy="80" rx="4" ry="4"/><ellipse stroke="#000" stroke-width="2.5" cx="38" cy="241" rx="6" ry="6"/><ellipse stroke="#000" stroke-width="2.5" cx="257" cy="38" rx="6" ry="6"/><path d="M131 177.278s20.39 10.33 20.39-11.987c0-22.31 21.39-13.45 23.61-8.72m3 153.93s-.136-15.29 20.39-11.98c20.528 3.3 20.044-2.32 23.61-8.72" stroke="#000" stroke-width="3" stroke-linecap="round"/><path d="M139.94 288.536c.005-2.92.336-6.008-1.427-8.554-1.797-2.6-5.45-3.78-8.807-3.467-.092-1.495-.735-2.955-1.86-3.98-1.072-.977-5.132-1.493-3.16-3.632.968-1.05-.62-2.607-1.592-1.552-1.348 1.47-1.496 3.57-.188 5.08 1.04 1.21 2.936.95 3.888 2.24.438.59.666 1.41.677 2.14 0 .06.02.11.02.17-1.1.36-2.04.91-2.85 1.65-1.76 1.62-2.54 4.35-2.54 6.68v6.88c0 3.43 2.21 6.06 5.39 7.21 4.98 1.81 11.32-.37 12.36-5.79.31-1.63.12-3.4.12-5.04zm-2.315-4.483c-1.778.483-3.673.86-5.59 1.043-.08-2.11-.155-4.222-.23-6.333.1.013.2.024.3.04 3.114.46 5.138 2.323 5.52 5.25zm-11.98-3.314c.892-1.3 2.363-1.87 3.902-2.02.08 2.16.16 4.32.237 6.48-1.89.01-3.765-.19-5.535-.7.13-1.35.63-2.66 1.39-3.77zm12.04 10.93c-.006 4.35-3.65 6.64-8.006 6-3.03-.45-5.45-2.47-5.45-5.63v-5.27c4.29 1.12 9.21.63 13.49-.48.01 1.79-.04 3.58-.04 5.37zM46.595 24.02l-1.86.41c-.34.072-.546.415-.474.753.08.34.42.55.76.48l1.86-.414c.34-.07.55-.42.48-.75-.08-.34-.41-.55-.75-.48zm-11.05-4.806c.34-.073.546-.414.473-.753l-.354-1.58c-.075-.34-.416-.55-.753-.48-.33.08-.54.42-.47.75l.36 1.59c.08.34.42.56.75.48zm5.426 1.076c.3.188.69.104.87-.188l.87-1.37c.19-.295.1-.686-.19-.874-.29-.187-.68-.103-.86.19l-.86 1.37c-.18.293-.1.684.2.87zm2.74 11.03l1.61 1.035c.29.19.68.105.87-.187.19-.292.1-.683-.19-.87l-1.61-1.034c-.29-.19-.68-.106-.86.19-.18.283-.1.68.2.87zm-14.87-9.55l1.37.88c.29.187.68.103.87-.19.19-.292.1-.683-.19-.87l-1.37-.876c-.29-.19-.68-.105-.86.187-.18.3-.09.69.2.87zm9.55 6.675c.06-.496-.03-.966-.24-1.368-.28-.536-.79-.92-1.37-1.055-.62-.142-1.28.01-1.83.43L21.77 36.4c-.92.696-1.2 1.915-.68 2.904.206.39.53.72.923.95l2.89 1.666-1.64 2.89c-.43.757-.44 1.667-.03 2.444.23.418.56.77.97 1.01l.94.54c1.21.698 2.75.28 3.44-.924l1.65-2.89 2.887 1.667c.7.4 1.516.434 2.2.092.68-.34 1.144-1.02 1.23-1.82l1.86-16.48h-.01zM34.03 45.01l-3.982-2.296c-.3-.177-.686-.072-.857.235l-2.26 3.98c-.17.3-.56.4-.85.23l-.93-.54c-.1-.06-.18-.15-.24-.26-.1-.19-.1-.42.01-.61l2.27-3.99c.11-.2.11-.43.01-.62-.05-.11-.14-.19-.24-.26l-3.98-2.3c-.09-.05-.16-.13-.2-.2-.08-.17-.04-.36.16-.5l13.17-9.94c.19-.14.33-.14.4-.01.03.06.04.15.03.26l-1.86 16.48c-.05.33-.32.48-.63.3l.01-.01zm.294-23.72c-2.34 1.245-3.508 3.843-3.058 6.332l1.81-1.36c.02-.3.077-.596.162-.876.304-1.008.99-1.887 1.986-2.417 1-.53 2.114-.61 3.115-.3 1.01.31 1.89 1 2.43 2.01.53 1 .61 2.12.31 3.13-.26.86-.8 1.63-1.57 2.16l-.26 2.25c.25-.09.49-.2.73-.33 2.91-1.55 4.01-5.18 2.45-8.11-1.57-2.93-5.19-4.05-8.1-2.51zM59.2 192.91c-.283 0-.566-.11-.783-.324-.44-.43-.44-1.13 0-1.562l7.99-8c.43-.43 1.13-.43 1.56 0 .43.432.43 1.132 0 1.563l-7.99 7.996c-.22.217-.5.326-.787.326zm7.998-1.02l4.043-4.043c.43-.43.43-1.132 0-1.563-.43-.43-1.13-.43-1.56 0l-4.04 4.042c-.43.43-.43 1.132 0 1.563.22.21.5.32.79.32.28 0 .57-.11.78-.32zm-6.522-6.523l4.043-4.042c.43-.43.43-1.132 0-1.563-.43-.43-1.13-.43-1.56 0l-4.04 4.042c-.43.432-.43 1.132 0 1.563.22.217.5.322.79.322.28 0 .56-.11.78-.33zm28.34-18.047c1.468-1.47 1.468-3.86 0-5.33-.713-.712-1.66-1.103-2.666-1.103s-1.953.39-2.664 1.105c-.714.71-1.106 1.655-1.106 2.66 0 1.007.392 1.958 1.106 2.668.733.734 1.7 1.102 2.667 1.102.964 0 1.928-.368 2.664-1.102zm-1.564-3.77c.608.61.608 1.6 0 2.205-.61.608-1.602.608-2.21 0-.296-.296-.457-.688-.457-1.106 0-.42.164-.81.457-1.1l.003-.01c.293-.3.684-.46 1.102-.46.41 0 .81.16 1.1.46zm-2.986-.778h.006-.006zm13.14-8.068l-2.974 14.362c-.043.21-.148.405-.303.56l-7.21 7.216-2.23 9.637c-.04.2-.15.38-.29.53l-8.67 8.66c-.22.21-.5.32-.78.32-.19 0-.37-.05-.54-.14-.43-.24-.65-.74-.54-1.22l2.2-9.5-10.41-10.41-9.5 2.2c-.48.11-.98-.11-1.22-.54-.24-.43-.17-.97.18-1.32l8.67-8.67c.14-.15.33-.25.53-.3l9.63-2.24 7.22-7.22c.15-.15.35-.25.56-.3l14.36-2.97c.36-.08.74.04 1 .3s.37.64.3 1.01zm-37.99 19.214l5.878-1.362 5.717-5.712-5.87 1.36-5.71 5.714zm24.543 5.877l-5.71 5.716-1.36 5.88 5.72-5.71 1.36-5.88zm10.95-23.89l-12.39 2.565-15 14.99 9.83 9.83 7.76-7.76.06-.06 7.18-7.18 2.56-12.39zm196.65 118.313c.54-.097.91-.614.81-1.158l-2.08-11.818c-.1-.545-.62-.908-1.16-.812l-47.27 8.336c-.55.096-.91.614-.81 1.158l2.08 11.818c.09.545.61.907 1.16.81l22.65-3.993.34 1.97-22.65 3.99c-.55.09-.91.61-.82 1.16l2.08 11.81c.09.54.61.9 1.15.81l22.65-4 1.4 7.95c-2.94.96-4.9 3.77-4.8 6.86l-16.82 2.96c-.55.09-.91.61-.81 1.16.09.54.61.9 1.16.81l16.82-2.97c1.06 3.25 4.39 5.32 7.85 4.7 3.47-.61 5.88-3.69 5.77-7.11l16.82-2.97c.55-.1.91-.62.81-1.16-.1-.55-.61-.91-1.16-.81l-16.82 2.96c-.96-2.94-3.77-4.9-6.86-4.8l-1.4-7.96 22.65-4c.54-.1.91-.62.81-1.16L293.26 277c-.096-.546-.614-.91-1.158-.813l-22.65 3.994-.348-1.97 22.65-3.99zm-13.33 33.83c.48 2.713-1.34 5.312-4.05 5.79-2.72.48-5.32-1.34-5.79-4.055-.48-2.715 1.34-5.314 4.05-5.793 2.71-.478 5.31 1.34 5.79 4.057zm14.78-19.87l-45.3 7.99-1.74-9.85 45.3-7.987 1.74 9.85zm-49.82-17.616l45.3-7.988 1.73 9.848-45.3 7.988-1.74-9.848zm5.27 1.1l-1.97.35c-.55.095-.91.612-.81 1.156.09.546.61.908 1.16.812l1.97-.348c.54-.096.91-.613.81-1.158-.1-.545-.62-.907-1.16-.81zm5.91-1.04l-1.97.347c-.55.09-.91.61-.81 1.15.09.54.61.91 1.16.81l1.97-.35c.54-.1.9-.62.81-1.16-.1-.55-.61-.91-1.16-.81zm9.85-1.737l-3.94.694c-.55.09-.91.61-.81 1.15.09.54.61.91 1.16.81l3.94-.7c.54-.1.9-.62.81-1.16-.1-.55-.62-.91-1.16-.81zm-12.98 18.535l-1.97.348c-.55.096-.91.613-.81 1.157.09.545.61.908 1.15.81l1.97-.346c.54-.1.91-.62.81-1.16-.1-.55-.61-.91-1.16-.81zm5.91-1.042l-1.97.348c-.55.096-.91.613-.81 1.157.09.546.61.908 1.16.81l1.97-.346c.54-.096.9-.613.81-1.158-.1-.55-.62-.91-1.16-.82zm9.85-1.736l-3.94.694c-.55.097-.91.614-.81 1.158.1.545.61.907 1.16.81l3.94-.693c.54-.09.9-.61.81-1.15-.1-.54-.61-.9-1.16-.81zm3.35 24.794c.28 1.627 1.84 2.72 3.47 2.433 1.63-.29 2.72-1.85 2.43-3.48-.29-1.63-1.85-2.72-3.48-2.44-1.63.28-2.72 1.84-2.44 3.47zm3.94-.695c.09.55-.27 1.07-.82 1.16-.54.1-1.06-.26-1.16-.81-.1-.54.27-1.06.81-1.16.54-.09 1.06.27 1.15.81zM48.21 284.4c2.23-.948 3.28-3.536 2.33-5.77-.95-2.233-3.532-3.278-5.77-2.33-2.23.948-3.28 3.536-2.33 5.77l.86 2.024-4.05 1.72-.86-2.025c-.95-2.24-3.533-3.28-5.77-2.33-2.23.94-3.28 3.53-2.33 5.77.95 2.23 3.54 3.27 5.77 2.33l2.027-.86 1.72 4.05-2.03.86c-2.24.94-3.28 3.53-2.33 5.77.94 2.23 3.53 3.27 5.77 2.33 2.23-.95 3.28-3.54 2.33-5.77l-.86-2.03 4.05-1.72.86 2.02c.95 2.23 3.53 3.28 5.77 2.33 2.23-.95 3.28-3.54 2.33-5.77-.95-2.23-3.54-3.28-5.77-2.33l-2.03.86-1.72-4.05 2.023-.86zm-3.742-3.19c-.47-1.117.05-2.41 1.17-2.885 1.12-.472 2.41.05 2.89 1.167.477 1.116-.05 2.41-1.163 2.884l-2.025.86-.86-2.025zm-2.94 15.59c.48 1.115-.05 2.41-1.16 2.883-1.113.473-2.41-.05-2.88-1.166-.475-1.117.05-2.41 1.165-2.885l2.025-.86.86 2.024zm-4.3-10.127l-2.02.86c-1.11.473-2.41-.05-2.88-1.167-.47-1.117.05-2.41 1.168-2.885 1.117-.47 2.41.05 2.885 1.17l.86 2.03zm8.66 3.496l-4.05 1.72-1.72-4.06 4.05-1.72 1.72 4.05zm4.91.3c1.12-.47 2.41.05 2.89 1.17.474 1.11-.05 2.41-1.165 2.88-1.117.47-2.41-.05-2.885-1.17l-.86-2.03 2.02-.86z" fill="#000"/><path stroke="#000" stroke-width="2.5" stroke-linejoin="round" d="M173.44 269.562l6.998 3.88-3.88 6.996-6.996-3.88zm116.65-125.966l7.19-3.507 3.507 7.19-7.19 3.5zm-275.583 27.6l12.593-6.14 6.142 12.592-12.593 6.142z"/><path d="M297.682 25.88l-5.184 2.993-1.2-2.08c-.323-.558-1.038-.722-1.565-.418-.527.304-.724 1.038-.42 1.565l1.2 2.08-5.183 2.99c-4.28 2.473-5.765 8.004-3.274 12.318 2.473 4.283 8.004 5.763 12.285 3.292l12.36-7.132c4.28-2.47 5.77-8.002 3.29-12.285-2.49-4.314-8.02-5.795-12.3-3.323zm7.847 13.59l-12.36 7.133c-3.2 1.845-7.28.725-9.11-2.44-1.85-3.197-.73-7.277 2.44-9.104l12.35-7.14c3.2-1.85 7.28-.73 9.1 2.44 1.82 3.16.75 7.26-2.44 9.1zm-14.45-.72l-.96.554-.56-.962c-.32-.56-1.01-.74-1.57-.42-.56.324-.73 1.04-.42 1.566l.55.962-.96.555c-.56.323-.73 1.04-.42 1.566.3.53 1.04.73 1.56.42l.96-.55.55.96c.32.56 1.03.73 1.56.42.52-.3.72-1.04.42-1.56l-.56-.96.96-.55c.56-.32.72-1.04.42-1.56-.31-.52-1.01-.74-1.57-.42zm11.03-4.068c1.47.396.88 2.61-.6 2.216-1.48-.396-.89-2.61.59-2.216zm1.23-4.492c1.47.395.88 2.61-.6 2.215s-.89-2.61.59-2.215zm-20.19 89.464c-4.81-1.288-7.67-6.246-6.38-11.053.72-2.69 2.61-4.86 5.17-5.96.71-.3 1.53.03 1.83.74.3.71-.03 1.54-.74 1.84-1.77.76-3.08 2.26-3.58 4.12-.89 3.32 1.09 6.74 4.4 7.63 3.31.89 6.73-1.08 7.62-4.4.5-1.88.11-3.84-1.07-5.39-.47-.61-.35-1.49.26-1.96.61-.46 1.49-.35 1.96.27 1.71 2.25 2.28 5.1 1.55 7.82-1.29 4.81-6.25 7.67-11.06 6.38zm1.95-7.335c-.75-.2-1.19-.97-.99-1.72l2.7-10.1c.2-.75.97-1.19 1.71-.99.75.2 1.19.96.99 1.71l-2.71 10.09c-.2.74-.97 1.19-1.72.99zm-61.62 11.4l-1.04-2.44c-.2-.46.02-.99.47-1.19.46-.2.99.02 1.18.48l1.03 2.43c.19.46-.02.99-.48 1.18-.46.2-.99-.02-1.18-.47zm-3.82 3.57c.27.2.61.23.89.11.14-.06.27-.16.36-.29.3-.4.22-.96-.18-1.27l-2.71-2.04c-.4-.31-.97-.22-1.27.17-.3.4-.22.96.18 1.26l2.7 2.04zm-6.09 4.43l4.57.56c.16.01.32-.01.46-.07.28-.12.5-.39.54-.72.06-.5-.29-.95-.79-1.01l-4.57-.56c-.5-.06-.95.29-1.01.78-.06.49.29.94.79 1zm3.33 6.68l2.43-1.04c.46-.2.67-.73.47-1.19-.2-.46-.72-.68-1.18-.48l-2.44 1.03c-.46.19-.68.72-.48 1.18.19.46.72.67 1.18.48zm19.75-9.37c.19.46.72.67 1.18.47l3.04-1.29c.46-.2.67-.73.47-1.19-.2-.46-.72-.67-1.18-.48l-3.05 1.29c-.46.19-.68.72-.48 1.18zm-2.92-3.74c.27.2.61.23.9.11.14-.06.26-.16.36-.29l1.98-2.63c.3-.4.22-.97-.18-1.27-.4-.3-.97-.22-1.26.17l-1.99 2.63c-.31.4-.23.97.17 1.26zm-4.39-1.78c.16.02.32-.01.46-.07.28-.12.5-.39.54-.73l.72-5.84c.06-.5-.29-.95-.79-1.01-.49-.06-.94.29-1 .78l-.72 5.84c-.06.49.29.94.79 1zm27.93 14.12l4.81 11.32c.04.1.07.21.07.32.02.49.45 12.09.46 12.67.01 1.31-.54 2.3-1.5 2.71l-16.1 6.83c-1.95.82-2.49-.04-3.04-1.34l-.66-1.54-.01-.02-.01-.01-.16-.39c-.19-.44-.57-.93-.92-1.18-1.91-1.38-11.6-8.33-14.7-10.51-2.17-1.53-3.29-2.89-3.53-4.27-.17-.98.1-1.96.83-2.99 1.58-2.25 3.55-2.46 7.33-.57l-6.23-14.68c-.97-2.3.1-4.96 2.4-5.93 2.29-.98 4.95.1 5.93 2.39l2.44 5.76 2.53-1.08c1.77-.76 3.76-.28 5.03 1.04l2.13-.91c1.68-.72 3.56-.32 4.83.84l2.13-.91c2.3-.98 4.96.1 5.93 2.39zm3.53 24.32c0-.07-.01-.3-.02-.65l-17.46 7.41.31.72c.06.14.16.38.24.54.09-.03.22-.07.43-.16l16.1-6.83c.38-.17.41-.84.4-1.04zm-5.19-23.62c-.59-1.39-2.19-2.03-3.57-1.45l-1.75.74c0 .02.02.03.02.05l1.37 3.23c.19.46-.03.99-.48 1.18-.46.19-.99-.02-1.18-.48l-1.38-3.24c-.59-1.38-2.19-2.03-3.56-1.44l-1.86.79 1.53 3.6c.19.46-.02.99-.48 1.18-.46.193-.99-.02-1.18-.48l-1.61-3.79c-.59-1.38-2.19-2.025-3.57-1.44l-2.54 1.077 2.67 6.29c.19.46-.02.99-.48 1.18-.46.2-.99-.015-1.18-.475l-5.82-13.715c-.59-1.38-2.19-2.03-3.57-1.44-1.38.59-2.03 2.19-1.44 3.57l8.89 20.95c.19.46-.02.99-.48 1.18-.46.19-.99-.02-1.18-.48l-1.53-3.603-.02-.01c-5.465-3.196-6.234-2.106-6.98-1.05-.58.82-.58 1.33-.524 1.64.15.85 1.09 1.89 2.8 3.09 3.11 2.19 12.81 9.15 14.72 10.52.5.36.982.92 1.32 1.52l18.13-7.7-.37-9.87-4.74-11.17-.01.007z" fill="#000"/></g></svg>