<svg width="24" height="41" viewBox="0 0 24 41" xmlns="http://www.w3.org/2000/svg"><path d="M24 10.671c0-2.654-2.17-4.764-4.764-4.764-2.593 0-4.764 2.17-4.764 4.764 0 1.87 1.085 3.438 2.593 4.282-.723 3.438-3.559 5.007-7.539 6.815-.964.423-1.93.906-2.833 1.387v-14.051c1.629-.723 2.833-2.413 2.833-4.341 0-2.654-2.17-4.764-4.764-4.764-2.653 0-4.764 2.17-4.764 4.764 0 1.93 1.146 3.617 2.834 4.341v25.993000000000002-3.617c-1.629.723-2.834 2.413-2.834 4.342 0 2.653 2.17 4.764 4.764 4.764 2.654 0 4.764-2.17 4.764-4.764 0-1.931-1.146-3.618-2.833-4.342v-2.838c0-1.207 1.687-2.052 4.462-3.317 3.86-1.748 8.925-4.101 9.889-10.192 1.748-.724 2.955-2.411 2.955-4.463zm-19.236-8.26c1.326 0 2.353 1.085 2.353 2.353 0 1.326-1.085 2.353-2.353 2.353-1.326 0-2.353-1.085-2.353-2.353 0-1.267 1.024-2.353 2.353-2.353zm0 35.761c-1.326 0-2.353-1.085-2.353-2.353 0-1.326 1.085-2.353 2.353-2.353 1.326 0 2.353 1.085 2.353 2.353-.002 1.326-1.088 2.353-2.353 2.353zm14.473-25.088c-1.326 0-2.353-1.085-2.353-2.353 0-1.325 1.085-2.353 2.353-2.353 1.267 0 2.353 1.085 2.353 2.353 0 1.268-1.027 2.353-2.353 2.353z" fill="#C9D4DF"/></svg>
