<svg width="32" height="39" xmlns="http://www.w3.org/2000/svg"><g fill="none" fill-rule="evenodd"><path d="M.154 12.188L9.692 0h19.054c1.33 0 2.408 1.084 2.408 2.41v34.18c0 1.33-1.085 2.41-2.407 2.41H2.56C1.23 39 .155 37.916.155 36.597v-24.41z" fill="#D5E5F2"/><path d="M11.217 9.83c.16 1.323-.78 2.442-2.126 2.5l-8.35.363L10.13.868l1.087 8.962z" fill="#9BBEDE"/><path d="M12.923 28.566l4.83 2.442v-1.54l-3.17-1.53 3.17-1.506v-1.518l-4.83 2.464v1.188zm12.74-1.2l-4.83-2.452v1.54l3.17 1.53-3.17 1.517v1.51l4.83-2.452V27.37z" fill="#7793AE"/></g></svg>