<?xml version="1.0" encoding="UTF-8" standalone="no"?>
<svg
   xmlns:dc="http://purl.org/dc/elements/1.1/"
   xmlns:cc="http://creativecommons.org/ns#"
   xmlns:rdf="http://www.w3.org/1999/02/22-rdf-syntax-ns#"
   xmlns:svg="http://www.w3.org/2000/svg"
   xmlns="http://www.w3.org/2000/svg"
   xmlns:sodipodi="http://sodipodi.sourceforge.net/DTD/sodipodi-0.dtd"
   xmlns:inkscape="http://www.inkscape.org/namespaces/inkscape"
   width="15"
   height="14"
   viewBox="0 0 15 14"
   id="svg3423"
   version="1.1"
   inkscape:version="0.91 r13725"
   sodipodi:docname="search-gray.svg">
  <metadata
     id="metadata3431">
    <rdf:RDF>
      <cc:Work
         rdf:about="">
        <dc:format>image/svg+xml</dc:format>
        <dc:type
           rdf:resource="http://purl.org/dc/dcmitype/StillImage" />
      </cc:Work>
    </rdf:RDF>
  </metadata>
  <defs
     id="defs3429" />
  <sodipodi:namedview
     pagecolor="#ffffff"
     bordercolor="#666666"
     borderopacity="1"
     objecttolerance="10"
     gridtolerance="10"
     guidetolerance="10"
     inkscape:pageopacity="0"
     inkscape:pageshadow="2"
     inkscape:window-width="3838"
     inkscape:window-height="2139"
     id="namedview3427"
     showgrid="false"
     inkscape:zoom="141.14286"
     inkscape:cx="6.3238867"
     inkscape:cy="7.4397889"
     inkscape:window-x="3840"
     inkscape:window-y="19"
     inkscape:window-maximized="1"
     inkscape:current-layer="svg3423" />
  <path
     d="m 5.786,0 c -0.952,0 -1.83,0.235 -2.635,0.704 -0.8,0.47 -1.44,1.106 -1.91,1.91 -0.47,0.805 -0.7,1.684 -0.7,2.636 0,0.952 0.235,1.83 0.704,2.635 0.47,0.805 1.108,1.44 1.91,1.91 0.806,0.47 1.685,0.705 2.637,0.705 1.026,0 1.96,-0.27 2.803,-0.813 l 3.95,3.97 c 0.237,0.23 0.513,0.343 0.827,0.343 0.322,0 0.6,-0.114 0.825,-0.342 0.228,-0.228 0.342,-0.503 0.342,-0.827 0,-0.32 -0.114,-0.594 -0.342,-0.822 l -3.97,-3.95 c 0.54,-0.844 0.812,-1.78 0.812,-2.804 0,-0.95 -0.234,-1.83 -0.704,-2.634 C 9.865,1.815 9.229,1.181 8.425,0.711 7.617,0.233 6.74,0 5.786,0 Z m 0,8.75 C 5.312,8.75 4.86,8.658 4.429,8.473 3.999,8.289 3.621,8.039 3.309,7.725 2.992,7.41 2.743,7.038 2.559,6.607 2.374,6.177 2.281,5.724 2.281,5.25 2.281,4.776 2.374,4.324 2.558,3.893 2.743,3.463 2.992,3.09 3.308,2.775 3.621,2.461 3.994,2.211 4.424,2.027 4.854,1.842 5.306,1.75 5.78,1.75 6.254,1.75 6.707,1.842 7.137,2.027 7.567,2.211 7.94,2.461 8.257,2.775 8.57,3.09 8.82,3.462 9.007,3.893 9.189,4.323 9.281,4.776 9.281,5.25 9.281,5.724 9.189,6.176 9.004,6.607 8.819,7.037 8.569,7.41 8.254,7.725 7.94,8.039 7.568,8.289 7.137,8.473 6.707,8.658 6.257,8.75 5.783,8.75 Z"
     id="path3425"
     inkscape:connector-curvature="0"
     style="fill:#becbd9;fill-rule:evenodd;fill-opacity:1" />
</svg>
