<svg width="15" height="14" xmlns="http://www.w3.org/2000/svg"><path d="M14.27 11.683c.183.25.274.537.274.86 0 .407-.142.75-.424 1.033-.283.283-.627.424-1.032.424H2c-.27 0-.52-.07-.752-.208-.233-.14-.413-.33-.54-.57-.123-.238-.177-.49-.16-.76.015-.27.096-.513.242-.732l4.423-6.514V.294c0-.082.028-.152.085-.21C5.355.03 5.422 0 5.5 0h4.088c.077 0 .144.028.2.085.058.057.087.127.087.21v4.92l4.395 6.468zm-8.476-.014c.323 0 .6-.12.827-.348.23-.228.348-.503.348-.827 0-.325-.114-.6-.342-.828-.227-.23-.503-.343-.826-.343-.325 0-.6.115-.828.343-.23.23-.342.504-.342.828 0 .324.114.6.342.827.225.228.5.342.825.342zM8.42 8.75c.24 0 .447-.085.617-.256.17-.17.257-.377.257-.62 0-.24-.086-.447-.257-.618C8.867 7.086 8.66 7 8.42 7c-.243 0-.45.085-.62.256-.17.17-.256.377-.256.62 0 .24.085.447.256.618.17.17.377.256.62.256z" fill="#7793AE" fill-rule="evenodd"/></svg>