<svg width="43" height="44" viewBox="0 0 43 44" fill="none" xmlns="http://www.w3.org/2000/svg">
<path d="M19.0276 26.5353L17.1284 28.4345L19.0276 30.3336L17.1284 32.2328L15.2292 30.3336L13.3301 32.2328L11.4309 30.3336L13.3301 28.4345L11.4309 26.5353L13.3301 24.6361L15.2292 26.5353L17.1284 24.6361L19.0276 26.5353ZM29.6701 24.6361L27.7709 26.5353L25.8717 24.6361L23.9726 26.5353L25.8717 28.4345L23.9726 30.3336L25.8717 32.2328L27.7709 30.3336L29.6701 32.2328L31.5693 30.3336L29.6701 28.4345L31.5693 26.5353L29.6701 24.6361ZM41.2084 27.5386V32.9136C41.2084 33.8991 40.4022 34.7053 39.4168 34.7053H37.6251V36.497C37.6251 38.4857 36.0305 40.0803 34.0418 40.0803H8.95842C6.98758 40.0803 5.37508 38.4857 5.37508 36.497V34.7053H3.58341C2.598 34.7053 1.79175 33.8991 1.79175 32.9136V27.5386C1.79175 26.5532 2.598 25.747 3.58341 25.747H5.37508C5.37508 18.8132 10.983 13.2053 17.9167 13.2053H19.7084V10.9299C18.6334 10.3207 17.9167 9.15615 17.9167 7.83031C17.9167 5.85948 19.5292 4.24698 21.5001 4.24698C23.4709 4.24698 25.0834 5.85948 25.0834 7.83031C25.0834 9.15615 24.3668 10.3207 23.2917 10.9299V13.2053H25.0834C32.0172 13.2053 37.6251 18.8132 37.6251 25.747H39.4168C40.4022 25.747 41.2084 26.5532 41.2084 27.5386ZM37.6251 29.3303H34.0418V25.747C34.0418 20.802 30.0284 16.7886 25.0834 16.7886H17.9167C12.9717 16.7886 8.95842 20.802 8.95842 25.747V29.3303H5.37508V31.122H8.95842V36.497H34.0418V31.122H37.6251V29.3303Z" fill="#798BAF"/>
</svg>
