<svg xmlns="http://www.w3.org/2000/svg" viewBox="0 0 124 120" xmlns:xlink="http://www.w3.org/1999/xlink"><defs><radialGradient id="a" cx="50.6989607%" cy="5.24049851%" r="89.513871%" fx="50.6989607%" fy="5.24049851%"><stop stop-color="#67C5D5" offset="0%"/><stop stop-color="#66C2D3" offset="16.04%"/><stop stop-color="#62B9CE" offset="27.95%"/><stop stop-color="#5CA8C6" offset="38.52%"/><stop stop-color="#5392BA" offset="48.32%"/><stop stop-color="#4874AA" offset="57.59%"/><stop stop-color="#3A5097" offset="66.46%"/><stop stop-color="#2A2781" offset="74.85%"/><stop stop-color="#1B006D" offset="81.46%"/><stop stop-color="#596AAD" offset="100%"/></radialGradient><radialGradient id="b" cx="89.1881609%" cy="-256.271513%" r="231.105423%" fx="89.1881609%" fy="-256.271513%"><stop stop-color="#0F80BC" offset="0%"/><stop stop-color="#0A5F9E" offset="33.76%"/><stop stop-color="#00145A" offset="100%"/></radialGradient><radialGradient id="c" cx="-924.119257%" cy="-1093.99573%" r="1274.16994%" fx="-924.119257%" fy="-1093.99573%"><stop stop-color="#0F80BC" offset="0%"/><stop stop-color="#0A5F9E" offset="33.76%"/><stop stop-color="#00145A" offset="100%"/></radialGradient><radialGradient id="d" cx="-815.25793%" cy="-856.375628%" r="1234.00725%" fx="-815.25793%" fy="-856.375628%"><stop stop-color="#0F80BC" offset="0%"/><stop stop-color="#0A5F9E" offset="33.76%"/><stop stop-color="#00145A" offset="100%"/></radialGradient><radialGradient id="e" cx="1.54664303%" cy="-32.1745071%" r="157.883444%" fx="1.54664303%" fy="-32.1745071%"><stop stop-color="#0F80BC" offset="0%"/><stop stop-color="#0B629B" offset="26.43%"/><stop stop-color="#031747" offset="84.39%"/><stop stop-color="#00022F" offset="100%"/></radialGradient><radialGradient id="f" cx="51.4923509%" cy="-47.2944329%" r="584.979669%" fx="51.4923509%" fy="-47.2944329%"><stop stop-color="#0F80BC" offset="0%"/><stop stop-color="#0A5F9E" offset="33.76%"/><stop stop-color="#00145A" offset="100%"/></radialGradient><radialGradient id="g" cx="1.64916622%" cy="-1574.65925%" r="1234.2276%" fx="1.64916622%" fy="-1574.65925%"><stop stop-color="#0F80BC" offset="0%"/><stop stop-color="#0A5F9E" offset="33.76%"/><stop stop-color="#00145A" offset="100%"/></radialGradient><ellipse id="h" cx="58.755" cy="58.375" rx="58.215" ry="58.254"/><linearGradient id="i" x1="29.7208334%" x2="72.914073%" y1="49.0243341%" y2="53.5425263%"><stop stop-color="#0F80BC" offset="0%"/><stop stop-color="#0A5F9E" offset="33.76%"/><stop stop-color="#00145A" offset="100%"/></linearGradient><ellipse id="k" cx="58.755" cy="58.375" rx="58.215" ry="58.254"/><linearGradient id="l" x1="41.7548225%" x2="20.4837347%" y1="63.8451248%" y2="111.513133%"><stop stop-color="#0F80BC" offset="0%"/><stop stop-color="#0A5F9E" offset="33.76%"/><stop stop-color="#00145A" offset="100%"/></linearGradient><linearGradient id="n" x1="49.9998378%" x2="49.9998378%" y1="78.2294327%" y2="21.5189525%"><stop stop-opacity="0" offset="1.37%"/><stop stop-color="#C4E0E3" stop-opacity=".2" offset="65%"/><stop stop-color="#C4E0E3" offset="82.24%"/><stop stop-color="#CDE5E8" offset="84.98%"/><stop stop-color="#E8F4F7" offset="94.43%"/><stop stop-color="#F2FAFC" offset="100%"/></linearGradient><linearGradient id="o" x1="49.3594489%" x2="60.9684282%" y1="42.52745%" y2="35.0174677%"><stop stop-color="#DF731B" offset="0%"/><stop stop-color="#DF731B" offset="54.49%"/><stop stop-color="#EC8811" offset="70.14%"/><stop stop-color="#F4950B" offset="85.93%"/><stop stop-color="#F79A09" offset="100%"/></linearGradient><linearGradient id="p" x1="9.23194288%" x2="57.2651192%" y1="47.4281374%" y2="52.1461515%"><stop stop-color="#941403" offset="1.12%"/><stop stop-color="#E85C0A" offset="89.72%"/></linearGradient><linearGradient id="q" x1="-227.874362%" x2="114.917641%" y1="-2.30736879%" y2="65.2196947%"><stop stop-color="#941403" offset="1.12%"/><stop stop-color="#A32104" offset="13.57%"/><stop stop-color="#C84107" offset="49.78%"/><stop stop-color="#DF5509" offset="78.93%"/><stop stop-color="#E85C0A" offset="97.2%"/></linearGradient><linearGradient id="r" x1="16.4710995%" x2="35.8757062%" y1="71.1952198%" y2="58.0173224%"><stop stop-color="#F2C8A9" offset="0%"/><stop stop-color="#FFC" offset="100%"/></linearGradient><linearGradient id="s" x1="36.4541348%" x2="91.7661425%" y1="50.2145231%" y2="53.1608247%"><stop stop-color="#B30000" offset="0%"/><stop stop-color="#DF731B" offset="100%"/></linearGradient><linearGradient id="t" x1="31.0067292%" x2="121.871913%" y1="21.6943338%" y2="130.008853%"><stop stop-color="#941403" offset="0%"/><stop stop-color="#DF731B" offset="100%"/></linearGradient><linearGradient id="u" x1="-3.64353049%" x2="103.642854%" y1="48.2876635%" y2="51.7103881%"><stop stop-color="#B30000" offset="5.62%"/><stop stop-color="#DE5C01" offset="100%"/></linearGradient><linearGradient id="v" x1="40.8028957%" x2="125.743874%" y1="38.5885611%" y2="200.215172%"><stop stop-color="#DE7210" offset="5.62%"/><stop stop-color="#F6C08F" offset="100%"/></linearGradient><linearGradient id="w" x1="48.9425555%" x2="30.236099%" y1="37.5682508%" y2="171.843464%"><stop stop-color="#DE7210" offset="5.62%"/><stop stop-color="#F6C08F" offset="100%"/></linearGradient><linearGradient id="x" x1="56.0861604%" x2="18.087746%" y1="88.0495299%" y2="23.8596652%"><stop stop-color="#941403" offset="1.12%"/><stop stop-color="#E85C0A" offset="47.19%"/><stop stop-color="#F9BD5F" offset="100%"/></linearGradient><linearGradient id="y" x1="33.9075154%" x2="103.518013%" y1="65.7559826%" y2="2.06056998%"><stop stop-color="#DE7210" offset="19.66%"/><stop stop-color="#F9BD5F" offset="84.27%"/><stop stop-color="#FFFCCF" offset="100%"/></linearGradient><linearGradient id="z" x1="24.0782693%" x2="65.8189832%" y1="11.2000927%" y2="86.9339512%"><stop stop-color="#941403" offset="1.69%"/><stop stop-color="#E35100" offset="50%"/><stop stop-color="#DF731B" offset="100%"/></linearGradient><linearGradient id="A" x1="48.3329776%" x2="71.9082177%" y1="39.3868311%" y2="69.4264825%"><stop stop-color="#EEA272" offset="0%"/><stop stop-color="#EFA777" offset="18.65%"/><stop stop-color="#F2B585" offset="40.64%"/><stop stop-color="#F6CD9C" offset="64.3%"/><stop stop-color="#FCEEBB" offset="88.98%"/><stop stop-color="#FFC" offset="100%"/></linearGradient><linearGradient id="B" x1="47.1423617%" x2="98.6841267%" y1="59.7518517%" y2="141.821284%"><stop stop-color="#DF731B" offset="19.66%"/><stop stop-color="#F9BD5F" offset="84.27%"/><stop stop-color="#FFFCCF" offset="100%"/></linearGradient><linearGradient id="C" x1="63.9814579%" x2="-27.9092183%" y1="1.50817902%" y2="176.143439%"><stop stop-color="#DE7210" offset="5.62%"/><stop stop-color="#F6C08F" offset="100%"/></linearGradient><linearGradient id="D" x1="65.1860582%" x2="-15.7225907%" y1="23.0618297%" y2="177.118615%"><stop stop-color="#DE7210" offset="5.62%"/><stop stop-color="#F2C06E" offset="100%"/></linearGradient><linearGradient id="E" x1="122.839973%" x2="17.3332477%" y1="23.0055706%" y2="81.7859484%"><stop stop-color="#FFFAEE" offset=".47%"/><stop stop-color="#F5F89B" offset="27.57%"/><stop stop-color="#F3ED91" offset="31.02%"/><stop stop-color="#ECC267" offset="46.68%"/><stop stop-color="#E6A046" offset="61.82%"/><stop stop-color="#E2872E" offset="76.11%"/><stop stop-color="#E07820" offset="89.21%"/><stop stop-color="#DF731B" offset="100%"/></linearGradient><linearGradient id="F" x1="56.6907058%" x2="1.20210197%" y1="3.38658034%" y2="173.506473%"><stop stop-color="#DE7210" offset="5.62%"/><stop stop-color="#F2C06E" offset="100%"/></linearGradient><linearGradient id="G" x1="70.2448116%" x2="-38.3985865%" y1="-.13941777%" y2="178.560934%"><stop stop-color="#DE7210" offset="5.62%"/><stop stop-color="#F2C06E" offset="100%"/></linearGradient><linearGradient id="H" x1="51.2769711%" x2="64.5837281%" y1="37.9229565%" y2="174.925892%"><stop stop-color="#DE7210" offset="5.62%"/><stop stop-color="#F2C072" offset="100%"/></linearGradient><linearGradient id="I" x1="51.2799413%" x2="64.5859688%" y1="37.9251127%" y2="174.924721%"><stop stop-color="#DE7210" offset="5.62%"/><stop stop-color="#F2C072" offset="100%"/></linearGradient><linearGradient id="J" x1="47.4231734%" x2="-1.87537288%" y1="39.2771%" y2="131.523881%"><stop stop-color="#DE7210" offset="5.62%"/><stop stop-color="#EED8A5" offset="100%"/></linearGradient><linearGradient id="K" x1="47.4231734%" x2="-1.87452429%" y1="39.2685933%" y2="131.511972%"><stop stop-color="#DE7210" offset="5.62%"/><stop stop-color="#EED8A5" offset="100%"/></linearGradient><linearGradient id="L" x1="44.2735072%" x2="17.262531%" y1="52.2027176%" y2="119.433514%"><stop stop-color="#DE7210" offset="5.62%"/><stop stop-color="#F2C072" offset="100%"/></linearGradient><linearGradient id="M" x1="49.5747387%" x2="-53.1301549%" y1="32.2270196%" y2="186.65855%"><stop stop-color="#DE7210" offset="5.62%"/><stop stop-color="#F2C072" offset="100%"/></linearGradient><linearGradient id="N" x1="49.5726392%" x2="-53.1256647%" y1="32.2319063%" y2="186.657073%"><stop stop-color="#DE7210" offset="5.62%"/><stop stop-color="#F2C072" offset="100%"/></linearGradient><linearGradient id="O" x1="52.5888854%" x2="74.5320046%" y1="14.1798483%" y2="51.2047671%"><stop stop-color="#8B8B89" offset="0%"/><stop stop-color="#120500" offset="100%"/></linearGradient><linearGradient id="P" x1="50.0027374%" x2="50.0027374%" y1="37.7876517%" y2="5.76848316%"><stop stop-color="#DE7210" offset="5.62%"/><stop stop-color="#F6C08F" offset="100%"/></linearGradient><linearGradient id="Q" x1="-24.5491339%" x2="104.884683%" y1="107.079611%" y2="-25.5435167%"><stop stop-color="#DE7210" offset="5.62%"/><stop stop-color="#F6C08F" offset="100%"/></linearGradient><linearGradient id="R" x1="47.4257191%" x2="-1.87112995%" y1="39.2779506%" y2="131.521329%"><stop stop-color="#DE7210" offset="5.62%"/><stop stop-color="#EED8A5" offset="100%"/></linearGradient><linearGradient id="S" x1="-23.4384759%" x2="106.200971%" y1="105.933339%" y2="-26.8476774%"><stop stop-color="#DE7210" offset="5.62%"/><stop stop-color="#F6C08F" offset="100%"/></linearGradient><linearGradient id="T" x1="-37.8710414%" x2="106.381615%" y1="-25.0016303%" y2="91.2547489%"><stop stop-color="#DE7210" offset="5.62%"/><stop stop-color="#F6C08F" offset="100%"/></linearGradient><linearGradient id="U" x1="-38.7090528%" x2="108.095046%" y1="-6.9740634%" y2="82.7881844%"><stop stop-color="#DE7210" offset="5.62%"/><stop stop-color="#F6C08F" offset="100%"/></linearGradient><linearGradient id="V" x1="-38.7651403%" x2="106.677175%" y1="-15.1249316%" y2="91.7122292%"><stop stop-color="#DE7210" offset="5.62%"/><stop stop-color="#F6C08F" offset="100%"/></linearGradient><linearGradient id="W" x1="55.7329034%" x2="-87.753594%" y1="48.3852836%" y2="-7.62902402%"><stop stop-color="#DE7210" offset="5.62%"/><stop stop-color="#F6C08F" offset="100%"/></linearGradient><linearGradient id="X" x1="-19.8823448%" x2="106.515959%" y1="109.700532%" y2="-27.098263%"><stop stop-color="#DE7210" offset="5.62%"/><stop stop-color="#F6C08F" offset="100%"/></linearGradient><linearGradient id="Y" x1="10.1196304%" x2="82.6183508%" y1="107.811802%" y2="35.5778849%"><stop stop-color="#DE5C01" offset="0%"/><stop stop-color="#FEFD00" offset="73.6%"/><stop stop-color="#FEFE26" offset="77.83%"/><stop stop-color="#FFFE54" offset="83.69%"/><stop stop-color="#FFFF76" offset="88.9%"/><stop stop-color="#FFFF8B" offset="93.2%"/><stop stop-color="#FFFF92" offset="96.07%"/></linearGradient><linearGradient id="Z" x1="79.6889211%" x2="24.822369%" y1="57.9791002%" y2="19.8179367%"><stop stop-color="#F79A09" offset="0%"/><stop stop-color="#FEFD00" offset="73.6%"/><stop stop-color="#FEFE26" offset="77.83%"/><stop stop-color="#FFFE54" offset="83.69%"/><stop stop-color="#FFFF76" offset="88.9%"/><stop stop-color="#FFFF8B" offset="93.2%"/><stop stop-color="#FFFF92" offset="96.07%"/></linearGradient><linearGradient id="aa" x1="121.715968%" x2="19.0136549%" y1="92.5890458%" y2="-3.50047939%"><stop stop-color="#DE5C01" offset="0%"/><stop stop-color="#FEFD00" offset="73.6%"/><stop stop-color="#FEFE26" offset="77.83%"/><stop stop-color="#FFFE54" offset="83.69%"/><stop stop-color="#FFFF76" offset="88.9%"/><stop stop-color="#FFFF8B" offset="93.2%"/><stop stop-color="#FFFF92" offset="96.07%"/></linearGradient><linearGradient id="ab" x1="60.238475%" x2="15.9900736%" y1="53.1972226%" y2="27.6417469%"><stop stop-color="#F79A09" offset="0%"/><stop stop-color="#FEFD00" offset="73.6%"/><stop stop-color="#FEFE26" offset="77.83%"/><stop stop-color="#FFFE54" offset="83.69%"/><stop stop-color="#FFFF76" offset="88.9%"/><stop stop-color="#FFFF8B" offset="93.2%"/><stop stop-color="#FFFF92" offset="96.07%"/></linearGradient><linearGradient id="ac" x1="7.6444887%" x2="74.0427454%" y1="69.7143371%" y2="26.2127769%"><stop stop-color="#F79A09" offset="0%"/><stop stop-color="#FEFD00" offset="73.6%"/><stop stop-color="#FEFE26" offset="77.83%"/><stop stop-color="#FFFE54" offset="83.69%"/><stop stop-color="#FFFF76" offset="88.9%"/><stop stop-color="#FFFF8B" offset="93.2%"/><stop stop-color="#FFFF92" offset="96.07%"/></linearGradient><linearGradient id="ad" x1="53.9058493%" x2="38.3146212%" y1="77.8201082%" y2="19.0841859%"><stop stop-color="#F79A09" offset="0%"/><stop stop-color="#FEFD00" offset="73.6%"/><stop stop-color="#FEFE26" offset="77.83%"/><stop stop-color="#FFFE54" offset="83.69%"/><stop stop-color="#FFFF76" offset="88.9%"/><stop stop-color="#FFFF8B" offset="93.2%"/><stop stop-color="#FFFF92" offset="96.07%"/></linearGradient><linearGradient id="ae" x1="34.1108089%" x2="85.7261126%" y1="71.3662092%" y2="27.3813368%"><stop stop-color="#F79A09" offset="0%"/><stop stop-color="#FEFD00" offset="73.6%"/><stop stop-color="#FEFE26" offset="77.83%"/><stop stop-color="#FFFE54" offset="83.69%"/><stop stop-color="#FFFF76" offset="88.9%"/><stop stop-color="#FFFF8B" offset="93.2%"/><stop stop-color="#FFFF92" offset="96.07%"/></linearGradient><linearGradient id="af" x1="50.2021087%" x2="49.2229369%" y1="79.8372519%" y2="25.3803237%"><stop stop-color="#DE5C01" offset="0%"/><stop stop-color="#FEFD00" offset="73.6%"/><stop stop-color="#FEFE26" offset="77.83%"/><stop stop-color="#FFFE54" offset="83.69%"/><stop stop-color="#FFFF76" offset="88.9%"/><stop stop-color="#FFFF8B" offset="93.2%"/><stop stop-color="#FFFF92" offset="96.07%"/></linearGradient><linearGradient id="ag" x1="22.670498%" x2="91.5800604%" y1="89.5985448%" y2="27.9223536%"><stop stop-color="#B9120D" offset="0%"/><stop stop-color="#BB180D" offset="7.8%"/><stop stop-color="#C0290C" offset="18.22%"/><stop stop-color="#C8450A" offset="30.13%"/><stop stop-color="#D36C08" offset="43.14%"/><stop stop-color="#E29E05" offset="57.06%"/><stop stop-color="#F4DA02" offset="71.51%"/><stop stop-color="#FEFD00" offset="79.21%"/><stop stop-color="#FEFD07" offset="81.36%"/><stop stop-color="#FEFD1B" offset="84.55%"/><stop stop-color="#FEFE3C" offset="88.37%"/><stop stop-color="#FFFE69" offset="92.68%"/><stop stop-color="#FFFFA3" offset="97.36%"/><stop stop-color="#FFFFC7" offset="100%"/></linearGradient><linearGradient id="ah" x1="40.1590755%" x2="140.284862%" y1="57.2729597%" y2="131.152821%"><stop stop-color="#DE7210" offset="5.62%"/><stop stop-color="#F6C08F" offset="100%"/></linearGradient><linearGradient id="ai" x1="33.0674227%" x2="149.985971%" y1="38.6310112%" y2="128.616368%"><stop stop-color="#DE7210" offset="5.62%"/><stop stop-color="#F6C08F" offset="100%"/></linearGradient><linearGradient id="aj" x1="22.84865%" x2="152.849635%" y1="22.785479%" y2="191.159814%"><stop stop-color="#DE7210" offset="5.62%"/><stop stop-color="#F6C08F" offset="100%"/></linearGradient></defs><g fill="none" fill-rule="evenodd"><g transform="translate(2)"><ellipse cx="59.755" cy="59.375" fill="#110070" rx="59.336" ry="59.375"/><ellipse cx="59.755" cy="59.375" fill="url(#a)" rx="58.215" ry="58.254"/><path fill="url(#b)" d="M51.405 89.446c-.072-.316-.857-1.233-1.458-1.438-.599-.205-1.188.884-1.574-.924-1.266.726-1.812-.2-1.812-.2s-1.365.08-1.629 1.751c-.65.769-2.316 3.566-1.431.657.891-2.927-.94-.23-1.11 1.24-.318.653-.855.719-.517-2.218-1.173-.405-1.772-3.127-1.129-3.179-.747-1.041-.16-2.633.462-2.548.622.08 1.69-1.36 1.657-1.694-.033-.333.482-.095.45-2.336-.033-2.247.847-2.803.919-.924.076 1.872 1.194-.613 1.079-1.566-.116-.949.112-3.094.793-1.826-.793-3.137-.167-3.261.309-1.173 1.193.094 1.234.73 1.234.73 1.321-.325 1.954.67 2.056 1.228 1.224-1.445 2.46.113 2.46.113s.853-.283.445 1.2c-.41 1.478 1.772.678 1.251-.384 1.073-.543 2.666 1.102 3.168 2.224.502 1.127-.86 2.723.202 3.109 1.068.384.6 2.242.6 2.242s2.232 1.238.683 2.301l-.528 1.265s1.01 1.127 1.354.456c.344-.672.466.683.466.683-.129-.24.248 1.396 1.64 1.74 1.398.341 2.283 2.55.731 2.578-1.546.025-1.666-.017-2.085.886-.417.899-2.391.931-3.413-.233-1.087.368-3.021-.106-2.452-.976-.938.547-1.824-.922-1.091-1.577.733-.653-.412-1.499-.797-.563-.381.935-2.404 1.396-2.263-.195.042-.472 1.12-.748 1.134-.354.197.455.277-.036.196-.095z"/><path fill="url(#c)" d="M4.541.916c.309.306.917.238 1.254.144.339-.097.291-.337.583-.431.287-.097 1.397.431 1.107 1.584-.673.094-.917.912-.917.912s-.673.287-1.013.144c-.338-.144-.338-.097-.821-.05-.483.05-1.643-.622-.387-.622 1.257 0-.143-.577-.675-.577-.53 0-.097-.528.532-.384-.436-.72-.195-1.251.337-.72z" transform="translate(95 43)"/><path fill="url(#d)" d="M.188 3.524c-.337.334.049 1.344.483 1.294.433-.047 1.11-.238 1.11-.238s.337.672 0 .866c-.337.19-1.319.106-.047.575 1.304.479 1.64.334 1.737.094.097-.238.53-1.054.773-1.006.193-.431-.676-.815-.192-1.105.479-.288.096-1.343.096-1.343s-.677.047-.966.528c-.29.48-.674-.047-.964-.047-.049.287-.243.527-.243.527l-.193-.434c-.001-.001-1.354-.047-1.594.289z" transform="translate(95 43)"/><path fill="url(#e)" d="M86.165 47.314c-.042-.123.384-.62.27.024-.262.458 1.058.87 1.428.36 1.241-1.7-1.17-2.522-2.216-1.732-1.056.797-1.638-.912-.425-1.155 1.209-.245 1.311-2.43-.021-2.438 1.176-.58-.453-2.318-1.799-2.615-.217-1.87-2.189-3.059-3.226-2.38-1.047.681-1.137.561-2.671-.37-1.528-.927-2.264 1.928-1.14 3.175 1.131 1.256.311 3.281.358 2.935 0 0-.426.766-.398 1.053-1.294.439-1.672-1.383-2.475-1.786-.585.763-1.53 1.17-1.53 1.17l.071-1.553s-4.017-2.188-5.251-1.575c-1.521.47-1.881 3.991-.5 4.506 1.383.521-1.735 1.818 1.393 5.116 3.213 3.386 4.455 3.483 5.111 2.932.162-.139.442-.347.784-.578.031.13.083.255.163.373.804 1.209-1.869 2.162-2.242 3.894-.379 1.751-.03 5.007 1.556 5.118.302-1.735 3.27-1.122 1.655.45-1.644 1.603-.491 1.886-.491 1.886s.078 3.003 2.592 2.043c-.073.172-.132.392-.167.632-.703-.142-2.421-.357-2.841.841-.53 1.512-2.774-.512-4.344.167-1.563.674-3.844 2.887-3.076 4.443 1.476-.7 2.606 2.456.544 1.808-2.069-.65-1.667.583-1.667.583s-2.154 1.699-.137 3.508c-.775.118-2.152.981-1.688 2.874 0 0-.885.032-1.004 1.726-2.887.582-2.711 1.478 1.633.496-1.753.91 1.226 1.338 2.546 1.217 1.322-.12 4.792 1.591 2.185 1.608-2.612.016-1.834 1.294 1.294 1.355 3.123.064 2.795.788 3.259.756.464-.032 2.484 1.561 2.374 2.444-.113.884 2.116 1.801 3.566.788.074.919 3.886.202 4.45-1.455 4.128.631 4.033-.139 3.114-.629-2.067-.316-5.86-3.063-1.746-1.65 4.093 1.411.15-1.11-.929-2.079-2.35-.457-2.47-2.416-2.47-2.416s1.298-.739.274-2.586c2.539-.471 1.006-1.364 1.291-2.215.285-.854 1.574-1.942 2.016-2.03.084-.115.775.023.134.283-.554.006-.161 1.566.502 1.646 2.242.273 1.586-2.654.269-3.243-1.32-.594-.135-2.204.792-1.12.927 1.082 2.993-.133 2.218-1.504 1.232.854 1.896-1.909 1.372-3.495 1.648-1.429 1.595-4.278.32-4.915-.627-.313-.93-.516-1.082-.905.757-.358 1.761-.622 2.155-.269.641.579 2.425-1.018 2.312-2.885.751.412 1.947-3.395.931-4.727 2.326-3.252 1.699-3.547.921-3.002-1.17 1.622-5.013 3.563-2.034.688 2.892-2.791-.769-.675-1.994-.222-1.441 1.805-2.97.938-2.97.938s.065-1.479-1.796-1.509c.86-2.373-.526-1.516-1.011-2.164-.486-.647-.661-2.229-.512-2.634z"/><path fill="url(#f)" d="M56.007 23.541c-.361.941 1.178 2.47 1.951 1.978.775-.495 1.885-1.482 1.885-1.482s1.177.945.701 1.619c-.479.672-2.386 1.428.374 1.122 2.831-.313 3.347-.897 3.333-1.437-.015-.538.141-2.469.631-2.603.015-.99-1.925-.898-1.253-1.889.672-.986-.905-2.606-.905-2.606s-1.228.719-1.382 1.888c-.155 1.167-1.304.538-1.848.806.141.584-.026 1.212-.026 1.212l-.711-.629c.001-.001-2.571 1.168-2.75 2.021z"/><path fill="url(#g)" d="M60.61 72.966c-.337.334.05 1.343.483 1.296.434-.049 1.11-.24 1.11-.24s.337.672 0 .865c-.339.19-1.319.108-.049.575 1.303.48 1.642.336 1.739.096.095-.24.529-1.056.771-1.009.195-.431-.676-.814-.193-1.102.483-.291.099-1.346.099-1.346s-.676.048-.966.529c-.29.479-.676-.049-.966-.049-.049.288-.24.528-.24.528l-.193-.431c-.001 0-1.354-.048-1.595.288z"/><g transform="translate(1 1)"><mask id="j" fill="#fff"><use xlink:href="#h"/></mask><path fill="url(#i)" d="M60.061.002c-.912.203.613 3.503.613 3.503s-.055 2.216.321 2.329c.374.113 2.852.733 4.147 2.345 1.301 1.614.625 2.463-.458 1.997-1.084-.465-.797.959-.797.959s3.27 1.063.8.995c-2.475-.066 1.666 1.741 1.393 1.93-.273.191-.429 1.231-.429 1.231s-2.183.182-.333.959c6.26 2.637-.669 1.925-.669 1.925l-.884 1.087 1.749 2.194 1.345.962s2.833-.945 3.716-1.093c.884-.146 3.114-1.815 3.114-1.815s.669.478.169-.497c-.501-.976 1.841-.54 2.425.186l4.134 1.867c.054.144.146.274.292.375.806.565-.729 1.535-.573 2.562.156 1.016 1.093 2.704 2.121 2.526-.18-.969 1.851-1.086 1.144-.006-.706 1.077.077 1.056.077 1.056s.653 1.521 2.034.676c-.056.464.227 1.397 1.413 1.459 0 0-.126.506.848.865-.132 1.737.424 1.792.561-.846.245 1.157.992-.471 1.141-1.25.15-.784 1.756-2.505 1.322-.984-.431 1.508 4.735 2.06 5.308.259.578-1.815 2.637-2.763 2.699-3.038.062-.281-4.583-.712-4.07-.493.514.219 1.47-.948 1.115-1.986.576.116.83-2.301-.083-2.927 1.143-2.405.651-2.48.182-2.001-.57 1.205-2.922 3.023-1.327.783 1.609-2.263-.653-.284-1.438.208-.689 1.341-1.899 1.08-1.899 1.08s-.222-.911-1.516-.607c.151-1.612-.653-.838-1.12-1.154-.285-.193-.558-.627-.726-.999 1.115.452 2.612.933 2.354.104-.167-.542 2.112.643 2.192.396l2.848-.396 2.769-1.75C80.388-.836 60.061.002 60.061.002z" mask="url(#j)"/></g><g transform="translate(1 1)"><mask id="m" fill="#fff"><use xlink:href="#k"/></mask><path fill="url(#l)" d="M33.752 5.095C23.179 9.842 15.201 19.626 15.201 19.626s.938 2.145 1.265 1.987c.33-.156-2.361 5.628-.386 5.954 1.985.325 7.696-3.578 6.637-3.22-1.056.356.595-2.112.595-2.112s2.972-1.318 1.214.202c-1.743 1.511 2.318.187 2.255.496-.064.311.525 1.147.525 1.147s-1.393 1.494.406.892c6.172-2.075.812 1.779.812 1.779l.106 1.312 2.67.464 1.578-.15s1.381-2.436 1.914-3.098c.535-.663 1.028-3.284 1.028-3.284s.803-.084-.213-.468c-1.016-.385.972-1.583 1.886-1.434l4.303-1.336c.138.068.292.103.47.082.985-.114.489 1.603 1.294 2.25.796.644 2.627 1.264 3.283.469-.784-.594.674-2.011.86-.751.187 1.249.767.723.767.723s1.543-2.654 2.036-4.177c.27.377 2.788-3.309 2.025-5.067-.771-1.78.479-3.456.34-3.715-.143-.256-.896.528-.34.34.561-.192-1.589.772-1.874-2.061-.288-2.89-.707.243-.985 1.169.377 1.508 4.29-6.093 4.29-6.093l5.044-2.057c0 .004-11.481-.957-25.254 5.226z" mask="url(#m)"/></g><ellipse cx="58.652" cy="23.271" fill="url(#n)" opacity=".5" rx="30.825" ry="19.971"/></g><path fill="url(#o)" d="M123.321 34.084l-1.426 9.15s-2.039-16.94-4.538-23.273c-3.83-9.704-5.534-9.626-5.545-9.612 2.565 6.519 2.1 10.021 2.1 10.021S109.367 7.983 97.35 4.042C83.118-.623 75.868 1.063 75.922 1.128c.054.066 14.709 2.562 17.308 6.133 0 0-6.225 0-12.42 1.785-.28.08 22.793 2.882 27.51 25.938 0 0-2.529-5.277-5.657-6.173 2.057 6.258 1.529 18.133-.43 24.035-.252.759-.51-3.281-4.369-5.021C99.1 56.682 97.79 70.73 91.645 74.6c-.479.301 3.852-13.868.871-8.39-17.797 27.287-38.956 11.04-47.538 5.249 6.888 1.688 14.205.472 18.441-2.423 4.275-2.922 6.804-5.058 9.075-4.553 2.27.507 3.781-1.771 2.018-3.792-1.765-2.025-6.051-4.808-11.849-3.291-4.089 1.071-9.156 5.595-16.891 1.014-6.599-3.91-6.554-7.085-6.554-9.108 0-2.024 1.8-5.1 5.076-4.595 2.934.453 1.388-1.27 4.545 0 .86.346-.086-4.129-1.31-6.996 2.357-4.919 10.004-6.381 10.575-6.812 1.034-.782.465-1.172.818-2.35.33-1.097.541-4.062-8.017-3.243-3.938.377-6.443-4.726-7.264-5.965.266-1.577.693-3.018 1.271-4.338.587-1.203 1.228-2.305 1.868-3.139.2-.261.374-.49.532-.703 1.276-1.488 2.842-2.76 4.722-3.818.981-.554-10.969-.035-16.346 6.974-1.443.188-3.423-.228-5.636-.228-2.774 0-4.953.303-6.97.81-.323.081-.844.037-1.481-.115-1.775-1.839-6.797-6.259-7.027-12.254 0 0-7.302 5.612-6.209 20.912-.096 8.461-2.594 6.042-3.879 10.634-.598 2.176.899 3.815.899 3.879-.002.033 1.796-1.946 1.796-1.946s-11.323 19.617 3.3 44.66c12.604 21.589 33.755 31.13 55.703 29.272 3.839-.25 7.706-.822 11.564-1.754 51.133-12.363 45.573-74.107 45.573-74.107z" transform="translate(0 9)"/><path fill="url(#p)" d="M43.469 18.61s2.21 6.039 7.167 6.019c9.457-.038 9.646.093 9.707 1.243.188 3.5-1.54 4.647-2.201 5.145-.663.497-9.668 5.718-9.999 7.211-.331 1.492-10.391-14.198-10.391-14.198l5.717-5.42z" transform="translate(0 9)"/><path fill="url(#q)" d="M48.504 25.12s3.072 3.922.749 5.491c-2.838 1.916 4.012 2.335 6.494.942s4.006-3.44 4.093-3.745c.087-.305.902-3.054-4.279-2.096-3.276.606-4.476.746-7.057-.592z" transform="translate(0 9)"/><path fill="url(#r)" d="M58.143 31.017c.502-.378 1.616-1.137 2.042-3.011-.311.126-.34-.23-.707-.076-6.955 7.255-7.221 2.203-11.017 3.22-3.46.947-4.237 2.246-4.383 2.347.051.073.104.148.155.221.997.506 1.953 2.122 2.671 3.564.702.836 1.173 1.248 1.241.945.33-1.493 9.335-6.714 9.998-7.21z" transform="translate(0 9)"/><path fill="url(#s)" d="M6.18 36.782c-1.42 2.979-10.532 18.377 4.339 44.005 14.552 25.084 39.737 33.276 65.45 27.71 7.34-1.588 15.803-7.331 21.196-11.545-3.465-8.74-1.414-8.412-3.271-7.262-20.714 12.823-37.18.174-49.924-1.443C-2.913 82.305 6.345 36.689 6.345 36.689l-.165.093z" transform="translate(0 9)"/><path fill="url(#t)" d="M45.219 71.933c4.419 1.325 14.06.183 18.201-2.897 2.79-2.074 4.898-3.638 6.671-4.292-3.134-2.129-3.184.889-9.774 2.415-13.728 3.185-20.393-3.695-20.393-3.695.972 5.444 4.372 8.095 5.902 9.036-.406-.36-.619-.571-.607-.567z" transform="translate(0 9)"/><path fill="url(#u)" d="M30.332 96.794S18.904 83.898 15.714 69.456c-4.704-4.443-8.042-8.2-10.259-10.917 1.28 10.277 6.52 26.232 24.877 38.255z" transform="translate(0 9)"/><path fill="url(#v)" d="M20.799 85.082s-7.887-11.228-4.93-20.762c2.66-8.571-.565-3.472-2.441-1.64-1.895 1.851-2.869-5.464-2.821-6.307.003-.018.001-.026-.001-.027-.119-.025-3.754 17.526 10.193 28.736z" transform="translate(0 9)"/><path fill="url(#w)" d="M9.115 75.294S7.317 52.506 13 49.285c9.025-5.115.753-3.919-1.864-2.499-2.645 1.433-2.4-8-2.026-8.896.367-.883-9.315 8.918.005 37.404z" transform="translate(0 9)"/><path fill="#A40000" d="M48.601 17.239s-7.145 7.257-7.092 7.282c.054.026.205 9.315.438 11.948.856 1.011 3.524 7.588 1.482 6.128-2.086-1.49-.582-1.522-.4-.765.005.025.005.037 0 .037-.138.064-5.185-10.923 5.572-24.63z"/><path fill="url(#x)" d="M14.613 2.647S7.019 8.472 8.47 24.452c5.878-5.277 14.19-9.222 14.19-9.222-1.395-.878-7.794-5.997-8.047-12.583z" transform="translate(0 9)"/><path fill="url(#y)" d="M33.328 20.122l11.406 14.185c-3.291-13.93-.761-22.288 7.34-26.847 1.199-.676-16.925.243-18.746 12.662z" transform="translate(0 9)"/><path fill="url(#z)" d="M25.292 55.164C27.237 42.908 44.294 44.71 44.294 44.71c-.761.565-3.683.903-4.52 3.241-2.762 7.719-.128 24.581 17.078 31.653 1.815.748-34.434-6.328-31.56-24.44z" transform="translate(0 9)"/><path fill="url(#A)" d="M60.087 28.338c-.084-.015-.158-.013-.195.037-.21.281-1.021 1.239-2.95 2.81-3.583 2.915-5.093 2.177-7.762 2.774-1.215.271-2.37 1.087-3.148 1.741.315.509.609 1.057.871 1.582.702.836 1.173 1.248 1.241.945.331-1.493 9.336-6.714 9.999-7.211.47-.353 1.468-1.054 1.944-2.678z" transform="translate(0 9)"/><path fill="url(#B)" d="M49.09 46.865c.1-2.59-.081-8.881-2.774-11.611-2.057-2.085-2.54-4.474-2.816-7.201-22.363 8.353-25.556 19.272-23.32 18.917 17.886-2.835 22.914-3.182 28.91-.105z" transform="translate(0 9)"/><path fill="url(#C)" d="M1.411 62.171s1.554-20.192 11.661-27.582c7.935-5.805 1.773-3.696-1.291-3.456-3.231.256-4.954 2.221-4.331 1.498.027-.03.036-.047.031-.055-.106-.125-7.584 6.15-6.07 29.595z" transform="translate(0 9)"/><path fill="url(#D)" d="M.347 46.658s5.416-17.192 16.362-17.047c7.259.097 1.501-6.134-.695-7.081-2.291-.981-2.839-.943-3.374-.469-.802.71-8.004.436-12.293 24.597z" transform="translate(0 9)"/><path fill="url(#E)" d="M74.185 63.486c.823-.807.249-3.903-4.924-5.78-4.694-1.705-12.021 2.63-14.195 3.486 0 0 8.299-1.555 11.411-1.037 4.218.702 5.7 5.301 7.708 3.331z" transform="translate(0 9)"/><path fill="url(#F)" d="M8.342 57.822s-.899-16.902 6.676-24.121c5.947-5.67 1.069-3.255-1.444-2.724-2.65.562-3.865 2.377-3.426 1.71.019-.028.023-.043.019-.049-.103-.091-5.619 5.919-1.825 25.184z" transform="translate(0 9)"/><path fill="url(#G)" d="M2.508 52.453s3.201-16.621 12.293-21.801c7.138-4.069 1.823-2.901-.745-2.991-2.708-.093-4.324 1.375-3.738.834.025-.022.033-.037.03-.042-.076-.115-6.878 4.389-7.84 24z" transform="translate(0 9)"/><path fill="url(#H)" d="M13.303 59.275s-1.75-10.074 2.021-15.033c3.01-3.957.367-2.021-1.03-1.451-1.458.596-2.011 1.771-1.812 1.34.193-.421-6.488 4.756.821 15.144z" transform="translate(0 9)"/><path fill="url(#I)" d="M15.303 49.775s-1.75-10.074 2.021-15.033c3.01-3.957.367-2.021-1.03-1.451-1.458.596-2.011 1.771-1.812 1.34.193-.421-6.488 4.756.821 15.144z" transform="translate(0 9)"/><path fill="url(#J)" d="M4.725 36.003s4.087-8.375 9.52-10.024c4.336-1.315 1.35-1.296.014-1.622-1.396-.338-2.431.234-2.054.022.368-.207-7.33.049-7.48 11.624z" transform="translate(0 9)"/><path fill="url(#K)" d="M4.142 42.631s4.087-8.375 9.52-10.024c4.336-1.315 1.35-1.296.014-1.622-1.396-.338-2.431.234-2.054.022.367-.208-7.331.049-7.48 11.624z" transform="translate(0 9)"/><path fill="url(#L)" d="M7.109 40.803s7.209-14.774 16.794-17.684c7.65-2.32 2.382-2.287.024-2.86-2.462-.597-4.288.414-3.624.039.65-.367-12.93.085-13.194 20.505z" transform="translate(0 9)"/><path fill="url(#M)" d="M12.037 32.846s4.484-9.189 10.445-10.999c4.758-1.443 1.481-1.422.015-1.779-1.532-.371-2.667.257-2.254.024.404-.228-8.042.053-8.206 12.754z" transform="translate(0 9)"/><path fill="url(#N)" d="M13.499 36.092s4.087-8.375 9.52-10.024c4.336-1.315 1.35-1.296.014-1.622-1.396-.338-2.431.234-2.054.022.367-.208-7.331.049-7.48 11.624z" transform="translate(0 9)"/><path fill="url(#O)" d="M60.344 25.872c-.047-.873-.176-1.158-4.356-1.229.479.217 1.305.652 2.214 1.398 1.201.984 1.396 2.081 1.52 3.217.407-.774.705-1.841.622-3.386z" transform="translate(0 9)"/><path fill="url(#P)" d="M35.802 14.206l-3.625 5.833s-14.496-2.273-26.785 9.616c-1.016.982 8.038-21.023 30.41-15.449z" transform="translate(0 9)"/><path fill="url(#Q)" d="M22.784 24.646s3.863-7.172 8.872-9.339c-2.589.082-8.403 2.106-8.872 9.339z" transform="translate(0 9)"/><path fill="url(#R)" d="M7.92 31.646s4.087-8.375 9.52-10.024c4.336-1.315 1.35-1.296.014-1.622-1.396-.338-2.431.234-2.054.022.368-.207-7.331.049-7.48 11.624z" transform="translate(0 9)"/><path fill="url(#S)" d="M16.482 25.745s4.217-6.751 9.235-8.548c-2.527-.083-8.323 1.526-9.235 8.548z" transform="translate(0 9)"/><path fill="url(#T)" d="M23.712 14.214s-3.18 1.389-8.787-.942l4.999 2.513 3.788-1.571z" transform="translate(0 9)"/><path fill="url(#U)" d="M22.175 15.105s-4.238 1.642-12.394-.802l6.977 2.776c.863-.798 5.417-1.974 5.417-1.974z" transform="translate(0 9)"/><path fill="url(#V)" d="M25.268 13.759s-2.813.856-8.009-1.154l4.999 2.513c.528-.467 3.01-1.359 3.01-1.359z" transform="translate(0 9)"/><path fill="url(#W)" d="M16.496 16.993s-2.09 1.735-7.443 1.806l4.63.151 2.813-1.957z" transform="translate(0 9)"/><path fill="url(#X)" d="M11.411 25.871s7.153-9.318 13.044-11.428c-2.968-.097-11.975 3.186-13.044 11.428z" transform="translate(0 9)"/><path fill="url(#Y)" d="M82.199 40.76s.771 17.288-23.244 41.304c-2.669 2.668-17.16 16.244-16.65 20.317.179 1.439 38.021-5.805 39.894-61.621z" transform="translate(40 10)"/><path fill="url(#Z)" d="M35.64.096c28.926 2.222 34.528 23.021 34.53 21.748C70.243 1.624 42.726.089 35.64.096z" transform="translate(40 10)"/><path fill="url(#aa)" d="M44.449 8.003s20.053 4.099 25.709 25.354c.75 2.815-2.416-17.267-1.439-15.361.975 1.916-8.071-9.358-24.27-9.993z" transform="translate(40 10)"/><path fill="url(#ab)" d="M52.464 7.483s18.11 3.775 18.29 32.509c.127 20.338 3.141 7.635 6.131 3.064 2.578-3.948.816-8.76.754-8.748-.01.003-1.305-3.743-.432-2.156.039.07-1.216-1.034-1.207-1.035.201-.03-.697-20.652-23.536-23.634z" transform="translate(40 10)"/><path fill="url(#ac)" d="M72.857 11.376s6.505 16.945-.389 25.371c-2.25 2.75-2.502 16.839.247 15.545 2.756-1.296 2.157 7.481 1.796 8.48-.008.019-.01.028-.006.031.18.111 13.592-21.66-1.648-49.427z" transform="translate(40 10)"/><path fill="url(#ad)" d="M63.814 29.215s4.095 11.989-.193 20.56l3.244 7.245c2.379-5.844 5.408-18.203-3.051-27.805z" transform="translate(40 10)"/><path fill="url(#ae)" d="M71.016 27.789s2.832 19.03-7.387 36.208c.158 3.973-.539 7.569-1.496 10.532.445.586 1.041.987 1.827 1.057-.347.32-.692.62-1.026.904-.614.271-1.243.558-1.852.853-.13.303-.261.597-.389.879.68-.477 1.438-1.056 2.24-1.731 2.087-.922 3.965-1.638 3.961-1.642 0 0-.383.143-1.303.478-.619.225-1.16.301-1.632.259 7.892-7.192 18.706-23.275 7.057-47.797zm-11.907 50.59c-.902.529-1.558 1.025-1.698 1.408-.103.279.512.118 1.575-.479.055-.319.1-.632.123-.929z" transform="translate(40 10)"/><path fill="url(#af)" d="M58.412 48.065s8.057 22.932-17.693 44.432c-1.519 1.269 10.452.726 11.5.25 3.086-1.402 6.733-10.757 6.303-9.637-.427 1.119 11.957-16.536-.11-35.045z" transform="translate(40 10)"/><path fill="url(#ag)" d="M69.68 62.61s-4.86 29.744-38.461 32.137C18.062 95.685-.829 92.606.844 97.624c.519 1.556 2.992 8.043 8.636 9.548 15.275 4.075 55.915 2.741 60.2-44.562z" transform="translate(40 10)"/><path fill="url(#ah)" d="M67.657 19.119s-20.559 4.697-33.878-6.641c-12.187-10.377-6.141-1.643-4.488 2.665 1.698 4.418-7.853 1.042-9.289.332-1.431-.701 22.623 14.384 47.655 3.644z" transform="translate(14 76)"/><path fill="url(#ai)" d="M54.408 30.325s-24.525-4.82-32.29-21.438c-6.635-14.197-4.879-3.779-5.178.962-.314 4.877-7.191-1.783-8.11-2.942-.026-.028-.044-.047-.046-.042-.137.09 12.649 20.134 45.624 23.46z" transform="translate(14 76)"/><path fill="url(#aj)" d="M27.617 28.176S15.903 19.103 10.622 6.662C6.184 5.12.283 1.595.166.992c1.875 9.667 11.746 20.954 27.451 27.184z" transform="translate(14 76)"/></g></svg>
