<svg xmlns="http://www.w3.org/2000/svg" xmlns:xlink="http://www.w3.org/1999/xlink" viewBox="1 1 176 176"><defs><circle id="a" cx="96" cy="96" r="88"/></defs><clipPath id="b"><use width="100%" height="100%" overflow="visible" xlink:href="#a"/></clipPath><g transform="translate(-7 -7)" clip-path="url(#b)"><path fill="#db4437" d="M21.97 8v108h39.39L96 56h88V8z"/><linearGradient id="c" x1="29.337" x2="81.837" y1="75.021" y2="44.354" gradientUnits="userSpaceOnUse"><stop stop-color="#A52714" stop-opacity=".6" offset="0"/><stop stop-color="#A52714" stop-opacity="0" offset=".66"/></linearGradient><path fill="url(#c)" d="M21.97 8v108h39.39L96 56h88V8z"/></g><path fill="#3e2723" fill-opacity=".15" d="M62.31 115.65L22.48 47.34l-.58 1 39.54 67.8z" clip-path="url(#b)" transform="translate(-7 -7)"/><g transform="translate(-7 -7)" clip-path="url(#b)"><path fill="#0f9d58" d="M8 184h83.77l38.88-38.88V116H61.36L8 24.48z"/><linearGradient id="d" x1="110.87" x2="52.538" y1="164.5" y2="130.33" gradientUnits="userSpaceOnUse"><stop stop-color="#055524" stop-opacity=".4" offset="0"/><stop stop-color="#055524" stop-opacity="0" offset=".33"/></linearGradient><path fill="url(#d)" d="M8 184h83.77l38.88-38.88V116H61.36L8 24.48z"/></g><path fill="#263238" fill-opacity=".15" d="M129.84 117.33l-.83-.48L90.62 184h1.15l38.1-66.64z" clip-path="url(#b)" transform="translate(-7 -7)"/><g transform="translate(-7 -7)" clip-path="url(#b)"><defs><path id="e" d="M8 184h83.77l38.88-38.88V116H61.36L8 24.48z"/></defs><clipPath id="f"><use width="100%" height="100%" overflow="visible" xlink:href="#e"/></clipPath><g clip-path="url(#f)"><path fill="#ffcd40" d="M96 56l34.65 60-38.88 68H184V56z"/><linearGradient id="g" x1="121.86" x2="136.55" y1="49.804" y2="114.13" gradientUnits="userSpaceOnUse"><stop stop-color="#EA6100" stop-opacity=".3" offset="0"/><stop stop-color="#EA6100" stop-opacity="0" offset=".66"/></linearGradient><path fill="url(#g)" d="M96 56l34.65 60-38.88 68H184V56z"/></g></g><g transform="translate(-7 -7)" clip-path="url(#b)"><path fill="#ffcd40" d="M96 56l34.65 60-38.88 68H184V56z"/><path fill="url(#g)" d="M96 56l34.65 60-38.88 68H184V56z"/></g><g transform="translate(-7 -7)" clip-path="url(#b)"><defs><path id="h" d="M96 56l34.65 60-38.88 68H184V56z"/></defs><clipPath id="i"><use width="100%" height="100%" overflow="visible" xlink:href="#h"/></clipPath><g clip-path="url(#i)"><path fill="#db4437" d="M21.97 8v108h39.39L96 56h88V8z"/><path fill="url(#c)" d="M21.97 8v108h39.39L96 56h88V8z"/></g></g><radialGradient id="j" cx="668.18" cy="55.948" r="84.078" gradientUnits="userSpaceOnUse" gradientTransform="translate(-576)"><stop stop-color="#3E2723" stop-opacity=".2" offset="0"/><stop stop-color="#3E2723" stop-opacity="0" offset="1"/></radialGradient><path fill="url(#j)" d="M96 56v20.95L174.4 56z" clip-path="url(#b)" transform="translate(-7 -7)"/><g transform="translate(-7 -7)" clip-path="url(#b)"><defs><path id="k" d="M21.97 8v40.34L61.36 116 96 56h88V8z"/></defs><clipPath id="l"><use width="100%" height="100%" overflow="visible" xlink:href="#k"/></clipPath><g clip-path="url(#l)"><path fill="#0f9d58" d="M8 184h83.77l38.88-38.88V116H61.36L8 24.48z"/><path fill="url(#d)" d="M8 184h83.77l38.88-38.88V116H61.36L8 24.48z"/></g></g><radialGradient id="m" cx="597.88" cy="48.52" r="78.044" gradientUnits="userSpaceOnUse" gradientTransform="translate(-576)"><stop stop-color="#3E2723" stop-opacity=".2" offset="0"/><stop stop-color="#3E2723" stop-opacity="0" offset="1"/></radialGradient><path fill="url(#m)" d="M21.97 48.45l57.25 57.24L61.36 116z" clip-path="url(#b)" transform="translate(-7 -7)"/><radialGradient id="n" cx="671.84" cy="96.138" r="87.87" gradientUnits="userSpaceOnUse" gradientTransform="translate(-576)"><stop stop-color="#263238" stop-opacity=".2" offset="0"/><stop stop-color="#263238" stop-opacity="0" offset="1"/></radialGradient><path fill="url(#n)" d="M91.83 183.89l20.96-78.2L130.65 116z" clip-path="url(#b)" transform="translate(-7 -7)"/><g transform="translate(-7 -7)" clip-path="url(#b)"><circle cx="96" cy="96" r="40" fill="#f1f1f1"/><circle cx="96" cy="96" r="32" fill="#4285f4"/></g><g transform="translate(-7 -7)" clip-path="url(#b)"><path fill="#3e2723" fill-opacity=".2" d="M96 55c-22.09 0-40 17.91-40 40v1c0-22.09 17.91-40 40-40h88v-1H96z"/><path fill="#fff" fill-opacity=".1" d="M130.6 116c-6.92 11.94-19.81 20-34.6 20-14.8 0-27.69-8.06-34.61-20h-.04L8 24.48v1L61.36 117h.04c6.92 11.94 19.81 20 34.61 20 14.79 0 27.68-8.05 34.6-20h.05v-1h-.06z"/><path fill="#3e2723" d="M97 56c-.17 0-.33.02-.5.03C118.36 56.3 136 74.08 136 96s-17.64 39.7-39.5 39.97c.17 0 .33.03.5.03 22.09 0 40-17.91 40-40s-17.91-40-40-40z" opacity=".1"/><path fill="#fff" fill-opacity=".2" d="M131 117.33c3.4-5.88 5.37-12.68 5.37-19.96 0-4.22-.66-8.28-1.87-12.09.95 3.42 1.5 7.01 1.5 10.73 0 7.28-1.97 14.08-5.37 19.96l.02.04-38.88 68h1.16l38.09-66.64-.02-.04z"/></g><g transform="translate(-7 -7)" clip-path="url(#b)"><path fill="#fff" fill-opacity=".2" d="M96 9c48.43 0 87.72 39.13 87.99 87.5 0-.17.01-.33.01-.5 0-48.6-39.4-88-88-88S8 47.4 8 96c0 .17.01.33.01.5C8.28 48.13 47.57 9 96 9z"/><path fill="#3e2723" fill-opacity=".15" d="M96 183c48.43 0 87.72-39.13 87.99-87.5 0 .17.01.33.01.5 0 48.6-39.4 88-88 88S8 144.6 8 96c0-.17.01-.33.01-.5C8.28 143.87 47.57 183 96 183z"/></g><radialGradient id="o" cx="34.286" cy="32.014" r="176.75" gradientUnits="userSpaceOnUse" gradientTransform="translate(-7 -7)"><stop stop-color="#fff" stop-opacity=".1" offset="0"/><stop stop-color="#fff" stop-opacity="0" offset="1"/></radialGradient><circle cx="89" cy="89" r="88" fill="url(#o)"/></svg>
