<?xml version="1.0" encoding="UTF-8" standalone="no"?>
<svg width="36px" height="36px" viewBox="0 0 36 36" version="1.1" xmlns="http://www.w3.org/2000/svg" xmlns:xlink="http://www.w3.org/1999/xlink">
    <!-- Generator: Sketch 3.7 (28169) - http://www.bohemiancoding.com/sketch -->
    <title>Fill 10</title>
    <desc>Created with Sketch.</desc>
    <defs></defs>
    <g id="Page-1" stroke="none" stroke-width="1" fill="none" fill-rule="evenodd">
        <path d="M26.701,22.35 L35.701,31.35 C35.84,31.51 35.91,31.69 35.91,31.89 C35.91,32.09 35.84,32.27 35.701,32.43 L32.43,35.7 C32.269,35.84 32.09,35.91 31.89,35.91 C31.69,35.91 31.51,35.84 31.35,35.7 L22.35,26.7 C19.97,28.26 17.36,29.04 14.52,29.04 C10.519,29.04 7.099,27.62 4.261,24.78 C1.42,21.94 0,18.52 0,14.52 C0,10.52 1.42,7.1 4.261,4.26 C7.099,1.42 10.519,0 14.52,0 C18.52,0 21.94,1.42 24.781,4.26 C27.62,7.1 29.041,10.52 29.041,14.52 C29.041,17.36 28.261,19.97 26.701,22.35 C26.701,22.35 28.261,19.97 26.701,22.35 L26.701,22.35 L26.701,22.35 Z M7.5,7.53 C5.56,9.47 4.59,11.8 4.59,14.52 C4.59,17.24 5.56,19.57 7.5,21.51 C9.44,23.45 11.78,24.42 14.52,24.42 C17.26,24.42 19.595,23.456 21.525,21.525 C23.455,19.595 24.42,17.26 24.42,14.52 C24.42,11.78 23.455,9.445 21.525,7.515 C19.595,5.585 17.26,4.62 14.52,4.62 C11.78,4.62 9.44,5.59 7.5,7.53 L7.5,7.53 Z" id="Fill-10" fill="#4990E2"></path>
    </g>
</svg>