<svg viewBox="0 0 65 66" xmlns="http://www.w3.org/2000/svg"><g stroke="#000" fill="none" fill-rule="evenodd"><path stroke-width=".5" fill="#019833" d="M32.22 2.8L3.02 32 32.1 61.06l29.2-29.2z"/><path stroke-width=".5" fill="#66FE98" d="M32.1 2.93V.38L.34 32.12h2.68L32.1 2.92z"/><path stroke-width=".5" fill="#45FE02" d="M32.03 2.93V.38l31.75 31.74H61.1L32.03 2.92z"/><path stroke-width=".5" fill="#017D17" d="M32.1 61.23v2.55L.34 32.04h2.68z"/><path stroke-width="3.42" d="M6.23 3.6H26.7l1.26 1.25v3.83l-1 1.2h-2.23v19L44 9.88h-3.18l-1.12-1.2V4.64l1.03-.95h20.74l1.03 1v3.8l-46.9 48h-5.3l-1.55-.9V9.7h-2.6l-.95-.9V4.72L6.23 3.6z"/><path stroke-width=".5" fill="#005D04" d="M32.03 61.23v2.55l31.75-31.74H61.1l-29.07 29.2z"/><path stroke-width="1.02" d="M32 .15L.15 32 31.9 63.72l31.86-31.85z"/><path stroke-width=".5" fill="#FEFEFE" d="M26.93 5.55l1.15-.6-1.18-1.2H6.24L5.2 4.8v3.97l1.16 1.16.55-1.16-.7-.73v-2.8l.6-.48h19.7z"/><path stroke-width=".5" d="M41.53 4.64l-.73.72v2.68l.64.64h3.37v2.58L22.5 33.88V8.7h3.7l.76-.75v-2.7l-.7-.55H6.73l-.64.64V8.1l.6.65h3.4V55.1l.6.64h3.8L61.4 7.5V5.35l-.73-.72z"/><path stroke-width=".5" fill="#FEFEFE" d="M10.1 8.68V55.1l.6.7-.46.9-1.34-1.34V9.88z"/><path stroke-width=".5" fill="gray" d="M6.77 8.68l-.34 1.1h2.5l1.37-1.1z"/><path d="M41.04 9.93l.55-1.13-.8-.73v-2.5l.9-.9h19l.7.97 1-.73-1.1-1H40.9l-1.02 1v4l1.06 1 .02.1zM24.48 29.05l-2 4.83 22.46-22.5V8.7L24.48 29.06z" stroke-width=".5" fill="#FEFEFE"/><path stroke-width=".5" fill="gray" d="M26.88 5.4l1-.64v3.92l-1.15 1.14h-2.2V29.1l-2.04 4.77V8.67h3.7l.6-.55v-2.7z"/><path stroke-width=".5" fill="#CCC" d="M41.53 4.64l-.73.72v2.68l.64.64h3.37v2.58L22.5 33.88V8.7h3.7l.76-.75v-2.7l-.7-.55H6.73l-.64.64V8.1l.6.65h3.4V55.1l.6.64h3.8L61.4 7.5V5.35l-.73-.72z"/><path stroke-width=".5" fill="gray" d="M61.48 5.43l1.04-.6V8.6L15.4 56.7h-5l.47-.95h3.83l46.72-48.2zm-16.64 3.3l-1.05 1.1H41l.64-1.1h3.16z"/><g fill="#CCC"><path d="M33.6 35.87c-.03 0-.06.03-.1.05l-.9.78c-.02.02-.04.05-.05.1l-.9 2.52c-.04.07-.02.16.04.22l.6.7c0 .03.1.05.1.05h2.8l.1-.1.7-.8.04-.1.75-2.7c.04-.1 0-.2-.04-.2l-.6-.6c-.04-.1-.1-.1-.15-.1h-2.6zM28.5 43c-.1.03-.16.1-.17.16l-.35 1.38c-.02.06 0 .13.04.18.04.05.1.08.16.08h1.65l-4.08 11.63c-.02.07 0 .14.03.2.04.05.1.08.17.08h5.93c.1 0 .17 0 .2-.1l.4-1.2s0-.1-.04-.1-.1-.1-.17-.1h-1.34l4.03-11.7c.02-.06 0-.13-.02-.2-.04-.04-.1-.1-.17-.1H28.5zm18.87.05c-.05 0-.1.04-.12.07l-1.23 1.4h-1.97l-1.3-1.36c-.04-.04-.1-.06-.15-.06h-4.7c-.08 0-.16.05-.2.13l-.42 1.3c-.02.05 0 .12.03.18.1.1.1.1.2.1h1.3l-3.9 11.5v.2c.1.1.1.1.2.1h5c.1 0 .2 0 .2-.1l.4-1.1c.1 0 0-.1 0-.2l-.1-.1h-.85l2.5-7.8h4.5l-2.83 9.1c-.05.1 0 .2 0 .2.05.1.1.1.2.1h4.8c.1 0 .16 0 .2-.1l.4-1c.04 0 0-.1 0-.2 0 0-.1-.02-.16-.1h-.86l2.5-7.9h4.3l-2.86 9.1c0 .07 0 .14.04.2.03.05.1.08.16.08h5.3c.1 0 .15-.03.2-.1l.4-1.1c0-.08 0-.15-.04-.2-.05-.06-.1-.1-.2-.1h-1.1l3.2-10.34c0-.07 0-.14-.02-.2l-1-1.32c-.03-.04-.1-.1-.16-.06h-3.8s-.1.05-.1.1L54 44.6h-2.1l-1.24-1.35c-.04-.04-.1-.07-.16-.07h-3.1z" stroke-width="1.37"/><path d="M33.65 36.08l-.9.78-.9 2.53.68.6h2.8l.72-.8.78-2.7-.6-.6h-2.58zm-5.12 7.14l-.35 1.37h1.94l-4.17 11.9h5.93l.4-1.3h-1.64l4.13-12.1h-6.24zm18.88.04l-1.2 1.46H44l-1.4-1.42h-4.7l-.42 1.3h1.54l-4 11.77h5l.38-1.12h-1.16L41.86 47h4.95l-2.9 9.37h4.8l.5-1.03H48l2.66-8.38h4.73l-3 9.4h5.3l.4-1.1h-1.3L60 44.63l-1-1.33h-3.7l-1.27 1.38h-2.27l-1.3-1.42H47.4z" stroke-width=".5"/></g></g></svg>
