<svg viewBox="0 0 64 64" xmlns="http://www.w3.org/2000/svg"><defs><radialGradient cy="32.19%" fx="50%" fy="32.19%" id="a"><stop stop-color="#BAB8DB" offset="0%"/><stop stop-color="#5955A9" stop-opacity=".99" offset="100%"/></radialGradient><radialGradient cx="58.46%" cy="35.93%" fx="58.46%" fy="35.93%" r="50.18%" id="b"><stop stop-color="#6376E6" offset="0%"/><stop stop-color="#222989" offset="50.1%"/><stop stop-color="#00003D" offset="100%"/></radialGradient><radialGradient cx="59.86%" cy="61.23%" fx="59.86%" fy="61.23%" r="51.46%" id="c"><stop stop-color="#2B2B2B" offset="0%"/><stop stop-color="#828383" offset="50%"/><stop stop-color="#DADBDB" offset="100%"/></radialGradient><radialGradient cx="58.72%" cy="55.77%" fx="58.72%" fy="55.77%" r="44.87%" id="d"><stop stop-color="#2B2B2B" offset="0%"/><stop stop-color="#828383" offset="50%"/><stop stop-color="#DADBDB" offset="100%"/></radialGradient><radialGradient cx="80.24%" cy="20.63%" fx="80.24%" fy="20.63%" r="50.4%" id="e"><stop stop-color="#282828" offset="0%"/><stop stop-color="gray" offset="39.3%"/><stop stop-color="#D9D9D9" offset="100%"/></radialGradient></defs><g fill="none" fill-rule="evenodd"><path d="M59.5 30.15c0 16.6-13.3 30.07-29.7 30.07S.1 46.76.1 30.15C.1 13.55 13.4.1 29.8.1s29.7 13.45 29.7 30.05z" fill="url(#a)" transform="translate(2 2)"/><path d="M17.15 51.84s2.65.77 6.16 1.2c1.45.2 6.86.8 11 .8 0 0 5.08 0 7.87-.4 2.92-.42 4.58-.95 5.5-2 .02-.26.44-1.08-.7-1.88-2.9-2.03-6.65-2.58-13.94-4.32-8.07-2.03-10.48-3.97-11.68-5.38-1.14-1.4.22-4.34 6.7-5.78 3.3-.8 15.55-.95 15.55-.95-3.52-2.8-10.12-7.8-11.47-8.86-1.18-.94-3.1-2.37-3.3-3.65-.27-1.25 1.7-1.85 2.73-1.92 3.34-.23 7.9.16 11.95.97 2.06.4 2.4.35 2.4.35 2.9.14 5.18-1.4 5.06-4.6-.02-3.25-3.27-5.86-6.86-5.97-3.4-.1-11.74.48-11.74.48 9.72 2 11.3 2.52 11.82 3.7.3.7-.5 1.37-3.18 1.24-2.92-.15-8.9-.85-8.9-.85-5.68-.88-9.64-1.7-11.37.55-1.13 1.48.16 3.28.67 4.34 2.25 3.97 6.16 6.67 8.63 8.58.94.72 3.78 2.3 3.78 2.3-8.82-2.4-15.87-1.05-20.34 1.3-5.14 3.05-4.26 8.2 3.9 13 4.8 2.84 7.2 4.2 15.1 5.17 4.6.74 5.28 1.04 5.25 1.42-.04.55-5.45.75-6.93.85-3.78.27-13.56.34-13.6.34z" fill="#FFF"/><path d="M37.14 52.93s-.94-.52-2.1-1.44c-1.03-.8-1.7-1.56-1.72-1.56l.45-.6.02-.03v.04s.7.8 1.72 1.6c1 .78 2.1 1.34 2.1 1.34h.02l-.5.64zm-2.08-1.48c1.07.84 1.95 1.34 2.1 1.42l.4-.55c-.17-.1-1.15-.62-2.06-1.32-.94-.74-1.6-1.45-1.7-1.6l-.42.53c.1.12.76.8 1.68 1.52z" fill="#4D4D4D"/><path d="M35.13 50.7s6.7-7.2 13.25-15.12l.28.1s13.6-14.93 10.27-16.13c0 0-1.67-3.3-14.7 12.56l-.02.26c-6 6.95-12.7 15.42-12.7 15.42-5.14 7.43-8.2 12.93-7.95 13.46.35.72 11.6-10.46 11.6-10.53z" stroke="#000030" stroke-width=".5" fill="url(#b)" transform="translate(2 2)"/><path d="M31.3 47.9c1.46 1.5 3.84 3.03 3.84 3.03l.47-.6c-1.6-.84-3.85-3-3.85-3l-.45.58z" stroke="#606060" stroke-width=".5" fill="url(#c)" transform="translate(2 2)"/><path d="M43.95 32.3c2.58 1.66 4.6 3.65 4.6 3.65l.35-.4c-1.38-1.46-4.6-3.67-4.6-3.67l-.35.43z" stroke="#606060" stroke-width=".5" fill="url(#d)" transform="translate(2 2)"/><path d="M58.12 19.13c1.36.1 1.6 1.3 1.6 1.3-6.22 6.47-15.3 15.87-15.3 15.87l-.45-.4c8-9.6 14.14-16.77 14.14-16.77" stroke="#4A4A4A" stroke-width=".5" fill="url(#e)" transform="translate(2 2)"/></g></svg>
