<svg viewBox="0 0 64 64" xmlns="http://www.w3.org/2000/svg"><defs><linearGradient x1="0%" y1="50%" x2="99.8%" y2="50%" id="a"><stop stop-color="#F97A12" offset="26%"/><stop stop-color="#B07B58" offset="46%"/><stop stop-color="#577BAE" offset="72%"/><stop stop-color="#1E7CE5" offset="91%"/><stop stop-color="#087CFA" offset="100%"/></linearGradient><linearGradient x1=".34%" y1="34.54%" x2="121.18%" y2="77.62%" id="b"><stop stop-color="#F97A12" offset="0%"/><stop stop-color="#CB7A3E" offset="7%"/><stop stop-color="#9E7B6A" offset="15%"/><stop stop-color="#757B91" offset="24%"/><stop stop-color="#537BB1" offset="33%"/><stop stop-color="#387CCC" offset="43%"/><stop stop-color="#237CE0" offset="54%"/><stop stop-color="#147CEF" offset="66%"/><stop stop-color="#0B7CF7" offset="79%"/><stop stop-color="#087CFA" offset="100%"/></linearGradient><linearGradient x1="78.17%" y1="97.75%" x2="30.11%" y2="-6.62%" id="c"><stop stop-color="#FE315D" offset="0%"/><stop stop-color="#CB417E" offset="8%"/><stop stop-color="#9E4E9B" offset="16%"/><stop stop-color="#755BB4" offset="25%"/><stop stop-color="#5365CA" offset="34%"/><stop stop-color="#386DDB" offset="44%"/><stop stop-color="#2374E9" offset="54%"/><stop stop-color="#1478F3" offset="66%"/><stop stop-color="#0B7BF8" offset="79%"/><stop stop-color="#087CFA" offset="100%"/></linearGradient><linearGradient x1="20%" y1="24.09%" x2="103.42%" y2="132.68%" id="d"><stop stop-color="#FE315D" offset="0%"/><stop stop-color="#F63462" offset="4%"/><stop stop-color="#DF3A71" offset="10%"/><stop stop-color="#C24383" offset="17%"/><stop stop-color="#AD4A91" offset="29%"/><stop stop-color="#755BB4" offset="55%"/><stop stop-color="#1D76ED" offset="92%"/><stop stop-color="#087CFA" offset="100%"/></linearGradient></defs><g fill="none" fill-rule="evenodd"><path fill="url(#a)" d="M16.2 49.9L.7 37.7l7.7-14.3L30.5 32"/><path fill="url(#b)" d="M64 17.1l-1.2 37L38.2 64l-14.8-9.6L45 32l-9.4-20.8L44.1 1"/><path fill="url(#c)" d="M64 17.1l-19.5 23-8.9-28.9L44.1 1"/><path fill="url(#d)" d="M30.8 53.1L5.2 62.4 9.3 48l5.3-17.8L0 25.3 9.3 0l20 2.4L49.1 25"/><path fill="#000" d="M12 12h40v40H12z"/><path d="M15.8 44.5h15V47h-15zm10.7-24.3v-3h-8.2v3h2.3v10.5h-2.3v3.1h8.2v-3.1h-2.3V20.2M34.5 34c-1.14.05-2.28-.2-3.3-.7-.84-.46-1.58-1.07-2.2-1.8l2.3-2.6c.42.46.9.86 1.4 1.2.48.28 1.04.42 1.6.4.62.05 1.22-.22 1.6-.7.46-.6.68-1.35.6-2.1V17h3.7v10.8c.04.88-.1 1.77-.4 2.6-.26.84-.75 1.6-1.4 2.2-1.13.84-2.5 1.33-3.9 1.4" fill="#FFF"/></g></svg>
