<?xml version="1.0" encoding="UTF-8" standalone="no"?>
<svg width="417px" height="256px" viewBox="0 0 417 256" version="1.1" xmlns="http://www.w3.org/2000/svg" xmlns:xlink="http://www.w3.org/1999/xlink">
    <!-- Generator: Sketch 3.7 (28169) - http://www.bohemiancoding.com/sketch -->
    <title>SourcegraphLiveAsset</title>
    <desc>Created with Sketch.</desc>
    <defs>
        <radialGradient cx="49.999999%" cy="49.9999793%" fx="49.999999%" fy="49.9999793%" r="50%" id="radialGradient-1">
            <stop stop-color="#000000" offset="0%"></stop>
            <stop stop-color="#000000" stop-opacity="0" offset="100%"></stop>
        </radialGradient>
        <radialGradient cx="49.9999993%" cy="32.1929046%" fx="49.9999993%" fy="32.1929046%" r="50%" id="radialGradient-2">
            <stop stop-color="#BAB8DB" offset="0%"></stop>
            <stop stop-color="#5955A9" stop-opacity="0.99159664" offset="100%"></stop>
        </radialGradient>
        <radialGradient cx="49.9999967%" cy="50%" fx="49.9999967%" fy="50%" r="50%" id="radialGradient-3">
            <stop stop-color="#B6B3D8" offset="0%"></stop>
            <stop stop-color="#B6B3D8" stop-opacity="0" offset="100%"></stop>
        </radialGradient>
        <radialGradient cx="53.8961005%" cy="56.7895866%" fx="53.8961005%" fy="56.7895866%" r="29.1102507%" id="radialGradient-4">
            <stop stop-color="#000000" offset="0%"></stop>
            <stop stop-color="#000000" stop-opacity="0.49803922" offset="5.58035714%"></stop>
            <stop stop-color="#000000" stop-opacity="0" offset="100%"></stop>
        </radialGradient>
        <radialGradient cx="58.4656%" cy="35.9305828%" fx="58.4656%" fy="35.9305828%" r="50.1750201%" id="radialGradient-5">
            <stop stop-color="#6376E6" offset="0%"></stop>
            <stop stop-color="#222989" offset="50.094414%"></stop>
            <stop stop-color="#00003D" offset="100%"></stop>
        </radialGradient>
        <radialGradient cx="59.8666251%" cy="61.2180455%" fx="59.8666251%" fy="61.2180455%" r="51.4554617%" id="radialGradient-6">
            <stop stop-color="#2B2B2B" offset="0%"></stop>
            <stop stop-color="#828383" offset="50%"></stop>
            <stop stop-color="#DADBDB" offset="100%"></stop>
        </radialGradient>
        <radialGradient cx="58.7208893%" cy="55.7645526%" fx="58.7208893%" fy="55.7645526%" r="44.8739524%" id="radialGradient-7">
            <stop stop-color="#2B2B2B" offset="0%"></stop>
            <stop stop-color="#828383" offset="50%"></stop>
            <stop stop-color="#DADBDB" offset="100%"></stop>
        </radialGradient>
        <radialGradient cx="80.2368051%" cy="20.6274233%" fx="80.2368051%" fy="20.6274233%" r="50.3995593%" id="radialGradient-8">
            <stop stop-color="#282828" offset="0%"></stop>
            <stop stop-color="#808080" offset="39.253417%"></stop>
            <stop stop-color="#D9D9D9" offset="100%"></stop>
        </radialGradient>
    </defs>
    <g id="Page-1" stroke="none" stroke-width="1" fill="none" fill-rule="evenodd">
        <g id="SourcegraphLiveAsset">
            <g id="Page-1">
                <g id="SourcegraphLiveAsset">
                    <path d="M303.121532,256 C244.503829,256 196.988125,248.622916 197.000002,239.524027 C196.988125,230.425137 244.503829,223.048053 303.121532,223.048053 C361.739235,223.048053 409.254942,230.425137 409.243066,239.524027 C409.254942,248.622916 361.739235,256 303.121532,256 L303.121532,256 Z" id="path4912" fill="url(#radialGradient-1)"></path>
                    <g id="EmacsLogo" transform="translate(179.000000, 0.000000)">
                        <path d="M118.288507,238.526737 C53.1848864,238.526737 0.40797038,185.210647 0.40797038,119.44192 C0.40797038,53.6731917 53.1848864,0.357105286 118.288507,0.357105286 C183.392128,0.357105286 236.169044,53.6731917 236.169044,119.44192 C236.169044,185.210647 183.392128,238.526737 118.288507,238.526737 L118.288507,238.526737 Z" id="path4864" fill="url(#radialGradient-2)"></path>
                        <path d="M176.453416,178.795827 C176.462047,198.080767 151.45081,213.717162 120.594899,213.717162 C89.7389963,213.717162 64.7277592,198.080767 64.7363896,178.795827 C64.7277592,159.510888 89.7389963,143.874493 120.594899,143.874493 C151.45081,143.874493 176.462047,159.510888 176.453416,178.795827 L176.453416,178.795827 L176.453416,178.795827 L176.453416,178.795827 Z" id="path4946" fill="url(#radialGradient-3)"></path>
                        <path d="M60.146167,197.415328 C60.146167,197.415328 70.6295916,200.459328 84.5842664,202.199504 C90.2355637,202.904233 111.737707,205.367407 128.223728,205.302758 C128.223728,205.302758 148.302272,205.325549 159.385535,203.751134 C170.982375,202.103761 177.552483,200.001367 181.208956,195.805797 C181.304205,194.805431 182.973824,191.544565 178.466044,188.399936 C166.941423,180.360354 152.042662,178.159727 123.103623,171.287115 C91.1026252,163.241479 81.5391638,155.537132 76.7614852,149.961452 C72.2319071,144.373411 77.6117346,132.768117 103.397721,127.074977 C116.453427,123.897887 165.078636,123.314122 165.078636,123.314122 C151.128357,112.238409 124.93824,92.4091484 119.584861,88.1922096 C114.889701,84.4937631 107.323634,78.8181034 106.510317,73.7462144 C105.413155,68.8089675 113.184741,66.4317754 117.299105,66.1574862 C130.556517,65.2431819 148.659734,66.7975011 164.751485,69.997566 C172.840097,71.6060993 174.260243,71.3690224 174.260243,71.3690224 C185.780478,71.9176059 194.740657,65.8832019 194.283505,53.1743688 C194.192074,40.2826849 181.302693,29.9454363 167.037245,29.4938977 C153.603393,29.0686812 120.49917,31.4139357 120.49917,31.4139357 C159.082801,39.3683811 165.390352,41.3983069 167.402966,46.0428002 C168.59156,48.7857129 165.417494,51.5128739 154.785569,50.9800396 C143.210732,50.3999476 119.493434,47.5971169 119.493434,47.5971169 C96.9101274,44.1227617 81.1840973,40.8312669 74.3268154,49.7914466 C69.8468703,55.6452479 74.9668304,62.7745634 76.9782968,66.980359 C85.9384814,82.6149627 101.43246,93.3414874 111.264701,100.901043 C114.964181,103.745397 126.259285,110.04408 126.259285,110.04408 C91.1500126,100.443886 63.1723116,105.83828 45.4348121,115.16418 C25.0458324,127.232993 28.5335634,147.59923 60.886551,166.639502 C79.9955038,177.885438 89.5099159,183.287911 120.797223,187.129093 C139.085104,190.045108 141.810137,191.238258 141.671149,192.76045 C141.475461,194.903554 120.02562,195.715698 114.129795,196.122309 C99.1307503,197.156723 60.3401182,197.415328 60.146167,197.415328 L60.146167,197.415328 L60.146167,197.415328 Z" id="path4839" fill="#FFFFFF"></path>
                        <g id="g4796">
                            <g id="g4800"></g>
                        </g>
                        <g id="g4820" transform="translate(124.257310, 187.134503)" fill="#4D4D4D">
                            <path d="M15.2082963,14.5929981 C15.2048031,14.5910019 11.4925536,12.5410058 6.82267446,8.90361014 L6.82267446,8.90361014 C2.78955166,5.76723587 0.0668693957,2.80851462 0.0638752437,2.80552047 L0.0638752437,2.80552047 L0.00299415205,2.7391501 L1.82244055,0.40920078 L1.90078752,0.306900585 L1.98512281,0.405208577 C1.99360624,0.41019883 4.67985965,3.5465731 8.83424561,6.78275244 L8.83424561,6.78275244 C12.7830331,9.85525146 17.1150721,12.0654347 17.1240546,12.0699259 L17.1240546,12.0699259 L17.2383314,12.1283119 L15.2866433,14.6364133 L15.2082963,14.5929981 L15.2082963,14.5929981 L15.2082963,14.5929981 L15.2082963,14.5929981 Z M6.9534191,8.73593762 C11.2175906,12.0574503 14.6728421,14.0475634 15.2317505,14.3624483 L15.2317505,14.3624483 L16.9144639,12.1996725 C16.2043509,11.8288967 12.2969825,9.74496686 8.704,6.9494269 L8.704,6.9494269 C4.95931384,4.03262378 2.39781676,1.19416764 1.91026901,0.639251462 L1.91026901,0.639251462 L0.281450292,2.72717349 C0.705122807,3.17879142 3.28059259,5.88101365 6.9534191,8.73593762 L6.9534191,8.73593762 L6.9534191,8.73593762 L6.9534191,8.73593762 Z" id="path4824"></path>
                        </g>
                        <g id="g4774"></g>
                        <rect id="rect3282" fill="url(#radialGradient-4)" x="64.8180522" y="55.9172816" width="189.078062" height="194.563902"></rect>
                        <path d="M139.437336,200.822394 C139.437336,200.822394 165.998829,172.326295 191.997744,140.947557 L193.133386,141.298207 C193.133386,141.298207 247.052366,82.2071442 233.86355,77.4229683 C233.86355,77.4229683 227.269145,64.3634551 175.548302,127.204279 L175.448841,128.147302 C151.58551,155.667851 125.070691,189.222809 125.070691,189.222809 C104.590282,218.663393 92.4300376,240.423832 93.4357733,242.52673 C94.8028632,245.385197 139.516696,201.108759 139.437336,200.822394 L139.437336,200.822394 L139.437336,200.822394 Z" id="path3254" stroke="#000030" stroke-width="0.5" fill="url(#radialGradient-5)"></path>
                        <path d="M124.202103,189.771388 C130.007933,195.71437 139.470981,201.748774 139.470981,201.748774 L141.3453,199.371582 C134.923802,196.015587 125.984996,187.485632 125.984996,187.485632 L124.202103,189.771388 L124.202103,189.771388 L124.202103,189.771388 Z" id="path2430" stroke="#606060" stroke-width="0.5" fill="url(#radialGradient-6)"></path>
                        <path d="M174.420255,127.964434 C184.66046,134.501716 192.706335,142.410445 192.706335,142.410445 L194.077787,140.81041 C188.616309,135.031507 175.770473,126.288662 175.770473,126.288662 L174.420255,127.964434 L174.420255,127.964434 L174.420255,127.964434 Z" id="path3236" stroke="#606060" stroke-width="0.5" fill="url(#radialGradient-7)"></path>
                        <path d="M230.672802,75.7576808 C236.067196,76.2148279 236.981505,80.969212 236.981505,80.969212 C212.386722,106.569726 176.363146,143.781901 176.363146,143.781901 L174.534537,142.227582 C206.260887,104.192539 230.672802,75.7576808 230.672802,75.7576808" id="path3240" stroke="#4A4A4A" stroke-width="0.60000002" fill="url(#radialGradient-8)"></path>
                    </g>
                    <g id="SublimeText">
                        <path d="M0,0 L256,0 L256,29.19 C254.88,26.51 253.6,23.62 251,22.05 C248.58,20.39 245.54,20.42 242.74,20.15 C242.77,16.69 242.93,13.01 241.18,9.88 C239.07,5.49 234.63,2.79 230.13,1.37 C227.11,1.02 224.07,1.25 221.04,1.21 C157.34,1.2 93.65,1.23 29.95,1.2 C24.91,1.28 20.09,4.14 16.76,7.81 C13.29,11.63 13.19,17.03 13.38,21.89 C7.34,22.32 2.23,26.65 0,32.15 L0,0 L0,0 L0,0 Z" id="Shape"></path>
                        <path d="M16.76,7.81 C20.09,4.14 24.91,1.28 29.95,1.2 C93.65,1.23 157.34,1.2 221.04,1.21 C224.07,1.25 227.11,1.02 230.13,1.37 C234.63,2.79 239.07,5.49 241.18,9.88 C242.93,13.01 242.77,16.69 242.74,20.15 C242.94,62.43 242.87,104.71 242.88,146.99 C242.75,169.06 243.17,191.14 242.55,213.19 C242.38,205.15 242.51,197.11 242.05,189.08 C240.25,195.26 234.74,200.52 228.03,200.38 C162.03,200.42 96.02,200.37 30.02,200.41 C22.72,200.68 16.4,195.33 13.96,188.69 C13.65,196.82 13.67,204.96 13.68,213.09 C12.95,207.09 13.5,201.03 13.3,195.01 C13.3,137.3 13.23,79.59 13.38,21.89 C13.19,17.03 13.29,11.63 16.76,7.81 L16.76,7.81 L16.76,7.81 Z" id="Shape" fill="#4C4C4C"></path>
                        <path d="M242.74,20.15 C245.54,20.42 248.58,20.39 251,22.05 C253.6,23.62 254.88,26.51 256,29.19 L256,231.5 C255.08,236.54 253.24,241.88 248.98,245.07 C245.55,247.65 241,247 236.99,247.12 C165.65,247.06 94.31,247.11 22.97,247.1 C12.36,247.3 3.89,238.74 0,229.53 L0,32.15 C2.23,26.65 7.34,22.32 13.38,21.89 C13.23,79.59 13.3,137.3 13.3,195.01 C13.5,201.03 12.95,207.09 13.68,213.09 C15.28,220.46 22.35,226.31 29.94,226.19 C96.01,226.16 162.08,226.21 228.15,226.17 C235.3,226.11 241.45,220.1 242.55,213.19 C243.17,191.14 242.75,169.06 242.88,146.99 C242.87,104.71 242.94,62.43 242.74,20.15 L242.74,20.15 L242.74,20.15 Z" id="Shape" fill="#D9D9D9"></path>
                        <path d="M99.48,58.5 C108.68,48.05 123.66,44.42 137.08,46.34 C147.58,47.72 157.48,52.69 165.1,60 C160.91,65.14 156.75,70.28 152.63,75.47 C144.95,69.31 134.81,65.1 124.88,67.5 C120.41,68.34 116.36,72.31 116.74,77.08 C117.17,81.34 121.05,83.9 124.62,85.5 C132.74,89.15 141.13,92.16 149.3,95.71 C156.05,98.78 162.37,103.66 165.44,110.59 C169.92,120.68 168.78,133.2 162.12,142.08 C157.07,148.93 149.33,153.39 141.18,155.46 C122.68,160.02 102.04,154.74 88.09,141.76 C88.12,140.61 89.38,139.89 89.95,138.97 C93.96,134.31 97.82,129.53 101.78,124.84 C109.64,131.4 119.52,136.47 129.99,136.06 C134.88,135.79 140.98,134.21 142.63,128.94 C144.5,124.45 141.73,119.47 137.57,117.51 C128.74,113.03 119.33,109.81 110.38,105.58 C103.96,102.42 98.24,97.45 95.09,90.93 C90.02,80.53 91.62,67.11 99.48,58.5 L99.48,58.5 L99.48,58.5 Z" id="Shape" fill="#FF8100"></path>
                        <path d="M228.03,200.38 C234.74,200.52 240.25,195.26 242.05,189.08 C242.51,197.11 242.38,205.15 242.55,213.19 C241.45,220.1 235.3,226.11 228.15,226.17 C162.08,226.21 96.01,226.16 29.94,226.19 C22.35,226.31 15.28,220.46 13.68,213.09 C13.67,204.96 13.65,196.82 13.96,188.69 C16.4,195.33 22.72,200.68 30.02,200.41 C96.02,200.37 162.03,200.42 228.03,200.38 L228.03,200.38 L228.03,200.38 Z" id="Shape" fill="#262626"></path>
                        <path d="M0,229.53 C3.89,238.74 12.36,247.3 22.97,247.1 C94.31,247.11 165.65,247.06 236.99,247.12 C241,247 245.55,247.65 248.98,245.07 C253.24,241.88 255.08,236.54 256,231.5 L256,239.27 C254.76,245.46 251.79,251.95 245.61,254.53 C242.45,255.08 239.21,254.71 236.03,254.79 C166.01,254.79 96,254.76 26,254.8 C22.79,254.7 19.31,255.34 16.39,253.67 C8.57,250.23 1.59,243.57 0,234.9 L0,229.53 L0,229.53 L0,229.53 Z" id="Shape" fill="#999999"></path>
                        <path d="M0,234.9 C1.59,243.57 8.57,250.23 16.39,253.67 C19.31,255.34 22.79,254.7 26,254.8 C96,254.76 166.01,254.79 236.03,254.79 C239.21,254.71 242.45,255.08 245.61,254.53 C251.79,251.95 254.76,245.46 256,239.27 L256,256 L0,256 L0,234.9 L0,234.9 L0,234.9 Z" id="Shape"></path>
                    </g>
                </g>
            </g>
        </g>
    </g>
</svg>