<?xml version="1.0" encoding="UTF-8" standalone="no"?>
<svg width="256px" height="256px" viewBox="0 0 256 256" version="1.1" xmlns="http://www.w3.org/2000/svg" xmlns:xlink="http://www.w3.org/1999/xlink">
    <!-- Generator: Sketch 3.7 (28169) - http://www.bohemiancoding.com/sketch -->
    <title>SublimeText</title>
    <desc>Created with Sketch.</desc>
    <defs></defs>
    <g id="Page-1" stroke="none" stroke-width="1" fill="none" fill-rule="evenodd">
        <g id="SublimeText">
            <path d="M0,0 L256,0 L256,29.19 C254.88,26.51 253.6,23.62 251,22.05 C248.58,20.39 245.54,20.42 242.74,20.15 C242.77,16.69 242.93,13.01 241.18,9.88 C239.07,5.49 234.63,2.79 230.13,1.37 C227.11,1.02 224.07,1.25 221.04,1.21 C157.34,1.2 93.65,1.23 29.95,1.2 C24.91,1.28 20.09,4.14 16.76,7.81 C13.29,11.63 13.19,17.03 13.38,21.89 C7.34,22.32 2.23,26.65 0,32.15 L0,0 L0,0 Z" id="Shape" fill="#FFFFFF"></path>
            <path d="M16.76,7.81 C20.09,4.14 24.91,1.28 29.95,1.2 C93.65,1.23 157.34,1.2 221.04,1.21 C224.07,1.25 227.11,1.02 230.13,1.37 C234.63,2.79 239.07,5.49 241.18,9.88 C242.93,13.01 242.77,16.69 242.74,20.15 C242.94,62.43 242.87,104.71 242.88,146.99 C242.75,169.06 243.17,191.14 242.55,213.19 C242.38,205.15 242.51,197.11 242.05,189.08 C240.25,195.26 234.74,200.52 228.03,200.38 C162.03,200.42 96.02,200.37 30.02,200.41 C22.72,200.68 16.4,195.33 13.96,188.69 C13.65,196.82 13.67,204.96 13.68,213.09 C12.95,207.09 13.5,201.03 13.3,195.01 C13.3,137.3 13.23,79.59 13.38,21.89 C13.19,17.03 13.29,11.63 16.76,7.81 L16.76,7.81 Z" id="Shape" fill="#4C4C4C"></path>
            <path d="M242.74,20.15 C245.54,20.42 248.58,20.39 251,22.05 C253.6,23.62 254.88,26.51 256,29.19 L256,231.5 C255.08,236.54 253.24,241.88 248.98,245.07 C245.55,247.65 241,247 236.99,247.12 C165.65,247.06 94.31,247.11 22.97,247.1 C12.36,247.3 3.89,238.74 0,229.53 L0,32.15 C2.23,26.65 7.34,22.32 13.38,21.89 C13.23,79.59 13.3,137.3 13.3,195.01 C13.5,201.03 12.95,207.09 13.68,213.09 C15.28,220.46 22.35,226.31 29.94,226.19 C96.01,226.16 162.08,226.21 228.15,226.17 C235.3,226.11 241.45,220.1 242.55,213.19 C243.17,191.14 242.75,169.06 242.88,146.99 C242.87,104.71 242.94,62.43 242.74,20.15 L242.74,20.15 Z" id="Shape" fill="#D9D9D9"></path>
            <path d="M99.48,58.5 C108.68,48.05 123.66,44.42 137.08,46.34 C147.58,47.72 157.48,52.69 165.1,60 C160.91,65.14 156.75,70.28 152.63,75.47 C144.95,69.31 134.81,65.1 124.88,67.5 C120.41,68.34 116.36,72.31 116.74,77.08 C117.17,81.34 121.05,83.9 124.62,85.5 C132.74,89.15 141.13,92.16 149.3,95.71 C156.05,98.78 162.37,103.66 165.44,110.59 C169.92,120.68 168.78,133.2 162.12,142.08 C157.07,148.93 149.33,153.39 141.18,155.46 C122.68,160.02 102.04,154.74 88.09,141.76 C88.12,140.61 89.38,139.89 89.95,138.97 C93.96,134.31 97.82,129.53 101.78,124.84 C109.64,131.4 119.52,136.47 129.99,136.06 C134.88,135.79 140.98,134.21 142.63,128.94 C144.5,124.45 141.73,119.47 137.57,117.51 C128.74,113.03 119.33,109.81 110.38,105.58 C103.96,102.42 98.24,97.45 95.09,90.93 C90.02,80.53 91.62,67.11 99.48,58.5 L99.48,58.5 Z" id="Shape" fill="#FF8100"></path>
            <path d="M228.03,200.38 C234.74,200.52 240.25,195.26 242.05,189.08 C242.51,197.11 242.38,205.15 242.55,213.19 C241.45,220.1 235.3,226.11 228.15,226.17 C162.08,226.21 96.01,226.16 29.94,226.19 C22.35,226.31 15.28,220.46 13.68,213.09 C13.67,204.96 13.65,196.82 13.96,188.69 C16.4,195.33 22.72,200.68 30.02,200.41 C96.02,200.37 162.03,200.42 228.03,200.38 L228.03,200.38 Z" id="Shape" fill="#262626"></path>
            <path d="M0,229.53 C3.89,238.74 12.36,247.3 22.97,247.1 C94.31,247.11 165.65,247.06 236.99,247.12 C241,247 245.55,247.65 248.98,245.07 C253.24,241.88 255.08,236.54 256,231.5 L256,239.27 C254.76,245.46 251.79,251.95 245.61,254.53 C242.45,255.08 239.21,254.71 236.03,254.79 C166.01,254.79 96,254.76 26,254.8 C22.79,254.7 19.31,255.34 16.39,253.67 C8.57,250.23 1.59,243.57 0,234.9 L0,229.53 L0,229.53 Z" id="Shape" fill="#999999"></path>
            <path d="M0,234.9 C1.59,243.57 8.57,250.23 16.39,253.67 C19.31,255.34 22.79,254.7 26,254.8 C96,254.76 166.01,254.79 236.03,254.79 C239.21,254.71 242.45,255.08 245.61,254.53 C251.79,251.95 254.76,245.46 256,239.27 L256,256 L0,256 L0,234.9 L0,234.9 Z" id="Shape" fill="#FFFFFF"></path>
        </g>
    </g>
</svg>