<svg xmlns="http://www.w3.org/2000/svg" id="Layer_1" viewBox="0 0 306.5 41"><style>.st0{fill:#242427}.st1{fill:#f86012}.st2{fill:#b114f7}.st3{fill:#0fb6f2}</style><path d="M57.8 24.8c.1.9.4 1.6 1.1 2.3s1.6 1 2.9 1c1 0 1.7-.2 2.2-.6.5-.4.7-.9.7-1.5 0-.5-.2-.9-.5-1.3-.4-.4-1-.6-1.8-.8l-2.9-.7c-2.1-.5-3.7-1.3-4.6-2.4-1-1.2-1.5-2.5-1.5-4 0-1 .2-1.9.6-2.8.4-.9 1-1.6 1.7-2.2.7-.6 1.6-1.1 2.6-1.5 1-.4 2.1-.6 3.2-.6 1.5 0 2.8.2 3.9.6s1.9 1 2.6 1.6 1.2 1.3 1.5 2c.3.7.5 1.4.6 2L65.2 17c-.1-.3-.2-.7-.3-1s-.3-.7-.6-.9c-.3-.3-.7-.5-1.1-.7-.4-.2-.9-.3-1.6-.3-.8 0-1.4.2-2 .6-.5.4-.8.9-.8 1.5 0 .5.2 1 .6 1.3.4.3.8.5 1.4.7l3.1.7c2.1.4 3.8 1.3 4.8 2.5 1.1 1.2 1.6 2.6 1.6 4.2 0 .9-.2 1.8-.5 2.6-.3.9-.9 1.7-1.6 2.3-.7.7-1.6 1.2-2.6 1.6s-2.3.6-3.7.6c-1.6 0-3-.2-4.1-.7s-2-1-2.7-1.7c-.7-.7-1.2-1.4-1.6-2.2-.3-.8-.5-1.5-.6-2.1l4.9-1.2zM84.7 9.6c1.6 0 3.1.3 4.5.9 1.4.6 2.6 1.4 3.6 2.4s1.8 2.2 2.4 3.6c.6 1.4.9 3 .9 4.6 0 1.7-.3 3.2-.9 4.6-.5 1.4-1.4 2.6-2.4 3.6s-2.2 1.8-3.6 2.4-2.9.9-4.5.9-3.1-.3-4.5-.9c-1.4-.5-2.6-1.4-3.6-2.4s-1.8-2.2-2.4-3.6-.9-2.9-.9-4.6c0-1.7.3-3.2.9-4.6s1.4-2.6 2.4-3.6 2.3-1.8 3.6-2.4c1.4-.6 2.9-.9 4.5-.9zm0 17.6c.7 0 1.4-.1 2.1-.4.7-.3 1.3-.7 1.8-1.2s.9-1.2 1.2-1.9.5-1.7.5-2.7-.2-1.9-.5-2.7-.7-1.4-1.2-1.9-1.1-.9-1.8-1.2c-1.3-.5-2.8-.5-4.1 0-.7.3-1.3.7-1.8 1.2s-.9 1.2-1.2 1.9-.5 1.7-.5 2.7.2 1.9.5 2.7.7 1.4 1.2 1.9 1.1.9 1.8 1.2c.6.3 1.3.4 2 .4zm30.2 4.7c-.1-.3-.1-.7-.1-1v-1.3c-.6 1-1.4 1.8-2.6 2.2-1.1.4-2.2.7-3.4.7-1.3 0-2.5-.2-3.5-.7-1-.5-1.9-1.1-2.6-1.8s-1.2-1.7-1.6-2.7c-.4-1.1-.6-2.2-.6-3.3V10.2h5.9v12.5c0 1.2.3 2.3.9 3.1.6.8 1.6 1.3 3 1.3 1.3 0 2.3-.4 3-1.2s1.1-1.8 1.1-3.1V10.2h5.9V28c0 .9 0 1.6.1 2.3 0 .7.1 1.2.2 1.6h-5.7zM139.8 16c-.6-.1-1.2-.2-1.8-.2-.8 0-1.5.1-2.2.3-.7.2-1.3.5-1.8 1s-.9 1.1-1.2 1.9c-.3.8-.5 1.8-.5 2.9v9.9h-5.9V10.2h5.7v3.2c.3-.7.7-1.3 1.3-1.7.5-.5 1.1-.8 1.6-1 .6-.2 1.1-.4 1.7-.5.5-.1 1-.1 1.6-.1h.7c.2 0 .4 0 .7.1V16h.1zm13.7-1c-.7 0-1.5.1-2.1.4-.7.3-1.3.7-1.7 1.2-.5.5-.9 1.2-1.2 1.9-.3.8-.4 1.6-.4 2.6s.1 1.8.4 2.6c.3.8.7 1.4 1.2 1.9s1.1.9 1.8 1.2c.7.3 1.4.4 2.1.4.7 0 1.4-.1 2-.3.5-.2 1-.5 1.5-.9.4-.4.7-.8 1-1.2s.4-.9.6-1.3l5.2 1.7c-.2.9-.6 1.8-1.2 2.7-.6.9-1.3 1.7-2.1 2.3-.9.7-1.9 1.2-3 1.7s-2.4.6-3.9.6c-1.6 0-3.1-.3-4.5-.9-1.4-.5-2.6-1.4-3.6-2.4s-1.9-2.3-2.4-3.6c-.6-1.4-.9-2.9-.9-4.6 0-1.7.3-3.2.9-4.6s1.4-2.6 2.4-3.6 2.2-1.8 3.6-2.4c1.4-.6 2.8-.9 4.4-.9 1.5 0 2.8.2 3.9.6 1.2.4 2.2 1 3 1.7.8.6 1.5 1.4 2.1 2.3.5.9.9 1.8 1.1 2.7l-5.2 1.8c-.3-.9-.8-1.8-1.5-2.5-.9-.7-2-1.1-3.5-1.1zm34 10.7c-.6 1.9-1.7 3.6-3.4 4.8-.8.6-1.8 1.1-2.9 1.5s-2.3.5-3.6.5c-1.5 0-2.9-.3-4.3-.8-1.3-.5-2.6-1.3-3.6-2.3-1-1-1.8-2.2-2.4-3.7-.6-1.4-.9-3.1-.9-4.9 0-1.7.3-3.3.9-4.7.6-1.4 1.4-2.6 2.4-3.6s2.1-1.8 3.4-2.3c1.3-.5 2.6-.8 4-.8 3.4 0 6 1 7.9 3 1.9 2 2.8 4.7 2.8 8.2v1.8h-15.5c0 .7.2 1.4.5 2s.7 1.1 1.2 1.6c.5.4 1.1.8 1.7 1s1.3.4 2.1.4c1.4 0 2.5-.3 3.2-.9.8-.6 1.4-1.4 1.7-2.4l4.8 1.6zm-5.5-7.1c0-.5-.1-1-.3-1.6s-.5-1-.9-1.4c-.4-.4-.9-.7-1.5-1s-1.3-.4-2.1-.4-1.4.1-2 .4c-.6.2-1.1.6-1.5 1-.4.4-.7.9-.9 1.4-.2.5-.3 1-.4 1.5l9.6.1zm14.2 13.1c.2 1.2.8 2.2 1.6 3s2 1.1 3.4 1.1c1.9 0 3.3-.5 4.3-1.4 1-1 1.5-2.5 1.5-4.6v-1.6c-.4.7-1.2 1.3-2.2 1.9s-2.2.9-3.8.9c-1.4 0-2.8-.3-4-.8s-2.3-1.3-3.2-2.2c-.9-1-1.6-2.1-2.1-3.3-.5-1.3-.8-2.7-.8-4.2 0-1.4.2-2.8.7-4.1s1.2-2.4 2.1-3.4 1.9-1.7 3.2-2.3 2.6-.8 4.1-.8c1.7 0 3.1.3 4.1.9s1.7 1.3 2.1 2v-2.6h5.6v19.4c0 1.5-.2 2.9-.6 4.3s-1.1 2.6-2 3.6c-.9 1-2.1 1.9-3.5 2.5-1.4.6-3.2.9-5.2.9-1.5 0-2.9-.2-4.1-.6-1.2-.4-2.3-1-3.2-1.7-.9-.7-1.6-1.6-2.2-2.5s-.9-1.9-1.1-3l5.3-1.4zm5.8-5.8c1.5 0 2.7-.5 3.7-1.5s1.4-2.3 1.4-4c0-1.7-.5-3-1.5-4s-2.2-1.5-3.6-1.5c-.7 0-1.4.1-2.1.4-.6.2-1.2.6-1.7 1.1-.5.5-.9 1.1-1.1 1.7-.3.7-.4 1.4-.4 2.2 0 1.7.5 3 1.5 4 1 1.1 2.3 1.6 3.8 1.6zm30-9.9c-.6-.1-1.2-.2-1.8-.2-.8 0-1.5.1-2.2.3-.7.2-1.3.5-1.8 1s-.9 1.1-1.2 1.9c-.3.8-.5 1.8-.5 2.9v9.9h-5.9V10.2h5.7v3.2c.3-.7.7-1.3 1.3-1.7.5-.5 1.1-.8 1.6-1 .6-.2 1.1-.4 1.7-.5.5-.1 1-.1 1.6-.1h.7c.2 0 .4 0 .7.1V16h.1zm2.7 10c0-1 .2-1.8.5-2.6.3-.7.8-1.4 1.4-2 .6-.6 1.3-1 2-1.3.8-.3 1.7-.6 2.5-.7l5.3-.8c.6-.1 1-.3 1.3-.5.2-.3.4-.6.4-1 0-.8-.3-1.4-.9-2-.6-.6-1.5-.8-2.8-.8-1.3 0-2.3.4-3 1.1-.7.7-1.1 1.5-1.2 2.5l-5.2-1.1c.1-.9.4-1.7.8-2.6.5-.9 1.1-1.6 1.8-2.3.8-.7 1.7-1.2 2.8-1.7 1.1-.4 2.4-.6 3.9-.6 1.7 0 3.2.2 4.4.7 1.2.5 2.2 1.1 2.9 1.8.7.7 1.3 1.6 1.6 2.6.3 1 .5 2 .5 3.1v10.7c0 .6 0 1.2.1 1.9s.1 1.2.2 1.6h-5.4c-.1-.4-.1-.8-.2-1.2 0-.5-.1-.9-.1-1.4-.6.9-1.4 1.6-2.4 2.2-1 .6-2.4 1-4 1-1.1 0-2.2-.2-3.1-.6s-1.7-.9-2.4-1.5-1.1-1.3-1.5-2.1c-.1-.7-.2-1.5-.2-2.4zm8.7 2.2c.6 0 1.2-.1 1.8-.2.6-.2 1.1-.4 1.5-.8.4-.4.8-.9 1.1-1.5.3-.6.4-1.4.4-2.4v-1l-4.9.8c-.8.1-1.4.4-1.9.8s-.8 1.1-.8 1.9c0 .6.2 1.2.7 1.7.4.4 1.1.7 2.1.7zm16.4 12.1V10.2h5.7v2.6c.5-.9 1.3-1.6 2.5-2.2 1.1-.6 2.5-.9 4.2-.9 1.6 0 3 .3 4.2.9s2.3 1.4 3.1 2.4c.9 1 1.5 2.2 2 3.6.4 1.4.7 2.9.7 4.5s-.2 3.2-.7 4.6c-.5 1.4-1.2 2.6-2.1 3.6-.9 1-2 1.8-3.2 2.4-1.3.6-2.7.9-4.2.9s-2.8-.3-3.9-.8-1.9-1.1-2.4-1.9v10.5l-5.9-.1zm16.5-19.2c0-1.9-.5-3.4-1.6-4.5-1-1.1-2.3-1.6-3.8-1.6-.8 0-1.5.1-2.1.4-.6.3-1.2.7-1.7 1.2s-.9 1.1-1.2 1.9c-.3.8-.4 1.6-.4 2.6s.1 1.8.4 2.6c.3.7.7 1.4 1.2 1.9s1.1.9 1.7 1.2c.6.3 1.4.4 2.1.4 1.5 0 2.8-.5 3.8-1.6 1.1-1.1 1.6-2.6 1.6-4.5zm16.3 10.8h-5.9V0h5.9v12c.7-.9 1.6-1.5 2.7-1.8s2.1-.5 3.2-.5c1.4 0 2.6.2 3.6.7 1 .5 1.9 1.1 2.5 1.8.7.8 1.2 1.7 1.5 2.7s.5 2.2.5 3.3v13.7h-5.9V19.3c0-1.2-.3-2.3-.9-3.1-.6-.8-1.7-1.2-3.1-1.2-1.2 0-2.2.4-2.9 1.2-.7.8-1.1 1.8-1.1 3l-.1 12.7z" class="st0"/><path d="M23.6 39.3c-1.8 0-3.4-1.2-3.9-3L11.1 5.4c-.5-2.2.8-4.4 3-4.9 2.1-.5 4.2.7 4.8 2.7l8.5 30.9c.6 2.2-.7 4.4-2.8 5-.3.1-.7.2-1 .2z" class="st1"/><path d="M8.6 35.8c-2.2 0-4-1.8-4-4 0-1 .4-2 1-2.7L27 5.1c1.5-1.7 4-1.8 5.7-.3 1.7 1.5 1.8 4 .3 5.7L11.6 34.4c-.8.9-1.9 1.4-3 1.4z" class="st2"/><path d="M34.5 28.8c-.4 0-.8-.1-1.3-.2l-30.5-10c-2.1-.7-3.3-3-2.6-5.1.7-2.1 3-3.3 5.1-2.6l30.5 10c2.1.7 3.3 3 2.6 5.1-.5 1.7-2 2.8-3.8 2.8z" class="st3"/></svg>