<svg xmlns="http://www.w3.org/2000/svg" xmlns:xlink="http://www.w3.org/1999/xlink" width="228" height="32" version="1.1" viewBox="0 0 228 32"><title>head logo</title><desc>Created using Figma</desc><g id="Canvas" transform="translate(-21422 -8512)"><g id="head logo"><g id="WordMark"><g id="Shape"><use fill="#FFF" transform="translate(21465.2 8519.21)" xlink:href="#path0_fill"/></g><g id="Shape"><use fill="#FFF" transform="translate(21480 8519.21)" xlink:href="#path1_fill"/></g><g id="Shape"><use fill="#FFF" transform="translate(21499.7 8519.71)" xlink:href="#path2_fill"/></g><g id="Shape"><use fill="#FFF" transform="translate(21518.7 8519.58)" xlink:href="#path3_fill"/></g><g id="Shape"><use fill="#FFF" transform="translate(21529.7 8519.21)" xlink:href="#path4_fill"/></g><g id="Shape"><use fill="#FFF" transform="translate(21547.2 8519.21)" xlink:href="#path5_fill"/></g><g id="Shape"><use fill="#FFF" transform="translate(21565 8519.41)" xlink:href="#path6_fill"/></g><g id="Shape"><use fill="#FFF" transform="translate(21585.3 8519.58)" xlink:href="#path7_fill"/></g><g id="Shape"><use fill="#FFF" transform="translate(21596.8 8519.21)" xlink:href="#path8_fill"/></g><g id="Shape"><use fill="#FFF" transform="translate(21615.1 8519.34)" xlink:href="#path9_fill"/></g><g id="Shape"><use fill="#FFF" transform="translate(21634.7 8512)" xlink:href="#path10_fill"/></g></g><g id="LogoMark"><g id="Shape"><use fill="#F96216" transform="translate(21430.9 8512.16)" xlink:href="#path11_fill"/></g><g id="Shape"><use fill="#B200F8" transform="translate(21425.7 8515.04)" xlink:href="#path12_fill"/></g><g id="Shape"><use fill="#00B4F2" transform="translate(21422 8520.76)" xlink:href="#path13_fill"/></g></g></g></g><defs><path id="path0_fill" fill-rule="evenodd" d="M 3.78659 11.4652C 3.83032 12.1083 4.09656 12.6833 4.58404 13.1926C 5.07022 13.7019 5.80207 13.9579 6.77702 13.9579C 7.50887 13.9579 8.05036 13.7971 8.40664 13.4756C 8.75906 13.1553 8.93784 12.772 8.93784 12.3296C 8.93784 11.9527 8.80408 11.626 8.53783 11.3482C 8.27159 11.0717 7.81756 10.8672 7.17574 10.7334L 5.0162 10.2343C 3.42131 9.88063 2.25729 9.26583 1.52673 8.38992C 0.796161 7.5153 0.429593 6.50177 0.429593 5.34933C 0.429593 4.61748 0.583937 3.92679 0.895199 3.27211C 1.20517 2.61871 1.63091 2.05407 2.17497 1.57689C 2.71775 1.10099 3.35957 0.718989 4.103 0.430879C 4.84514 0.144055 5.65802 0 6.5455 0C 7.69665 0 8.6716 0.160776 9.46905 0.482327C 10.2665 0.803879 10.9147 1.20775 11.4125 1.69522C 11.9115 2.18269 12.282 2.69717 12.5251 3.23995C 12.7682 3.78273 12.9122 4.27535 12.9572 4.71909L 9.26968 5.54869C 9.22467 5.3056 9.15264 5.05607 9.0536 4.80141C 8.95456 4.54674 8.79379 4.30879 8.57256 4.08628C 8.35005 3.86505 8.07994 3.68755 7.75839 3.55507C 7.43684 3.42259 7.04455 3.35571 6.57894 3.35571C 6.00272 3.35571 5.5101 3.51134 5.09981 3.82003C 4.69079 4.13129 4.485 4.51844 4.485 4.98276C 4.485 5.38148 4.62262 5.70304 4.90044 5.94741C 5.17698 6.19051 5.53712 6.35643 5.98086 6.44518L 8.30632 6.94294C 9.92308 7.27606 11.136 7.89602 11.945 8.80408C 12.754 9.71342 13.1579 10.7643 13.1579 11.9604C 13.1579 12.6267 13.0293 13.2788 12.7759 13.9206C 12.5199 14.5637 12.1276 15.1386 11.5964 15.6493C 11.0652 16.1599 10.4003 16.5689 9.60281 16.8789C 8.80536 17.1876 7.87544 17.3432 6.81174 17.3432C 5.57184 17.3432 4.5313 17.1657 3.68884 16.812C 2.84637 16.4583 2.16083 16.0248 1.62834 15.5155C 1.09585 15.0062 0.703554 14.4582 0.448886 13.8717C 0.194217 13.2839 0.043731 12.7592 0 12.2936L 3.78659 11.4652Z"/><path id="path1_fill" fill-rule="evenodd" d="M 8.57384 0C 9.79188 0 10.9276 0.214796 11.9797 0.646961C 13.0318 1.07913 13.9399 1.67721 14.7052 2.44122C 15.4692 3.20522 16.0673 4.11972 16.4994 5.18212C 16.9316 6.24581 17.1477 7.40854 17.1477 8.6716C 17.1477 9.93465 16.9316 11.091 16.4994 12.1444C 16.0673 13.1978 15.4692 14.111 14.7052 14.8853C 13.9412 15.6621 13.0318 16.2641 11.9797 16.6962C 10.9276 17.1284 9.79188 17.3445 8.57384 17.3445C 7.35452 17.3445 6.2188 17.1284 5.16797 16.6962C 4.11586 16.2641 3.2078 15.6608 2.44379 14.8853C 1.6785 14.111 1.08041 13.1978 0.648247 12.1444C 0.216082 11.091 0 9.93465 0 8.6716C 0 7.40983 0.216082 6.24581 0.648247 5.18212C 1.08041 4.11843 1.6785 3.20522 2.44379 2.44122C 3.2078 1.67721 4.11586 1.07913 5.16797 0.646961C 6.22009 0.216083 7.35581 0 8.57384 0ZM 8.57375 13.3236C 9.10624 13.3236 9.62586 13.2259 10.1352 13.0252C 10.6445 12.8272 11.0883 12.5326 11.4651 12.1455C 11.8407 11.7583 12.1455 11.276 12.3796 10.6998C 12.6124 10.1236 12.7282 9.4483 12.7282 8.67271C 12.7282 7.89713 12.6124 7.22187 12.3796 6.64565C 12.1455 6.07072 11.842 5.58839 11.4651 5.19996C 11.0883 4.81281 10.6458 4.51956 10.1352 4.31891C 9.62586 4.11955 9.10624 4.02051 8.57375 4.02051C 8.04254 4.02051 7.52163 4.11955 7.01229 4.31891C 6.50296 4.51827 6.0605 4.81281 5.68364 5.19996C 5.30678 5.58839 5.00324 6.07072 4.77044 6.64565C 4.53763 7.22187 4.42188 7.89713 4.42188 8.67271C 4.42188 9.4483 4.53892 10.1223 4.77044 10.6998C 5.00324 11.276 5.30678 11.7583 5.68364 12.1455C 6.0605 12.5326 6.50296 12.8259 7.01229 13.0252C 7.52163 13.2259 8.04254 13.3236 8.57375 13.3236Z"/><path id="path2_fill" fill-rule="evenodd" d="M 10.8646 16.349C 10.8196 16.1702 10.7861 15.9168 10.7655 15.5837C 10.7424 15.2505 10.7321 14.9187 10.7321 14.5869C 10.2884 15.3637 9.64011 15.9219 8.78864 16.2666C 7.9346 16.6088 7.0767 16.7811 6.21366 16.7811C 5.21685 16.7811 4.33708 16.6075 3.57179 16.2666C 2.80779 15.9219 2.15954 15.4628 1.62834 14.8865C 1.09585 14.3103 0.691979 13.6286 0.415444 12.8428C 0.13891 12.0569 0 11.2196 0 10.3347L 0 0L 4.4194 0L 4.4194 9.43689C 4.4194 10.3681 4.65735 11.1475 5.13453 11.7791C 5.61043 12.4093 6.36929 12.7257 7.41112 12.7257C 8.40792 12.7257 9.17322 12.4273 9.70442 11.8292C 10.2356 11.2311 10.5019 10.4556 10.5019 9.50249L 10.5019 0L 14.9213 0L 14.9213 13.3907C 14.9213 14.0338 14.938 14.6152 14.9714 15.1361C 15.0049 15.657 15.0435 16.0609 15.0872 16.349L 10.8646 16.349Z"/><path id="path3_fill" fill-rule="evenodd" d="M 9.96809 4.51844C 9.52564 4.42969 9.08318 4.38467 8.63944 4.38467C 8.06322 4.38467 7.52044 4.46313 7.01111 4.61748C 6.50177 4.77311 6.05803 5.02778 5.68246 5.38148C 5.3056 5.73648 5.00077 6.20723 4.76925 6.79374C 4.53645 7.38153 4.42069 8.11853 4.42069 9.00344L 4.42069 16.4802L 0 16.4802L 0 0.132479L 4.28692 0.132479L 4.28692 2.55826C 4.53002 2.02577 4.84642 1.58975 5.23357 1.24505C 5.62072 0.902916 6.03102 0.643103 6.46318 0.46432C 6.89406 0.286824 7.32751 0.16592 7.75839 0.0990378C 8.19056 0.0334413 8.58414 0 8.93784 0C 9.11534 0 9.2864 0.00514482 9.45232 0.0167207C 9.61825 0.0282965 9.7906 0.0450172 9.96681 0.0668827L 9.96681 4.51844L 9.96809 4.51844Z"/><path id="path4_fill" fill-rule="evenodd" d="M 8.57384 4.08756C 7.99763 4.08756 7.45999 4.18789 6.96223 4.38596C 6.46318 4.58661 6.02587 4.87986 5.6503 5.26701C 5.27344 5.65545 4.97376 6.13649 4.75253 6.71271C 4.53002 7.28893 4.42069 7.94232 4.42069 8.67288C 4.42069 9.40345 4.53002 10.0581 4.75253 10.6331C 4.97376 11.2106 5.27859 11.6955 5.66573 12.0955C 6.05288 12.4955 6.49662 12.7939 6.99438 12.992C 7.49343 13.1913 8.02978 13.2904 8.606 13.2904C 9.16035 13.2904 9.65297 13.2093 10.0851 13.0421C 10.516 12.8762 10.8877 12.6601 11.199 12.3939C 11.509 12.1276 11.7585 11.8292 11.9463 11.4974C 12.1341 11.1656 12.273 10.844 12.3617 10.534L 16.2486 11.8292C 16.0711 12.5174 15.7779 13.1888 15.3676 13.8396C 14.9573 14.493 14.4312 15.0795 13.7894 15.6017C 13.1463 16.1213 12.3939 16.5419 11.5295 16.8622C 10.6665 17.1837 9.69027 17.3445 8.606 17.3445C 7.40983 17.3445 6.28569 17.1284 5.23357 16.6962C 4.18145 16.2641 3.26825 15.6608 2.49267 14.8853C 1.71708 14.111 1.10871 13.1965 0.666254 12.1444C 0.222514 11.0922 0 9.93465 0 8.6716C 0 7.40983 0.216082 6.24581 0.648247 5.18212C 1.08041 4.11843 1.6785 3.20522 2.44379 2.44122C 3.2078 1.67721 4.10557 1.07913 5.13453 0.646961C 6.16478 0.216083 7.27864 0 8.47352 0C 9.58223 0 10.5726 0.160776 11.4472 0.482327C 12.3218 0.803879 13.0807 1.21804 13.7238 1.72866C 14.3669 2.238 14.8865 2.82451 15.2853 3.48948C 15.684 4.15444 15.9721 4.8297 16.1496 5.51654L 12.1958 6.84519C 11.9964 6.15964 11.6131 5.52811 11.0485 4.95189C 10.4839 4.37567 9.65812 4.08756 8.57384 4.08756Z"/><path id="path5_fill" fill-rule="evenodd" d="M 15.8795 12.1649C 15.6814 12.8736 15.3676 13.5425 14.9354 14.174C 14.5033 14.8042 13.9759 15.3534 13.3547 15.8178C 12.7347 16.2834 12.0106 16.6525 11.1797 16.9303C 10.3488 17.2081 9.43689 17.3458 8.43879 17.3458C 7.30822 17.3458 6.23424 17.1516 5.21556 16.7644C 4.19689 16.376 3.29912 15.8062 2.52482 15.0538C 1.74924 14.3 1.13443 13.3817 0.680403 12.2936C 0.226372 11.2106 0 9.97967 0 8.606C 0 7.29922 0.219941 6.11334 0.664968 5.05093C 1.10742 3.98724 1.70036 3.08561 2.4425 2.34347C 3.18464 1.60133 4.04254 1.02511 5.01877 0.616092C 5.99243 0.205793 7.00082 0 8.04136 0C 10.588 0 12.5701 0.753716 13.9901 2.25986C 15.4075 3.76601 16.1149 5.8368 16.1149 8.47352C 16.1149 8.78478 16.1046 9.07675 16.0827 9.35457C 16.0596 9.63111 16.0506 9.79188 16.0506 9.83561L 4.35381 9.83561C 4.37567 10.3668 4.50429 10.8607 4.73709 11.3135C 4.96861 11.7688 5.2683 12.1624 5.63358 12.4942C 5.99886 12.826 6.42588 13.0871 6.91335 13.2749C 7.40083 13.4627 7.92045 13.5566 8.47481 13.5566C 9.51535 13.5566 10.3282 13.3225 10.916 12.8582C 11.5038 12.3939 11.9308 11.7958 12.1945 11.0639L 15.8795 12.1649ZM 11.7594 6.81472C 11.7362 6.41599 11.6565 6.02242 11.5112 5.63527C 11.3684 5.24812 11.1472 4.9047 10.8475 4.6063C 10.5465 4.30662 10.1722 4.06352 9.7169 3.87574C 9.26158 3.68795 8.72523 3.59277 8.104 3.59277C 7.52906 3.59277 7.01972 3.6931 6.57727 3.89246C 6.13353 4.09182 5.75667 4.34778 5.44798 4.65647C 5.13672 4.96773 4.90006 5.30986 4.73414 5.68672C 4.56693 6.06357 4.47304 6.43915 4.45117 6.816L 11.7594 6.816L 11.7594 6.81472Z"/><path id="path6_fill" fill-rule="evenodd" d="M 3.98981 16.4827C 4.14287 17.3908 4.55445 18.1316 5.21814 18.7091C 5.88439 19.2841 6.74743 19.5722 7.81113 19.5722C 9.20537 19.5722 10.2806 19.2121 11.0344 18.4931C 11.7881 17.7715 12.1649 16.6139 12.1649 15.0203L 12.1649 13.8229C 11.8305 14.3553 11.2877 14.8377 10.534 15.2698C 9.78288 15.7007 8.80793 15.9168 7.61305 15.9168C 6.52492 15.9168 5.51782 15.7187 4.58789 15.3187C 3.6554 14.92 2.85409 14.3669 2.17883 13.6569C 1.50357 12.9482 0.971085 12.1122 0.583937 11.1488C 0.194217 10.1855 0.00128621 9.1282 0.00128621 7.97576C 0.00128621 6.8902 0.189072 5.86638 0.56593 4.90173C 0.942789 3.93836 1.46242 3.09075 2.12867 2.3589C 2.79235 1.62834 3.59109 1.05212 4.51973 0.631527C 5.45222 0.210938 6.48119 0 7.61176 0C 8.91855 0 9.94751 0.232803 10.6987 0.697123C 11.4524 1.16144 11.9746 1.67207 12.2614 2.22514L 12.2614 0.300972L 16.5149 0.300972L 16.5149 14.8878C 16.5149 16.0184 16.3541 17.0975 16.0351 18.1278C 15.7136 19.1593 15.2081 20.0661 14.5225 20.8533C 13.8344 21.6391 12.9469 22.2706 11.8652 22.7465C 10.7797 23.2224 9.47162 23.4617 7.9436 23.4617C 6.81303 23.4617 5.78792 23.3009 4.86829 22.9806C 3.94865 22.6591 3.14477 22.2269 2.45922 21.6841C 1.77368 21.1401 1.21804 20.5098 0.798734 19.7908C 0.376858 19.0693 0.110614 18.322 0 17.5477L 3.98981 16.4827ZM 8.37672 12.1299C 9.50472 12.1299 10.4321 11.7531 11.1498 10.9994C 11.8713 10.2469 12.2302 9.23855 12.2302 7.97549C 12.2302 6.71244 11.8533 5.71049 11.0996 4.96835C 10.3459 4.22621 9.43913 3.85449 8.37672 3.85449C 7.82108 3.85449 7.3066 3.94967 6.83199 4.13746C 6.3548 4.32524 5.93807 4.60178 5.58308 4.96835C 5.22937 5.33363 4.95284 5.77222 4.75348 6.28156C 4.5554 6.7909 4.45508 7.35683 4.45508 7.97549C 4.45508 9.2617 4.81907 10.2752 5.55093 11.0161C 6.28149 11.7582 7.22428 12.1299 8.37672 12.1299Z"/><path id="path7_fill" fill-rule="evenodd" d="M 9.96938 4.51844C 9.52692 4.42969 9.08447 4.38467 8.64073 4.38467C 8.06579 4.38467 7.52302 4.46313 7.01239 4.61748C 6.50177 4.77182 6.0606 5.02778 5.68374 5.38148C 5.30688 5.73648 5.00334 6.20723 4.76925 6.79374C 4.53773 7.38153 4.42197 8.11853 4.42197 9.00344L 4.42197 16.4802L 0 16.4802L 0 0.132479L 4.28564 0.132479L 4.28564 2.55826C 4.5313 2.02577 4.84642 1.58975 5.23486 1.24505C 5.622 0.902916 6.03102 0.643103 6.46318 0.46432C 6.89535 0.286824 7.32751 0.16592 7.75968 0.0990378C 8.19184 0.0334413 8.58414 0 8.93784 0C 9.11662 0 9.2864 0.00514482 9.45232 0.0167207C 9.62082 0.0282965 9.79188 0.0450172 9.96681 0.0668827L 9.96681 4.51844L 9.96938 4.51844Z"/><path id="path8_fill" fill-rule="evenodd" d="M 0 12.3952C 0 11.6646 0.128621 11.0163 0.382003 10.4504C 0.635386 9.88449 0.985233 9.39316 1.4264 8.97257C 1.87143 8.55198 2.38591 8.22014 2.97113 7.97705C 3.55893 7.73395 4.19689 7.55646 4.88244 7.44456L 8.9044 6.84647C 9.36872 6.78087 9.69027 6.64196 9.86648 6.43231C 10.0453 6.22138 10.1327 5.97314 10.1327 5.68374C 10.1327 5.10752 9.90635 4.60976 9.45232 4.18788C 8.99701 3.7673 8.30632 3.55636 7.3751 3.55636C 6.40016 3.55636 5.65416 3.8226 5.13196 4.35381C 4.61233 4.88629 4.31779 5.50625 4.2522 6.21494L 0.330555 5.38406C 0.396151 4.74095 0.596799 4.09914 0.92864 3.45603C 1.26048 2.81422 1.71451 2.238 2.29073 1.72866C 2.86824 1.21932 3.57694 0.803878 4.41812 0.482327C 5.25929 0.160776 6.23424 0 7.34166 0C 8.62529 0 9.72371 0.171065 10.6331 0.514482C 11.5398 0.857899 12.2755 1.31193 12.8415 1.87657C 13.4061 2.44122 13.8164 3.10104 14.0698 3.85347C 14.3258 4.60719 14.4544 5.39306 14.4544 6.21237L 14.4544 14.2537C 14.4544 14.6975 14.475 15.1682 14.52 15.666C 14.565 16.1637 14.6074 16.5573 14.6537 16.8467L 10.5996 16.8467C 10.5546 16.6255 10.5173 16.3207 10.4839 15.9322C 10.4517 15.5451 10.4337 15.1965 10.4337 14.8853C 10.0118 15.5284 9.40859 16.093 8.62272 16.5805C 7.83685 17.0679 6.83361 17.311 5.61557 17.311C 4.75124 17.311 3.97052 17.1734 3.27468 16.8943C 2.57627 16.6178 1.98333 16.2538 1.49586 15.7985C 1.00839 15.3431 0.636672 14.8235 0.383289 14.237C 0.129907 13.6505 0 13.0383 0 12.3952ZM 6.54731 14.024C 7.00905 14.024 7.45923 13.9635 7.89139 13.8413C 8.32356 13.7192 8.70556 13.5095 9.03997 13.2111C 9.37181 12.9114 9.63549 12.5243 9.83613 12.0471C 10.0342 11.5725 10.1345 10.9667 10.1345 10.2374L 10.1345 9.50684L 6.44698 10.0702C 5.87205 10.1589 5.38715 10.3647 5.00257 10.6863C 4.61285 11.0078 4.41992 11.4902 4.41992 12.1307C 4.41992 12.6195 4.59613 13.0581 4.95241 13.4439C 5.30612 13.8298 5.83603 14.024 6.54731 14.024Z"/><path id="path9_fill" fill-rule="evenodd" d="M 0 23.0269L 0 0.365282L 4.28821 0.365282L 4.28821 2.3589C 4.66507 1.7158 5.28245 1.16273 6.14678 0.697123C 7.01111 0.231517 8.06322 0 9.30441 0C 10.5006 0 11.563 0.214796 12.4942 0.646961C 13.4241 1.07913 14.2151 1.6785 14.8711 2.4425C 15.5245 3.20651 16.0171 4.10428 16.3477 5.13453C 16.6795 6.16478 16.8454 7.28893 16.8454 8.50696C 16.8454 9.74815 16.6641 10.8929 16.2975 11.9463C 15.9335 12.9971 15.4126 13.9065 14.7373 14.6705C 14.0595 15.4345 13.2479 16.0351 12.2936 16.4647C 11.3418 16.8969 10.2884 17.1143 9.13849 17.1143C 8.00791 17.1143 7.03812 16.92 6.22909 16.5329C 5.42264 16.1445 4.81684 15.6737 4.41812 15.1206L 4.41812 23.0282L 0 23.0282L 0 23.0269ZM 12.4952 8.53876C 12.4952 7.07634 12.1003 5.94705 11.3145 5.14832C 10.5286 4.35087 9.57165 3.95215 8.44108 3.95215C 7.86357 3.95215 7.33365 4.05762 6.84618 4.26856C 6.35871 4.47949 5.92655 4.77789 5.54969 5.16633C 5.17283 5.55476 4.88086 6.02937 4.66992 6.59401C 4.45898 7.15866 4.35352 7.80691 4.35352 8.53876C 4.35352 9.26932 4.45898 9.91886 4.66992 10.4809C 4.88086 11.0456 5.17283 11.5279 5.54969 11.9279C 5.92655 12.3279 6.35871 12.6315 6.84618 12.8411C 7.33365 13.0533 7.86357 13.1562 8.44108 13.1562C 9.57165 13.1562 10.5286 12.7537 11.3145 11.9446C 12.1016 11.1369 12.4952 10.0012 12.4952 8.53876Z"/><path id="path10_fill" fill-rule="evenodd" d="M 4.4194 24.0585L 0 24.0585L 0 0L 4.4194 0L 4.4194 9.07161C 4.95189 8.4285 5.62715 7.97062 6.44646 7.6928C 7.26578 7.41497 8.06451 7.27735 8.83752 7.27735C 9.88063 7.27735 10.7823 7.44842 11.545 7.79183C 12.3116 8.13525 12.9418 8.59571 13.4396 9.17193C 13.9399 9.74815 14.309 10.4337 14.5521 11.2324C 14.7952 12.0299 14.9187 12.8711 14.9187 13.7573L 14.9187 24.0585L 10.4993 24.0585L 10.4993 14.5213C 10.4993 13.59 10.2601 12.8158 9.78288 12.1945C 9.30827 11.5746 8.53655 11.2646 7.47414 11.2646C 6.54421 11.2646 5.81365 11.5681 5.28116 12.1778C 4.75124 12.7875 4.46185 13.5463 4.41683 14.4544L 4.41683 24.0585L 4.4194 24.0585Z"/><path id="path11_fill" fill-rule="evenodd" d="M 0.114672 4.05624L 7.05884 29.4816C 7.52643 31.1898 9.28693 32.196 10.9925 31.7298C 12.698 31.2608 13.7016 29.4963 13.2353 27.7881L 6.2898 2.3614C 5.82221 0.653154 4.06172 -0.353034 2.35615 0.114555C 0.651931 0.582145 -0.352917 2.34666 0.114672 4.05624Z"/><path id="path12_fill" fill-rule="evenodd" d="M 18.1958 1.08053L 0.805218 20.7474C -0.367105 22.0738 -0.245183 24.1023 1.07854 25.2773C 2.40226 26.4523 4.42535 26.329 5.59767 25.0026L 22.9882 5.33573C 24.1606 4.00933 24.0386 1.98222 22.7149 0.807215C 21.3912 -0.367787 19.3695 -0.245865 18.1958 1.08053Z"/><path id="path13_fill" fill-rule="evenodd" d="M 2.19697 6.25588L 26.998 14.4715C 28.6767 15.0289 30.4868 14.1151 31.0428 12.4337C 31.5988 10.7509 30.6864 8.93681 29.009 8.38213L 4.20667 0.162478C 2.5279 -0.392199 0.717836 0.518864 0.16316 2.20165C -0.392856 3.88443 0.518206 5.69852 2.19697 6.25588Z"/></defs></svg>