<?xml version="1.0" encoding="utf-8"?>
<svg version="1.1" xmlns="http://www.w3.org/2000/svg" viewBox="0 0 55.5 55.5">
  <style>
    .st0 {
      fill: #FF5543;
    }
    .st1 {
      fill: #A112FF;
    }
    .st2 {
      fill: #00CBEC;
    }
    .text {
      fill: black;
    }
  </style>
  <g>
    <path class="st0" d="M34.8,53.8c-2.8,0.5-5.5-1.3-6-4.1L21.2,8.2c-0.5-2.8,1.3-5.5,4.1-6s5.5,1.3,6,4.1l7.6,41.5
				C39.4,50.6,37.5,53.3,34.8,53.8z" />
    <path class="st1" d="M14.9,46.7C13.1,47,11.3,46.4,10,45c-1.8-2.2-1.6-5.4,0.6-7.2l32.1-27.3c2.2-1.8,5.4-1.6,7.2,0.6
				c1.8,2.2,1.6,5.4-0.6,7.2L17.3,45.6C16.6,46.2,15.7,46.6,14.9,46.7z" />
    <path class="st2" d="M50.8,40.1c-0.9,0.2-1.8,0.1-2.6-0.2L8.4,25.8c-2.7-1-4.1-3.9-3.1-6.6s3.9-4.1,6.6-3.1l39.7,14.1
					c2.7,1,4.1,3.9,3.1,6.6C54.1,38.6,52.5,39.8,50.8,40.1z" />

  </g>
</svg>
