<svg width="16" height="16" viewBox="0 0 16 16" fill="none" xmlns="http://www.w3.org/2000/svg">
<path
    d="M7.99996 2.66663C8.7072 2.66663 9.38548 2.94758 9.88558 3.44767C10.3857 3.94777 10.6666 4.62605 10.6666 5.33329C10.6666 6.04054 10.3857 6.71881 9.88558 7.21891C9.38548 7.71901 8.7072 7.99996 7.99996 7.99996C7.29272 7.99996 6.61444 7.71901 6.11434 7.21891C5.61424 6.71881 5.33329 6.04054 5.33329 5.33329C5.33329 4.62605 5.61424 3.94777 6.11434 3.44767C6.61444 2.94758 7.29272 2.66663 7.99996 2.66663ZM7.99996 9.33329C10.9466 9.33329 13.3333 10.5266 13.3333 12V13.3333H2.66663V12C2.66663 10.5266 5.05329 9.33329 7.99996 9.33329Z"
    fill="#AFB1B3"/>
</svg>
