<svg width="16" height="17" viewBox="0 0 16 17" fill="none" xmlns="http://www.w3.org/2000/svg"> <path fill-rule="evenodd" clip-rule="evenodd" d="M8.77942 3.81909C9.33164 3.81909 9.7793 4.28914 9.7793 4.86896L9.7793 7.26867C9.7793 7.8485 9.33164 8.31854 8.77942 8.31854C8.2272 8.31854 7.77954 7.8485 7.77954 7.26867L7.77954 4.86896C7.77954 4.28914 8.2272 3.81909 8.77942 3.81909Z" fill="#AFB1B3" style="fill:#AFB1B3;fill:color(display-p3 0.6863 0.6941 0.7020);fill-opacity:1;"/> <path fill-rule="evenodd" clip-rule="evenodd" d="M0.480469 6.31873C0.480469 5.76651 0.950513 5.31885 1.53034 5.31885L3.93005 5.31885C4.50988 5.31885 4.97992 5.76651 4.97992 6.31873C4.97992 6.87094 4.50988 7.3186 3.93005 7.3186H1.53034C0.950513 7.3186 0.480469 6.87094 0.480469 6.31873Z" fill="#AFB1B3" style="fill:#AFB1B3;fill:color(display-p3 0.6863 0.6941 0.7020);fill-opacity:1;"/> <path d="M0.38563 10.0183C0.831358 9.68832 1.46292 9.77574 1.79968 10.2128L1.80273 10.2166C1.80789 10.223 1.81854 10.2359 1.83465 10.2545C1.86691 10.2918 1.92068 10.3513 1.99568 10.4257C2.14623 10.5752 2.37868 10.7814 2.69064 10.9892C3.31137 11.4025 4.23907 11.818 5.47969 11.818C6.72031 11.818 7.64801 11.4025 8.26875 10.9892C8.5807 10.7814 8.81315 10.5752 8.96371 10.4257C9.03871 10.3513 9.09247 10.2918 9.12474 10.2545C9.14084 10.2359 9.15149 10.223 9.15665 10.2166L9.15971 10.2128C9.49647 9.77574 10.128 9.68832 10.5738 10.0183C11.0213 10.3496 11.112 10.9763 10.7764 11.4181L10.7758 11.4188L10.7752 11.4196L10.7738 11.4214L10.7707 11.4254L10.7627 11.4357C10.7566 11.4435 10.7489 11.4532 10.7396 11.4647C10.7211 11.4876 10.6962 11.5176 10.665 11.5537C10.6025 11.6258 10.5144 11.7225 10.4006 11.8355C10.1735 12.061 9.84069 12.3547 9.40192 12.6469C8.52121 13.2334 7.20578 13.8177 5.47969 13.8177C3.7536 13.8177 2.43817 13.2334 1.55746 12.6469C1.04416 12.305 0.577533 11.8977 0.185545 11.4214C-0.0783701 11.0507 -0.101438 10.3788 0.38563 10.0183Z" fill="#AFB1B3" style="fill:#AFB1B3;fill:color(display-p3 0.6863 0.6941 0.7020);fill-opacity:1;"/> <path d="M15.7529 3.81909L15.5756 8.33727H13.912L13.7302 3.81909H15.7529ZM14.7438 13.2464C14.4438 13.2464 14.1862 13.1403 13.9711 12.9282C13.7559 12.713 13.6499 12.4555 13.6529 12.1555C13.6499 11.8585 13.7559 11.6039 13.9711 11.3918C14.1862 11.1797 14.4438 11.0736 14.7438 11.0736C15.0317 11.0736 15.2847 11.1797 15.5029 11.3918C15.7211 11.6039 15.8317 11.8585 15.8347 12.1555C15.8317 12.3555 15.7787 12.5388 15.6756 12.7055C15.5756 12.8691 15.4438 13.0009 15.2802 13.1009C15.1165 13.1979 14.9377 13.2464 14.7438 13.2464Z" fill="#D21C1C" style="fill:#D21C1C;fill:color(display-p3 0.8237 0.1106 0.1106);fill-opacity:1;"/> </svg>
