<svg width="13" height="13" viewBox="0 0 13 13" fill="none" xmlns="http://www.w3.org/2000/svg">
<path fill-rule="evenodd" clip-rule="evenodd" d="M9.1777 1.03619C9.73725 1.03619 10.1909 1.4904 10.1909 2.05069V4.36953C10.1909 4.92982 9.73725 5.38402 9.1777 5.38402C8.61815 5.38402 8.16455 4.92982 8.16455 4.36953V2.05069C8.16455 1.4904 8.61815 1.03619 9.1777 1.03619Z" fill="black"/>
<path fill-rule="evenodd" clip-rule="evenodd" d="M1.65137 3.64492C1.65137 3.08464 2.10497 2.63043 2.66452 2.63043H4.98031C5.53986 2.63043 5.99347 3.08464 5.99347 3.64492C5.99347 4.20521 5.53986 4.65942 4.98031 4.65942H2.66452C2.10497 4.65942 1.65137 4.20521 1.65137 3.64492Z" fill="black"/>
<path fill-rule="evenodd" clip-rule="evenodd" d="M2.81956 7.30601C2.48275 6.86258 1.85111 6.77388 1.40532 7.10866C0.957681 7.44483 0.86696 8.08072 1.20269 8.52895L2.01322 7.92025C1.20269 8.52895 1.2024 8.52856 1.20269 8.52895L1.20388 8.53053L1.20521 8.5323L1.20832 8.53641C1.21059 8.53939 1.21326 8.54287 1.21632 8.54683C1.22243 8.55475 1.23013 8.56458 1.23941 8.57621C1.25795 8.59946 1.28285 8.62991 1.3141 8.66652C1.37653 8.73968 1.46466 8.83783 1.57849 8.95249C1.80559 9.18125 2.13848 9.47926 2.57731 9.77572C3.45814 10.3708 4.77374 10.9638 6.50006 10.9638C8.22638 10.9638 9.54198 10.3708 10.4228 9.77572C10.8617 9.47926 11.1946 9.18125 11.4217 8.95249C11.5355 8.83783 11.6236 8.73968 11.6861 8.66652C11.7173 8.62991 11.7422 8.59946 11.7608 8.57621C11.77 8.56458 11.7777 8.55475 11.7838 8.54683C11.7869 8.54287 11.7896 8.53939 11.7918 8.53641L11.7949 8.5323L11.7963 8.53053L11.7969 8.52972C11.7972 8.52933 11.7975 8.52895 10.9869 7.92025L11.7969 8.52972C12.1326 8.08149 12.0425 7.44483 11.5948 7.10866C11.1491 6.77388 10.5174 6.86258 10.1806 7.306C10.18 7.30673 10.179 7.30803 10.1775 7.30987C10.1724 7.31634 10.1617 7.32948 10.1456 7.34835C10.1134 7.38615 10.0596 7.44651 9.98453 7.52207C9.83396 7.67375 9.60148 7.88299 9.28948 8.09377C8.66866 8.51319 7.74084 8.93475 6.50006 8.93475C5.25927 8.93475 4.33145 8.51319 3.71063 8.09377C3.39864 7.88299 3.16616 7.67375 3.01558 7.52207C2.94057 7.44651 2.88679 7.38615 2.85453 7.34835C2.83842 7.32948 2.82777 7.31634 2.82261 7.30987C2.82115 7.30803 2.82013 7.30674 2.81956 7.30601ZM10.177 7.31084C10.1767 7.31119 10.1764 7.31155 10.9608 7.90063L10.177 7.31084Z" fill="black"/>
</svg>
