<svg width="16" height="16" fill="none" xmlns="http://www.w3.org/2000/svg">
<path fill-rule="evenodd" clip-rule="evenodd" d="M10.7264 2.43677C11.2961 2.43677 11.7579 2.89862 11.7579 3.46835L11.7579 5.82624C11.7579 6.39597 11.2961 6.85782 10.7264 6.85782C10.1566 6.85782 9.69478 6.39597 9.69478 5.82624L9.69478 3.46835C9.69478 2.89862 10.1566 2.43677 10.7264 2.43677Z" fill="#FF5543"/>
<path fill-rule="evenodd" clip-rule="evenodd" d="M3.06323 5.08944C3.06323 4.51971 3.52509 4.05786 4.09481 4.05786L6.45271 4.05786C7.02243 4.05786 7.48428 4.51971 7.48428 5.08944C7.48428 5.65917 7.02243 6.12102 6.45271 6.12102H4.09481C3.52509 6.12102 3.06323 5.65917 3.06323 5.08944Z" fill="#A112FF"/>
<path fill-rule="evenodd" clip-rule="evenodd" d="M4.25266 8.81208C3.90974 8.36118 3.26661 8.27099 2.81272 8.61141C2.35694 8.95324 2.26457 9.59984 2.6064 10.0556C2.60897 10.059 2.60669 10.056 2.60699 10.0564L2.60761 10.0572L2.60897 10.059L2.61213 10.0632C2.61445 10.0662 2.61716 10.0698 2.62027 10.0738C2.6265 10.0818 2.63434 10.0919 2.64378 10.1037C2.66267 10.1273 2.68802 10.1583 2.71983 10.1955C2.7834 10.2699 2.87314 10.3697 2.98903 10.4863C3.22026 10.7189 3.55921 11.0219 4.00602 11.3234C4.90286 11.9285 6.24238 12.5314 8.00009 12.5314C9.75779 12.5314 11.0973 11.9285 11.9942 11.3234C12.441 11.0219 12.7799 10.7189 13.0111 10.4863C13.127 10.3697 13.2168 10.2699 13.2803 10.1955C13.3122 10.1583 13.3375 10.1273 13.3564 10.1037C13.3658 10.0919 13.3863 10.0653 13.3926 10.0572C13.3957 10.0532 13.3938 10.0556 13.388 10.0632L13.3912 10.059L13.3926 10.0572L13.3932 10.0564C13.3935 10.056 13.3912 10.059 13.3926 10.0572L13.3938 10.0556C13.7356 9.59984 13.6432 8.95324 13.1875 8.61141C12.7336 8.27099 12.0904 8.36118 11.7475 8.81207C11.7469 8.81281 11.7459 8.81413 11.7444 8.816C11.7391 8.82258 11.7283 8.83594 11.7119 8.85513C11.679 8.89357 11.6243 8.95495 11.5479 9.03178C11.3946 9.18601 11.1579 9.39878 10.8402 9.61311C10.2081 10.0396 9.26343 10.4682 8.00009 10.4682C6.73674 10.4682 5.79205 10.0396 5.15994 9.61311C4.84228 9.39878 4.60557 9.18601 4.45226 9.03178C4.37588 8.95495 4.32113 8.89357 4.28827 8.85513C4.27188 8.83594 4.26103 8.82258 4.25578 8.816C4.25429 8.81414 4.25325 8.81282 4.25266 8.81208ZM11.7444 8.81612L11.7443 8.8163L11.7438 8.81699C11.7435 8.81735 11.7432 8.81772 11.7432 8.81772C11.7436 8.81719 11.744 8.81665 11.7444 8.81612Z" fill="#00CBEC"/>
</svg>
