<svg width="16" height="16" viewBox="0 0 13 14" fill="none" xmlns="http://www.w3.org/2000/svg">
    <path fill-rule="evenodd" clip-rule="evenodd"
          d="M11.5262 8.62621L10.3251 7.7645C10.3743 7.51729 10.4 7.26165 10.4 7C10.4 6.73835 10.3742 6.48271 10.3251 6.2355L11.5262 5.37378C11.295 4.65886 10.9156 4.01062 10.4241 3.46534L9.07731 4.0729C8.694 3.73513 8.24382 3.47148 7.74918 3.30434L7.60244 1.83398C7.24687 1.75848 6.87808 1.71875 6.50002 1.71875C6.12195 1.71875 5.75316 1.75848 5.3976 1.83398L5.25086 3.30434C4.75621 3.47148 4.30603 3.73513 3.92272 4.0729L2.57595 3.46534C2.08447 4.01062 1.70502 4.65886 1.47388 5.37378L2.67492 6.2355C2.62578 6.48271 2.60002 6.73835 2.60002 7C2.60002 7.26165 2.62578 7.51729 2.67492 7.7645L1.47388 8.62621C1.70502 9.34114 2.08447 9.98938 2.57595 10.5347L3.92272 9.9271C4.30603 10.2649 4.75621 10.5285 5.25086 10.6957L5.3976 12.166C5.75316 12.2415 6.12195 12.2812 6.50002 12.2812C6.87808 12.2812 7.24687 12.2415 7.60244 12.166L7.74918 10.6957C8.24382 10.5285 8.694 10.2649 9.07731 9.9271L10.4241 10.5347C10.9156 9.98938 11.295 9.34114 11.5262 8.62621ZM8.36877 7.00016C8.36877 8.03233 7.5321 8.86907 6.50002 8.86907C5.46793 8.86907 4.63127 8.03233 4.63127 7.00016C4.63127 5.96799 5.46793 5.13125 6.50002 5.13125C7.5321 5.13125 8.36877 5.96799 8.36877 7.00016Z"
          fill="#AFB1B3"/>
</svg>
