<svg width="151" height="76" viewBox="0 0 151 76" fill="none" xmlns="http://www.w3.org/2000/svg">
<g filter="url(#filter0_d_244_215)">
<path fill-rule="evenodd" clip-rule="evenodd" d="M33.6366 32C35.783 32 37.5229 33.74 37.5229 35.8864L37.5229 42.7954C37.5229 44.9418 35.783 46.6818 33.6366 46.6818C31.4902 46.6818 29.7502 44.9418 29.7502 42.7954L29.7502 35.8864C29.7502 33.74 31.4902 32 33.6366 32Z" fill="url(#paint0_linear_244_215)"/>
<path fill-rule="evenodd" clip-rule="evenodd" d="M9.02271 41.0681C9.02271 38.9217 10.7627 37.1818 12.9091 37.1818H19.8181C21.9645 37.1818 23.7045 38.9217 23.7045 41.0681C23.7045 43.2145 21.9645 44.9545 19.8181 44.9545H12.9091C10.7627 44.9545 9.02271 43.2145 9.02271 41.0681Z" fill="url(#paint1_linear_244_215)"/>
<path fill-rule="evenodd" clip-rule="evenodd" d="M42.9248 52.3819C44.308 53.696 44.3641 55.8825 43.05 57.2658L41.8272 58.5529C32.2589 68.6248 16.1277 68.3738 6.87725 58.0092C5.60684 56.5858 5.73089 54.402 7.15431 53.1316C8.57773 51.8612 10.7615 51.9853 12.0319 53.4087C18.5922 60.7592 30.0324 60.9372 36.8182 53.7942L38.0409 52.5071C39.355 51.1239 41.5415 51.0679 42.9248 52.3819Z" fill="#00CBEC"/>
<path fill-rule="evenodd" clip-rule="evenodd" d="M42.9248 52.3819C44.308 53.696 44.3641 55.8825 43.05 57.2658L41.8272 58.5529C32.2589 68.6248 16.1277 68.3738 6.87725 58.0092C5.60684 56.5858 5.73089 54.402 7.15431 53.1316C8.57773 51.8612 10.7615 51.9853 12.0319 53.4087C18.5922 60.7592 30.0324 60.9372 36.8182 53.7942L38.0409 52.5071C39.355 51.1239 41.5415 51.0679 42.9248 52.3819Z" fill="url(#paint2_linear_244_215)"/>
</g>
<g filter="url(#filter1_d_244_215)">
<mask id="path-4-inside-1_244_215" fill="white">
<path fill-rule="evenodd" clip-rule="evenodd" d="M59.5579 29.7861C55.6693 32.0165 51.1297 33.0182 49 33.2548C55.6753 27.9848 55.1483 17.0057 55.1483 17.0057L55.3774 17.3638C56.5413 11.1434 61.9998 6.43556 68.5579 6.43556H126.991C134.396 6.43556 140.4 12.4393 140.4 19.8452C140.4 27.2511 134.396 33.2548 126.991 33.2548H68.5579C65.0943 33.2548 61.9374 31.9417 59.5579 29.7861Z"/>
</mask>
<path fill-rule="evenodd" clip-rule="evenodd" d="M59.5579 29.7861C55.6693 32.0165 51.1297 33.0182 49 33.2548C55.6753 27.9848 55.1483 17.0057 55.1483 17.0057L55.3774 17.3638C56.5413 11.1434 61.9998 6.43556 68.5579 6.43556H126.991C134.396 6.43556 140.4 12.4393 140.4 19.8452C140.4 27.2511 134.396 33.2548 126.991 33.2548H68.5579C65.0943 33.2548 61.9374 31.9417 59.5579 29.7861Z" fill="#212121" fill-opacity="0.5"/>
<path fill-rule="evenodd" clip-rule="evenodd" d="M59.5579 29.7861C55.6693 32.0165 51.1297 33.0182 49 33.2548C55.6753 27.9848 55.1483 17.0057 55.1483 17.0057L55.3774 17.3638C56.5413 11.1434 61.9998 6.43556 68.5579 6.43556H126.991C134.396 6.43556 140.4 12.4393 140.4 19.8452C140.4 27.2511 134.396 33.2548 126.991 33.2548H68.5579C65.0943 33.2548 61.9374 31.9417 59.5579 29.7861Z" fill="url(#paint3_linear_244_215)"/>
<path d="M59.5579 29.7861L60.2293 29.0449L59.6908 28.5571L59.0604 28.9186L59.5579 29.7861ZM49 33.2548L48.3804 32.4699L45.6386 34.6344L49.1104 34.2487L49 33.2548ZM55.1483 17.0057L55.9906 16.4667L53.9697 13.3091L54.1494 17.0537L55.1483 17.0057ZM55.3774 17.3638L54.5352 17.9028L55.8961 20.0293L56.3604 17.5477L55.3774 17.3638ZM59.0604 28.9186C55.3214 31.0632 50.9231 32.035 48.8896 32.2609L49.1104 34.2487C51.3363 34.0014 56.0171 32.9698 60.0555 30.6535L59.0604 28.9186ZM49.6196 34.0397C53.2277 31.1912 54.8346 26.8541 55.5567 23.3562C55.9209 21.5924 56.0684 20.0024 56.1251 18.8529C56.1535 18.2773 56.1593 17.8098 56.1579 17.4834C56.1572 17.3201 56.1546 17.192 56.1522 17.103C56.151 17.0586 56.1498 17.0239 56.1489 16.9995C56.1484 16.9873 56.148 16.9777 56.1477 16.9707C56.1476 16.9673 56.1475 16.9644 56.1474 16.9623C56.1473 16.9612 56.1473 16.9603 56.1472 16.9595C56.1472 16.9591 56.1472 16.9587 56.1472 16.9585C56.1472 16.9581 56.1471 16.9578 55.1483 17.0057C54.1494 17.0537 54.1494 17.0534 54.1494 17.0532C54.1494 17.0532 54.1494 17.053 54.1494 17.0529C54.1494 17.0529 54.1494 17.053 54.1494 17.0532C54.1494 17.0537 54.1495 17.0549 54.1496 17.0567C54.1497 17.0603 54.15 17.0665 54.1503 17.0753C54.151 17.0928 54.1519 17.1204 54.153 17.1576C54.155 17.2321 54.1573 17.345 54.1579 17.4922C54.1592 17.7868 54.154 18.2182 54.1276 18.7542C54.0745 19.828 53.9366 21.3122 53.598 22.9518C52.9149 26.261 51.4476 30.0484 48.3804 32.4699L49.6196 34.0397ZM54.306 17.5448L54.5352 17.9028L56.2197 16.8247L55.9906 16.4667L54.306 17.5448ZM56.3604 17.5477C57.4373 11.7917 62.49 7.43556 68.5579 7.43556V5.43556C61.5097 5.43556 55.6452 10.495 54.3945 17.1799L56.3604 17.5477ZM68.5579 7.43556H126.991V5.43556H68.5579V7.43556ZM126.991 7.43556C133.844 7.43556 139.4 12.9915 139.4 19.8452H141.4C141.4 11.887 134.949 5.43556 126.991 5.43556V7.43556ZM139.4 19.8452C139.4 26.6988 133.844 32.2548 126.991 32.2548V34.2548C134.949 34.2548 141.4 27.8034 141.4 19.8452H139.4ZM126.991 32.2548H68.5579V34.2548H126.991V32.2548ZM68.5579 32.2548C65.352 32.2548 62.4321 31.0404 60.2293 29.0449L58.8866 30.5272C61.4428 32.8429 64.8366 34.2548 68.5579 34.2548V32.2548Z" fill="black" fill-opacity="0.1" mask="url(#path-4-inside-1_244_215)"/>
</g>
<path d="M67.5776 23.8452V15.8452H68.7847V19.3217H72.7729V15.8452H73.9839V23.8452H72.7729V20.3569H68.7847V23.8452H67.5776ZM75.6479 23.8452V17.8452H76.8159V23.8452H75.6479ZM76.2378 16.9194C76.0347 16.9194 75.8602 16.8517 75.7144 16.7163C75.5711 16.5783 75.4995 16.4142 75.4995 16.2241C75.4995 16.0314 75.5711 15.8673 75.7144 15.7319C75.8602 15.5939 76.0347 15.5249 76.2378 15.5249C76.4409 15.5249 76.6141 15.5939 76.7573 15.7319C76.9032 15.8673 76.9761 16.0314 76.9761 16.2241C76.9761 16.4142 76.9032 16.5783 76.7573 16.7163C76.6141 16.8517 76.4409 16.9194 76.2378 16.9194ZM79.8599 15.8452L79.7583 21.5444H78.6763L78.5747 15.8452H79.8599ZM79.2192 23.9194C79.0031 23.9194 78.8182 23.8439 78.6646 23.6928C78.5109 23.5392 78.4354 23.3543 78.438 23.1382C78.4354 22.9246 78.5109 22.7423 78.6646 22.5913C78.8182 22.4376 79.0031 22.3608 79.2192 22.3608C79.4302 22.3608 79.6125 22.4376 79.7661 22.5913C79.9198 22.7423 79.9979 22.9246 80.0005 23.1382C79.9979 23.2814 79.9601 23.4129 79.8872 23.5327C79.8169 23.6499 79.7231 23.7436 79.606 23.8139C79.4888 23.8842 79.3599 23.9194 79.2192 23.9194ZM85.8325 15.8452V23.8452H84.6255V15.8452H85.8325ZM88.5005 15.8452V16.5952C88.5005 16.8165 88.4588 17.0496 88.3755 17.2944C88.2948 17.5366 88.1802 17.7697 88.0317 17.9936C87.8833 18.2176 87.7088 18.4103 87.5083 18.5717L86.9302 18.1577C87.0838 17.9337 87.2166 17.6954 87.3286 17.4428C87.4432 17.1902 87.5005 16.9116 87.5005 16.6069V15.8452H88.5005ZM89.4517 23.8452V17.8452H90.5728V18.8217H90.647C90.772 18.491 90.9764 18.2332 91.2603 18.0483C91.5441 17.8608 91.884 17.7671 92.2798 17.7671C92.6808 17.7671 93.0168 17.8608 93.2876 18.0483C93.561 18.2358 93.7629 18.4936 93.8931 18.8217H93.9556C94.0988 18.5014 94.3267 18.2462 94.6392 18.0561C94.9517 17.8634 95.3241 17.7671 95.7563 17.7671C96.3006 17.7671 96.7446 17.9376 97.0884 18.2788C97.4347 18.6199 97.6079 19.1342 97.6079 19.8217V23.8452H96.4399V19.9311C96.4399 19.5249 96.3293 19.2306 96.1079 19.0483C95.8866 18.866 95.6222 18.7749 95.3149 18.7749C94.9347 18.7749 94.6392 18.8921 94.4282 19.1264C94.2173 19.3582 94.1118 19.6564 94.1118 20.021V23.8452H92.9478V19.8569C92.9478 19.5314 92.8462 19.2697 92.6431 19.0717C92.4399 18.8738 92.1756 18.7749 91.8501 18.7749C91.6287 18.7749 91.4243 18.8335 91.2368 18.9507C91.0519 19.0652 90.9022 19.2254 90.7876 19.4311C90.6756 19.6369 90.6196 19.8751 90.6196 20.146V23.8452H89.4517ZM108.823 18.4467H107.604C107.557 18.1863 107.47 17.9572 107.342 17.7592C107.215 17.5613 107.058 17.3934 106.874 17.2553C106.689 17.1173 106.482 17.0132 106.252 16.9428C106.026 16.8725 105.785 16.8374 105.53 16.8374C105.069 16.8374 104.656 16.9533 104.292 17.185C103.93 17.4168 103.643 17.7566 103.432 18.2046C103.224 18.6525 103.12 19.1994 103.12 19.8452C103.12 20.4962 103.224 21.0457 103.432 21.4936C103.643 21.9415 103.931 22.2801 104.295 22.5092C104.66 22.7384 105.07 22.853 105.526 22.853C105.778 22.853 106.018 22.8191 106.245 22.7514C106.474 22.6811 106.681 22.5783 106.866 22.4428C107.051 22.3074 107.207 22.1421 107.334 21.9467C107.465 21.7488 107.555 21.5223 107.604 21.2671L108.823 21.271C108.758 21.6642 108.631 22.0262 108.444 22.3569C108.259 22.685 108.021 22.9689 107.729 23.2085C107.44 23.4454 107.109 23.629 106.737 23.7592C106.364 23.8895 105.958 23.9546 105.518 23.9546C104.825 23.9546 104.208 23.7905 103.667 23.4624C103.125 23.1316 102.698 22.659 102.385 22.0444C102.075 21.4298 101.92 20.6967 101.92 19.8452C101.92 18.991 102.077 18.2579 102.389 17.646C102.702 17.0314 103.129 16.56 103.67 16.2319C104.212 15.9012 104.828 15.7358 105.518 15.7358C105.943 15.7358 106.338 15.797 106.706 15.9194C107.075 16.0392 107.407 16.2163 107.702 16.4507C107.996 16.6824 108.239 16.9663 108.432 17.3022C108.625 17.6355 108.755 18.0171 108.823 18.4467ZM112.701 23.9663C112.138 23.9663 111.647 23.8374 111.228 23.5796C110.809 23.3217 110.483 22.9611 110.251 22.4975C110.02 22.034 109.904 21.4923 109.904 20.8725C109.904 20.2501 110.02 19.7059 110.251 19.2397C110.483 18.7736 110.809 18.4116 111.228 18.1538C111.647 17.896 112.138 17.7671 112.701 17.7671C113.263 17.7671 113.754 17.896 114.173 18.1538C114.593 18.4116 114.918 18.7736 115.15 19.2397C115.382 19.7059 115.498 20.2501 115.498 20.8725C115.498 21.4923 115.382 22.034 115.15 22.4975C114.918 22.9611 114.593 23.3217 114.173 23.5796C113.754 23.8374 113.263 23.9663 112.701 23.9663ZM112.705 22.9858C113.069 22.9858 113.371 22.8895 113.611 22.6967C113.85 22.504 114.028 22.2475 114.142 21.9272C114.259 21.6069 114.318 21.254 114.318 20.8686C114.318 20.4858 114.259 20.1342 114.142 19.8139C114.028 19.491 113.85 19.2319 113.611 19.0366C113.371 18.8413 113.069 18.7436 112.705 18.7436C112.337 18.7436 112.033 18.8413 111.791 19.0366C111.551 19.2319 111.373 19.491 111.255 19.8139C111.141 20.1342 111.083 20.4858 111.083 20.8686C111.083 21.254 111.141 21.6069 111.255 21.9272C111.373 22.2475 111.551 22.504 111.791 22.6967C112.033 22.8895 112.337 22.9858 112.705 22.9858ZM119.047 23.9624C118.563 23.9624 118.131 23.8387 117.75 23.5913C117.373 23.3413 117.076 22.9858 116.86 22.5249C116.646 22.0613 116.54 21.5053 116.54 20.8569C116.54 20.2085 116.648 19.6538 116.864 19.1928C117.083 18.7319 117.382 18.379 117.762 18.1342C118.142 17.8895 118.573 17.7671 119.055 17.7671C119.428 17.7671 119.727 17.8296 119.954 17.9546C120.183 18.077 120.36 18.2202 120.485 18.3842C120.612 18.5483 120.711 18.6928 120.782 18.8178H120.852V15.8452H122.02V23.8452H120.879V22.9116H120.782C120.711 23.0392 120.61 23.185 120.477 23.3491C120.347 23.5132 120.167 23.6564 119.938 23.7788C119.709 23.9012 119.412 23.9624 119.047 23.9624ZM119.305 22.9663C119.641 22.9663 119.925 22.8777 120.157 22.7007C120.391 22.521 120.568 22.2723 120.688 21.9546C120.81 21.6369 120.872 21.2671 120.872 20.8452C120.872 20.4285 120.812 20.0639 120.692 19.7514C120.572 19.4389 120.396 19.1954 120.165 19.021C119.933 18.8465 119.646 18.7592 119.305 18.7592C118.954 18.7592 118.661 18.8504 118.426 19.0327C118.192 19.215 118.015 19.4637 117.895 19.7788C117.778 20.0939 117.719 20.4494 117.719 20.8452C117.719 21.2462 117.779 21.6069 117.899 21.9272C118.019 22.2475 118.196 22.5014 118.43 22.6889C118.667 22.8738 118.959 22.9663 119.305 22.9663ZM124.425 26.0952C124.251 26.0952 124.092 26.0809 123.949 26.0522C123.806 26.0262 123.699 25.9975 123.628 25.9663L123.91 25.0092C124.123 25.0665 124.313 25.0913 124.48 25.0835C124.647 25.0757 124.794 25.0132 124.921 24.896C125.052 24.7788 125.166 24.5874 125.265 24.3217L125.41 23.9233L123.214 17.8452H124.464L125.984 22.5014H126.046L127.566 17.8452H128.82L126.347 24.646C126.233 24.9585 126.087 25.2228 125.91 25.4389C125.733 25.6577 125.522 25.8217 125.277 25.9311C125.032 26.0405 124.748 26.0952 124.425 26.0952Z" fill="#EFF2F5"/>
<defs>
<filter id="filter0_d_244_215" x="0" y="30" width="50" height="45.9476" filterUnits="userSpaceOnUse" color-interpolation-filters="sRGB">
<feFlood flood-opacity="0" result="BackgroundImageFix"/>
<feColorMatrix in="SourceAlpha" type="matrix" values="0 0 0 0 0 0 0 0 0 0 0 0 0 0 0 0 0 0 127 0" result="hardAlpha"/>
<feOffset dy="4"/>
<feGaussianBlur stdDeviation="3"/>
<feComposite in2="hardAlpha" operator="out"/>
<feColorMatrix type="matrix" values="0 0 0 0 0 0 0 0 0 0 0 0 0 0 0 0 0 0 0.15 0"/>
<feBlend mode="normal" in2="BackgroundImageFix" result="effect1_dropShadow_244_215"/>
<feBlend mode="normal" in="SourceGraphic" in2="effect1_dropShadow_244_215" result="shape"/>
</filter>
<filter id="filter1_d_244_215" x="39" y="0.435562" width="111.4" height="46.8192" filterUnits="userSpaceOnUse" color-interpolation-filters="sRGB">
<feFlood flood-opacity="0" result="BackgroundImageFix"/>
<feColorMatrix in="SourceAlpha" type="matrix" values="0 0 0 0 0 0 0 0 0 0 0 0 0 0 0 0 0 0 127 0" result="hardAlpha"/>
<feOffset dy="4"/>
<feGaussianBlur stdDeviation="5"/>
<feComposite in2="hardAlpha" operator="out"/>
<feColorMatrix type="matrix" values="0 0 0 0 0.0125 0 0 0 0 0.0125 0 0 0 0 0.0125 0 0 0 0.15 0"/>
<feBlend mode="normal" in2="BackgroundImageFix" result="effect1_dropShadow_244_215"/>
<feBlend mode="normal" in="SourceGraphic" in2="effect1_dropShadow_244_215" result="shape"/>
</filter>
<linearGradient id="paint0_linear_244_215" x1="37.5229" y1="39.3409" x2="29.7502" y2="39.3409" gradientUnits="userSpaceOnUse">
<stop stop-color="#FF5543"/>
<stop offset="1" stop-color="#EB2E1A"/>
</linearGradient>
<linearGradient id="paint1_linear_244_215" x1="16.3636" y1="37.1818" x2="16.3636" y2="44.9545" gradientUnits="userSpaceOnUse">
<stop stop-color="#A112FF"/>
<stop offset="1" stop-color="#7B0BC4"/>
</linearGradient>
<linearGradient id="paint2_linear_244_215" x1="25" y1="51.4319" x2="25" y2="65.9476" gradientUnits="userSpaceOnUse">
<stop stop-color="#01C9EA"/>
<stop offset="0.633682" stop-color="#32B5FF"/>
<stop offset="1" stop-color="#12C3ED"/>
</linearGradient>
<linearGradient id="paint3_linear_244_215" x1="99.1638" y1="-1" x2="99.1638" y2="33.2548" gradientUnits="userSpaceOnUse">
<stop stop-color="white" stop-opacity="0.26"/>
<stop offset="0.692739" stop-color="#D9D9D9" stop-opacity="0"/>
<stop offset="0.911493" stop-color="#C9C8C8" stop-opacity="0.0885074"/>
</linearGradient>
</defs>
</svg>
