<svg width="20" height="21" viewBox="0 0 20 21" fill="none" xmlns="http://www.w3.org/2000/svg">
<path d="M1.99147 2.35303L0.924805 3.41136L3.50814 5.99469C3.3998 6.23636 3.33314 6.48636 3.33314 6.74469V15.078C3.33314 16.9197 6.3248 18.4114 9.99981 18.4114C11.9165 18.4114 13.6498 17.9947 14.8665 17.353L17.3665 19.853L18.4248 18.7947L1.99147 2.35303ZM4.9998 8.94469C5.63314 9.30303 6.41647 9.59469 7.29981 9.78636L10.0915 12.578H9.99981C7.98314 12.578 6.08314 12.078 4.9998 11.2864V8.94469ZM9.99981 16.7447C6.77481 16.7447 4.9998 15.4947 4.9998 15.078V13.2197C6.34147 13.8697 8.0998 14.2447 9.99981 14.2447C10.5665 14.2447 11.1165 14.203 11.6665 14.1364L13.6165 16.103C12.7748 16.453 11.5581 16.7447 9.99981 16.7447ZM7.19981 5.44469L5.88314 4.12803C7.01647 3.68636 8.44147 3.41136 9.99981 3.41136C13.6831 3.41136 16.6665 4.90303 16.6665 6.74469V14.9114L14.9998 13.2447V13.2197V13.228L13.7081 11.953C14.2081 11.7697 14.6498 11.5447 14.9998 11.2864V8.94469C14.1415 9.42803 13.0081 9.78636 11.7165 9.96136L10.1581 8.41136C13.2831 8.36136 14.9998 7.16136 14.9998 6.74469C14.9998 6.32803 13.2248 5.07803 9.99981 5.07803C8.88314 5.07803 7.94981 5.22803 7.19981 5.44469Z" fill="#C9CCD6" style="fill:#C9CCD6;fill:color(display-p3 0.7882 0.8000 0.8392);fill-opacity:1;"/>
</svg>
