<svg width="19" height="19" viewBox="0 0 19 19" fill="none" xmlns="http://www.w3.org/2000/svg">
<path d="M15.8333 10.3629V5.54167C15.8333 3.79208 12.9991 2.375 9.49996 2.375C6.00079 2.375 3.16663 3.79208 3.16663 5.54167V13.4583C3.16663 15.2079 6.00871 16.625 9.49996 16.625C9.86413 16.625 10.2125 16.625 10.5529 16.5775C10.381 16.0836 10.2927 15.5646 10.2916 15.0417V15.0021C10.0383 15.0417 9.77704 15.0417 9.49996 15.0417C6.43621 15.0417 4.74996 13.8542 4.74996 13.4583V11.6929C6.02454 12.3104 7.69496 12.6667 9.49996 12.6667C10.0145 12.6667 10.5054 12.635 10.9883 12.5796C11.41 11.8817 12.0047 11.3045 12.7147 10.9037C13.4248 10.5029 14.2263 10.2921 15.0416 10.2917C15.3108 10.2917 15.572 10.3233 15.8333 10.3629ZM14.25 9.85625C13.2208 10.6083 11.4158 11.0833 9.49996 11.0833C7.58413 11.0833 5.77913 10.6083 4.74996 9.85625V7.63167C5.91371 8.28875 7.60788 8.70833 9.49996 8.70833C11.392 8.70833 13.0862 8.28875 14.25 7.63167V9.85625ZM9.49996 7.125C6.43621 7.125 4.74996 5.9375 4.74996 5.54167C4.74996 5.14583 6.43621 3.95833 9.49996 3.95833C12.5637 3.95833 14.25 5.14583 14.25 5.54167C14.25 5.9375 12.5637 7.125 9.49996 7.125ZM17.8125 13.6562L14.052 17.4167L11.875 15.0417L12.7933 14.1233L14.052 15.3821L16.8941 12.54L17.8125 13.6562Z" fill="#CCCCCC"/>
</svg>
