<svg width="19" height="19" viewBox="0 0 19 19" fill="none" xmlns="http://www.w3.org/2000/svg">
<path d="M1.89212 1.36963L0.878784 2.37505L3.33295 4.82921C3.23003 5.0588 3.1667 5.2963 3.1667 5.54171V13.4584C3.1667 15.208 6.00878 16.625 9.50003 16.625C11.3209 16.625 12.9675 16.2292 14.1234 15.6196L16.4984 17.9946L17.5038 16.9892L1.89212 1.36963ZM4.75003 7.63171C5.3517 7.97213 6.09587 8.24921 6.93503 8.4313L9.58712 11.0834H9.50003C7.5842 11.0834 5.7792 10.6084 4.75003 9.8563V7.63171ZM9.50003 15.0417C6.43628 15.0417 4.75003 13.8542 4.75003 13.4584V11.693C6.02462 12.3105 7.69503 12.6667 9.50003 12.6667C10.0384 12.6667 10.5609 12.6271 11.0834 12.5638L12.9359 14.4321C12.1363 14.7646 10.9805 15.0417 9.50003 15.0417ZM6.84003 4.30671L5.5892 3.05588C6.66587 2.6363 8.01962 2.37505 9.50003 2.37505C12.9992 2.37505 15.8334 3.79213 15.8334 5.54171V13.3L14.25 11.7167V11.693V11.7009L13.023 10.4896C13.498 10.3155 13.9175 10.1017 14.25 9.8563V7.63171C13.4346 8.09088 12.358 8.43129 11.1309 8.59755L9.65045 7.12505C12.6192 7.07755 14.25 5.93755 14.25 5.54171C14.25 5.14588 12.5638 3.95838 9.50003 3.95838C8.4392 3.95838 7.55253 4.10088 6.84003 4.30671Z" fill="#F14C4C"/>
</svg>
