<?xml version="1.0" encoding="utf-8"?>
<!-- Generator: Adobe Illustrator 25.2.1, SVG Export Plug-In . SVG Version: 6.00 Build 0)  -->
<svg version="1.1" id="Layer_1" xmlns="http://www.w3.org/2000/svg" x="0px" y="0px"
	 viewBox="0 0 53.4 55.5" style="enable-background:new 0 0 53.4 55.5;" xml:space="preserve">
<style type="text/css">
	.st0{fill:#FFFFFF;}
	.st1{fill:#FF5543;}
	.st2{fill:#A112FF;}
	.st3{fill:#00CBEC;}
</style>
	<g>
	<g>
		<path class="st1" d="M31.5,53.5c-2.8,0.5-5.5-1.3-6-4.1L17.8,7.9c-0.5-2.8,1.3-5.5,4.1-6s5.5,1.3,6,4.1l7.6,41.5
			C36.1,50.3,34.2,53,31.5,53.5z"/>
	</g>
		<g>
		<path class="st2" d="M11.6,46.5c-1.7,0.3-3.6-0.3-4.8-1.7c-1.8-2.2-1.6-5.4,0.6-7.2l32.1-27.3c2.2-1.8,5.4-1.6,7.2,0.6
			c1.8,2.2,1.6,5.4-0.6,7.2L14,45.3C13.3,45.9,12.4,46.3,11.6,46.5z"/>
	</g>
		<g>
		<g>
			<path class="st3" d="M47.5,39.8c-0.9,0.2-1.8,0.1-2.6-0.2L5.1,25.5c-2.7-1-4.1-3.9-3.1-6.6s3.9-4.1,6.6-3.1L48.3,30
				c2.7,1,4.1,3.9,3.1,6.6C50.8,38.3,49.2,39.5,47.5,39.8z"/>
		</g>
	</g>
</g>
</svg>
