<svg height="64" viewBox="0 0 451 459" fill="none" xmlns="http://www.w3.org/2000/svg">
    <path fill-rule="evenodd" clip-rule="evenodd" d="M149.314 250.377L43.7803 215.417C21.0244 207.862 8.67477 183.272 16.2117 160.462C23.7304 137.651 48.2661 125.302 71.022 132.82L162.251 163.054L136.558 68.9829C130.22 45.8093 143.841 21.8911 166.942 15.5528C190.061 9.21456 213.925 22.8536 220.263 46.0091L246.168 140.845L310.869 67.6756C326.778 49.696 354.183 48.0434 372.126 63.9707C390.07 79.898 391.722 107.376 375.831 125.355L301.646 209.251L407.221 244.239C429.959 251.758 442.327 276.348 434.79 299.158C427.253 321.951 402.717 334.336 379.962 326.781L288.7 296.55L314.41 390.672C320.73 413.827 307.128 437.745 284.009 444.102C260.889 450.422 237.026 436.783 230.687 413.627L204.785 318.79L140.099 391.943C124.208 409.923 96.7849 411.593 78.8417 395.666C60.8984 379.739 59.2458 352.243 75.1368 334.263L149.314 250.377Z" fill="white"/>
    <path d="M43.7803 215.417L39.6841 227.755L39.6923 227.758L43.7803 215.417ZM149.314 250.377L159.053 258.988L172.102 244.231L153.402 238.036L149.314 250.377ZM16.2117 160.462L28.5553 164.54L28.5582 164.531L16.2117 160.462ZM71.022 132.82L75.1116 120.48L75.1005 120.477L71.022 132.82ZM162.251 163.054L158.161 175.394L181.181 183.023L174.792 159.629L162.251 163.054ZM136.558 68.9829L149.099 65.5578L149.098 65.5533L136.558 68.9829ZM166.942 15.5528L163.505 3.01543L163.502 3.01612L166.942 15.5528ZM220.263 46.0091L232.804 42.5835L232.802 42.5769L220.263 46.0091ZM246.168 140.845L233.628 144.27L239.968 167.482L255.907 149.456L246.168 140.845ZM310.869 67.6756L301.133 59.0608L301.13 59.0641L310.869 67.6756ZM372.126 63.9707L363.496 73.693V73.693L372.126 63.9707ZM375.831 125.355L385.57 133.967L385.572 133.965L375.831 125.355ZM301.646 209.251L291.908 200.639L278.86 215.394L297.557 221.591L301.646 209.251ZM407.221 244.239L403.132 256.579L403.14 256.582L407.221 244.239ZM434.79 299.158L447.133 303.24L447.134 303.237L434.79 299.158ZM379.962 326.781L384.058 314.444L384.049 314.441L379.962 326.781ZM288.7 296.55L292.788 284.21L269.77 276.585L276.16 299.976L288.7 296.55ZM314.41 390.672L326.952 387.249L326.951 387.246L314.41 390.672ZM284.009 444.102L287.437 456.642L287.446 456.639L287.455 456.637L284.009 444.102ZM230.687 413.627L218.147 417.052L218.149 417.059L230.687 413.627ZM204.785 318.79L217.326 315.365L210.986 292.152L195.047 310.178L204.785 318.79ZM140.099 391.943L130.361 383.332L130.359 383.334L140.099 391.943ZM75.1368 334.263L65.3981 325.652L65.3961 325.654L75.1368 334.263ZM39.6923 227.758L145.226 262.717L153.402 238.036L47.8683 203.077L39.6923 227.758ZM3.868 156.383C-5.91561 185.993 10.1106 217.936 39.6841 227.755L47.8765 203.079C31.9382 197.788 23.2652 180.551 28.5553 164.54L3.868 156.383ZM75.1005 120.477C45.5191 110.703 13.6309 126.764 3.86508 156.392L28.5582 164.531C33.8298 148.538 51.0131 139.9 66.9436 145.164L75.1005 120.477ZM166.34 150.714L75.1116 120.48L66.9325 145.16L158.161 175.394L166.34 150.714ZM174.792 159.629L149.099 65.5578L124.018 72.4081L149.71 166.479L174.792 159.629ZM149.098 65.5533C144.647 49.2829 154.219 32.5241 170.382 28.0895L163.502 3.01612C133.463 11.258 115.792 42.3357 124.019 72.4126L149.098 65.5533ZM170.379 28.0902C186.548 23.6574 203.275 33.1884 207.724 49.4412L232.802 42.5769C224.574 12.5188 193.574 -5.22832 163.505 3.01543L170.379 28.0902ZM207.722 49.4346L233.628 144.27L258.709 137.419L232.804 42.5835L207.722 49.4346ZM255.907 149.456L320.607 76.2871L301.13 59.0641L236.429 132.233L255.907 149.456ZM320.605 76.2903C331.753 63.6915 350.931 62.5391 363.496 73.693L380.756 54.2484C357.435 33.5476 321.803 35.7006 301.133 59.0608L320.605 76.2903ZM363.496 73.693C376.073 84.8565 377.239 104.133 366.09 116.746L385.572 133.965C406.206 110.619 404.066 74.9396 380.756 54.2484L363.496 73.693ZM366.092 116.744L291.908 200.639L311.385 217.862L385.57 133.967L366.092 116.744ZM411.311 231.899L305.736 196.911L297.557 221.591L403.132 256.579L411.311 231.899ZM447.134 303.237C456.917 273.626 440.872 241.674 411.303 231.896L403.14 256.582C419.046 261.841 427.736 279.069 422.446 295.08L447.134 303.237ZM375.865 339.119C405.476 348.95 437.351 332.82 447.133 303.24L422.447 295.077C417.155 311.082 399.959 319.723 384.058 314.444L375.865 339.119ZM284.612 308.891L375.874 339.122L384.049 314.441L292.788 284.21L284.612 308.891ZM276.16 299.976L301.87 394.097L326.951 387.246L301.241 293.124L276.16 299.976ZM301.869 394.095C306.306 410.351 296.75 427.116 280.562 431.567L287.455 456.637C317.506 448.374 335.155 417.303 326.952 387.249L301.869 394.095ZM280.581 431.562C264.405 435.984 247.675 426.447 243.226 410.195L218.149 417.059C226.377 447.118 257.374 464.86 287.437 456.642L280.581 431.562ZM243.228 410.202L217.326 315.365L192.245 322.215L218.147 417.052L243.228 410.202ZM195.047 310.178L130.361 383.332L149.838 400.555L214.524 327.401L195.047 310.178ZM130.359 383.334C119.226 395.93 100.033 397.094 87.4717 385.944L70.2117 405.388C93.5367 426.093 129.191 423.915 149.84 400.552L130.359 383.334ZM87.4717 385.944C74.8957 374.781 73.7288 355.486 84.8775 342.872L65.3961 325.654C44.7627 348.999 46.9011 384.697 70.2117 405.388L87.4717 385.944ZM84.8755 342.875L159.053 258.988L139.575 241.765L65.3981 325.652L84.8755 342.875Z" fill="url(#paint0_linear)"/>
    <defs>
        <linearGradient id="paint0_linear" x1="158.023" y1="16.965" x2="437.599" y2="313.484" gradientUnits="userSpaceOnUse">
            <stop stop-color="#F96216"/>
            <stop offset="0.399786" stop-color="#B200F8"/>
            <stop offset="1" stop-color="#00B4F2"/>
        </linearGradient>
    </defs>
</svg>
