<?xml version="1.0" encoding="UTF-8"?>
<svg version="1.1" width="16" height="16" viewBox="0 0 16 16" xmlns="http://www.w3.org/2000/svg">
<path d="m1.2051 1.1953-1.1875 1.1914 2.8008 2.7891c-0.78692 0.78521-1.4129 1.7463-1.8184 2.8242 1.1009 2.9267 3.8182 5 7 5 0.80124 0 1.5735-0.13114 2.2969-0.375l3.3457 3.332 1.1875-1.1914-2.9258-2.9141-1.4062-1.4023-1.0625-1.0566-2.834-2.8223-1.0625-1.0586-1.3984-1.3926-2.9355-2.9238zm6.7949 1.8047c-0.78053 0-1.5326 0.1259-2.2402 0.35742l1.2832 1.2793c0.30448-0.086549 0.62493-0.13672 0.95703-0.13672 1.932 0 3.5 1.568 3.5 3.5 0 0.32716-0.048733 0.64292-0.13281 0.94336l1.8535 1.8437c0.76856-0.77835 1.3804-1.7266 1.7793-2.7871-1.1009-2.9267-3.8182-5-7-5zm0.4707 3.0586 1.4688 1.4629c-0.1771-0.72357-0.74406-1.2886-1.4688-1.4629zm-3.8242 0.93945 1.3906 1.3848c0.15452 0.8017 0.78512 1.4285 1.5879 1.5801l1.3906 1.3867c-0.32147 0.097632-0.66232 0.15039-1.0156 0.15039-1.932 0-3.5-1.568-3.5-3.5 0-0.34835 0.05161-0.6843 0.14648-1.002z" fill="#afb1b3"/>
</svg>