<svg width="278" height="67" viewBox="0 0 278 67" fill="none" xmlns="http://www.w3.org/2000/svg">
<g opacity="0.6">
<rect x="0.75" y="2.07275" width="276.5" height="46.6371" rx="2.75" fill="#2C2D30" stroke="#505156" stroke-width="0.5"/>
<g opacity="0.4">
<g clip-path="url(#clip0_383_465)">
<rect x="241" y="54" width="34" height="12" rx="3" fill="#3574F0"/>
<path d="M252.747 58.6913C252.72 58.456 252.611 58.2737 252.418 58.1444C252.226 58.0135 251.984 57.948 251.693 57.948C251.484 57.948 251.303 57.9812 251.151 58.0475C250.998 58.1121 250.88 58.2016 250.795 58.3159C250.712 58.4286 250.671 58.557 250.671 58.7012C250.671 58.8222 250.699 58.9266 250.755 59.0144C250.813 59.1023 250.889 59.176 250.982 59.2357C251.076 59.2937 251.177 59.3426 251.285 59.3823C251.393 59.4204 251.496 59.4519 251.596 59.4768L252.093 59.606C252.255 59.6458 252.422 59.6997 252.592 59.7676C252.763 59.8356 252.921 59.9251 253.067 60.0361C253.213 60.1471 253.331 60.2847 253.42 60.4487C253.511 60.6128 253.557 60.8092 253.557 61.0379C253.557 61.3262 253.482 61.5823 253.333 61.806C253.186 62.0297 252.971 62.2062 252.689 62.3354C252.409 62.4647 252.07 62.5293 251.673 62.5293C251.292 62.5293 250.962 62.4689 250.683 62.3479C250.405 62.2269 250.187 62.0554 250.03 61.8333C249.872 61.6096 249.785 61.3444 249.769 61.0379H250.539C250.554 61.2218 250.614 61.3751 250.718 61.4977C250.824 61.6187 250.959 61.709 251.123 61.7687C251.289 61.8267 251.471 61.8557 251.668 61.8557C251.885 61.8557 252.078 61.8217 252.247 61.7538C252.418 61.6842 252.552 61.5881 252.65 61.4654C252.747 61.3411 252.796 61.1961 252.796 61.0304C252.796 60.8796 252.753 60.7561 252.667 60.66C252.583 60.5639 252.467 60.4844 252.322 60.4214C252.177 60.3584 252.014 60.3029 251.832 60.2548L251.23 60.0908C250.823 59.9797 250.499 59.8165 250.261 59.6011C250.024 59.3856 249.905 59.1006 249.905 58.746C249.905 58.4526 249.985 58.1966 250.144 57.9778C250.303 57.7591 250.518 57.5892 250.79 57.4683C251.062 57.3456 251.369 57.2843 251.71 57.2843C252.055 57.2843 252.359 57.3448 252.622 57.4658C252.887 57.5868 253.096 57.7533 253.249 57.9654C253.401 58.1759 253.481 58.4178 253.487 58.6913H252.747ZM256.061 62.5219C255.685 62.5219 255.361 62.4415 255.089 62.2808C254.819 62.1184 254.61 61.8905 254.462 61.5972C254.317 61.3022 254.244 60.9567 254.244 60.5606C254.244 60.1695 254.317 59.8248 254.462 59.5265C254.61 59.2282 254.815 58.9954 255.079 58.828C255.344 58.6606 255.654 58.5769 256.009 58.5769C256.224 58.5769 256.433 58.6126 256.635 58.6838C256.837 58.7551 257.019 58.8669 257.179 59.0194C257.34 59.1719 257.467 59.3699 257.56 59.6135C257.653 59.8555 257.699 60.1496 257.699 60.496V60.7595H254.664V60.2026H256.971C256.971 60.0071 256.931 59.8339 256.851 59.6831C256.772 59.5306 256.66 59.4105 256.516 59.3227C256.373 59.2348 256.206 59.1909 256.014 59.1909C255.805 59.1909 255.622 59.2423 255.467 59.345C255.313 59.4461 255.193 59.5787 255.109 59.7428C255.026 59.9052 254.984 60.0817 254.984 60.2722V60.7073C254.984 60.9625 255.029 61.1796 255.119 61.3585C255.21 61.5375 255.337 61.6742 255.499 61.7687C255.661 61.8615 255.851 61.9079 256.068 61.9079C256.209 61.9079 256.338 61.888 256.454 61.8482C256.57 61.8068 256.67 61.7455 256.754 61.6643C256.839 61.5831 256.903 61.4828 256.948 61.3635L257.652 61.4903C257.595 61.6974 257.494 61.8789 257.348 62.0347C257.204 62.1888 257.023 62.3089 256.804 62.3951C256.587 62.4796 256.339 62.5219 256.061 62.5219ZM259.267 60.1778V62.4448H258.524V58.6266H259.237V59.2481H259.284C259.372 59.0459 259.51 58.8835 259.697 58.7609C259.886 58.6382 260.124 58.5769 260.41 58.5769C260.67 58.5769 260.898 58.6316 261.094 58.741C261.289 58.8487 261.441 59.0095 261.549 59.2232C261.657 59.437 261.71 59.7013 261.71 60.0162V62.4448H260.967V60.1057C260.967 59.8289 260.895 59.6127 260.751 59.4569C260.607 59.2995 260.409 59.2207 260.157 59.2207C259.984 59.2207 259.831 59.258 259.697 59.3326C259.564 59.4072 259.459 59.5166 259.381 59.6607C259.305 59.8033 259.267 59.9756 259.267 60.1778ZM264.136 62.5194C263.828 62.5194 263.553 62.4407 263.311 62.2832C263.071 62.1242 262.882 61.8979 262.744 61.6046C262.609 61.3096 262.541 60.9558 262.541 60.5432C262.541 60.1305 262.609 59.7776 262.747 59.4842C262.886 59.1909 263.077 58.9664 263.319 58.8106C263.561 58.6548 263.835 58.5769 264.141 58.5769C264.378 58.5769 264.569 58.6167 264.713 58.6962C264.859 58.7741 264.972 58.8653 265.051 58.9697C265.132 59.0741 265.195 59.1661 265.24 59.2456H265.285V57.3539H266.028V62.4448H265.302V61.8507H265.24C265.195 61.9319 265.131 62.0247 265.046 62.1291C264.963 62.2335 264.849 62.3247 264.703 62.4026C264.557 62.4805 264.369 62.5194 264.136 62.5194ZM264.301 61.8855C264.514 61.8855 264.695 61.8292 264.842 61.7165C264.992 61.6021 265.104 61.4439 265.181 61.2417C265.258 61.0395 265.297 60.8042 265.297 60.5357C265.297 60.2706 265.259 60.0386 265.183 59.8397C265.107 59.6408 264.995 59.4859 264.847 59.3749C264.7 59.2638 264.518 59.2083 264.301 59.2083C264.077 59.2083 263.89 59.2663 263.741 59.3823C263.592 59.4983 263.479 59.6566 263.403 59.8571C263.329 60.0576 263.291 60.2838 263.291 60.5357C263.291 60.7909 263.329 61.0205 263.406 61.2243C263.482 61.4281 263.595 61.5897 263.744 61.709C263.895 61.8267 264.08 61.8855 264.301 61.8855Z" fill="white"/>
</g>
</g>
<g filter="url(#filter0_d_383_465)">
<path d="M7.39352 17.4277L6.60352 10.1277H7.57352L8.06352 15.3677C8.07685 15.501 8.08685 15.6477 8.09352 15.8077C8.10685 15.9677 8.11685 16.1243 8.12352 16.2777C8.13685 16.431 8.14352 16.5643 8.14352 16.6777C8.15685 16.5643 8.17018 16.431 8.18352 16.2777C8.19685 16.1243 8.21018 15.9677 8.22352 15.8077C8.24352 15.6477 8.26352 15.501 8.28352 15.3677L8.91352 10.1277H9.91352L10.5035 15.3677C10.5168 15.501 10.5302 15.6477 10.5435 15.8077C10.5635 15.9677 10.5835 16.1243 10.6035 16.2777C10.6235 16.431 10.6368 16.5643 10.6435 16.6777C10.6502 16.5643 10.6568 16.431 10.6635 16.2777C10.6768 16.1243 10.6902 15.9677 10.7035 15.8077C10.7168 15.6477 10.7302 15.501 10.7435 15.3677L11.2435 10.1277H12.1835L11.3635 17.4277H10.1135L9.52352 12.1177C9.51018 11.9777 9.49685 11.831 9.48352 11.6777C9.47018 11.5177 9.45685 11.3643 9.44352 11.2177C9.43018 11.0643 9.41685 10.9377 9.40352 10.8377C9.39685 10.9377 9.38685 11.0643 9.37352 11.2177C9.36018 11.3643 9.34685 11.5177 9.33352 11.6777C9.32018 11.831 9.30352 11.9777 9.28352 12.1177L8.65352 17.4277H7.39352Z" fill="white"/>
<path d="M12.7296 17.4277V10.1277H13.8096V11.9277L13.7996 12.9777H14.0596L13.7996 13.2277C13.7996 12.7877 13.9296 12.4443 14.1896 12.1977C14.4496 11.951 14.8096 11.8277 15.2696 11.8277C15.8163 11.8277 16.2529 12.0043 16.5796 12.3577C16.9063 12.7043 17.0696 13.1743 17.0696 13.7677V17.4277H15.9896V13.8877C15.9896 13.5277 15.8929 13.2477 15.6996 13.0477C15.5063 12.8477 15.2429 12.7477 14.9096 12.7477C14.5696 12.7477 14.2996 12.8543 14.0996 13.0677C13.9063 13.2743 13.8096 13.571 13.8096 13.9577V17.4277H12.7296Z" fill="white"/>
<path d="M19.1057 19.2277L19.8957 17.1077L17.8457 11.9277H19.0357L20.1857 15.0277C20.2324 15.161 20.279 15.321 20.3257 15.5077C20.3724 15.6943 20.4124 15.8477 20.4457 15.9677C20.4724 15.8477 20.509 15.6943 20.5557 15.5077C20.6024 15.321 20.649 15.161 20.6957 15.0277L21.7757 11.9277H22.9257L20.2457 19.2277H19.1057Z" fill="white"/>
<path d="M29.1879 17.4277V16.4477H31.1179V12.9077H29.4379V11.9277H32.1679V16.4477H33.9379V17.4277H29.1879ZM31.5379 10.9777C31.3046 10.9777 31.1179 10.9177 30.9779 10.7977C30.8379 10.671 30.7679 10.5043 30.7679 10.2977C30.7679 10.0843 30.8379 9.91767 30.9779 9.79767C31.1179 9.671 31.3046 9.60767 31.5379 9.60767C31.7712 9.60767 31.9579 9.671 32.0979 9.79767C32.2379 9.91767 32.3079 10.0843 32.3079 10.2977C32.3079 10.5043 32.2379 10.671 32.0979 10.7977C31.9579 10.9177 31.7712 10.9777 31.5379 10.9777Z" fill="white"/>
<path d="M36.684 17.5177C36.2907 17.5177 35.944 17.4543 35.644 17.3277C35.3507 17.201 35.1173 17.0277 34.944 16.8077C34.7773 16.581 34.6807 16.3143 34.654 16.0077H35.734C35.7607 16.1877 35.8573 16.3343 36.024 16.4477C36.1907 16.5543 36.4107 16.6077 36.684 16.6077H37.114C37.4407 16.6077 37.6873 16.541 37.854 16.4077C38.0207 16.2743 38.104 16.0977 38.104 15.8777C38.104 15.6643 38.0273 15.4977 37.874 15.3777C37.7273 15.251 37.5073 15.1677 37.214 15.1277L36.504 15.0177C35.9173 14.9243 35.484 14.7577 35.204 14.5177C34.9307 14.271 34.794 13.9077 34.794 13.4277C34.794 12.921 34.9573 12.531 35.284 12.2577C35.6173 11.9777 36.1073 11.8377 36.754 11.8377H37.134C37.7073 11.8377 38.164 11.971 38.504 12.2377C38.8507 12.4977 39.0473 12.8477 39.094 13.2877H38.014C37.9873 13.1277 37.8973 12.9977 37.744 12.8977C37.5973 12.7977 37.394 12.7477 37.134 12.7477H36.754C36.4407 12.7477 36.2107 12.8077 36.064 12.9277C35.924 13.041 35.854 13.211 35.854 13.4377C35.854 13.6377 35.9173 13.7877 36.044 13.8877C36.1707 13.9877 36.3673 14.0577 36.634 14.0977L37.364 14.2177C37.984 14.3043 38.4373 14.4777 38.724 14.7377C39.0173 14.991 39.164 15.361 39.164 15.8477C39.164 16.3743 38.9907 16.7843 38.644 17.0777C38.304 17.371 37.794 17.5177 37.114 17.5177H36.684Z" fill="white"/>
<path d="M40.2101 17.4277V11.9277H41.2801V12.9777H41.5401L41.2801 13.2277C41.2801 12.7877 41.4101 12.4443 41.6701 12.1977C41.9301 11.951 42.2901 11.8277 42.7501 11.8277C43.2967 11.8277 43.7334 12.0043 44.0601 12.3577C44.3867 12.7043 44.5501 13.1743 44.5501 13.7677V17.4277H43.4701V13.8877C43.4701 13.5277 43.3734 13.251 43.1801 13.0577C42.9867 12.8643 42.7234 12.7677 42.3901 12.7677C42.0501 12.7677 41.7801 12.871 41.5801 13.0777C41.3867 13.2777 41.2901 13.571 41.2901 13.9577V17.4277H40.2101Z" fill="white"/>
<path d="M46.3962 12.7777L47.1962 9.66767H48.6362L47.3362 12.7777H46.3962Z" fill="white"/>
<path d="M53.9623 17.4277C53.4623 17.4277 53.0723 17.291 52.7923 17.0177C52.5123 16.7443 52.3723 16.3643 52.3723 15.8777V12.9077H50.8523V11.9277H52.3723V10.3777H53.4523V11.9277H55.6023V12.9077H53.4523V15.8777C53.4523 16.2577 53.6356 16.4477 54.0023 16.4477H55.5023V17.4277H53.9623Z" fill="white"/>
<path d="M64.9545 17.4277C64.4545 17.4277 64.0645 17.291 63.7845 17.0177C63.5045 16.7443 63.3645 16.3643 63.3645 15.8777V12.9077H61.8445V11.9277H63.3645V10.3777H64.4445V11.9277H66.5945V12.9077H64.4445V15.8777C64.4445 16.2577 64.6278 16.4477 64.9945 16.4477H66.4945V17.4277H64.9545Z" fill="white"/>
<path d="M67.6905 17.4277V10.1277H68.7705V11.9277L68.7605 12.9777H69.0205L68.7605 13.2277C68.7605 12.7877 68.8905 12.4443 69.1505 12.1977C69.4105 11.951 69.7705 11.8277 70.2305 11.8277C70.7772 11.8277 71.2139 12.0043 71.5406 12.3577C71.8672 12.7043 72.0305 13.1743 72.0305 13.7677V17.4277H70.9505V13.8877C70.9505 13.5277 70.8539 13.2477 70.6605 13.0477C70.4672 12.8477 70.2039 12.7477 69.8705 12.7477C69.5305 12.7477 69.2605 12.8543 69.0605 13.0677C68.8672 13.2743 68.7705 13.571 68.7705 13.9577V17.4277H67.6905Z" fill="white"/>
<path d="M73.1566 17.4277V16.4477H75.0866V12.9077H73.4066V11.9277H76.1366V16.4477H77.9066V17.4277H73.1566ZM75.5066 10.9777C75.2733 10.9777 75.0866 10.9177 74.9466 10.7977C74.8066 10.671 74.7366 10.5043 74.7366 10.2977C74.7366 10.0843 74.8066 9.91767 74.9466 9.79767C75.0866 9.671 75.2733 9.60767 75.5066 9.60767C75.74 9.60767 75.9266 9.671 76.0666 9.79767C76.2066 9.91767 76.2766 10.0843 76.2766 10.2977C76.2766 10.5043 76.2066 10.671 76.0666 10.7977C75.9266 10.9177 75.74 10.9777 75.5066 10.9777Z" fill="white"/>
<path d="M80.6527 17.5177C80.2594 17.5177 79.9127 17.4543 79.6127 17.3277C79.3194 17.201 79.0861 17.0277 78.9127 16.8077C78.7461 16.581 78.6494 16.3143 78.6227 16.0077H79.7027C79.7294 16.1877 79.8261 16.3343 79.9927 16.4477C80.1594 16.5543 80.3794 16.6077 80.6527 16.6077H81.0827C81.4094 16.6077 81.6561 16.541 81.8227 16.4077C81.9894 16.2743 82.0727 16.0977 82.0727 15.8777C82.0727 15.6643 81.9961 15.4977 81.8427 15.3777C81.6961 15.251 81.4761 15.1677 81.1827 15.1277L80.4727 15.0177C79.8861 14.9243 79.4527 14.7577 79.1727 14.5177C78.8994 14.271 78.7627 13.9077 78.7627 13.4277C78.7627 12.921 78.9261 12.531 79.2527 12.2577C79.5861 11.9777 80.0761 11.8377 80.7227 11.8377H81.1027C81.6761 11.8377 82.1327 11.971 82.4727 12.2377C82.8194 12.4977 83.0161 12.8477 83.0627 13.2877H81.9827C81.9561 13.1277 81.8661 12.9977 81.7127 12.8977C81.5661 12.7977 81.3627 12.7477 81.1027 12.7477H80.7227C80.4094 12.7477 80.1794 12.8077 80.0327 12.9277C79.8927 13.041 79.8227 13.211 79.8227 13.4377C79.8227 13.6377 79.8861 13.7877 80.0127 13.8877C80.1394 13.9877 80.3361 14.0577 80.6027 14.0977L81.3327 14.2177C81.9527 14.3043 82.4061 14.4777 82.6927 14.7377C82.9861 14.991 83.1327 15.361 83.1327 15.8477C83.1327 16.3743 82.9594 16.7843 82.6127 17.0777C82.2727 17.371 81.7627 17.5177 81.0827 17.5177H80.6527Z" fill="white"/>
<path d="M91.8749 17.5277C91.4216 17.5277 91.0216 17.4443 90.6749 17.2777C90.3349 17.1043 90.0716 16.8577 89.8849 16.5377C89.7049 16.211 89.6149 15.831 89.6149 15.3977V13.9577C89.6149 13.5177 89.7049 13.1377 89.8849 12.8177C90.0716 12.4977 90.3349 12.2543 90.6749 12.0877C91.0216 11.9143 91.4216 11.8277 91.8749 11.8277C92.5349 11.8277 93.0649 12.001 93.4649 12.3477C93.8649 12.6943 94.0749 13.1677 94.0949 13.7677H93.0149C92.9949 13.4543 92.8849 13.211 92.6849 13.0377C92.4849 12.8643 92.2149 12.7777 91.8749 12.7777C91.5083 12.7777 91.2183 12.881 91.0049 13.0877C90.7916 13.2877 90.6849 13.5743 90.6849 13.9477V15.3977C90.6849 15.771 90.7916 16.061 91.0049 16.2677C91.2183 16.4743 91.5083 16.5777 91.8749 16.5777C92.2149 16.5777 92.4849 16.491 92.6849 16.3177C92.8849 16.1443 92.9949 15.901 93.0149 15.5877H94.0949C94.0749 16.1877 93.8649 16.661 93.4649 17.0077C93.0649 17.3543 92.5349 17.5277 91.8749 17.5277Z" fill="white"/>
<path d="M97.331 17.5177C96.8777 17.5177 96.4843 17.431 96.151 17.2577C95.8177 17.0843 95.561 16.8377 95.381 16.5177C95.201 16.1977 95.111 15.821 95.111 15.3877V13.9677C95.111 13.5277 95.201 13.151 95.381 12.8377C95.561 12.5177 95.8177 12.271 96.151 12.0977C96.4843 11.9243 96.8777 11.8377 97.331 11.8377C97.7844 11.8377 98.1777 11.9243 98.511 12.0977C98.8444 12.271 99.101 12.5177 99.281 12.8377C99.461 13.151 99.551 13.5277 99.551 13.9677V15.3877C99.551 15.821 99.461 16.1977 99.281 16.5177C99.101 16.8377 98.8444 17.0843 98.511 17.2577C98.1777 17.431 97.7844 17.5177 97.331 17.5177ZM97.331 16.5677C97.6977 16.5677 97.981 16.4677 98.181 16.2677C98.381 16.061 98.481 15.7677 98.481 15.3877V13.9677C98.481 13.581 98.381 13.2877 98.181 13.0877C97.981 12.8877 97.6977 12.7877 97.331 12.7877C96.971 12.7877 96.6877 12.8877 96.481 13.0877C96.281 13.2877 96.181 13.581 96.181 13.9677V15.3877C96.181 15.7677 96.281 16.061 96.481 16.2677C96.6877 16.4677 96.971 16.5677 97.331 16.5677Z" fill="white"/>
<path d="M102.437 17.5277C101.884 17.5277 101.44 17.341 101.107 16.9677C100.774 16.5943 100.607 16.091 100.607 15.4577V13.9077C100.607 13.2677 100.774 12.761 101.107 12.3877C101.44 12.0143 101.884 11.8277 102.437 11.8277C102.89 11.8277 103.25 11.9543 103.517 12.2077C103.784 12.4543 103.917 12.7943 103.917 13.2277L103.687 12.9777H103.937L103.907 11.6977V10.1277H104.987V17.4277H103.917V16.3777H103.687L103.917 16.1277C103.917 16.561 103.784 16.9043 103.517 17.1577C103.25 17.4043 102.89 17.5277 102.437 17.5277ZM102.807 16.5877C103.147 16.5877 103.414 16.4843 103.607 16.2777C103.807 16.0643 103.907 15.771 103.907 15.3977V13.9577C103.907 13.5843 103.807 13.2943 103.607 13.0877C103.414 12.8743 103.147 12.7677 102.807 12.7677C102.454 12.7677 102.177 12.871 101.977 13.0777C101.777 13.2777 101.677 13.571 101.677 13.9577V15.3977C101.677 15.7843 101.777 16.081 101.977 16.2877C102.177 16.4877 102.454 16.5877 102.807 16.5877Z" fill="white"/>
<path d="M108.323 17.5277C107.877 17.5277 107.483 17.441 107.143 17.2677C106.81 17.0877 106.553 16.8377 106.373 16.5177C106.193 16.1977 106.103 15.8243 106.103 15.3977V13.9577C106.103 13.5243 106.193 13.151 106.373 12.8377C106.553 12.5177 106.81 12.271 107.143 12.0977C107.483 11.9177 107.877 11.8277 108.323 11.8277C108.777 11.8277 109.17 11.9177 109.503 12.0977C109.837 12.271 110.093 12.5177 110.273 12.8377C110.453 13.151 110.543 13.5243 110.543 13.9577V14.9377H107.143V15.3977C107.143 15.8043 107.243 16.1143 107.443 16.3277C107.65 16.541 107.947 16.6477 108.333 16.6477C108.647 16.6477 108.9 16.5943 109.093 16.4877C109.287 16.3743 109.407 16.211 109.453 15.9977H110.523C110.443 16.4643 110.203 16.8377 109.803 17.1177C109.403 17.391 108.91 17.5277 108.323 17.5277ZM109.503 14.2877V13.9477C109.503 13.5477 109.403 13.2377 109.203 13.0177C109.003 12.7977 108.71 12.6877 108.323 12.6877C107.943 12.6877 107.65 12.7977 107.443 13.0177C107.243 13.2377 107.143 13.551 107.143 13.9577V14.2077L109.583 14.1977L109.503 14.2877Z" fill="white"/>
<path d="M117.445 17.4277L116.595 11.9277H117.505L118.015 15.5577C118.042 15.7243 118.065 15.911 118.085 16.1177C118.112 16.3177 118.132 16.4843 118.145 16.6177C118.159 16.4843 118.179 16.3177 118.205 16.1177C118.239 15.9177 118.269 15.731 118.295 15.5577L118.865 11.9277H119.775L120.335 15.5577C120.362 15.731 120.389 15.921 120.415 16.1277C120.449 16.3277 120.472 16.4943 120.485 16.6277C120.499 16.4877 120.519 16.3177 120.545 16.1177C120.579 15.911 120.609 15.7243 120.635 15.5577L121.155 11.9277H122.035L121.155 17.4277H120.015L119.475 13.8377C119.449 13.651 119.419 13.4543 119.385 13.2477C119.352 13.0343 119.329 12.8643 119.315 12.7377C119.295 12.8643 119.269 13.0343 119.235 13.2477C119.209 13.4543 119.182 13.651 119.155 13.8377L118.595 17.4277H117.445Z" fill="white"/>
<path d="M124.811 17.5177C124.358 17.5177 123.965 17.431 123.631 17.2577C123.298 17.0843 123.041 16.8377 122.861 16.5177C122.681 16.1977 122.591 15.821 122.591 15.3877V13.9677C122.591 13.5277 122.681 13.151 122.861 12.8377C123.041 12.5177 123.298 12.271 123.631 12.0977C123.965 11.9243 124.358 11.8377 124.811 11.8377C125.265 11.8377 125.658 11.9243 125.991 12.0977C126.325 12.271 126.581 12.5177 126.761 12.8377C126.941 13.151 127.031 13.5277 127.031 13.9677V15.3877C127.031 15.821 126.941 16.1977 126.761 16.5177C126.581 16.8377 126.325 17.0843 125.991 17.2577C125.658 17.431 125.265 17.5177 124.811 17.5177ZM124.811 16.5677C125.178 16.5677 125.461 16.4677 125.661 16.2677C125.861 16.061 125.961 15.7677 125.961 15.3877V13.9677C125.961 13.581 125.861 13.2877 125.661 13.0877C125.461 12.8877 125.178 12.7877 124.811 12.7877C124.451 12.7877 124.168 12.8877 123.961 13.0877C123.761 13.2877 123.661 13.581 123.661 13.9677V15.3877C123.661 15.7677 123.761 16.061 123.961 16.2677C124.168 16.4677 124.451 16.5677 124.811 16.5677Z" fill="white"/>
<path d="M128.328 17.4277V11.9277H129.368V12.9777H129.628L129.298 13.6277C129.298 13.0343 129.428 12.5877 129.688 12.2877C129.948 11.981 130.334 11.8277 130.848 11.8277C131.434 11.8277 131.898 12.011 132.238 12.3777C132.584 12.7377 132.758 13.2343 132.758 13.8677V14.2377H131.648V13.9577C131.648 13.5643 131.548 13.2643 131.348 13.0577C131.154 12.8443 130.881 12.7377 130.528 12.7377C130.174 12.7377 129.898 12.8443 129.698 13.0577C129.504 13.271 129.408 13.571 129.408 13.9577V17.4277H128.328Z" fill="white"/>
<path d="M133.674 17.4277V10.1277H134.754V14.1377H135.724L137.184 11.9277H138.404L136.654 14.5677L138.434 17.4277H137.194L135.724 15.0677H134.754V17.4277H133.674Z" fill="white"/>
<path d="M139.11 17.4277V16.4477H141.04V12.9077H139.36V11.9277H142.09V16.4477H143.86V17.4277H139.11ZM141.46 10.9777C141.226 10.9777 141.04 10.9177 140.9 10.7977C140.76 10.671 140.69 10.5043 140.69 10.2977C140.69 10.0843 140.76 9.91767 140.9 9.79767C141.04 9.671 141.226 9.60767 141.46 9.60767C141.693 9.60767 141.88 9.671 142.02 9.79767C142.16 9.91767 142.23 10.0843 142.23 10.2977C142.23 10.5043 142.16 10.671 142.02 10.7977C141.88 10.9177 141.693 10.9777 141.46 10.9777Z" fill="white"/>
<path d="M144.636 17.4277V11.9277H145.706V12.9777H145.966L145.706 13.2277C145.706 12.7877 145.836 12.4443 146.096 12.1977C146.356 11.951 146.716 11.8277 147.176 11.8277C147.723 11.8277 148.159 12.0043 148.486 12.3577C148.813 12.7043 148.976 13.1743 148.976 13.7677V17.4277H147.896V13.8877C147.896 13.5277 147.799 13.251 147.606 13.0577C147.413 12.8643 147.149 12.7677 146.816 12.7677C146.476 12.7677 146.206 12.871 146.006 13.0777C145.813 13.2777 145.716 13.571 145.716 13.9577V17.4277H144.636Z" fill="white"/>
<path d="M150.852 19.2277V18.2977H152.542C152.822 18.2977 153.029 18.231 153.162 18.0977C153.302 17.9643 153.372 17.7677 153.372 17.5077V16.9577L153.392 15.9377H153.162L153.382 15.7377C153.382 16.1577 153.249 16.4877 152.982 16.7277C152.722 16.9677 152.369 17.0877 151.922 17.0877C151.355 17.0877 150.909 16.901 150.582 16.5277C150.255 16.1543 150.092 15.651 150.092 15.0177V13.8977C150.092 13.2643 150.255 12.761 150.582 12.3877C150.909 12.0143 151.355 11.8277 151.922 11.8277C152.369 11.8277 152.722 11.951 152.982 12.1977C153.249 12.4377 153.382 12.7677 153.382 13.1877L153.162 12.9777H153.382L153.372 11.9277H154.442V17.5277C154.442 18.0543 154.275 18.4677 153.942 18.7677C153.609 19.0743 153.145 19.2277 152.552 19.2277H150.852ZM152.272 16.1577C152.612 16.1577 152.879 16.0543 153.072 15.8477C153.272 15.6343 153.372 15.341 153.372 14.9677V13.9577C153.372 13.5843 153.272 13.2943 153.072 13.0877C152.879 12.8743 152.612 12.7677 152.272 12.7677C151.919 12.7677 151.645 12.871 151.452 13.0777C151.265 13.2777 151.172 13.571 151.172 13.9577V14.9677C151.172 15.3477 151.265 15.641 151.452 15.8477C151.645 16.0543 151.919 16.1577 152.272 16.1577Z" fill="white"/>
<path d="M156.808 15.3177L156.798 13.4177H157.438C157.825 13.4177 158.128 13.3143 158.348 13.1077C158.575 12.901 158.688 12.6243 158.688 12.2777C158.688 11.931 158.575 11.6543 158.348 11.4477C158.121 11.241 157.815 11.1377 157.428 11.1377H156.068V10.1277H157.398C157.885 10.1277 158.301 10.2177 158.648 10.3977C159.001 10.571 159.275 10.8177 159.468 11.1377C159.661 11.4577 159.758 11.8377 159.758 12.2777C159.758 12.671 159.675 13.021 159.508 13.3277C159.348 13.6343 159.121 13.8777 158.828 14.0577C158.541 14.231 158.201 14.3243 157.808 14.3377V15.3177H156.808ZM157.158 17.4777C156.965 17.4777 156.808 17.421 156.688 17.3077C156.568 17.1877 156.508 17.0343 156.508 16.8477C156.508 16.661 156.568 16.511 156.688 16.3977C156.808 16.2777 156.965 16.2177 157.158 16.2177H157.458C157.658 16.2177 157.815 16.2777 157.928 16.3977C158.041 16.511 158.098 16.6577 158.098 16.8377C158.098 17.0243 158.038 17.1777 157.918 17.2977C157.798 17.4177 157.641 17.4777 157.448 17.4777H157.158Z" fill="white"/>
</g>
</g>
<defs>
<filter id="filter0_d_383_465" x="3.60352" y="8.60767" width="159.154" height="15.62" filterUnits="userSpaceOnUse" color-interpolation-filters="sRGB">
<feFlood flood-opacity="0" result="BackgroundImageFix"/>
<feColorMatrix in="SourceAlpha" type="matrix" values="0 0 0 0 0 0 0 0 0 0 0 0 0 0 0 0 0 0 127 0" result="hardAlpha"/>
<feOffset dy="2"/>
<feGaussianBlur stdDeviation="1.5"/>
<feComposite in2="hardAlpha" operator="out"/>
<feColorMatrix type="matrix" values="0 0 0 0 0 0 0 0 0 0 0 0 0 0 0 0 0 0 0.25 0"/>
<feBlend mode="normal" in2="BackgroundImageFix" result="effect1_dropShadow_383_465"/>
<feBlend mode="normal" in="SourceGraphic" in2="effect1_dropShadow_383_465" result="shape"/>
</filter>
<clipPath id="clip0_383_465">
<rect x="241" y="54" width="34" height="12" rx="3" fill="white"/>
</clipPath>
</defs>
</svg>
