<svg width="278" height="124" viewBox="0 0 278 124" fill="none" xmlns="http://www.w3.org/2000/svg">
<g opacity="0.6">
<g opacity="0.4">
<path d="M18.2749 14.8067H17.1669C17.1243 14.5699 17.045 14.3616 16.929 14.1817C16.813 14.0017 16.6709 13.849 16.5028 13.7236C16.3348 13.5981 16.1465 13.5034 15.9382 13.4395C15.7322 13.3755 15.5133 13.3436 15.2813 13.3436C14.8622 13.3436 14.487 13.4489 14.1555 13.6596C13.8265 13.8703 13.5661 14.1793 13.3743 14.5865C13.1849 14.9937 13.0902 15.4908 13.0902 16.078C13.0902 16.6698 13.1849 17.1693 13.3743 17.5765C13.5661 17.9837 13.8277 18.2915 14.1591 18.4998C14.4905 18.7082 14.8634 18.8123 15.2777 18.8123C15.5073 18.8123 15.7251 18.7816 15.9311 18.72C16.1394 18.6561 16.3277 18.5626 16.4957 18.4395C16.6638 18.3164 16.8059 18.166 16.9219 17.9885C17.0402 17.8085 17.1219 17.6026 17.1669 17.3706L18.2749 17.3741C18.2157 17.7316 18.1009 18.0607 17.9304 18.3613C17.7623 18.6596 17.5457 18.9177 17.2805 19.1355C17.0178 19.3509 16.7171 19.5178 16.3786 19.6362C16.04 19.7546 15.6707 19.8138 15.2706 19.8138C14.6409 19.8138 14.0798 19.6646 13.5874 19.3663C13.0949 19.0656 12.7067 18.636 12.4226 18.0772C12.1409 17.5185 12 16.8521 12 16.078C12 15.3014 12.142 14.635 12.4261 14.0787C12.7102 13.52 13.0985 13.0915 13.5909 12.7932C14.0833 12.4925 14.6432 12.3422 15.2706 12.3422C15.6565 12.3422 16.0163 12.3978 16.3501 12.5091C16.6863 12.618 16.9882 12.779 17.2557 12.992C17.5232 13.2027 17.7446 13.4608 17.9197 13.7662C18.0949 14.0692 18.2133 14.416 18.2749 14.8067Z" fill="#43454A"/>
<path d="M20.5645 16.4757V19.7143H19.5027V12.4416H20.5502V15.1476H20.6177C20.7456 14.854 20.9409 14.6208 21.2037 14.448C21.4664 14.2752 21.8097 14.1888 22.2335 14.1888C22.6075 14.1888 22.9342 14.2657 23.2136 14.4196C23.4953 14.5735 23.7131 14.8031 23.867 15.1085C24.0233 15.4115 24.1014 15.7903 24.1014 16.2449V19.7143H23.0396V16.3727C23.0396 15.9726 22.9366 15.6625 22.7306 15.4423C22.5247 15.2198 22.2382 15.1085 21.8713 15.1085C21.6203 15.1085 21.3954 15.1618 21.1966 15.2683C21.0001 15.3748 20.845 15.5311 20.7314 15.737C20.6201 15.9406 20.5645 16.1869 20.5645 16.4757Z" fill="#43454A"/>
<path d="M27.1056 19.8351C26.76 19.8351 26.4475 19.7711 26.1681 19.6433C25.8888 19.5131 25.6674 19.3249 25.5041 19.0787C25.3431 18.8325 25.2626 18.5306 25.2626 18.1731C25.2626 17.8654 25.3218 17.6121 25.4402 17.4132C25.5585 17.2143 25.7183 17.0569 25.9196 16.9409C26.1208 16.8249 26.3457 16.7373 26.5943 16.6781C26.8429 16.6189 27.0962 16.5739 27.3542 16.5432C27.6809 16.5053 27.9461 16.4745 28.1497 16.4508C28.3533 16.4248 28.5012 16.3834 28.5936 16.3265C28.6859 16.2697 28.7321 16.1774 28.7321 16.0495V16.0247C28.7321 15.7146 28.6445 15.4743 28.4693 15.3038C28.2965 15.1334 28.0384 15.0481 27.6951 15.0481C27.3377 15.0481 27.0559 15.1274 26.85 15.2861C26.6464 15.4423 26.5055 15.6163 26.4274 15.8081L25.4295 15.5808C25.5479 15.2494 25.7207 14.9818 25.948 14.7782C26.1776 14.5723 26.4416 14.4231 26.7399 14.3308C27.0382 14.2361 27.3519 14.1888 27.6809 14.1888C27.8987 14.1888 28.1296 14.2148 28.3734 14.2669C28.6196 14.3166 28.8493 14.4089 29.0623 14.5439C29.2778 14.6788 29.4541 14.8718 29.5914 15.1227C29.7288 15.3713 29.7974 15.6944 29.7974 16.0922V19.7143H28.7605V18.9686H28.7179C28.6492 19.1059 28.5462 19.2408 28.4089 19.3734C28.2716 19.506 28.0952 19.6161 27.8798 19.7037C27.6644 19.7913 27.4063 19.8351 27.1056 19.8351ZM27.3365 18.9828C27.63 18.9828 27.881 18.9248 28.0893 18.8088C28.3 18.6928 28.4598 18.5413 28.5687 18.3542C28.68 18.1648 28.7356 17.9624 28.7356 17.747V17.0439C28.6977 17.0817 28.6243 17.1173 28.5154 17.1504C28.4089 17.1812 28.287 17.2084 28.1497 17.2321C28.0124 17.2534 27.8786 17.2735 27.7484 17.2924C27.6182 17.309 27.5093 17.3232 27.4217 17.3351C27.2157 17.3611 27.0275 17.4049 26.8571 17.4665C26.689 17.528 26.554 17.6168 26.4522 17.7328C26.3528 17.8464 26.3031 17.9979 26.3031 18.1873C26.3031 18.4501 26.4002 18.649 26.5943 18.7839C26.7884 18.9165 27.0358 18.9828 27.3365 18.9828Z" fill="#43454A"/>
<path d="M33.7578 14.2598V15.112H30.7784V14.2598H33.7578ZM31.5774 12.953H32.6392V18.1128C32.6392 18.3187 32.67 18.4738 32.7315 18.578C32.7931 18.6798 32.8724 18.7496 32.9695 18.7875C33.0689 18.823 33.1766 18.8407 33.2926 18.8407C33.3778 18.8407 33.4524 18.8348 33.5163 18.823C33.5803 18.8111 33.63 18.8017 33.6655 18.7946L33.8572 19.6717C33.7957 19.6954 33.7081 19.7191 33.5945 19.7427C33.4808 19.7688 33.3388 19.783 33.1683 19.7853C32.889 19.7901 32.6286 19.7404 32.3871 19.6362C32.1456 19.532 31.9503 19.371 31.8011 19.1532C31.652 18.9354 31.5774 18.662 31.5774 18.3329V12.953Z" fill="#43454A"/>
</g>
<path d="M69.1323 13.3067H68.0243C67.9817 13.0699 67.9024 12.8616 67.7864 12.6817C67.6704 12.5017 67.5284 12.349 67.3603 12.2236C67.1922 12.0981 67.004 12.0034 66.7956 11.9395C66.5897 11.8755 66.3707 11.8436 66.1387 11.8436C65.7196 11.8436 65.3444 11.9489 65.013 12.1596C64.6839 12.3703 64.4235 12.6793 64.2317 13.0865C64.0423 13.4937 63.9476 13.9908 63.9476 14.578C63.9476 15.1698 64.0423 15.6693 64.2317 16.0765C64.4235 16.4837 64.6851 16.7915 65.0165 16.9998C65.348 17.2082 65.7208 17.3123 66.1351 17.3123C66.3648 17.3123 66.5826 17.2816 66.7885 17.22C66.9969 17.1561 67.1851 17.0626 67.3532 16.9395C67.5212 16.8164 67.6633 16.666 67.7793 16.4885C67.8977 16.3085 67.9793 16.1026 68.0243 15.8706L69.1323 15.8741C69.0731 16.2316 68.9583 16.5607 68.7878 16.8613C68.6197 17.1596 68.4031 17.4177 68.138 17.6355C67.8752 17.8509 67.5745 18.0178 67.236 18.1362C66.8974 18.2546 66.5281 18.3138 66.128 18.3138C65.4983 18.3138 64.9372 18.1646 64.4448 17.8663C63.9524 17.5656 63.5641 17.136 63.28 16.5772C62.9983 16.0185 62.8574 15.3521 62.8574 14.578C62.8574 13.8014 62.9995 13.135 63.2836 12.5787C63.5676 12.02 63.9559 11.5915 64.4483 11.2932C64.9408 10.9925 65.5007 10.8422 66.128 10.8422C66.5139 10.8422 66.8738 10.8978 67.2076 11.0091C67.5437 11.118 67.8456 11.279 68.1131 11.492C68.3806 11.7027 68.602 11.9608 68.7772 12.2662C68.9524 12.5692 69.0707 12.916 69.1323 13.3067Z" fill="#43454A"/>
<path d="M72.6577 18.3244C72.1463 18.3244 71.7 18.2072 71.3189 17.9728C70.9377 17.7385 70.6418 17.4106 70.4311 16.9892C70.2204 16.5678 70.1151 16.0754 70.1151 15.5119C70.1151 14.9461 70.2204 14.4513 70.4311 14.0275C70.6418 13.6038 70.9377 13.2747 71.3189 13.0403C71.7 12.8059 72.1463 12.6888 72.6577 12.6888C73.169 12.6888 73.6153 12.8059 73.9964 13.0403C74.3776 13.2747 74.6735 13.6038 74.8842 14.0275C75.0949 14.4513 75.2003 14.9461 75.2003 15.5119C75.2003 16.0754 75.0949 16.5678 74.8842 16.9892C74.6735 17.4106 74.3776 17.7385 73.9964 17.9728C73.6153 18.2072 73.169 18.3244 72.6577 18.3244ZM72.6612 17.4331C72.9927 17.4331 73.2673 17.3455 73.4851 17.1703C73.7029 16.9951 73.8639 16.7619 73.968 16.4707C74.0746 16.1795 74.1278 15.8587 74.1278 15.5084C74.1278 15.1603 74.0746 14.8407 73.968 14.5495C73.8639 14.256 73.7029 14.0204 73.4851 13.8429C73.2673 13.6653 72.9927 13.5765 72.6612 13.5765C72.3274 13.5765 72.0504 13.6653 71.8303 13.8429C71.6125 14.0204 71.4503 14.256 71.3438 14.5495C71.2396 14.8407 71.1875 15.1603 71.1875 15.5084C71.1875 15.8587 71.2396 16.1795 71.3438 16.4707C71.4503 16.7619 71.6125 16.9951 71.8303 17.1703C72.0504 17.3455 72.3274 17.4331 72.6612 17.4331Z" fill="#43454A"/>
<path d="M76.3855 18.2143V12.7598H77.4047V13.6476H77.4721C77.5858 13.3469 77.7716 13.1125 78.0297 12.9444C78.2877 12.774 78.5967 12.6888 78.9565 12.6888C79.3211 12.6888 79.6265 12.774 79.8727 12.9444C80.1213 13.1149 80.3047 13.3493 80.4231 13.6476H80.4799C80.6101 13.3564 80.8173 13.1244 81.1014 12.9515C81.3855 12.7763 81.724 12.6888 82.117 12.6888C82.6118 12.6888 83.0154 12.8438 83.3279 13.154C83.6428 13.4641 83.8002 13.9317 83.8002 14.5567V18.2143H82.7385V14.6561C82.7385 14.2868 82.6378 14.0192 82.4366 13.8535C82.2354 13.6878 81.9951 13.6049 81.7157 13.6049C81.3701 13.6049 81.1014 13.7115 80.9096 13.9245C80.7179 14.1353 80.622 14.4063 80.622 14.7378V18.2143H79.5637V14.5886C79.5637 14.2927 79.4714 14.0548 79.2868 13.8748C79.1021 13.6949 78.8618 13.6049 78.5659 13.6049C78.3646 13.6049 78.1788 13.6582 78.0083 13.7647C77.8403 13.8689 77.7041 14.0145 77.6 14.2015C77.4982 14.3886 77.4473 14.6052 77.4473 14.8514V18.2143H76.3855Z" fill="#43454A"/>
<path d="M85.2234 18.2143V12.7598H86.2425V13.6476H86.31C86.4237 13.3469 86.6095 13.1125 86.8675 12.9444C87.1256 12.774 87.4345 12.6888 87.7944 12.6888C88.159 12.6888 88.4644 12.774 88.7106 12.9444C88.9592 13.1149 89.1426 13.3493 89.261 13.6476H89.3178C89.448 13.3564 89.6552 13.1244 89.9393 12.9515C90.2234 12.7763 90.5619 12.6888 90.9549 12.6888C91.4497 12.6888 91.8533 12.8438 92.1658 13.154C92.4807 13.4641 92.6381 13.9317 92.6381 14.5567V18.2143H91.5763V14.6561C91.5763 14.2868 91.4757 14.0192 91.2745 13.8535C91.0733 13.6878 90.833 13.6049 90.5536 13.6049C90.208 13.6049 89.9393 13.7115 89.7475 13.9245C89.5558 14.1353 89.4599 14.4063 89.4599 14.7378V18.2143H88.4016V14.5886C88.4016 14.2927 88.3093 14.0548 88.1246 13.8748C87.94 13.6949 87.6997 13.6049 87.4038 13.6049C87.2025 13.6049 87.0167 13.6582 86.8462 13.7647C86.6781 13.8689 86.542 14.0145 86.4379 14.2015C86.3361 14.3886 86.2852 14.6052 86.2852 14.8514V18.2143H85.2234Z" fill="#43454A"/>
<path d="M95.6486 18.3351C95.303 18.3351 94.9905 18.2711 94.7111 18.1433C94.4318 18.0131 94.2104 17.8249 94.0471 17.5787C93.8861 17.3325 93.8056 17.0306 93.8056 16.6731C93.8056 16.3654 93.8648 16.1121 93.9831 15.9132C94.1015 15.7143 94.2613 15.5569 94.4625 15.4409C94.6638 15.3249 94.8887 15.2373 95.1372 15.1781C95.3858 15.1189 95.6391 15.0739 95.8972 15.0432C96.2239 15.0053 96.489 14.9745 96.6926 14.9508C96.8962 14.9248 97.0442 14.8834 97.1365 14.8265C97.2289 14.7697 97.275 14.6774 97.275 14.5495V14.5247C97.275 14.2146 97.1874 13.9743 97.0122 13.8038C96.8394 13.6334 96.5814 13.5481 96.2381 13.5481C95.8806 13.5481 95.5989 13.6274 95.3929 13.7861C95.1893 13.9423 95.0485 14.1163 94.9703 14.3081L93.9725 14.0808C94.0909 13.7494 94.2637 13.4818 94.4909 13.2782C94.7206 13.0723 94.9845 12.9231 95.2828 12.8308C95.5811 12.7361 95.8948 12.6888 96.2239 12.6888C96.4417 12.6888 96.6725 12.7148 96.9164 12.7669C97.1626 12.8166 97.3922 12.9089 97.6053 13.0439C97.8207 13.1788 97.9971 13.3718 98.1344 13.6227C98.2717 13.8713 98.3404 14.1944 98.3404 14.5922V18.2143H97.3034V17.4686H97.2608C97.1922 17.6059 97.0892 17.7408 96.9519 17.8734C96.8146 18.006 96.6382 18.1161 96.4228 18.2037C96.2073 18.2913 95.9493 18.3351 95.6486 18.3351ZM95.8794 17.4828C96.173 17.4828 96.4239 17.4248 96.6323 17.3088C96.843 17.1928 97.0028 17.0413 97.1117 16.8542C97.223 16.6648 97.2786 16.4624 97.2786 16.247V15.5439C97.2407 15.5817 97.1673 15.6173 97.0584 15.6504C96.9519 15.6812 96.83 15.7084 96.6926 15.7321C96.5553 15.7534 96.4216 15.7735 96.2914 15.7924C96.1612 15.809 96.0523 15.8232 95.9647 15.8351C95.7587 15.8611 95.5705 15.9049 95.4 15.9665C95.2319 16.028 95.097 16.1168 94.9952 16.2328C94.8958 16.3464 94.8461 16.4979 94.8461 16.6873C94.8461 16.9501 94.9431 17.149 95.1372 17.2839C95.3314 17.4165 95.5788 17.4828 95.8794 17.4828Z" fill="#43454A"/>
<path d="M100.816 14.9757V18.2143H99.7546V12.7598H100.774V13.6476H100.841C100.967 13.3587 101.163 13.1267 101.431 12.9515C101.701 12.7763 102.04 12.6888 102.45 12.6888C102.822 12.6888 103.147 12.7669 103.426 12.9231C103.706 13.077 103.922 13.3067 104.076 13.612C104.23 13.9174 104.307 14.2951 104.307 14.7449V18.2143H103.245V14.8727C103.245 14.4773 103.142 14.1684 102.936 13.9459C102.73 13.721 102.448 13.6085 102.088 13.6085C101.841 13.6085 101.623 13.6618 101.431 13.7683C101.241 13.8748 101.091 14.0311 100.98 14.237C100.871 14.4406 100.816 14.6869 100.816 14.9757Z" fill="#43454A"/>
<path d="M107.773 18.3209C107.333 18.3209 106.94 18.2084 106.594 17.9835C106.251 17.7562 105.981 17.4331 105.784 17.014C105.59 16.5926 105.493 16.0872 105.493 15.4977C105.493 14.9082 105.591 14.404 105.788 13.9849C105.987 13.5659 106.259 13.2451 106.605 13.0226C106.95 12.8 107.342 12.6888 107.78 12.6888C108.119 12.6888 108.391 12.7456 108.597 12.8592C108.805 12.9705 108.966 13.1007 109.08 13.2498C109.196 13.399 109.286 13.5304 109.35 13.644H109.414V10.9416H110.475V18.2143H109.439V17.3656H109.35C109.286 17.4816 109.194 17.6142 109.073 17.7633C108.954 17.9125 108.791 18.0427 108.583 18.154C108.374 18.2652 108.105 18.3209 107.773 18.3209ZM108.007 17.4153C108.313 17.4153 108.571 17.3348 108.782 17.1738C108.995 17.0105 109.156 16.7844 109.265 16.4956C109.376 16.2067 109.431 15.8706 109.431 15.487C109.431 15.1083 109.377 14.7768 109.268 14.4927C109.159 14.2086 108.999 13.9873 108.789 13.8287C108.578 13.6701 108.318 13.5907 108.007 13.5907C107.688 13.5907 107.422 13.6736 107.208 13.8393C106.995 14.005 106.834 14.2311 106.725 14.5176C106.619 14.804 106.566 15.1272 106.566 15.487C106.566 15.8516 106.62 16.1795 106.729 16.4707C106.838 16.7619 106.999 16.9927 107.212 17.1632C107.427 17.3313 107.693 17.4153 108.007 17.4153Z" fill="#43454A"/>
<path d="M116.078 14.0915L115.116 14.2619C115.076 14.1388 115.012 14.0216 114.924 13.9103C114.839 13.7991 114.723 13.7079 114.576 13.6369C114.429 13.5659 114.246 13.5304 114.026 13.5304C113.725 13.5304 113.474 13.5978 113.273 13.7328C113.072 13.8654 112.971 14.037 112.971 14.2477C112.971 14.43 113.039 14.5768 113.173 14.688C113.308 14.7993 113.526 14.8905 113.827 14.9615L114.693 15.1603C115.195 15.2763 115.569 15.4551 115.816 15.6966C116.062 15.938 116.185 16.2517 116.185 16.6376C116.185 16.9643 116.09 17.2555 115.901 17.5112C115.714 17.7645 115.452 17.9634 115.116 18.1078C114.782 18.2522 114.395 18.3244 113.955 18.3244C113.344 18.3244 112.846 18.1942 112.46 17.9338C112.074 17.671 111.837 17.2981 111.749 16.8152L112.776 16.6589C112.84 16.9264 112.971 17.1289 113.17 17.2662C113.369 17.4011 113.628 17.4686 113.948 17.4686C114.296 17.4686 114.574 17.3964 114.782 17.252C114.99 17.1052 115.095 16.9264 115.095 16.7157C115.095 16.5453 115.031 16.4021 114.903 16.2861C114.777 16.1701 114.584 16.0825 114.324 16.0233L113.401 15.8209C112.892 15.7049 112.515 15.5202 112.271 15.2669C112.03 15.0136 111.909 14.6928 111.909 14.3045C111.909 13.9826 111.999 13.7008 112.179 13.4594C112.359 13.2179 112.608 13.0297 112.925 12.8947C113.242 12.7574 113.606 12.6888 114.015 12.6888C114.605 12.6888 115.069 12.8166 115.407 13.0723C115.746 13.3256 115.969 13.6653 116.078 14.0915Z" fill="#43454A"/>
<rect x="50.8574" y="26.5886" width="77.3274" height="3" rx="1" fill="#3574F0"/>
<g clip-path="url(#clip0_383_546)">
<rect y="40.0886" width="278" height="22" rx="4" fill="black" fill-opacity="0.12"/>
<path d="M85.9893 53.8479V46.5751H90.5489V47.5197H87.0866V49.7356H90.311V50.6767H87.0866V52.9033H90.5915V53.8479H85.9893Z" fill="black"/>
<path d="M92.7675 48.3933L93.9713 50.5169L95.1858 48.3933H96.347L94.646 51.1206L96.3612 53.8479H95.2L93.9713 51.8095L92.7462 53.8479H91.5814L93.2789 51.1206L91.6027 48.3933H92.7675Z" fill="black"/>
<path d="M97.4372 55.8933V48.3933H98.4742V49.2775H98.5629C98.6245 49.1639 98.7133 49.0325 98.8293 48.8834C98.9453 48.7342 99.1063 48.604 99.3122 48.4927C99.5182 48.3791 99.7905 48.3223 100.129 48.3223C100.569 48.3223 100.962 48.4336 101.308 48.6561C101.654 48.8786 101.925 49.1994 102.121 49.6185C102.32 50.0375 102.419 50.5417 102.419 51.1312C102.419 51.7207 102.321 52.2262 102.125 52.6476C101.928 53.0666 101.658 53.3898 101.315 53.617C100.972 53.8419 100.58 53.9544 100.14 53.9544C99.8082 53.9544 99.5371 53.8988 99.3264 53.7875C99.1181 53.6762 98.9548 53.546 98.8364 53.3969C98.718 53.2477 98.6269 53.1151 98.5629 52.9991H98.499V55.8933H97.4372ZM98.4777 51.1206C98.4777 51.5041 98.5334 51.8403 98.6446 52.1291C98.7559 52.4179 98.9169 52.644 99.1276 52.8074C99.3383 52.9684 99.5963 53.0489 99.9017 53.0489C100.219 53.0489 100.484 52.9648 100.697 52.7967C100.91 52.6263 101.071 52.3954 101.18 52.1042C101.291 51.8131 101.347 51.4852 101.347 51.1206C101.347 50.7607 101.293 50.4376 101.184 50.1511C101.077 49.8647 100.916 49.6386 100.701 49.4729C100.488 49.3071 100.221 49.2243 99.9017 49.2243C99.594 49.2243 99.3335 49.3036 99.1205 49.4622C98.9098 49.6208 98.75 49.8422 98.6411 50.1263C98.5322 50.4104 98.4777 50.7418 98.4777 51.1206Z" fill="black"/>
<path d="M104.671 46.5751V53.8479H103.609V46.5751H104.671Z" fill="black"/>
<path d="M107.687 53.9686C107.341 53.9686 107.029 53.9047 106.749 53.7768C106.47 53.6466 106.248 53.4584 106.085 53.2122C105.924 52.966 105.844 52.6641 105.844 52.3067C105.844 51.9989 105.903 51.7456 106.021 51.5467C106.14 51.3479 106.299 51.1904 106.501 51.0744C106.702 50.9584 106.927 50.8708 107.175 50.8116C107.424 50.7524 107.677 50.7075 107.935 50.6767C108.262 50.6388 108.527 50.608 108.731 50.5844C108.934 50.5583 109.082 50.5169 109.175 50.4601C109.267 50.4033 109.313 50.3109 109.313 50.1831V50.1582C109.313 49.8481 109.226 49.6078 109.05 49.4373C108.878 49.2669 108.619 49.1817 108.276 49.1817C107.919 49.1817 107.637 49.261 107.431 49.4196C107.227 49.5758 107.087 49.7498 107.008 49.9416L106.011 49.7143C106.129 49.3829 106.302 49.1154 106.529 48.9118C106.759 48.7058 107.023 48.5567 107.321 48.4643C107.619 48.3696 107.933 48.3223 108.262 48.3223C108.48 48.3223 108.711 48.3483 108.954 48.4004C109.201 48.4501 109.43 48.5425 109.643 48.6774C109.859 48.8123 110.035 49.0053 110.172 49.2562C110.31 49.5048 110.378 49.828 110.378 50.2257V53.8479H109.342V53.1021H109.299C109.23 53.2394 109.127 53.3744 108.99 53.5069C108.853 53.6395 108.676 53.7496 108.461 53.8372C108.245 53.9248 107.987 53.9686 107.687 53.9686ZM107.918 53.1163C108.211 53.1163 108.462 53.0583 108.67 52.9423C108.881 52.8263 109.041 52.6748 109.15 52.4878C109.261 52.2984 109.317 52.096 109.317 51.8805V51.1774C109.279 51.2153 109.205 51.2508 109.097 51.2839C108.99 51.3147 108.868 51.3419 108.731 51.3656C108.593 51.3869 108.46 51.407 108.329 51.426C108.199 51.4426 108.09 51.4568 108.003 51.4686C107.797 51.4946 107.609 51.5384 107.438 51.6C107.27 51.6615 107.135 51.7503 107.033 51.8663C106.934 51.98 106.884 52.1315 106.884 52.3209C106.884 52.5837 106.981 52.7825 107.175 52.9175C107.369 53.05 107.617 53.1163 107.918 53.1163Z" fill="black"/>
<path d="M111.793 53.8479V48.3933H112.854V53.8479H111.793ZM112.329 47.5517C112.144 47.5517 111.986 47.4901 111.853 47.367C111.723 47.2416 111.658 47.0924 111.658 46.9196C111.658 46.7444 111.723 46.5953 111.853 46.4721C111.986 46.3467 112.144 46.2839 112.329 46.2839C112.514 46.2839 112.671 46.3467 112.801 46.4721C112.934 46.5953 113 46.7444 113 46.9196C113 47.0924 112.934 47.2416 112.801 47.367C112.671 47.4901 112.514 47.5517 112.329 47.5517Z" fill="black"/>
<path d="M115.345 50.6092V53.8479H114.283V48.3933H115.302V49.2811H115.37C115.495 48.9923 115.692 48.7603 115.959 48.5851C116.229 48.4099 116.569 48.3223 116.978 48.3223C117.35 48.3223 117.675 48.4004 117.955 48.5567C118.234 48.7105 118.451 48.9402 118.605 49.2456C118.759 49.551 118.835 49.9286 118.835 50.3784V53.8479H117.774V50.5062C117.774 50.1109 117.671 49.8019 117.465 49.5794C117.259 49.3545 116.976 49.242 116.616 49.242C116.37 49.242 116.151 49.2953 115.959 49.4018C115.77 49.5084 115.619 49.6646 115.508 49.8706C115.399 50.0742 115.345 50.3204 115.345 50.6092Z" fill="black"/>
<path d="M126.958 48.4856C126.92 48.1495 126.764 47.889 126.489 47.7044C126.214 47.5174 125.869 47.4239 125.452 47.4239C125.154 47.4239 124.896 47.4712 124.678 47.5659C124.46 47.6582 124.291 47.7861 124.17 47.9494C124.052 48.1104 123.993 48.2939 123.993 48.4998C123.993 48.6727 124.033 48.8218 124.113 48.9473C124.196 49.0728 124.304 49.1781 124.437 49.2633C124.571 49.3462 124.716 49.416 124.87 49.4729C125.024 49.5273 125.172 49.5723 125.314 49.6078L126.024 49.7925C126.256 49.8493 126.494 49.9262 126.738 50.0233C126.982 50.1203 127.208 50.2482 127.416 50.4068C127.624 50.5654 127.792 50.7619 127.92 50.9963C128.05 51.2307 128.115 51.5112 128.115 51.8379C128.115 52.2498 128.009 52.6156 127.796 52.9352C127.585 53.2548 127.279 53.5069 126.876 53.6916C126.476 53.8763 125.992 53.9686 125.424 53.9686C124.879 53.9686 124.408 53.8822 124.01 53.7094C123.613 53.5365 123.301 53.2915 123.076 52.9743C122.852 52.6547 122.727 52.2759 122.704 51.8379H123.804C123.826 52.1007 123.911 52.3197 124.06 52.4949C124.212 52.6677 124.405 52.7967 124.639 52.8819C124.876 52.9648 125.135 53.0062 125.417 53.0062C125.727 53.0062 126.003 52.9577 126.244 52.8606C126.488 52.7612 126.68 52.6239 126.819 52.4487C126.959 52.2712 127.029 52.064 127.029 51.8273C127.029 51.6118 126.967 51.4355 126.844 51.2981C126.723 51.1608 126.559 51.0472 126.351 50.9572C126.145 50.8673 125.911 50.788 125.651 50.7193L124.792 50.4849C124.209 50.3263 123.748 50.0931 123.407 49.7854C123.068 49.4776 122.899 49.0704 122.899 48.5638C122.899 48.1447 123.013 47.779 123.24 47.4665C123.467 47.154 123.775 46.9113 124.163 46.7385C124.551 46.5633 124.989 46.4757 125.477 46.4757C125.969 46.4757 126.404 46.5621 126.78 46.7349C127.159 46.9078 127.457 47.1457 127.675 47.4487C127.893 47.7494 128.007 48.095 128.016 48.4856H126.958Z" fill="black"/>
<path d="M131.692 53.9579C131.155 53.9579 130.692 53.8431 130.304 53.6135C129.918 53.3815 129.62 53.056 129.409 52.6369C129.201 52.2155 129.097 51.7219 129.097 51.1561C129.097 50.5974 129.201 50.105 129.409 49.6788C129.62 49.2527 129.913 48.9201 130.29 48.681C130.668 48.4418 131.111 48.3223 131.618 48.3223C131.926 48.3223 132.224 48.3732 132.513 48.475C132.802 48.5768 133.061 48.7366 133.29 48.9544C133.52 49.1722 133.701 49.4551 133.834 49.8031C133.966 50.1488 134.033 50.569 134.033 51.0638V51.4402H129.697V50.6447H132.992C132.992 50.3654 132.935 50.118 132.822 49.9025C132.708 49.6847 132.548 49.5131 132.342 49.3876C132.139 49.2622 131.9 49.1994 131.625 49.1994C131.327 49.1994 131.066 49.2728 130.844 49.4196C130.623 49.564 130.453 49.7534 130.332 49.9878C130.214 50.2198 130.155 50.4719 130.155 50.7442V51.3656C130.155 51.7302 130.219 52.0403 130.347 52.296C130.477 52.5517 130.658 52.747 130.89 52.8819C131.122 53.0145 131.393 53.0808 131.703 53.0808C131.904 53.0808 132.088 53.0524 132.253 52.9956C132.419 52.9364 132.562 52.8488 132.683 52.7328C132.804 52.6168 132.896 52.4736 132.96 52.3031L133.965 52.4842C133.885 52.7801 133.74 53.0394 133.532 53.2619C133.326 53.4821 133.067 53.6537 132.754 53.7768C132.444 53.8976 132.09 53.9579 131.692 53.9579Z" fill="black"/>
<path d="M136.272 46.5751V53.8479H135.211V46.5751H136.272Z" fill="black"/>
<path d="M140.052 53.9579C139.514 53.9579 139.052 53.8431 138.663 53.6135C138.277 53.3815 137.979 53.056 137.768 52.6369C137.56 52.2155 137.456 51.7219 137.456 51.1561C137.456 50.5974 137.56 50.105 137.768 49.6788C137.979 49.2527 138.273 48.9201 138.649 48.681C139.028 48.4418 139.471 48.3223 139.977 48.3223C140.285 48.3223 140.583 48.3732 140.872 48.475C141.161 48.5768 141.42 48.7366 141.65 48.9544C141.879 49.1722 142.061 49.4551 142.193 49.8031C142.326 50.1488 142.392 50.569 142.392 51.0638V51.4402H138.056V50.6447H141.351C141.351 50.3654 141.295 50.118 141.181 49.9025C141.067 49.6847 140.908 49.5131 140.702 49.3876C140.498 49.2622 140.259 49.1994 139.984 49.1994C139.686 49.1994 139.426 49.2728 139.203 49.4196C138.983 49.564 138.812 49.7534 138.692 49.9878C138.573 50.2198 138.514 50.4719 138.514 50.7442V51.3656C138.514 51.7302 138.578 52.0403 138.706 52.296C138.836 52.5517 139.017 52.747 139.249 52.8819C139.481 53.0145 139.752 53.0808 140.062 53.0808C140.264 53.0808 140.447 53.0524 140.613 52.9956C140.779 52.9364 140.922 52.8488 141.043 52.7328C141.163 52.6168 141.256 52.4736 141.32 52.3031L142.324 52.4842C142.244 52.7801 142.1 53.0394 141.891 53.2619C141.685 53.4821 141.426 53.6537 141.114 53.7768C140.803 53.8976 140.449 53.9579 140.052 53.9579Z" fill="black"/>
<path d="M145.868 53.9579C145.34 53.9579 144.885 53.8384 144.504 53.5993C144.125 53.3578 143.834 53.0252 143.63 52.6014C143.427 52.1776 143.325 51.6923 143.325 51.1454C143.325 50.5915 143.429 50.1026 143.638 49.6788C143.846 49.2527 144.139 48.9201 144.518 48.681C144.897 48.4418 145.343 48.3223 145.857 48.3223C146.271 48.3223 146.641 48.3992 146.965 48.5531C147.289 48.7046 147.551 48.9177 147.75 49.1923C147.951 49.4669 148.071 49.7877 148.108 50.1547H147.075C147.018 49.899 146.888 49.6788 146.684 49.4942C146.483 49.3095 146.213 49.2172 145.875 49.2172C145.579 49.2172 145.32 49.2953 145.097 49.4515C144.877 49.6054 144.705 49.8256 144.582 50.1121C144.459 50.3962 144.397 50.7323 144.397 51.1206C144.397 51.5183 144.458 51.8616 144.579 52.1504C144.699 52.4392 144.87 52.663 145.09 52.8216C145.312 52.9802 145.574 53.0595 145.875 53.0595C146.076 53.0595 146.258 53.0228 146.422 52.9494C146.587 52.8737 146.726 52.7659 146.837 52.6263C146.951 52.4866 147.03 52.3185 147.075 52.122H148.108C148.071 52.4748 147.956 52.7896 147.764 53.0666C147.572 53.3436 147.315 53.5614 146.993 53.72C146.674 53.8786 146.299 53.9579 145.868 53.9579Z" fill="black"/>
<path d="M151.79 48.3933V49.2456H148.811V48.3933H151.79ZM149.61 47.0865H150.671V52.2463C150.671 52.4523 150.702 52.6073 150.764 52.7115C150.825 52.8133 150.905 52.8831 151.002 52.921C151.101 52.9565 151.209 52.9743 151.325 52.9743C151.41 52.9743 151.485 52.9684 151.549 52.9565C151.612 52.9447 151.662 52.9352 151.698 52.9281L151.889 53.8052C151.828 53.8289 151.74 53.8526 151.627 53.8763C151.513 53.9023 151.371 53.9165 151.201 53.9189C150.921 53.9236 150.661 53.8739 150.419 53.7697C150.178 53.6656 149.983 53.5046 149.833 53.2868C149.684 53.069 149.61 52.7955 149.61 52.4665V47.0865Z" fill="black"/>
<path d="M155.257 53.9579C154.719 53.9579 154.257 53.8431 153.868 53.6135C153.482 53.3815 153.184 53.056 152.973 52.6369C152.765 52.2155 152.661 51.7219 152.661 51.1561C152.661 50.5974 152.765 50.105 152.973 49.6788C153.184 49.2527 153.478 48.9201 153.854 48.681C154.233 48.4418 154.676 48.3223 155.182 48.3223C155.49 48.3223 155.788 48.3732 156.077 48.475C156.366 48.5768 156.625 48.7366 156.855 48.9544C157.084 49.1722 157.266 49.4551 157.398 49.8031C157.531 50.1488 157.597 50.569 157.597 51.0638V51.4402H153.261V50.6447H156.557C156.557 50.3654 156.5 50.118 156.386 49.9025C156.272 49.6847 156.113 49.5131 155.907 49.3876C155.703 49.2622 155.464 49.1994 155.189 49.1994C154.891 49.1994 154.631 49.2728 154.408 49.4196C154.188 49.564 154.017 49.7534 153.897 49.9878C153.778 50.2198 153.719 50.4719 153.719 50.7442V51.3656C153.719 51.7302 153.783 52.0403 153.911 52.296C154.041 52.5517 154.222 52.747 154.454 52.8819C154.686 53.0145 154.957 53.0808 155.267 53.0808C155.469 53.0808 155.652 53.0524 155.818 52.9956C155.984 52.9364 156.127 52.8488 156.248 52.7328C156.368 52.6168 156.461 52.4736 156.525 52.3031L157.53 52.4842C157.449 52.7801 157.305 53.0394 157.096 53.2619C156.89 53.4821 156.631 53.6537 156.319 53.7768C156.008 53.8976 155.655 53.9579 155.257 53.9579Z" fill="black"/>
<path d="M160.817 53.9544C160.377 53.9544 159.984 53.8419 159.638 53.617C159.295 53.3898 159.025 53.0666 158.828 52.6476C158.634 52.2262 158.537 51.7207 158.537 51.1312C158.537 50.5417 158.635 50.0375 158.832 49.6185C159.031 49.1994 159.303 48.8786 159.649 48.6561C159.994 48.4336 160.386 48.3223 160.824 48.3223C161.163 48.3223 161.435 48.3791 161.641 48.4927C161.849 48.604 162.01 48.7342 162.124 48.8834C162.24 49.0325 162.33 49.1639 162.394 49.2775H162.458V46.5751H163.519V53.8479H162.483V52.9991H162.394C162.33 53.1151 162.237 53.2477 162.117 53.3969C161.998 53.546 161.835 53.6762 161.627 53.7875C161.418 53.8988 161.148 53.9544 160.817 53.9544ZM161.051 53.0489C161.357 53.0489 161.615 52.9684 161.826 52.8074C162.039 52.644 162.2 52.4179 162.309 52.1291C162.42 51.8403 162.475 51.5041 162.475 51.1206C162.475 50.7418 162.421 50.4104 162.312 50.1263C162.203 49.8422 162.043 49.6208 161.833 49.4622C161.622 49.3036 161.362 49.2243 161.051 49.2243C160.732 49.2243 160.465 49.3071 160.252 49.4729C160.039 49.6386 159.878 49.8647 159.769 50.1511C159.663 50.4376 159.61 50.7607 159.61 51.1206C159.61 51.4852 159.664 51.8131 159.773 52.1042C159.882 52.3954 160.043 52.6263 160.256 52.7967C160.471 52.9648 160.737 53.0489 161.051 53.0489Z" fill="black"/>
<path d="M173.807 48.9402H172.699C172.657 48.7034 172.577 48.4951 172.461 48.3152C172.345 48.1353 172.203 47.9826 172.035 47.8571C171.867 47.7316 171.679 47.6369 171.47 47.573C171.264 47.5091 171.045 47.4771 170.813 47.4771C170.394 47.4771 170.019 47.5825 169.688 47.7932C169.359 48.0039 169.098 48.3128 168.907 48.72C168.717 49.1272 168.622 49.6244 168.622 50.2115C168.622 50.8033 168.717 51.3029 168.907 51.7101C169.098 52.1173 169.36 52.425 169.691 52.6334C170.023 52.8417 170.396 52.9459 170.81 52.9459C171.04 52.9459 171.257 52.9151 171.463 52.8535C171.672 52.7896 171.86 52.6961 172.028 52.573C172.196 52.4499 172.338 52.2996 172.454 52.122C172.572 51.9421 172.654 51.7361 172.699 51.5041L173.807 51.5077C173.748 51.8651 173.633 52.1942 173.463 52.4949C173.295 52.7932 173.078 53.0512 172.813 53.269C172.55 53.4845 172.249 53.6514 171.911 53.7697C171.572 53.8881 171.203 53.9473 170.803 53.9473C170.173 53.9473 169.612 53.7981 169.12 53.4998C168.627 53.1992 168.239 52.7695 167.955 52.2108C167.673 51.6521 167.532 50.9856 167.532 50.2115C167.532 49.435 167.674 48.7685 167.958 48.2122C168.242 47.6535 168.631 47.225 169.123 46.9267C169.616 46.626 170.175 46.4757 170.803 46.4757C171.189 46.4757 171.549 46.5313 171.882 46.6426C172.219 46.7515 172.52 46.9125 172.788 47.1256C173.055 47.3363 173.277 47.5943 173.452 47.8997C173.627 48.2027 173.746 48.5496 173.807 48.9402Z" fill="black"/>
<path d="M177.332 53.9579C176.821 53.9579 176.375 53.8408 175.994 53.6064C175.613 53.372 175.317 53.0441 175.106 52.6227C174.895 52.2013 174.79 51.7089 174.79 51.1454C174.79 50.5796 174.895 50.0848 175.106 49.6611C175.317 49.2373 175.613 48.9082 175.994 48.6739C176.375 48.4395 176.821 48.3223 177.332 48.3223C177.844 48.3223 178.29 48.4395 178.671 48.6739C179.052 48.9082 179.348 49.2373 179.559 49.6611C179.77 50.0848 179.875 50.5796 179.875 51.1454C179.875 51.7089 179.77 52.2013 179.559 52.6227C179.348 53.0441 179.052 53.372 178.671 53.6064C178.29 53.8408 177.844 53.9579 177.332 53.9579ZM177.336 53.0666C177.667 53.0666 177.942 52.979 178.16 52.8038C178.378 52.6286 178.539 52.3954 178.643 52.1042C178.749 51.8131 178.803 51.4923 178.803 51.1419C178.803 50.7939 178.749 50.4743 178.643 50.1831C178.539 49.8895 178.378 49.654 178.16 49.4764C177.942 49.2989 177.667 49.2101 177.336 49.2101C177.002 49.2101 176.725 49.2989 176.505 49.4764C176.287 49.654 176.125 49.8895 176.019 50.1831C175.914 50.4743 175.862 50.7939 175.862 51.1419C175.862 51.4923 175.914 51.8131 176.019 52.1042C176.125 52.3954 176.287 52.6286 176.505 52.8038C176.725 52.979 177.002 53.0666 177.336 53.0666Z" fill="black"/>
<path d="M183.102 53.9544C182.662 53.9544 182.269 53.8419 181.923 53.617C181.58 53.3898 181.31 53.0666 181.114 52.6476C180.919 52.2262 180.822 51.7207 180.822 51.1312C180.822 50.5417 180.921 50.0375 181.117 49.6185C181.316 49.1994 181.588 48.8786 181.934 48.6561C182.28 48.4336 182.671 48.3223 183.109 48.3223C183.448 48.3223 183.72 48.3791 183.926 48.4927C184.134 48.604 184.295 48.7342 184.409 48.8834C184.525 49.0325 184.615 49.1639 184.679 49.2775H184.743V46.5751H185.805V53.8479H184.768V52.9991H184.679C184.615 53.1151 184.523 53.2477 184.402 53.3969C184.284 53.546 184.12 53.6762 183.912 53.7875C183.704 53.8988 183.434 53.9544 183.102 53.9544ZM183.337 53.0489C183.642 53.0489 183.9 52.9684 184.111 52.8074C184.324 52.644 184.485 52.4179 184.594 52.1291C184.705 51.8403 184.761 51.5041 184.761 51.1206C184.761 50.7418 184.706 50.4104 184.597 50.1263C184.488 49.8422 184.329 49.6208 184.118 49.4622C183.907 49.3036 183.647 49.2243 183.337 49.2243C183.017 49.2243 182.751 49.3071 182.538 49.4729C182.324 49.6386 182.164 49.8647 182.055 50.1511C181.948 50.4376 181.895 50.7607 181.895 51.1206C181.895 51.4852 181.949 51.8131 182.058 52.1042C182.167 52.3954 182.328 52.6263 182.541 52.7967C182.757 52.9648 183.022 53.0489 183.337 53.0489Z" fill="black"/>
<path d="M189.671 53.9579C189.133 53.9579 188.671 53.8431 188.282 53.6135C187.897 53.3815 187.598 53.056 187.388 52.6369C187.179 52.2155 187.075 51.7219 187.075 51.1561C187.075 50.5974 187.179 50.105 187.388 49.6788C187.598 49.2527 187.892 48.9201 188.268 48.681C188.647 48.4418 189.09 48.3223 189.596 48.3223C189.904 48.3223 190.202 48.3732 190.491 48.475C190.78 48.5768 191.039 48.7366 191.269 48.9544C191.499 49.1722 191.68 49.4551 191.812 49.8031C191.945 50.1488 192.011 50.569 192.011 51.0638V51.4402H187.675V50.6447H190.971C190.971 50.3654 190.914 50.118 190.8 49.9025C190.687 49.6847 190.527 49.5131 190.321 49.3876C190.117 49.2622 189.878 49.1994 189.603 49.1994C189.305 49.1994 189.045 49.2728 188.822 49.4196C188.602 49.564 188.432 49.7534 188.311 49.9878C188.192 50.2198 188.133 50.4719 188.133 50.7442V51.3656C188.133 51.7302 188.197 52.0403 188.325 52.296C188.455 52.5517 188.636 52.747 188.868 52.8819C189.1 53.0145 189.371 53.0808 189.682 53.0808C189.883 53.0808 190.066 53.0524 190.232 52.9956C190.398 52.9364 190.541 52.8488 190.662 52.7328C190.782 52.6168 190.875 52.4736 190.939 52.3031L191.944 52.4842C191.863 52.7801 191.719 53.0394 191.51 53.2619C191.304 53.4821 191.045 53.6537 190.733 53.7768C190.423 53.8976 190.069 53.9579 189.671 53.9579Z" fill="black"/>
</g>
<g clip-path="url(#clip1_383_546)">
<rect y="66.0886" width="278" height="22" rx="4" fill="black" fill-opacity="0.05"/>
<path d="M98.124 74.816C98.0554 74.6005 97.963 74.4076 97.847 74.2371C97.7334 74.0643 97.5973 73.9175 97.4387 73.7968C97.28 73.6737 97.0989 73.5802 96.8953 73.5162C96.6941 73.4523 96.4727 73.4204 96.2313 73.4204C95.8217 73.4204 95.4524 73.5257 95.1233 73.7364C94.7942 73.9471 94.5338 74.2561 94.3421 74.6633C94.1527 75.0681 94.058 75.5641 94.058 76.1512C94.058 76.7407 94.1539 77.239 94.3456 77.6462C94.5374 78.0534 94.8002 78.3624 95.134 78.5731C95.4678 78.7838 95.8477 78.8891 96.2739 78.8891C96.6692 78.8891 97.0137 78.8086 97.3073 78.6476C97.6032 78.4866 97.8316 78.2594 97.9926 77.9658C98.156 77.6699 98.2377 77.3219 98.2377 76.9218L98.5218 76.975H96.4408V76.0695H99.2994V76.8969C99.2994 77.5077 99.1692 78.038 98.9088 78.4878C98.6508 78.9353 98.2933 79.2809 97.8364 79.5248C97.3818 79.7686 96.861 79.8905 96.2739 79.8905C95.6157 79.8905 95.0381 79.739 94.5409 79.436C94.0461 79.1329 93.6602 78.7033 93.3833 78.1469C93.1063 77.5882 92.9678 76.9253 92.9678 76.1583C92.9678 75.5783 93.0483 75.0574 93.2093 74.5958C93.3702 74.1341 93.5963 73.7423 93.8875 73.4204C94.1811 73.096 94.5255 72.8486 94.9209 72.6782C95.3186 72.5053 95.753 72.4189 96.2242 72.4189C96.6172 72.4189 96.9829 72.4769 97.3215 72.5929C97.6624 72.7089 97.9654 72.8735 98.2306 73.0865C98.4981 73.2996 98.7194 73.5529 98.8946 73.8465C99.0698 74.1377 99.1882 74.4608 99.2497 74.816H98.124Z" fill="black"/>
<path d="M102.958 79.9012C102.421 79.9012 101.958 79.7864 101.57 79.5567C101.184 79.3247 100.885 78.9992 100.675 78.5802C100.466 78.1588 100.362 77.6651 100.362 77.0993C100.362 76.5406 100.466 76.0482 100.675 75.6221C100.885 75.1959 101.179 74.8633 101.555 74.6242C101.934 74.3851 102.377 74.2655 102.883 74.2655C103.191 74.2655 103.489 74.3164 103.778 74.4182C104.067 74.52 104.326 74.6798 104.556 74.8976C104.786 75.1154 104.967 75.3983 105.099 75.7463C105.232 76.092 105.298 76.5122 105.298 77.007V77.3834H100.962V76.588H104.258C104.258 76.3086 104.201 76.0612 104.087 75.8458C103.974 75.628 103.814 75.4563 103.608 75.3309C103.404 75.2054 103.165 75.1427 102.891 75.1427C102.592 75.1427 102.332 75.216 102.109 75.3628C101.889 75.5072 101.719 75.6966 101.598 75.931C101.48 76.163 101.42 76.4151 101.42 76.6874V77.3088C101.42 77.6734 101.484 77.9836 101.612 78.2392C101.742 78.4949 101.923 78.6902 102.155 78.8252C102.387 78.9578 102.659 79.024 102.969 79.024C103.17 79.024 103.353 78.9956 103.519 78.9388C103.685 78.8796 103.828 78.792 103.949 78.676C104.07 78.56 104.162 78.4168 104.226 78.2463L105.231 78.4275C105.15 78.7234 105.006 78.9826 104.797 79.2052C104.592 79.4253 104.332 79.597 104.02 79.7201C103.71 79.8408 103.356 79.9012 102.958 79.9012Z" fill="black"/>
<path d="M107.538 76.5525V79.7911H106.476V74.3365H107.495V75.2243H107.563C107.688 74.9355 107.885 74.7035 108.152 74.5283C108.422 74.3531 108.762 74.2655 109.172 74.2655C109.543 74.2655 109.869 74.3437 110.148 74.4999C110.428 74.6538 110.644 74.8834 110.798 75.1888C110.952 75.4942 111.029 75.8718 111.029 76.3216V79.7911H109.967V76.4495C109.967 76.0541 109.864 75.7452 109.658 75.5226C109.452 75.2977 109.169 75.1853 108.809 75.1853C108.563 75.1853 108.344 75.2385 108.152 75.3451C107.963 75.4516 107.813 75.6079 107.701 75.8138C107.593 76.0174 107.538 76.2636 107.538 76.5525Z" fill="black"/>
<path d="M114.804 79.9012C114.266 79.9012 113.803 79.7864 113.415 79.5567C113.029 79.3247 112.731 78.9992 112.52 78.5802C112.312 78.1588 112.208 77.6651 112.208 77.0993C112.208 76.5406 112.312 76.0482 112.52 75.6221C112.731 75.1959 113.025 74.8633 113.401 74.6242C113.78 74.3851 114.223 74.2655 114.729 74.2655C115.037 74.2655 115.335 74.3164 115.624 74.4182C115.913 74.52 116.172 74.6798 116.402 74.8976C116.631 75.1154 116.812 75.3983 116.945 75.7463C117.078 76.092 117.144 76.5122 117.144 77.007V77.3834H112.808V76.588H116.103C116.103 76.3086 116.047 76.0612 115.933 75.8458C115.819 75.628 115.66 75.4563 115.454 75.3309C115.25 75.2054 115.011 75.1427 114.736 75.1427C114.438 75.1427 114.178 75.216 113.955 75.3628C113.735 75.5072 113.564 75.6966 113.444 75.931C113.325 76.163 113.266 76.4151 113.266 76.6874V77.3088C113.266 77.6734 113.33 77.9836 113.458 78.2392C113.588 78.4949 113.769 78.6902 114.001 78.8252C114.233 78.9578 114.504 79.024 114.814 79.024C115.016 79.024 115.199 78.9956 115.365 78.9388C115.531 78.8796 115.674 78.792 115.794 78.676C115.915 78.56 116.008 78.4168 116.071 78.2463L117.076 78.4275C116.996 78.7234 116.852 78.9826 116.643 79.2052C116.437 79.4253 116.178 79.597 115.866 79.7201C115.555 79.8408 115.201 79.9012 114.804 79.9012Z" fill="black"/>
<path d="M118.322 79.7911V74.3365H119.348V75.203H119.405C119.505 74.9095 119.68 74.6786 119.931 74.5106C120.184 74.3401 120.47 74.2549 120.79 74.2549C120.856 74.2549 120.934 74.2572 121.024 74.262C121.117 74.2667 121.189 74.2726 121.241 74.2797V75.2954C121.198 75.2835 121.123 75.2705 121.014 75.2563C120.905 75.2397 120.796 75.2314 120.687 75.2314C120.436 75.2314 120.212 75.2847 120.016 75.3912C119.822 75.4954 119.668 75.641 119.554 75.828C119.441 76.0127 119.384 76.2234 119.384 76.4601V79.7911H118.322Z" fill="black"/>
<path d="M123.698 79.9118C123.353 79.9118 123.04 79.8479 122.761 79.7201C122.482 79.5899 122.26 79.4017 122.097 79.1554C121.936 78.9092 121.855 78.6074 121.855 78.2499C121.855 77.9421 121.915 77.6888 122.033 77.49C122.151 77.2911 122.311 77.1337 122.512 77.0177C122.714 76.9017 122.938 76.8141 123.187 76.7549C123.436 76.6957 123.689 76.6507 123.947 76.6199C124.274 76.582 124.539 76.5513 124.742 76.5276C124.946 76.5016 125.094 76.4601 125.186 76.4033C125.279 76.3465 125.325 76.2542 125.325 76.1263V76.1015C125.325 75.7913 125.237 75.551 125.062 75.3806C124.889 75.2101 124.631 75.1249 124.288 75.1249C123.93 75.1249 123.649 75.2042 123.443 75.3628C123.239 75.5191 123.098 75.6931 123.02 75.8848L122.022 75.6576C122.141 75.3261 122.313 75.0586 122.541 74.855C122.77 74.649 123.034 74.4999 123.333 74.4076C123.631 74.3129 123.945 74.2655 124.274 74.2655C124.492 74.2655 124.722 74.2916 124.966 74.3437C125.212 74.3934 125.442 74.4857 125.655 74.6206C125.871 74.7556 126.047 74.9485 126.184 75.1995C126.322 75.4481 126.39 75.7712 126.39 76.1689V79.7911H125.353V79.0454H125.311C125.242 79.1827 125.139 79.3176 125.002 79.4502C124.864 79.5828 124.688 79.6928 124.473 79.7804C124.257 79.868 123.999 79.9118 123.698 79.9118ZM123.929 79.0596C124.223 79.0596 124.474 79.0016 124.682 78.8856C124.893 78.7696 125.053 78.618 125.161 78.431C125.273 78.2416 125.328 78.0392 125.328 77.8238V77.1206C125.291 77.1585 125.217 77.194 125.108 77.2272C125.002 77.2579 124.88 77.2852 124.742 77.3088C124.605 77.3302 124.471 77.3503 124.341 77.3692C124.211 77.3858 124.102 77.4 124.014 77.4118C123.809 77.4379 123.62 77.4817 123.45 77.5432C123.282 77.6048 123.147 77.6936 123.045 77.8096C122.946 77.9232 122.896 78.0747 122.896 78.2641C122.896 78.5269 122.993 78.7258 123.187 78.8607C123.381 78.9933 123.629 79.0596 123.929 79.0596Z" fill="black"/>
<path d="M130.351 74.3365V75.1888H127.371V74.3365H130.351ZM128.17 73.0297H129.232V78.1895C129.232 78.3955 129.263 78.5506 129.324 78.6547C129.386 78.7565 129.465 78.8264 129.562 78.8642C129.662 78.8998 129.769 78.9175 129.885 78.9175C129.971 78.9175 130.045 78.9116 130.109 78.8998C130.173 78.8879 130.223 78.8785 130.258 78.8713L130.45 79.7485C130.388 79.7722 130.301 79.7958 130.187 79.8195C130.074 79.8455 129.932 79.8597 129.761 79.8621C129.482 79.8669 129.221 79.8171 128.98 79.713C128.738 79.6088 128.543 79.4478 128.394 79.23C128.245 79.0122 128.17 78.7388 128.17 78.4097V73.0297Z" fill="black"/>
<path d="M133.817 79.9012C133.28 79.9012 132.817 79.7864 132.429 79.5567C132.043 79.3247 131.745 78.9992 131.534 78.5802C131.326 78.1588 131.222 77.6651 131.222 77.0993C131.222 76.5406 131.326 76.0482 131.534 75.6221C131.745 75.1959 132.038 74.8633 132.415 74.6242C132.793 74.3851 133.236 74.2655 133.743 74.2655C134.051 74.2655 134.349 74.3164 134.638 74.4182C134.927 74.52 135.186 74.6798 135.415 74.8976C135.645 75.1154 135.826 75.3983 135.959 75.7463C136.091 76.092 136.158 76.5122 136.158 77.007V77.3834H131.822V76.588H135.117C135.117 76.3086 135.06 76.0612 134.947 75.8458C134.833 75.628 134.673 75.4563 134.467 75.3309C134.264 75.2054 134.025 75.1427 133.75 75.1427C133.452 75.1427 133.191 75.216 132.969 75.3628C132.748 75.5072 132.578 75.6966 132.457 75.931C132.339 76.163 132.28 76.4151 132.28 76.6874V77.3088C132.28 77.6734 132.344 77.9836 132.472 78.2392C132.602 78.4949 132.783 78.6902 133.015 78.8252C133.247 78.9578 133.518 79.024 133.828 79.024C134.029 79.024 134.213 78.9956 134.378 78.9388C134.544 78.8796 134.687 78.792 134.808 78.676C134.929 78.56 135.021 78.4168 135.085 78.2463L136.09 78.4275C136.01 78.7234 135.865 78.9826 135.657 79.2052C135.451 79.4253 135.192 79.597 134.879 79.7201C134.569 79.8408 134.215 79.9012 133.817 79.9012Z" fill="black"/>
<path d="M142.422 79.7911H140.067V72.5184H142.496C143.209 72.5184 143.821 72.664 144.332 72.9552C144.844 73.244 145.235 73.6595 145.508 74.2016C145.782 74.7414 145.92 75.3889 145.92 76.1441C145.92 76.9017 145.781 77.5527 145.504 78.0972C145.23 78.6417 144.832 79.0607 144.311 79.3543C143.79 79.6455 143.16 79.7911 142.422 79.7911ZM141.165 78.8323H142.361C142.915 78.8323 143.376 78.7281 143.743 78.5198C144.11 78.3091 144.384 78.0049 144.567 77.6071C144.749 77.2071 144.84 76.7194 144.84 76.1441C144.84 75.5735 144.749 75.0894 144.567 74.6917C144.387 74.2939 144.118 73.9921 143.761 73.7861C143.403 73.5802 142.959 73.4772 142.429 73.4772H141.165V78.8323Z" fill="black"/>
<path d="M149.497 79.9012C148.985 79.9012 148.539 79.784 148.158 79.5496C147.777 79.3152 147.481 78.9874 147.27 78.566C147.059 78.1445 146.954 77.6521 146.954 77.0887C146.954 76.5229 147.059 76.0281 147.27 75.6043C147.481 75.1805 147.777 74.8515 148.158 74.6171C148.539 74.3827 148.985 74.2655 149.497 74.2655C150.008 74.2655 150.454 74.3827 150.835 74.6171C151.216 74.8515 151.512 75.1805 151.723 75.6043C151.934 76.0281 152.039 76.5229 152.039 77.0887C152.039 77.6521 151.934 78.1445 151.723 78.566C151.512 78.9874 151.216 79.3152 150.835 79.5496C150.454 79.784 150.008 79.9012 149.497 79.9012ZM149.5 79.0098C149.832 79.0098 150.106 78.9222 150.324 78.7471C150.542 78.5719 150.703 78.3387 150.807 78.0475C150.913 77.7563 150.967 77.4355 150.967 77.0851C150.967 76.7371 150.913 76.4175 150.807 76.1263C150.703 75.8328 150.542 75.5972 150.324 75.4196C150.106 75.2421 149.832 75.1533 149.5 75.1533C149.166 75.1533 148.889 75.2421 148.669 75.4196C148.451 75.5972 148.289 75.8328 148.183 76.1263C148.078 76.4175 148.026 76.7371 148.026 77.0851C148.026 77.4355 148.078 77.7563 148.183 78.0475C148.289 78.3387 148.451 78.5719 148.669 78.7471C148.889 78.9222 149.166 79.0098 149.5 79.0098Z" fill="black"/>
<path d="M155.522 79.9012C154.994 79.9012 154.539 79.7816 154.158 79.5425C153.78 79.301 153.488 78.9684 153.285 78.5446C153.081 78.1209 152.979 77.6356 152.979 77.0887C152.979 76.5347 153.083 76.0458 153.292 75.6221C153.5 75.1959 153.794 74.8633 154.172 74.6242C154.551 74.3851 154.998 74.2655 155.511 74.2655C155.926 74.2655 156.295 74.3425 156.619 74.4963C156.944 74.6479 157.205 74.8609 157.404 75.1356C157.605 75.4102 157.725 75.731 157.763 76.0979H156.729C156.672 75.8422 156.542 75.6221 156.339 75.4374C156.137 75.2527 155.868 75.1604 155.529 75.1604C155.233 75.1604 154.974 75.2385 154.751 75.3948C154.531 75.5487 154.36 75.7688 154.236 76.0553C154.113 76.3394 154.052 76.6756 154.052 77.0638C154.052 77.4615 154.112 77.8048 154.233 78.0937C154.354 78.3825 154.524 78.6062 154.744 78.7648C154.967 78.9234 155.228 79.0027 155.529 79.0027C155.73 79.0027 155.913 78.966 156.076 78.8927C156.242 78.8169 156.38 78.7092 156.491 78.5695C156.605 78.4298 156.684 78.2617 156.729 78.0652H157.763C157.725 78.418 157.61 78.7329 157.418 79.0098C157.226 79.2868 156.97 79.5046 156.648 79.6633C156.328 79.8219 155.953 79.9012 155.522 79.9012Z" fill="black"/>
<path d="M162.986 75.6682L162.023 75.8387C161.983 75.7156 161.919 75.5984 161.831 75.4871C161.746 75.3758 161.63 75.2847 161.483 75.2137C161.337 75.1427 161.153 75.1071 160.933 75.1071C160.632 75.1071 160.381 75.1746 160.18 75.3096C159.979 75.4421 159.878 75.6138 159.878 75.8245C159.878 76.0068 159.946 76.1535 160.081 76.2648C160.216 76.3761 160.433 76.4672 160.734 76.5383L161.601 76.7371C162.102 76.8531 162.477 77.0319 162.723 77.2733C162.969 77.5148 163.092 77.8285 163.092 78.2144C163.092 78.5411 162.997 78.8323 162.808 79.088C162.621 79.3413 162.359 79.5401 162.023 79.6846C161.689 79.829 161.302 79.9012 160.862 79.9012C160.251 79.9012 159.753 79.771 159.367 79.5106C158.981 79.2478 158.744 78.8749 158.657 78.3919L159.683 78.2357C159.747 78.5032 159.878 78.7056 160.077 78.8429C160.276 78.9779 160.535 79.0454 160.855 79.0454C161.203 79.0454 161.481 78.9731 161.689 78.8287C161.898 78.682 162.002 78.5032 162.002 78.2925C162.002 78.1221 161.938 77.9788 161.81 77.8628C161.685 77.7468 161.492 77.6592 161.231 77.6L160.308 77.3976C159.799 77.2816 159.423 77.097 159.179 76.8437C158.937 76.5903 158.816 76.2695 158.816 75.8813C158.816 75.5593 158.906 75.2776 159.086 75.0361C159.266 74.7946 159.515 74.6064 159.832 74.4715C160.149 74.3342 160.513 74.2655 160.922 74.2655C161.512 74.2655 161.976 74.3934 162.314 74.649C162.653 74.9024 162.877 75.2421 162.986 75.6682Z" fill="black"/>
<path d="M166.806 74.3365V75.1888H163.826V74.3365H166.806ZM164.625 73.0297H165.687V78.1895C165.687 78.3955 165.718 78.5506 165.779 78.6547C165.841 78.7565 165.92 78.8264 166.017 78.8642C166.117 78.8998 166.224 78.9175 166.34 78.9175C166.426 78.9175 166.5 78.9116 166.564 78.8998C166.628 78.8879 166.678 78.8785 166.713 78.8713L166.905 79.7485C166.844 79.7722 166.756 79.7958 166.642 79.8195C166.529 79.8455 166.387 79.8597 166.216 79.8621C165.937 79.8669 165.676 79.8171 165.435 79.713C165.193 79.6088 164.998 79.4478 164.849 79.23C164.7 79.0122 164.625 78.7388 164.625 78.4097V73.0297Z" fill="black"/>
<path d="M167.98 79.7911V74.3365H169.006V75.203H169.063C169.163 74.9095 169.338 74.6786 169.589 74.5106C169.842 74.3401 170.129 74.2549 170.448 74.2549C170.515 74.2549 170.593 74.2572 170.683 74.262C170.775 74.2667 170.847 74.2726 170.899 74.2797V75.2954C170.857 75.2835 170.781 75.2705 170.672 75.2563C170.563 75.2397 170.454 75.2314 170.345 75.2314C170.094 75.2314 169.871 75.2847 169.674 75.3912C169.48 75.4954 169.326 75.641 169.212 75.828C169.099 76.0127 169.042 76.2234 169.042 76.4601V79.7911H167.98Z" fill="black"/>
<path d="M171.818 79.7911V74.3365H172.88V79.7911H171.818ZM172.354 73.4949C172.17 73.4949 172.011 73.4334 171.878 73.3103C171.748 73.1848 171.683 73.0356 171.683 72.8628C171.683 72.6876 171.748 72.5385 171.878 72.4154C172.011 72.2899 172.17 72.2272 172.354 72.2272C172.539 72.2272 172.696 72.2899 172.827 72.4154C172.959 72.5385 173.025 72.6876 173.025 72.8628C173.025 73.0356 172.959 73.1848 172.827 73.3103C172.696 73.4334 172.539 73.4949 172.354 73.4949Z" fill="black"/>
<path d="M175.37 76.5525V79.7911H174.308V74.3365H175.328V75.2243H175.395C175.52 74.9355 175.717 74.7035 175.984 74.5283C176.254 74.3531 176.594 74.2655 177.004 74.2655C177.375 74.2655 177.701 74.3437 177.98 74.4999C178.26 74.6538 178.476 74.8834 178.63 75.1888C178.784 75.4942 178.861 75.8718 178.861 76.3216V79.7911H177.799V76.4495C177.799 76.0541 177.696 75.7452 177.49 75.5226C177.284 75.2977 177.001 75.1853 176.641 75.1853C176.395 75.1853 176.176 75.2385 175.984 75.3451C175.795 75.4516 175.645 75.6079 175.533 75.8138C175.425 76.0174 175.37 76.2636 175.37 76.5525Z" fill="black"/>
<path d="M182.572 81.9502C182.139 81.9502 181.766 81.8934 181.453 81.7797C181.143 81.6661 180.89 81.5158 180.693 81.3287C180.497 81.1417 180.35 80.9369 180.253 80.7144L181.166 80.338C181.229 80.4421 181.315 80.5522 181.421 80.6682C181.53 80.7866 181.677 80.8872 181.862 80.9701C182.049 81.0529 182.289 81.0944 182.582 81.0944C182.985 81.0944 183.318 80.9961 183.58 80.7996C183.843 80.6055 183.975 80.2954 183.975 79.8692V78.7968H183.907C183.843 78.9128 183.751 79.0418 183.63 79.1838C183.512 79.3259 183.348 79.449 183.14 79.5532C182.932 79.6573 182.661 79.7094 182.327 79.7094C181.896 79.7094 181.508 79.6088 181.162 79.4076C180.819 79.204 180.546 78.9045 180.345 78.5091C180.146 78.1114 180.047 77.6225 180.047 77.0425C180.047 76.4625 180.145 75.9653 180.342 75.551C180.541 75.1367 180.813 74.8195 181.158 74.5993C181.504 74.3768 181.896 74.2655 182.334 74.2655C182.672 74.2655 182.946 74.3223 183.154 74.436C183.363 74.5472 183.525 74.6775 183.641 74.8266C183.759 74.9758 183.85 75.1071 183.914 75.2208H183.992V74.3365H185.033V79.9118C185.033 80.3806 184.924 80.7653 184.706 81.066C184.488 81.3666 184.194 81.5892 183.822 81.7336C183.453 81.878 183.036 81.9502 182.572 81.9502ZM182.561 78.8287C182.867 78.8287 183.125 78.7577 183.335 78.6157C183.548 78.4713 183.709 78.2653 183.818 77.9978C183.93 77.7279 183.985 77.4047 183.985 77.0283C183.985 76.6614 183.931 76.3382 183.822 76.0588C183.713 75.7795 183.553 75.5617 183.342 75.4054C183.132 75.2468 182.871 75.1675 182.561 75.1675C182.242 75.1675 181.975 75.2504 181.762 75.4161C181.549 75.5794 181.388 75.802 181.279 76.0837C181.173 76.3654 181.119 76.6803 181.119 77.0283C181.119 77.3858 181.174 77.6995 181.283 77.9694C181.392 78.2392 181.553 78.4499 181.766 78.6015C181.981 78.753 182.246 78.8287 182.561 78.8287Z" fill="black"/>
</g>
<g clip-path="url(#clip2_383_546)">
<rect y="92.0886" width="278" height="22" rx="4" fill="black" fill-opacity="0.02"/>
<path d="M99.7461 101.835C99.6774 101.62 99.5851 101.427 99.4691 101.256C99.3555 101.083 99.2193 100.937 99.0607 100.816C98.9021 100.693 98.721 100.599 98.5174 100.535C98.3162 100.471 98.0948 100.44 97.8533 100.44C97.4438 100.44 97.0745 100.545 96.7454 100.756C96.4163 100.966 96.1559 101.275 95.9641 101.682C95.7747 102.087 95.68 102.583 95.68 103.17C95.68 103.76 95.7759 104.258 95.9677 104.665C96.1594 105.073 96.4222 105.382 96.756 105.592C97.0898 105.803 97.4698 105.908 97.896 105.908C98.2913 105.908 98.6358 105.828 98.9293 105.667C99.2253 105.506 99.4537 105.279 99.6147 104.985C99.7781 104.689 99.8597 104.341 99.8597 103.941L100.144 103.994H98.0629V103.089H100.922V103.916C100.922 104.527 100.791 105.057 100.531 105.507C100.273 105.954 99.9154 106.3 99.4585 106.544C99.0039 106.788 98.4831 106.91 97.896 106.91C97.2378 106.91 96.6602 106.758 96.163 106.455C95.6682 106.152 95.2823 105.722 95.0053 105.166C94.7283 104.607 94.5898 103.944 94.5898 103.177C94.5898 102.597 94.6703 102.077 94.8313 101.615C94.9923 101.153 95.2184 100.761 95.5096 100.44C95.8031 100.115 96.1476 99.8678 96.543 99.6973C96.9407 99.5245 97.3751 99.4381 97.8462 99.4381C98.2392 99.4381 98.605 99.4961 98.9435 99.6121C99.2844 99.7281 99.5875 99.8926 99.8526 100.106C100.12 100.319 100.342 100.572 100.517 100.866C100.692 101.157 100.81 101.48 100.872 101.835H99.7461Z" fill="black"/>
<path d="M104.58 106.92C104.043 106.92 103.58 106.806 103.192 106.576C102.806 106.344 102.507 106.018 102.297 105.599C102.088 105.178 101.984 104.684 101.984 104.118C101.984 103.56 102.088 103.067 102.297 102.641C102.507 102.215 102.801 101.882 103.177 101.643C103.556 101.404 103.999 101.285 104.506 101.285C104.813 101.285 105.112 101.336 105.4 101.437C105.689 101.539 105.948 101.699 106.178 101.917C106.408 102.135 106.589 102.418 106.721 102.766C106.854 103.111 106.92 103.531 106.92 104.026V104.403H102.584V103.607H105.88C105.88 103.328 105.823 103.08 105.709 102.865C105.596 102.647 105.436 102.476 105.23 102.35C105.026 102.225 104.787 102.162 104.513 102.162C104.214 102.162 103.954 102.235 103.731 102.382C103.511 102.526 103.341 102.716 103.22 102.95C103.102 103.182 103.042 103.434 103.042 103.707V104.328C103.042 104.693 103.106 105.003 103.234 105.258C103.364 105.514 103.546 105.709 103.778 105.844C104.01 105.977 104.281 106.043 104.591 106.043C104.792 106.043 104.975 106.015 105.141 105.958C105.307 105.899 105.45 105.811 105.571 105.695C105.692 105.579 105.784 105.436 105.848 105.266L106.853 105.447C106.772 105.743 106.628 106.002 106.42 106.224C106.214 106.444 105.954 106.616 105.642 106.739C105.332 106.86 104.978 106.92 104.58 106.92Z" fill="black"/>
<path d="M109.16 103.572V106.81H108.098V101.356H109.118V102.243H109.185C109.31 101.955 109.507 101.723 109.775 101.547C110.044 101.372 110.384 101.285 110.794 101.285C111.165 101.285 111.491 101.363 111.77 101.519C112.05 101.673 112.266 101.903 112.42 102.208C112.574 102.513 112.651 102.891 112.651 103.341V106.81H111.589V103.469C111.589 103.073 111.486 102.764 111.28 102.542C111.074 102.317 110.791 102.204 110.431 102.204C110.185 102.204 109.966 102.258 109.775 102.364C109.585 102.471 109.435 102.627 109.324 102.833C109.215 103.037 109.16 103.283 109.16 103.572Z" fill="black"/>
<path d="M116.426 106.92C115.888 106.92 115.426 106.806 115.037 106.576C114.651 106.344 114.353 106.018 114.142 105.599C113.934 105.178 113.83 104.684 113.83 104.118C113.83 103.56 113.934 103.067 114.142 102.641C114.353 102.215 114.647 101.882 115.023 101.643C115.402 101.404 115.845 101.285 116.351 101.285C116.659 101.285 116.957 101.336 117.246 101.437C117.535 101.539 117.794 101.699 118.024 101.917C118.253 102.135 118.435 102.418 118.567 102.766C118.7 103.111 118.766 103.531 118.766 104.026V104.403H114.43V103.607H117.725C117.725 103.328 117.669 103.08 117.555 102.865C117.441 102.647 117.282 102.476 117.076 102.35C116.872 102.225 116.633 102.162 116.358 102.162C116.06 102.162 115.8 102.235 115.577 102.382C115.357 102.526 115.186 102.716 115.066 102.95C114.947 103.182 114.888 103.434 114.888 103.707V104.328C114.888 104.693 114.952 105.003 115.08 105.258C115.21 105.514 115.391 105.709 115.623 105.844C115.855 105.977 116.126 106.043 116.436 106.043C116.638 106.043 116.821 106.015 116.987 105.958C117.153 105.899 117.296 105.811 117.417 105.695C117.537 105.579 117.63 105.436 117.694 105.266L118.699 105.447C118.618 105.743 118.474 106.002 118.265 106.224C118.059 106.444 117.8 106.616 117.488 106.739C117.177 106.86 116.824 106.92 116.426 106.92Z" fill="black"/>
<path d="M119.944 106.81V101.356H120.97V102.222H121.027C121.127 101.929 121.302 101.698 121.553 101.53C121.806 101.359 122.093 101.274 122.412 101.274C122.478 101.274 122.557 101.276 122.646 101.281C122.739 101.286 122.811 101.292 122.863 101.299V102.315C122.82 102.303 122.745 102.29 122.636 102.275C122.527 102.259 122.418 102.251 122.309 102.251C122.058 102.251 121.834 102.304 121.638 102.41C121.444 102.515 121.29 102.66 121.176 102.847C121.063 103.032 121.006 103.243 121.006 103.479V106.81H119.944Z" fill="black"/>
<path d="M125.32 106.931C124.975 106.931 124.662 106.867 124.383 106.739C124.104 106.609 123.882 106.421 123.719 106.175C123.558 105.928 123.477 105.627 123.477 105.269C123.477 104.961 123.537 104.708 123.655 104.509C123.773 104.31 123.933 104.153 124.134 104.037C124.336 103.921 124.561 103.833 124.809 103.774C125.058 103.715 125.311 103.67 125.569 103.639C125.896 103.601 126.161 103.57 126.365 103.547C126.568 103.521 126.716 103.479 126.808 103.422C126.901 103.366 126.947 103.273 126.947 103.145V103.121C126.947 102.81 126.859 102.57 126.684 102.4C126.511 102.229 126.253 102.144 125.91 102.144C125.552 102.144 125.271 102.223 125.065 102.382C124.861 102.538 124.72 102.712 124.642 102.904L123.644 102.677C123.763 102.345 123.936 102.078 124.163 101.874C124.392 101.668 124.656 101.519 124.955 101.427C125.253 101.332 125.567 101.285 125.896 101.285C126.114 101.285 126.344 101.311 126.588 101.363C126.834 101.413 127.064 101.505 127.277 101.64C127.493 101.775 127.669 101.968 127.806 102.219C127.944 102.467 128.012 102.79 128.012 103.188V106.81H126.975V106.065H126.933C126.864 106.202 126.761 106.337 126.624 106.469C126.486 106.602 126.31 106.712 126.095 106.8C125.879 106.887 125.621 106.931 125.32 106.931ZM125.551 106.079C125.845 106.079 126.096 106.021 126.304 105.905C126.515 105.789 126.675 105.637 126.784 105.45C126.895 105.261 126.95 105.058 126.95 104.843V104.14C126.913 104.178 126.839 104.213 126.73 104.246C126.624 104.277 126.502 104.304 126.365 104.328C126.227 104.349 126.093 104.369 125.963 104.388C125.833 104.405 125.724 104.419 125.637 104.431C125.431 104.457 125.242 104.501 125.072 104.562C124.904 104.624 124.769 104.713 124.667 104.829C124.568 104.942 124.518 105.094 124.518 105.283C124.518 105.546 124.615 105.745 124.809 105.88C125.003 106.012 125.251 106.079 125.551 106.079Z" fill="black"/>
<path d="M131.973 101.356V102.208H128.993V101.356H131.973ZM129.792 100.049H130.854V105.209C130.854 105.415 130.885 105.57 130.946 105.674C131.008 105.776 131.087 105.846 131.184 105.883C131.284 105.919 131.391 105.937 131.507 105.937C131.593 105.937 131.667 105.931 131.731 105.919C131.795 105.907 131.845 105.898 131.88 105.891L132.072 106.768C132.011 106.791 131.923 106.815 131.809 106.839C131.696 106.865 131.554 106.879 131.383 106.881C131.104 106.886 130.843 106.836 130.602 106.732C130.36 106.628 130.165 106.467 130.016 106.249C129.867 106.031 129.792 105.758 129.792 105.429V100.049Z" fill="black"/>
<path d="M135.439 106.92C134.902 106.92 134.439 106.806 134.051 106.576C133.665 106.344 133.367 106.018 133.156 105.599C132.948 105.178 132.844 104.684 132.844 104.118C132.844 103.56 132.948 103.067 133.156 102.641C133.367 102.215 133.66 101.882 134.037 101.643C134.416 101.404 134.858 101.285 135.365 101.285C135.673 101.285 135.971 101.336 136.26 101.437C136.549 101.539 136.808 101.699 137.037 101.917C137.267 102.135 137.448 102.418 137.581 102.766C137.713 103.111 137.78 103.531 137.78 104.026V104.403H133.444V103.607H136.739C136.739 103.328 136.682 103.08 136.569 102.865C136.455 102.647 136.295 102.476 136.089 102.35C135.886 102.225 135.647 102.162 135.372 102.162C135.074 102.162 134.813 102.235 134.591 102.382C134.371 102.526 134.2 102.716 134.079 102.95C133.961 103.182 133.902 103.434 133.902 103.707V104.328C133.902 104.693 133.966 105.003 134.094 105.258C134.224 105.514 134.405 105.709 134.637 105.844C134.869 105.977 135.14 106.043 135.45 106.043C135.651 106.043 135.835 106.015 136.001 105.958C136.166 105.899 136.309 105.811 136.43 105.695C136.551 105.579 136.643 105.436 136.707 105.266L137.712 105.447C137.632 105.743 137.487 106.002 137.279 106.224C137.073 106.444 136.814 106.616 136.501 106.739C136.191 106.86 135.837 106.92 135.439 106.92Z" fill="black"/>
<path d="M146.366 99.5375H147.467V104.321C147.467 104.83 147.348 105.281 147.108 105.674C146.869 106.065 146.533 106.372 146.1 106.597C145.667 106.82 145.159 106.931 144.577 106.931C143.997 106.931 143.49 106.82 143.057 106.597C142.623 106.372 142.287 106.065 142.048 105.674C141.809 105.281 141.689 104.83 141.689 104.321V99.5375H142.787V104.232C142.787 104.561 142.859 104.854 143.003 105.109C143.15 105.365 143.357 105.566 143.625 105.713C143.892 105.857 144.21 105.93 144.577 105.93C144.946 105.93 145.264 105.857 145.532 105.713C145.802 105.566 146.008 105.365 146.15 105.109C146.294 104.854 146.366 104.561 146.366 104.232V99.5375Z" fill="black"/>
<path d="M150.039 103.572V106.81H148.977V101.356H149.996V102.243H150.064C150.189 101.955 150.386 101.723 150.653 101.547C150.923 101.372 151.263 101.285 151.673 101.285C152.044 101.285 152.37 101.363 152.649 101.519C152.929 101.673 153.145 101.903 153.299 102.208C153.453 102.513 153.53 102.891 153.53 103.341V106.81H152.468V103.469C152.468 103.073 152.365 102.764 152.159 102.542C151.953 102.317 151.67 102.204 151.31 102.204C151.064 102.204 150.845 102.258 150.653 102.364C150.464 102.471 150.314 102.627 150.202 102.833C150.094 103.037 150.039 103.283 150.039 103.572Z" fill="black"/>
<path d="M154.954 106.81V101.356H156.016V106.81H154.954ZM155.49 100.514C155.305 100.514 155.147 100.453 155.014 100.329C154.884 100.204 154.819 100.055 154.819 99.882C154.819 99.7068 154.884 99.5577 155.014 99.4345C155.147 99.3091 155.305 99.2463 155.49 99.2463C155.675 99.2463 155.832 99.3091 155.962 99.4345C156.095 99.5577 156.161 99.7068 156.161 99.882C156.161 100.055 156.095 100.204 155.962 100.329C155.832 100.453 155.675 100.514 155.49 100.514Z" fill="black"/>
<path d="M159.99 101.356V102.208H157.011V101.356H159.99ZM157.81 100.049H158.872V105.209C158.872 105.415 158.902 105.57 158.964 105.674C159.026 105.776 159.105 105.846 159.202 105.883C159.301 105.919 159.409 105.937 159.525 105.937C159.61 105.937 159.685 105.931 159.749 105.919C159.813 105.907 159.862 105.898 159.898 105.891L160.09 106.768C160.028 106.791 159.941 106.815 159.827 106.839C159.713 106.865 159.571 106.879 159.401 106.881C159.121 106.886 158.861 106.836 158.619 106.732C158.378 106.628 158.183 106.467 158.034 106.249C157.884 106.031 157.81 105.758 157.81 105.429V100.049Z" fill="black"/>
<path d="M163.538 100.482V99.5375H169.166V100.482H166.897V106.81H165.803V100.482H163.538Z" fill="black"/>
<path d="M171.885 106.92C171.347 106.92 170.885 106.806 170.496 106.576C170.11 106.344 169.812 106.018 169.601 105.599C169.393 105.178 169.289 104.684 169.289 104.118C169.289 103.56 169.393 103.067 169.601 102.641C169.812 102.215 170.106 101.882 170.482 101.643C170.861 101.404 171.304 101.285 171.81 101.285C172.118 101.285 172.416 101.336 172.705 101.437C172.994 101.539 173.253 101.699 173.483 101.917C173.712 102.135 173.894 102.418 174.026 102.766C174.159 103.111 174.225 103.531 174.225 104.026V104.403H169.889V103.607H173.184C173.184 103.328 173.128 103.08 173.014 102.865C172.9 102.647 172.741 102.476 172.535 102.35C172.331 102.225 172.092 102.162 171.817 102.162C171.519 102.162 171.259 102.235 171.036 102.382C170.816 102.526 170.645 102.716 170.525 102.95C170.406 103.182 170.347 103.434 170.347 103.707V104.328C170.347 104.693 170.411 105.003 170.539 105.258C170.669 105.514 170.85 105.709 171.082 105.844C171.314 105.977 171.585 106.043 171.895 106.043C172.097 106.043 172.28 106.015 172.446 105.958C172.612 105.899 172.755 105.811 172.876 105.695C172.996 105.579 173.089 105.436 173.153 105.266L174.157 105.447C174.077 105.743 173.933 106.002 173.724 106.224C173.518 106.444 173.259 106.616 172.947 106.739C172.636 106.86 172.282 106.92 171.885 106.92Z" fill="black"/>
<path d="M179.49 102.687L178.528 102.858C178.488 102.735 178.424 102.618 178.336 102.506C178.251 102.395 178.135 102.304 177.988 102.233C177.842 102.162 177.658 102.126 177.438 102.126C177.137 102.126 176.886 102.194 176.685 102.329C176.484 102.461 176.383 102.633 176.383 102.844C176.383 103.026 176.451 103.173 176.586 103.284C176.721 103.395 176.938 103.486 177.239 103.557L178.105 103.756C178.607 103.872 178.981 104.051 179.228 104.293C179.474 104.534 179.597 104.848 179.597 105.234C179.597 105.56 179.502 105.851 179.313 106.107C179.126 106.36 178.864 106.559 178.528 106.704C178.194 106.848 177.807 106.92 177.367 106.92C176.756 106.92 176.258 106.79 175.872 106.53C175.486 106.267 175.249 105.894 175.162 105.411L176.188 105.255C176.252 105.522 176.383 105.725 176.582 105.862C176.781 105.997 177.04 106.065 177.36 106.065C177.708 106.065 177.986 105.992 178.194 105.848C178.403 105.701 178.507 105.522 178.507 105.312C178.507 105.141 178.443 104.998 178.315 104.882C178.19 104.766 177.997 104.678 177.736 104.619L176.813 104.417C176.304 104.301 175.927 104.116 175.684 103.863C175.442 103.61 175.321 103.289 175.321 102.9C175.321 102.578 175.411 102.297 175.591 102.055C175.771 101.814 176.02 101.626 176.337 101.491C176.654 101.353 177.018 101.285 177.427 101.285C178.017 101.285 178.481 101.413 178.819 101.668C179.158 101.922 179.382 102.261 179.49 102.687Z" fill="black"/>
<path d="M183.311 101.356V102.208H180.331V101.356H183.311ZM181.13 100.049H182.192V105.209C182.192 105.415 182.223 105.57 182.284 105.674C182.346 105.776 182.425 105.846 182.522 105.883C182.622 105.919 182.729 105.937 182.845 105.937C182.931 105.937 183.005 105.931 183.069 105.919C183.133 105.907 183.183 105.898 183.218 105.891L183.41 106.768C183.348 106.791 183.261 106.815 183.147 106.839C183.034 106.865 182.892 106.879 182.721 106.881C182.442 106.886 182.181 106.836 181.94 106.732C181.698 106.628 181.503 106.467 181.354 106.249C181.205 106.031 181.13 105.758 181.13 105.429V100.049Z" fill="black"/>
</g>
</g>
<defs>
<clipPath id="clip0_383_546">
<rect y="40.0886" width="278" height="22" rx="4" fill="white"/>
</clipPath>
<clipPath id="clip1_383_546">
<rect y="66.0886" width="278" height="22" rx="4" fill="white"/>
</clipPath>
<clipPath id="clip2_383_546">
<rect y="92.0886" width="278" height="22" rx="4" fill="white"/>
</clipPath>
</defs>
</svg>
