<svg width="40" height="32" viewBox="0 0 40 32" xmlns="http://www.w3.org/2000/svg"><path d="M37.174 0h-34.235c-1.633 0-2.94 1.307-2.94 2.94v24.955c0 2.286 1.82 4.105 4.106 4.105h31.905c2.286 0 4.106-1.819 4.106-4.105v-24.955c-.002-1.633-1.31-2.94-2.942-2.94zm-34.235 2.099h34.237c.466 0 .841.374.841.841v2.565h-35.916v-2.565c-.002-.466.372-.841.838-.841zm-.841 25.796v-20.336h8.071v22.343h-6.064c-1.12-.002-2.007-.886-2.007-2.006zm33.909 2.004h-23.789v-22.34h25.796v20.29c0 1.166-.887 2.05-2.007 2.05zm-31.485-26.167c0 1.057-1.583 1.057-1.583 0s1.583-1.057 1.583 0zm2.848 0c0 1.057-1.587 1.057-1.587 0s1.587-1.057 1.587 0zm2.799 0c0 1.057-1.587 1.057-1.587 0s1.587-1.057 1.587 0zm-1.261 12.174h-5.41c-.279 0-.512.233-.512.513 0 .279.233.512.512.512h5.41c.279 0 .512-.233.512-.512 0-.28-.233-.513-.512-.513zm-5.41-1.025h4.99c.28 0 .513-.233.513-.512s-.233-.512-.513-.512h-4.99c-.279 0-.512.233-.512.512s.233.512.512.512zm0-2.099h4.99c.28 0 .513-.233.513-.512s-.233-.512-.513-.512h-4.99c-.279 0-.512.233-.512.512s.233.512.512.512zm0-2.099h3.965c.279 0 .512-.233.512-.512s-.233-.512-.512-.512h-3.965c-.279 0-.512.233-.512.512s.233.512.512.512zm3.311 13.76h-3.357c-.279 0-.512.233-.512.512s.233.512.512.512h3.357c.279 0 .512-.233.512-.512s-.233-.512-.512-.512zm1.679-2.053h-4.99c-.279 0-.512.233-.512.512 0 .28.233.513.512.513h4.99c.28 0 .513-.233.513-.513 0-.279-.231-.512-.513-.512zm-4.99-1.071h2.519c.279 0 .512-.233.512-.513 0-.279-.233-.512-.512-.512h-2.519c-.279 0-.512.233-.512.512 0 .28.233.513.512.513zm4.99-3.127h-4.99c-.279 0-.512.233-.512.512 0 .28.233.513.512.513h4.99c.28 0 .513-.233.513-.513.002-.279-.231-.512-.513-.512zm12.082-4.103c-.42-.42-1.073-.42-1.491 0l-3.127 3.124c-.607.608-.607 1.541 0 2.145l3.125 3.125c.187.187.466.325.746.325.279 0 .512-.092.746-.325.42-.42.42-1.074 0-1.492l-2.752-2.753 2.752-2.752c.423-.326.423-.98.002-1.397zm6.343-1.12c-.512-.233-1.119 0-1.399.512l-3.918 8.77c-.233.512 0 1.119.512 1.399.141.046.279.092.42.092.42 0 .792-.233.933-.608l3.918-8.77c.282-.51.049-1.164-.466-1.397zm2.986 1.12c-.42-.42-1.073-.42-1.491 0-.42.42-.42 1.073 0 1.491l2.753 2.753-2.753 2.753c-.42.42-.42 1.073 0 1.491.187.187.466.325.746.325.279 0 .512-.092.746-.325l3.125-3.124c.607-.608.607-1.541 0-2.146l-3.125-3.218z" fill="#C9D4DF/></svg>
