<svg width="32" height="35" viewBox="0 0 32 35" xmlns="http://www.w3.org/2000/svg">><path d="M25.511 7.937c0-1.006-.814-1.821-1.823-1.821h-21.866c-1.006 0-1.823.815-1.823 1.821v25.513c0 1.006.818 1.821 1.823 1.821h16.401l7.289-7.289v-20.045h-.002zm-7.287 24.76v-4.715h4.711l-4.711 4.715zm5.466-6.536h-5.466c-1.009 0-1.823.817-1.823 1.821v5.468h-14.579v-25.513h21.868v18.223zm3.241-23.102h-21.868c-1.004 0-1.823.814-1.823 1.821v.68h1.823v-.68h21.868v25.513h-3.043l-1.821 1.821h4.864c1.006 0 1.823-.815 1.823-1.821v-25.513c0-1.006-.816-1.821-1.823-1.821zm3.243-3.058h-21.866c-1.006 0-1.823.815-1.823 1.821v.68h1.823v-.68h21.868v25.514h-.865v1.821h.865c1.004 0 1.823-.815 1.823-1.821v-25.514c-.002-1.006-.818-1.821-1.825-1.821zm-25.619 24.337h16.399c.504 0 .911-.406.911-.91s-.407-.912-.911-.912h-16.399c-.504 0-.913.406-.913.912 0 .504.409.91.913.91zm0-5.466h16.399c.504 0 .911-.406.911-.912 0-.504-.407-.91-.911-.91h-16.399c-.504 0-.913.406-.913.91 0 .506.409.912.913.912zm0-5.469h16.399c.504 0 .911-.406.911-.91s-.407-.912-.911-.912h-16.399c-.504 0-.913.407-.913.912 0 .504.409.91.913.91z" fill="#C9D4DF"/></svg>
