<svg xmlns="http://www.w3.org/2000/svg" width="32" height="23">
  <g fill="none" fill-rule="evenodd">
    <path fill="#BFEAFA" d="M11.196 3h15.3C27.326 3 28 3.665 28 4.503v16.994c0 .83-.665 1.503-1.505 1.503H1.505C.675 23 0 22.335 0 21.497V1.507C0 .673.667 0 1.506 0H9.16c.833 0 1.622.655 1.768 1.484L11.196 3z"/>
    <path fill="#76D0F2" d="M3.54 8.448C3.736 7.648 4.567 7 5.386 7h24.762c.824 0 1.333.647 1.137 1.448l-3.21 13.104c-.197.8-1.028 1.448-1.848 1.448H1.467c-.827 0-1.335-.647-1.14-1.448L3.54 8.448z"/>
  </g>
</svg>
