<svg width="121" height="118" viewBox="0 0 121 118" xmlns="http://www.w3.org/2000/svg"><path d="M0 60.388c0 26.68 17.303 49.317 41.297 57.302 3.018.56 4.126-1.31 4.126-2.905 0-1.44-.056-6.197-.082-11.243C28.54 107.195 25 96.417 25 96.417c-2.747-6.98-6.705-8.836-6.705-8.836-5.478-3.74.414-3.67.414-3.67 6.06.43 9.25 6.23 9.25 6.23 5.38 9.23 14.13 6.57 17.57 5.02.54-3.9 2.1-6.56 3.83-8.07-13.41-1.53-27.51-6.71-27.51-29.85 0-6.59 2.36-11.98 6.22-16.21-.63-1.52-2.7-7.66.58-15.98 0 0 5.07-1.62 16.61 6.19 4.82-1.34 9.983-2.01 15.115-2.03 5.132.03 10.302.7 15.13 2.03 11.524-7.81 16.59-6.19 16.59-6.19 3.285 8.32 1.22 14.46.59 15.98 3.872 4.23 6.215 9.62 6.215 16.21 0 23.2-14.13 28.3-27.58 29.8 2.167 1.88 4.097 5.55 4.097 11.19 0 8.08-.07 14.586-.07 16.57 0 1.61 1.086 3.49 4.147 2.9 23.98-7.992 41.26-30.62 41.26-57.292.01-33.363-27.03-60.4-60.38-60.4C27.04 0 0 27.038 0 60.39zm22.872 26.316c-.133.3-.605.39-1.035.184-.438-.197-.684-.606-.542-.907.13-.3.603-.39 1.04-.18.44.2.69.61.537.91zm2.446 2.728c-.288.267-.85.143-1.233-.28-.395-.42-.47-.983-.177-1.254.297-.267.843-.142 1.24.28.394.425.47.984.17 1.254zm2.38 3.478c-.37.257-.974.016-1.348-.52-.37-.538-.37-1.182.008-1.44.375-.258.97-.026 1.35.507.37.546.37 1.19-.01 1.453zm3.263 3.36c-.33.365-1.03.267-1.55-.23-.53-.488-.67-1.18-.34-1.544.34-.366 1.05-.263 1.57.23.53.487.69 1.183.33 1.544zm4.5 1.95c-.14.474-.82.69-1.5.488-.68-.207-1.13-.76-.99-1.24.15-.475.83-.7 1.52-.484.68.206 1.13.756.99 1.237zm4.95.363c.02.498-.56.91-1.28.92-.72.016-1.3-.387-1.31-.877 0-.503.57-.912 1.29-.924.72-.014 1.31.386 1.31.88zm4.6-.783c.09.486-.41.985-1.12 1.118-.7.128-1.35-.172-1.44-.654-.08-.498.42-.997 1.12-1.126.72-.124 1.36.168 1.45.662z" fill="#D5E5F2" fill-rule="evenodd"/></svg>