<svg width="11" height="14" xmlns="http://www.w3.org/2000/svg"><path d="M10.794 9.92v2.036c0 .324-.233.643-.698.957-.464.315-1.107.574-1.927.78-.827.204-1.7.307-2.63.307-.93 0-1.806-.103-2.626-.308-.822-.205-1.464-.464-1.93-.78-.46-.312-.694-.632-.694-.956V9.92c.584.373 1.333.66 2.246.86.913.2 1.915.3 3.004.3 1.09 0 2.09-.1 3.005-.3.914-.2 1.662-.487 2.246-.86zm0-4.09v2.34c0 .318-.235.612-.704.88-.47.27-1.107.482-1.91.637-.805.154-1.684.232-2.636.232-.953 0-1.83-.08-2.636-.238-.804-.155-1.44-.367-1.91-.636-.47-.27-.704-.563-.704-.88V5.83c.583.375 1.332.663 2.245.866.91.204 1.91.304 3 .304s2.09-.1 3.003-.304c.914-.203 1.662-.49 2.246-.865zm0-4.08v2.33c0 .32-.235.614-.704.883-.47.27-1.107.48-1.91.636-.805.15-1.684.23-2.636.23-.953 0-1.83-.08-2.636-.23-.804-.16-1.44-.37-1.91-.64S.294 4.4.294 4.08V1.75c0-.32.234-.613.704-.882.47-.27 1.106-.48 1.91-.636C3.713.077 4.59 0 5.544 0c.952 0 1.83.077 2.635.232.8.155 1.44.367 1.91.636.47.27.7.563.7.882z" fill="#0FB6F2" fill-rule="evenodd"/></svg>