<svg width="15" height="14" viewBox="0 0 15 14" xmlns="http://www.w3.org/2000/svg"><path d="M9.294 0c.952 0 1.83.235 2.635.704.8.47 1.44 1.106 1.91 1.91.47.805.7 1.684.7 2.636 0 .952-.235 1.83-.704 2.635-.47.805-1.108 1.44-1.91 1.91-.806.47-1.685.705-2.637.705-1.026 0-1.96-.27-2.803-.813l-3.95 3.97c-.237.23-.513.343-.827.343-.322 0-.6-.114-.825-.342-.228-.228-.342-.503-.342-.827 0-.32.114-.594.342-.822l3.97-3.95c-.54-.844-.812-1.78-.812-2.804 0-.95.234-1.83.704-2.634.47-.806 1.106-1.44 1.91-1.91C7.463.233 8.34 0 9.294 0zm0 8.75c.474 0 .926-.092 1.357-.277.43-.184.808-.434 1.12-.748.317-.315.566-.687.75-1.118.185-.43.278-.883.278-1.357s-.093-.926-.277-1.357c-.185-.43-.434-.803-.75-1.118-.313-.314-.686-.564-1.116-.748-.43-.185-.882-.277-1.356-.277-.474 0-.927.092-1.357.277-.43.184-.803.434-1.12.748-.313.315-.563.687-.75 1.118-.182.43-.274.883-.274 1.357s.092.926.277 1.357c.185.43.435.803.75 1.118.314.314.686.564 1.117.748.43.185.88.277 1.354.277z" fill="#0FB6F2" fill-rule="evenodd"/></svg>