<svg width="15" height="14" xmlns="http://www.w3.org/2000/svg"><path d="M7.544 0c.952 0 1.86.185 2.724.554.863.37 1.607.866 2.232 1.49.624.624 1.12 1.368 1.49 2.232.37.863.554 1.772.554 2.724 0 .952-.185 1.86-.554 2.724-.37.864-.866 1.608-1.49 2.232-.625.624-1.37 1.12-2.232 1.49-.864.37-1.772.554-2.724.554-.953 0-1.86-.185-2.724-.554-.864-.37-1.608-.866-2.232-1.49-.625-.624-1.12-1.368-1.49-2.232C.728 8.86.543 7.952.543 7c0-.952.184-1.86.553-2.724.37-.864.866-1.608 1.49-2.232C3.21 1.42 3.956.924 4.82.554 5.682.184 6.59 0 7.543 0zm0 5.25L6.41 11.115c-.024.137-.035.224-.035.26 0 .324.114.6.342.827.227.228.503.342.827.342.323 0 .6-.114.827-.342.23-.228.346-.503.346-.827V5.25h-1.17zM11.338 7h1.75c0-.752-.146-1.47-.438-2.153-.29-.684-.686-1.274-1.182-1.77-.497-.498-1.087-.892-1.77-1.183-.685-.292-1.402-.438-2.154-.438-.74 0-1.446.142-2.123.427-.673.285-1.26.67-1.753 1.152-.494.483-.89 1.06-1.19 1.73-.298.67-.456 1.37-.474 2.105.024-.825.246-1.585.667-2.28.42-.695.986-1.245 1.695-1.65.708-.406 1.477-.61 2.307-.61.842 0 1.622.21 2.34.627.718.417 1.285.984 1.702 1.702.417.713.626 1.494.626 2.34z" fill="#0FB6F2" fill-rule="evenodd"/></svg>