<?xml version="1.0" encoding="UTF-8" standalone="no"?>
<!DOCTYPE svg PUBLIC "-//W3C//DTD SVG 1.1//EN"
 "http://www.w3.org/Graphics/SVG/1.1/DTD/svg11.dtd">
<!-- Generated by graphviz version 2.47.1 (20210417.1919)
 -->
<!-- Pages: 1 -->
<svg width="385pt" height="218pt"
 viewBox="0.00 0.00 385.09 218.00" xmlns="http://www.w3.org/2000/svg" xmlns:xlink="http://www.w3.org/1999/xlink">
<g id="graph0" class="graph" transform="scale(1 1) rotate(0) translate(4 214)">
<polygon fill="white" stroke="transparent" points="-4,4 -4,-214 381.09,-214 381.09,4 -4,4"/>
<!-- r1 -->
<g id="node1" class="node">
<title>r1</title>
<ellipse fill="none" stroke="black" cx="30.55" cy="-192" rx="30.59" ry="18"/>
<text text-anchor="middle" x="30.55" y="-188.3" font-family="Times,serif" font-size="14.00">range</text>
</g>
<!-- rs1 -->
<g id="node6" class="node">
<title>rs1</title>
<ellipse fill="none" stroke="black" cx="109.55" cy="-105" rx="41.69" ry="18"/>
<text text-anchor="middle" x="109.55" y="-101.3" font-family="Times,serif" font-size="14.00">resultSet</text>
</g>
<!-- r1&#45;&gt;rs1 -->
<g id="edge1" class="edge">
<title>r1&#45;&gt;rs1</title>
<path fill="none" stroke="black" d="M44.67,-175.8C56.69,-162.87 74.14,-144.09 87.92,-129.27"/>
<polygon fill="black" stroke="black" points="90.5,-131.64 94.74,-121.93 85.37,-126.87 90.5,-131.64"/>
<text text-anchor="middle" x="87.55" y="-144.8" font-family="Times,serif" font-size="14.00">next</text>
</g>
<!-- r2 -->
<g id="node2" class="node">
<title>r2</title>
<ellipse fill="none" stroke="black" cx="109.55" cy="-192" rx="30.59" ry="18"/>
<text text-anchor="middle" x="109.55" y="-188.3" font-family="Times,serif" font-size="14.00">range</text>
</g>
<!-- r2&#45;&gt;rs1 -->
<g id="edge2" class="edge">
<title>r2&#45;&gt;rs1</title>
<path fill="none" stroke="black" d="M109.55,-173.8C109.55,-162.16 109.55,-146.55 109.55,-133.24"/>
<polygon fill="black" stroke="black" points="113.05,-133.18 109.55,-123.18 106.05,-133.18 113.05,-133.18"/>
<text text-anchor="middle" x="121.55" y="-144.8" font-family="Times,serif" font-size="14.00">next</text>
</g>
<!-- r3 -->
<g id="node3" class="node">
<title>r3</title>
<ellipse fill="none" stroke="black" cx="188.55" cy="-192" rx="30.59" ry="18"/>
<text text-anchor="middle" x="188.55" y="-188.3" font-family="Times,serif" font-size="14.00">range</text>
</g>
<!-- r3&#45;&gt;rs1 -->
<g id="edge3" class="edge">
<title>r3&#45;&gt;rs1</title>
<path fill="none" stroke="black" d="M174.42,-175.8C162.41,-162.87 144.95,-144.09 131.17,-129.27"/>
<polygon fill="black" stroke="black" points="133.72,-126.87 124.35,-121.93 128.6,-131.64 133.72,-126.87"/>
<text text-anchor="middle" x="166.55" y="-144.8" font-family="Times,serif" font-size="14.00">next</text>
</g>
<!-- r4 -->
<g id="node4" class="node">
<title>r4</title>
<ellipse fill="none" stroke="black" cx="267.55" cy="-192" rx="30.59" ry="18"/>
<text text-anchor="middle" x="267.55" y="-188.3" font-family="Times,serif" font-size="14.00">range</text>
</g>
<!-- rs2 -->
<g id="node7" class="node">
<title>rs2</title>
<ellipse fill="none" stroke="black" cx="306.55" cy="-105" rx="41.69" ry="18"/>
<text text-anchor="middle" x="306.55" y="-101.3" font-family="Times,serif" font-size="14.00">resultSet</text>
</g>
<!-- r4&#45;&gt;rs2 -->
<g id="edge4" class="edge">
<title>r4&#45;&gt;rs2</title>
<path fill="none" stroke="black" d="M275.25,-174.21C280.75,-162.22 288.26,-145.85 294.55,-132.16"/>
<polygon fill="black" stroke="black" points="297.87,-133.31 298.86,-122.76 291.51,-130.39 297.87,-133.31"/>
<text text-anchor="middle" x="300.55" y="-144.8" font-family="Times,serif" font-size="14.00">next</text>
</g>
<!-- r5 -->
<g id="node5" class="node">
<title>r5</title>
<ellipse fill="none" stroke="black" cx="346.55" cy="-192" rx="30.59" ry="18"/>
<text text-anchor="middle" x="346.55" y="-188.3" font-family="Times,serif" font-size="14.00">range</text>
</g>
<!-- r5&#45;&gt;rs2 -->
<g id="edge5" class="edge">
<title>r5&#45;&gt;rs2</title>
<path fill="none" stroke="black" d="M338.64,-174.21C333,-162.22 325.3,-145.85 318.86,-132.16"/>
<polygon fill="black" stroke="black" points="321.86,-130.32 314.43,-122.76 315.52,-133.3 321.86,-130.32"/>
<text text-anchor="middle" x="340.55" y="-144.8" font-family="Times,serif" font-size="14.00">next</text>
</g>
<!-- rs3 -->
<g id="node8" class="node">
<title>rs3</title>
<ellipse fill="none" stroke="black" cx="306.55" cy="-18" rx="41.69" ry="18"/>
<text text-anchor="middle" x="306.55" y="-14.3" font-family="Times,serif" font-size="14.00">resultSet</text>
</g>
<!-- rs2&#45;&gt;rs3 -->
<g id="edge6" class="edge">
<title>rs2&#45;&gt;rs3</title>
<path fill="none" stroke="black" d="M306.55,-86.8C306.55,-75.16 306.55,-59.55 306.55,-46.24"/>
<polygon fill="black" stroke="black" points="310.05,-46.18 306.55,-36.18 303.05,-46.18 310.05,-46.18"/>
<text text-anchor="middle" x="318.55" y="-57.8" font-family="Times,serif" font-size="14.00">next</text>
</g>
</g>
</svg>
