<svg xmlns="http://www.w3.org/2000/svg" viewBox="0 0 64 64"><g fill="#ff9d27"><path d="M10.893 48.732c4.01-4.01 4.395-4.966 6.857-2.505 2.465 2.464 1.51 2.85-2.504 6.86-2.988 2.988-6.777 2.422-6.777 2.422s-.57-3.79 2.42-6.78"/><path d="M18.516 52.842c1.555-4.19 2.077-4.742-.196-5.997-2.27-1.253-2.267-.41-3.82 3.78-1.157 3.12.227 5.912.227 5.912s2.632-.574 3.79-3.695"/></g><path fill="#fdf516" d="M16.2 48.943c.863-2.324.86-2.793 2.12-2.1 1.263.697.973 1.01.107 3.328-.642 1.736-2.1 2.055-2.1 2.055s-.77-1.548-.127-3.28"/><path fill="#ff9d27" d="M17.13 45.658c-1.254-2.27-1.808-1.75-5.998-.194-3.118 1.157-3.693 3.79-3.693 3.79s2.79 1.383 5.91.226c4.19-1.555 5.03-1.55 3.78-3.822"/><g fill="#fdf516"><path d="M15.04 47.777c2.324-.86 2.792-.86 2.097-2.12-.697-1.26-1-.97-3.327-.107-1.73.642-2.05 2.102-2.05 2.102s1.548.768 3.28.125"/><path d="M13.944 47.62c2.227-2.228 2.44-2.757 3.806-1.393 1.367 1.368.84 1.582-1.39 3.806-1.656 1.66-3.76 1.346-3.76 1.346s-.313-2.107 1.344-3.76"/></g><path fill="#3baacf" d="M18.52 38.032C12.268 27.622 2 31.917 2 31.917s14.71-14.708 24.588-4.83L18.52 38.03z"/><path fill="#428bc1" d="M23.347 30.327l3.24-3.24C16.71 17.21 2 31.917 2 31.917s12.905-9.263 21.347-1.59z"/><path fill="#3baacf" d="M25.97 45.482C36.383 51.734 32.085 62 32.085 62s14.71-14.707 4.83-24.586l-10.943 8.068z"/><path fill="#428bc1" d="M33.676 40.654l3.24-3.24C46.796 47.294 32.083 62 32.083 62s9.265-12.903 1.592-21.346"/><path fill="#c5d0d8" d="M48.77 30.877C37.136 42.507 24.173 48.76 19.7 44.28c-4.48-4.478 1.773-17.44 13.404-29.07C46.664 1.653 61.812 2.17 61.812 2.17s.52 15.15-13.04 28.708"/><path fill="#dae3ea" d="M45.83 27.58C34.2 39.208 22.578 46.8 19.89 44.11c-2.69-2.687 4.903-14.31 16.533-25.938C49.983 4.612 62 2 62 2s-2.61 12.018-16.17 25.58z"/><path fill="#c94747" d="M24.315 47.45c-.498.502-1.27.542-1.77.042l-5.978-5.978c-.5-.5-.54-1.353-.04-1.854l1.81-1.813 7.79 7.792-1.812 1.81"/><path fill="#f15744" d="M22.608 45.745c-.5.5-1.107.7-1.39.42l-3.358-3.358c-.282-.28-.127-.938.374-1.438l1.81-1.817 4.376 4.377-1.812 1.813"/><path fill="#3e4347" d="M20.874 48.18c-.323.322-.95.315-1.275-.01l-3.89-3.885c-.325-.326-.234-.854.09-1.178l1.177-1.178L22.052 47l-1.18 1.18"/><path fill="#62727a" d="M20.11 47.41c-.326.324-.856.412-1.08.185l-2.71-2.707c-.23-.23-.072-.688.252-1.016l1.18-1.177 3.536 3.536-1.178 1.18"/><path fill="#c94747" d="M61.81 2.17s-5.442-.193-12.724 2.58L59.23 14.896C62.007 7.612 61.81 2.17 61.81 2.17"/><path fill="#f15744" d="M61.81 2.17s-4.346.9-10.757 4.55l6.207 6.207c3.65-6.41 4.55-10.756 4.55-10.756"/><circle fill="#edf4f9" cx="43.478" cy="20.504" r="5"/><circle fill="#3baacf" cx="43.477" cy="20.504" r="3.333"/><circle fill="#edf4f9" cx="33.473" cy="30.507" r="5"/><circle fill="#3baacf" cx="33.473" cy="30.506" r="3.334"/><g fill="#fff"><path d="M48.852 6.876c-.322.325-.852.326-1.18 0-.324-.326-.323-.854 0-1.18.328-.324.855-.325 1.18 0 .327.327.327.855 0 1.18"/><circle cx="50.621" cy="8.644" r=".833"/><circle cx="52.979" cy="11" r=".834"/><circle cx="55.34" cy="13.36" r=".834"/><circle cx="57.694" cy="15.717" r=".834"/></g></svg>