<?xml version="1.0" encoding="UTF-8" standalone="no"?>
<svg width="34px" height="34px" viewBox="0 0 34 34" version="1.1" xmlns="http://www.w3.org/2000/svg" xmlns:xlink="http://www.w3.org/1999/xlink">
    <!-- Generator: sketchtool 39.1 (31720) - http://www.bohemiancoding.com/sketch -->
    <title>BF07B31C-821A-4C86-9739-4D9DAEEEE185</title>
    <desc>Created with sketchtool.</desc>
    <defs></defs>
    <g id="August-2016" stroke="none" stroke-width="1" fill="none" fill-rule="evenodd">
        <g id="Onboarding-–-Chrome-extension-Copy-3" transform="translate(-255.000000, -135.000000)">
            <g id="Welcome-msg" transform="translate(236.000000, 120.000000)">
                <g id="1f389" transform="translate(19.000000, 15.000000)">
                    <g id="Group">
                        <polygon id="Shape" fill="#F7B600" points="0 33.0810811 4.87333333 31.3699907 1.19 29.6589003"></polygon>
                        <polygon id="Shape" fill="#FFDD7D" points="14.11 19.0501398 7.25333333 12.0917055 6.12 15.2857409"></polygon>
                        <polygon id="Shape" fill="#F7B600" points="6.12 15.2857409 4.87333333 18.8790308 20.06 26.0085741 20.7966667 25.7804287 14.11 19.0501398"></polygon>
                        <polygon id="Shape" fill="#FFDD7D" points="3.68333333 22.4723206 15.0166667 27.7767008 20.06 26.0085741 4.87333333 18.8790308"></polygon>
                        <polygon id="Shape" fill="#F7B600" points="2.43666667 26.0656104 9.91666667 29.6018639 15.0166667 27.7767008 3.68333333 22.4723206"></polygon>
                        <polygon id="Shape" fill="#FFDD7D" points="2.43666667 26.0656104 1.19 29.6589003 4.87333333 31.3699907 9.91666667 29.6018639"></polygon>
                        <path d="M16.9433333,16.0842498 C20.74,19.8486486 22.7233333,24.0693383 21.3633333,25.4382106 C19.9466667,26.8070829 15.7533333,24.8678472 11.9,21.0464119 C8.10333333,17.282013 6.12,13.0613234 7.48,11.6924511 C8.89666667,10.3235788 13.09,12.3198509 16.9433333,16.0842498" id="Shape" fill="#493816"></path>
                        <path d="M12.1833333,6.55917987 C11.2766667,5.2473439 12.24,4.67698043 13.4866667,4.90512582 C12.2966667,3.47921715 13.0333333,2.45256291 14.9033333,2.85181733 C15.47,2.96589003 14.6766667,3.93550792 14.1666667,3.93550792 C15.6966667,5.07623486 14.8466667,6.33103448 13.2033333,6.04585275 C14.6766667,8.04212488 12.1833333,7.52879776 11.05,7.64287046 C10.7666667,9.12581547 12.4666667,10.8369059 11.9,10.8369059 C10.6533333,10.8369059 8.61333333,6.1028891 12.1833333,6.55917987" id="Shape" fill="#42ADE2"></path>
                        <path d="M24.0833333,9.29692451 C23.2333333,9.69617894 20.8533333,5.93178006 23.8,5.87474371 C22.1,4.33476235 22.3266667,3.59328984 24.5933333,3.53625349 C21.9866667,0.912581547 26.1233333,1.13242749e-14 26.52,1.36887232 C26.6333333,1.76812675 25.2733333,1.02665424 24.82,1.76812675 C24.31,2.62367195 27.9933333,4.84808947 24.1966667,4.67698043 C25.6133333,6.1028891 25.67,6.78732526 23.46,7.01547064 C23.7433333,7.47176142 24.65,9.06877912 24.0833333,9.29692451" id="Shape" fill="#FF8736"></path>
                        <path d="M25.0466667,18.1945946 L25.8966667,17.4531221 C25.8966667,17.4531221 26.69,18.6508854 27.2566667,19.1071761 C27.71,17.0538677 27.5966667,15.8561044 29.92,17.2249767 C28.6166667,13.6887232 30.77,15.0005592 32.8666667,15.9701771 C32.7533333,15.0575955 32.8666667,15.1716682 33.7733333,14.8864865 C34.5666667,17.9094129 32.4133333,16.9968313 30.7133333,16.0272134 C31.7333333,18.7649581 30.6566667,18.593849 28.5033333,17.6812675 C28.4466667,18.8219944 28.1066667,20.1338304 27.4266667,20.2479031 C26.6333333,20.4760485 25.0466667,18.1945946 25.0466667,18.1945946" id="Shape" fill="#ED4C5C"></path>
                        <path d="M18.7,9.75321528 C17.68,11.1220876 16.0366667,11.8635601 14.8466667,13.0613234 C13.6,14.316123 12.8633333,17.7383038 12.8633333,17.7383038 C12.8633333,17.7383038 13.3166667,14.145014 14.5066667,12.7761417 C15.5833333,11.521342 17.17,10.6087605 18.02,9.18285182 C19.4933333,6.55917987 18.1333333,3.13699907 16.2066667,1.14072693 C16.6033333,0.798508854 17.17,0.34221808 17.4533333,0 C19.3233333,2.33849021 20.91,6.8443616 18.7,9.75321528" id="Shape" fill="#C28FEF"></path>
                        <path d="M20.4566667,12.662069 C18.9833333,13.7457596 17.9066667,15.3427773 16.8866667,16.8257223 C15.98,18.1375582 13.09,19.7916123 13.09,19.7916123 C13.09,19.7916123 15.81,17.9094129 16.66,16.5405405 C17.68,14.8294501 18.7,13.0613234 20.2866667,11.8065238 C23.46,9.35396086 28.05,9.58210624 31.62,10.8939422 C31.3933333,11.4072693 30.9966667,12.4909599 30.9966667,12.4909599 C30.9966667,12.4909599 23.46,10.4376514 20.4566667,12.662069" id="Shape" fill="#FF8736"></path>
                        <g transform="translate(0.566667, 4.562908)" id="Shape" fill="#42ADE2">
                            <path d="M26.18,7.8139795 C25.2166667,9.06877912 24.7633333,10.6087605 24.0266667,12.0346692 C23.3466667,13.3465051 22.44,14.6013048 21.1366667,15.2857409 C19.6633333,16.0272134 16.4333333,15.799068 16.4333333,15.799068 C16.4333333,15.799068 19.6633333,15.7420317 21.0233333,14.8294501 C22.3833333,13.9168686 23.12,12.3198509 23.63,10.8369059 C24.65,7.98508854 25.8966667,4.90512582 28.8433333,3.65032619 C29.0133333,4.16365331 29.41,5.2473439 29.41,5.2473439 C29.41,5.2473439 27.7666667,5.70363467 26.18,7.8139795"></path>
                            <polygon transform="translate(1.721794, 1.896401) rotate(-45.008103) translate(-1.721794, -1.896401) " points="0.588471524 0.755685486 2.85511648 0.755685486 2.85511648 3.0371175 0.588471524 3.0371175"></polygon>
                        </g>
                        <polygon id="Shape" fill="#FF8736" transform="translate(4.533911, 11.519642) rotate(-45.000000) translate(-4.533911, -11.519642) " points="3.40058887 10.3789264 5.6672338 10.3789264 5.6672338 12.6603583 3.40058887 12.6603583"></polygon>
                        <polygon id="Shape" fill="#ED4C5C" transform="translate(8.605377, 3.890997) rotate(-45.008103) translate(-8.605377, -3.890997) " points="7.47205486 2.75028075 9.73869981 2.75028075 9.73869981 5.03171276 7.47205486 5.03171276"></polygon>
                        <polygon id="Shape" fill="#C28FEF" transform="translate(26.085350, 23.211323) rotate(-45.000000) translate(-26.085350, -23.211323) " points="24.9520272 22.0706074 27.2186721 22.0706074 27.2186721 24.3520394 24.9520272 24.3520394"></polygon>
                        <polygon id="Shape" fill="#ED4C5C" transform="translate(22.514409, 28.740997) rotate(-45.000000) translate(-22.514409, -28.740997) " points="21.3810865 27.6002812 23.6477315 27.6002812 23.6477315 29.8817132 21.3810865 29.8817132"></polygon>
                        <polygon id="Shape" fill="#FF8736" transform="translate(29.527283, 30.004911) rotate(-45.000000) translate(-29.527283, -30.004911) " points="28.3939605 28.8641953 30.6606055 28.8641953 30.6606055 31.1456273 28.3939605 31.1456273"></polygon>
                        <g transform="translate(26.633333, 3.422181)" id="Shape" fill="#42ADE2">
                            <polygon transform="translate(4.480044, 19.239147) rotate(-45.000000) translate(-4.480044, -19.239147) " points="3.34672154 18.0984308 5.61336646 18.0984308 5.61336646 20.3798628 3.34672154 20.3798628"></polygon>
                            <polygon transform="translate(1.804550, 2.180420) rotate(-45.000000) translate(-1.804550, -2.180420) " points="0.671227535 1.03970369 2.93787246 1.03970369 2.93787246 3.32113568 0.671227535 3.32113568"></polygon>
                        </g>
                        <polygon id="Shape" fill="#ED4C5C" transform="translate(11.261293, 15.281400) rotate(-45.000000) translate(-11.261293, -15.281400) " points="10.1279705 14.1406845 12.3946155 14.1406845 12.3946155 16.4221164 10.1279705 16.4221164"></polygon>
                    </g>
                </g>
            </g>
        </g>
    </g>
</svg>