<svg width="20" height="20" viewBox="0 0 20 20" xmlns="http://www.w3.org/2000/svg"><title>Page 1</title><g fill="none" fill-rule="evenodd"><path d="M-2 22h24V-2H-2"/><path d="M18 0H2C.89 0 0 .89 0 2v16c0 1.105.895 2 2 2h16c1.105 0 2-.895 2-2V2c0-1.11-.9-2-2-2M6 17H3V8h3M4.5 6.31c-1 0-1.81-.81-1.81-1.81S3.5 2.69 4.5 2.69s1.81.81 1.81 1.81S5.5 6.31 4.5 6.31M17 17h-3v-5.3c0-.828-.672-1.5-1.5-1.5s-1.5.672-1.5 1.5V17H8V8h3v1.2c.5-.84 1.59-1.4 2.5-1.4 1.933 0 3.5 1.567 3.5 3.5" fill="#141414"/></g></svg>