<svg width="22" height="17" viewBox="0 0 22 17" xmlns="http://www.w3.org/2000/svg"><title>Page 1</title><g fill="none" fill-rule="evenodd"><path d="M-1 20h24V-4H-1"/><path d="M21.46 2c-.77.35-1.6.58-2.46.69.88-.53 1.56-1.37 1.88-2.38-.83.5-1.75.85-2.72 1.05C17.37.5 16.26 0 15 0c-2.35 0-4.27 1.92-4.27 4.29 0 .34.04.67.11.98C7.28 5.09 4.11 3.38 2 .79c-.37.63-.58 1.37-.58 2.15 0 1.49.75 2.81 1.91 3.56-.71 0-1.37-.2-1.95-.5v.03c0 2.08 1.48 3.82 3.44 4.21-.36.1-.74.15-1.13.15-.27 0-.54-.03-.8-.08.54 1.69 2.11 2.95 4 2.98-1.46 1.16-3.31 1.84-5.33 1.84-.34 0-.68-.02-1.02-.06C2.44 16.29 4.7 17 7.12 17 15 17 19.33 10.46 19.33 4.79c0-.19 0-.37-.01-.56.84-.6 1.56-1.36 2.14-2.23" fill="#141414"/></g></svg>