<?xml version="1.0" encoding="UTF-8"?>
<svg width="170px" height="36px" viewBox="0 0 170 36" version="1.1" xmlns="http://www.w3.org/2000/svg" xmlns:xlink="http://www.w3.org/1999/xlink">
    <!-- Generator: Sketch 42 (36781) - http://www.bohemiancoding.com/sketch -->
    <title>LogoWithTag</title>
    <desc>Created with Sketch.</desc>
    <defs></defs>
    <g id="Page-1" stroke="none" stroke-width="1" fill="none" fill-rule="evenodd">
        <g id="Desktop-HD-Copy-2" transform="translate(-1018.000000, -972.000000)">
            <g id="Foot-Copy" transform="translate(0.000000, 844.000000)">
                <g id="FootContents" transform="translate(250.000000, 24.000000)">
                    <g id="LogoWithTag" transform="translate(768.000000, 104.000000)">
                        <g id="HeadLogoSmall">
                            <g id="WordMark" transform="translate(32.000000, 0.000000)" fill="#141414">
                                <path d="M3.10656,13.9392 C3.1392,14.4192 3.33792,14.84832 3.70176,15.22848 C4.06464,15.60864 4.61088,15.79968 5.33856,15.79968 C5.8848,15.79968 6.28896,15.67968 6.55488,15.43968 C6.81792,15.20064 6.95136,14.91456 6.95136,14.58432 C6.95136,14.30304 6.85152,14.0592 6.6528,13.85184 C6.45408,13.64544 6.1152,13.4928 5.63616,13.39296 L4.02432,13.02048 C2.83392,12.75648 1.96512,12.2976 1.41984,11.64384 C0.87456,10.99104 0.60096,10.23456 0.60096,9.3744 C0.60096,8.82816 0.71616,8.31264 0.94848,7.824 C1.17984,7.33632 1.4976,6.91488 1.90368,6.55872 C2.3088,6.20352 2.78784,5.9184 3.34272,5.70336 C3.89664,5.48928 4.50336,5.38176 5.16576,5.38176 C6.02496,5.38176 6.75264,5.50176 7.34784,5.74176 C7.94304,5.98176 8.42688,6.2832 8.7984,6.64704 C9.17088,7.01088 9.44736,7.39488 9.6288,7.8 C9.81024,8.20512 9.91776,8.5728 9.95136,8.904 L7.19904,9.5232 C7.16544,9.34176 7.11168,9.15552 7.03776,8.96544 C6.96384,8.77536 6.84384,8.59776 6.67872,8.43168 C6.51264,8.26656 6.31104,8.13408 6.07104,8.0352 C5.83104,7.93632 5.53824,7.8864 5.19072,7.8864 C4.76064,7.8864 4.39296,8.00256 4.08672,8.23296 C3.78144,8.46528 3.62784,8.75424 3.62784,9.1008 C3.62784,9.3984 3.73056,9.6384 3.93792,9.8208 C4.14432,10.00224 4.41312,10.12608 4.74432,10.19232 L6.48,10.56384 C7.68672,10.81248 8.592,11.2752 9.19584,11.95296 C9.79968,12.63168 10.10112,13.416 10.10112,14.3088 C10.10112,14.80608 10.00512,15.2928 9.816,15.77184 C9.62496,16.25184 9.33216,16.68096 8.93568,17.06208 C8.5392,17.4432 8.04288,17.74848 7.44768,17.97984 C6.85248,18.21024 6.1584,18.3264 5.36448,18.3264 C4.43904,18.3264 3.6624,18.19392 3.0336,17.92992 C2.4048,17.66592 1.89312,17.3424 1.49568,16.96224 C1.09824,16.58208 0.80544,16.17312 0.61536,15.73536 C0.42528,15.29664 0.31296,14.90496 0.28032,14.55744 L3.10656,13.9392 Z" id="Shape"></path>
                                <path d="M17.68896,5.38176 C18.59808,5.38176 19.44576,5.54208 20.23104,5.86464 C21.01632,6.1872 21.69408,6.6336 22.26528,7.20384 C22.83552,7.77408 23.28192,8.45664 23.60448,9.2496 C23.92704,10.04352 24.08832,10.91136 24.08832,11.85408 C24.08832,12.7968 23.92704,13.65984 23.60448,14.44608 C23.28192,15.23232 22.83552,15.91392 22.26528,16.49184 C21.69504,17.07168 21.01632,17.52096 20.23104,17.84352 C19.44576,18.16608 18.59808,18.32736 17.68896,18.32736 C16.77888,18.32736 15.9312,18.16608 15.14688,17.84352 C14.3616,17.52096 13.68384,17.07072 13.1136,16.49184 C12.5424,15.91392 12.096,15.23232 11.77344,14.44608 C11.45088,13.65984 11.2896,12.7968 11.2896,11.85408 C11.2896,10.91232 11.45088,10.04352 11.77344,9.2496 C12.096,8.45568 12.5424,7.77408 13.1136,7.20384 C13.68384,6.6336 14.3616,6.1872 15.14688,5.86464 C15.93216,5.54304 16.77984,5.38176 17.68896,5.38176 M17.68896,15.3264 C18.0864,15.3264 18.47424,15.25344 18.8544,15.10368 C19.23456,14.95584 19.56576,14.736 19.84704,14.44704 C20.12736,14.15808 20.35488,13.79808 20.5296,13.368 C20.70336,12.93792 20.78976,12.43392 20.78976,11.85504 C20.78976,11.27616 20.70336,10.77216 20.5296,10.34208 C20.35488,9.91296 20.12832,9.55296 19.84704,9.26304 C19.56576,8.97408 19.23552,8.7552 18.8544,8.60544 C18.47424,8.45664 18.0864,8.38272 17.68896,8.38272 C17.29248,8.38272 16.90368,8.45664 16.52352,8.60544 C16.14336,8.75424 15.81312,8.97408 15.53184,9.26304 C15.25056,9.55296 15.024,9.91296 14.85024,10.34208 C14.67648,10.77216 14.59008,11.27616 14.59008,11.85504 C14.59008,12.43392 14.67744,12.93696 14.85024,13.368 C15.024,13.79808 15.25056,14.15808 15.53184,14.44704 C15.81312,14.736 16.14336,14.95488 16.52352,15.10368 C16.90368,15.25344 17.29248,15.3264 17.68896,15.3264" id="Shape"></path>
                                <path d="M34.1328,17.9568 C34.0992,17.82336 34.07424,17.63424 34.05888,17.3856 C34.0416,17.13696 34.03392,16.88928 34.03392,16.6416 C33.70272,17.22144 33.21888,17.63808 32.58336,17.89536 C31.94592,18.15072 31.3056,18.27936 30.66144,18.27936 C29.91744,18.27936 29.2608,18.14976 28.6896,17.89536 C28.11936,17.63808 27.63552,17.29536 27.23904,16.86528 C26.8416,16.4352 26.54016,15.9264 26.33376,15.33984 C26.12736,14.75328 26.02368,14.12832 26.02368,13.46784 L26.02368,5.75424 L29.32224,5.75424 L29.32224,12.79776 C29.32224,13.4928 29.49984,14.07456 29.856,14.54592 C30.2112,15.01632 30.7776,15.25248 31.5552,15.25248 C32.2992,15.25248 32.8704,15.02976 33.26688,14.58336 C33.66336,14.13696 33.86208,13.55808 33.86208,12.84672 L33.86208,5.75424 L37.16064,5.75424 L37.16064,15.7488 C37.16064,16.2288 37.17312,16.66272 37.19808,17.05152 C37.22304,17.44032 37.25184,17.74176 37.28448,17.9568 L34.1328,17.9568 L34.1328,17.9568 Z" id="Shape"></path>
                                <path d="M47.62368,9.02784 C47.29344,8.9616 46.9632,8.928 46.632,8.928 C46.20192,8.928 45.7968,8.98656 45.41664,9.10176 C45.03648,9.21792 44.70528,9.408 44.42496,9.672 C44.14368,9.93696 43.91616,10.28832 43.74336,10.72608 C43.5696,11.1648 43.4832,11.71488 43.4832,12.37536 L43.4832,17.95584 L40.18368,17.95584 L40.18368,5.75424 L43.38336,5.75424 L43.38336,7.5648 C43.5648,7.16736 43.80096,6.84192 44.08992,6.58464 C44.37888,6.32928 44.68512,6.13536 45.00768,6.00192 C45.32928,5.86944 45.6528,5.7792 45.9744,5.72928 C46.29696,5.68032 46.59072,5.65536 46.85472,5.65536 C46.9872,5.65536 47.11488,5.6592 47.23872,5.66784 C47.36256,5.67648 47.4912,5.68896 47.62272,5.70528 L47.62272,9.02784 L47.62368,9.02784 Z" id="Shape"></path>
                                <path d="M54.81696,8.43264 C54.38688,8.43264 53.9856,8.50752 53.61408,8.65536 C53.2416,8.80512 52.9152,9.024 52.63488,9.31296 C52.3536,9.60288 52.12992,9.96192 51.9648,10.392 C51.79872,10.82208 51.71712,11.30976 51.71712,11.85504 C51.71712,12.40032 51.79872,12.88896 51.9648,13.31808 C52.12992,13.74912 52.35744,14.11104 52.6464,14.4096 C52.93536,14.70816 53.26656,14.93088 53.63808,15.07872 C54.01056,15.22752 54.41088,15.30144 54.84096,15.30144 C55.25472,15.30144 55.6224,15.24096 55.94496,15.11616 C56.26656,14.99232 56.544,14.83104 56.77632,14.63232 C57.00768,14.4336 57.19392,14.21088 57.33408,13.9632 C57.47424,13.71552 57.57792,13.47552 57.64416,13.24416 L60.54528,14.21088 C60.4128,14.72448 60.19392,15.2256 59.88768,15.71136 C59.58144,16.19904 59.1888,16.6368 58.70976,17.02656 C58.22976,17.4144 57.66816,17.72832 57.02304,17.96736 C56.37888,18.20736 55.65024,18.32736 54.84096,18.32736 C53.94816,18.32736 53.10912,18.16608 52.32384,17.84352 C51.53856,17.52096 50.85696,17.07072 50.27808,16.49184 C49.6992,15.91392 49.24512,15.23136 48.91488,14.44608 C48.58368,13.6608 48.4176,12.7968 48.4176,11.85408 C48.4176,10.91232 48.57888,10.04352 48.90144,9.2496 C49.224,8.45568 49.6704,7.77408 50.2416,7.20384 C50.81184,6.6336 51.48192,6.1872 52.24992,5.86464 C53.01888,5.54304 53.85024,5.38176 54.74208,5.38176 C55.5696,5.38176 56.3088,5.50176 56.9616,5.74176 C57.6144,5.98176 58.1808,6.29088 58.6608,6.672 C59.1408,7.05216 59.52864,7.48992 59.82624,7.98624 C60.12384,8.48256 60.33888,8.98656 60.47136,9.4992 L57.52032,10.49088 C57.37152,9.9792 57.08544,9.50784 56.664,9.07776 C56.24256,8.64768 55.62624,8.43264 54.81696,8.43264" id="Shape"></path>
                                <path d="M73.29216,14.45952 C73.14432,14.98848 72.91008,15.48768 72.58752,15.95904 C72.26496,16.42944 71.87136,16.83936 71.40768,17.18592 C70.94496,17.53344 70.40448,17.80896 69.78432,18.01632 C69.16416,18.22368 68.48352,18.3264 67.73856,18.3264 C66.89472,18.3264 66.09312,18.18144 65.3328,17.89248 C64.57248,17.60256 63.9024,17.17728 63.32448,16.61568 C62.7456,16.05312 62.28672,15.36768 61.94784,14.55552 C61.60896,13.7472 61.44,12.82848 61.44,11.8032 C61.44,10.82784 61.60416,9.94272 61.93632,9.14976 C62.26656,8.35584 62.70912,7.68288 63.26304,7.12896 C63.81696,6.57504 64.45728,6.14496 65.18592,5.83968 C65.91264,5.53344 66.66528,5.37984 67.44192,5.37984 C69.34272,5.37984 70.82208,5.9424 71.88192,7.06656 C72.93984,8.19072 73.46784,9.73632 73.46784,11.70432 C73.46784,11.93664 73.46016,12.15456 73.44384,12.36192 C73.42656,12.56832 73.41984,12.68832 73.41984,12.72096 L64.6896,12.72096 C64.70592,13.11744 64.80192,13.48608 64.97568,13.824 C65.14848,14.16384 65.37216,14.4576 65.6448,14.70528 C65.91744,14.95296 66.23616,15.14784 66.6,15.288 C66.96384,15.42816 67.35168,15.49824 67.76544,15.49824 C68.54208,15.49824 69.1488,15.32352 69.58752,14.97696 C70.02624,14.6304 70.34496,14.184 70.54176,13.63776 L73.29216,14.45952 Z M70.21728,10.46592 C70.2,10.16832 70.14048,9.87456 70.032,9.5856 C69.92544,9.29664 69.76032,9.04032 69.53664,8.8176 C69.312,8.59392 69.03264,8.41248 68.6928,8.27232 C68.35296,8.13216 67.95264,8.06112 67.48896,8.06112 C67.05984,8.06112 66.67968,8.136 66.34944,8.2848 C66.01824,8.4336 65.73696,8.62464 65.50656,8.85504 C65.27424,9.08736 65.0976,9.34272 64.97376,9.624 C64.84896,9.90528 64.77888,10.1856 64.76256,10.46688 L70.21728,10.46688 L70.21728,10.46592 Z" id="Shape"></path>
                                <path d="M77.6832,17.832 C77.79744,18.50976 78.10464,19.06272 78.6,19.49376 C79.09728,19.92288 79.74144,20.13792 80.53536,20.13792 C81.576,20.13792 82.37856,19.86912 82.94112,19.33248 C83.50368,18.79392 83.78496,17.92992 83.78496,16.74048 L83.78496,15.84672 C83.53536,16.24416 83.13024,16.60416 82.56768,16.92672 C82.00704,17.24832 81.27936,17.4096 80.38752,17.4096 C79.57536,17.4096 78.82368,17.26176 78.1296,16.9632 C77.4336,16.6656 76.83552,16.2528 76.33152,15.72288 C75.82752,15.19392 75.43008,14.56992 75.14112,13.85088 C74.85024,13.13184 74.70624,12.34272 74.70624,11.48256 C74.70624,10.67232 74.8464,9.90816 75.12768,9.18816 C75.40896,8.46912 75.7968,7.83648 76.29408,7.29024 C76.78944,6.74496 77.3856,6.31488 78.07872,6.00096 C78.77472,5.68704 79.54272,5.5296 80.38656,5.5296 C81.36192,5.5296 82.12992,5.70336 82.69056,6.04992 C83.25312,6.39648 83.64288,6.7776 83.85696,7.1904 L83.85696,5.75424 L87.03168,5.75424 L87.03168,16.6416 C87.03168,17.48544 86.91168,18.29088 86.6736,19.05984 C86.4336,19.82976 86.05632,20.50656 85.54464,21.09408 C85.03104,21.68064 84.36864,22.152 83.56128,22.5072 C82.75104,22.8624 81.77472,23.04096 80.63424,23.04096 C79.7904,23.04096 79.02528,22.92096 78.33888,22.68192 C77.65248,22.44192 77.05248,22.11936 76.5408,21.71424 C76.02912,21.30816 75.6144,20.83776 75.30144,20.30112 C74.98656,19.76256 74.78784,19.2048 74.70528,18.62688 L77.6832,17.832 Z M80.9568,14.58336 C81.79872,14.58336 82.49088,14.30208 83.02656,13.73952 C83.56512,13.17792 83.83296,12.42528 83.83296,11.48256 C83.83296,10.53984 83.55168,9.792 82.98912,9.23808 C82.42656,8.68416 81.74976,8.40672 80.9568,8.40672 C80.54208,8.40672 80.15808,8.47776 79.80384,8.61792 C79.44768,8.75808 79.13664,8.96448 78.87168,9.23808 C78.60768,9.51072 78.40128,9.83808 78.25248,10.21824 C78.10464,10.5984 78.02976,11.0208 78.02976,11.48256 C78.02976,12.44256 78.30144,13.19904 78.84768,13.752 C79.39296,14.30592 80.09664,14.58336 80.9568,14.58336 L80.9568,14.58336 Z" id="Shape"></path>
                                <path d="M97.32384,9.02784 C96.9936,8.9616 96.66336,8.928 96.33216,8.928 C95.90304,8.928 95.49792,8.98656 95.1168,9.10176 C94.73568,9.21696 94.4064,9.408 94.12512,9.672 C93.84384,9.93696 93.61728,10.28832 93.44256,10.72608 C93.26976,11.1648 93.18336,11.71488 93.18336,12.37536 L93.18336,17.95584 L89.88288,17.95584 L89.88288,5.75424 L93.0816,5.75424 L93.0816,7.5648 C93.26496,7.16736 93.50016,6.84192 93.79008,6.58464 C94.07904,6.32928 94.38432,6.13536 94.70688,6.00192 C95.02944,5.86944 95.352,5.7792 95.67456,5.72928 C95.99712,5.68032 96.28992,5.65536 96.55392,5.65536 C96.68736,5.65536 96.81408,5.6592 96.93792,5.66784 C97.06368,5.67648 97.19136,5.68896 97.32192,5.70528 L97.32192,9.02784 L97.32384,9.02784 Z" id="Shape"></path>
                                <path d="M98.49024,14.63232 C98.49024,14.08704 98.58624,13.6032 98.77536,13.1808 C98.96448,12.7584 99.2256,12.39168 99.55488,12.07776 C99.88704,11.76384 100.27104,11.51616 100.70784,11.33472 C101.14656,11.15328 101.62272,11.0208 102.1344,10.93728 L105.13632,10.49088 C105.48288,10.44192 105.72288,10.33824 105.8544,10.18176 C105.98784,10.02432 106.05312,9.83904 106.05312,9.62304 C106.05312,9.19296 105.88416,8.82144 105.54528,8.50656 C105.20544,8.19264 104.68992,8.0352 103.99488,8.0352 C103.2672,8.0352 102.7104,8.23392 102.32064,8.6304 C101.9328,9.02784 101.71296,9.49056 101.664,10.01952 L98.73696,9.39936 C98.78592,8.91936 98.93568,8.44032 99.18336,7.96032 C99.43104,7.48128 99.76992,7.0512 100.2,6.67104 C100.63104,6.29088 101.16,5.9808 101.78784,5.7408 C102.41568,5.5008 103.14336,5.3808 103.96992,5.3808 C104.928,5.3808 105.74784,5.50848 106.42656,5.7648 C107.10336,6.02112 107.65248,6.36 108.07488,6.78144 C108.49632,7.20288 108.80256,7.69536 108.99168,8.25696 C109.18272,8.81952 109.27872,9.40608 109.27872,10.0176 L109.27872,16.01952 C109.27872,16.35072 109.29408,16.70208 109.32768,17.0736 C109.36128,17.44512 109.39296,17.73888 109.42752,17.95488 L106.4016,17.95488 C106.368,17.78976 106.34016,17.56224 106.3152,17.27232 C106.2912,16.98336 106.27776,16.7232 106.27776,16.49088 C105.96288,16.97088 105.51264,17.39232 104.92608,17.75616 C104.33952,18.12 103.59072,18.30144 102.6816,18.30144 C102.03648,18.30144 101.45376,18.19872 100.9344,17.9904 C100.41312,17.784 99.97056,17.51232 99.60672,17.17248 C99.24288,16.83264 98.96544,16.4448 98.77632,16.00704 C98.5872,15.56928 98.49024,15.11232 98.49024,14.63232 M103.37664,15.84768 C103.72128,15.84768 104.05728,15.80256 104.37984,15.71136 C104.7024,15.62016 104.98752,15.46368 105.23712,15.24096 C105.4848,15.01728 105.6816,14.72832 105.83136,14.37216 C105.9792,14.01792 106.05408,13.56576 106.05408,13.02144 L106.05408,12.47616 L103.30176,12.89664 C102.87264,12.96288 102.51072,13.11648 102.22368,13.35648 C101.9328,13.59648 101.7888,13.95648 101.7888,14.43456 C101.7888,14.79936 101.92032,15.12672 102.18624,15.41472 C102.45024,15.70272 102.84576,15.84768 103.37664,15.84768" id="Shape"></path>
                                <path d="M112.104,22.66848 L112.104,5.75424 L115.30464,5.75424 L115.30464,7.24224 C115.58592,6.76224 116.04672,6.34944 116.69184,6.00192 C117.33696,5.6544 118.12224,5.4816 119.04864,5.4816 C119.94144,5.4816 120.7344,5.64192 121.42944,5.96448 C122.12352,6.28704 122.71392,6.7344 123.20352,7.30464 C123.6912,7.87488 124.05888,8.54496 124.3056,9.31392 C124.55328,10.08288 124.67712,10.92192 124.67712,11.83104 C124.67712,12.75744 124.54176,13.61184 124.26816,14.39808 C123.99648,15.1824 123.60768,15.86112 123.10368,16.43136 C122.59776,17.0016 121.992,17.44992 121.27968,17.77056 C120.56928,18.09312 119.78304,18.25536 118.9248,18.25536 C118.08096,18.25536 117.35712,18.1104 116.75328,17.82144 C116.15136,17.53152 115.6992,17.18016 115.4016,16.76736 L115.4016,22.66944 L112.104,22.66944 L112.104,22.66848 Z M121.4304,11.85504 C121.4304,10.76352 121.13568,9.92064 120.54912,9.32448 C119.96256,8.72928 119.24832,8.43168 118.40448,8.43168 C117.97344,8.43168 117.57792,8.5104 117.21408,8.66784 C116.85024,8.82528 116.52768,9.048 116.2464,9.33792 C115.96512,9.62784 115.7472,9.98208 115.58976,10.40352 C115.43232,10.82496 115.3536,11.3088 115.3536,11.85504 C115.3536,12.40032 115.43232,12.88512 115.58976,13.30464 C115.7472,13.72608 115.96512,14.08608 116.2464,14.38464 C116.52768,14.6832 116.85024,14.90976 117.21408,15.06624 C117.57792,15.22464 117.97344,15.30144 118.40448,15.30144 C119.24832,15.30144 119.96256,15.00096 120.54912,14.39712 C121.13664,13.79424 121.4304,12.94656 121.4304,11.85504 L121.4304,11.85504 Z" id="Shape"></path>
                                <path d="M130.08576,17.9568 L126.7872,17.9568 L126.7872,0 L130.08576,0 L130.08576,6.77088 C130.4832,6.29088 130.9872,5.94912 131.59872,5.74176 C132.21024,5.5344 132.8064,5.43168 133.38336,5.43168 C134.16192,5.43168 134.83488,5.55936 135.40416,5.81568 C135.97632,6.072 136.44672,6.41568 136.81824,6.84576 C137.19168,7.27584 137.4672,7.78752 137.64864,8.38368 C137.83008,8.97888 137.92224,9.60672 137.92224,10.26816 L137.92224,17.9568 L134.62368,17.9568 L134.62368,10.8384 C134.62368,10.14336 134.44512,9.56544 134.08896,9.10176 C133.73472,8.63904 133.15872,8.40768 132.36576,8.40768 C131.67168,8.40768 131.1264,8.63424 130.72896,9.08928 C130.33344,9.54432 130.11744,10.11072 130.08384,10.78848 L130.08384,17.9568 L130.08576,17.9568 Z" id="Shape"></path>
                            </g>
                            <g id="LogoMark">
                                <g id="logomark">
                                    <g id="Page-1">
                                        <g id="sg-logo">
                                            <g id="logomark">
                                                <path d="M6.749,3.144 L11.932,22.121 C12.281,23.396 13.595,24.147 14.868,23.799 C16.141,23.449 16.89,22.132 16.542,20.857 L11.358,1.879 C11.009,0.604 9.695,-0.147 8.422,0.202 C7.15,0.551 6.4,1.868 6.749,3.144" id="Shape" fill="#F96216"></path>
                                                <path d="M16.347,3.072 L3.367,17.751 C2.492,18.741 2.583,20.255 3.571,21.132 C4.559,22.009 6.069,21.917 6.944,20.927 L19.924,6.248 C20.799,5.258 20.708,3.745 19.72,2.868 C18.732,1.991 17.223,2.082 16.347,3.072" id="Shape" fill="#B200F8"></path>
                                                <path d="M1.64,11.207 L20.151,17.339 C21.404,17.755 22.755,17.073 23.17,15.818 C23.585,14.562 22.904,13.208 21.652,12.794 L3.14,6.659 C1.887,6.245 0.536,6.925 0.122,8.181 C-0.293,9.437 0.387,10.791 1.64,11.207" id="Shape" fill="#00B4F2"></path>
                                            </g>
                                        </g>
                                    </g>
                                </g>
                            </g>
                        </g>
                        <g id="Group-4" transform="translate(32.000000, 28.000000)" fill-rule="nonzero" fill="#F26222">
                            <polygon id="Shape" points="4.05831496 1.3544 4.05831496 7.1728 2.88250394 7.1728 2.88250394 1.3544 0.628062992 1.3544 0.628062992 0.2512 6.3223937 0.2512 6.3223937 1.3544"></polygon>
                            <polygon id="Shape" points="11.7219685 7.1728 11.7219685 4.2152 8.45877165 4.2152 8.45877165 7.1728 7.28296063 7.1728 7.28296063 0.2512 8.45877165 0.2512 8.45877165 3.112 11.7219685 3.112 11.7219685 0.2512 12.9082205 0.2512 12.9082205 7.1728"></polygon>
                            <polygon id="Shape" points="14.5739528 7.1728 14.5739528 0.2512 18.8667874 0.2512 18.8667874 1.3448 15.7505669 1.3448 15.7505669 3.18 18.5736378 3.18 18.5736378 4.244 15.7505669 4.244 15.7505669 6.0792 18.8667874 6.0792 18.8667874 7.1728"></polygon>
                            <polygon id="Shape" points="22.708252 7.1728 22.708252 0.2512 27.03 0.2512 27.03 1.3544 23.884063 1.3544 23.884063 3.2976 26.7071339 3.2976 26.7071339 4.3808 23.884063 4.3808 23.884063 7.1728"></polygon>
                            <path d="M30.6457795,7.3192 C30.2803465,7.3192 29.9406142,7.264 29.6265827,7.1528 C29.3125512,7.0416 29.0402835,6.8792 28.8073701,6.6648 C28.576063,6.4504 28.3921417,6.1832 28.2588189,5.8648 C28.1246929,5.5464 28.0572283,5.1784 28.0572283,4.7616 L28.0572283,0.2512 L29.2234016,0.2512 L29.2234016,4.6928 C29.2234016,5.1808 29.3494961,5.5552 29.6008819,5.8152 C29.8522677,6.076 30.2008346,6.2056 30.6449764,6.2056 C31.0963465,6.2056 31.4457165,6.0752 31.6938898,5.8152 C31.9428661,5.5552 32.0665512,5.1808 32.0665512,4.6928 L32.0665512,0.2512 L33.2431654,0.2512 L33.2431654,4.7616 C33.2431654,5.1784 33.1757008,5.5456 33.0415748,5.8648 C32.908252,6.184 32.7243307,6.4504 32.4930236,6.6648 C32.2609134,6.88 31.9862362,7.0424 31.6697953,7.1528 C31.3533543,7.2632 31.0120157,7.3192 30.6457795,7.3192 Z" id="Shape"></path>
                            <polygon id="Shape" points="37.5753543 1.3544 37.5753543 7.1728 36.3987402 7.1728 36.3987402 1.3544 34.1442992 1.3544 34.1442992 0.2512 39.8386299 0.2512 39.8386299 1.3544"></polygon>
                            <path d="M43.3275118,7.3192 C42.9620787,7.3192 42.6223465,7.264 42.308315,7.1528 C41.9942835,7.0416 41.7220157,6.8792 41.4891024,6.6648 C41.2577953,6.4504 41.073874,6.1832 40.9405512,5.8648 C40.8064252,5.5464 40.7389606,5.1784 40.7389606,4.7616 L40.7389606,0.2512 L41.9051339,0.2512 L41.9051339,4.6928 C41.9051339,5.1808 42.0312283,5.5552 42.2826142,5.8152 C42.534,6.076 42.8825669,6.2056 43.3267087,6.2056 C43.7780787,6.2056 44.1274488,6.0752 44.375622,5.8152 C44.6245984,5.5552 44.7482835,5.1808 44.7482835,4.6928 L44.7482835,0.2512 L45.9248976,0.2512 L45.9248976,4.7616 C45.9248976,5.1784 45.8574331,5.5456 45.7233071,5.8648 C45.5899843,6.184 45.406063,6.4504 45.1747559,6.6648 C44.9426457,6.88 44.6679685,7.0424 44.3515276,7.1528 C44.0350866,7.2632 43.693748,7.3192 43.3275118,7.3192 Z" id="Shape"></path>
                            <path d="M49.5607559,4.4392 L48.6989764,4.4392 L48.6989764,7.1728 L47.5127244,7.1728 L47.5127244,0.2512 L50.178378,0.2512 C50.5108819,0.2512 50.8136693,0.3048 51.0843307,0.4128 C51.3557953,0.52 51.5846929,0.6696 51.7702205,0.8616 C51.9565512,1.0536 52.100315,1.2768 52.2015118,1.5304 C52.3027087,1.784 52.3533071,2.0576 52.3533071,2.3504 C52.3533071,2.8456 52.2143622,3.268 51.9364724,3.6192 C51.6577795,3.9704 51.2746772,4.2048 50.7839528,4.3224 L52.3525039,7.1728 L51.0192756,7.1728 L49.5607559,4.4392 Z M49.9631339,3.404 C50.3285669,3.404 50.6193071,3.308 50.8353543,3.116 C51.0514016,2.924 51.1582205,2.6688 51.1582205,2.3496 C51.1582205,2.0248 51.0505984,1.7656 50.8353543,1.5736 C50.6193071,1.3816 50.3285669,1.2856 49.9631339,1.2856 L48.6989764,1.2856 L48.6989764,3.404 L49.9631339,3.404 Z" id="Shape"></path>
                            <polygon id="Shape" points="53.6086299 7.1728 53.6086299 0.2512 57.9014646 0.2512 57.9014646 1.3448 54.7844409 1.3448 54.7844409 3.18 57.6075118 3.18 57.6075118 4.244 54.7844409 4.244 54.7844409 6.0792 57.9014646 6.0792 57.9014646 7.1728"></polygon>
                            <path d="M65.2510866,2.204 C65.231811,2.1 65.194063,1.984 65.1378425,1.8568 C65.0824252,1.7304 65.0005039,1.6144 64.8928819,1.5104 C64.7844567,1.4064 64.6487244,1.3184 64.485685,1.2464 C64.3226457,1.1752 64.1234646,1.1392 63.8881417,1.1392 C63.7114488,1.1392 63.5500157,1.1672 63.4030394,1.2224 C63.256063,1.2776 63.1299685,1.3512 63.0255591,1.4416 C62.9211496,1.5328 62.8400315,1.6384 62.7805984,1.7584 C62.7219685,1.8792 62.692252,2.0048 62.692252,2.1344 C62.692252,2.3552 62.7597165,2.544 62.8938425,2.7008 C63.0271654,2.8568 63.2319685,2.9648 63.5066457,3.0232 L64.5057638,3.228 C65.1201732,3.3512 65.5876063,3.5928 65.9072598,3.9504 C66.2269134,4.308 66.3875433,4.7312 66.3875433,5.2192 C66.3875433,5.4856 66.3345354,5.7464 66.2261102,6 C66.1184882,6.2536 65.9602677,6.4784 65.7506457,6.6736 C65.5410236,6.8688 65.2848189,7.0248 64.9812283,7.1424 C64.6776378,7.26 64.3266614,7.3184 63.9274961,7.3184 C63.4825512,7.3184 63.0994488,7.2544 62.7757795,7.128 C62.4521102,7.0008 62.1814488,6.8352 61.962189,6.6296 C61.7429291,6.4248 61.5750709,6.1952 61.4570079,5.9416 C61.3389449,5.688 61.2674646,5.4376 61.2409606,5.1904 L62.3388661,4.8776 C62.3581417,5.06 62.4039213,5.2336 62.4762047,5.4 C62.547685,5.5664 62.6504882,5.7128 62.7846142,5.8392 C62.9187402,5.9656 63.0801732,6.0688 63.2697165,6.1464 C63.4584567,6.2248 63.6777165,6.2632 63.9258898,6.2632 C64.3443307,6.2632 64.6591654,6.172 64.872,5.9896 C65.0840315,5.8072 65.1900472,5.5792 65.1900472,5.3064 C65.1900472,5.0784 65.1097323,4.8816 64.9499055,4.716 C64.7892756,4.5496 64.5595748,4.4344 64.2591969,4.3696 L63.2785512,4.1648 C62.7492756,4.0544 62.3236063,3.8328 61.9991339,3.5008 C61.6762677,3.1688 61.5140315,2.7432 61.5140315,2.2224 C61.5140315,1.9296 61.575874,1.6544 61.6995591,1.3976 C61.8240472,1.1408 61.9935118,0.916 62.2095591,0.724 C62.4256063,0.532 62.6753858,0.3808 62.9597008,0.2704 C63.2440157,0.16 63.5492126,0.1048 63.8760945,0.1048 C64.2881102,0.1048 64.6374803,0.16 64.9250079,0.2704 C65.2125354,0.3816 65.4526772,0.5224 65.6454331,0.6952 C65.8373858,0.868 65.9867717,1.0584 66.0911811,1.2664 C66.1963937,1.4752 66.267874,1.6768 66.3072283,1.872 L65.2510866,2.204 Z" id="Shape"></path>
                            <path d="M67.1625827,3.7072 C67.1625827,3.1408 67.2605669,2.6352 67.4557323,2.1896 C67.6517008,1.744 67.9127244,1.3664 68.2404094,1.0568 C68.5672913,0.748 68.9423622,0.512 69.3672283,0.3488 C69.7912913,0.1864 70.2330236,0.1048 70.6900157,0.1048 C71.1470079,0.1048 71.587937,0.1864 72.0128031,0.3488 C72.4368661,0.512 72.8127402,0.748 73.139622,1.0568 C73.4657008,1.3664 73.7291339,1.7432 73.928315,2.1896 C74.1274961,2.636 74.2270866,3.1416 74.2270866,3.7072 C74.2270866,4.2736 74.1274961,4.7808 73.928315,5.2304 C73.7291339,5.6792 73.4657008,6.0584 73.139622,6.3672 C72.8127402,6.6768 72.4368661,6.9128 72.0128031,7.0752 C71.587937,7.2376 71.1470079,7.3192 70.6900157,7.3192 C70.2330236,7.3192 69.7912913,7.2376 69.3672283,7.0752 C68.9423622,6.9128 68.5672913,6.6768 68.2404094,6.3672 C67.9135276,6.0584 67.6525039,5.6792 67.4557323,5.2304 C67.2605669,4.7808 67.1625827,4.2736 67.1625827,3.7072 Z M68.3681102,3.7072 C68.3681102,4.124 68.4347717,4.488 68.5688976,4.8008 C68.7022205,5.1136 68.8773071,5.3736 69.0925512,5.5816 C69.3085984,5.7904 69.5543622,5.9464 69.8330551,6.0504 C70.1109449,6.1544 70.396063,6.2064 70.6900157,6.2064 C70.9839685,6.2064 71.2714961,6.1544 71.5525984,6.0504 C71.8337008,5.9464 72.0810709,5.7904 72.2971181,5.5816 C72.5131654,5.3736 72.6874488,5.1136 72.8215748,4.8008 C72.9548976,4.488 73.0223622,4.124 73.0223622,3.7072 C73.0223622,3.2904 72.9548976,2.9264 72.8215748,2.6136 C72.6874488,2.3008 72.5123622,2.0408 72.2971181,1.8328 C72.081874,1.6248 71.8337008,1.468 71.5525984,1.364 C71.2706929,1.26 70.9839685,1.208 70.6900157,1.208 C70.396063,1.208 70.1101417,1.26 69.8330551,1.364 C69.5543622,1.468 69.3085984,1.6248 69.0925512,1.8328 C68.8765039,2.0408 68.7022205,2.3008 68.5688976,2.6136 C68.4347717,2.9264 68.3681102,3.2904 68.3681102,3.7072 Z" id="Shape"></path>
                            <path d="M75.0519213,3.7072 C75.0519213,3.1408 75.1499055,2.6352 75.3450709,2.1896 C75.5410394,1.744 75.802063,1.3664 76.129748,1.0568 C76.4566299,0.748 76.8317008,0.512 77.2565669,0.3488 C77.6806299,0.1864 78.1223622,0.1048 78.5793543,0.1048 C79.0363465,0.1048 79.4772756,0.1864 79.9021417,0.3488 C80.3262047,0.512 80.7020787,0.748 81.0289606,1.0568 C81.3550394,1.3664 81.6184724,1.7432 81.8176535,2.1896 C82.0168346,2.636 82.1164252,3.1416 82.1164252,3.7072 C82.1164252,4.2736 82.0168346,4.7808 81.8176535,5.2304 C81.6184724,5.6792 81.3550394,6.0584 81.0289606,6.3672 C80.7020787,6.6768 80.3262047,6.9128 79.9021417,7.0752 C79.4772756,7.2376 79.0363465,7.3192 78.5793543,7.3192 C78.1223622,7.3192 77.6806299,7.2376 77.2565669,7.0752 C76.8317008,6.9128 76.4566299,6.6768 76.129748,6.3672 C75.8028661,6.0584 75.5418425,5.6792 75.3450709,5.2304 C75.1499055,4.7808 75.0519213,4.2736 75.0519213,3.7072 Z M76.2574488,3.7072 C76.2574488,4.124 76.3241102,4.488 76.4582362,4.8008 C76.5915591,5.1136 76.7666457,5.3736 76.9818898,5.5816 C77.197937,5.7904 77.4437008,5.9464 77.7223937,6.0504 C78.0002835,6.1544 78.2854016,6.2064 78.5793543,6.2064 C78.8733071,6.2064 79.1608346,6.1544 79.441937,6.0504 C79.7230394,5.9464 79.9704094,5.7904 80.1864567,5.5816 C80.4025039,5.3736 80.5767874,5.1136 80.7109134,4.8008 C80.8442362,4.488 80.9117008,4.124 80.9117008,3.7072 C80.9117008,3.2904 80.8442362,2.9264 80.7109134,2.6136 C80.5767874,2.3008 80.4017008,2.0408 80.1864567,1.8328 C79.9712126,1.6248 79.7230394,1.468 79.441937,1.364 C79.1600315,1.26 78.8733071,1.208 78.5793543,1.208 C78.2854016,1.208 77.9994803,1.26 77.7223937,1.364 C77.4437008,1.468 77.197937,1.6248 76.9818898,1.8328 C76.7658425,2.0408 76.5915591,2.3008 76.4582362,2.6136 C76.3241102,2.9264 76.2574488,3.2904 76.2574488,3.7072 Z" id="Shape"></path>
                            <polygon id="Shape" points="87.9689764 7.1728 84.5387244 1.9304 84.5387244 7.1728 83.3629134 7.1728 83.3629134 0.2512 84.8623937 0.2512 88.0179685 5.1616 88.0179685 0.2512 89.1945827 0.2512 89.1945827 7.1728"></polygon>
                            <polygon id="Shape" points="90.860315 7.1728 90.860315 0.2512 95.1531496 0.2512 95.1531496 1.3448 92.036126 1.3448 92.036126 3.18 94.8591969 3.18 94.8591969 4.244 92.036126 4.244 92.036126 6.0792 95.1531496 6.0792 95.1531496 7.1728"></polygon>
                            <path d="M98.6115118,4.4392 L97.7497323,4.4392 L97.7497323,7.1728 L96.5634803,7.1728 L96.5634803,0.2512 L99.2291339,0.2512 C99.5616378,0.2512 99.8644252,0.3048 100.135087,0.4128 C100.406551,0.52 100.635449,0.6696 100.820976,0.8616 C101.007307,1.0536 101.151071,1.2768 101.252268,1.5304 C101.353465,1.784 101.404063,2.0576 101.404063,2.3504 C101.404063,2.8456 101.265118,3.268 100.987228,3.6192 C100.708535,3.9704 100.325433,4.2048 99.8347087,4.3224 L101.40326,7.1728 L100.070031,7.1728 L98.6115118,4.4392 Z M99.0138898,3.404 C99.3793228,3.404 99.670063,3.308 99.8861102,3.116 C100.102157,2.924 100.208976,2.6688 100.208976,2.3496 C100.208976,2.0248 100.101354,1.7656 99.8861102,1.5736 C99.670063,1.3816 99.3793228,1.2856 99.0138898,1.2856 L97.7497323,1.2856 L97.7497323,3.404 L99.0138898,3.404 Z" id="Shape"></path>
                        </g>
                    </g>
                </g>
            </g>
        </g>
    </g>
</svg>