<svg xmlns="http://www.w3.org/2000/svg" viewBox="0 0 293 293"><path fill="#D5E5F2" fill-opacity=".3" fill-rule="evenodd" d="M42.5 216c.5-2.3 2.4-4 4.7-4 2.7 0 4.8 2.2 4.8 5 0 2.5-2 4.7-4.8 4.7-2.3 0-4.2-1.7-4.7-4H0V216h42.5zM196.7 262c.5-2.2 2.4-4 4.7-4 2.7 0 5 2.3 5 5 0 2.6-2.3 4.7-5 4.7-2.3 0-4.2-1.7-4.7-4H79v-1.8h117.7zm55.7-44.4c-.4 2.2-2.4 4-4.7 4-2.7 0-4.8-2.3-4.8-5 0-2.6 2-4.8 4.7-4.8 2.3 0 4.3 1.7 4.7 4H293v1.8h-40.6zm0 15.4c-.4 2.2-2.4 4-4.7 4-2.7 0-4.8-2.3-4.8-5 0-2.6 2-4.7 4.7-4.7 2.3 0 4.3 1.6 4.7 3.8H293v2h-40.6zm6-109.8c.4-2.2 2.4-4 4.7-4 2.8 0 5 2.3 5 5 0 2.6-2.2 4.8-5 4.8-2.2 0-4.2-1.7-4.6-4h-83c-.5 2.3-2.5 4-4.8 4-2.7 0-4.8-2.2-4.8-5 0-2.5 2-4.7 4.8-4.7 2.3 0 4.3 1.7 4.7 4h83zM11.7 77c.4-2 2.4-3.8 4.7-3.8 2.6 0 4.8 2.2 4.8 5 0 2.5-2.2 4.7-4.8 4.7-2.3 0-4.3-1.8-4.7-4H0v-2h11.7zm179 33c-.4 2-2.4 3.7-4.7 3.7-2.6 0-4.8-2-4.8-4.8s2.2-5 4.8-5c2.3 0 4.3 1.7 4.7 4h83c.6-2.3 2.5-4 4.8-4 2.7 0 5 2.2 5 5 0 2.6-2.3 4.7-5 4.7-2.3 0-4.2-1.6-4.7-3.8h-83zm58-98.3c2.2.4 3.8 2.4 3.8 4.7 0 2.6-2 4.8-4.8 4.8-2.7 0-4.8-2.2-4.8-4.8 0-2.3 1.5-4.3 3.7-4.7V0h2v11.7zM187 212c2.2.6 3.8 2.5 3.8 5s-2 4.7-4.8 4.7c-2.6 0-4.8-2.2-4.8-4.8 0-2.5 1.7-4.4 4-5v-52c-2.3-.5-4-2.5-4-4.8 0-2.7 2.2-4.8 4.8-4.8 2.7 0 4.8 2 4.8 4.8 0 2.3-1.6 4.3-3.8 4.7v52zm46.2-191c2.2-.3 4-2.3 4-4.6 0-2.7-2.3-4.8-5-4.8-2.6 0-4.7 2-4.7 4.8 0 2.3 1.6 4.3 3.8 4.7v58H293v-2h-59.8V21zm15.5 15.5c2.2-.4 3.8-2.4 3.8-4.7 0-2.7-2-4.8-4.8-4.8-2.7 0-4.8 2-4.8 4.8 0 2.3 1.5 4.3 3.7 4.7v27H293v-1.8h-44.3V36.5zM125.3 129c2.2-.4 4-2.3 4-4.7 0-2.6-2.3-4.8-5-4.8-2.6 0-4.8 2.2-4.8 4.8 0 2.4 1.7 4.3 4 4.8v73.4h15.3v9.7c-2.2.6-4 2.5-4 5s2.3 4.7 5 4.7c2.6 0 4.8-2.2 4.8-4.8 0-2.5-1.7-4.4-4-5v-11.5h-15.3V129zm-5.7-21c.5-2.3 2.4-4 4.7-4 2.7 0 5 2.2 5 5 0 2.6-2.3 4.7-5 4.7-2.3 0-4.2-1.6-4.7-3.8H110v46H82.7c-.5 2.3-2.4 4-4.7 4-2.6 0-4.8-2.2-4.8-4.8 0-2.7 2.2-4.8 5-4.8 2.2 0 4 1.6 4.6 3.8h25V108h11.8zm-6 125.2c-.4 2.2-2.4 4-4.7 4-2.8 0-5-2.3-5-5 0-2.6 2.2-4.7 5-4.7 2.2 0 4.2 1.6 4.6 3.8h56V160c-2.2-.5-3.8-2.5-3.8-4.8 0-2.7 2-4.8 4.8-4.8 2.7 0 4.8 2 4.8 4.8 0 2.3-1.6 4.3-3.8 4.7V233h-58zm-15.4-61.6c-.4 2.2-2.4 3.8-4.7 3.8-2.7 0-4.8-2-4.8-4.8 0-2.7 2-4.8 4.8-4.8 2.3 0 4.3 1.6 4.7 3.8H110V216h9.6c.5-2.3 2.4-4 4.7-4 2.7 0 5 2.2 5 5 0 2.5-2.3 4.7-5 4.7-2.3 0-4.2-1.7-4.7-4H108V171.6H98zM63.6 273.8c2.2.5 4 2.4 4 4.7 0 2.7-2.3 5-5 5-2.6 0-4.8-2.3-4.8-5 0-2.3 1.7-4.2 4-4.7V264H48v29h-2v-30.8h17.4v11.6zm164-104.2c.4-2.2 2.3-3.8 4.7-3.8 2.6 0 4.8 2 4.8 4.8 0 2.7-2 4.8-4.7 4.8-2.4 0-4.3-1.6-4.7-3.8h-9.8v90.6H264V293h-1.8v-29H216v-94.4h11.6zm24.8-29c-.4 2.3-2.4 4-4.7 4-2.7 0-4.8-2.2-4.8-4.8 0-2.7 2-5 4.7-5 2.3 0 4.3 1.8 4.7 4H264v42.4c2.3.5 4 2.5 4 4.8 0 2.7-2.2 4.8-5 4.8-2.5 0-4.7-2-4.7-4.8 0-2.3 1.7-4.3 4-4.7v-40.6h-10zm-61.7 92.6c-.4 2.2-2.4 4-4.7 4-2.6 0-4.8-2.3-4.8-5 0-2.6 2.2-4.7 4.8-4.7 2.3 0 4.3 1.6 4.7 3.8h9.8v-77H216v-13.6h-40.7c-.4 2.2-2.4 4-4.7 4-2.7 0-4.8-2.3-4.8-5 0-2.6 2-4.8 4.8-4.8 2.3 0 4.3 1.6 4.7 3.8h42.5V156h-15.4v77.3h-11.7zm83-202.4c.6-2.2 2.5-3.8 4.8-3.8 2.7 0 5 2 5 4.8 0 2.7-2.3 4.8-5 4.8-2.3 0-4.2-1.6-4.7-3.8h-11.6V0h2v30.8h9.6zM94.6 98.2c2.2-.4 3.8-2.4 3.8-4.7 0-2.7-2-4.8-4.8-4.8-2.7 0-4.8 2-4.8 4.8 0 2.3 1.6 4.3 3.8 4.7v40.6H52c-.5-2.2-2.4-4-4.8-4-2.6 0-4.8 2.3-4.8 5 0 2.6 2.2 4.8 4.8 4.8 2.4 0 4.3-1.7 4.7-4h42.5V98.3zM52 32.8c-.5 2.2-2.4 3.8-4.8 3.8-2.6 0-4.8-2-4.8-4.8 0-2.7 2.2-4.8 4.8-4.8 2.4 0 4.3 1.6 4.7 3.8h25V0h2v32.8H52zm58 3.7c2-.4 3.7-2.4 3.7-4.7 0-2.7-2-4.8-4.8-4.8s-5 2-5 4.8c0 2.3 1.7 4.3 4 4.7v25.2H77v61.7h-9.6c-.5-2.2-2.4-4-4.8-4-2.6 0-4.8 2.3-4.8 5 0 2.6 2.2 4.8 4.8 4.8 2.4 0 4.3-1.7 4.8-4H79V63.6h31v-27zM98 79c-.4 2.2-2.4 4-4.7 4-2.7 0-4.8-2.3-4.8-5 0-2.6 2-4.8 4.8-4.8 2.3 0 4.3 1.7 4.7 4h25.2V36.4c-2.2-.4-4-2.4-4-4.7 0-2.7 2.3-4.8 5-4.8 2.6 0 4.8 2 4.8 4.8 0 2.3-1.7 4.3-4 4.7V79H98.2zm15.4-61.7c-.4 2.2-2.4 4-4.7 4-2.8 0-5-2.3-5-5 0-2.6 2.2-4.7 5-4.7 2.2 0 4.2 1.6 4.6 3.8h27V58c2.3.4 4 2.3 4 4.6 0 2.7-2.2 5-4.8 5-2.7 0-5-2.3-5-5 0-2.3 1.8-4.2 4-4.7V17.2h-25.2zM212 277.6c.6-2.2 2.5-4 5-4s4.7 2.3 4.7 5c0 2.6-2.2 4.8-4.8 4.8-2.5 0-4.4-1.7-5-4H94.6V293h-2v-15.4H212zm21.2-133c2.2-.6 4-2.5 4-4.8 0-2.7-2.3-5-5-5-2.6 0-4.7 2.3-4.7 5 0 2.3 1.6 4.2 3.8 4.7V156h15.5v29h-15.5v63.7h46.3V293h2v-46.3H233V187h15.5v-32.8h-15.5v-9.7zM52 17.2c-.5 2.2-2.4 4-4.8 4-2.6 0-4.8-2.3-4.8-5 0-2.6 2.2-4.7 4.8-4.7 2.4 0 4.3 1.6 4.7 3.8h9.7V2H46.3V0h17.3v17.3H52zm108 31c-.5 2-2.5 3.7-4.8 3.7-2.7 0-4.8-2-4.8-4.8 0-2.6 2-4.8 4.8-4.8 2.3 0 4.3 1.7 4.7 4h25V0h48.2v2H187V48h-27zM113.5 1.8c-.4 2-2.4 3.8-4.7 3.8-2.8 0-5-2.2-5-4.8 0-.4 0-.7.2-1h2l-.2 1c0 1.6 1.3 3 3 3 1.5 0 2.8-1.4 2.8-3 0-.4 0-.7-.2-1h60v32.8h-17.4V21c-2.2-.3-3.8-2.3-3.8-4.6 0-2.7 2-4.8 4.8-4.8 2.6 0 4.8 2 4.8 4.8 0 2.3-1.7 4.3-4 4.7V31h13.6v-29h-56zm0 92.5c-.4 2.2-2.4 3.8-4.7 3.8-2.8 0-5-2-5-4.8 0-2.7 2.2-4.8 5-4.8 2.2 0 4.2 1.6 4.6 3.8H132l31-30.8h37.5V21c-2.2-.3-4-2.3-4-4.6 0-2.7 2.3-4.8 5-4.8 2.6 0 4.8 2 4.8 4.8 0 2.3-1.7 4.3-4 4.7v42.6h-38.6l-31 31h-19zm27 86.8c2.3.4 4 2.4 4 4.7 0 2.7-2.2 4.8-4.8 4.8-2.7 0-5-2-5-4.8 0-2.3 1.8-4.3 4-4.7v-73.7L169.2 77h46.6V21c-2-.3-3.8-2.3-3.8-4.6 0-2.7 2.2-4.8 5-4.8 2.5 0 4.7 2 4.7 4.8 0 2.3-1.7 4.3-4 4.7v58H170l-29.3 29.3v73zm15.5 30.8c2.3.6 4 2.5 4 5s-2.2 4.7-4.8 4.7c-2.7 0-4.8-2.2-4.8-4.8 0-2.5 1.6-4.4 3.8-5v-95.8L178 92.5H289c.4-2 2-3.3 3.8-3.7v2c-1 .4-2 1.4-2 2.7 0 1.2 1 2.3 2 2.7v2c-2-.4-3.4-2-3.8-3.7H178.7L156 117v95zM17.4 150.6c2.2.4 4 2.3 4 4.7 0 2.6-2.3 4.8-5 4.8-2.6 0-4.7-2.2-4.7-4.8 0-2.4 1.6-4.3 3.8-4.7V147L61.7 101V46.3h30.8V0h2v48.2h-31v53.4L17.4 148v2.5zm31-98.6c2-.5 3.7-2.4 3.7-4.8 0-2.6-2-4.8-4.8-4.8-2.6 0-4.8 2.2-4.8 4.8 0 2.4 1.7 4.3 4 4.7v41L0 139.5v62.9h27c.5 2.2 2.5 4 4.8 4 2.7 0 4.8-2.3 4.8-5 0-2.6-2-4.8-4.8-4.8-2.3 0-4.3 1.7-4.7 4H2V140L48 94V51.8zM32.7 67.3c2.2-.5 3.8-2.4 3.8-4.8 0-2.6-2-4.8-4.8-4.8-2.7 0-4.8 2.2-4.8 4.8 0 2.4 1.6 4.3 3.8 4.8v18L0 116.2v2.7L32.8 86V67.4zm-21-36.6C12 28.6 14 27 16.3 27c2.6 0 4.8 2 4.8 4.8 0 2.7-2.2 4.8-4.8 4.8-2.3 0-4.3-1.6-4.7-3.8H9l-9 9V39L8.3 31h3.5zm256 17.4c-.4 2.2-2.3 3.8-4.7 3.8-2.5 0-4.7-2-4.7-4.8 0-2.6 2.2-4.8 4.8-4.8 2.5 0 4.4 1.7 4.8 4h18L293 39V42l-6.3 6.4H268zm-15.4 154.2c-.4 2.2-2.4 4-4.7 4-2.7 0-4.8-2.3-4.8-5 0-2.6 2-4.8 4.7-4.8 2.3 0 4.3 1.7 4.7 4h25.2v-69l15.4-15.4v2.7l-13.5 13.4v70h-27zM52 233.2c-.5 2.2-2.4 4-4.8 4-2.6 0-4.8-2.3-4.8-5 0-2.6 2.2-4.7 4.8-4.7 2.4 0 4.3 1.6 4.7 3.8h9.7v-21.8L39 187H21c-.3 2.2-2.3 3.8-4.6 3.8-2.7 0-4.8-2-4.8-4.8 0-2.6 2-4.8 4.8-4.8 2.3 0 4.3 1.7 4.7 4H40l23.6 23.5v24.6H52zm144.7 13.5c.5-2.2 2.4-3.8 4.7-3.8 2.7 0 5 2 5 4.7s-2.3 4.8-5 4.8c-2.3 0-4.2-1.6-4.7-3.8H92.5v-54.5l-38-38h-18c-.4 2-2.4 3.8-4.7 3.8-2.7 0-4.8-2.2-4.8-4.8 0-2.7 2-4.8 4.8-4.8 2.3 0 4.3 1.6 4.7 3.8h18.8l39.2 39v53.5h102.2zm-144.8 2c-.5 2.2-2.4 3.8-4.8 3.8-2.6 0-4.8-2-4.8-4.8 0-2.7 2.2-4.8 4.8-4.8 2.4 0 4.3 1.5 4.7 3.7h25v-45l-30.2-30H21c-.3 2-2.3 3.7-4.6 3.7-2.7 0-4.8-2-4.8-4.8 0-2.7 2-4.8 4.8-4.8 2.3 0 4.3 1.6 4.7 3.8h26.6L79 201v47.6H52zM93.4 96.4c1.6 0 3-1.3 3-3 0-1.5-1.4-2.8-3-2.8s-3 1.3-3 3c0 1.5 1.4 2.8 3 2.8zm0-15.4c1.6 0 3-1.3 3-3 0-1.5-1.4-2.8-3-2.8s-3 1.3-3 3c0 1.5 1.4 2.8 3 2.8zM109 96.4c1.5 0 2.8-1.3 2.8-3 0-1.5-1.3-2.8-3-2.8-1.5 0-2.8 1.3-2.8 3 0 1.5 1.3 2.8 3 2.8zm15.3 15.4c1.6 0 3-1.3 3-3 0-1.5-1.4-2.8-3-2.8s-3 1.3-3 3c0 1.5 1.4 2.8 3 2.8zm0 15.4c1.6 0 3-1.3 3-3 0-1.5-1.4-2.8-3-2.8s-3 1.3-3 3c0 1.5 1.4 2.8 3 2.8zm-46.2 31c1.7 0 3-1.4 3-3s-1.3-3-3-3c-1.5 0-2.8 1.4-2.8 3s1.3 3 3 3zm15.5 15.3c1.6 0 3-1.3 3-3 0-1.5-1.4-2.8-3-2.8s-3 1.3-3 3c0 1.5 1.4 2.8 3 2.8zm30.8 46.3c1.6 0 3-1.3 3-3 0-1.5-1.4-2.8-3-2.8s-3 1.3-3 3c0 1.5 1.4 2.8 3 2.8zM109 235.2c1.5 0 2.8-1.3 2.8-3 0-1.5-1.3-2.8-3-2.8-1.5 0-2.8 1.3-2.8 3 0 1.5 1.3 2.8 3 2.8zm30.8-15.4c1.6 0 2.8-1.3 2.8-3 0-1.5-1.2-2.8-2.8-2.8-1.6 0-3 1.3-3 3 0 1.5 1.4 2.8 3 2.8zm0-31c1.6 0 2.8-1.2 2.8-2.8 0-1.6-1.2-3-2.8-3-1.6 0-3 1.4-3 3s1.4 3 3 3zm15.4 31c1.6 0 3-1.3 3-3 0-1.5-1.4-2.8-3-2.8s-3 1.3-3 3c0 1.5 1.4 2.8 3 2.8zm30.8 15.4c1.6 0 3-1.3 3-3 0-1.5-1.4-2.8-3-2.8s-3 1.3-3 3c0 1.5 1.4 2.8 3 2.8zm0-15.4c1.6 0 3-1.3 3-3 0-1.5-1.4-2.8-3-2.8s-3 1.3-3 3c0 1.5 1.4 2.8 3 2.8zM170.6 158c1.6 0 3-1.2 3-2.8 0-1.6-1.4-3-3-3s-3 1.4-3 3 1.4 3 3 3zm15.4 0c1.6 0 3-1.2 3-2.8 0-1.6-1.4-3-3-3s-3 1.4-3 3 1.4 3 3 3zm15.4 92.6c1.6 0 3-1.3 3-3 0-1.5-1.4-2.8-3-2.8s-3 1.3-3 3c0 1.5 1.4 2.8 3 2.8zm0 15.4c1.6 0 3-1.3 3-3 0-1.5-1.4-2.8-3-2.8s-3 1.3-3 3c0 1.5 1.4 2.8 3 2.8zm15.5 15.4c1.5 0 2.8-1.3 2.8-3 0-1.5-1.3-2.7-3-2.7-1.5 0-2.8 1.2-2.8 2.8 0 1.6 1.3 3 3 3zm15.3-138.8c1.6 0 3-1.2 3-2.8 0-1.6-1.4-3-3-3s-3 1.4-3 3 1.4 2.8 3 2.8zm0 31c1.6 0 3-1.4 3-3s-1.4-3-3-3-3 1.4-3 3 1.4 3 3 3zm15.4-31c1.6 0 3-1.2 3-2.8 0-1.6-1.4-3-3-3s-3 1.4-3 3 1.4 2.8 3 2.8zm15.4-15.4c1.7 0 3-1.3 3-3 0-1.5-1.3-2.8-3-2.8-1.5 0-2.8 1.3-2.8 3 0 1.5 1.3 2.8 3 2.8zm-92.4 0c1.6 0 3-1.3 3-3 0-1.5-1.4-2.8-3-2.8s-3 1.3-3 3c0 1.5 1.4 2.8 3 2.8zm0 15.4c1.6 0 3-1.2 3-2.8 0-1.6-1.4-3-3-3s-3 1.4-3 3 1.4 2.8 3 2.8zm15.4-30.8c1.6 0 3-1.3 3-3 0-1.5-1.4-2.8-3-2.8s-3 1.3-3 3c0 1.5 1.4 2.8 3 2.8zm92.5 0c1.6 0 3-1.3 3-3 0-1.5-1.4-2.8-3-2.8s-2.8 1.3-2.8 3c0 1.5 1.2 2.8 2.8 2.8zM263 50c1.7 0 3-1.2 3-2.8 0-1.6-1.3-3-3-3-1.5 0-2.8 1.4-2.8 3s1.3 3 3 3zm15.5-15.3c1.6 0 3-1.3 3-3 0-1.5-1.4-2.8-3-2.8s-2.8 1.2-2.8 2.8c0 1.6 1.2 3 2.8 3zm-30.8 0c1.6 0 3-1.3 3-3 0-1.5-1.4-2.8-3-2.8s-3 1.2-3 2.8c0 1.6 1.4 3 3 3zm0-15.4c1.6 0 3-1.3 3-3 0-1.5-1.4-2.8-3-2.8s-3 1.3-3 3c0 1.5 1.4 2.8 3 2.8zm-15.4 0c1.6 0 3-1.3 3-3 0-1.5-1.4-2.8-3-2.8s-3 1.3-3 3c0 1.5 1.4 2.8 3 2.8zm-15.4 0c1.5 0 2.8-1.3 2.8-3 0-1.5-1.3-2.8-3-2.8-1.5 0-2.8 1.3-2.8 3 0 1.5 1.3 2.8 3 2.8zm-15.6 0c1.6 0 3-1.3 3-3 0-1.5-1.4-2.8-3-2.8s-3 1.3-3 3c0 1.5 1.4 2.8 3 2.8zM47.2 34.7c1.6 0 3-1.3 3-3 0-1.5-1.4-2.8-3-2.8s-3 1.2-3 2.8c0 1.6 1.4 3 3 3zm-30.8 0c1.6 0 3-1.3 3-3 0-1.5-1.4-2.8-3-2.8s-3 1.2-3 2.8c0 1.6 1.4 3 3 3zM47.2 50c1.6 0 3-1.2 3-2.8 0-1.6-1.4-3-3-3s-3 1.4-3 3 1.4 3 3 3zM31.8 65.6c1.6 0 3-1.3 3-3 0-1.4-1.4-2.7-3-2.7s-3 1.3-3 2.8c0 1.6 1.4 3 3 3zm15.4-46.2c1.6 0 3-1.3 3-3 0-1.5-1.4-2.8-3-2.8s-3 1.3-3 3c0 1.5 1.4 2.8 3 2.8zm0 231.3c1.6 0 3-1.3 3-3 0-1.5-1.4-2.8-3-2.8s-3 1.3-3 3c0 1.5 1.4 2.8 3 2.8zm15.4 30.8c1.6 0 3-1.3 3-3 0-1.5-1.4-2.7-3-2.7-1.5 0-2.8 1.2-2.8 2.8 0 1.6 1.3 3 2.8 3zm-15.4-61.6c1.6 0 3-1.3 3-3 0-1.5-1.4-2.8-3-2.8s-3 1.3-3 3c0 1.5 1.4 2.8 3 2.8zm0 15.4c1.6 0 3-1.3 3-3 0-1.5-1.4-2.8-3-2.8s-3 1.3-3 3c0 1.5 1.4 2.8 3 2.8zm-15.4-31c1.6 0 3-1.2 3-2.8 0-1.6-1.4-3-3-3s-3 1.4-3 3 1.4 3 3 3zm77-169.5c1.7 0 3-1.3 3-3 0-1.5-1.3-2.8-3-2.8-1.5 0-2.8 1.2-2.8 2.8 0 1.6 1.3 3 3 3zm15.5 0c1.6 0 3-1.3 3-3 0-1.5-1.4-2.8-3-2.8s-3 1.2-3 2.8c0 1.6 1.4 3 3 3zM109 19.3c1.5 0 2.8-1.3 2.8-3 0-1.5-1.3-2.8-3-2.8-1.5 0-2.8 1.3-2.8 3 0 1.5 1.3 2.8 3 2.8zm30.8 46.2c1.6 0 2.8-1.3 2.8-3 0-1.4-1.2-2.7-2.8-2.7-1.6 0-3 1.3-3 2.8 0 1.6 1.4 3 3 3zM155.2 50c1.6 0 3-1.2 3-2.8 0-1.6-1.4-3-3-3s-3 1.4-3 3 1.4 3 3 3zm0-30.7c1.6 0 3-1.3 3-3 0-1.5-1.4-2.8-3-2.8s-3 1.3-3 3c0 1.5 1.4 2.8 3 2.8zm108 169.6c1.5 0 2.8-1.4 2.8-3s-1.3-3-3-3c-1.5 0-2.8 1.4-2.8 3s1.3 3 3 3zm-15.5 15.3c1.6 0 3-1.3 3-3 0-1.5-1.4-2.8-3-2.8s-3 1.3-3 3c0 1.5 1.4 2.8 3 2.8zm0 15.4c1.6 0 3-1.2 3-2.8 0-1.7-1.4-3-3-3s-3 1.3-3 3c0 1.5 1.4 2.8 3 2.8zm0 15.5c1.6 0 3-1.3 3-3 0-1.5-1.4-2.8-3-2.8s-3 1.3-3 3c0 1.5 1.4 2.8 3 2.8zM16.4 173.5c1.6 0 3-1.3 3-3 0-1.5-1.4-2.8-3-2.8s-3 1.3-3 3c0 1.5 1.4 2.8 3 2.8zm0 15.4c1.6 0 3-1.4 3-3s-1.4-3-3-3-3 1.4-3 3 1.4 3 3 3zm0-31c1.6 0 3-1.2 3-2.8 0-1.6-1.4-3-3-3s-3 1.4-3 3 1.4 3 3 3zm15.4 0c1.6 0 3-1.2 3-2.8 0-1.6-1.4-3-3-3s-3 1.4-3 3 1.4 3 3 3zM16.4 81c1.6 0 3-1.3 3-3 0-1.5-1.4-2.8-3-2.8s-3 1.3-3 3c0 1.5 1.4 2.8 3 2.8zm30.8 61.6c1.6 0 3-1.2 3-2.8 0-1.6-1.4-3-3-3s-3 1.4-3 3 1.4 2.8 3 2.8zm15.4-15.4c1.6 0 3-1.3 3-3 0-1.5-1.4-2.8-3-2.8-1.5 0-2.8 1.3-2.8 3 0 1.5 1.3 2.8 2.8 2.8zM32.8 38.4V0h-2v39L8.3 61.8H0v2H9L33 39.8v-1.6zm-31 250.8v-40.5h13.6V293h2v-46.3H0v44.5h1c1.2 0 2.3.7 2.7 1.8h2c-.4-2-2-3.4-3.8-3.8zm31-57V293h-2v-59.8H0v-2h32.8v1zm-16.4-215h1V0h-2v15.4H0v2h16.4zm263-1.8V0h-1.8v17.4H293v-2h-13.5zm-30.7 263V293h-2v-13.5h-13.5V293h-2v-15.4h17.5v1zM0 89h1c2.6 0 4.8 2 4.8 4.7S3.6 98.3 1 98.3H0v-2h1c1.6 0 3-1.2 3-2.8 0-1.6-1.4-3-3-3-.4 0-.7.2-1 .3v-2zm77 173.4h2V293h-2v-30.8zm36.6 30.8c-.4-2.2-2.4-4-4.7-4-2.4 0-4.4 1.8-4.8 4h2c.4-1 1.5-2 2.7-2 1.2 0 2.2 1 2.6 2h2zM5.6 0L6 1c0 2.6-2.2 4.8-4.8 4.8H0v-2h1C2.6 4 4 2.7 4 1c0-.4-.2-.7-.3-1h2zm283.6 0v1c0 2.3 1.6 4.2 3.8 4.7v-2c-1-.4-2-1.5-2-2.7 0-.4 0-.7.2-1h-2zm3.8 289.2c-2 .4-3.4 2-3.8 3.8h2c.3-.8 1-1.5 1.8-1.8v-2z"/></svg>