<svg xmlns="http://www.w3.org/2000/svg" viewBox="0 0 1583 1187"><g fill="none" fill-rule="evenodd" transform="translate(26 46)"><rect width="143" height="28" x="1092.5" y="58.7" fill="#0FB6F2" transform="rotate(-75 1164.03 72.687)" rx="14"/><rect width="143" height="28" x="1122.2" y="668" fill="#0FB6F2" transform="rotate(15 1193.687 682.03)" rx="14"/><rect width="143" height="28" x="409.6" y="761.6" fill="#F96316" transform="rotate(-36 481.074 775.573)" rx="14"/><rect width="143" height="28" x="389.4" y="298.1" fill="#0FB6F2" transform="rotate(30 460.92 312.095)" rx="14"/><rect width="143" height="28" x="1223.4" y="345.9" fill="#B114F7" transform="rotate(-30 1294.92 359.874)" rx="14"/><rect width="143" height="28" x="1.5" y="228.7" fill="#0FB6F2" transform="rotate(-75 73.03 242.687)" rx="14"/><rect width="143" height="28" x="1.2" y="858" fill="#0FB6F2" transform="rotate(15 72.687 872.03)" rx="14"/><rect width="143" height="28" x="102.4" y="535.9" fill="#B114F7" transform="rotate(-30 173.92 549.874)" rx="14"/><rect width="143" height="28" x="300.4" y="997.9" fill="#B114F7" transform="rotate(30 371.92 1011.874)" rx="14"/><rect width="143" height="28" x="268" y="74.7" fill="#F96316" transform="rotate(-45 339.458 88.678)" rx="14"/><rect width="143" height="28" x="1194.6" y="888.4" fill="#F96316" transform="rotate(-75 1266.074 902.353)" rx="14"/><rect width="143" height="28" x="1395.4" y="535.9" fill="#B114F7" transform="rotate(30 1466.92 549.874)" rx="14"/></g></svg>