<?xml version="1.0" encoding="UTF-8" standalone="no"?>
<svg width="262px" height="139px" viewBox="0 0 262 139" version="1.1" xmlns="http://www.w3.org/2000/svg" xmlns:xlink="http://www.w3.org/1999/xlink">
    <!-- Generator: sketchtool 39.1 (31720) - http://www.bohemiancoding.com/sketch -->
    <title>2BCA91AD-ED07-4E33-B9B7-EA1D8518890B</title>
    <desc>Created with sketchtool.</desc>
    <defs>
        <circle id="path-1" cx="9" cy="9" r="9"></circle>
        <circle id="path-3" cx="9" cy="9" r="9"></circle>
        <rect id="path-5" x="0" y="0" width="262" height="139" rx="4"></rect>
        <mask id="mask-6" maskContentUnits="userSpaceOnUse" maskUnits="objectBoundingBox" x="0" y="0" width="262" height="139" fill="white">
            <use xlink:href="#path-5"></use>
        </mask>
    </defs>
    <g id="Page-1" stroke="none" stroke-width="1" fill="none" fill-rule="evenodd">
        <g id="Homepage---Mobile" transform="translate(-29.000000, -1735.000000)">
            <g id="Features" transform="translate(29.000000, 1115.000000)">
                <g id="illo-search.svg-copy" transform="translate(0.000000, 620.000000)">
                    <g>
                        <rect id="Background" fill="#0FB6F2" x="2" y="22" width="258" height="115"></rect>
                        <g id="Authors" transform="translate(168.000000, 40.000000)">
                            <g id="Group-Copy" transform="translate(0.000000, 56.000000)">
                                <rect id="Rectangle-10-Copy-9" fill="#BFEAFA" x="25" y="2" width="30" height="4" rx="2"></rect>
                                <rect id="Rectangle-10-Copy-10" fill="#BFEAFA" x="25" y="11" width="40" height="4" rx="2"></rect>
                                <mask id="mask-2" fill="white">
                                    <use xlink:href="#path-1"></use>
                                </mask>
                                <use id="Oval-3" fill="#FFFFFF" xlink:href="#path-1"></use>
                                <path d="M11.215068,10.8192447 C12.1569553,10.1340203 12.7692308,9.02312783 12.7692308,7.76923077 C12.7692308,5.6875421 11.0816887,4 9,4 C6.91831133,4 5.23076923,5.6875421 5.23076923,7.76923077 C5.23076923,9.02312783 5.84304465,10.1340203 6.78493204,10.8192447 C4.00454987,11.7460099 2,14.3696803 2,17.4615385 C2,21.3275317 5.13400675,24.4615385 9,24.4615385 C12.8659932,24.4615385 16,21.3275317 16,17.4615385 C16,14.3696803 13.9954501,11.7460099 11.215068,10.8192447 Z" id="Combined-Shape" fill="#0092D6" mask="url(#mask-2)"></path>
                            </g>
                            <g id="Group-Copy-2" transform="translate(0.000000, 26.000000)">
                                <rect id="Rectangle-10-Copy-9" fill="#BFEAFA" x="25" y="2" width="30" height="4" rx="2"></rect>
                                <rect id="Rectangle-10-Copy-10" fill="#BFEAFA" x="25" y="11" width="40" height="4" rx="2"></rect>
                                <mask id="mask-4" fill="white">
                                    <use xlink:href="#path-3"></use>
                                </mask>
                                <use id="Oval-3" fill="#FFFFFF" xlink:href="#path-3"></use>
                                <path d="M11.215068,10.8192447 C12.1569553,10.1340203 12.7692308,9.02312783 12.7692308,7.76923077 C12.7692308,5.6875421 11.0816887,4 9,4 C6.91831133,4 5.23076923,5.6875421 5.23076923,7.76923077 C5.23076923,9.02312783 5.84304465,10.1340203 6.78493204,10.8192447 C4.00454987,11.7460099 2,14.3696803 2,17.4615385 C2,21.3275317 5.13400675,24.4615385 9,24.4615385 C12.8659932,24.4615385 16,21.3275317 16,17.4615385 C16,14.3696803 13.9954501,11.7460099 11.215068,10.8192447 Z" id="Combined-Shape" fill="#0092D6" mask="url(#mask-4)"></path>
                            </g>
                            <text font-family="Circular-Std-Bold, Circular Std" font-size="12" font-weight="bold" fill="#FFFFFF">
                                <tspan x="2" y="12">Authors</tspan>
                            </text>
                        </g>
                        <g id="Code-snippet" transform="translate(21.000000, 42.000000)">
                            <rect id="Rectangle-4" fill="#76D0F2" x="0" y="0" width="132" height="75" rx="3"></rect>
                            <rect id="Rectangle-10" fill="#344966" x="12" y="13" width="44" height="4" rx="2"></rect>
                            <rect id="Rectangle-10-Copy-5" fill="#344966" x="12" y="24" width="94" height="4" rx="2"></rect>
                            <rect id="Rectangle-10-Copy-6" fill="#344966" x="12" y="35" width="94" height="4" rx="2"></rect>
                            <rect id="Rectangle-10-Copy-7" fill="#344966" x="12" y="46" width="64" height="4" rx="2"></rect>
                            <rect id="Rectangle-10-Copy-8" fill="#344966" x="12" y="57" width="74" height="4" rx="2"></rect>
                        </g>
                        <g id="Outline">
                            <use id="Rectangle-9" stroke="#344966" mask="url(#mask-6)" stroke-width="6" xlink:href="#path-5"></use>
                            <path d="M3.5,22.5 L258.507843,22.5" id="Line" stroke="#344966" stroke-width="3" stroke-linecap="square"></path>
                            <circle id="Oval-2" fill="#F56869" cx="13.5" cy="11.5" r="4.5"></circle>
                            <circle id="Oval-2-Copy" fill="#FEC570" cx="27.5" cy="11.5" r="4.5"></circle>
                            <circle id="Oval-2-Copy-2" fill="#0DCEB7" cx="42.5" cy="11.5" r="4.5"></circle>
                        </g>
                    </g>
                </g>
            </g>
        </g>
    </g>
</svg>