<svg viewBox="0 0 220 117" xmlns="http://www.w3.org/2000/svg" xmlns:xlink="http://www.w3.org/1999/xlink"><defs><rect id="a" width="220" height="117" rx="3.4"/><mask id="b" x="0" y="0" width="220" height="117" fill="#fff"><use xlink:href="#a"/></mask></defs><g fill="none" fill-rule="evenodd"><path fill="#0FB6F2" d="M1.7 18.5h216.6v96.8H1.7z"/><g transform="translate(17.634 35.353)"><rect fill="#76D0F2" width="62.8" height="63.1" rx="2.5"/><rect fill="#344966" x="5.7" y="10.9" width="20.9" height="3.4" rx="1.7"/><rect fill="#344966" x="5.7" y="20.2" width="44.7" height="3.4" rx="1.7"/><rect fill="#344966" x="5.7" y="29.5" width="44.7" height="3.4" rx="1.7"/><rect fill="#344966" x="5.7" y="38.7" width="30.5" height="3.4" rx="1.7"/><rect fill="#344966" x="5.7" y="48" width="35.2" height="3.4" rx="1.7"/></g><g transform="translate(137.634 35.353)"><rect fill="#76D0F2" width="62.8" height="63.1" rx="2.5"/><rect fill="#344966" x="5.7" y="10.9" width="20.9" height="3.4" rx="1.7"/><rect fill="#344966" x="5.7" y="20.2" width="44.7" height="3.4" rx="1.7"/><rect fill="#344966" x="5.7" y="29.5" width="44.7" height="3.4" rx="1.7"/><rect fill="#344966" x="5.7" y="38.7" width="30.5" height="3.4" rx="1.7"/><rect fill="#344966" x="5.7" y="48" width="35.2" height="3.4" rx="1.7"/></g><use stroke="#344966" mask="url(#b)" stroke-width="5" xlink:href="#a"/><path d="M3 19h214" stroke="#344966" stroke-width="2.5" stroke-linecap="square"/><ellipse fill="#F56869" cx="11.3" cy="9.7" rx="3.8" ry="3.8"/><ellipse fill="#FEC570" cx="23.1" cy="9.7" rx="3.8" ry="3.8"/><ellipse fill="#0DCEB7" cx="35.7" cy="9.7" rx="3.8" ry="3.8"/><path d="M118 69H96.4c-.8 0-1.5-.7-1.5-1.5s.5-1.5 1.3-1.5H118l-4.6-4.4c-.5-.6-.5-1.6 0-2.2.6-.5 1.6-.5 2.2 0l7 7c.3.3.4.7.4 1 0 .5 0 1-.4 1.2l-7 7c-.6.5-1.6.5-2.2 0-.5-.6-.5-1.6 0-2.2L118 69z" fill="#344966"/></g></svg>