<svg viewBox="0 0 262 139" xmlns="http://www.w3.org/2000/svg" xmlns:xlink="http://www.w3.org/1999/xlink"><title>831A1AB4-BFE0-435E-BE8A-1596C9637293</title><defs><path id="d" d="M2 22h258v115H2z"/><filter x="-50%" y="-50%" width="200%" height="200%" filterUnits="objectBoundingBox" id="e"><feOffset dx="-18" dy="10" in="SourceAlpha" result="shadowOffsetInner1"/><feComposite in="shadowOffsetInner1" in2="SourceAlpha" operator="arithmetic" k2="-1" k3="1" result="shadowInnerInner1"/><feColorMatrix values="0 0 0 0 0 0 0 0 0 0 0 0 0 0 0 0 0 0 0.08 0" in="shadowInnerInner1"/></filter><rect id="a" width="262" height="139" rx="4"/><mask id="f" x="0" y="0" width="262" height="139" fill="#fff"><use xlink:href="#a"/></mask><path d="M58.6 71.828L63 74l-5.5-11L52 74l4.4-2.228v4.983c0 .594.492 1.095 1.1 1.095.612 0 1.1-.49 1.1-1.095v-4.927z" id="b"/><filter x="-50%" y="-50%" width="200%" height="200%" filterUnits="objectBoundingBox" id="g"><feMorphology radius="2" operator="dilate" in="SourceAlpha" result="shadowSpreadOuter1"/><feOffset dx="4" dy="2" in="shadowSpreadOuter1" result="shadowOffsetOuter1"/><feComposite in="shadowOffsetOuter1" in2="SourceAlpha" operator="out" result="shadowOffsetOuter1"/><feColorMatrix values="0 0 0 0 0 0 0 0 0 0 0 0 0 0 0 0 0 0 0.15 0" in="shadowOffsetOuter1"/></filter><mask id="h" x="-2" y="-2" width="15" height="18.85"><path fill="#fff" d="M50 61h15v18.85H50z"/><use xlink:href="#b"/></mask><rect id="c" x="68" y="72" width="120" height="40" rx="4"/><filter x="-50%" y="-50%" width="200%" height="200%" filterUnits="objectBoundingBox" id="i"><feOffset dx="5" dy="5" in="SourceAlpha" result="shadowOffsetOuter1"/><feComposite in="shadowOffsetOuter1" in2="SourceAlpha" operator="out" result="shadowOffsetOuter1"/><feColorMatrix values="0 0 0 0 0 0 0 0 0 0 0 0 0 0 0 0 0 0 0.103232563 0" in="shadowOffsetOuter1"/></filter><mask id="j" x="0" y="0" width="120" height="40" fill="#fff"><use xlink:href="#c"/></mask></defs><g fill="none" fill-rule="evenodd"><use fill="#0FB6F2" xlink:href="#d"/><use fill="#000" filter="url(#e)" xlink:href="#d"/><use stroke="#344966" mask="url(#f)" stroke-width="6" xlink:href="#a"/><path d="M3.5 22.5h255.008" stroke="#344966" stroke-width="3" stroke-linecap="square"/><circle fill="#F56869" cx="13.5" cy="11.5" r="4.5"/><circle fill="#FEC570" cx="27.5" cy="11.5" r="4.5"/><circle fill="#0DCEB7" cx="42.5" cy="11.5" r="4.5"/><rect fill="#344966" x="33" y="51" width="184" height="4" rx="2"/><rect fill="#FFF" x="33" y="62" width="94" height="4" rx="2"/><rect fill="#344966" x="33" y="74" width="114" height="4" rx="2"/><rect fill="#344966" x="33" y="85" width="134" height="4" rx="2"/><rect fill="#344966" x="33" y="96" width="44" height="4" rx="2"/><g transform="rotate(-30 57.5 70.425)"><use fill="#000" filter="url(#g)" xlink:href="#b"/><use fill="#1A304D" xlink:href="#b"/><use stroke="#FFF" mask="url(#h)" stroke-width="4" stroke-linecap="round" stroke-linejoin="round" xlink:href="#b"/></g><use fill="#000" filter="url(#i)" xlink:href="#c"/><use stroke="#344966" mask="url(#j)" stroke-width="6" fill="#FFF" xlink:href="#c"/><path d="M82.5 87.5h90M82.5 95.5h90" stroke="#344966" stroke-width="3" stroke-linecap="round" stroke-linejoin="round"/></g></svg>