<svg viewBox="0 0 262 139" xmlns="http://www.w3.org/2000/svg" xmlns:xlink="http://www.w3.org/1999/xlink"><defs><circle id="b" cx="9" cy="9" r="9"/><circle id="d" cx="9" cy="9" r="9"/><rect id="a" width="262" height="139" rx="4"/><mask id="f" x="0" y="0" width="262" height="139" fill="#fff"><use xlink:href="#a"/></mask></defs><g fill="none" fill-rule="evenodd"><path fill="#0FB6F2" d="M2 22h258v115H2z"/><g transform="translate(168 96)"><rect fill="#BFEAFA" x="25" y="2" width="30" height="4" rx="2"/><rect fill="#BFEAFA" x="25" y="11" width="40" height="4" rx="2"/><mask id="c" fill="#fff"><use xlink:href="#b"/></mask><use fill="#FFF" xlink:href="#b"/><path d="M11.215 10.82c.942-.686 1.554-1.797 1.554-3.05C12.77 5.687 11.08 4 9 4S5.23 5.688 5.23 7.77c0 1.253.613 2.364 1.555 3.05C4.005 11.745 2 14.37 2 17.46c0 3.866 3.134 7 7 7s7-3.134 7-7c0-3.092-2.005-5.716-4.785-6.643z" fill="#0092D6" mask="url(#c)"/></g><g transform="translate(168 66)"><rect fill="#BFEAFA" x="25" y="2" width="30" height="4" rx="2"/><rect fill="#BFEAFA" x="25" y="11" width="40" height="4" rx="2"/><mask id="e" fill="#fff"><use xlink:href="#d"/></mask><use fill="#FFF" xlink:href="#d"/><path d="M11.215 10.82c.942-.686 1.554-1.797 1.554-3.05C12.77 5.687 11.08 4 9 4S5.23 5.688 5.23 7.77c0 1.253.613 2.364 1.555 3.05C4.005 11.745 2 14.37 2 17.46c0 3.866 3.134 7 7 7s7-3.134 7-7c0-3.092-2.005-5.716-4.785-6.643z" fill="#0092D6" mask="url(#e)"/></g><path d="M176.744 52h1.8l-3.24-8.508h-1.92L170.12 52h1.752l.708-1.944h3.456l.708 1.944zm-2.436-6.672l1.176 3.216h-2.352l1.176-3.216zM183.38 52h1.524c-.024-.204-.06-.612-.06-1.068v-4.836h-1.596v3.432c0 .684-.408 1.164-1.116 1.164-.744 0-1.08-.528-1.08-1.188v-3.408h-1.596v3.732c0 1.284.816 2.328 2.244 2.328.624 0 1.308-.24 1.632-.792 0 .24.024.516.048.636zm5.136-7.668h-1.44v.828c0 .528-.288.936-.912.936h-.3v1.416h1.068v2.748c0 1.14.72 1.824 1.872 1.824.468 0 .756-.084.9-.144v-1.32c-.084.024-.3.048-.492.048-.456 0-.696-.168-.696-.684v-2.472h1.188v-1.416h-1.188v-1.764zm4.104 4.2c.036-.648.432-1.152 1.104-1.152.768 0 1.092.516 1.092 1.176V52h1.596v-3.72c0-1.296-.696-2.34-2.196-2.34-.564 0-1.212.192-1.596.648v-3.276h-1.596V52h1.596v-3.468zm8.064 2.196c-.78 0-1.5-.576-1.5-1.68 0-1.116.72-1.68 1.5-1.68s1.5.564 1.5 1.68-.72 1.68-1.5 1.68zm0-4.812c-1.764 0-3.096 1.308-3.096 3.132 0 1.812 1.332 3.132 3.096 3.132s3.096-1.32 3.096-3.132c0-1.824-1.332-3.132-3.096-3.132zm7.956.156c-.12-.012-.24-.024-.372-.024-.504 0-1.32.144-1.68.924v-.876h-1.548V52h1.596v-2.7c0-1.272.708-1.668 1.524-1.668.144 0 .3.012.48.048v-1.608zm.588 4.284c.072.672.684 1.824 2.46 1.824 1.548 0 2.292-.984 2.292-1.944 0-.864-.588-1.572-1.752-1.812l-.84-.18c-.324-.06-.54-.24-.54-.528 0-.336.336-.588.756-.588.672 0 .924.444.972.792l1.332-.3c-.072-.636-.636-1.704-2.316-1.704-1.272 0-2.208.876-2.208 1.932 0 .828.516 1.512 1.656 1.764l.78.18c.456.096.636.312.636.576 0 .312-.252.588-.78.588-.696 0-1.044-.432-1.08-.9l-1.368.3z" fill="#FFF"/><g transform="translate(21 42)"><rect fill="#76D0F2" width="132" height="75" rx="3"/><rect fill="#344966" x="12" y="13" width="44" height="4" rx="2"/><rect fill="#344966" x="12" y="24" width="94" height="4" rx="2"/><rect fill="#344966" x="12" y="35" width="94" height="4" rx="2"/><rect fill="#344966" x="12" y="46" width="64" height="4" rx="2"/><rect fill="#344966" x="12" y="57" width="74" height="4" rx="2"/></g><use stroke="#344966" mask="url(#f)" stroke-width="6" xlink:href="#a"/><path d="M3.5 22.5h255.008" stroke="#344966" stroke-width="3" stroke-linecap="square"/><circle fill="#F56869" cx="13.5" cy="11.5" r="4.5"/><circle fill="#FEC570" cx="27.5" cy="11.5" r="4.5"/><circle fill="#0DCEB7" cx="42.5" cy="11.5" r="4.5"/></g></svg>