<svg viewBox="0 0 262 139" xmlns="http://www.w3.org/2000/svg" xmlns:xlink="http://www.w3.org/1999/xlink"><defs><rect id="a" width="262" height="139" rx="4"/><mask id="c" x="0" y="0" width="262" height="139" fill="#fff"><use xlink:href="#a"/></mask><rect id="b" x="27" y="37" width="208" height="26" rx="3"/><mask id="d" x="0" y="0" width="208" height="26" fill="#fff"><use xlink:href="#b"/></mask></defs><g fill="none" fill-rule="evenodd"><path fill="#0FB6F2" d="M2 22h258v115H2z"/><rect fill="#76D0F2" x="27" y="69" width="207" height="68" rx="2"/><use stroke="#344966" mask="url(#c)" stroke-width="6" xlink:href="#a"/><use stroke="#344966" mask="url(#d)" stroke-width="6" fill="#FFF" xlink:href="#b"/><path d="M217.5 47.5l8.062 8.062" stroke="#344966" stroke-width="3" stroke-linecap="round"/><circle stroke="#344966" stroke-width="3" fill="#FFF" cx="219.5" cy="49.5" r="4.5"/><path d="M37.448 50.532c.036-.648.432-1.152 1.104-1.152.768 0 1.092.516 1.092 1.176V54h1.596v-3.72c0-1.296-.696-2.34-2.196-2.34-.564 0-1.212.192-1.596.648v-3.276h-1.596V54h1.596v-3.468zm7.38-4.2h-1.44v.828c0 .528-.288.936-.912.936h-.3v1.416h1.068v2.748c0 1.14.72 1.824 1.872 1.824.468 0 .756-.084.9-.144v-1.32c-.084.024-.3.048-.492.048-.456 0-.696-.168-.696-.684v-2.472h1.188v-1.416h-1.188v-1.764zm4.476 0h-1.44v.828c0 .528-.288.936-.912.936h-.3v1.416h1.068v2.748c0 1.14.72 1.824 1.872 1.824.468 0 .756-.084.9-.144v-1.32c-.084.024-.3.048-.492.048-.456 0-.696-.168-.696-.684v-2.472h1.188v-1.416h-1.188v-1.764zm4.104 9.948v-2.856c.288.396.888.72 1.704.72 1.668 0 2.784-1.32 2.784-3.108 0-1.752-.996-3.072-2.724-3.072-.888 0-1.548.396-1.812.852v-.72h-1.548v8.184h1.596zm2.916-5.232c0 1.056-.648 1.668-1.464 1.668s-1.476-.624-1.476-1.668.66-1.656 1.476-1.656 1.464.612 1.464 1.656zm9.396-2.976c-.12-.012-.24-.024-.372-.024-.504 0-1.32.144-1.68.924v-.876H62.12V54h1.596v-2.7c0-1.272.708-1.668 1.524-1.668.144 0 .3.012.48.048v-1.608zm2.256 2.304c.036-.54.492-1.164 1.32-1.164.912 0 1.296.576 1.32 1.164h-2.64zm2.796 1.536c-.192.528-.6.9-1.344.9-.792 0-1.452-.564-1.488-1.344h4.224c0-.024.024-.264.024-.492 0-1.896-1.092-3.06-2.916-3.06-1.512 0-2.904 1.224-2.904 3.108 0 1.992 1.428 3.156 3.048 3.156 1.452 0 2.388-.852 2.688-1.872l-1.332-.396zm8.316 4.368v-8.184h-1.524v.684c-.168-.336-.696-.828-1.728-.828-1.716 0-2.832 1.356-2.832 3.084 0 1.776 1.2 3.108 2.88 3.108.78 0 1.368-.288 1.644-.732v2.868h1.56zm-4.476-5.244c0-1.056.648-1.656 1.464-1.656s1.464.6 1.464 1.656-.648 1.68-1.464 1.68-1.464-.624-1.464-1.68zM84.608 54h1.524c-.024-.204-.06-.612-.06-1.068v-4.836h-1.596v3.432c0 .684-.408 1.164-1.116 1.164-.744 0-1.08-.528-1.08-1.188v-3.408h-1.596v3.732c0 1.284.816 2.328 2.244 2.328.624 0 1.308-.24 1.632-.792 0 .24.024.516.048.636zm4.332-3.624c.036-.54.492-1.164 1.32-1.164.912 0 1.296.576 1.32 1.164h-2.64zm2.796 1.536c-.192.528-.6.9-1.344.9-.792 0-1.452-.564-1.488-1.344h4.224c0-.024.024-.264.024-.492 0-1.896-1.092-3.06-2.916-3.06-1.512 0-2.904 1.224-2.904 3.108 0 1.992 1.428 3.156 3.048 3.156 1.452 0 2.388-.852 2.688-1.872l-1.332-.396zm2.172.444c.072.672.684 1.824 2.46 1.824 1.548 0 2.292-.984 2.292-1.944 0-.864-.588-1.572-1.752-1.812l-.84-.18c-.324-.06-.54-.24-.54-.528 0-.336.336-.588.756-.588.672 0 .924.444.972.792l1.332-.3c-.072-.636-.636-1.704-2.316-1.704-1.272 0-2.208.876-2.208 1.932 0 .828.516 1.512 1.656 1.764l.78.18c.456.096.636.312.636.576 0 .312-.252.588-.78.588-.696 0-1.044-.432-1.08-.9l-1.368.3zm8.004-6.024h-1.44v.828c0 .528-.288.936-.912.936h-.3v1.416h1.068v2.748c0 1.14.72 1.824 1.872 1.824.468 0 .756-.084.9-.144v-1.32c-.084.024-.3.048-.492.048-.456 0-.696-.168-.696-.684v-2.472h1.188v-1.416h-1.188v-1.764z" fill="#1A304D"/><path d="M3.5 22.5h255.008" stroke="#344966" stroke-width="3" stroke-linecap="square"/><circle fill="#F56869" cx="13.5" cy="11.5" r="4.5"/><circle fill="#FEC570" cx="27.5" cy="11.5" r="4.5"/><circle fill="#0DCEB7" cx="42.5" cy="11.5" r="4.5"/><path d="M42.5 84h48M42.5 94h168M42.5 112h48M42.5 122h168" stroke="#344966" stroke-width="4" stroke-linecap="round"/></g></svg>